<svg xmlns="http://www.w3.org/2000/svg" viewBox="0 0 110.38 123.84"><defs><style>.cls-1{fill:#e9ebec;}.cls-2{fill:#fefefe;}</style></defs><title>fond2Plan de travail 32 copie</title><g id="Calque_2" data-name="Calque 2"><path class="cls-1" d="M53.57,13.16c.18-.14.35,0,.52.05L98.81,29.14a.47.47,0,0,1,.37.6q-.84,7.17-1.66,14.34T95.89,58.13c-.47,4-.92,8.08-1.39,12.12Q93.73,76.81,93,83.36c-.21,1.77-.42,3.55-.6,5.33a1.21,1.21,0,0,1-.69,1.08L54.23,110.49c-.18.1-.35.39-.63.17.2-.2.14-.45.14-.69V73.36c3.84,0,7.69,0,11.53,0a.68.68,0,0,1,.77.51c1.75,4.43,3.54,8.85,5.3,13.28a.62.62,0,0,0,.69.47c3.19,0,6.38,0,9.57,0,.15,0,.33.06.49-.09q-1.5-3.34-3-6.68Q68.09,56.07,57,31.34c-1.09-2.45-2.2-4.89-3.3-7.33V13.9C53.74,13.64,53.8,13.37,53.57,13.16Z"/><path class="cls-2" d="M53.74,73.36V110c0,.24.06.49-.14.69l-8.27-4.55L15.66,89.69a.9.9,0,0,1-.53-.76q-.68-6.06-1.38-12.12c-.46-4-.94-8.07-1.4-12.11q-.64-5.55-1.28-11.11T9.79,42.48C9.4,39.08,9,35.67,8.61,32.26c-.1-.83-.17-1.67-.3-2.5-.06-.38.06-.51.39-.63q17.94-6.37,35.87-12.78l9-3.19c.23.21.17.48.17.74V24a3.65,3.65,0,0,0-.18.34q-14,31.4-28,62.8c-.05.12-.18.24-.08.44H26c3.15,0,6.3,0,9.45,0a.69.69,0,0,0,.76-.53q2.64-6.64,5.32-13.27c.09-.24.13-.47.5-.46C45.91,73.36,49.82,73.36,53.74,73.36Z"/><path class="cls-2" d="M53.74,64.57c-2.65,0-5.3,0-7.94,0-.58,0-.26-.31-.19-.49l3.55-8.55q2.19-5.25,4.37-10.51c.14-.34.15-.34.32-.15a1.18,1.18,0,0,0-.1.76Q53.74,55.11,53.74,64.57Z"/><path class="cls-1" d="M53.74,64.57q0-9.45,0-18.91a1.18,1.18,0,0,1,.1-.76c.8,1.9,1.62,3.8,2.41,5.7q2.81,6.74,5.6,13.46c.18.42.17.55-.34.54C58.92,64.57,56.33,64.58,53.74,64.57Z"/></g></svg>