<?xml version="1.0" encoding="utf-8"?>
<!-- Generator: Adobe Illustrator 24.0.1, SVG Export Plug-In . SVG Version: 6.00 Build 0)  -->
<svg version="1.1" id="Calque_1" xmlns="http://www.w3.org/2000/svg" xmlns:xlink="http://www.w3.org/1999/xlink" x="0px" y="0px"
	 viewBox="0 0 3846.2 388.3" style="enable-background:new 0 0 3846.2 388.3;" xml:space="preserve">
<style type="text/css">
	.st0{fill:#6BED8C;}
	.st1{fill:#D2FFE0;}
	.st2{fill:#0B0C06;}
	.st3{fill:#142A2A;}
	.st4{fill:#04AF38;}
	.st5{fill:#3F4242;}
	.st6{fill:none;}
</style>
<title>fond2Plan de travail 8</title>
<path class="st0" d="M203.8,134.9c-5.7-12.9-20.6-34.9-57-42.7c-45-9.7-71.2,7.3-80.8,16c-14.4,12.2-22.7,30.2-22.7,49.1v28.2
	c0,14.5,4.9,28.6,13.9,40c-2.1,3.4-3.8,6.8-4.2,9.6c-0.9,6.3,7.7,8.9,7.7,8.9s37.2,14.6,58.9,24.7c21.7,10.1,6,42.6-0.6,46.8
	c-7,4.5-0.3,15.7-2.7,22.1c-2.8,7.6-12.7,10.8-12.7,16.5c0,11.1-8.1,29.4,1.7,20.7c11.8-10.4,7.8-14.5,28.3-26.7
	c8.8-5.3,13.2-11.8,5.1-24.4c-1.9-3,0.8-12.6,24.2-29.2c23.4-16.6,16-22.4,11-33.3c-5.2-11.4-9.1-18.1-9-24.2
	c16.1-12.2,25.6-31.2,25.6-51.4v-23.4c2.3-4.9,5.6-9.4,9.5-13.1C204.6,145.1,206,139.8,203.8,134.9z"/>
<path class="st1" d="M144.1,250.4c0-6.5,10.9-17.3,12.6-19c4-3.4,6.2-7.4,6.2-11.7c0-13-20.9-23.5-46.8-23.5s-46.8,10.5-46.8,23.5
	c0,6.6,5.4,12.6,14.2,16.8c10.8,6.3,30.1,14.4,36.6,18.7c9.7,6.3,16.7,14.3,21.2,19.6c10.2,12.2-14.7,36.7-16,42.3
	c-1.2,5.3,1.3,13.1,0.2,16.2c-1.1,3.1-11,16.4-11,16.4s16.7-9.6,17.5-17s-6-13.7,8.9-27.8s23.4-17.8,16.7-29.3
	S144.1,257.4,144.1,250.4z"/>
<ellipse transform="matrix(0.9752 -0.2215 0.2215 0.9752 -42.2689 24.5445)" class="st2" cx="88.3" cy="200.7" rx="27.7" ry="15.9"/>
<ellipse transform="matrix(0.1913 -0.9815 0.9815 0.1913 -78.2285 306.5956)" class="st2" cx="146.9" cy="200.8" rx="15.9" ry="27.7"/>
<ellipse class="st2" cx="97.3" cy="211.8" rx="10.9" ry="19.7"/>
<ellipse class="st2" cx="119.4" cy="211.4" rx="10.9" ry="19.7"/>
<ellipse class="st2" cx="140" cy="210.4" rx="10.9" ry="19.7"/>
<path class="st2" d="M119.6,125.6c-20,0-40.3,20.5-51.3,3.7c-6.5,10-9.9,21.7-9.9,33.7c0,33.6,26.4,60.8,59,60.8s59-27.2,59-60.8
	c0-11.7-3.3-23.1-9.5-33C156,146.2,139.2,125.5,119.6,125.6z"/>
<path class="st3" d="M118,156.1c19.7,0,38.1-9.8,49-26.1c-16.7-27.4-52.4-36-79.8-19.3c-7.7,4.7-14.1,11.1-18.9,18.6
	C79.3,146,98,156.1,118,156.1z"/>
<ellipse transform="matrix(0.6784 -0.7347 0.7347 0.6784 -108.1064 148.2797)" class="st4" cx="115.3" cy="197.6" rx="7.1" ry="4.1"/>
<ellipse transform="matrix(0.6784 -0.7347 0.7347 0.6784 -106.1772 152.3359)" class="st4" cx="120.9" cy="197.4" rx="4.1" ry="7.1"/>
<ellipse transform="matrix(0.3017 -0.9534 0.9534 0.3017 -112.4194 212.0575)" class="st3" cx="88.6" cy="182.8" rx="15.1" ry="16.7"/>
<ellipse transform="matrix(0.9333 -0.359 0.359 0.9333 -55.6898 65.5648)" class="st3" cx="148.7" cy="182.7" rx="16.7" ry="15.1"/>
<ellipse transform="matrix(0.3011 -0.9536 0.9536 0.3011 -112.9554 212.2314)" class="st4" cx="88.3" cy="183.2" rx="10.2" ry="11.2"/>
<ellipse transform="matrix(0.9974 -7.270577e-02 7.270577e-02 0.9974 -12.9073 11.296)" class="st4" cx="148.7" cy="182.9" rx="11.3" ry="10.2"/>
<ellipse transform="matrix(0.757 -0.6534 0.6534 0.757 -46.6116 125.9224)" class="st5" cx="146" cy="125.6" rx="8" ry="11.6"/>
<path class="st0" d="M444.6,114.9c-5.7-12.9-20.6-34.9-57-42.7c-45-9.7-71.1,7.3-80.8,16c-14.4,12.2-22.7,30.2-22.7,49.1v28.2
	c0,14.5,4.9,28.6,13.9,40c-4.4,12.6,7.2,17.1,7.2,17.1s15,4.7,36.4,20.9c19.1,14.5,24.8,47.8,18.2,52c-7,4.5,4.8,14,2.4,20.5
	c-2.9,7.6-7.9,12.4-7.9,18.2c0,11.1-8.1,29.4,1.7,20.7c11.8-10.4-6.6-13.2,13.8-25.4c8.8-5.3,17.8-13.1,9.7-25.8
	c-1.9-3-14.7-13.4,8.6-29.9s16-22.4,11-33.3c-5.2-11.4,6.4-17.4,6.5-23.6c16.1-12.2,25.6-31.2,25.5-51.4v-23.3
	c2.3-4.9,5.6-9.4,9.5-13.1C445.3,125.1,446.8,119.8,444.6,114.9z"/>
<path class="st1" d="M384.9,230.4c0-6.5,10.9-17.3,12.6-19c4-3.4,6.2-7.4,6.2-11.7c0-13-20.9-23.5-46.8-23.5s-46.8,10.5-46.8,23.5
	c0,6.6,5.5,12.6,14.2,16.8c10.8,6.3,7,4,13.6,8.3c9.7,6.3,20.5,20.1,25,25.5c10.2,12.2,4.6,41.2,3.3,46.8c-0.9,4.4-0.5,9,1.3,13.1
	c2.3,5.4-3.4,17.1-3.4,17.1s8-7.2,8.8-14.6c0.8-7.4-5.4-23.4,4.2-37c11.9-16.7,23.4-17.8,16.8-29.3S384.9,237.4,384.9,230.4z"/>
<ellipse transform="matrix(0.9752 -0.2215 0.2215 0.9752 -31.8825 77.365)" class="st2" cx="329" cy="180.8" rx="27.7" ry="15.9"/>
<ellipse transform="matrix(0.1913 -0.9815 0.9815 0.1913 136.077 526.8383)" class="st2" cx="387.8" cy="180.8" rx="15.9" ry="27.7"/>
<ellipse class="st2" cx="338" cy="191.8" rx="10.9" ry="19.7"/>
<ellipse class="st2" cx="360.1" cy="191.4" rx="10.9" ry="19.7"/>
<ellipse class="st2" cx="380.7" cy="190.4" rx="10.9" ry="19.7"/>
<path class="st2" d="M360.1,105.6c-20,0-40.1,20.4-51.1,3.7c-6.5,10-9.9,21.7-9.9,33.7c0,33.6,26.4,60.8,59,60.8s59-27.2,59-60.8
	c0-11.7-3.3-23.1-9.5-33C396.7,126.3,379.7,105.6,360.1,105.6z"/>
<path class="st3" d="M358.7,136.1c19.7,0,38.1-9.8,49-26.1c-16.7-27.4-52.4-36-79.8-19.3c-7.7,4.7-14.1,11.1-18.9,18.6
	C320,126,338.7,136.1,358.7,136.1z"/>
<ellipse transform="matrix(0.6784 -0.7347 0.7347 0.6784 -16.0041 318.6804)" class="st4" cx="356" cy="177.6" rx="7.1" ry="4.1"/>
<ellipse transform="matrix(0.6784 -0.7347 0.7347 0.6784 -14.0782 322.7342)" class="st4" cx="361.6" cy="177.4" rx="4.1" ry="7.1"/>
<ellipse transform="matrix(0.3017 -0.9534 0.9534 0.3017 74.8685 427.6988)" class="st3" cx="329.4" cy="162.7" rx="15.1" ry="16.7"/>
<ellipse transform="matrix(0.9333 -0.359 0.359 0.9333 -32.4575 150.6792)" class="st3" cx="389.5" cy="162.7" rx="16.7" ry="15.1"/>
<ellipse transform="matrix(0.3017 -0.9534 0.9534 0.3017 74.6986 428.0318)" class="st4" cx="329.5" cy="163" rx="10.2" ry="11.3"/>
<ellipse transform="matrix(0.9974 -7.270577e-02 7.270577e-02 0.9974 -10.8162 28.7442)" class="st4" cx="389.4" cy="162.9" rx="11.3" ry="10.2"/>
<ellipse transform="matrix(0.757 -0.6534 0.6534 0.757 24.9443 278.3246)" class="st5" cx="386.7" cy="105.6" rx="8" ry="11.6"/>
<path class="st0" d="M1889,114.9c-5.7-12.9-20.6-34.9-57-42.7c-45-9.7-71.2,7.3-80.8,16c-14.4,12.2-22.7,30.2-22.7,49.1v28.2
	c0,14.5,4.9,28.6,13.9,40c-4.4,12.6,7.2,17.1,7.2,17.1s15,4.7,36.4,20.9c19.1,14.5,24.7,47.8,18.2,52c-7,4.5,4.8,14,2.4,20.5
	c-2.8,7.6-7.9,12.4-7.9,18.2c0,11.1-8.1,29.4,1.7,20.7c11.8-10.4-6.6-13.2,13.8-25.4c8.8-5.3,17.8-13.1,9.7-25.8
	c-1.9-3-14.7-13.4,8.6-29.9s16-22.4,11-33.3c-5.2-11.4,6.4-17.4,6.5-23.6c16.1-12.2,25.6-31.2,25.6-51.4v-23.3
	c2.3-4.9,5.6-9.4,9.5-13.1C1889.7,125.1,1891.2,119.8,1889,114.9z"/>
<path class="st1" d="M1829.3,230.4c0-6.5,10.9-17.3,12.6-19c4-3.4,6.3-7.4,6.3-11.7c0-13-20.9-23.5-46.8-23.5s-46.8,10.5-46.8,23.5
	c0,6.6,5.4,12.6,14.2,16.8c10.8,6.3,7,4,13.6,8.3c9.7,6.3,20.5,20.1,25,25.5c10.2,12.2,4.6,41.2,3.3,46.8c-0.9,4.4-0.5,9,1.3,13.1
	c2.3,5.4-3.4,17.1-3.4,17.1s8-7.2,8.8-14.6c0.8-7.4-5.4-23.4,4.2-37c11.9-16.7,23.4-17.8,16.7-29.3S1829.3,237.4,1829.3,230.4z"/>
<ellipse transform="matrix(0.9752 -0.2215 0.2215 0.9752 3.9565 397.3246)" class="st2" cx="1773.6" cy="181" rx="27.7" ry="15.9"/>
<ellipse transform="matrix(0.1903 -0.9817 0.9817 0.1903 1301.106 1944.4688)" class="st2" cx="1829.4" cy="183.5" rx="15.8" ry="27.6"/>
<ellipse class="st2" cx="1782.4" cy="191.8" rx="10.9" ry="19.7"/>
<ellipse class="st2" cx="1804.5" cy="191.4" rx="10.9" ry="19.7"/>
<ellipse class="st2" cx="1825.2" cy="190.4" rx="10.9" ry="19.7"/>
<path class="st2" d="M1804.5,85.7c-20,0-40.1,40.3-51.1,23.6c-6.5,10-9.9,21.7-9.9,33.7c0,33.6,26.4,60.8,59,60.8s59-27.2,59-60.8
	c0-11.7-3.3-23.1-9.5-33C1841.2,126.3,1824.2,85.7,1804.5,85.7z"/>
<path class="st3" d="M1803.1,136.1c19.7,0,38-9.8,49-26.1c-16.7-27.4-52.5-36-79.8-19.3c-7.6,4.7-14.1,11.1-18.9,18.6
	C1764.4,126,1783.1,136.1,1803.1,136.1z"/>
<ellipse transform="matrix(0.6784 -0.7347 0.7347 0.6784 448.5132 1379.9113)" class="st4" cx="1800.4" cy="177.6" rx="7.1" ry="4.1"/>
<ellipse transform="matrix(0.6784 -0.7347 0.7347 0.6784 450.5488 1383.8654)" class="st4" cx="1806" cy="177.3" rx="4.1" ry="7.1"/>
<ellipse transform="matrix(0.3017 -0.9534 0.9534 0.3017 1083.4922 1804.9961)" class="st3" cx="1773.9" cy="162.8" rx="15.1" ry="16.7"/>
<ellipse transform="matrix(0.9333 -0.359 0.359 0.9333 63.8428 669.1403)" class="st3" cx="1833.6" cy="162.7" rx="16.7" ry="15.1"/>
<ellipse transform="matrix(0.3017 -0.9534 0.9534 0.3017 1083.4137 1805.3252)" class="st4" cx="1774.1" cy="163.1" rx="10.2" ry="11.3"/>
<ellipse transform="matrix(0.9974 -7.270577e-02 7.270577e-02 0.9974 -6.9851 133.7868)" class="st4" cx="1834.2" cy="162.8" rx="11.3" ry="10.2"/>
<ellipse transform="matrix(0.757 -0.6534 0.6534 0.757 375.9412 1222.1617)" class="st5" cx="1831.2" cy="105.6" rx="8" ry="11.6"/>
<path class="st0" d="M685.3,94.9c-5.7-12.9-20.6-34.9-57-42.7c-45-9.7-71.2,7.3-80.8,16c-14.4,12.2-22.7,30.2-22.7,49.1v28.2
	c0,14.5,4.9,28.6,13.9,40c-2.1,3.4,11,16.4,11,16.4s6.5,12.6,25.3,27.1c18.9,14.7,32.1,42.3,25.5,46.4c-7,4.5,11.7,15.7,9.3,22.1
	c-2.8,7.6-4.3,12.7-4.3,18.5c0,11.1-5,30.4,4.8,21.7c11.8-10.4-11-19.3,9.5-31.5c8.8-5.3,2.3-13.2-5.7-25.9
	c-1.9-3-5.1-10.8,18.2-27.4s11.8-21.5,6.9-32.4c-5.2-11.4,7.2-17.5,7.3-23.7c16.1-12.2,25.6-31.2,25.5-51.4v-23.2
	c2.3-4.9,5.6-9.4,9.5-13.1C686,105.1,687.5,99.8,685.3,94.9z"/>
<path class="st1" d="M625.6,212.3c0.2-6.2,10.9-19.2,12.6-20.8c4-3.4,6.2-7.4,6.2-11.7c0-13-20.9-23.5-46.8-23.5
	S551,166.8,551,179.7c0,6.5,11.2,14.9,13.7,16.6c7.1,4.9,5.5,16,28.9,33.4c11.5,8.6,13.2,37.2,11.9,42.8c-1.2,5.3,2.2,11.6,6.6,17
	c4.6,5.7,1.1,13,0.7,15.4c-0.3,1.5,8.2-8.6,4.3-12.7c-10.3-10.9-9.1-28.8-3.1-34.2C641.5,233.1,625.3,224.8,625.6,212.3z"/>
<ellipse transform="matrix(0.9752 -0.2215 0.2215 0.9752 -21.4715 130.2055)" class="st2" cx="569.8" cy="160.8" rx="27.7" ry="15.9"/>
<ellipse transform="matrix(0.1913 -0.9815 0.9815 0.1913 350.2953 746.8897)" class="st2" cx="628.4" cy="160.9" rx="15.9" ry="27.7"/>
<ellipse class="st2" cx="578.7" cy="171.8" rx="10.9" ry="19.7"/>
<ellipse class="st2" cx="600.8" cy="171.4" rx="10.9" ry="19.7"/>
<ellipse class="st2" cx="621.5" cy="170.4" rx="10.9" ry="19.7"/>
<path class="st2" d="M597.1,85.6c-20,0-36.4,20.4-47.4,3.7c-6.5,10-9.9,21.7-9.9,33.7c0,33.6,26.4,60.8,59,60.8s59-27.2,59-60.8
	c0-11.7-3.3-23.1-9.5-33C637.5,106.3,616.8,85.6,597.1,85.6z"/>
<path class="st3" d="M599.4,116.1c19.7,0,38.1-9.8,49-26.1c-16.7-27.4-52.4-36-79.8-19.3c-7.7,4.7-14.1,11.1-18.9,18.6
	C560.7,106,579.4,116.1,599.4,116.1z"/>
<ellipse transform="matrix(0.6784 -0.7347 0.7347 0.6784 76.0985 489.0853)" class="st4" cx="596.7" cy="157.6" rx="7.1" ry="4.1"/>
<ellipse transform="matrix(0.6784 -0.7347 0.7347 0.6784 78.0241 493.1349)" class="st4" cx="602.3" cy="157.4" rx="4.1" ry="7.1"/>
<ellipse transform="matrix(0.3017 -0.9534 0.9534 0.3017 261.9804 643.256)" class="st3" cx="570.1" cy="142.8" rx="15.1" ry="16.7"/>
<ellipse transform="matrix(0.9333 -0.359 0.359 0.9333 -9.2304 235.7564)" class="st3" cx="630.2" cy="142.7" rx="16.7" ry="15.1"/>
<ellipse transform="matrix(0.3017 -0.9534 0.9534 0.3017 261.9333 643.6385)" class="st4" cx="570.4" cy="143" rx="10.2" ry="11.3"/>
<ellipse transform="matrix(0.9974 -7.270577e-02 7.270577e-02 0.9974 -8.7248 46.1996)" class="st4" cx="630.2" cy="142.9" rx="11.3" ry="10.2"/>
<ellipse transform="matrix(0.757 -0.6534 0.6534 0.757 96.5239 430.8135)" class="st5" cx="627.5" cy="85.6" rx="8" ry="11.6"/>
<path class="st0" d="M1648.3,94.9c-5.7-12.9-20.6-34.9-57-42.7c-45-9.7-71.2,7.3-80.8,16c-14.4,12.2-22.7,30.2-22.7,49.1v28.2
	c0,14.5,4.9,28.6,13.9,40c-2.1,3.4,11,16.4,11,16.4s6.5,12.6,25.3,27.1c18.9,14.7,32.1,42.3,25.5,46.4c-7,4.5,11.7,15.7,9.3,22.1
	c-2.8,7.6-4.2,12.7-4.3,18.5c0,11.1-5,30.4,4.8,21.7c11.8-10.4-11-19.3,9.5-31.5c8.8-5.3,2.3-13.2-5.7-25.9
	c-1.9-3-5.1-10.8,18.2-27.4s11.8-21.5,6.9-32.4c-5.2-11.4,7.2-17.5,7.3-23.7c16.1-12.2,25.6-31.2,25.6-51.4v-23.2
	c2.3-4.9,5.6-9.4,9.5-13.1C1649,105.1,1650.5,99.8,1648.3,94.9z"/>
<path class="st1" d="M1588.6,212.3c0.2-6.2,10.9-19.2,12.6-20.8c4-3.4,6.3-7.4,6.3-11.7c0-13-20.9-23.5-46.8-23.5
	s-46.8,10.5-46.8,23.5c0,6.5,11.2,14.9,13.7,16.6c7.1,4.9,5.5,16,28.9,33.4c11.5,8.6,13.2,37.2,11.9,42.8c-1.2,5.3,2.2,11.6,6.6,17
	c4.6,5.7,1.1,13,0.7,15.4c-0.3,1.5,8.2-8.6,4.3-12.7c-10.3-10.9-9.1-28.8-3.1-34.2C1604.5,233.1,1588.2,224.8,1588.6,212.3z"/>
<ellipse transform="matrix(0.9752 -0.2215 0.2215 0.9752 2.4275 343.4883)" class="st2" cx="1532.8" cy="160.9" rx="27.7" ry="15.9"/>
<ellipse transform="matrix(0.1913 -0.9815 0.9815 0.1913 1129.0046 1692.0261)" class="st2" cx="1591.3" cy="160.9" rx="15.9" ry="27.7"/>
<ellipse class="st2" cx="1541.7" cy="171.8" rx="10.9" ry="19.7"/>
<ellipse class="st2" cx="1563.8" cy="171.4" rx="10.9" ry="19.7"/>
<ellipse class="st2" cx="1584.4" cy="170.4" rx="10.9" ry="19.7"/>
<path class="st2" d="M1562.4,116.1c-20,0-38.7-10.1-49.7-26.8c-6.5,10-9.9,21.7-9.9,33.7c0,33.6,26.4,60.8,59,60.8s59-27.2,59-60.8
	c0-11.7-3.3-23.1-9.5-33C1600.4,106.3,1582.1,116.1,1562.4,116.1z"/>
<path class="st3" d="M1562.4,116.1c19.7,0,38-9.8,49-26.1c-16.7-27.4-52.5-36-79.8-19.3c-7.6,4.7-14.1,11.1-18.9,18.6
	C1523.7,106,1542.4,116.1,1562.4,116.1z"/>
<ellipse transform="matrix(0.6784 -0.7347 0.7347 0.6784 385.8891 1196.5654)" class="st4" cx="1559.7" cy="157.5" rx="7.1" ry="4.1"/>
<ellipse transform="matrix(0.6784 -0.7347 0.7347 0.6784 387.8488 1200.4933)" class="st4" cx="1565.2" cy="157.2" rx="4.1" ry="7.1"/>
<ellipse transform="matrix(0.3017 -0.9534 0.9534 0.3017 934.5963 1561.3927)" class="st3" cx="1533.2" cy="142.7" rx="15.1" ry="16.7"/>
<ellipse transform="matrix(0.9333 -0.359 0.359 0.9333 54.9762 581.3964)" class="st3" cx="1592.9" cy="142.7" rx="16.7" ry="15.1"/>
<ellipse transform="matrix(0.3017 -0.9534 0.9534 0.3017 934.2841 1561.8525)" class="st4" cx="1533.4" cy="143.1" rx="10.2" ry="11.3"/>
<ellipse transform="matrix(0.9976 -6.982059e-02 6.982059e-02 0.9976 -6.3959 111.8888)" class="st4" cx="1597.4" cy="147.4" rx="11.3" ry="10.2"/>
<ellipse transform="matrix(0.757 -0.6534 0.6534 0.757 330.5192 1060.0396)" class="st5" cx="1590.5" cy="85.6" rx="8" ry="11.6"/>
<path class="st0" d="M1166.8,54.9c-5.7-12.9-20.6-34.9-57-42.7c-45-9.7-71.2,7.3-80.8,16c-14.4,12.2-22.7,30.2-22.7,49.1v28.2
	c0,14.5,4.9,28.6,13.9,40c0.1,6.2,9.3,24.3,4.1,35.7c-5,10.9-12.3,16.7,11,33.3c23.3,16.6,26.1,26.2,24.2,29.2
	c-8.1,12.7-3.7,19.2,5.1,24.5c20.5,12.2,16.5,16.3,28.3,26.7c9.8,8.7,1.8-9.6,1.7-20.7c0-5.8-9.8-8.9-12.7-16.5
	c-2.4-6.5,4.3-17.7-2.7-22.1c-6.6-4.2-22.2-36.7-0.6-46.8s58.9-24.7,58.9-24.7s8.6-2.6,7.7-8.9c-0.4-2.8-2.1-6.2-4.2-9.6
	c0,0,12.4-24.9,12.4-40V82.2c2.3-4.9,5.6-9.4,9.5-13.1C1167.5,65.1,1169,59.8,1166.8,54.9z"/>
<path class="st1" d="M1054.2,170.4c0-6.5-10.9-17.3-12.6-19c-4-3.4-6.2-7.4-6.2-11.7c0-13,20.9-23.5,46.8-23.5s46.8,10.5,46.8,23.5
	c0,6.6-5.4,12.6-14.2,16.8c-10.8,6.3-30.1,14.4-36.7,18.7c-9.7,6.3-16.7,14.3-21.2,19.6c-10.2,12.2,14.7,36.7,16,42.3
	c1.2,5.3-1.3,13.1-0.2,16.2s11,16.4,11,16.4s-16.7-9.6-17.5-17c-0.8-7.4,6-13.7-8.9-27.8s-23.4-17.8-16.7-29.3
	S1054.2,177.4,1054.2,170.4z"/>
<ellipse transform="matrix(0.9752 -0.2215 0.2215 0.9752 -0.6422 235.9522)" class="st2" cx="1051.7" cy="120.8" rx="27.7" ry="15.9"/>
<ellipse transform="matrix(0.1913 -0.9815 0.9815 0.1913 779.395 1187.6494)" class="st2" cx="1110.4" cy="120.8" rx="15.9" ry="27.7"/>
<ellipse class="st2" cx="1060.8" cy="131.8" rx="10.9" ry="19.7"/>
<ellipse class="st2" cx="1082.9" cy="131.4" rx="10.9" ry="19.7"/>
<ellipse class="st2" cx="1103.5" cy="130.4" rx="10.9" ry="19.7"/>
<path class="st2" d="M1080.9,28.5c-20,0-38.1,37.5-49.1,20.8c-6.5,10-9.9,21.7-9.9,33.7c0,33.6,26.4,60.8,59,60.8s59-27.2,59-60.8
	c0-11.7-3.3-23.1-9.5-33C1119.5,66.3,1100.5,28.5,1080.9,28.5z"/>
<path class="st3" d="M1081.5,76.1c19.7,0,38.1-9.8,49-26.1c-16.7-27.4-52.4-36-79.8-19.3c-7.7,4.7-14.1,11.1-18.9,18.6
	C1042.8,66,1061.4,76.1,1081.5,76.1z"/>
<ellipse transform="matrix(0.6784 -0.7347 0.7347 0.6784 260.6226 830.378)" class="st4" cx="1078.8" cy="117.5" rx="7.1" ry="4.1"/>
<ellipse transform="matrix(0.6784 -0.7347 0.7347 0.6784 262.5486 834.4317)" class="st4" cx="1084.4" cy="117.3" rx="4.1" ry="7.1"/>
<ellipse transform="matrix(0.3017 -0.9534 0.9534 0.3017 636.7844 1074.8545)" class="st3" cx="1052.2" cy="102.7" rx="15.1" ry="16.7"/>
<ellipse transform="matrix(0.9333 -0.359 0.359 0.9333 37.2811 406.0904)" class="st3" cx="1112.1" cy="102.7" rx="16.7" ry="15.1"/>
<ellipse transform="matrix(0.3017 -0.9534 0.9534 0.3017 636.6633 1075.3868)" class="st4" cx="1052.5" cy="103.1" rx="10.2" ry="11.3"/>
<ellipse transform="matrix(0.9974 -7.270577e-02 7.270577e-02 0.9974 -4.5399 81.1541)" class="st4" cx="1112.5" cy="102.9" rx="11.3" ry="10.2"/>
<ellipse transform="matrix(0.757 -0.6534 0.6534 0.757 239.7809 736.0209)" class="st5" cx="1109.5" cy="45.6" rx="8" ry="11.6"/>
<path class="st0" d="M926.1,74.9C920.3,62,905.4,40,869,32.2c-45-9.7-71.2,7.3-80.8,16c-14.4,12.2-22.7,30.2-22.7,49.1v28.2
	c0,14.5,4.9,28.6,13.9,40c0.1,6.2,34.9,26.6,29.7,38c-5,10.9-4,19,7.8,36.8c15.9,23.9-4.2,33.4,4.7,38.7
	c20.5,12.2,6.3,26.4,18.1,36.8c9.8,8.7,1.8-9.6,1.7-20.7c0-5.8,2.7-9.8-0.2-17.4c-2.4-6.5,4.3-17.7-2.7-22.1
	c-6.6-4.2,1.9-34.7,19.8-50.6c18.1-16.2,31.4-24.6,31.4-24.6s13.8-3.5,10.6-14.9c0,0,12.4-24.9,12.4-40v-23.3
	c2.3-4.9,5.6-9.4,9.5-13.1C926.8,85.1,928.2,79.8,926.1,74.9z"/>
<path class="st1" d="M813.5,190.4c0-6.5-10.9-17.3-12.6-19c-4-3.4-6.2-7.4-6.2-11.7c0-13,20.9-23.5,46.8-23.5s46.8,10.5,46.8,23.5
	c0,6.6-5.5,12.6-14.2,16.8c-10.8,6.3-15.4,18.1-22,22.4c-9.7,6.3-13.1,16.4-17.6,21.8c-10.2,12.2-5.3,21.4-3.4,26.8
	c1.8,5.2,1.8,16,2.3,19.9c0.5,4.1,4.8,16.5,4.8,16.5s-8-4.9-8.8-12.3c-0.8-7.4,1-8.3-6.1-27.5c-5.3-14.4-9.8-19.7-3.1-31.2
	S813.5,197.4,813.5,190.4z"/>
<ellipse transform="matrix(0.9752 -0.2215 0.2215 0.9752 -11.048 183.1566)" class="st2" cx="811.1" cy="140.8" rx="27.7" ry="15.9"/>
<ellipse transform="matrix(0.1913 -0.9815 0.9815 0.1913 565.0786 967.5616)" class="st2" cx="869.7" cy="140.9" rx="15.9" ry="27.7"/>
<ellipse class="st2" cx="820" cy="151.8" rx="10.9" ry="19.7"/>
<ellipse class="st2" cx="842.1" cy="151.4" rx="10.9" ry="19.7"/>
<ellipse class="st2" cx="862.8" cy="150.4" rx="10.9" ry="19.7"/>
<path class="st2" d="M840.3,48.5c-20,0-38.3,37.6-49.3,20.8c-6.5,10-9.9,21.7-9.9,33.7c0,33.6,26.4,60.8,59,60.8s59-27.2,59-60.8
	c0-11.7-3.3-23.1-9.5-33C878.7,86.3,860.1,48.4,840.3,48.5z"/>
<path class="st3" d="M840.7,96.1c19.7,0,38.1-9.8,49-26.1c-16.7-27.4-52.4-36-79.8-19.3c-7.7,4.7-14.1,11.1-18.9,18.6
	C802,86,820.7,96.1,840.7,96.1z"/>
<ellipse transform="matrix(0.6784 -0.7347 0.7347 0.6784 168.3946 659.9435)" class="st4" cx="838" cy="137.6" rx="7.1" ry="4.1"/>
<ellipse transform="matrix(0.6784 -0.7347 0.7347 0.6784 170.3237 663.9997)" class="st4" cx="843.6" cy="137.4" rx="4.1" ry="7.1"/>
<ellipse transform="matrix(0.3017 -0.9534 0.9534 0.3017 449.7103 859.4094)" class="st3" cx="811.5" cy="122.7" rx="15.1" ry="16.7"/>
<ellipse transform="matrix(0.9333 -0.359 0.359 0.9333 14.0731 321.0442)" class="st3" cx="871.5" cy="122.6" rx="16.7" ry="15.1"/>
<ellipse transform="matrix(0.3017 -0.9534 0.9534 0.3017 449.3755 859.7455)" class="st4" cx="811.6" cy="123.1" rx="10.2" ry="11.3"/>
<ellipse transform="matrix(0.9974 -7.270577e-02 7.270577e-02 0.9974 -6.6321 63.6914)" class="st4" cx="871.5" cy="122.9" rx="11.3" ry="10.2"/>
<ellipse transform="matrix(0.757 -0.6534 0.6534 0.757 168.225 583.6187)" class="st5" cx="868.8" cy="65.6" rx="8" ry="11.6"/>
<path class="st0" d="M1407.5,74.9c-5.7-12.9-20.6-34.9-57-42.7c-45-9.7-71.2,7.3-80.8,16c-14.4,12.2-22.7,30.2-22.7,49.1v28.2
	c0,14.5,4.9,28.6,13.9,40c0.1,6.2,34.9,26.6,29.7,38c-5,10.9-4,19,7.8,36.8c15.8,23.9-4.2,33.4,4.7,38.7
	c20.5,12.2,6.3,26.4,18.1,36.8c9.8,8.7,1.8-9.6,1.7-20.7c0-5.8,2.7-9.8-0.2-17.4c-2.4-6.5,4.3-17.7-2.7-22.1
	c-6.6-4.2,1.9-34.7,19.8-50.6c18.1-16.2,31.4-24.6,31.4-24.6s13.8-3.5,10.6-14.9c0,0,12.4-24.9,12.4-40v-23.3
	c2.3-4.9,5.6-9.4,9.5-13.1C1408.2,85.1,1409.7,79.8,1407.5,74.9z"/>
<path class="st1" d="M1294.9,190.4c0-6.5-10.9-17.3-12.6-19c-4-3.4-6.2-7.4-6.2-11.7c0-13,20.9-23.5,46.8-23.5s46.8,10.5,46.8,23.5
	c0,6.6-5.4,12.6-14.2,16.8c-10.8,6.3-15.4,18.1-22,22.4c-9.7,6.3-13.1,16.4-17.6,21.8c-10.2,12.2-5.3,21.4-3.4,26.8
	c1.8,5.2,1.8,16,2.3,19.9c0.5,4.1,4.8,16.5,4.8,16.5s-8-4.9-8.7-12.3c-0.7-7.4,1-8.3-6.1-27.5c-5.4-14.4-9.8-19.7-3.1-31.2
	S1294.9,197.4,1294.9,190.4z"/>
<ellipse transform="matrix(0.9752 -0.2215 0.2215 0.9752 0.9091 289.7856)" class="st2" cx="1292.5" cy="140.8" rx="27.7" ry="15.9"/>
<ellipse transform="matrix(0.1913 -0.9815 0.9815 0.1913 954.3519 1440.0485)" class="st2" cx="1351.1" cy="140.9" rx="15.9" ry="27.7"/>
<ellipse class="st2" cx="1301.5" cy="151.8" rx="10.9" ry="19.7"/>
<ellipse class="st2" cx="1323.6" cy="151.4" rx="10.9" ry="19.7"/>
<ellipse class="st2" cx="1344.2" cy="150.4" rx="10.9" ry="19.7"/>
<path class="st2" d="M1322.9,51.9c-20,0-39.4,34.1-50.4,17.4c-6.5,10-9.9,21.7-9.9,33.7c0,33.6,26.4,60.8,59,60.8s59-27.2,59-60.8
	c0-11.7-3.3-23.1-9.5-33C1360.2,86.3,1342.6,51.9,1322.9,51.9z"/>
<path class="st3" d="M1322.2,96.1c19.7,0,38.1-9.8,49-26.1c-16.7-27.4-52.4-36-79.8-19.3c-7.7,4.7-14.1,11.1-18.9,18.6
	C1283.5,86,1302.2,96.1,1322.2,96.1z"/>
<ellipse transform="matrix(0.6784 -0.7347 0.7347 0.6784 323.2426 1013.7242)" class="st4" cx="1319.5" cy="137.6" rx="7.1" ry="4.1"/>
<ellipse transform="matrix(0.6784 -0.7347 0.7347 0.6784 325.263 1017.6967)" class="st4" cx="1325.1" cy="137.3" rx="4.1" ry="7.1"/>
<ellipse transform="matrix(0.3017 -0.9534 0.9534 0.3017 785.9249 1318.444)" class="st3" cx="1293" cy="122.7" rx="15.1" ry="16.7"/>
<ellipse transform="matrix(0.9333 -0.359 0.359 0.9333 46.163 493.8624)" class="st3" cx="1352.8" cy="122.6" rx="16.7" ry="15.1"/>
<ellipse transform="matrix(0.3017 -0.9534 0.9534 0.3017 785.6013 1318.7638)" class="st4" cx="1293.1" cy="123.1" rx="10.2" ry="11.3"/>
<ellipse transform="matrix(0.9974 -7.270577e-02 7.270577e-02 0.9974 -5.3495 98.7151)" class="st4" cx="1353.3" cy="122.8" rx="11.3" ry="10.2"/>
<ellipse transform="matrix(0.757 -0.6534 0.6534 0.757 285.2238 898.2319)" class="st5" cx="1350.3" cy="65.6" rx="8" ry="11.6"/>
<path class="st0" d="M2129.8,134.9c-5.7-12.9-20.6-34.9-57-42.7c-45-9.7-71.2,7.3-80.8,16c-14.4,12.2-22.7,30.2-22.7,49.1v28.2
	c0,14.5,4.9,28.6,13.9,40c-2.1,3.4-3.9,6.8-4.3,9.6c-0.9,6.3,7.7,8.9,7.7,8.9s37.2,14.6,58.9,24.7c21.7,10.1,6,42.6-0.6,46.8
	c-7,4.5-0.2,15.7-2.7,22.1c-2.8,7.6-12.7,10.8-12.7,16.5c0,11.1-8.1,29.4,1.7,20.7c11.8-10.4,7.8-14.5,28.3-26.7
	c8.8-5.3,13.1-11.8,5.1-24.4c-1.9-3,0.8-12.6,24.2-29.2c23.4-16.6,16-22.4,11-33.3c-5.2-11.4-9.1-18.1-9-24.2
	c16.1-12.2,25.6-31.2,25.6-51.4v-23.4c2.3-4.9,5.5-9.4,9.5-13.1C2130.5,145.1,2131.9,139.8,2129.8,134.9z"/>
<path class="st1" d="M2070.1,250.4c0-6.5,10.9-17.3,12.6-19c4-3.4,6.3-7.4,6.3-11.7c0-13-20.9-23.5-46.8-23.5s-46.8,10.5-46.8,23.5
	c0,6.6,5.4,12.6,14.2,16.8c10.8,6.3,30.1,14.4,36.7,18.7c9.7,6.3,16.7,14.3,21.2,19.6c10.2,12.2-14.7,36.7-16,42.3
	c-1.2,5.3,1.3,13.1,0.2,16.2c-1.1,3.1-11,16.4-11,16.4s16.8-9.6,17.5-17s-6-13.7,8.9-27.8s23.4-17.8,16.8-29.3
	S2070.1,257.4,2070.1,250.4z"/>
<ellipse transform="matrix(0.9752 -0.2215 0.2215 0.9752 5.5055 451.1363)" class="st2" cx="2014.3" cy="201" rx="27.7" ry="15.9"/>
<ellipse transform="matrix(0.1913 -0.9815 0.9815 0.1913 1479.0157 2196.9917)" class="st2" cx="2072.8" cy="200.9" rx="15.9" ry="27.7"/>
<ellipse class="st2" cx="2023.2" cy="211.8" rx="10.9" ry="19.7"/>
<ellipse class="st2" cx="2045.3" cy="211.4" rx="10.9" ry="19.7"/>
<ellipse class="st2" cx="2065.9" cy="210.4" rx="10.9" ry="19.7"/>
<path class="st2" d="M2046.7,108.5c-20,0-41.5,37.5-52.5,20.8c-6.5,10-9.9,21.7-9.9,33.7c0,33.6,26.4,60.8,59,60.8s59-27.2,59-60.8
	c0-11.7-3.3-23.1-9.5-33C2081.9,146.3,2066.3,108.5,2046.7,108.5z"/>
<path class="st3" d="M2043.9,156.1c19.7,0,38-9.8,49-26.1c-10.5-16.7-28.8-27.8-49.6-27.8c-19.9,0.1-38.5,10.3-49.2,27.1
	C2005.2,146,2023.8,156.1,2043.9,156.1z"/>
<path class="st4" d="M2038.1,194.8c2.7-2.9,6.2-4,7.8-2.4c1.7,1.5,0.9,5.1-1.8,8c-2.7,2.9-6.2,4-7.8,2.4
	C2034.7,201.2,2035.5,197.7,2038.1,194.8z"/>
<path class="st4" d="M2041.5,192.5c1.5-1.7,5.1-0.9,8,1.8c2.9,2.7,4,6.2,2.4,7.8c-1.5,1.7-5.1,0.9-8-1.8
	C2041.1,197.7,2040,194.2,2041.5,192.5z"/>
<ellipse transform="matrix(0.3017 -0.9534 0.9534 0.3017 1232.5742 2048.3809)" class="st3" cx="2014.6" cy="182.8" rx="15.1" ry="16.7"/>
<ellipse transform="matrix(0.9333 -0.359 0.359 0.9333 72.7094 756.8842)" class="st3" cx="2074.3" cy="182.7" rx="16.7" ry="15.1"/>
<ellipse transform="matrix(0.3017 -0.9534 0.9534 0.3017 1232.3738 2048.803)" class="st4" cx="2014.8" cy="183.1" rx="10.2" ry="11.3"/>
<ellipse transform="matrix(0.9974 -7.270577e-02 7.270577e-02 0.9974 -7.8022 151.3409)" class="st4" cx="2074.9" cy="182.8" rx="11.3" ry="10.2"/>
<ellipse transform="matrix(0.757 -0.6534 0.6534 0.757 421.2792 1384.3376)" class="st5" cx="2071.9" cy="125.8" rx="8" ry="11.6"/>
<path class="st0" d="M2370.5,114.9c-5.8-12.9-20.6-34.9-57-42.7c-45-9.7-71.1,7.3-80.8,16c-14.4,12.2-22.7,30.2-22.7,49.1v28.2
	c0,14.5,4.9,28.6,13.9,40c-4.4,12.6,7.2,17.1,7.2,17.1s15,4.7,36.4,20.9c19.1,14.5,24.8,47.8,18.2,52c-7,4.5,4.8,14,2.4,20.5
	c-2.9,7.6-7.9,12.4-7.9,18.2c-0.1,11.1-8.1,29.4,1.7,20.7c11.8-10.4-6.6-13.2,13.8-25.4c8.8-5.3,17.8-13.1,9.7-25.8
	c-1.9-3-14.7-13.4,8.6-29.9s16-22.4,11-33.3c-5.2-11.4,6.4-17.4,6.5-23.6c16.1-12.2,25.6-31.2,25.6-51.4v-23.3
	c2.3-4.9,5.6-9.4,9.5-13.1C2371.2,125.1,2372.7,119.8,2370.5,114.9z"/>
<path class="st1" d="M2310.8,230.4c0-6.5,10.9-17.3,12.6-19c4-3.4,6.3-7.4,6.3-11.7c0-13-20.9-23.5-46.8-23.5s-46.8,10.5-46.8,23.5
	c0,6.6,5.4,12.6,14.2,16.8c10.9,6.3,7,4,13.6,8.3c9.7,6.3,20.5,20.1,25,25.5c10.2,12.2,4.6,41.2,3.3,46.8c-0.9,4.4-0.5,9,1.3,13.1
	c2.3,5.4-3.4,17.1-3.4,17.1s8.1-7.2,8.8-14.6c0.7-7.4-5.4-23.4,4.2-37c11.9-16.7,23.4-17.8,16.7-29.3S2310.8,237.4,2310.8,230.4z"/>
<ellipse transform="matrix(0.9752 -0.2215 0.2215 0.9752 15.9165 503.9768)" class="st2" cx="2255.1" cy="181" rx="27.7" ry="15.9"/>
<ellipse transform="matrix(0.1913 -0.9815 0.9815 0.1913 1693.2993 2416.9822)" class="st2" cx="2313.4" cy="180.9" rx="15.9" ry="27.7"/>
<ellipse class="st2" cx="2263.9" cy="191.8" rx="10.9" ry="19.7"/>
<ellipse class="st2" cx="2286" cy="191.4" rx="10.9" ry="19.7"/>
<ellipse class="st2" cx="2306.6" cy="190.4" rx="10.9" ry="19.7"/>
<path class="st2" d="M2286.1,88.5c-20,0-40.2,37.5-51.2,20.8c-6.5,10-9.9,21.7-9.9,33.7c0,33.6,26.4,60.8,59,60.8s59-27.2,59-60.8
	c0-11.7-3.3-23.1-9.5-33C2322.6,126.3,2305.8,88.5,2286.1,88.5z"/>
<path class="st3" d="M2284.6,136.1c19.7,0,38-9.8,49-26.1c-10.5-16.7-28.8-27.8-49.6-27.8c-19.9,0.1-38.5,10.3-49.2,27.1
	C2245.9,126,2264.6,136.1,2284.6,136.1z"/>
<ellipse transform="matrix(0.6784 -0.7347 0.7347 0.6784 603.4557 1733.6106)" class="st4" cx="2281.9" cy="177.5" rx="7.1" ry="4.1"/>
<ellipse transform="matrix(0.6784 -0.7347 0.7347 0.6784 605.4154 1737.5386)" class="st4" cx="2287.4" cy="177.2" rx="4.1" ry="7.1"/>
<ellipse transform="matrix(0.3017 -0.9534 0.9534 0.3017 1419.7522 2263.9692)" class="st3" cx="2255.4" cy="162.8" rx="15.1" ry="16.7"/>
<ellipse transform="matrix(0.9333 -0.359 0.359 0.9333 95.9419 841.9984)" class="st3" cx="2315.1" cy="162.7" rx="16.7" ry="15.1"/>
<ellipse transform="matrix(0.3017 -0.9534 0.9534 0.3017 1419.6238 2264.3323)" class="st4" cx="2255.6" cy="163" rx="10.2" ry="11.3"/>
<ellipse transform="matrix(0.9974 -7.270577e-02 7.270577e-02 0.9974 -5.7111 168.789)" class="st4" cx="2315.6" cy="162.8" rx="11.3" ry="10.2"/>
<ellipse transform="matrix(0.757 -0.6534 0.6534 0.757 492.94 1536.775)" class="st5" cx="2312.7" cy="105.6" rx="8" ry="11.6"/>
<path class="st0" d="M3815,134.9c-5.7-12.9-20.6-34.9-57-42.7c-45-9.7-71.1,7.3-80.8,16c-14.4,12.2-22.7,30.2-22.7,49.1v28.2
	c0,14.5,4.9,28.6,13.9,40c-4.4,12.6,7.2,17.1,7.2,17.1s15,4.7,36.4,20.9c19.1,14.5,24.8,47.8,18.2,52c-7,4.5,4.8,14,2.4,20.5
	c-2.9,7.6-7.9,12.4-7.9,18.2c-0.1,11.1-8.1,29.4,1.7,20.7c11.8-10.4-6.6-13.2,13.8-25.4c8.8-5.3,17.8-13.1,9.7-25.8
	c-1.9-3-14.7-13.4,8.6-29.9s16-22.4,11-33.3c-5.2-11.4,6.4-17.4,6.5-23.6c16.1-12.2,25.6-31.2,25.6-51.4v-23.3
	c2.3-4.9,5.6-9.4,9.5-13.1C3815.7,145.1,3817.1,139.8,3815,134.9z"/>
<path class="st1" d="M3755.3,250.4c0-6.5,10.9-17.3,12.6-19c4-3.4,6.2-7.4,6.2-11.7c0-13-20.9-23.5-46.8-23.5s-46.8,10.5-46.8,23.5
	c0,6.6,5.4,12.6,14.2,16.8c10.9,6.3,7,4,13.6,8.3c9.7,6.3,20.5,20.1,25,25.5c10.2,12.2,4.6,41.2,3.3,46.8c-0.9,4.4-0.5,9,1.3,13.1
	c2.3,5.4-3.4,17.1-3.4,17.1s8.1-7.2,8.8-14.6c0.7-7.4-5.4-23.4,4.2-37c11.9-16.7,23.4-17.8,16.8-29.3S3755.3,257.4,3755.3,250.4z"/>
<ellipse transform="matrix(0.9752 -0.2215 0.2215 0.9752 47.3046 824.4404)" class="st2" cx="3699.6" cy="201.3" rx="27.7" ry="15.9"/>
<ellipse transform="matrix(0.1913 -0.9815 0.9815 0.1913 2841.5432 3850.9736)" class="st2" cx="3757.8" cy="201.1" rx="15.9" ry="27.7"/>
<ellipse class="st2" cx="3708.4" cy="211.8" rx="10.9" ry="19.7"/>
<ellipse class="st2" cx="3730.5" cy="211.4" rx="10.9" ry="19.7"/>
<ellipse class="st2" cx="3751.1" cy="210.4" rx="10.9" ry="19.7"/>
<path class="st2" d="M3727.3,104.6c-20,0-36.9,41.4-47.9,24.7c-6.5,10-9.9,21.7-9.9,33.7c0,33.6,26.4,60.8,59,60.8s59-27.2,59-60.8
	c0-11.7-3.3-23.1-9.5-33C3767.1,146.3,3746.9,104.6,3727.3,104.6z"/>
<path class="st3" d="M3729.1,156.1c19.7,0,38.1-9.8,49-26.1c-16.7-27.4-52.4-36-79.8-19.3c-7.7,4.7-14.1,11.1-18.9,18.6
	C3690.4,146,3709,156.1,3729.1,156.1z"/>
<ellipse transform="matrix(0.6784 -0.7347 0.7347 0.6784 1053.2599 2801.1377)" class="st4" cx="3726.2" cy="197.5" rx="7.1" ry="4.1"/>
<ellipse transform="matrix(0.6784 -0.7347 0.7347 0.6784 1055.2847 2805.1772)" class="st4" cx="3731.8" cy="197.2" rx="4.1" ry="7.1"/>
<ellipse transform="matrix(0.3017 -0.9534 0.9534 0.3017 2409.354 3655.2893)" class="st3" cx="3700" cy="182.9" rx="15.1" ry="16.7"/>
<ellipse transform="matrix(0.9333 -0.359 0.359 0.9333 185.0501 1361.8733)" class="st3" cx="3759.5" cy="182.7" rx="16.7" ry="15.1"/>
<ellipse transform="matrix(0.3017 -0.9534 0.9534 0.3017 2409.2136 3655.55)" class="st4" cx="3700.1" cy="183.1" rx="10.2" ry="11.3"/>
<ellipse transform="matrix(0.9974 -7.270577e-02 7.270577e-02 0.9974 -3.3268 273.8843)" class="st4" cx="3760.4" cy="182.6" rx="11.3" ry="10.2"/>
<ellipse transform="matrix(0.757 -0.6534 0.6534 0.757 830.7626 2485.4351)" class="st5" cx="3757" cy="125.8" rx="8" ry="11.6"/>
<path class="st0" d="M2611.2,94.9c-5.7-12.9-20.6-34.9-57-42.7c-45-9.7-71.1,7.3-80.8,16c-14.4,12.2-22.7,30.2-22.7,49.1v28.2
	c0,14.5,4.9,28.6,13.9,40c-2.1,3.4,11,16.4,11,16.4s6.5,12.6,25.3,27.1c18.9,14.7,32.1,42.3,25.5,46.4c-7,4.5,11.7,15.7,9.3,22.1
	c-2.9,7.6-4.2,12.7-4.3,18.5c0,11.1-5,30.4,4.8,21.7c11.8-10.4-11-19.3,9.5-31.5c8.8-5.3,2.3-13.2-5.7-25.9
	c-1.9-3-5.1-10.8,18.2-27.4s11.8-21.5,6.9-32.4c-5.2-11.4,7.1-17.5,7.3-23.7c16.1-12.2,25.6-31.2,25.6-51.4v-23.2
	c2.3-4.9,5.6-9.4,9.5-13.1C2612,105.1,2613.4,99.8,2611.2,94.9z"/>
<path class="st1" d="M2551.6,212.3c0.2-6.2,10.9-19.2,12.6-20.8c4-3.4,6.2-7.4,6.2-11.7c0-13-20.9-23.5-46.8-23.5
	s-46.8,10.5-46.8,23.5c0,6.5,11.2,14.9,13.7,16.6c7.1,4.9,5.5,16,28.9,33.4c11.5,8.6,13.2,37.2,11.9,42.8c-1.2,5.3,2.2,11.6,6.6,17
	c4.6,5.7,1.1,13,0.7,15.4c-0.3,1.5,8.2-8.6,4.3-12.7c-10.3-10.9-9.1-28.8-3.1-34.2C2567.4,233.1,2551.2,224.8,2551.6,212.3z"/>
<ellipse transform="matrix(0.9752 -0.2215 0.2215 0.9752 26.3252 556.795)" class="st2" cx="2495.8" cy="161" rx="27.7" ry="15.9"/>
<ellipse transform="matrix(0.1913 -0.9815 0.9815 0.1913 1907.4663 2637.2058)" class="st2" cx="2554.2" cy="161" rx="15.9" ry="27.7"/>
<ellipse class="st2" cx="2504.7" cy="171.8" rx="10.9" ry="19.7"/>
<ellipse class="st2" cx="2526.8" cy="171.4" rx="10.9" ry="19.7"/>
<ellipse class="st2" cx="2547.4" cy="170.4" rx="10.9" ry="19.7"/>
<path class="st2" d="M2526.8,68.5c-20,0-40.1,37.5-51.1,20.8c-6.5,10-9.9,21.7-9.9,33.7c0,33.6,26.4,60.8,59,60.8s59-27.2,59-60.8
	c0-11.7-3.3-23.1-9.5-33C2563.4,106.3,2546.4,68.5,2526.8,68.5z"/>
<path class="st3" d="M2525.4,116.1c19.7,0,38-9.8,49-26.1c-10.5-16.7-28.8-27.8-49.6-27.8c-19.9,0.1-38.5,10.3-49.2,27.1
	C2486.6,106,2505.3,116.1,2525.4,116.1z"/>
<ellipse transform="matrix(0.6784 -0.7347 0.7347 0.6784 695.5699 1903.9907)" class="st4" cx="2522.6" cy="157.5" rx="7.1" ry="4.1"/>
<ellipse transform="matrix(0.6784 -0.7347 0.7347 0.6784 697.5178 1907.9395)" class="st4" cx="2528.1" cy="157.2" rx="4.1" ry="7.1"/>
<ellipse transform="matrix(0.3017 -0.9534 0.9534 0.3017 1606.9562 2479.5596)" class="st3" cx="2496.2" cy="142.8" rx="15.1" ry="16.7"/>
<ellipse transform="matrix(0.9333 -0.359 0.359 0.9333 119.1289 927.0848)" class="st3" cx="2555.8" cy="142.8" rx="16.7" ry="15.1"/>
<ellipse transform="matrix(0.3017 -0.9534 0.9534 0.3017 1606.8782 2479.8887)" class="st4" cx="2496.4" cy="143" rx="10.2" ry="11.3"/>
<ellipse transform="matrix(0.9974 -7.270577e-02 7.270577e-02 0.9974 -3.6124 186.2442)" class="st4" cx="2556.4" cy="142.7" rx="11.3" ry="10.2"/>
<ellipse transform="matrix(0.757 -0.6534 0.6534 0.757 564.4131 1689.2291)" class="st5" cx="2553.4" cy="85.8" rx="8" ry="11.6"/>
<path class="st0" d="M3574.2,114.9c-5.7-12.9-20.6-34.9-57-42.7c-45-9.7-71.1,7.3-80.8,16c-14.4,12.2-22.7,30.2-22.7,49.1v28.2
	c0,14.5,4.9,28.6,13.9,40c-2.1,3.4,11,16.4,11,16.4s6.5,12.6,25.3,27.1c18.9,14.7,32.1,42.3,25.5,46.4c-7,4.5,11.7,15.7,9.3,22.1
	c-2.9,7.6-4.3,12.7-4.3,18.5c-0.1,11.1-5,30.4,4.8,21.7c11.8-10.4-11-19.3,9.5-31.5c8.8-5.3,2.3-13.2-5.7-25.9
	c-1.9-3-5.1-10.8,18.2-27.4c23.3-16.6,11.8-21.5,6.9-32.4c-5.2-11.4,7.1-17.5,7.3-23.7c16.1-12.2,25.6-31.2,25.6-51.4v-23.2
	c2.3-4.9,5.6-9.4,9.5-13.1C3574.9,125.1,3576.4,119.8,3574.2,114.9z"/>
<path class="st1" d="M3514.5,232.3c0.2-6.2,10.9-19.2,12.6-20.8c4-3.4,6.2-7.4,6.2-11.7c0-13-20.9-23.5-46.8-23.5
	s-46.8,10.5-46.8,23.5c0,6.5,11.2,14.9,13.7,16.6c7.1,4.9,5.5,16,28.9,33.4c11.5,8.6,13.2,37.2,11.9,42.8c-1.2,5.3,2.2,11.6,6.6,17
	c4.6,5.7,1.1,13,0.7,15.4c-0.3,1.5,8.2-8.6,4.3-12.7c-10.3-10.9-9.1-28.8-3.1-34.2C3530.4,253.1,3514.1,244.8,3514.5,232.3z"/>
<path class="st0" d="M3092.7,54.9c-5.7-12.9-20.6-34.9-57-42.7c-45-9.7-71.1,7.3-80.8,16c-14.4,12.2-22.7,30.2-22.7,49.1v28.2
	c0,14.5,4.9,28.6,13.9,40c0.1,6.2,9.4,24.3,4.1,35.7c-5,10.9-12.4,16.7,11,33.3s26.1,26.2,24.2,29.2c-8,12.7-3.7,19.2,5.1,24.5
	c20.5,12.2,16.5,16.3,28.3,26.7c9.8,8.7,1.8-9.6,1.7-20.7c0-5.8-9.8-8.9-12.7-16.5c-2.4-6.5,4.3-17.7-2.7-22.1
	c-6.6-4.2-22.3-36.7-0.6-46.8s58.9-24.7,58.9-24.7s8.6-2.6,7.7-8.9c-0.4-2.8-2.1-6.2-4.3-9.6c0,0,12.4-24.9,12.4-40V82.2
	c2.3-4.9,5.6-9.4,9.5-13.1C3093.4,65.1,3094.9,59.8,3092.7,54.9z"/>
<path class="st1" d="M2980.1,170.4c0-6.5-10.9-17.3-12.6-19c-4-3.4-6.3-7.4-6.3-11.7c0-13,20.9-23.5,46.8-23.5s46.8,10.5,46.8,23.5
	c0,6.6-5.4,12.6-14.2,16.8c-10.8,6.3-30.1,14.4-36.6,18.7c-9.7,6.3-16.7,14.3-21.2,19.6c-10.2,12.2,14.7,36.7,16,42.3
	c1.2,5.3-1.3,13.1-0.2,16.2s11,16.4,11,16.4s-16.8-9.6-17.5-17c-0.7-7.4,5.9-13.7-8.9-27.8s-23.4-17.8-16.8-29.3
	S2980.1,177.4,2980.1,170.4z"/>
<ellipse transform="matrix(0.9752 -0.2215 0.2215 0.9752 47.1357 662.5708)" class="st2" cx="2977.8" cy="121.1" rx="27.7" ry="15.9"/>
<ellipse transform="matrix(0.1913 -0.9815 0.9815 0.1913 2336.5059 3077.8538)" class="st2" cx="3036.1" cy="121" rx="15.9" ry="27.7"/>
<ellipse class="st2" cx="2986.7" cy="131.8" rx="10.9" ry="19.7"/>
<ellipse class="st2" cx="3008.8" cy="131.4" rx="10.9" ry="19.7"/>
<ellipse class="st2" cx="3029.4" cy="130.4" rx="10.9" ry="19.7"/>
<path class="st2" d="M3006.8,28.5c-20,0-38.1,37.5-49.1,20.8c-6.5,10-9.9,21.7-9.9,33.7c0,33.6,26.4,60.8,59,60.8s59-27.2,59-60.8
	c0-11.7-3.3-23.1-9.5-33C3045.4,66.3,3026.5,28.5,3006.8,28.5z"/>
<path class="st3" d="M3007.4,76.1c19.7,0,38-9.8,49-26.1c-10.5-16.7-28.8-27.8-49.6-27.8c-19.9,0.1-38.5,10.3-49.2,27.1
	C2968.7,66,2987.4,76.1,3007.4,76.1z"/>
<ellipse transform="matrix(0.6784 -0.7347 0.7347 0.6784 879.9687 2245.2537)" class="st4" cx="3004.6" cy="117.5" rx="7.1" ry="4.1"/>
<ellipse transform="matrix(0.6784 -0.7347 0.7347 0.6784 881.993 2249.2932)" class="st4" cx="3010.2" cy="117.2" rx="4.1" ry="7.1"/>
<ellipse transform="matrix(0.3017 -0.9534 0.9534 0.3017 1981.6711 2911.3853)" class="st3" cx="2978.3" cy="102.9" rx="15.1" ry="16.7"/>
<ellipse transform="matrix(0.9333 -0.359 0.359 0.9333 165.6225 1097.4552)" class="st3" cx="3037.8" cy="102.8" rx="16.7" ry="15.1"/>
<ellipse transform="matrix(0.3017 -0.9534 0.9534 0.3017 1981.5284 2911.5034)" class="st4" cx="2978.3" cy="103" rx="10.2" ry="11.3"/>
<ellipse transform="matrix(0.9974 -7.270577e-02 7.270577e-02 0.9974 0.5714 221.1841)" class="st4" cx="3038.4" cy="102.7" rx="11.3" ry="10.2"/>
<ellipse transform="matrix(0.757 -0.6534 0.6534 0.757 707.6741 1994.4365)" class="st5" cx="3035.4" cy="45.8" rx="8" ry="11.6"/>
<path class="st0" d="M2852,64.9c-5.7-12.9-20.6-34.9-57-42.7c-45-9.7-71.1,7.3-80.8,16c-14.4,12.2-22.7,30.2-22.7,49.1v28.2
	c0,14.5,4.9,28.6,13.9,40c0.1,6.2,34.9,26.6,29.7,38c-5,10.9-4,19,7.8,36.8c15.9,23.9-4.2,33.4,4.7,38.7
	c20.5,12.2,6.3,26.4,18.1,36.8c9.8,8.7,1.8-9.6,1.7-20.7c0-5.8,2.6-9.8-0.2-17.4c-2.4-6.5,4.3-17.7-2.7-22.1
	c-6.6-4.2,1.9-34.7,19.8-50.6c18.1-16.2,31.4-24.6,31.4-24.6s13.8-3.5,10.6-14.9c0,0,12.4-24.9,12.4-40V92.2
	c2.3-4.9,5.6-9.4,9.5-13.1C2852.7,75.1,2854.2,69.8,2852,64.9z"/>
<path class="st1" d="M2739.4,180.4c0-6.5-10.9-17.3-12.6-19c-4-3.4-6.3-7.4-6.3-11.7c0-13,20.9-23.5,46.8-23.5s46.8,10.5,46.8,23.5
	c0,6.6-5.4,12.6-14.2,16.8c-10.8,6.3-15.4,18.1-22,22.4c-9.7,6.3-13.1,16.4-17.6,21.8c-10.2,12.2-5.3,21.4-3.4,26.8
	c1.9,5.2,1.8,16,2.3,19.9c0.5,4.1,4.8,16.5,4.8,16.5s-8-4.9-8.7-12.3c-0.7-7.4,1-8.3-6.1-27.5c-5.4-14.4-9.8-19.7-3.1-31.2
	S2739.4,187.4,2739.4,180.4z"/>
<ellipse transform="matrix(0.9752 -0.2215 0.2215 0.9752 38.9636 609.4978)" class="st2" cx="2737.1" cy="131" rx="27.7" ry="15.9"/>
<ellipse transform="matrix(0.1913 -0.9815 0.9815 0.1913 2132.1672 2849.7544)" class="st2" cx="2795.5" cy="130.9" rx="15.9" ry="27.7"/>
<ellipse class="st2" cx="2746" cy="141.8" rx="10.9" ry="19.7"/>
<ellipse class="st2" cx="2768.1" cy="141.4" rx="10.9" ry="19.7"/>
<ellipse class="st2" cx="2788.7" cy="140.4" rx="10.9" ry="19.7"/>
<path class="st2" d="M2766.1,38.5c-20,0-38.2,37.5-49.1,20.8c-6.5,10-9.9,21.7-9.9,33.7c0,33.6,26.4,60.8,59,60.8s59-27.2,59-60.8
	c0-11.7-3.3-23.1-9.5-33C2804.7,76.3,2785.8,38.5,2766.1,38.5z"/>
<path class="st3" d="M2766.6,86.1c19.7,0,38-9.8,49-26.1c-10.5-16.7-28.8-27.8-49.6-27.8c-19.9,0.1-38.4,10.3-49.1,27.1
	C2728,76,2746.6,86.1,2766.6,86.1z"/>
<ellipse transform="matrix(0.6784 -0.7347 0.7347 0.6784 795.2312 2071.5322)" class="st4" cx="2763.8" cy="127.4" rx="7.1" ry="4.1"/>
<ellipse transform="matrix(0.6784 -0.7347 0.7347 0.6784 797.2376 2075.6721)" class="st4" cx="2769.5" cy="127.2" rx="4.1" ry="7.1"/>
<ellipse transform="matrix(0.3017 -0.9534 0.9534 0.3017 1804.1442 2688.8035)" class="st3" cx="2737.6" cy="112.8" rx="15.1" ry="16.7"/>
<ellipse transform="matrix(0.9333 -0.359 0.359 0.9333 145.9854 1011.7112)" class="st3" cx="2797.1" cy="112.8" rx="16.7" ry="15.1"/>
<ellipse transform="matrix(0.3017 -0.9534 0.9534 0.3017 1803.9882 2689.0754)" class="st4" cx="2737.7" cy="113" rx="10.2" ry="11.3"/>
<ellipse transform="matrix(0.9974 -7.270577e-02 7.270577e-02 0.9974 -0.7927 203.7095)" class="st4" cx="2797.7" cy="112.7" rx="11.3" ry="10.2"/>
<ellipse transform="matrix(0.757 -0.6534 0.6534 0.757 642.6498 1839.6041)" class="st5" cx="2794.7" cy="55.8" rx="8" ry="11.6"/>
<path class="st0" d="M3333.5,84.9c-5.7-12.9-20.6-34.9-57-42.7c-45-9.7-71.1,7.3-80.8,16c-14.4,12.2-22.7,30.2-22.7,49.1v28.2
	c0,14.5,4.9,28.6,13.9,40c0.1,6.2,34.9,26.6,29.7,38c-5,10.9-4,19,7.8,36.8c15.9,23.9-4.2,33.4,4.7,38.7
	c20.5,12.2,6.3,26.4,18.1,36.8c9.8,8.7,1.8-9.6,1.7-20.7c0-5.8,2.6-9.8-0.2-17.4c-2.4-6.5,4.3-17.7-2.7-22.1
	c-6.6-4.2,1.9-34.7,19.8-50.6c18.1-16.2,31.4-24.6,31.4-24.6s13.8-3.5,10.6-14.9c0,0,12.4-24.9,12.4-40v-23.3
	c2.3-4.9,5.6-9.4,9.5-13.1C3334.2,95.1,3335.6,89.8,3333.5,84.9z"/>
<path class="st1" d="M3220.9,200.4c0-6.5-10.9-17.3-12.6-19c-4-3.4-6.2-7.4-6.2-11.7c0-13,20.9-23.5,46.8-23.5s46.8,10.5,46.8,23.5
	c0,6.6-5.4,12.6-14.2,16.8c-10.8,6.3-15.4,18.1-22,22.4c-9.7,6.3-13.1,16.4-17.6,21.8c-10.2,12.2-5.3,21.4-3.4,26.8
	c1.9,5.2,1.8,16,2.3,19.9c0.5,4.1,4.8,16.5,4.8,16.5s-8-4.9-8.7-12.3c-0.7-7.4,1-8.3-6.1-27.5c-5.4-14.4-9.8-19.7-3.1-31.2
	S3220.9,207.4,3220.9,200.4z"/>
<ellipse transform="matrix(0.9752 -0.2215 0.2215 0.9752 46.4467 716.6337)" class="st2" cx="3218.5" cy="151.2" rx="27.7" ry="15.9"/>
<ellipse transform="matrix(0.1913 -0.9815 0.9815 0.1913 2501.7583 3338.541)" class="st2" cx="3276.9" cy="151" rx="15.9" ry="27.7"/>
<ellipse class="st2" cx="3227.4" cy="161.8" rx="10.9" ry="19.7"/>
<ellipse class="st2" cx="3249.6" cy="161.4" rx="10.9" ry="19.7"/>
<ellipse class="st2" cx="3270.2" cy="160.4" rx="10.9" ry="19.7"/>
<path class="st2" d="M3247.5,52.2c-20,0-38.1,43.8-49.1,27.1c-6.5,10-9.9,21.7-9.9,33.7c0,33.6,26.4,60.8,59,60.8s59-27.2,59-60.8
	c0-11.7-3.3-23.1-9.5-33C3286.2,96.3,3267.2,52.2,3247.5,52.2z"/>
<path class="st3" d="M3248.1,106.1c19.7,0,38-9.8,49-26.1c-10.5-16.7-28.8-27.8-49.6-27.8c-19.9,0.1-38.5,10.3-49.1,27.1
	C3209.4,96,3228.1,106.1,3248.1,106.1z"/>
<ellipse transform="matrix(0.6784 -0.7347 0.7347 0.6784 935.3362 2431.7346)" class="st4" cx="3245.3" cy="147.5" rx="7.1" ry="4.1"/>
<ellipse transform="matrix(0.6784 -0.7347 0.7347 0.6784 937.3607 2435.7739)" class="st4" cx="3250.9" cy="147.2" rx="4.1" ry="7.1"/>
<ellipse transform="matrix(0.3017 -0.9534 0.9534 0.3017 2121.113 3161.8574)" class="st3" cx="3219" cy="132.9" rx="15.1" ry="16.7"/>
<ellipse transform="matrix(0.9333 -0.359 0.359 0.9333 170.9442 1185.8938)" class="st3" cx="3278.6" cy="132.7" rx="16.7" ry="15.1"/>
<ellipse transform="matrix(0.3017 -0.9534 0.9534 0.3017 2121.1458 3162.0605)" class="st4" cx="3219.2" cy="133" rx="10.2" ry="11.3"/>
<ellipse transform="matrix(0.9974 -7.270577e-02 7.270577e-02 0.9974 -0.9714 238.7865)" class="st4" cx="3279.5" cy="132.7" rx="11.3" ry="10.2"/>
<ellipse transform="matrix(0.757 -0.6534 0.6534 0.757 746.5793 2159.0752)" class="st5" cx="3276.2" cy="75.8" rx="8" ry="11.6"/>
<ellipse transform="matrix(0.9752 -0.2215 0.2215 0.9752 45.7904 770.7371)" class="st2" cx="3459.4" cy="181.2" rx="27.7" ry="15.9"/>
<ellipse transform="matrix(0.1913 -0.9815 0.9815 0.1913 2666.9143 3599.1121)" class="st2" cx="3517.6" cy="181.1" rx="15.9" ry="27.7"/>
<ellipse class="st2" cx="3468.2" cy="191.8" rx="10.9" ry="19.7"/>
<ellipse class="st2" cx="3490.3" cy="191.4" rx="10.9" ry="19.7"/>
<ellipse class="st2" cx="3510.9" cy="190.4" rx="10.9" ry="19.7"/>
<path class="st2" d="M3488.3,82.2c-20,0-38.1,43.8-49.1,27.1c-6.5,10-9.9,21.7-9.9,33.7c0,33.6,26.4,60.8,59,60.8s59-27.2,59-60.8
	c0-11.7-3.3-23.1-9.5-33C3526.9,126.3,3507.9,82.2,3488.3,82.2z"/>
<path class="st3" d="M3488.9,136.1c19.7,0,38-9.8,49-26.1c-10.5-16.7-28.8-27.8-49.6-27.8c-19.9,0.1-38.5,10.3-49.1,27.1
	C3450.2,126,3468.8,136.1,3488.9,136.1z"/>
<ellipse transform="matrix(0.6784 -0.7347 0.7347 0.6784 990.7559 2618.2197)" class="st4" cx="3486" cy="177.4" rx="7.1" ry="4.1"/>
<ellipse transform="matrix(0.6784 -0.7347 0.7347 0.6784 992.7922 2622.2905)" class="st4" cx="3491.7" cy="177.1" rx="4.1" ry="7.1"/>
<ellipse transform="matrix(0.3017 -0.9534 0.9534 0.3017 2260.7207 3412.3403)" class="st3" cx="3459.8" cy="162.9" rx="15.1" ry="16.7"/>
<ellipse transform="matrix(0.9333 -0.359 0.359 0.9333 176.1807 1274.3136)" class="st3" cx="3519.3" cy="162.8" rx="16.7" ry="15.1"/>
<ellipse transform="matrix(0.3017 -0.9534 0.9534 0.3017 2260.5615 3412.4473)" class="st4" cx="3459.8" cy="163" rx="10.2" ry="11.3"/>
<ellipse transform="matrix(0.9974 -7.270577e-02 7.270577e-02 0.9974 -2.5156 256.3669)" class="st4" cx="3520.2" cy="162.7" rx="11.3" ry="10.2"/>
<ellipse transform="matrix(0.757 -0.6534 0.6534 0.757 785.4659 2323.627)" class="st5" cx="3516.8" cy="105.8" rx="8" ry="11.6"/>
<polyline class="st6" points="119.4,388.3 0,388.3 0,87.2 "/>
<path class="st0" d="M1648.3,94.9c-5.7-12.9-20.6-34.9-57-42.7c-45-9.7-71.1,7.3-80.8,16c-14.4,12.2-22.7,30.2-22.7,49.1v28.2
	c0,14.5,4.9,28.6,13.9,40c-2.1,3.4,11,16.4,11,16.4s6.5,12.6,25.3,27.1c18.9,14.7,32.1,42.3,25.5,46.4c-7,4.5,11.7,15.7,9.3,22.1
	c-2.9,7.6-4.2,12.7-4.3,18.5c0,11.1-5,30.4,4.8,21.7c11.8-10.4-11-19.3,9.5-31.5c8.8-5.3,2.3-13.2-5.7-25.9
	c-1.9-3-5.1-10.8,18.2-27.4s11.8-21.5,6.9-32.4c-5.2-11.4,7.1-17.5,7.3-23.7c16.1-12.2,25.6-31.2,25.6-51.4v-23.2
	c2.3-4.9,5.6-9.4,9.5-13.1C1649.1,105.1,1650.5,99.8,1648.3,94.9z"/>
<path class="st1" d="M1588.7,212.3c0.2-6.2,10.9-19.2,12.6-20.8c4-3.4,6.2-7.4,6.2-11.7c0-13-20.9-23.5-46.8-23.5
	s-46.8,10.5-46.8,23.5c0,6.5,11.2,14.9,13.7,16.6c7.1,4.9,5.5,16,28.9,33.4c11.5,8.6,13.2,37.2,11.9,42.8c-1.2,5.3,2.2,11.6,6.6,17
	c4.6,5.7,1.1,13,0.7,15.4c-0.3,1.5,8.2-8.6,4.3-12.7c-10.3-10.9-9.1-28.8-3.1-34.2C1604.5,233.1,1588.3,224.8,1588.7,212.3z"/>
<ellipse transform="matrix(0.9752 -0.2215 0.2215 0.9752 2.4084 343.5133)" class="st2" cx="1532.9" cy="161" rx="27.7" ry="15.9"/>
<ellipse transform="matrix(0.1913 -0.9815 0.9815 0.1913 1128.8102 1691.9689)" class="st2" cx="1591.2" cy="161" rx="15.9" ry="27.7"/>
<ellipse class="st2" cx="1541.8" cy="171.8" rx="10.9" ry="19.7"/>
<ellipse class="st2" cx="1563.9" cy="171.4" rx="10.9" ry="19.7"/>
<ellipse class="st2" cx="1584.5" cy="170.4" rx="10.9" ry="19.7"/>
<path class="st2" d="M1563.8,69.1c-20,0-40,36.9-51,20.2c-6.5,10-9.9,21.7-9.9,33.7c0,33.6,26.4,60.8,59,60.8s59-27.2,59-60.8
	c0-11.7-3.3-23.1-9.5-33C1600.5,106.3,1583.4,69.1,1563.8,69.1z"/>
<path class="st3" d="M1562.5,116.1c19.7,0,38-9.8,49-26.1c-10.5-16.7-28.8-27.8-49.6-27.8c-19.9,0.1-38.5,10.3-49.2,27.1
	C1523.7,106,1542.4,116.1,1562.5,116.1z"/>
<ellipse transform="matrix(0.6784 -0.7347 0.7347 0.6784 385.8226 1196.5226)" class="st4" cx="1559.6" cy="157.6" rx="7.1" ry="4.1"/>
<ellipse transform="matrix(0.6784 -0.7347 0.7347 0.6784 387.8463 1200.4974)" class="st4" cx="1565.2" cy="157.2" rx="4.1" ry="7.1"/>
<ellipse transform="matrix(0.3017 -0.9534 0.9534 0.3017 934.5093 1561.5557)" class="st3" cx="1533.3" cy="142.8" rx="15.1" ry="16.7"/>
<ellipse transform="matrix(0.9333 -0.359 0.359 0.9333 54.9575 581.4366)" class="st3" cx="1593" cy="142.7" rx="16.7" ry="15.1"/>
<ellipse transform="matrix(0.3017 -0.9534 0.9534 0.3017 934.5075 1561.8533)" class="st4" cx="1533.5" cy="143" rx="10.2" ry="11.3"/>
<ellipse transform="matrix(0.9974 -7.270577e-02 7.270577e-02 0.9974 -6.1607 116.2325)" class="st4" cx="1593.5" cy="142.7" rx="11.3" ry="10.2"/>
<ellipse transform="matrix(0.757 -0.6534 0.6534 0.757 330.4435 1060.0735)" class="st5" cx="1590.5" cy="85.8" rx="8" ry="11.6"/>
</svg>
