<svg xmlns="http://www.w3.org/2000/svg" viewBox="0 0 5262.17 250.05"><defs><style>.cls-1{fill:#ea543f;}.cls-2{fill:none;}.cls-3{fill:#e04c3d;}.cls-4{fill:#f9644b;}.cls-5{fill:#bf3a16;}.cls-6{fill:#fff;}.cls-7{fill:#ff9385;}.cls-8{fill:#261d1b;}</style></defs><title>fond2Plan de travail 100</title><g id="Calque_2" data-name="Calque 2"><path class="cls-1" d="M76.37,149.35c-17.11,3.5-23.92,31.7-34.18,18.91a45.12,45.12,0,1,0,89.23,13.24,44.66,44.66,0,0,1-27.46-5C98.88,180.23,82.93,148,76.37,149.35Z"/><path class="cls-1" d="M73.65,139.67c-2.43,14.59-19.34,4.62-34.64,7.75-13.93,2.84-21.82,19.6-30.17,9.19a36.71,36.71,0,1,0,64.81-16.94Z"/><path class="cls-1" d="M267,134.25c-3,17.92-34-9.11-52.79-5.27-17.11,3.5-16.55,38.86-26.81,26.07a45.09,45.09,0,1,0,79.6-20.8Z"/><path class="cls-2" d="M179.09,151.16c-.69.14-1.38.26-2.06.36C177.71,151.42,178.4,151.3,179.09,151.16Z"/><path class="cls-2" d="M176.69,151.57c-.67.1-1.34.19-2,.26C175.35,151.76,176,151.67,176.69,151.57Z"/><path class="cls-3" d="M218,119.45a46.7,46.7,0,0,0-3.54-5.13,45.2,45.2,0,0,1-1.85,7.24A46,46,0,0,1,218,119.45Z"/><path class="cls-3" d="M153.74,149c.66.26,1.33.5,2,.73C155.07,149.48,154.4,149.24,153.74,149Z"/><path class="cls-3" d="M139.87,140.39c.5.46,1,.9,1.53,1.33C140.88,141.29,140.37,140.85,139.87,140.39Z"/><path class="cls-3" d="M156.11,149.83c.64.21,1.3.41,1.95.59C157.41,150.24,156.75,150,156.11,149.83Z"/><path class="cls-3" d="M158.46,150.53q1,.27,2,.51Q159.48,150.8,158.46,150.53Z"/><path class="cls-3" d="M147.41,145.92c.6.35,1.21.68,1.83,1C148.62,146.6,148,146.27,147.41,145.92Z"/><path class="cls-3" d="M149.59,147.11c.61.31,1.22.61,1.84.89C150.81,147.72,150.2,147.42,149.59,147.11Z"/><path class="cls-3" d="M151.76,148.15c.63.28,1.28.56,1.93.81C153,148.71,152.39,148.43,151.76,148.15Z"/><path class="cls-3" d="M138.22,138.83c.49.49,1,1,1.51,1.44C139.22,139.8,138.71,139.32,138.22,138.83Z"/><path class="cls-3" d="M141.64,141.91c.53.44,1.07.86,1.63,1.27C142.71,142.77,142.17,142.35,141.64,141.91Z"/><path class="cls-3" d="M136.53,137c.46.52.93,1,1.41,1.5C137.46,138.05,137,137.56,136.53,137Z"/><path class="cls-3" d="M165.52,151.83c.69.07,1.37.13,2.06.17C166.89,152,166.21,151.9,165.52,151.83Z"/><path class="cls-3" d="M145.52,144.75c.57.36,1.14.72,1.72,1.06C146.66,145.47,146.09,145.11,145.52,144.75Z"/><path class="cls-3" d="M145.29,144.59c-.58-.38-1.14-.77-1.7-1.17C144.15,143.82,144.71,144.21,145.29,144.59Z"/><path class="cls-3" d="M160.68,151.07c.65.14,1.31.27,2,.38C162,151.34,161.33,151.21,160.68,151.07Z"/><path class="cls-3" d="M163,151.51c.68.11,1.35.2,2,.27C164.37,151.71,163.7,151.62,163,151.51Z"/><path class="cls-3" d="M134.89,135.12c.45.57.92,1.11,1.4,1.65C135.81,136.23,135.34,135.69,134.89,135.12Z"/><path class="cls-1" d="M143.27,143.18l.32.24Z"/><path class="cls-1" d="M136.29,136.77l.24.27Z"/><path class="cls-1" d="M137.94,138.54l.28.29Z"/><path class="cls-1" d="M139.73,140.27l.14.12Z"/><path class="cls-1" d="M141.4,141.72l.24.19Z"/><path class="cls-1" d="M165.05,151.78l.47.05Z"/><path class="cls-1" d="M160.5,151l.18,0Z"/><path class="cls-1" d="M162.65,151.45l.37.06Z"/><path class="cls-1" d="M145.52,144.75l-.23-.16Z"/><path class="cls-1" d="M158.06,150.42l.4.11Z"/><path class="cls-1" d="M187.36,155.05a45.17,45.17,0,0,1,1.84-7.24,45.12,45.12,0,0,1-10.11,3.35c-.69.14-1.38.26-2.06.36l-.34,0c-.67.1-1.34.19-2,.26h0a44.47,44.47,0,0,1-7.1.17h.11a45.23,45.23,0,0,1-19.27,23.52,44.94,44.94,0,0,0,66-4.28A45.28,45.28,0,0,1,187.36,155.05Z"/><path class="cls-1" d="M153.69,149l.05,0Z"/><path class="cls-1" d="M149.24,146.92l.35.19Z"/><path class="cls-1" d="M155.74,149.71l.37.12Z"/><path class="cls-1" d="M151.43,148l.33.15Z"/><path class="cls-1" d="M147.24,145.81l.17.11Z"/><path class="cls-3" d="M177,151.52l-.34,0Z"/><polygon class="cls-3" points="174.68 151.83 174.68 151.83 174.68 151.83 174.68 151.83"/><path class="cls-1" d="M127.73,138.84c-17.11,3.5-27.34,38.92-37.6,26.14a45.1,45.1,0,1,0,84.55-13.15,45.51,45.51,0,0,1-7,.18C162.54,166.36,143.71,135.58,127.73,138.84Z"/><path class="cls-3" d="M167.69,152a45.51,45.51,0,0,0,7-.18,46.19,46.19,0,0,0-4.94-7.66A45.18,45.18,0,0,1,167.69,152Z"/><path class="cls-1" d="M326.09,148.33c-3,17.92-31.28,1.38-50.07,5.22-17.11,3.5-19.27,28.37-29.53,15.58a45.09,45.09,0,1,0,79.6-20.8Z"/><path class="cls-3" d="M281.89,132.29a44.94,44.94,0,0,0-16,6.67,43.94,43.94,0,0,0,1-4.71,45,45,0,0,0-44.19-16,45.76,45.76,0,0,0-10.12,3.35,45.2,45.2,0,0,0,1.85-7.24,45,45,0,0,0-77.56,13,45.09,45.09,0,0,0-11.4.85A44.6,44.6,0,0,0,108,135.93a44.82,44.82,0,0,0-39.55-1.57A36.62,36.62,0,0,0,8.84,156.61,36.71,36.71,0,0,0,43.58,169.9,45,45,0,0,0,104,176.5a44.66,44.66,0,0,0,27.46,5c1-.13,1.94-.29,2.91-.49a44.69,44.69,0,0,0,14.09-5.48A45.23,45.23,0,0,0,167.69,152h-.11l-.46,0,.57,0a45.18,45.18,0,0,0,2.05-7.84,46.19,46.19,0,0,1,4.94,7.66h0c.67-.07,1.34-.16,2-.26l.34,0c.68-.1,1.37-.22,2.06-.36a45.12,45.12,0,0,0,10.11-3.35,45.17,45.17,0,0,0-1.84,7.24,45,45,0,0,0,44.19,16,44.55,44.55,0,0,0,16-6.67,44.11,44.11,0,0,0-1,4.72,45,45,0,0,0,79.6-20.8A45.06,45.06,0,0,0,281.89,132.29Zm-147,2.83c.45.57.92,1.11,1.4,1.65h0C135.81,136.23,135.34,135.69,134.89,135.12Zm1.64,1.92,0,0,0,0Zm1.69,1.79h0c.49.5,1,1,1.52,1.46h0C139.22,139.8,138.71,139.32,138.22,138.83Zm1.65,1.56h0c.5.46,1,.9,1.53,1.33h0C140.88,141.29,140.37,140.85,139.87,140.39Zm2.39,2c.33.27.67.53,1,.79h0C142.92,142.92,142.59,142.66,142.26,142.39Zm1.33,1h0c.56.4,1.12.8,1.7,1.17h0C144.71,144.21,144.15,143.82,143.59,143.42Zm2.86,1.9.79.49h0Zm2.25,1.31.54.29h0Zm.89.48.5.24-.5-.24Zm2.17,1,.29.12-.29-.12Zm4.34,1.68c.58.19,1.17.37,1.76.53-.59-.16-1.18-.34-1.75-.53Zm2.36.7h0q1,.27,2,.51h0Q159.48,150.8,158.46,150.53Zm4.19.92-.86-.17.86.17Z"/><ellipse class="cls-1" cx="327.47" cy="88.42" rx="6.62" ry="6.64" transform="translate(-11.08 67.4) rotate(-11.56)"/><ellipse class="cls-1" cx="323.68" cy="77.85" rx="6.62" ry="6.64" transform="translate(-9.04 66.43) rotate(-11.56)"/><ellipse class="cls-1" cx="321.75" cy="67.11" rx="6.62" ry="6.64" transform="translate(-6.92 65.83) rotate(-11.56)"/><ellipse class="cls-1" cx="320.5" cy="59.66" rx="6.62" ry="6.64" transform="translate(-5.45 65.42) rotate(-11.56)"/><ellipse class="cls-1" cx="319.25" cy="50.96" rx="6.62" ry="6.64" transform="translate(-3.74 65) rotate(-11.56)"/><ellipse class="cls-1" cx="320.98" cy="39.97" rx="11.83" ry="11.89" transform="translate(-1.5 65.12) rotate(-11.56)"/><ellipse class="cls-1" cx="386.87" cy="106.35" rx="6.64" ry="6.62" transform="translate(125.65 410.89) rotate(-64.75)"/><ellipse class="cls-1" cx="390.17" cy="95.61" rx="6.64" ry="6.62" transform="translate(137.25 407.71) rotate(-64.75)"/><ellipse class="cls-1" cx="395.06" cy="85.85" rx="6.64" ry="6.62" transform="translate(148.88 406.54) rotate(-64.75)"/><ellipse class="cls-1" cx="398.53" cy="79.14" rx="6.64" ry="6.62" transform="translate(156.94 405.83) rotate(-64.75)"/><ellipse class="cls-1" cx="402.74" cy="71.42" rx="6.64" ry="6.62" transform="translate(166.33 405.21) rotate(-64.75)"/><ellipse class="cls-1" cx="410.7" cy="63.66" rx="11.89" ry="11.83" transform="translate(177.92 407.96) rotate(-64.75)"/><path class="cls-4" d="M314.31,96.69a56.39,56.39,0,1,0,88.07,34.48c-.05-.25-.12-.5-.18-.76-6.27,4.57-16.91-11.46-25-9.8C347,126.77,335.41,115.87,314.31,96.69Z"/><path class="cls-1" d="M336,87.12a55.82,55.82,0,0,0-21.7,9.57A56.31,56.31,0,0,0,380.51,140a55.71,55.71,0,0,0,21.69-9.57A56.31,56.31,0,0,0,336,87.12Z"/><polygon class="cls-5" points="371.11 160.04 368.13 159.67 369.82 145.85 362.76 151.03 361.14 143.15 356.19 147.37 352.46 139.61 349.68 155.38 346.72 154.86 351.13 129.9 357.21 142.56 363.07 137.57 364.76 145.84 373.64 139.34 371.11 160.04"/><path class="cls-6" d="M381.43,130.17l16.41,1.75s1.06,13.13-7.8,11.81C380.12,142.25,381.43,130.17,381.43,130.17Z"/><path class="cls-6" d="M326.14,112.44l19.07,7.06s-3.36,12.79-13.53,8.63C320.3,123.46,326.14,112.44,326.14,112.44Z"/><ellipse class="cls-7" cx="374.76" cy="101.58" rx="6.37" ry="14.28" transform="translate(65.45 336.29) rotate(-52.36)"/><path class="cls-1" d="M2008.88,149.35c-17.11,3.5-23.91,31.7-34.17,18.91a45.12,45.12,0,1,0,89.23,13.24,44.7,44.7,0,0,1-27.47-5C2031.4,180.23,2015.45,148,2008.88,149.35Z"/><path class="cls-1" d="M2006.17,139.67c-2.43,14.59-19.34,4.62-34.64,7.75-13.93,2.84-21.82,19.6-30.17,9.19a36.71,36.71,0,1,0,64.81-16.94Z"/><path class="cls-1" d="M2199.48,134.25c-3,17.92-34-9.11-52.79-5.27-17.11,3.5-16.55,38.86-26.81,26.07a45.08,45.08,0,1,0,79.6-20.8Z"/><path class="cls-2" d="M2111.6,151.16c-.68.14-1.37.26-2,.36C2110.23,151.42,2110.92,151.3,2111.6,151.16Z"/><path class="cls-2" d="M2109.2,151.57c-.67.1-1.33.19-2,.26C2107.87,151.76,2108.53,151.67,2109.2,151.57Z"/><path class="cls-3" d="M2150.56,119.45a46.78,46.78,0,0,0-3.55-5.13,44.14,44.14,0,0,1-1.84,7.24A46,46,0,0,1,2150.56,119.45Z"/><path class="cls-3" d="M2086.26,149c.66.26,1.32.5,2,.73C2087.58,149.48,2086.92,149.24,2086.26,149Z"/><path class="cls-3" d="M2072.39,140.39c.5.46,1,.9,1.53,1.33C2073.4,141.29,2072.89,140.85,2072.39,140.39Z"/><path class="cls-3" d="M2088.62,149.83c.65.21,1.3.41,2,.59C2089.92,150.24,2089.27,150,2088.62,149.83Z"/><path class="cls-3" d="M2091,150.53q1,.27,2,.51Q2092,150.8,2091,150.53Z"/><path class="cls-3" d="M2079.93,145.92c.6.35,1.21.68,1.82,1C2081.14,146.6,2080.53,146.27,2079.93,145.92Z"/><path class="cls-3" d="M2082.11,147.11c.61.31,1.22.61,1.84.89C2083.33,147.72,2082.72,147.42,2082.11,147.11Z"/><path class="cls-3" d="M2084.28,148.15c.63.28,1.27.56,1.92.81C2085.55,148.71,2084.91,148.43,2084.28,148.15Z"/><path class="cls-3" d="M2070.74,138.83c.49.49,1,1,1.51,1.44C2071.73,139.8,2071.23,139.32,2070.74,138.83Z"/><path class="cls-3" d="M2074.15,141.91c.54.44,1.08.86,1.63,1.27C2075.23,142.77,2074.69,142.35,2074.15,141.91Z"/><path class="cls-3" d="M2069,137c.46.52.93,1,1.41,1.5C2070,138.05,2069.5,137.56,2069,137Z"/><path class="cls-3" d="M2098,151.83c.68.07,1.37.13,2.06.17C2099.41,152,2098.72,151.9,2098,151.83Z"/><path class="cls-3" d="M2078,144.75c.56.36,1.13.72,1.71,1.06C2079.17,145.47,2078.6,145.11,2078,144.75Z"/><path class="cls-3" d="M2077.8,144.59c-.57-.38-1.13-.77-1.69-1.17C2076.67,143.82,2077.23,144.21,2077.8,144.59Z"/><path class="cls-3" d="M2093.19,151.07c.66.14,1.32.27,2,.38C2094.51,151.34,2093.85,151.21,2093.19,151.07Z"/><path class="cls-3" d="M2095.54,151.51c.67.11,1.35.2,2,.27C2096.89,151.71,2096.21,151.62,2095.54,151.51Z"/><path class="cls-3" d="M2067.41,135.12c.45.57.92,1.11,1.39,1.65C2068.33,136.23,2067.86,135.69,2067.41,135.12Z"/><path class="cls-1" d="M2075.78,143.18l.33.24Z"/><path class="cls-1" d="M2068.8,136.77l.24.27Z"/><path class="cls-1" d="M2070.45,138.54l.29.29Z"/><path class="cls-1" d="M2072.25,140.27a.81.81,0,0,0,.14.12A.81.81,0,0,1,2072.25,140.27Z"/><path class="cls-1" d="M2073.92,141.72l.23.19Z"/><path class="cls-1" d="M2097.57,151.78l.47.05Z"/><path class="cls-1" d="M2093,151l.17,0Z"/><path class="cls-1" d="M2095.17,151.45l.37.06Z"/><path class="cls-1" d="M2078,144.75l-.24-.16Z"/><path class="cls-1" d="M2090.58,150.42l.4.11Z"/><path class="cls-1" d="M2119.88,155.05a44.14,44.14,0,0,1,1.84-7.24,45.2,45.2,0,0,1-10.12,3.35c-.68.14-1.37.26-2,.36l-.35,0c-.67.1-1.33.19-2,.26h0a44.47,44.47,0,0,1-7.1.17h.11a45.28,45.28,0,0,1-19.27,23.52,44.94,44.94,0,0,0,66-4.28A45.28,45.28,0,0,1,2119.88,155.05Z"/><path class="cls-1" d="M2086.2,149l.06,0Z"/><path class="cls-1" d="M2081.75,146.92l.36.19Z"/><path class="cls-1" d="M2088.25,149.71l.37.12Z"/><path class="cls-1" d="M2084,148l.33.15Z"/><path class="cls-1" d="M2079.75,145.81l.18.11Z"/><path class="cls-3" d="M2109.55,151.52l-.35,0Z"/><polygon class="cls-3" points="2107.2 151.83 2107.2 151.83 2107.2 151.83 2107.2 151.83"/><path class="cls-1" d="M2060.25,138.84c-17.11,3.5-27.34,38.92-37.6,26.14a45.1,45.1,0,1,0,84.55-13.15,45.51,45.51,0,0,1-7,.18C2095.06,166.36,2076.22,135.58,2060.25,138.84Z"/><path class="cls-3" d="M2100.21,152a45.51,45.51,0,0,0,7-.18,45.61,45.61,0,0,0-4.95-7.66A46.07,46.07,0,0,1,2100.21,152Z"/><path class="cls-1" d="M2258.61,148.33c-3,17.92-31.28,1.38-50.08,5.22-17.1,3.5-19.27,28.37-29.53,15.58a45.09,45.09,0,1,0,79.61-20.8Z"/><path class="cls-3" d="M2214.41,132.29a44.86,44.86,0,0,0-16,6.67,46.5,46.5,0,0,0,1.05-4.71,44.93,44.93,0,0,0-48.92-14.8,46,46,0,0,0-5.39,2.11,44.14,44.14,0,0,0,1.84-7.24,45,45,0,0,0-77.55,13,45.09,45.09,0,0,0-11.4.85,44.6,44.6,0,0,0-17.57,7.79,44.79,44.79,0,0,0-39.55-1.57,36.62,36.62,0,0,0-59.58,22.25,36.7,36.7,0,0,0,34.73,13.29,45,45,0,0,0,60.38,6.6,44.7,44.7,0,0,0,27.47,5c1-.13,1.93-.29,2.9-.49a44.74,44.74,0,0,0,14.1-5.48A45.28,45.28,0,0,0,2100.21,152h-.11l-.46,0,.57,0a46.07,46.07,0,0,0,2-7.84,45.61,45.61,0,0,1,4.95,7.66h0c.67-.07,1.33-.16,2-.26l.35,0c.68-.1,1.37-.22,2-.36a45.2,45.2,0,0,0,10.12-3.35,44.14,44.14,0,0,0-1.84,7.24,45,45,0,0,0,44.19,16,44.63,44.63,0,0,0,16-6.67,44.15,44.15,0,0,0-1.06,4.72,45,45,0,0,0,79.61-20.8A45.06,45.06,0,0,0,2214.41,132.29Zm-147,2.83c.45.57.92,1.11,1.39,1.65h0C2068.33,136.23,2067.86,135.69,2067.41,135.12ZM2069,137l0,0,0,0Zm1.7,1.79h0c.49.5,1,1,1.51,1.46h0C2071.73,139.8,2071.23,139.32,2070.74,138.83Zm1.65,1.56h0c.5.46,1,.9,1.53,1.33h0C2073.4,141.29,2072.89,140.85,2072.39,140.39Zm2.39,2,1,.79h0Zm1.33,1h0c.56.4,1.12.8,1.69,1.17h0C2077.23,144.21,2076.67,143.82,2076.11,143.42Zm2.86,1.9.78.49h0Zm2.24,1.31c.19.09.36.2.54.29h0C2081.57,146.83,2081.4,146.72,2081.21,146.63Zm.9.48.5.24-.5-.24Zm2.16,1,.3.12-.29-.12Zm4.35,1.68c.58.19,1.17.37,1.75.53-.58-.16-1.17-.34-1.75-.53Zm2.36.7h0q1,.27,2,.51h0Q2092,150.8,2091,150.53Zm4.19.92-.86-.17.86.17Z"/><ellipse class="cls-1" cx="2259.99" cy="88.42" rx="6.62" ry="6.64" transform="matrix(0.98, -0.2, 0.2, 0.98, 28.11, 454.6)"/><ellipse class="cls-1" cx="2256.2" cy="77.85" rx="6.62" ry="6.64" transform="translate(30.15 453.62) rotate(-11.56)"/><ellipse class="cls-1" cx="2254.27" cy="67.11" rx="6.62" ry="6.64" transform="translate(32.26 453.02) rotate(-11.56)"/><ellipse class="cls-1" cx="2253.02" cy="59.66" rx="6.62" ry="6.64" transform="translate(33.73 452.62) rotate(-11.56)"/><ellipse class="cls-1" cx="2251.77" cy="50.96" rx="6.62" ry="6.64" transform="translate(35.45 452.19) rotate(-11.56)"/><ellipse class="cls-1" cx="2253.5" cy="39.97" rx="11.83" ry="11.89" transform="translate(37.69 452.31) rotate(-11.56)"/><ellipse class="cls-1" cx="2319.39" cy="106.35" rx="6.64" ry="6.62" transform="translate(1233.78 2158.74) rotate(-64.75)"/><ellipse class="cls-1" cx="2322.68" cy="95.61" rx="6.64" ry="6.62" transform="translate(1245.38 2155.56) rotate(-64.75)"/><ellipse class="cls-1" cx="2327.58" cy="85.85" rx="6.64" ry="6.62" transform="translate(1257.01 2154.4) rotate(-64.75)"/><ellipse class="cls-1" cx="2331.04" cy="79.14" rx="6.64" ry="6.62" transform="translate(1265.07 2153.68) rotate(-64.75)"/><ellipse class="cls-1" cx="2335.25" cy="71.42" rx="6.64" ry="6.62" transform="translate(1274.46 2153.07) rotate(-64.75)"/><ellipse class="cls-1" cx="2343.22" cy="63.66" rx="11.89" ry="11.83" transform="translate(1286.05 2155.82) rotate(-64.75)"/><path class="cls-4" d="M2246.83,96.69a56.39,56.39,0,1,0,88.06,34.48c0-.25-.11-.5-.17-.76-6.28,4.57-16.92-11.46-25-9.8C2279.55,126.77,2267.92,115.87,2246.83,96.69Z"/><path class="cls-1" d="M2268.52,87.12a55.84,55.84,0,0,0-21.69,9.57,56.13,56.13,0,0,0,87.89,33.72A56.32,56.32,0,0,0,2268.52,87.12Z"/><polygon class="cls-5" points="2303.62 160.04 2300.65 159.67 2302.34 145.85 2295.27 151.03 2293.66 143.15 2288.71 147.37 2284.98 139.61 2282.19 155.38 2279.24 154.86 2283.64 129.9 2289.73 142.56 2295.58 137.57 2297.28 145.84 2306.16 139.34 2303.62 160.04"/><path class="cls-6" d="M2314,130.17l16.41,1.75s1.06,13.13-7.8,11.81C2312.63,142.25,2314,130.17,2314,130.17Z"/><path class="cls-6" d="M2258.66,112.44l19.07,7.06s-3.37,12.79-13.53,8.63C2252.82,123.46,2258.66,112.44,2258.66,112.44Z"/><ellipse class="cls-7" cx="2307.27" cy="101.58" rx="6.37" ry="14.28" transform="translate(817.72 1866.53) rotate(-52.36)"/><path class="cls-1" d="M2492,149.35c-17.11,3.5-23.91,31.7-34.17,18.91a45.12,45.12,0,1,0,89.23,13.24,44.69,44.69,0,0,1-27.47-5C2514.53,180.23,2498.58,148,2492,149.35Z"/><path class="cls-1" d="M2489.3,139.67c-2.43,14.59-19.34,4.62-34.64,7.75-13.93,2.84-21.82,19.6-30.18,9.19a37.24,37.24,0,0,0,.25,13.5,36.72,36.72,0,1,0,64.57-30.44Z"/><path class="cls-1" d="M2682.61,134.25c-3,17.92-34-9.11-52.79-5.27-17.11,3.5-16.55,38.86-26.81,26.07a45.08,45.08,0,1,0,79.6-20.8Z"/><path class="cls-2" d="M2594.73,151.16c-.68.14-1.37.26-2.06.36C2593.36,151.42,2594.05,151.3,2594.73,151.16Z"/><path class="cls-2" d="M2592.33,151.57c-.67.1-1.34.19-2,.26C2591,151.76,2591.66,151.67,2592.33,151.57Z"/><path class="cls-3" d="M2633.69,119.45a46.78,46.78,0,0,0-3.55-5.13,44.14,44.14,0,0,1-1.84,7.24A46,46,0,0,1,2633.69,119.45Z"/><path class="cls-3" d="M2569.39,149c.66.26,1.32.5,2,.73C2570.71,149.48,2570.05,149.24,2569.39,149Z"/><path class="cls-3" d="M2555.51,140.39c.51.46,1,.9,1.54,1.33C2556.53,141.29,2556,140.85,2555.51,140.39Z"/><path class="cls-3" d="M2571.75,149.83c.65.21,1.3.41,2,.59C2573.05,150.24,2572.4,150,2571.75,149.83Z"/><path class="cls-3" d="M2574.11,150.53q1,.27,2,.51Q2575.11,150.8,2574.11,150.53Z"/><path class="cls-3" d="M2563.06,145.92c.6.35,1.21.68,1.82,1C2564.27,146.6,2563.66,146.27,2563.06,145.92Z"/><path class="cls-3" d="M2565.24,147.11c.6.31,1.22.61,1.84.89C2566.46,147.72,2565.84,147.42,2565.24,147.11Z"/><path class="cls-3" d="M2567.4,148.15c.64.28,1.28.56,1.93.81C2568.68,148.71,2568,148.43,2567.4,148.15Z"/><path class="cls-3" d="M2553.87,138.83c.49.49,1,1,1.51,1.44C2554.86,139.8,2554.36,139.32,2553.87,138.83Z"/><path class="cls-3" d="M2557.28,141.91c.54.44,1.08.86,1.63,1.27C2558.36,142.77,2557.82,142.35,2557.28,141.91Z"/><path class="cls-3" d="M2552.17,137c.46.52.93,1,1.41,1.5C2553.1,138.05,2552.63,137.56,2552.17,137Z"/><path class="cls-3" d="M2581.17,151.83c.68.07,1.37.13,2.06.17C2582.54,152,2581.85,151.9,2581.17,151.83Z"/><path class="cls-3" d="M2561.17,144.75c.56.36,1.13.72,1.71,1.06C2562.3,145.47,2561.73,145.11,2561.17,144.75Z"/><path class="cls-3" d="M2560.93,144.59c-.57-.38-1.14-.77-1.69-1.17C2559.79,143.82,2560.36,144.21,2560.93,144.59Z"/><path class="cls-3" d="M2576.32,151.07c.66.14,1.32.27,2,.38C2577.64,151.34,2577,151.21,2576.32,151.07Z"/><path class="cls-3" d="M2578.67,151.51c.67.11,1.35.2,2,.27C2580,151.71,2579.34,151.62,2578.67,151.51Z"/><path class="cls-3" d="M2550.54,135.12c.45.57.92,1.11,1.39,1.65C2551.46,136.23,2551,135.69,2550.54,135.12Z"/><path class="cls-1" d="M2558.91,143.18l.33.24Z"/><path class="cls-1" d="M2551.93,136.77l.24.27Z"/><path class="cls-1" d="M2553.58,138.54l.29.29Z"/><path class="cls-1" d="M2555.38,140.27a1.42,1.42,0,0,0,.13.12A1.42,1.42,0,0,1,2555.38,140.27Z"/><path class="cls-1" d="M2557.05,141.72l.23.19Z"/><path class="cls-1" d="M2580.7,151.78l.47.05Z"/><path class="cls-1" d="M2576.15,151l.17,0Z"/><path class="cls-1" d="M2578.3,151.45l.37.06Z"/><path class="cls-1" d="M2561.17,144.75l-.24-.16Z"/><path class="cls-1" d="M2573.71,150.42l.4.11Z"/><path class="cls-1" d="M2603,155.05a44.14,44.14,0,0,1,1.84-7.24,45.2,45.2,0,0,1-10.12,3.35c-.68.14-1.37.26-2.06.36l-.34,0c-.67.1-1.34.19-2,.26h0a44.47,44.47,0,0,1-7.1.17h.11a45.28,45.28,0,0,1-19.27,23.52,44.94,44.94,0,0,0,66-4.28A45.28,45.28,0,0,1,2603,155.05Z"/><path class="cls-1" d="M2569.33,149l.06,0Z"/><path class="cls-1" d="M2564.88,146.92l.36.19Z"/><path class="cls-1" d="M2571.38,149.71l.37.12Z"/><path class="cls-1" d="M2567.08,148l.32.15Z"/><path class="cls-1" d="M2562.88,145.81l.18.11Z"/><path class="cls-3" d="M2592.67,151.52l-.34,0Z"/><polygon class="cls-3" points="2590.33 151.83 2590.33 151.83 2590.33 151.83 2590.33 151.83"/><path class="cls-1" d="M2543.38,138.84c-17.11,3.5-27.34,38.92-37.6,26.14a45.1,45.1,0,1,0,84.55-13.15,45.55,45.55,0,0,1-7,.18C2578.19,166.36,2559.35,135.58,2543.38,138.84Z"/><path class="cls-3" d="M2583.34,152a45.55,45.55,0,0,0,7-.18,45.61,45.61,0,0,0-4.95-7.66A46.07,46.07,0,0,1,2583.34,152Z"/><path class="cls-1" d="M2741.74,148.33c-3,17.92-31.28,1.38-50.08,5.22-17.1,3.5-19.27,28.37-29.53,15.58a45.09,45.09,0,1,0,79.61-20.8Z"/><path class="cls-3" d="M2697.54,132.29a45,45,0,0,0-16,6.67,44,44,0,0,0,1.06-4.71,44.93,44.93,0,0,0-48.92-14.8,46,46,0,0,0-5.39,2.11,44.14,44.14,0,0,0,1.84-7.24,45,45,0,0,0-77.55,13,45.06,45.06,0,0,0-11.4.85,44.6,44.6,0,0,0-17.57,7.79,44.79,44.79,0,0,0-39.55-1.57,36.63,36.63,0,0,0-59.59,22.25,36.72,36.72,0,0,0,34.74,13.29,45,45,0,0,0,60.38,6.6,44.69,44.69,0,0,0,27.47,5c1-.13,1.93-.29,2.9-.49a44.74,44.74,0,0,0,14.1-5.48A45.28,45.28,0,0,0,2583.34,152h-.11l-.46,0,.57,0a46.07,46.07,0,0,0,2-7.84,45.61,45.61,0,0,1,4.95,7.66h0c.66-.07,1.33-.16,2-.26l.34,0c.69-.1,1.38-.22,2.06-.36a45.2,45.2,0,0,0,10.12-3.35,44.14,44.14,0,0,0-1.84,7.24,45,45,0,0,0,44.19,16,44.63,44.63,0,0,0,16-6.67,44.15,44.15,0,0,0-1.06,4.72,45,45,0,0,0,79.61-20.8A45.07,45.07,0,0,0,2697.54,132.29Zm-147,2.83c.45.57.92,1.11,1.39,1.65h0C2551.46,136.23,2551,135.69,2550.54,135.12Zm1.63,1.92,0,0,0,0Zm1.7,1.79h0c.49.5,1,1,1.51,1.46h0C2554.86,139.8,2554.36,139.32,2553.87,138.83Zm1.64,1.56h0c.51.46,1,.9,1.54,1.33h0C2556.53,141.29,2556,140.85,2555.51,140.39Zm2.39,2,1,.79h0Zm1.34,1h0c.55.4,1.12.8,1.69,1.17h0C2560.36,144.21,2559.79,143.82,2559.24,143.42Zm2.86,1.9.78.49h0Zm2.24,1.31.54.29h0Zm.9.48.49.24-.49-.24Zm2.16,1,.3.12-.3-.12Zm4.35,1.68c.58.19,1.17.37,1.75.53-.58-.16-1.17-.34-1.75-.53Zm2.36.7h0q1,.27,2,.51h0Q2575.11,150.8,2574.11,150.53Zm4.19.92-.86-.17.86.17Z"/><ellipse class="cls-1" cx="2743.12" cy="88.42" rx="6.62" ry="6.64" transform="translate(37.91 551.39) rotate(-11.56)"/><ellipse class="cls-1" cx="2739.32" cy="77.85" rx="6.62" ry="6.64" transform="translate(39.95 550.42) rotate(-11.56)"/><ellipse class="cls-1" cx="2737.4" cy="67.11" rx="6.62" ry="6.64" transform="translate(42.06 549.82) rotate(-11.56)"/><ellipse class="cls-1" cx="2736.15" cy="59.66" rx="6.62" ry="6.64" transform="translate(43.53 549.41) rotate(-11.56)"/><ellipse class="cls-1" cx="2734.9" cy="50.96" rx="6.62" ry="6.64" transform="translate(45.25 548.99) rotate(-11.56)"/><ellipse class="cls-1" cx="2736.63" cy="39.97" rx="11.83" ry="11.89" transform="translate(47.48 549.11) rotate(-11.56)"/><ellipse class="cls-1" cx="2802.52" cy="106.35" rx="6.64" ry="6.62" transform="translate(1510.81 2595.71) rotate(-64.75)"/><ellipse class="cls-1" cx="2805.81" cy="95.61" rx="6.64" ry="6.62" transform="translate(1522.41 2592.53) rotate(-64.75)"/><ellipse class="cls-1" cx="2810.71" cy="85.85" rx="6.64" ry="6.62" transform="translate(1534.04 2591.36) rotate(-64.75)"/><ellipse class="cls-1" cx="2814.17" cy="79.14" rx="6.64" ry="6.62" transform="translate(1542.1 2590.65) rotate(-64.75)"/><ellipse class="cls-1" cx="2818.38" cy="71.42" rx="6.64" ry="6.62" transform="translate(1551.49 2590.03) rotate(-64.75)"/><ellipse class="cls-1" cx="2826.35" cy="63.66" rx="11.89" ry="11.83" transform="translate(1563.08 2592.78) rotate(-64.75)"/><path class="cls-4" d="M2730,96.69A56.39,56.39,0,1,0,2818,131.17c-.05-.25-.12-.5-.17-.76-6.28,4.57-16.92-11.46-25-9.8C2762.68,126.77,2751.05,115.87,2730,96.69Z"/><path class="cls-1" d="M2751.65,87.12A55.84,55.84,0,0,0,2730,96.69a56.13,56.13,0,0,0,87.89,33.72A56.32,56.32,0,0,0,2751.65,87.12Z"/><polygon class="cls-5" points="2786.75 160.04 2783.78 159.67 2785.47 145.85 2778.4 151.03 2776.79 143.15 2771.84 147.37 2768.11 139.61 2765.32 155.38 2762.37 154.86 2766.77 129.9 2772.86 142.56 2778.71 137.57 2780.4 145.84 2789.29 139.34 2786.75 160.04"/><path class="cls-6" d="M2797.08,130.17l16.41,1.75s1.05,13.13-7.8,11.81C2795.76,142.25,2797.08,130.17,2797.08,130.17Z"/><path class="cls-6" d="M2741.79,112.44l19.07,7.06s-3.37,12.79-13.53,8.63C2736,123.46,2741.79,112.44,2741.79,112.44Z"/><ellipse class="cls-7" cx="2790.4" cy="101.58" rx="6.37" ry="14.28" transform="translate(1005.78 2249.09) rotate(-52.36)"/><path class="cls-1" d="M4907.66,149.35c-17.11,3.5-23.92,31.7-34.18,18.91a45.12,45.12,0,1,0,89.23,13.24,44.67,44.67,0,0,1-27.46-5C4930.18,180.23,4914.22,148,4907.66,149.35Z"/><path class="cls-1" d="M4904.94,139.67c-2.43,14.59-19.34,4.62-34.64,7.75-13.93,2.84-21.82,19.6-30.17,9.19a36.71,36.71,0,1,0,64.81-16.94Z"/><path class="cls-1" d="M5098.25,134.25c-3,17.92-34-9.11-52.79-5.27-17.11,3.5-16.55,38.86-26.81,26.07a45.09,45.09,0,1,0,79.6-20.8Z"/><path class="cls-2" d="M5010.38,151.16c-.69.14-1.37.26-2.06.36C5009,151.42,5009.69,151.3,5010.38,151.16Z"/><path class="cls-2" d="M5008,151.57c-.67.1-1.34.19-2,.26C5006.64,151.76,5007.31,151.67,5008,151.57Z"/><path class="cls-3" d="M5049.33,119.45a46.7,46.7,0,0,0-3.54-5.13,46.26,46.26,0,0,1-1.84,7.24A45.86,45.86,0,0,1,5049.33,119.45Z"/><path class="cls-3" d="M4985,149c.66.26,1.33.5,2,.73C4986.36,149.48,4985.69,149.24,4985,149Z"/><path class="cls-3" d="M4971.16,140.39c.5.46,1,.9,1.53,1.33C4972.17,141.29,4971.66,140.85,4971.16,140.39Z"/><path class="cls-3" d="M4987.4,149.83c.64.21,1.3.41,2,.59C4988.7,150.24,4988,150,4987.4,149.83Z"/><path class="cls-3" d="M4989.75,150.53q1,.27,2,.51Q4990.77,150.8,4989.75,150.53Z"/><path class="cls-3" d="M4978.7,145.92c.6.35,1.21.68,1.83,1C4979.91,146.6,4979.3,146.27,4978.7,145.92Z"/><path class="cls-3" d="M4980.88,147.11c.61.31,1.22.61,1.85.89C4982.1,147.72,4981.49,147.42,4980.88,147.11Z"/><path class="cls-3" d="M4983.05,148.15c.64.28,1.28.56,1.93.81C4984.33,148.71,4983.69,148.43,4983.05,148.15Z"/><path class="cls-3" d="M4969.51,138.83c.5.49,1,1,1.52,1.44C4970.51,139.8,4970,139.32,4969.51,138.83Z"/><path class="cls-3" d="M4972.93,141.91c.53.44,1.08.86,1.63,1.27C4974,142.77,4973.46,142.35,4972.93,141.91Z"/><path class="cls-3" d="M4967.82,137c.46.52.93,1,1.41,1.5C4968.75,138.05,4968.28,137.56,4967.82,137Z"/><path class="cls-3" d="M4996.82,151.83c.68.07,1.36.13,2.05.17C4998.18,152,4997.5,151.9,4996.82,151.83Z"/><path class="cls-3" d="M4976.81,144.75c.57.36,1.14.72,1.72,1.06C4978,145.47,4977.38,145.11,4976.81,144.75Z"/><path class="cls-3" d="M4976.58,144.59c-.58-.38-1.14-.77-1.7-1.17C4975.44,143.82,4976,144.21,4976.58,144.59Z"/><path class="cls-3" d="M4992,151.07c.65.14,1.31.27,2,.38C4993.28,151.34,4992.62,151.21,4992,151.07Z"/><path class="cls-3" d="M4994.31,151.51q1,.17,2,.27Q4995.33,151.68,4994.31,151.51Z"/><path class="cls-3" d="M4966.19,135.12c.45.57.91,1.11,1.39,1.65C4967.1,136.23,4966.64,135.69,4966.19,135.12Z"/><path class="cls-1" d="M4974.56,143.18l.32.24Z"/><path class="cls-1" d="M4967.58,136.77l.24.27Z"/><path class="cls-1" d="M4969.23,138.54l.28.29Z"/><path class="cls-1" d="M4971,140.27a1.42,1.42,0,0,0,.13.12A1.42,1.42,0,0,1,4971,140.27Z"/><path class="cls-1" d="M4972.69,141.72l.24.19Z"/><path class="cls-1" d="M4996.35,151.78l.47.05Z"/><path class="cls-1" d="M4991.79,151l.18,0Z"/><path class="cls-1" d="M4993.94,151.45l.37.06Z"/><path class="cls-1" d="M4976.81,144.75l-.23-.16Z"/><path class="cls-1" d="M4989.35,150.42l.4.11Z"/><path class="cls-1" d="M5018.65,155.05a45.17,45.17,0,0,1,1.84-7.24,45.12,45.12,0,0,1-10.11,3.35c-.69.14-1.37.26-2.06.36l-.34,0c-.67.1-1.34.19-2,.26h0a44.47,44.47,0,0,1-7.1.17h.11a45.23,45.23,0,0,1-19.27,23.52,44.94,44.94,0,0,0,66-4.28A45.31,45.31,0,0,1,5018.65,155.05Z"/><path class="cls-1" d="M4985,149l.05,0Z"/><path class="cls-1" d="M4980.53,146.92l.35.19Z"/><path class="cls-1" d="M4987,149.71l.37.12Z"/><path class="cls-1" d="M4982.73,148l.32.15Z"/><path class="cls-1" d="M4978.53,145.81l.17.11Z"/><path class="cls-3" d="M5008.32,151.52l-.34,0Z"/><polygon class="cls-3" points="5005.97 151.83 5005.97 151.83 5005.97 151.83 5005.97 151.83"/><path class="cls-1" d="M4959,138.84c-17.11,3.5-27.33,38.92-37.6,26.14A45.1,45.1,0,1,0,5006,151.83a45.51,45.51,0,0,1-7,.18C4993.83,166.36,4975,135.58,4959,138.84Z"/><path class="cls-3" d="M4999,152a45.51,45.51,0,0,0,7-.18,44.94,44.94,0,0,0-4.94-7.66A45.18,45.18,0,0,1,4999,152Z"/><path class="cls-1" d="M5157.38,148.33c-3,17.92-31.28,1.38-50.07,5.22-17.11,3.5-19.27,28.37-29.53,15.58a45.09,45.09,0,1,0,79.6-20.8Z"/><path class="cls-3" d="M5113.19,132.29a44.91,44.91,0,0,0-16,6.67,43.94,43.94,0,0,0,1.05-4.71,45,45,0,0,0-44.19-16,45.48,45.48,0,0,0-10.11,3.35,46.26,46.26,0,0,0,1.84-7.24,45,45,0,0,0-77.56,13,45,45,0,0,0-29,8.64,44.82,44.82,0,0,0-39.55-1.57,36.62,36.62,0,0,0-59.58,22.25,36.71,36.71,0,0,0,34.74,13.29,45,45,0,0,0,60.38,6.6,44.67,44.67,0,0,0,27.46,5c1-.13,1.94-.29,2.91-.49a44.69,44.69,0,0,0,14.09-5.48A45.23,45.23,0,0,0,4999,152h-.11l-.46,0,.57,0a45.18,45.18,0,0,0,2.05-7.84,44.94,44.94,0,0,1,4.94,7.66h0c.67-.07,1.34-.16,2-.26l.34,0c.69-.1,1.37-.22,2.06-.36a45.12,45.12,0,0,0,10.11-3.35,45.17,45.17,0,0,0-1.84,7.24,45,45,0,0,0,44.2,16,44.58,44.58,0,0,0,16-6.67,44.11,44.11,0,0,0-1.05,4.72,45,45,0,0,0,79.6-20.8A45,45,0,0,0,5113.19,132.29Zm-147,2.83c.45.57.91,1.11,1.39,1.65h0C4967.1,136.23,4966.64,135.69,4966.19,135.12Zm1.63,1.92,0,0,0,0Zm1.69,1.79h0c.5.5,1,1,1.52,1.46h0C4970.51,139.8,4970,139.32,4969.51,138.83Zm1.65,1.56h0c.5.46,1,.9,1.54,1.33h0C4972.17,141.29,4971.66,140.85,4971.16,140.39Zm2.39,2,1,.79h0C4974.22,142.92,4973.88,142.66,4973.55,142.39Zm1.33,1h0c.56.4,1.12.8,1.7,1.17h0C4976,144.21,4975.44,143.82,4974.88,143.42Zm2.86,1.9.79.49h0Zm2.25,1.31.54.29h0Zm.89.48.5.24-.5-.24Zm2.17,1,.3.12-.3-.12Zm4.34,1.68c.58.19,1.17.37,1.76.53-.59-.16-1.17-.34-1.75-.53Zm2.36.7h0q1,.27,2,.51h0Q4990.77,150.8,4989.75,150.53Zm4.19.92-.86-.17.87.17Z"/><ellipse class="cls-1" cx="5158.77" cy="88.42" rx="6.62" ry="6.64" transform="translate(86.89 1035.38) rotate(-11.56)"/><ellipse class="cls-1" cx="5154.97" cy="77.85" rx="6.62" ry="6.64" transform="translate(88.93 1034.41) rotate(-11.56)"/><ellipse class="cls-1" cx="5153.04" cy="67.11" rx="6.62" ry="6.64" transform="translate(91.04 1033.8) rotate(-11.56)"/><ellipse class="cls-1" cx="5151.8" cy="59.66" rx="6.62" ry="6.64" transform="translate(92.51 1033.4) rotate(-11.56)"/><ellipse class="cls-1" cx="5150.54" cy="50.96" rx="6.62" ry="6.64" transform="translate(94.23 1032.98) rotate(-11.56)"/><ellipse class="cls-1" cx="5152.27" cy="39.97" rx="11.83" ry="11.89" transform="translate(96.46 1033.1) rotate(-11.56)"/><ellipse class="cls-1" cx="5218.16" cy="106.35" rx="6.64" ry="6.62" transform="translate(2895.97 4780.53) rotate(-64.75)"/><ellipse class="cls-1" cx="5221.46" cy="95.61" rx="6.64" ry="6.62" transform="translate(2907.57 4777.35) rotate(-64.75)"/><ellipse class="cls-1" cx="5226.35" cy="85.85" rx="6.64" ry="6.62" transform="translate(2919.2 4776.18) rotate(-64.75)"/><ellipse class="cls-1" cx="5229.82" cy="79.14" rx="6.64" ry="6.62" transform="translate(2927.26 4775.47) rotate(-64.75)"/><ellipse class="cls-1" cx="5234.03" cy="71.42" rx="6.64" ry="6.62" transform="translate(2936.65 4774.85) rotate(-64.75)"/><ellipse class="cls-1" cx="5241.99" cy="63.66" rx="11.89" ry="11.83" transform="translate(2948.24 4777.6) rotate(-64.75)"/><path class="cls-4" d="M5145.6,96.69a56.39,56.39,0,1,0,88.07,34.48c-.05-.25-.12-.5-.17-.76-6.28,4.57-16.92-11.46-25-9.8C5178.33,126.77,5166.7,115.87,5145.6,96.69Z"/><path class="cls-1" d="M5167.3,87.12a55.82,55.82,0,0,0-21.7,9.57,56.14,56.14,0,0,0,87.9,33.72A56.33,56.33,0,0,0,5167.3,87.12Z"/><polygon class="cls-5" points="5202.4 160.04 5199.42 159.67 5201.11 145.85 5194.05 151.03 5192.44 143.15 5187.48 147.37 5183.75 139.61 5180.97 155.38 5178.01 154.86 5182.42 129.9 5188.5 142.56 5194.36 137.57 5196.05 145.84 5204.93 139.34 5202.4 160.04"/><path class="cls-6" d="M5212.72,130.17l16.41,1.75s1.06,13.13-7.8,11.81C5211.41,142.25,5212.72,130.17,5212.72,130.17Z"/><path class="cls-6" d="M5157.43,112.44l19.07,7.06s-3.36,12.79-13.52,8.63C5151.59,123.46,5157.43,112.44,5157.43,112.44Z"/><ellipse class="cls-7" cx="5206.05" cy="101.58" rx="6.37" ry="14.28" transform="translate(1946.12 4161.89) rotate(-52.36)"/><path class="cls-1" d="M3458.27,149.35c-17.11,3.5-23.91,31.7-34.18,18.91a45.12,45.12,0,1,0,89.24,13.24,44.69,44.69,0,0,1-27.47-5C3480.79,180.23,3464.84,148,3458.27,149.35Z"/><path class="cls-1" d="M3455.56,139.67c-2.43,14.59-19.35,4.62-34.65,7.75-13.93,2.84-21.81,19.6-30.17,9.19a36.71,36.71,0,1,0,64.82-16.94Z"/><path class="cls-1" d="M3648.87,134.25c-3,17.92-34-9.11-52.79-5.27-17.11,3.5-16.56,38.86-26.82,26.07a45.09,45.09,0,1,0,79.61-20.8Z"/><path class="cls-2" d="M3561,151.16c-.69.14-1.37.26-2.06.36C3559.62,151.42,3560.3,151.3,3561,151.16Z"/><path class="cls-2" d="M3558.59,151.57c-.67.1-1.34.19-2,.26C3557.25,151.76,3557.92,151.67,3558.59,151.57Z"/><path class="cls-3" d="M3600,119.45a48.2,48.2,0,0,0-3.55-5.13,45.17,45.17,0,0,1-1.84,7.24A46,46,0,0,1,3600,119.45Z"/><path class="cls-3" d="M3535.65,149c.66.26,1.32.5,2,.73C3537,149.48,3536.31,149.24,3535.65,149Z"/><path class="cls-3" d="M3521.77,140.39c.5.46,1,.9,1.54,1.33C3522.79,141.29,3522.27,140.85,3521.77,140.39Z"/><path class="cls-3" d="M3538,149.83c.65.21,1.3.41,2,.59C3539.31,150.24,3538.66,150,3538,149.83Z"/><path class="cls-3" d="M3540.37,150.53q1,.27,2,.51Q3541.38,150.8,3540.37,150.53Z"/><path class="cls-3" d="M3529.32,145.92c.6.35,1.21.68,1.82,1C3530.53,146.6,3529.92,146.27,3529.32,145.92Z"/><path class="cls-3" d="M3531.49,147.11c.61.31,1.23.61,1.85.89C3532.72,147.72,3532.1,147.42,3531.49,147.11Z"/><path class="cls-3" d="M3533.66,148.15c.64.28,1.28.56,1.93.81C3534.94,148.71,3534.3,148.43,3533.66,148.15Z"/><path class="cls-3" d="M3520.12,138.83c.5.49,1,1,1.52,1.44C3521.12,139.8,3520.62,139.32,3520.12,138.83Z"/><path class="cls-3" d="M3523.54,141.91c.53.44,1.08.86,1.63,1.27C3524.62,142.77,3524.07,142.35,3523.54,141.91Z"/><path class="cls-3" d="M3518.43,137c.46.52.93,1,1.41,1.5C3519.36,138.05,3518.89,137.56,3518.43,137Z"/><path class="cls-3" d="M3547.43,151.83c.68.07,1.37.13,2.06.17C3548.8,152,3548.11,151.9,3547.43,151.83Z"/><path class="cls-3" d="M3527.43,144.75c.56.36,1.13.72,1.71,1.06C3528.56,145.47,3528,145.11,3527.43,144.75Z"/><path class="cls-3" d="M3527.19,144.59c-.57-.38-1.14-.77-1.69-1.17C3526.05,143.82,3526.62,144.21,3527.19,144.59Z"/><path class="cls-3" d="M3542.58,151.07c.66.14,1.31.27,2,.38C3543.89,151.34,3543.24,151.21,3542.58,151.07Z"/><path class="cls-3" d="M3544.93,151.51c.67.11,1.35.2,2,.27C3546.28,151.71,3545.6,151.62,3544.93,151.51Z"/><path class="cls-3" d="M3516.8,135.12c.45.57.91,1.11,1.39,1.65C3517.71,136.23,3517.25,135.69,3516.8,135.12Z"/><path class="cls-1" d="M3525.17,143.18l.33.24Z"/><path class="cls-1" d="M3518.19,136.77l.24.27Z"/><path class="cls-1" d="M3519.84,138.54l.28.29Z"/><path class="cls-1" d="M3521.64,140.27a1.42,1.42,0,0,0,.13.12A1.42,1.42,0,0,1,3521.64,140.27Z"/><path class="cls-1" d="M3523.31,141.72l.23.19Z"/><path class="cls-1" d="M3547,151.78l.47.05Z"/><path class="cls-1" d="M3542.41,151l.17,0Z"/><path class="cls-1" d="M3544.56,151.45l.37.06Z"/><path class="cls-1" d="M3527.43,144.75l-.24-.16Z"/><path class="cls-1" d="M3540,150.42l.4.11Z"/><path class="cls-1" d="M3569.26,155.05a46.26,46.26,0,0,1,1.84-7.24,45.12,45.12,0,0,1-10.11,3.35c-.69.14-1.37.26-2.06.36l-.34,0c-.67.1-1.34.19-2,.26h0a44.34,44.34,0,0,1-7.09.17h.1a45.21,45.21,0,0,1-19.26,23.52,44.94,44.94,0,0,0,66-4.28A45.33,45.33,0,0,1,3569.26,155.05Z"/><path class="cls-1" d="M3535.59,149l.06,0Z"/><path class="cls-1" d="M3531.14,146.92l.35.19Z"/><path class="cls-1" d="M3537.64,149.71l.37.12Z"/><path class="cls-1" d="M3533.34,148l.32.15Z"/><path class="cls-1" d="M3529.14,145.81l.18.11Z"/><path class="cls-3" d="M3558.93,151.52l-.34,0Z"/><polygon class="cls-3" points="3556.59 151.83 3556.58 151.83 3556.58 151.83 3556.59 151.83"/><path class="cls-1" d="M3509.63,138.84c-17.11,3.5-27.33,38.92-37.59,26.14a45.11,45.11,0,1,0,84.54-13.15,45.48,45.48,0,0,1-7,.18C3544.45,166.36,3525.61,135.58,3509.63,138.84Z"/><path class="cls-3" d="M3549.59,152a45.48,45.48,0,0,0,7-.18,44.94,44.94,0,0,0-4.94-7.66A45.18,45.18,0,0,1,3549.59,152Z"/><path class="cls-1" d="M3708,148.33c-3,17.92-31.28,1.38-50.07,5.22-17.11,3.5-19.27,28.37-29.53,15.58a45.09,45.09,0,1,0,79.6-20.8Z"/><path class="cls-3" d="M3663.8,132.29a45,45,0,0,0-16,6.67,46.53,46.53,0,0,0,1.06-4.71,44.93,44.93,0,0,0-48.92-14.8,46,46,0,0,0-5.39,2.11,45.17,45.17,0,0,0,1.84-7.24,45,45,0,0,0-77.56,13,45,45,0,0,0-29,8.64,44.82,44.82,0,0,0-39.55-1.57,36.62,36.62,0,0,0-59.58,22.25,36.71,36.71,0,0,0,34.74,13.29,45,45,0,0,0,60.38,6.6,44.69,44.69,0,0,0,27.47,5c1-.13,1.93-.29,2.9-.49a44.74,44.74,0,0,0,14.1-5.48A45.21,45.21,0,0,0,3549.59,152h-.1l-.46,0,.56,0a45.18,45.18,0,0,0,2-7.84,44.94,44.94,0,0,1,4.94,7.66h0c.67-.07,1.34-.16,2-.26l.34,0c.69-.1,1.37-.22,2.06-.36a45.12,45.12,0,0,0,10.11-3.35,46.26,46.26,0,0,0-1.84,7.24,45.33,45.33,0,0,0,27,16.2,45,45,0,0,0,33.13-6.84,46.69,46.69,0,0,0-1.05,4.72,45,45,0,0,0,79.6-20.8A45,45,0,0,0,3663.8,132.29Zm-147,2.83c.45.57.91,1.11,1.39,1.65h0C3517.71,136.23,3517.25,135.69,3516.8,135.12Zm1.63,1.92,0,0,0,0Zm1.69,1.79h0c.5.5,1,1,1.52,1.46h0C3521.12,139.8,3520.62,139.32,3520.12,138.83Zm1.65,1.56h0c.5.46,1,.9,1.54,1.33h0C3522.79,141.29,3522.27,140.85,3521.77,140.39Zm2.39,2,1,.79h0Zm1.34,1h0c.55.4,1.12.8,1.69,1.17h0C3526.62,144.21,3526.05,143.82,3525.5,143.42Zm2.85,1.9.79.49h0Zm2.25,1.31.54.29h0Zm.89.48.5.24-.5-.24Zm2.17,1,.3.12-.3-.12Zm4.35,1.68c.58.19,1.16.37,1.75.53-.59-.16-1.17-.34-1.75-.53Zm2.36.7h0q1,.27,2,.51h0Q3541.38,150.8,3540.37,150.53Zm4.19.92-.87-.17.87.17Z"/><ellipse class="cls-1" cx="3709.38" cy="88.42" rx="6.62" ry="6.64" transform="translate(57.5 744.99) rotate(-11.56)"/><ellipse class="cls-1" cx="3705.58" cy="77.85" rx="6.62" ry="6.64" transform="translate(59.54 744.02) rotate(-11.56)"/><ellipse class="cls-1" cx="3703.65" cy="67.11" rx="6.62" ry="6.64" transform="translate(61.65 743.41) rotate(-11.56)"/><ellipse class="cls-1" cx="3702.41" cy="59.66" rx="6.62" ry="6.64" transform="translate(63.12 743.01) rotate(-11.56)"/><ellipse class="cls-1" cx="3701.16" cy="50.96" rx="6.62" ry="6.64" transform="translate(64.84 742.58) rotate(-11.56)"/><ellipse class="cls-1" cx="3702.88" cy="39.97" rx="11.83" ry="11.89" transform="translate(67.07 742.71) rotate(-11.56)"/><ellipse class="cls-1" cx="3768.78" cy="106.35" rx="6.64" ry="6.62" transform="translate(2064.87 3469.63) rotate(-64.75)"/><ellipse class="cls-1" cx="3772.07" cy="95.61" rx="6.64" ry="6.62" transform="translate(2076.47 3466.46) rotate(-64.75)"/><ellipse class="cls-1" cx="3776.96" cy="85.85" rx="6.64" ry="6.62" transform="translate(2088.11 3465.29) rotate(-64.75)"/><ellipse class="cls-1" cx="3780.43" cy="79.14" rx="6.64" ry="6.62" transform="translate(2096.17 3464.57) rotate(-64.75)"/><ellipse class="cls-1" cx="3784.64" cy="71.42" rx="6.64" ry="6.62" transform="translate(2105.56 3463.96) rotate(-64.75)"/><ellipse class="cls-1" cx="3792.61" cy="63.66" rx="11.89" ry="11.83" transform="translate(2117.14 3466.71) rotate(-64.75)"/><path class="cls-4" d="M3696.22,96.69a56.39,56.39,0,1,0,88.06,34.48c-.05-.25-.12-.5-.17-.76-6.28,4.57-16.92-11.46-25-9.8C3728.94,126.77,3717.31,115.87,3696.22,96.69Z"/><path class="cls-1" d="M3717.91,87.12a55.77,55.77,0,0,0-21.69,9.57,56.13,56.13,0,0,0,87.89,33.72A56.32,56.32,0,0,0,3717.91,87.12Z"/><polygon class="cls-8" points="3753.01 160.04 3750.03 159.67 3731.58 155.38 3728.63 154.86 3733.03 129.9 3739.11 142.56 3744.97 137.57 3746.66 145.84 3755.55 139.34 3753.01 160.04"/><polygon class="cls-5" points="3753.01 160.04 3750.03 159.67 3751.72 145.85 3744.66 151.03 3743.05 143.15 3738.1 147.37 3734.36 139.61 3731.58 155.38 3728.63 154.86 3733.03 129.9 3739.11 142.56 3744.97 137.57 3746.66 145.84 3755.55 139.34 3753.01 160.04"/><path class="cls-6" d="M3763.34,130.17l16.4,1.75s1.06,13.13-7.79,11.81C3762,142.25,3763.34,130.17,3763.34,130.17Z"/><path class="cls-6" d="M3708,112.44l19.07,7.06s-3.36,12.79-13.52,8.63C3702.2,123.46,3708,112.44,3708,112.44Z"/><ellipse class="cls-7" cx="3756.66" cy="101.58" rx="6.37" ry="14.28" transform="translate(1381.92 3014.21) rotate(-52.36)"/><path class="cls-1" d="M3941.4,149.35c-17.11,3.5-23.92,31.7-34.18,18.91a45.12,45.12,0,1,0,89.23,13.24,44.67,44.67,0,0,1-27.46-5C3963.92,180.23,3948,148,3941.4,149.35Z"/><path class="cls-1" d="M3938.69,139.67c-2.44,14.59-19.35,4.62-34.65,7.75-13.93,2.84-21.81,19.6-30.17,9.19a36.71,36.71,0,1,0,64.82-16.94Z"/><path class="cls-1" d="M4132,134.25c-3,17.92-34-9.11-52.78-5.27-17.11,3.5-16.56,38.86-26.82,26.07a45.09,45.09,0,1,0,79.6-20.8Z"/><path class="cls-2" d="M4044.12,151.16c-.69.14-1.37.26-2.06.36C4042.75,151.42,4043.43,151.3,4044.12,151.16Z"/><path class="cls-2" d="M4041.72,151.57c-.67.1-1.34.19-2,.26C4040.38,151.76,4041.05,151.67,4041.72,151.57Z"/><path class="cls-3" d="M4083.07,119.45a46.7,46.7,0,0,0-3.54-5.13,45.17,45.17,0,0,1-1.84,7.24A46.56,46.56,0,0,1,4083.07,119.45Z"/><path class="cls-3" d="M4018.78,149c.65.26,1.32.5,2,.73C4020.1,149.48,4019.43,149.24,4018.78,149Z"/><path class="cls-3" d="M4004.9,140.39c.5.46,1,.9,1.54,1.33C4005.92,141.29,4005.4,140.85,4004.9,140.39Z"/><path class="cls-3" d="M4021.14,149.83c.65.21,1.3.41,2,.59C4022.44,150.24,4021.79,150,4021.14,149.83Z"/><path class="cls-3" d="M4023.5,150.53q1,.27,2,.51Q4024.51,150.8,4023.5,150.53Z"/><path class="cls-3" d="M4012.45,145.92c.6.35,1.2.68,1.82,1C4013.65,146.6,4013.05,146.27,4012.45,145.92Z"/><path class="cls-3" d="M4014.62,147.11c.61.31,1.23.61,1.85.89C4015.85,147.72,4015.23,147.42,4014.62,147.11Z"/><path class="cls-3" d="M4016.79,148.15c.64.28,1.28.56,1.93.81C4018.07,148.71,4017.43,148.43,4016.79,148.15Z"/><path class="cls-3" d="M4003.25,138.83c.5.49,1,1,1.52,1.44C4004.25,139.8,4003.75,139.32,4003.25,138.83Z"/><path class="cls-3" d="M4006.67,141.91c.53.44,1.08.86,1.63,1.27C4007.75,142.77,4007.2,142.35,4006.67,141.91Z"/><path class="cls-3" d="M4001.56,137c.46.52.93,1,1.41,1.5C4002.49,138.05,4002,137.56,4001.56,137Z"/><path class="cls-3" d="M4030.56,151.83c.68.07,1.37.13,2.05.17C4031.93,152,4031.24,151.9,4030.56,151.83Z"/><path class="cls-3" d="M4010.56,144.75c.56.36,1.13.72,1.71,1.06C4011.69,145.47,4011.12,145.11,4010.56,144.75Z"/><path class="cls-3" d="M4010.32,144.59c-.57-.38-1.14-.77-1.69-1.17C4009.18,143.82,4009.75,144.21,4010.32,144.59Z"/><path class="cls-3" d="M4025.71,151.07c.65.14,1.31.27,2,.38C4027,151.34,4026.36,151.21,4025.71,151.07Z"/><path class="cls-3" d="M4028.06,151.51c.67.11,1.35.2,2,.27C4029.41,151.71,4028.73,151.62,4028.06,151.51Z"/><path class="cls-3" d="M3999.93,135.12c.45.57.91,1.11,1.39,1.65C4000.84,136.23,4000.38,135.69,3999.93,135.12Z"/><path class="cls-1" d="M4008.3,143.18l.33.24Z"/><path class="cls-1" d="M4001.32,136.77l.24.27Z"/><path class="cls-1" d="M4003,138.54l.28.29Z"/><path class="cls-1" d="M4004.77,140.27a1.42,1.42,0,0,0,.13.12A1.42,1.42,0,0,1,4004.77,140.27Z"/><path class="cls-1" d="M4006.44,141.72l.23.19Z"/><path class="cls-1" d="M4030.09,151.78l.47.05Z"/><path class="cls-1" d="M4025.54,151l.17,0Z"/><path class="cls-1" d="M4027.69,151.45l.37.06Z"/><path class="cls-1" d="M4010.56,144.75l-.24-.16Z"/><path class="cls-1" d="M4023.1,150.42l.4.11Z"/><path class="cls-1" d="M4052.39,155.05a46.26,46.26,0,0,1,1.84-7.24,45.12,45.12,0,0,1-10.11,3.35c-.69.14-1.37.26-2.06.36l-.34,0c-.67.1-1.34.19-2,.26h0a44.44,44.44,0,0,1-7.1.17h.11a45.21,45.21,0,0,1-19.26,23.52,44.93,44.93,0,0,0,66-4.28A45.31,45.31,0,0,1,4052.39,155.05Z"/><path class="cls-1" d="M4018.72,149l.06,0Z"/><path class="cls-1" d="M4014.27,146.92l.35.19Z"/><path class="cls-1" d="M4020.77,149.71l.37.12Z"/><path class="cls-1" d="M4016.47,148l.32.15Z"/><path class="cls-1" d="M4012.27,145.81l.18.11Z"/><path class="cls-3" d="M4042.06,151.52l-.34,0Z"/><polygon class="cls-3" points="4039.71 151.83 4039.71 151.83 4039.71 151.83 4039.71 151.83"/><path class="cls-1" d="M3992.76,138.84c-17.11,3.5-27.33,38.92-37.59,26.14a45.11,45.11,0,1,0,84.54-13.15,45.48,45.48,0,0,1-7,.18C4027.58,166.36,4008.74,135.58,3992.76,138.84Z"/><path class="cls-3" d="M4032.72,152a45.48,45.48,0,0,0,7-.18,44.94,44.94,0,0,0-4.94-7.66A45.18,45.18,0,0,1,4032.72,152Z"/><path class="cls-1" d="M4191.12,148.33c-3,17.92-31.28,1.38-50.07,5.22-17.11,3.5-19.27,28.37-29.53,15.58a45.09,45.09,0,1,0,79.6-20.8Z"/><path class="cls-3" d="M4146.93,132.29a45,45,0,0,0-16,6.67,43.94,43.94,0,0,0,1.05-4.71,45,45,0,0,0-44.19-16,45.56,45.56,0,0,0-4.73,1.24,46.56,46.56,0,0,0-5.38,2.11,45.17,45.17,0,0,0,1.84-7.24,45,45,0,0,0-77.56,13,45,45,0,0,0-29,8.64,44.82,44.82,0,0,0-39.55-1.57,36.62,36.62,0,0,0-59.58,22.25,36.71,36.71,0,0,0,34.74,13.29,45,45,0,0,0,60.38,6.6,44.67,44.67,0,0,0,27.46,5c1-.13,1.94-.29,2.91-.49a45,45,0,0,0,33.36-29h-.11l-.45,0,.56,0a45.18,45.18,0,0,0,2.05-7.84,44.94,44.94,0,0,1,4.94,7.66h0c.67-.07,1.34-.16,2-.26l.34,0c.69-.1,1.37-.22,2.06-.36a45.12,45.12,0,0,0,10.11-3.35,46.26,46.26,0,0,0-1.84,7.24,45,45,0,0,0,44.2,16,44.58,44.58,0,0,0,16-6.67,46.69,46.69,0,0,0-1,4.72,45,45,0,0,0,79.6-20.8A45,45,0,0,0,4146.93,132.29Zm-147,2.83c.45.57.91,1.11,1.39,1.65h0C4000.84,136.23,4000.38,135.69,3999.93,135.12Zm1.63,1.92,0,0,0,0Zm1.69,1.79h0c.5.5,1,1,1.52,1.46h0C4004.25,139.8,4003.75,139.32,4003.25,138.83Zm1.65,1.56h0c.5.46,1,.9,1.54,1.33h0C4005.92,141.29,4005.4,140.85,4004.9,140.39Zm2.39,2,1,.79h0Zm1.34,1h0c.55.4,1.12.8,1.69,1.17h0C4009.75,144.21,4009.18,143.82,4008.63,143.42Zm2.85,1.9.79.49h0Zm2.25,1.31.54.29h0Zm.89.48.5.24-.5-.24Zm2.17,1,.3.12-.3-.12Zm4.35,1.68c.58.19,1.16.37,1.75.53-.59-.16-1.17-.34-1.75-.53Zm2.36.7h0c.68.18,1.36.35,2.05.51h0Q4024.51,150.8,4023.5,150.53Zm4.19.92-.87-.17.87.17Z"/><ellipse class="cls-1" cx="4192.51" cy="88.42" rx="6.62" ry="6.64" transform="translate(67.29 841.79) rotate(-11.56)"/><ellipse class="cls-1" cx="4188.71" cy="77.85" rx="6.62" ry="6.64" transform="translate(69.34 840.81) rotate(-11.56)"/><ellipse class="cls-1" cx="4186.78" cy="67.11" rx="6.62" ry="6.64" transform="translate(71.45 840.21) rotate(-11.56)"/><ellipse class="cls-1" cx="4185.54" cy="59.66" rx="6.62" ry="6.64" transform="translate(72.92 839.81) rotate(-11.56)"/><ellipse class="cls-1" cx="4184.29" cy="50.96" rx="6.62" ry="6.64" transform="translate(74.63 839.38) rotate(-11.56)"/><ellipse class="cls-1" cx="4186.01" cy="39.97" rx="11.83" ry="11.89" transform="translate(76.87 839.5) rotate(-11.56)"/><ellipse class="cls-1" cx="4251.9" cy="106.35" rx="6.64" ry="6.62" transform="translate(2341.9 3906.6) rotate(-64.75)"/><ellipse class="cls-1" cx="4255.2" cy="95.61" rx="6.64" ry="6.62" transform="translate(2353.5 3903.42) rotate(-64.75)"/><ellipse class="cls-1" cx="4260.09" cy="85.85" rx="6.64" ry="6.62" transform="translate(2365.14 3902.25) rotate(-64.75)"/><ellipse class="cls-1" cx="4263.56" cy="79.14" rx="6.64" ry="6.62" transform="translate(2373.2 3901.54) rotate(-64.75)"/><ellipse class="cls-1" cx="4267.77" cy="71.42" rx="6.64" ry="6.62" transform="translate(2382.59 3900.92) rotate(-64.75)"/><ellipse class="cls-1" cx="4275.74" cy="63.66" rx="11.89" ry="11.83" transform="translate(2394.17 3903.68) rotate(-64.75)"/><path class="cls-4" d="M4179.35,96.69a56.39,56.39,0,1,0,88.06,34.48c-.05-.25-.12-.5-.17-.76-6.28,4.57-16.92-11.46-25-9.8C4212.07,126.77,4200.44,115.87,4179.35,96.69Z"/><path class="cls-1" d="M4201,87.12a55.77,55.77,0,0,0-21.69,9.57,56.13,56.13,0,0,0,87.89,33.72A56.32,56.32,0,0,0,4201,87.12Z"/><polygon class="cls-8" points="4236.14 160.04 4233.16 159.67 4214.71 155.38 4211.76 154.86 4216.16 129.9 4222.24 142.56 4228.1 137.57 4229.79 145.84 4238.67 139.34 4236.14 160.04"/><polygon class="cls-5" points="4236.14 160.04 4233.16 159.67 4234.85 145.85 4227.79 151.03 4226.18 143.15 4221.23 147.37 4217.49 139.61 4214.71 155.38 4211.76 154.86 4216.16 129.9 4222.24 142.56 4228.1 137.57 4229.79 145.84 4238.67 139.34 4236.14 160.04"/><path class="cls-6" d="M4246.47,130.17l16.4,1.75s1.06,13.13-7.8,11.81C4245.15,142.25,4246.47,130.17,4246.47,130.17Z"/><path class="cls-6" d="M4191.17,112.44l19.07,7.06s-3.36,12.79-13.52,8.63C4185.33,123.46,4191.17,112.44,4191.17,112.44Z"/><ellipse class="cls-7" cx="4239.79" cy="101.58" rx="6.37" ry="14.28" transform="translate(1569.99 3396.77) rotate(-52.36)"/><path class="cls-1" d="M2975.14,149.35c-17.11,3.5-23.91,31.7-34.17,18.91a45.12,45.12,0,1,0,89.23,13.24,44.69,44.69,0,0,1-27.47-5C2997.66,180.23,2981.71,148,2975.14,149.35Z"/><path class="cls-1" d="M2972.43,139.67c-2.43,14.59-19.34,4.62-34.65,7.75-13.93,2.84-21.81,19.6-30.17,9.19a37.24,37.24,0,0,0,.25,13.5,36.72,36.72,0,1,0,64.57-30.44Z"/><path class="cls-1" d="M3165.74,134.25c-3,17.92-34-9.11-52.79-5.27-17.11,3.5-16.56,38.86-26.82,26.07a45.09,45.09,0,1,0,79.61-20.8Z"/><path class="cls-2" d="M3077.86,151.16c-.68.14-1.37.26-2.06.36C3076.49,151.42,3077.18,151.3,3077.86,151.16Z"/><path class="cls-2" d="M3075.46,151.57c-.67.1-1.34.19-2,.26C3074.12,151.76,3074.79,151.67,3075.46,151.57Z"/><path class="cls-3" d="M3116.82,119.45a46.78,46.78,0,0,0-3.55-5.13,45.17,45.17,0,0,1-1.84,7.24A46,46,0,0,1,3116.82,119.45Z"/><path class="cls-3" d="M3052.52,149c.66.26,1.32.5,2,.73C3053.84,149.48,3053.18,149.24,3052.52,149Z"/><path class="cls-3" d="M3038.64,140.39c.51.46,1,.9,1.54,1.33C3039.66,141.29,3039.15,140.85,3038.64,140.39Z"/><path class="cls-3" d="M3054.88,149.83c.65.21,1.3.41,2,.59C3056.18,150.24,3055.53,150,3054.88,149.83Z"/><path class="cls-3" d="M3057.24,150.53q1,.27,2,.51Q3058.25,150.8,3057.24,150.53Z"/><path class="cls-3" d="M3046.19,145.92c.6.35,1.21.68,1.82,1C3047.4,146.6,3046.79,146.27,3046.19,145.92Z"/><path class="cls-3" d="M3048.37,147.11c.6.31,1.22.61,1.84.89C3049.59,147.72,3049,147.42,3048.37,147.11Z"/><path class="cls-3" d="M3050.53,148.15c.64.28,1.28.56,1.93.81C3051.81,148.71,3051.17,148.43,3050.53,148.15Z"/><path class="cls-3" d="M3037,138.83c.5.49,1,1,1.52,1.44C3038,139.8,3037.49,139.32,3037,138.83Z"/><path class="cls-3" d="M3040.41,141.91c.54.44,1.08.86,1.63,1.27C3041.49,142.77,3040.94,142.35,3040.41,141.91Z"/><path class="cls-3" d="M3035.3,137c.46.52.93,1,1.41,1.5C3036.23,138.05,3035.76,137.56,3035.3,137Z"/><path class="cls-3" d="M3064.3,151.83c.68.07,1.37.13,2.06.17C3065.67,152,3065,151.9,3064.3,151.83Z"/><path class="cls-3" d="M3044.3,144.75c.56.36,1.13.72,1.71,1.06C3045.43,145.47,3044.86,145.11,3044.3,144.75Z"/><path class="cls-3" d="M3044.06,144.59c-.57-.38-1.14-.77-1.69-1.17C3042.92,143.82,3043.49,144.21,3044.06,144.59Z"/><path class="cls-3" d="M3059.45,151.07c.66.14,1.32.27,2,.38C3060.77,151.34,3060.11,151.21,3059.45,151.07Z"/><path class="cls-3" d="M3061.8,151.51c.67.11,1.35.2,2,.27C3063.15,151.71,3062.47,151.62,3061.8,151.51Z"/><path class="cls-3" d="M3033.67,135.12c.45.57.92,1.11,1.39,1.65C3034.59,136.23,3034.12,135.69,3033.67,135.12Z"/><path class="cls-1" d="M3042,143.18l.33.24Z"/><path class="cls-1" d="M3035.06,136.77l.24.27Z"/><path class="cls-1" d="M3036.71,138.54l.28.29Z"/><path class="cls-1" d="M3038.51,140.27a1.42,1.42,0,0,0,.13.12A1.42,1.42,0,0,1,3038.51,140.27Z"/><path class="cls-1" d="M3040.18,141.72l.23.19Z"/><path class="cls-1" d="M3063.83,151.78l.47.05Z"/><path class="cls-1" d="M3059.28,151l.17,0Z"/><path class="cls-1" d="M3061.43,151.45l.37.06Z"/><path class="cls-1" d="M3044.3,144.75l-.24-.16Z"/><path class="cls-1" d="M3056.84,150.42l.4.11Z"/><path class="cls-1" d="M3086.13,155.05a46.26,46.26,0,0,1,1.84-7.24,45,45,0,0,1-10.11,3.35c-.68.14-1.37.26-2.06.36l-.34,0c-.67.1-1.34.19-2,.26h0a44.47,44.47,0,0,1-7.1.17h.1a45.21,45.21,0,0,1-19.26,23.52,44.94,44.94,0,0,0,66-4.28A45.33,45.33,0,0,1,3086.13,155.05Z"/><path class="cls-1" d="M3052.46,149l.06,0Z"/><path class="cls-1" d="M3048,146.92l.36.19Z"/><path class="cls-1" d="M3054.51,149.71l.37.12Z"/><path class="cls-1" d="M3050.21,148l.32.15Z"/><path class="cls-1" d="M3046,145.81l.18.11Z"/><path class="cls-3" d="M3075.8,151.52l-.34,0Z"/><polygon class="cls-3" points="3073.45 151.83 3073.45 151.83 3073.45 151.83 3073.45 151.83"/><path class="cls-1" d="M3026.5,138.84c-17.1,3.5-27.33,38.92-37.59,26.14a45.1,45.1,0,1,0,84.55-13.15,45.64,45.64,0,0,1-7,.18C3061.32,166.36,3042.48,135.58,3026.5,138.84Z"/><path class="cls-3" d="M3066.46,152a45.64,45.64,0,0,0,7-.18,45.61,45.61,0,0,0-4.95-7.66A45.18,45.18,0,0,1,3066.46,152Z"/><path class="cls-1" d="M3224.86,148.33c-3,17.92-31.27,1.38-50.07,5.22-17.11,3.5-19.27,28.37-29.53,15.58a45.09,45.09,0,1,0,79.6-20.8Z"/><path class="cls-3" d="M3180.67,132.29a45,45,0,0,0-16,6.67,44,44,0,0,0,1.06-4.71,44.93,44.93,0,0,0-48.92-14.8,46,46,0,0,0-5.39,2.11,45.17,45.17,0,0,0,1.84-7.24,45,45,0,0,0-77.56,13,45,45,0,0,0-29,8.64,44.82,44.82,0,0,0-39.55-1.57,36.62,36.62,0,0,0-59.58,22.25,36.72,36.72,0,0,0,34.74,13.29,45,45,0,0,0,60.38,6.6,44.69,44.69,0,0,0,27.47,5c1-.13,1.93-.29,2.9-.49a44.74,44.74,0,0,0,14.1-5.48A45.21,45.21,0,0,0,3066.46,152h-.1l-.46,0,.56,0a45.18,45.18,0,0,0,2.05-7.84,45.61,45.61,0,0,1,4.95,7.66h0c.66-.07,1.33-.16,2-.26l.34,0c.69-.1,1.38-.22,2.06-.36a45,45,0,0,0,10.11-3.35,46.26,46.26,0,0,0-1.84,7.24,45.33,45.33,0,0,0,27,16.2,45,45,0,0,0,33.13-6.84,46.69,46.69,0,0,0-1,4.72,45,45,0,0,0,79.6-20.8A45,45,0,0,0,3180.67,132.29Zm-147,2.83c.45.57.92,1.11,1.39,1.65h0C3034.59,136.23,3034.12,135.69,3033.67,135.12Zm1.63,1.92,0,0,0,0Zm1.69,1.79h0c.5.5,1,1,1.52,1.46h0C3038,139.8,3037.49,139.32,3037,138.83Zm1.65,1.56h0c.51.46,1,.9,1.54,1.33h0C3039.66,141.29,3039.15,140.85,3038.64,140.39Zm2.39,2,1,.79h0Zm1.34,1h0c.55.4,1.12.8,1.69,1.17h0C3043.49,144.21,3042.92,143.82,3042.37,143.42Zm2.86,1.9.78.49h0Zm2.24,1.31.54.29h0Zm.89.48.5.24-.49-.24Zm2.17,1,.3.12-.3-.12Zm4.35,1.68c.58.19,1.16.37,1.75.53-.59-.16-1.17-.34-1.75-.53Zm2.36.7h0q1,.27,2,.51h0Q3058.25,150.8,3057.24,150.53Zm4.19.92-.87-.17.87.17Z"/><ellipse class="cls-1" cx="3226.25" cy="88.42" rx="6.62" ry="6.64" transform="translate(47.7 648.19) rotate(-11.56)"/><ellipse class="cls-1" cx="3222.45" cy="77.85" rx="6.62" ry="6.64" transform="translate(49.74 647.22) rotate(-11.56)"/><ellipse class="cls-1" cx="3220.53" cy="67.11" rx="6.62" ry="6.64" transform="translate(51.86 646.61) rotate(-11.56)"/><ellipse class="cls-1" cx="3219.28" cy="59.66" rx="6.62" ry="6.64" transform="translate(53.32 646.21) rotate(-11.56)"/><ellipse class="cls-1" cx="3218.03" cy="50.96" rx="6.62" ry="6.64" transform="translate(55.04 645.79) rotate(-11.56)"/><ellipse class="cls-1" cx="3219.75" cy="39.97" rx="11.83" ry="11.89" transform="translate(57.28 645.91) rotate(-11.56)"/><ellipse class="cls-1" cx="3285.65" cy="106.35" rx="6.64" ry="6.62" transform="translate(1787.84 3032.67) rotate(-64.75)"/><ellipse class="cls-1" cx="3288.94" cy="95.61" rx="6.64" ry="6.62" transform="translate(1799.44 3029.49) rotate(-64.75)"/><ellipse class="cls-1" cx="3293.84" cy="85.85" rx="6.64" ry="6.62" transform="translate(1811.07 3028.32) rotate(-64.75)"/><ellipse class="cls-1" cx="3297.3" cy="79.14" rx="6.64" ry="6.62" transform="translate(1819.13 3027.61) rotate(-64.75)"/><ellipse class="cls-1" cx="3301.51" cy="71.42" rx="6.64" ry="6.62" transform="translate(1828.52 3026.99) rotate(-64.75)"/><ellipse class="cls-1" cx="3309.48" cy="63.66" rx="11.89" ry="11.83" transform="translate(1840.11 3029.75) rotate(-64.75)"/><path class="cls-4" d="M3213.09,96.69a56.39,56.39,0,1,0,88.06,34.48c-.05-.25-.12-.5-.17-.76-6.28,4.57-16.92-11.46-25-9.8C3245.81,126.77,3234.18,115.87,3213.09,96.69Z"/><path class="cls-1" d="M3234.78,87.12a55.84,55.84,0,0,0-21.69,9.57A56.13,56.13,0,0,0,3301,130.41,56.32,56.32,0,0,0,3234.78,87.12Z"/><polygon class="cls-8" points="3270.51 153.28 3247.4 148.32 3249.9 129.9 3255.99 142.56 3261.84 137.57 3263.53 145.84 3272.41 139.34 3270.51 153.28"/><polygon class="cls-5" points="3269.88 160.04 3266.91 159.67 3268.6 145.85 3261.53 151.03 3259.92 143.15 3254.97 147.37 3251.23 139.61 3248.45 155.38 3245.5 154.86 3249.9 129.9 3255.99 142.56 3261.84 137.57 3263.53 145.84 3272.41 139.34 3269.88 160.04"/><path class="cls-6" d="M3280.21,130.17l16.41,1.75s1.05,13.13-7.8,11.81C3278.89,142.25,3280.21,130.17,3280.21,130.17Z"/><path class="cls-6" d="M3224.91,112.44,3244,119.5s-3.36,12.79-13.52,8.63C3219.08,123.46,3224.91,112.44,3224.91,112.44Z"/><ellipse class="cls-7" cx="3273.53" cy="101.58" rx="6.37" ry="14.28" transform="translate(1193.85 2631.65) rotate(-52.36)"/><path class="cls-1" d="M4424.53,149.35c-17.11,3.5-23.92,31.7-34.18,18.91a45.12,45.12,0,1,0,89.23,13.24,44.67,44.67,0,0,1-27.46-5C4447.05,180.23,4431.09,148,4424.53,149.35Z"/><path class="cls-1" d="M4421.82,139.67c-2.44,14.59-19.35,4.62-34.65,7.75-13.93,2.84-21.81,19.6-30.17,9.19a36.71,36.71,0,1,0,64.82-16.94Z"/><path class="cls-1" d="M4615.12,134.25c-3,17.92-34-9.11-52.79-5.27-17.1,3.5-16.55,38.86-26.81,26.07a45.09,45.09,0,1,0,79.6-20.8Z"/><path class="cls-2" d="M4527.25,151.16c-.69.14-1.37.26-2.06.36C4525.88,151.42,4526.56,151.3,4527.25,151.16Z"/><path class="cls-2" d="M4524.85,151.57c-.67.1-1.34.19-2,.26C4523.51,151.76,4524.18,151.67,4524.85,151.57Z"/><path class="cls-3" d="M4566.2,119.45a46.7,46.7,0,0,0-3.54-5.13,45.17,45.17,0,0,1-1.84,7.24A46.56,46.56,0,0,1,4566.2,119.45Z"/><path class="cls-3" d="M4501.91,149c.65.26,1.32.5,2,.73C4503.23,149.48,4502.56,149.24,4501.91,149Z"/><path class="cls-3" d="M4488,140.39c.5.46,1,.9,1.53,1.33C4489,141.29,4488.53,140.85,4488,140.39Z"/><path class="cls-3" d="M4504.27,149.83c.64.21,1.3.41,1.95.59C4505.57,150.24,4504.91,150,4504.27,149.83Z"/><path class="cls-3" d="M4506.62,150.53q1,.27,2,.51Q4507.64,150.8,4506.62,150.53Z"/><path class="cls-3" d="M4495.57,145.92c.6.35,1.21.68,1.83,1C4496.78,146.6,4496.17,146.27,4495.57,145.92Z"/><path class="cls-3" d="M4497.75,147.11c.61.31,1.23.61,1.85.89C4499,147.72,4498.36,147.42,4497.75,147.11Z"/><path class="cls-3" d="M4499.92,148.15c.64.28,1.28.56,1.93.81C4501.2,148.71,4500.56,148.43,4499.92,148.15Z"/><path class="cls-3" d="M4486.38,138.83c.5.49,1,1,1.52,1.44C4487.38,139.8,4486.88,139.32,4486.38,138.83Z"/><path class="cls-3" d="M4489.8,141.91c.53.44,1.08.86,1.63,1.27C4490.88,142.77,4490.33,142.35,4489.8,141.91Z"/><path class="cls-3" d="M4484.69,137c.46.52.93,1,1.41,1.5C4485.62,138.05,4485.15,137.56,4484.69,137Z"/><path class="cls-3" d="M4513.69,151.83c.68.07,1.36.13,2.05.17C4515.05,152,4514.37,151.9,4513.69,151.83Z"/><path class="cls-3" d="M4493.69,144.75c.56.36,1.13.72,1.71,1.06C4494.82,145.47,4494.25,145.11,4493.69,144.75Z"/><path class="cls-3" d="M4493.45,144.59c-.57-.38-1.14-.77-1.7-1.17C4492.31,143.82,4492.88,144.21,4493.45,144.59Z"/><path class="cls-3" d="M4508.84,151.07c.65.14,1.31.27,2,.38C4510.15,151.34,4509.49,151.21,4508.84,151.07Z"/><path class="cls-3" d="M4511.19,151.51c.67.11,1.35.2,2,.27C4512.54,151.71,4511.86,151.62,4511.19,151.51Z"/><path class="cls-3" d="M4483.06,135.12c.45.57.91,1.11,1.39,1.65C4484,136.23,4483.51,135.69,4483.06,135.12Z"/><path class="cls-1" d="M4491.43,143.18l.32.24Z"/><path class="cls-1" d="M4484.45,136.77l.24.27Z"/><path class="cls-1" d="M4486.1,138.54l.28.29Z"/><path class="cls-1" d="M4487.9,140.27a1.42,1.42,0,0,0,.13.12A1.42,1.42,0,0,1,4487.9,140.27Z"/><path class="cls-1" d="M4489.56,141.72l.24.19Z"/><path class="cls-1" d="M4513.22,151.78l.47.05Z"/><path class="cls-1" d="M4508.66,151l.18,0Z"/><path class="cls-1" d="M4510.82,151.45l.37.06Z"/><path class="cls-1" d="M4493.69,144.75l-.24-.16Z"/><path class="cls-1" d="M4506.22,150.42l.4.11Z"/><path class="cls-1" d="M4535.52,155.05a45.17,45.17,0,0,1,1.84-7.24,45.12,45.12,0,0,1-10.11,3.35c-.69.14-1.37.26-2.06.36l-.34,0c-.67.1-1.34.19-2,.26h0a44.47,44.47,0,0,1-7.1.17h.11a45.26,45.26,0,0,1-19.26,23.52,44.93,44.93,0,0,0,66-4.28A45.31,45.31,0,0,1,4535.52,155.05Z"/><path class="cls-1" d="M4501.85,149l.06,0Z"/><path class="cls-1" d="M4497.4,146.92l.35.19Z"/><path class="cls-1" d="M4503.9,149.71l.37.12Z"/><path class="cls-1" d="M4499.6,148l.32.15Z"/><path class="cls-1" d="M4495.4,145.81l.17.11Z"/><path class="cls-3" d="M4525.19,151.52l-.34,0Z"/><polygon class="cls-3" points="4522.84 151.83 4522.84 151.83 4522.84 151.83 4522.84 151.83"/><path class="cls-1" d="M4475.89,138.84c-17.11,3.5-27.33,38.92-37.59,26.14a45.1,45.1,0,1,0,84.54-13.15,45.48,45.48,0,0,1-7,.18C4510.71,166.36,4491.87,135.58,4475.89,138.84Z"/><path class="cls-3" d="M4515.85,152a45.48,45.48,0,0,0,7-.18,44.94,44.94,0,0,0-4.94-7.66A45.18,45.18,0,0,1,4515.85,152Z"/><path class="cls-1" d="M4674.25,148.33c-3,17.92-31.28,1.38-50.07,5.22-17.11,3.5-19.27,28.37-29.53,15.58a45.09,45.09,0,1,0,79.6-20.8Z"/><path class="cls-3" d="M4630.06,132.29a44.91,44.91,0,0,0-16,6.67,43.94,43.94,0,0,0,1.05-4.71,45,45,0,0,0-44.19-16,45.56,45.56,0,0,0-4.73,1.24,46.56,46.56,0,0,0-5.38,2.11,45.17,45.17,0,0,0,1.84-7.24,45,45,0,0,0-77.56,13,45,45,0,0,0-29,8.64,44.82,44.82,0,0,0-39.55-1.57A36.62,36.62,0,0,0,4357,156.61a36.71,36.71,0,0,0,34.74,13.29,45,45,0,0,0,60.38,6.6,44.67,44.67,0,0,0,27.46,5c1-.13,1.94-.29,2.91-.49a45,45,0,0,0,33.36-29h-.11l-.46,0,.57,0a45.18,45.18,0,0,0,2-7.84,44.94,44.94,0,0,1,4.94,7.66h0c.67-.07,1.34-.16,2-.26l.34,0c.69-.1,1.37-.22,2.06-.36a45.12,45.12,0,0,0,10.11-3.35,45.17,45.17,0,0,0-1.84,7.24,45,45,0,0,0,44.2,16,44.58,44.58,0,0,0,16-6.67,46.69,46.69,0,0,0-1.05,4.72,45,45,0,0,0,79.6-20.8A45,45,0,0,0,4630.06,132.29Zm-147,2.83c.45.57.91,1.11,1.39,1.65h0C4484,136.23,4483.51,135.69,4483.06,135.12Zm1.63,1.92,0,0,0,0Zm1.69,1.79h0c.5.5,1,1,1.52,1.46h0C4487.38,139.8,4486.88,139.32,4486.38,138.83Zm1.65,1.56h0c.5.46,1,.9,1.54,1.33h0C4489,141.29,4488.53,140.85,4488,140.39Zm2.39,2,1,.79h0Zm1.33,1h0c.56.4,1.13.8,1.7,1.17h0C4492.88,144.21,4492.31,143.82,4491.75,143.42Zm2.86,1.9.79.49h0Zm2.25,1.31.54.29h0Zm.89.48.5.24-.5-.24Zm2.17,1,.3.12-.3-.12Zm4.35,1.68c.58.19,1.16.37,1.75.53-.59-.16-1.17-.34-1.75-.53Zm2.35.7h0c.68.18,1.36.35,2.05.51h0Q4507.64,150.8,4506.62,150.53Zm4.2.92-.87-.17.87.17Z"/><ellipse class="cls-1" cx="4675.64" cy="88.42" rx="6.62" ry="6.64" transform="translate(77.09 938.59) rotate(-11.56)"/><ellipse class="cls-1" cx="4671.84" cy="77.85" rx="6.62" ry="6.64" transform="translate(79.13 937.61) rotate(-11.56)"/><ellipse class="cls-1" cx="4669.91" cy="67.11" rx="6.62" ry="6.64" transform="translate(81.25 937.01) rotate(-11.56)"/><ellipse class="cls-1" cx="4668.67" cy="59.66" rx="6.62" ry="6.64" transform="translate(82.71 936.61) rotate(-11.56)"/><ellipse class="cls-1" cx="4667.42" cy="50.96" rx="6.62" ry="6.64" transform="translate(84.43 936.18) rotate(-11.56)"/><ellipse class="cls-1" cx="4669.14" cy="39.97" rx="11.83" ry="11.89" transform="translate(86.67 936.3) rotate(-11.56)"/><ellipse class="cls-1" cx="4735.03" cy="106.35" rx="6.64" ry="6.62" transform="translate(2618.94 4343.56) rotate(-64.75)"/><ellipse class="cls-1" cx="4738.33" cy="95.61" rx="6.64" ry="6.62" transform="translate(2630.53 4340.38) rotate(-64.75)"/><ellipse class="cls-1" cx="4743.22" cy="85.85" rx="6.64" ry="6.62" transform="translate(2642.17 4339.22) rotate(-64.75)"/><ellipse class="cls-1" cx="4746.69" cy="79.14" rx="6.64" ry="6.62" transform="translate(2650.23 4338.5) rotate(-64.75)"/><ellipse class="cls-1" cx="4750.9" cy="71.42" rx="6.64" ry="6.62" transform="translate(2659.62 4337.89) rotate(-64.75)"/><ellipse class="cls-1" cx="4758.86" cy="63.66" rx="11.89" ry="11.83" transform="translate(2671.21 4340.64) rotate(-64.75)"/><path class="cls-4" d="M4662.48,96.69a56.39,56.39,0,1,0,88.06,34.48c-.05-.25-.12-.5-.17-.76-6.28,4.57-16.92-11.46-25-9.8C4695.2,126.77,4683.57,115.87,4662.48,96.69Z"/><path class="cls-1" d="M4684.17,87.12a55.71,55.71,0,0,0-21.69,9.57,56.13,56.13,0,0,0,87.89,33.72A56.32,56.32,0,0,0,4684.17,87.12Z"/><polygon class="cls-8" points="4719.9 153.28 4696.79 148.32 4699.29 129.9 4705.37 142.56 4711.23 137.57 4712.92 145.84 4721.8 139.34 4719.9 153.28"/><polygon class="cls-5" points="4719.27 160.04 4716.29 159.67 4717.98 145.85 4710.92 151.03 4709.31 143.15 4704.36 147.37 4700.62 139.61 4697.84 155.38 4694.89 154.86 4699.29 129.9 4705.37 142.56 4711.23 137.57 4712.92 145.84 4721.8 139.34 4719.27 160.04"/><path class="cls-6" d="M4729.59,130.17l16.41,1.75s1.06,13.13-7.8,11.81C4728.28,142.25,4729.59,130.17,4729.59,130.17Z"/><path class="cls-6" d="M4674.3,112.44l19.07,7.06s-3.36,12.79-13.52,8.63C4668.46,123.46,4674.3,112.44,4674.3,112.44Z"/><ellipse class="cls-7" cx="4722.92" cy="101.58" rx="6.37" ry="14.28" transform="translate(1758.05 3779.33) rotate(-52.36)"/><path class="cls-1" d="M559.49,149.35c-17.1,3.5-23.91,31.7-34.17,18.91a45.12,45.12,0,1,0,89.23,13.24,44.66,44.66,0,0,1-27.46-5C582,180.23,566.06,148,559.49,149.35Z"/><path class="cls-1" d="M556.78,139.67c-2.43,14.59-19.34,4.62-34.64,7.75-13.93,2.84-21.82,19.6-30.17,9.19a36.71,36.71,0,1,0,64.81-16.94Z"/><path class="cls-1" d="M750.09,134.25c-3,17.92-34-9.11-52.79-5.27-17.11,3.5-16.55,38.86-26.81,26.07a45.09,45.09,0,1,0,79.6-20.8Z"/><path class="cls-2" d="M662.22,151.16c-.69.14-1.38.26-2.06.36C660.84,151.42,661.53,151.3,662.22,151.16Z"/><path class="cls-2" d="M659.82,151.57c-.67.1-1.34.19-2,.26C658.48,151.76,659.15,151.67,659.82,151.57Z"/><path class="cls-3" d="M701.17,119.45a45.44,45.44,0,0,0-3.55-5.13,44.14,44.14,0,0,1-1.84,7.24A46,46,0,0,1,701.17,119.45Z"/><path class="cls-3" d="M636.87,149c.66.26,1.33.5,2,.73C638.2,149.48,637.53,149.24,636.87,149Z"/><path class="cls-3" d="M623,140.39c.5.46,1,.9,1.53,1.33C624,141.29,623.5,140.85,623,140.39Z"/><path class="cls-3" d="M639.23,149.83c.65.21,1.3.41,2,.59C640.53,150.24,639.88,150,639.23,149.83Z"/><path class="cls-3" d="M641.59,150.53q1,.27,2,.51Q642.61,150.8,641.59,150.53Z"/><path class="cls-3" d="M630.54,145.92c.6.35,1.21.68,1.83,1C631.75,146.6,631.14,146.27,630.54,145.92Z"/><path class="cls-3" d="M632.72,147.11c.61.31,1.22.61,1.84.89C633.94,147.72,633.33,147.42,632.72,147.11Z"/><path class="cls-3" d="M634.89,148.15c.63.28,1.28.56,1.92.81C636.17,148.71,635.52,148.43,634.89,148.15Z"/><path class="cls-3" d="M621.35,138.83c.49.49,1,1,1.51,1.44C622.35,139.8,621.84,139.32,621.35,138.83Z"/><path class="cls-3" d="M624.77,141.91c.53.44,1.07.86,1.62,1.27C625.84,142.77,625.3,142.35,624.77,141.91Z"/><path class="cls-3" d="M619.66,137c.46.52.93,1,1.41,1.5C620.59,138.05,620.12,137.56,619.66,137Z"/><path class="cls-3" d="M648.65,151.83c.69.07,1.37.13,2.06.17C650,152,649.34,151.9,648.65,151.83Z"/><path class="cls-3" d="M628.65,144.75c.57.36,1.14.72,1.71,1.06C629.79,145.47,629.22,145.11,628.65,144.75Z"/><path class="cls-3" d="M628.42,144.59c-.58-.38-1.14-.77-1.7-1.17C627.28,143.82,627.84,144.21,628.42,144.59Z"/><path class="cls-3" d="M643.81,151.07c.65.14,1.31.27,2,.38C645.12,151.34,644.46,151.21,643.81,151.07Z"/><path class="cls-3" d="M646.15,151.51c.68.11,1.35.2,2,.27C647.5,151.71,646.83,151.62,646.15,151.51Z"/><path class="cls-3" d="M618,135.12c.45.57.92,1.11,1.39,1.65C618.94,136.23,618.47,135.69,618,135.12Z"/><path class="cls-1" d="M626.39,143.18l.33.24Z"/><path class="cls-1" d="M619.41,136.77l.25.27Z"/><path class="cls-1" d="M621.07,138.54l.28.29Z"/><path class="cls-1" d="M622.86,140.27l.14.12Z"/><path class="cls-1" d="M624.53,141.72l.24.19Z"/><path class="cls-1" d="M648.18,151.78l.47.05Z"/><path class="cls-1" d="M643.63,151l.18,0Z"/><path class="cls-1" d="M645.78,151.45l.37.06Z"/><path class="cls-1" d="M628.65,144.75a1.88,1.88,0,0,1-.23-.16A1.88,1.88,0,0,0,628.65,144.75Z"/><path class="cls-1" d="M641.19,150.42l.4.11Z"/><path class="cls-1" d="M670.49,155.05a44.14,44.14,0,0,1,1.84-7.24,45.12,45.12,0,0,1-10.11,3.35c-.69.14-1.38.26-2.06.36l-.34,0c-.67.1-1.34.19-2,.26h0a44.47,44.47,0,0,1-7.1.17h.11a45.23,45.23,0,0,1-19.27,23.52,44.94,44.94,0,0,0,66-4.28A45.28,45.28,0,0,1,670.49,155.05Z"/><path class="cls-1" d="M636.81,149l.06,0Z"/><path class="cls-1" d="M632.37,146.92l.35.19Z"/><path class="cls-1" d="M638.87,149.71l.36.12Z"/><path class="cls-1" d="M634.56,148l.33.15Z"/><path class="cls-1" d="M630.36,145.81l.18.11Z"/><path class="cls-3" d="M660.16,151.52l-.34,0Z"/><polygon class="cls-3" points="657.81 151.83 657.81 151.83 657.81 151.83 657.81 151.83"/><path class="cls-1" d="M610.86,138.84c-17.11,3.5-27.34,38.92-37.6,26.14a45.1,45.1,0,1,0,84.55-13.15,45.51,45.51,0,0,1-7,.18C645.67,166.36,626.83,135.58,610.86,138.84Z"/><path class="cls-3" d="M650.82,152a45.51,45.51,0,0,0,7-.18,45.61,45.61,0,0,0-4.95-7.66A44.27,44.27,0,0,1,650.82,152Z"/><path class="cls-1" d="M809.22,148.33c-3,17.92-31.28,1.38-50.07,5.22-17.11,3.5-19.27,28.37-29.53,15.58a45.09,45.09,0,1,0,79.6-20.8Z"/><path class="cls-3" d="M765,132.29A44.94,44.94,0,0,0,749,139a46.5,46.5,0,0,0,1.05-4.71,45,45,0,0,0-44.19-16,45.76,45.76,0,0,0-10.12,3.35,44.14,44.14,0,0,0,1.84-7.24,45,45,0,0,0-77.55,13,45.09,45.09,0,0,0-11.4.85,44.6,44.6,0,0,0-17.57,7.79,44.82,44.82,0,0,0-39.55-1.57A36.62,36.62,0,0,0,492,156.61a36.71,36.71,0,0,0,34.74,13.29,45,45,0,0,0,60.38,6.6,44.66,44.66,0,0,0,27.46,5c1-.13,1.94-.29,2.91-.49a44.69,44.69,0,0,0,14.09-5.48A45.23,45.23,0,0,0,650.82,152h-.11l-.46,0,.57,0a44.27,44.27,0,0,0,2-7.84,45.61,45.61,0,0,1,4.95,7.66h0c.67-.07,1.34-.16,2-.26l.34,0c.68-.1,1.37-.22,2.06-.36a45.12,45.12,0,0,0,10.11-3.35,44.14,44.14,0,0,0-1.84,7.24,45,45,0,0,0,44.19,16,44.55,44.55,0,0,0,16-6.67,44.11,44.11,0,0,0-1,4.72,45,45,0,0,0,79.6-20.8A45.06,45.06,0,0,0,765,132.29Zm-147,2.83c.45.57.92,1.11,1.4,1.65h0C618.94,136.23,618.47,135.69,618,135.12Zm1.64,1.92,0,0,0,0Zm1.69,1.79h0c.49.5,1,1,1.51,1.46h0C622.35,139.8,621.84,139.32,621.35,138.83Zm1.65,1.56h0c.5.46,1,.9,1.53,1.33h0C624,141.29,623.5,140.85,623,140.39Zm2.39,2c.33.27.67.53,1,.79h0Zm1.33,1h0c.56.4,1.12.8,1.7,1.17h0C627.84,144.21,627.28,143.82,626.72,143.42Zm2.86,1.9.79.49h0Zm2.25,1.31c.18.09.35.2.54.29h0C632.18,146.83,632,146.72,631.83,146.63Zm.89.48.5.24-.5-.24Zm2.17,1,.29.12-.29-.12Zm4.34,1.68c.58.19,1.17.37,1.76.53-.59-.16-1.18-.34-1.76-.53Zm2.36.7h0q1,.27,2,.51h0Q642.61,150.8,641.59,150.53Zm4.19.92-.86-.17.86.17Z"/><ellipse class="cls-1" cx="810.6" cy="88.42" rx="6.62" ry="6.64" transform="translate(-1.28 164.2) rotate(-11.56)"/><ellipse class="cls-1" cx="806.81" cy="77.85" rx="6.62" ry="6.64" transform="translate(0.76 163.23) rotate(-11.56)"/><ellipse class="cls-1" cx="804.88" cy="67.11" rx="6.62" ry="6.64" transform="translate(2.87 162.62) rotate(-11.56)"/><ellipse class="cls-1" cx="803.63" cy="59.66" rx="6.62" ry="6.64" transform="translate(4.34 162.22) rotate(-11.56)"/><ellipse class="cls-1" cx="802.38" cy="50.96" rx="6.62" ry="6.64" transform="translate(6.06 161.8) rotate(-11.56)"/><ellipse class="cls-1" cx="804.11" cy="39.97" rx="11.83" ry="11.89" transform="translate(8.3 161.92) rotate(-11.56)"/><ellipse class="cls-1" cx="870" cy="106.35" rx="6.64" ry="6.62" transform="translate(402.68 847.85) rotate(-64.75)"/><ellipse class="cls-1" cx="873.29" cy="95.61" rx="6.64" ry="6.62" transform="translate(414.28 844.67) rotate(-64.75)"/><ellipse class="cls-1" cx="878.19" cy="85.85" rx="6.64" ry="6.62" transform="translate(425.92 843.5) rotate(-64.75)"/><ellipse class="cls-1" cx="881.66" cy="79.14" rx="6.64" ry="6.62" transform="translate(433.98 842.79) rotate(-64.75)"/><ellipse class="cls-1" cx="885.87" cy="71.42" rx="6.64" ry="6.62" transform="translate(443.37 842.17) rotate(-64.75)"/><ellipse class="cls-1" cx="893.83" cy="63.66" rx="11.89" ry="11.83" transform="translate(454.95 844.93) rotate(-64.75)"/><path class="cls-4" d="M797.44,96.69a56.39,56.39,0,1,0,88.07,34.48c0-.25-.12-.5-.18-.76-6.28,4.57-16.91-11.46-25-9.8C830.16,126.77,818.54,115.87,797.44,96.69Z"/><path class="cls-1" d="M819.14,87.12a55.82,55.82,0,0,0-21.7,9.57,56.13,56.13,0,0,0,87.89,33.72A56.31,56.31,0,0,0,819.14,87.12Z"/><polygon class="cls-5" points="854.24 160.04 851.26 159.67 852.95 145.85 845.88 151.03 844.27 143.15 839.32 147.37 835.59 139.61 832.81 155.38 829.85 154.86 834.25 129.9 840.34 142.56 846.2 137.57 847.89 145.84 856.77 139.34 854.24 160.04"/><path class="cls-6" d="M864.55,135.25,881,137s1.07,8.05-7.79,6.73C863.25,142.25,864.55,135.25,864.55,135.25Z"/><path class="cls-6" d="M807.77,117.18l19.07,7s-1.86,8.06-12,3.9C803.43,123.46,807.77,117.18,807.77,117.18Z"/><ellipse class="cls-7" cx="857.89" cy="101.58" rx="6.37" ry="14.28" transform="translate(253.51 718.85) rotate(-52.36)"/><path class="cls-1" d="M1525.75,149.35c-17.11,3.5-23.91,31.7-34.17,18.91a45.12,45.12,0,1,0,89.23,13.24,44.7,44.7,0,0,1-27.47-5C1548.27,180.23,1532.32,148,1525.75,149.35Z"/><path class="cls-1" d="M1523,139.67c-2.43,14.59-19.34,4.62-34.64,7.75-13.93,2.84-21.82,19.6-30.17,9.19A36.71,36.71,0,1,0,1523,139.67Z"/><path class="cls-1" d="M1716.35,134.25c-3,17.92-34-9.11-52.79-5.27-17.11,3.5-16.55,38.86-26.81,26.07a45.09,45.09,0,1,0,79.6-20.8Z"/><path class="cls-2" d="M1628.48,151.16c-.69.14-1.38.26-2.06.36C1627.1,151.42,1627.79,151.3,1628.48,151.16Z"/><path class="cls-2" d="M1626.08,151.57c-.67.1-1.34.19-2,.26C1624.74,151.76,1625.41,151.67,1626.08,151.57Z"/><path class="cls-3" d="M1667.43,119.45a46.78,46.78,0,0,0-3.55-5.13,44.14,44.14,0,0,1-1.84,7.24A46,46,0,0,1,1667.43,119.45Z"/><path class="cls-3" d="M1603.13,149c.66.26,1.33.5,2,.73C1604.46,149.48,1603.79,149.24,1603.13,149Z"/><path class="cls-3" d="M1589.26,140.39c.5.46,1,.9,1.53,1.33C1590.27,141.29,1589.76,140.85,1589.26,140.39Z"/><path class="cls-3" d="M1605.49,149.83c.65.21,1.3.41,2,.59C1606.79,150.24,1606.14,150,1605.49,149.83Z"/><path class="cls-3" d="M1607.85,150.53c.68.18,1.35.35,2,.51C1609.2,150.88,1608.53,150.71,1607.85,150.53Z"/><path class="cls-3" d="M1596.8,145.92c.6.35,1.21.68,1.82,1C1598,146.6,1597.4,146.27,1596.8,145.92Z"/><path class="cls-3" d="M1599,147.11c.61.31,1.22.61,1.84.89C1600.2,147.72,1599.59,147.42,1599,147.11Z"/><path class="cls-3" d="M1601.15,148.15c.63.28,1.27.56,1.92.81C1602.42,148.71,1601.78,148.43,1601.15,148.15Z"/><path class="cls-3" d="M1587.61,138.83c.49.49,1,1,1.51,1.44C1588.61,139.8,1588.1,139.32,1587.61,138.83Z"/><path class="cls-3" d="M1591,141.91c.54.44,1.08.86,1.63,1.27C1592.1,142.77,1591.56,142.35,1591,141.91Z"/><path class="cls-3" d="M1585.92,137c.45.52.93,1,1.41,1.5C1586.85,138.05,1586.37,137.56,1585.92,137Z"/><path class="cls-3" d="M1614.91,151.83c.68.07,1.37.13,2.06.17C1616.28,152,1615.59,151.9,1614.91,151.83Z"/><path class="cls-3" d="M1594.91,144.75c.56.36,1.13.72,1.71,1.06C1596,145.47,1595.47,145.11,1594.91,144.75Z"/><path class="cls-3" d="M1594.67,144.59c-.57-.38-1.13-.77-1.69-1.17C1593.54,143.82,1594.1,144.21,1594.67,144.59Z"/><path class="cls-3" d="M1610.06,151.07c.66.14,1.32.27,2,.38C1611.38,151.34,1610.72,151.21,1610.06,151.07Z"/><path class="cls-3" d="M1612.41,151.51c.67.11,1.35.2,2,.27C1613.76,151.71,1613.08,151.62,1612.41,151.51Z"/><path class="cls-3" d="M1584.28,135.12c.45.57.92,1.11,1.39,1.65C1585.2,136.23,1584.73,135.69,1584.28,135.12Z"/><path class="cls-1" d="M1592.65,143.18l.33.24Z"/><path class="cls-1" d="M1585.67,136.77l.25.27Z"/><path class="cls-1" d="M1587.33,138.54l.28.29Z"/><path class="cls-1" d="M1589.12,140.27l.14.12Z"/><path class="cls-1" d="M1590.79,141.72l.23.19Z"/><path class="cls-1" d="M1614.44,151.78l.47.05Z"/><path class="cls-1" d="M1609.89,151l.17,0Z"/><path class="cls-1" d="M1612,151.45l.37.06Z"/><path class="cls-1" d="M1594.91,144.75l-.24-.16Z"/><path class="cls-1" d="M1607.45,150.42l.4.11Z"/><path class="cls-1" d="M1636.75,155.05a44.14,44.14,0,0,1,1.84-7.24,45.12,45.12,0,0,1-10.11,3.35c-.69.14-1.38.26-2.06.36l-.34,0c-.67.1-1.34.19-2,.26h0a44.47,44.47,0,0,1-7.1.17h.11a45.23,45.23,0,0,1-19.27,23.52,44.94,44.94,0,0,0,66-4.28A45.28,45.28,0,0,1,1636.75,155.05Z"/><path class="cls-1" d="M1603.07,149l.06,0Z"/><path class="cls-1" d="M1598.62,146.92l.36.19Z"/><path class="cls-1" d="M1605.13,149.71l.36.12Z"/><path class="cls-1" d="M1600.82,148l.33.15Z"/><path class="cls-1" d="M1596.62,145.81l.18.11Z"/><path class="cls-3" d="M1626.42,151.52l-.34,0Z"/><polygon class="cls-3" points="1624.07 151.83 1624.07 151.83 1624.07 151.83 1624.07 151.83"/><path class="cls-1" d="M1577.12,138.84c-17.11,3.5-27.34,38.92-37.6,26.14a45.1,45.1,0,1,0,84.55-13.15,45.51,45.51,0,0,1-7,.18C1611.93,166.36,1593.09,135.58,1577.12,138.84Z"/><path class="cls-3" d="M1617.08,152a45.51,45.51,0,0,0,7-.18,45.61,45.61,0,0,0-5-7.66A45.15,45.15,0,0,1,1617.08,152Z"/><path class="cls-1" d="M1775.48,148.33c-3,17.92-31.28,1.38-50.07,5.22-17.11,3.5-19.28,28.37-29.54,15.58a45.09,45.09,0,1,0,79.61-20.8Z"/><path class="cls-3" d="M1731.28,132.29a44.86,44.86,0,0,0-16,6.67,46.5,46.5,0,0,0,1-4.71,44.93,44.93,0,0,0-48.92-14.8,46,46,0,0,0-5.39,2.11,44.14,44.14,0,0,0,1.84-7.24,45,45,0,0,0-77.55,13,45.09,45.09,0,0,0-11.4.85,44.6,44.6,0,0,0-17.57,7.79,44.82,44.82,0,0,0-39.55-1.57,36.62,36.62,0,0,0-59.58,22.25A36.71,36.71,0,0,0,1493,169.9a45,45,0,0,0,60.37,6.6,44.7,44.7,0,0,0,27.47,5c1-.13,1.93-.29,2.91-.49a44.69,44.69,0,0,0,14.09-5.48A45.23,45.23,0,0,0,1617.08,152H1617l-.46,0,.57,0a45.15,45.15,0,0,0,2-7.84,45.61,45.61,0,0,1,5,7.66h0c.67-.07,1.34-.16,2-.26l.34,0c.68-.1,1.37-.22,2.06-.36a45.12,45.12,0,0,0,10.11-3.35,44.14,44.14,0,0,0-1.84,7.24,45,45,0,0,0,44.19,16,44.63,44.63,0,0,0,16-6.67,46.72,46.72,0,0,0-1.06,4.72,45,45,0,0,0,79.61-20.8A45.06,45.06,0,0,0,1731.28,132.29Zm-147,2.83c.45.57.92,1.11,1.39,1.65h0C1585.2,136.23,1584.73,135.69,1584.28,135.12Zm1.64,1.92,0,0,0,0Zm1.69,1.79h0c.49.5,1,1,1.51,1.46h0C1588.61,139.8,1588.1,139.32,1587.61,138.83Zm1.65,1.56h0c.5.46,1,.9,1.53,1.33h0C1590.27,141.29,1589.76,140.85,1589.26,140.39Zm2.39,2c.33.27.66.53,1,.79h0Zm1.33,1h0c.56.4,1.12.8,1.69,1.17h0C1594.1,144.21,1593.54,143.82,1593,143.42Zm2.86,1.9.79.49h0Zm2.25,1.31.53.29h0Zm.89.48.5.24-.5-.24Zm2.17,1,.29.12-.29-.12Zm4.34,1.68c.58.19,1.17.37,1.76.53-.59-.16-1.18-.34-1.76-.53Zm2.36.7h0q1,.27,2,.51h0C1609.2,150.88,1608.53,150.71,1607.85,150.53Zm4.19.92-.86-.17.86.17Z"/><ellipse class="cls-1" cx="1776.86" cy="88.42" rx="6.62" ry="6.64" transform="translate(18.31 357.8) rotate(-11.56)"/><ellipse class="cls-1" cx="1773.07" cy="77.85" rx="6.62" ry="6.64" transform="translate(20.35 356.82) rotate(-11.56)"/><ellipse class="cls-1" cx="1771.14" cy="67.11" rx="6.62" ry="6.64" transform="translate(22.47 356.22) rotate(-11.56)"/><ellipse class="cls-1" cx="1769.89" cy="59.66" rx="6.62" ry="6.64" transform="translate(23.94 355.82) rotate(-11.56)"/><ellipse class="cls-1" cx="1768.64" cy="50.96" rx="6.62" ry="6.64" transform="translate(25.65 355.39) rotate(-11.56)"/><ellipse class="cls-1" cx="1770.37" cy="39.97" rx="11.83" ry="11.89" transform="translate(27.89 355.51) rotate(-11.56)"/><ellipse class="cls-1" cx="1836.26" cy="106.35" rx="6.64" ry="6.62" transform="translate(956.75 1721.78) rotate(-64.75)"/><ellipse class="cls-1" cx="1839.55" cy="95.61" rx="6.64" ry="6.62" transform="translate(968.34 1718.6) rotate(-64.75)"/><ellipse class="cls-1" cx="1844.45" cy="85.85" rx="6.64" ry="6.62" transform="translate(979.98 1717.43) rotate(-64.75)"/><ellipse class="cls-1" cx="1847.91" cy="79.14" rx="6.64" ry="6.62" transform="translate(988.04 1716.72) rotate(-64.75)"/><ellipse class="cls-1" cx="1852.13" cy="71.42" rx="6.64" ry="6.62" transform="translate(997.43 1716.1) rotate(-64.75)"/><ellipse class="cls-1" cx="1860.09" cy="63.66" rx="11.89" ry="11.83" transform="translate(1009.02 1718.86) rotate(-64.75)"/><path class="cls-4" d="M1763.7,96.69a56.39,56.39,0,1,0,88.07,34.48l-.18-.76c-6.28,4.57-16.92-11.46-25-9.8C1796.42,126.77,1784.8,115.87,1763.7,96.69Z"/><path class="cls-1" d="M1785.39,87.12a55.84,55.84,0,0,0-21.69,9.57,56.13,56.13,0,0,0,87.89,33.72A56.32,56.32,0,0,0,1785.39,87.12Z"/><polygon class="cls-5" points="1820.49 160.04 1817.52 159.67 1819.21 145.85 1812.14 151.03 1810.53 143.15 1805.58 147.37 1801.85 139.61 1799.06 155.38 1796.11 154.86 1800.51 129.9 1806.6 142.56 1812.45 137.57 1814.14 145.84 1823.03 139.34 1820.49 160.04"/><path class="cls-6" d="M1830.81,135.25l16.41,1.75s1.07,8.05-7.79,6.73C1829.51,142.25,1830.81,135.25,1830.81,135.25Z"/><path class="cls-6" d="M1774,117.18l19.07,7s-1.87,8.06-12,3.9C1769.69,123.46,1774,117.18,1774,117.18Z"/><ellipse class="cls-7" cx="1824.14" cy="101.58" rx="6.37" ry="14.28" transform="translate(629.65 1483.97) rotate(-52.36)"/><path class="cls-1" d="M1042.62,149.35c-17.1,3.5-23.91,31.7-34.17,18.91a45.12,45.12,0,1,0,89.23,13.24,44.7,44.7,0,0,1-27.47-5C1065.14,180.23,1049.19,148,1042.62,149.35Z"/><path class="cls-1" d="M1039.91,139.67c-2.43,14.59-19.34,4.62-34.64,7.75-13.93,2.84-21.82,19.6-30.17,9.19a36.71,36.71,0,1,0,64.81-16.94Z"/><path class="cls-1" d="M1233.22,134.25c-3,17.92-34-9.11-52.79-5.27-17.11,3.5-16.55,38.86-26.81,26.07a45.09,45.09,0,1,0,79.6-20.8Z"/><path class="cls-2" d="M1145.35,151.16c-.69.14-1.38.26-2.06.36C1144,151.42,1144.66,151.3,1145.35,151.16Z"/><path class="cls-2" d="M1143,151.57c-.67.1-1.34.19-2,.26C1141.61,151.76,1142.28,151.67,1143,151.57Z"/><path class="cls-3" d="M1184.3,119.45a45.44,45.44,0,0,0-3.55-5.13,44.14,44.14,0,0,1-1.84,7.24A46,46,0,0,1,1184.3,119.45Z"/><path class="cls-3" d="M1120,149c.66.26,1.33.5,2,.73C1121.33,149.48,1120.66,149.24,1120,149Z"/><path class="cls-3" d="M1106.13,140.39c.5.46,1,.9,1.53,1.33C1107.14,141.29,1106.63,140.85,1106.13,140.39Z"/><path class="cls-3" d="M1122.36,149.83c.65.21,1.3.41,2,.59C1123.66,150.24,1123,150,1122.36,149.83Z"/><path class="cls-3" d="M1124.72,150.53q1,.27,2,.51Q1125.74,150.8,1124.72,150.53Z"/><path class="cls-3" d="M1113.67,145.92c.6.35,1.21.68,1.83,1C1114.88,146.6,1114.27,146.27,1113.67,145.92Z"/><path class="cls-3" d="M1115.85,147.11c.61.31,1.22.61,1.84.89C1117.07,147.72,1116.46,147.42,1115.85,147.11Z"/><path class="cls-3" d="M1118,148.15c.63.28,1.27.56,1.92.81C1119.29,148.71,1118.65,148.43,1118,148.15Z"/><path class="cls-3" d="M1104.48,138.83c.49.49,1,1,1.51,1.44C1105.48,139.8,1105,139.32,1104.48,138.83Z"/><path class="cls-3" d="M1107.9,141.91c.53.44,1.07.86,1.62,1.27C1109,142.77,1108.43,142.35,1107.9,141.91Z"/><path class="cls-3" d="M1102.79,137c.46.52.93,1,1.41,1.5C1103.72,138.05,1103.25,137.56,1102.79,137Z"/><path class="cls-3" d="M1131.78,151.83c.69.07,1.37.13,2.06.17C1133.15,152,1132.47,151.9,1131.78,151.83Z"/><path class="cls-3" d="M1111.78,144.75c.56.36,1.13.72,1.71,1.06C1112.91,145.47,1112.34,145.11,1111.78,144.75Z"/><path class="cls-3" d="M1111.55,144.59c-.58-.38-1.14-.77-1.7-1.17C1110.41,143.82,1111,144.21,1111.55,144.59Z"/><path class="cls-3" d="M1126.94,151.07c.65.14,1.31.27,2,.38C1128.25,151.34,1127.59,151.21,1126.94,151.07Z"/><path class="cls-3" d="M1129.28,151.51c.67.11,1.35.2,2,.27C1130.63,151.71,1130,151.62,1129.28,151.51Z"/><path class="cls-3" d="M1101.15,135.12c.45.57.92,1.11,1.39,1.65C1102.07,136.23,1101.6,135.69,1101.15,135.12Z"/><path class="cls-1" d="M1109.52,143.18l.33.24Z"/><path class="cls-1" d="M1102.54,136.77l.25.27Z"/><path class="cls-1" d="M1104.2,138.54l.28.29Z"/><path class="cls-1" d="M1106,140.27l.14.12Z"/><path class="cls-1" d="M1107.66,141.72l.24.19Z"/><path class="cls-1" d="M1131.31,151.78l.47.05Z"/><path class="cls-1" d="M1126.76,151l.18,0Z"/><path class="cls-1" d="M1128.91,151.45l.37.06Z"/><path class="cls-1" d="M1111.78,144.75a1.88,1.88,0,0,1-.23-.16A1.88,1.88,0,0,0,1111.78,144.75Z"/><path class="cls-1" d="M1124.32,150.42l.4.11Z"/><path class="cls-1" d="M1153.62,155.05a44.14,44.14,0,0,1,1.84-7.24,45.12,45.12,0,0,1-10.11,3.35c-.69.14-1.38.26-2.06.36l-.34,0c-.67.1-1.34.19-2,.26h0a44.47,44.47,0,0,1-7.1.17h.11a45.23,45.23,0,0,1-19.27,23.52,44.94,44.94,0,0,0,66-4.28A45.28,45.28,0,0,1,1153.62,155.05Z"/><path class="cls-1" d="M1119.94,149l.06,0Z"/><path class="cls-1" d="M1115.5,146.92l.35.19Z"/><path class="cls-1" d="M1122,149.71l.36.12Z"/><path class="cls-1" d="M1117.69,148l.33.15Z"/><path class="cls-1" d="M1113.49,145.81l.18.11Z"/><path class="cls-3" d="M1143.29,151.52l-.34,0Z"/><polygon class="cls-3" points="1140.94 151.83 1140.94 151.83 1140.94 151.83 1140.94 151.83"/><path class="cls-1" d="M1094,138.84c-17.11,3.5-27.34,38.92-37.6,26.14a45.1,45.1,0,1,0,84.55-13.15,45.51,45.51,0,0,1-7,.18C1128.8,166.36,1110,135.58,1094,138.84Z"/><path class="cls-3" d="M1134,152a45.51,45.51,0,0,0,7-.18,45.61,45.61,0,0,0-5-7.66A45.15,45.15,0,0,1,1134,152Z"/><path class="cls-1" d="M1292.35,148.33c-3,17.92-31.28,1.38-50.07,5.22-17.11,3.5-19.27,28.37-29.53,15.58a45.08,45.08,0,1,0,79.6-20.8Z"/><path class="cls-3" d="M1248.15,132.29a44.94,44.94,0,0,0-16,6.67,46.5,46.5,0,0,0,1-4.71,45,45,0,0,0-44.19-16,45.76,45.76,0,0,0-10.12,3.35,44.14,44.14,0,0,0,1.84-7.24,45,45,0,0,0-77.55,13,45.09,45.09,0,0,0-11.4.85,44.6,44.6,0,0,0-17.57,7.79,44.82,44.82,0,0,0-39.55-1.57,36.62,36.62,0,0,0-59.58,22.25,36.71,36.71,0,0,0,34.74,13.29,45,45,0,0,0,60.37,6.6,44.7,44.7,0,0,0,27.47,5c1-.13,1.94-.29,2.91-.49a44.69,44.69,0,0,0,14.09-5.48A45.23,45.23,0,0,0,1134,152h-.11l-.46,0,.57,0a45.15,45.15,0,0,0,2-7.84,45.61,45.61,0,0,1,5,7.66h0c.67-.07,1.34-.16,2-.26l.34,0c.68-.1,1.37-.22,2.06-.36a45.12,45.12,0,0,0,10.11-3.35,44.14,44.14,0,0,0-1.84,7.24,45,45,0,0,0,44.19,16,44.63,44.63,0,0,0,16-6.67,44.11,44.11,0,0,0-1,4.72,45,45,0,0,0,79.6-20.8A45.06,45.06,0,0,0,1248.15,132.29Zm-147,2.83c.45.57.92,1.11,1.39,1.65h0C1102.07,136.23,1101.6,135.69,1101.15,135.12Zm1.64,1.92,0,0,0,0Zm1.69,1.79h0c.49.5,1,1,1.51,1.46h0C1105.48,139.8,1105,139.32,1104.48,138.83Zm1.65,1.56h0c.5.46,1,.9,1.53,1.33h0C1107.14,141.29,1106.63,140.85,1106.13,140.39Zm2.39,2c.33.27.66.53,1,.79h0Zm1.33,1h0c.56.4,1.12.8,1.7,1.17h0C1111,144.21,1110.41,143.82,1109.85,143.42Zm2.86,1.9.79.49h0Zm2.25,1.31c.18.09.35.2.54.29h0C1115.31,146.83,1115.14,146.72,1115,146.63Zm.89.48.5.24-.5-.24Zm2.17,1,.29.12-.29-.12Zm4.34,1.68c.58.19,1.17.37,1.76.53-.59-.16-1.18-.34-1.76-.53Zm2.36.7h0q1,.27,2,.51h0Q1125.74,150.8,1124.72,150.53Zm4.19.92-.86-.17.86.17Z"/><ellipse class="cls-1" cx="1293.73" cy="88.42" rx="6.62" ry="6.64" transform="translate(8.52 261) rotate(-11.56)"/><ellipse class="cls-1" cx="1289.94" cy="77.85" rx="6.62" ry="6.64" transform="translate(10.56 260.03) rotate(-11.56)"/><ellipse class="cls-1" cx="1288.01" cy="67.11" rx="6.62" ry="6.64" transform="translate(12.67 259.42) rotate(-11.56)"/><ellipse class="cls-1" cx="1286.76" cy="59.66" rx="6.62" ry="6.64" transform="translate(14.14 259.02) rotate(-11.56)"/><ellipse class="cls-1" cx="1285.51" cy="50.96" rx="6.62" ry="6.64" transform="translate(15.86 258.59) rotate(-11.56)"/><ellipse class="cls-1" cx="1287.24" cy="39.97" rx="11.83" ry="11.89" transform="translate(18.09 258.72) rotate(-11.56)"/><ellipse class="cls-1" cx="1353.13" cy="106.35" rx="6.64" ry="6.62" transform="translate(679.71 1284.81) rotate(-64.75)"/><ellipse class="cls-1" cx="1356.42" cy="95.61" rx="6.64" ry="6.62" transform="translate(691.31 1281.64) rotate(-64.75)"/><ellipse class="cls-1" cx="1361.32" cy="85.85" rx="6.64" ry="6.62" transform="translate(702.95 1280.47) rotate(-64.75)"/><ellipse class="cls-1" cx="1364.79" cy="79.14" rx="6.64" ry="6.62" transform="translate(711.01 1279.75) rotate(-64.75)"/><ellipse class="cls-1" cx="1369" cy="71.42" rx="6.64" ry="6.62" transform="translate(720.4 1279.14) rotate(-64.75)"/><ellipse class="cls-1" cx="1376.96" cy="63.66" rx="11.89" ry="11.83" transform="translate(731.98 1281.89) rotate(-64.75)"/><path class="cls-4" d="M1280.57,96.69a56.39,56.39,0,1,0,88.07,34.48l-.18-.76c-6.28,4.57-16.91-11.46-25-9.8C1313.29,126.77,1301.67,115.87,1280.57,96.69Z"/><path class="cls-1" d="M1302.27,87.12a55.82,55.82,0,0,0-21.7,9.57,56.13,56.13,0,0,0,87.89,33.72A56.31,56.31,0,0,0,1302.27,87.12Z"/><polygon class="cls-5" points="1337.37 160.04 1334.39 159.67 1336.08 145.85 1329.01 151.03 1327.4 143.15 1322.45 147.38 1318.72 139.61 1315.93 155.38 1312.98 154.86 1317.38 129.91 1323.47 142.56 1329.32 137.57 1331.02 145.84 1339.9 139.34 1337.37 160.04"/><path class="cls-6" d="M1346.44,139.37l16.41,1.75s2.31,3.93-6.55,2.61C1346.38,142.25,1346.44,139.37,1346.44,139.37Z"/><path class="cls-6" d="M1289.94,120.7l19.07,7s-.91,4.54-11.07.38C1286.56,123.46,1289.94,120.7,1289.94,120.7Z"/><ellipse class="cls-7" cx="1341.01" cy="101.58" rx="6.37" ry="14.28" transform="translate(441.58 1101.41) rotate(-52.36)"/></g></svg>