<?xml version="1.0" encoding="utf-8"?>
<!-- Generator: Adobe Illustrator 24.1.3, SVG Export Plug-In . SVG Version: 6.00 Build 0)  -->
<svg version="1.1" id="Calque_1" xmlns="http://www.w3.org/2000/svg" xmlns:xlink="http://www.w3.org/1999/xlink" x="0px" y="0px"
	 viewBox="0 0 369 144" style="enable-background:new 0 0 369 144;" xml:space="preserve">
<style type="text/css">
	.st0{fill:#FFFFFF;}
</style>
<path class="st0" d="M171.2,100.3c-1.1-0.4-2.1-0.1-2.5,1c-1.3,3.5-5.1,9.3-8.2,12.2c-0.9-0.3-0.7-1-0.4-1.6
	c2.4-5.9,2.4-5.9-4.2-5.5C169.5,81.5,181.1,56,191.3,29c-3.6,0.1-5.9,1.6-8,2.9c-5,3-10.3,5.2-15.9,6.8c-0.9,0.3-1,1.1-1.2,2
	c-1.2,5.2-2.6,10.3-3.6,15.5c-1.7,9.5-20.2,66.3-24.5,74.5c-0.1,0.1-0.3,0.2-1.2,0.7c0.4-6.5,3.9-11.8,4.3-19
	c-4.8,7.3-3.3,16.6-11.1,22.1c0-6.8,2.1-11.9,3.7-17.1c4.3-14.1,8.6-28.2,12.8-42.4c1.7-5.9,1-6.3-4.8-5.2
	c-7,1.4-12.3,4.5-16.4,10.7c-7,10.7-15.1,20.7-22.3,31.2c-1.7,2.5-4.1,2-6,3.2c-1.3,0.9-1.4-0.7-1.7-1.5c-1-3.1-0.1-5.6,1.7-8.3
	c6-8.7,11.6-17.6,17.5-26.6c-7.3-2.5-11.3,0.3-14.4,5.9c-2.3,4.1-5.8,7.3-9.5,10.1c-10.9,8.1-21.3,17.1-33.6,22.8
	c-7.7,3.6-16.2,5.8-24.3,8.6c-7.3,2.5-14.4,4.8-17.7,12.7c-0.4,1.1-1.2,2.5-2.9,2.1c0.1-0.8,0-1.7,0.3-2.4c3.1-7.8,3.1-7.8-5.2-7.6
	c0-0.7,0-1.3,0-2c3.3-2.5,4.5-6.5,6.3-9.9c14.1-26.4,26-53.7,37.3-81.3c1.1-2.7,1.7-5.6,2.5-8.5c0.2-0.2,0.5-0.5,0.5-0.6
	c-0.4-0.5-0.7-0.2-1,0.1c-4,0.4-7.7,2.1-10.4,4.5c-5.1,4.6-12.6,4-17.4,8.9c-1,1.1-1.5,0.1-2.1-0.8c-1-1.5-0.6-2.5,0.8-3.2
	c4.5-2.2,8.1-5.7,12.2-8.5c2.3-1.6,3-2.9-1.5-2.8c16.4-11.8,34.1-18,53.4-18.5c8-0.2,15.9,1.4,22.5,6.6c-0.2,0.3-0.5,0.6-0.7,0.9
	c-2.2-0.9-4.4-0.8-7.8-0.2c3.3,1.3,5.4,2.3,7.5,3c2.5,0.8,1.7-0.8,1.4-2.1c0.3-0.3,0.5-0.5,0.8-0.8c8.3,5.8,9,20.7,1.1,28.4
	c-4.3,4.2-8.7,8.2-13.8,11.5c-2.8,1.8-3.6,3.8-0.6,6.2c0.9,0.7,1.6,1.7,2.4,2.6c5.6,6.6,11.2,6.1,19.2,2.5
	c11.3-5,15.8-15.7,23.2-23.9c8.6-9.5,16-20,23.8-30.6c7.9,7.7,0.1,15.5,0.9,23c3.9-0.2,8.9-4.3,10.7-7.9c1.7-3.5,5.6-5.2,8.9-6.5
	c11.1-4.3,22.2-9,34.7-6.9c4.9,0.8,9.3,2.4,13.3,5.2c6.2,4.3,6.5,15.8,0.6,21.6c-3,2.9-6.2,5.6-9.6,8c-2.7,1.9-3,3.2-0.9,5.8
	c5.9,7.4,5.9,12-0.7,19c-9.3,9.9-20.3,17.9-32.6,23.2c-6.3,2.7-12.9,6.2-20.2,6.3c0-0.4,0-0.7,0-1.1c0.3,0,0.6-0.1,0.9-0.2
	c1.5-0.2,2.9-0.5,3.9-2.4C174.7,99.7,172.9,100,171.2,100.3z M54.8,112.5c-2.9,1.4-6.7,0.8-9.4,4.1c4.2,0.2,7.3-1.1,9.8-3.7
	c0.4-0.3,0.8-0.6,1.1-0.9c4.5-1.9,9.4-3.3,12.8-7.1c0.2-0.2,0.7-0.6,0.7-0.6c-0.4-0.6-0.8-0.2-1.1,0.2c-4.7,1.7-8.8,4.4-12.8,7.2
	C55.6,112,55.2,112.3,54.8,112.5z M28.5,115.5c1.7-0.1,2.2,0,2.6-0.2c1.6-0.5,3.2-1,4.7-1.7c15.3-6.9,30-14.9,43-25.7
	c3.5-2.9,6.8-5.7,8.6-10c1.6-3.9,0.4-6-3.4-7.1c-4.8-1.4-9.5-1.3-14.2,0.4c-6.6,2.3-13,5-20,5.9c-1.4,0.2-2.5,0.8-3.2,2.1
	C40.7,91,34.8,102.9,28.5,115.5z M78,21.2c-2.4,0.9-5.5,0.5-6.8,3.6c-4.8,11.3-10.5,22.1-14.5,33.8c-0.9,2.7,0,4.4,2.7,3.1
	c8.3-4.2,18-5.3,25.3-11.5c5.8-4.9,12.4-9.1,15.5-16.4c0.4-0.8,0.7-1.1,1.7-1.4c2.7-0.7,2.8-3.1,2.1-5.1c-0.5-1.4-1.1-4.4-4-2.1
	c-0.7,0.6-0.8,0-1-0.3c-3-4.3-7.5-3.7-11.8-3.5C84.2,21.4,81.1,23,78,21.2z M172.3,94.7c3.7-0.1,5.7-1.3,7.8-2.3
	c11.3-5.3,22.2-11.3,31.7-19.5c3.1-2.7,6-5.6,5.6-9.8c-0.2-2.5-7.2-3.7-11.9-2.5c-0.2,0-0.3,0.1-0.5,0.2c-5.5,1.9-10.9,4-16.6,5.1
	c-1.3,0.2-2.1,0.8-2.7,1.9C181.4,76.5,177.1,85.2,172.3,94.7z M230,29.3c-0.3-2.4-1.6-3.1-3.1-4.1c-5.9-3.8-12.2-1.1-18.3-1.7
	c-1.7-0.2-3.4,1.1-4.2,3.1c-3.2,8.2-7.8,15.7-10.4,24.2c-0.3,0.9-1.2,1.8-0.3,2.7c1,1,2.2,0.3,3.2-0.1c8.8-3.7,18.2-6.5,24.8-14.1
	C224.8,36,227.5,32.5,230,29.3z M154.9,44.8c-0.4-0.3-0.8-0.5-1.2-0.8c-2.8,3.8-5.7,7.6-8.5,11.4c-0.8,1.1-2.4,2.6,0.1,3.5
	c1.5,0.6,2.9,1.8,4.7-0.5C153.3,54.3,153.6,49.5,154.9,44.8z M25.5,126.8c4.1-1.7,8.2-3.4,12.2-5.3c0.7-0.3,2.2-0.3,1.9-1.7
	c-0.2-0.7-0.4-1.9-1.4-1.8c-1.1,0.1-2.1,0.7-3.2,1.1c1.4,3-1.5,2.1-2.5,2.6c-2.1,1-4.4,1.1-6.7,1.1c-1.4,0-2.5,1.1-2.4,2.6
	C23.4,126.7,24.5,126.8,25.5,126.8z M179.6,98.2c0-0.1-0.1-0.1-0.1-0.2c0,0.1-0.1,0.3-0.1,0.4c0,0.1,0.1,0.1,0.2,0.2
	C179.6,98.5,179.6,98.3,179.6,98.2z"/>
<path class="st0" d="M323,4.1c0.3,1.1-0.3,3.2,1.7,2.9c4.1-0.7,3.9,2.6,5,4.8c0.2,0.4,0.4,1.3,0.2,1.4c-5.6,3.3-1.1,9.3-3.8,13.7
	c-2.7,4.4-3.7,9.9-5.6,14.9c-1.9,5.1-3.6,10.4-6,15.3c-3.7,7.6-7.5,15-9.3,23.4c-1.1,5.1-1.7,5.2,3.9,4.5c8.2-1,16.6-1.2,24.8-2.7
	c6.6-1.2,13.3,0.7,20.1-0.2c2.5-0.3,5,1.9,7.8,2.5c1.9,0.4,2,2.3-0.1,3.1c-2.4,1-4.8,1.9-7.3,2.3c-8.8,1.5-17.6,3-26.5,4.1
	c-5.2,0.6-10.1-2.5-15.5-1.3c-4.3,1-8.9,0.7-13.3,1.2c-4.3,0.5-7.9,0.6-4.9-5.9c-4.5,1.8-9.1,1.7-12.2,3.4c-9.6,5.1-20.1,3.1-30,5.1
	c-3.7,0.7-7.6,1.2-11.4,1.2c-3.9,0-6.7,1.1-8,6c-0.4-1.8-0.5-3-0.8-3.1c-2.2-0.6-1.2,2.4-3.3,2.7c0-2.3-0.4-4.6-3.8-4.3
	c-1.7,0.2-3.3-0.5-2.9-3c0.3-2-3.3-4.7,1.1-5.8c1.7-0.5,2.3-1.8,2.8-3.2c7.7-19.8,17.1-38.9,26.3-58c0.9-1.8,2.5-3.7,0.3-5.8
	c-1.1-1,0.1-1.5,0.7-1.7c1.8-0.7,2.8-2.2,4-3.6c2.6-3,2.6-2.9-1-4.1c6.6-4.2,14.4-3.1,21.6-4.5c12.7-2.5,25.6-3,38.5-4.1
	c0.4,0,0.7-0.5,1.1-0.8C319,4.1,321,4.1,323,4.1z M293.8,86.2c0.3,0.1,0.5,0.1,0.8,0.2c-0.1-0.3-0.1-0.6-0.2-0.8
	c1-8.9,5.4-16.9,7.9-25.3c4.6-15.1,12-29.3,16.6-44.5c0.6-1.8,2-2.8,3.5-4.6c-4.6-0.5-7.4,2.1-10.6,3.2c-9.4,3.2-19.1,5.4-29.2,5.8
	c-4.3,0.2-9.5,1.1-12.4,4.3c-3.7,4.2-7.9,8.2-10.1,13.8c-2.8,7.1-2.8,7.7,5,7.4c0.8,0,1.7-0.1,2.5-0.2c7.3-0.8,14.6-0.4,21.9-0.7
	c2.1-0.1,1.9,1.4,2.1,2.3c0.3,1.7-1.2,0.6-1.8,0.8c-1,0.3-2.4-0.3-3.3,1.3c1.2,1,3.3,1.1,3.8,3.4c-11.1,1.7-22,3.5-33,5.1
	c-2.8,0.4-5.7,0.2-7.2,3.4c-3.4,7.2-6.8,14.4-9.5,21.9c-0.9,2.4,0,3.1,2.2,2.9c4-0.4,7.9-0.2,11.9-0.7c8.5-1,17-1.9,25.5-1.2
	c0.6,1.9-2.1,1.4-1.6,2.7c0.5,1.3,1.8,1,3,0.8C285.7,87.1,289.8,86.6,293.8,86.2z"/>
<path class="st0" d="M11.2,142.8c0.1-0.8-0.1-1.8,1-2c0,0.7,0,1.3,0,2C11.8,142.8,11.5,142.8,11.2,142.8z"/>
<path class="st0" d="M110.3,14.8c0.4,0.3,0.8,0.5,1.2,0.8c-0.3,0.3-0.5,0.5-0.8,0.8c-0.4-0.2-0.8-0.5-1.1-0.7
	C109.8,15.4,110.1,15.1,110.3,14.8z"/>
</svg>
