<svg xmlns="http://www.w3.org/2000/svg" viewBox="0 0 2176.74 1051.17"><defs><style>.cls-1{fill:#152322;}</style></defs><title>fond2Plan de travail 7 copie 4</title><g id="Calque_2" data-name="Calque 2"><path class="cls-1" d="M2174.75,641.91c-5.11-.59-13,5.25-20.07,8.71a3.86,3.86,0,0,1-2.11.34c-47.41-4.9-96.86-11.32-147.07-14.86-90.94-6.4-179.77-1.81-262.44,20.7-42.24,11.5-78.19,26.94-105.36,46.19-2.11,1.5-.71,4.21,2.17,4.21h113.87a3.58,3.58,0,0,0,2.59-1l15-15.82c1.6-1.69,5.1-1.14,5.66.91,2,7.19.08,14.7,6.43,18.08,7.8,4.16,26.07,3,38.2,3.66a3.55,3.55,0,0,0,3-1.24l19.2-26.12a3.77,3.77,0,0,1,5.22-.37c8.43,7.74,14.57,13.13,20.09,18.7,9.54,9.62,38.46,17.12,64.54,14.55,20-2,11.65-12.44,16.22-19.06a8,8,0,0,1,1.82-1.49,3.94,3.94,0,0,1,3-.6c32,6.66,50.22,19.65,66,34.81,1.5,1.45.44,3.6-1.93,3.93l-31.57,4.32c-3.1.43-3.59,3.69-.69,4.63l.25.08c3.22,1.05,2.15,4.74-1.35,4.66-31.59-.68-36.2-.12-37.3,3.81a3,3,0,0,1-2.72,2l-32,3.15c-.1,4.85-.07,3.46-.17,8.32l12.6,1.55c3.38.41,3.63,4.06.33,4.74l-24,4.95a3.89,3.89,0,0,1-3.16-.7c-10.3-8.27-24.64-11.48-41.22-8.43a3.8,3.8,0,0,1-3.13-.73c-37.85-32.72-94-47.45-163.41-46.69-70.79.78-132.52,16.26-187.36,39-4.84,2-8.71,4.63-13.41,7.67-2.1,1.36-1.1,4,1.61,4.26,27.38,3,52.28,10.4,73.39-3.77,1.7-1.14,4.34-.67,5.11,1,8.47,17.63,10.82,17.89,45.36,19.85,11.82.66,23.64,1.36,36.42,2.09a3.26,3.26,0,0,0,3.34-1.81c.77-2.25,1.51-4.4,2.24-6.51s4-2.44,5.58-.82c10.64,10.82,36.32,11.3,53,17.45,2,.75,2.41,2.79.79,4-12.73,9.29-15,19.31-7.72,29.51,6,8.42,14.31,16.42,22.48,24.92,1.71,1.78-.34,4.29-3.16,3.84a11.66,11.66,0,0,1-2-.48c-17.61-6.21-34.6-12.94-52.74-18.7-6.12-1.95-14.09-2.34-21.57-3.14-1.78-.2-3.4.81-3.56,2.19-.41,3.39-1.08,6.81,0,10.08a51.82,51.82,0,0,0,4.53,9.56c1.26,2.22-2,4.34-4.65,3-26.69-13.39-50.24-27.4-75.27-40.68-3.63-1.92-9.14-2.9-15-3.7-9.44-1.28-18.64,4-18.68,11.48a9.36,9.36,0,0,0,.78,3.34c4.07,8.74,12.94,16.86,18.23,25.5,6.49,10.62,10.18,21.49,7,32.79-.47,1.64-3,2.41-4.83,1.5-7.71-3.79-13.29-7.91-19.36-11.84-13.34-8.64-26.13-17.57-40.84-25.55-16.22-8.79-29.87-7.37-39.41,3.81-4.83,5.65-7.39,11.93-9.63,18-4.67,12.72-8.66,25.5-13.68,40.83-.62,1.87-3.7,2.48-5.42,1.07-5.15-4.27-8.43-6.92-11.47-9.65-10-8.95-18.79-18.28-29.89-26.83-10.36-8-17-8.15-24.87-2.53a4,4,0,0,1-3.9.26c-17.53-8.75-33.93-18.84-54.25-25.93-23.84-8.33-46.6-4-61.68,8.71-3.86,3.26-7.25,6.66-10.05,9.42a3.85,3.85,0,0,1-4.61.31c-14.56-10-28-19.9-43.15-29.1-17.76-10.83-42-12.71-66.53-8.38-25.1,4.44-28.06,16.59-29.25,28.29-.72,7.11-.33,14.26-.2,21.31,0,1.71-2.16,2.91-4.25,2.33-44.89-12.39-65.9-15.4-78.35-7.39-8.63,5.55-10.33,14-13,20.9-.67,1.73-3.47,2.3-5.18,1.07-9.15-6.62-24.86-13.48-45.54-9.43-17.4,3.4-31.09,11.89-43,17.27a3.78,3.78,0,0,1-4-.59c-18.16-17.64-38.69-38.25-60.8-58.4-6.85-6.24-17-12.08-28.09-16.42-25.61-10-45-7.45-53.57,7a3.67,3.67,0,0,1-5.67.23c-2.29-3.12-4.33-5.93-7.81-8.13-5.31-3.36-14.77-8.15-20.21-7.48-7.45.91-15.7,5.86-18.41,10s-3.18,8.42-3.81,13.69c-.29,2.45-4.6,3.06-6,.85-.39-.62-.76-1.19-1.13-1.76-7-10.79-12.77-21.88-21.74-32.22-3.36-3.88-14.63-8.61-21.5-8.3-8.39.38-20.46,4.91-23,9-6.68,10.74-9.66,22.14-12.91,33.37a28.29,28.29,0,0,0-.54,10.26c.16,2-2.69,3.25-4.88,2.18-9.3-4.56-18-10.12-27.54-10.52-20.56-.86-28.17,9.53-35.41,18.05a79.37,79.37,0,0,0-5,6.75c-1.42,2.08-5.48,1.56-5.94-.77-2.79-14.2-5.84-27.23-6.89-40.31-1.72-21.46-13.1-34.07-65.14-12.16-33,13.92-63.34,29.58-94.41,44.74-2.43,1.19-5.45-.51-4.77-2.65a12.11,12.11,0,0,0,.5-2.42c.33-3.65-1-7.34-2-11-.37-1.3-2-2.14-3.72-1.88-6.91,1.09-14.55,1.75-19.48,4-25.4,11.57-49.83,23.71-76,36.34a4.05,4.05,0,0,1-3.29,0C236.74,883,205.18,879.39,172,877.83c-16.38-.77-28.51-13.9-18.11-21.21,12.37-8.67,27.92-16.14,44.8-25.37,1.66-.91,4-.41,4.79,1,4.08,7.47,7.11,13,10,18.24a3.3,3.3,0,0,0,3,1.49c22.87-.35,37.31-4.07,40-17.08,1.17-5.59,7.94-10.87,14.92-18.27a3.74,3.74,0,0,1,5.37.24c6.45,9,11.19,15.62,15.31,21.37a3.26,3.26,0,0,0,2.26,1.21c40.26,5,36.25-13.21,47.35-24.74a3.88,3.88,0,0,1,4.28-.6c5.8,2.81,10,5.33,15.24,6.68,6.14,1.56,14.46,3.09,20.48,2.19,51.27-7.63,90.74-24.22,129-46,2-1.12,1.58-3.44-.65-4.19-39.64-13.2-77.66-26.22-116.66-38.4-8.21-2.56-20.65-2.68-30.82-2.17-44.33,2.22-83.47,12.24-121.68,23.21C218,762,195.47,768.77,172.9,775.54a1.83,1.83,0,0,1-2-.62l-.79-1.3c.08-.45.16-.92.25-1.36,1-.72.31-2.11-1.19-2.06l-27.53.89c-2.26.07-3.89-1.65-3.1-3.27l.08-.17c.84-1.72-1-3.5-3.41-3.25l-14.45,1.53c-3.12.34-4.9-2.65-2.52-4.24l10.48-7c2-1.36,1.07-3.93-1.61-4.24-14.92-1.69-28.49-3.41-20.31-13.52,11.49-14.21,24.77-28,39.2-44a3.84,3.84,0,0,1,4.73-.44c16.32,11,30.56,21.14,46.1,30.66,4.93,3,14.18,6.25,21,6,31.17-1.13,62.09-4.39,93.25-5.09,25-.56,50.06,1.42,68.06-10.56,1.2-.8,3.77-1,6.5-1.36,1.65-.19,3.23.64,3.56,1.9,2.53,9.66,17.43,8.15,31.49,9.21,1.86.14,3.47-1,3.47-2.41V690.7l9.79-3.19c5.47,4,11.09,8,15.56,12.3,20.51,19.77,20.27,19.86,62.62,12.7,2.48-.43,4.81-1.1,9-2.21,2-.54,2.79-2.47,1.48-3.79l-27.43-27.59c-1.92-1.93.63-4.59,3.6-3.77,23.49,6.49,45.48,14.24,67.63,21.87,6.28,2.16,14.07,5.92,19.73,5.32,25-2.64,49.59-6.29,74.24-9.71,2.79-.39,3.58-3.17,1.24-4.39-118.82-61.85-286-97.23-460.51-57.72-3.34.75-5.57-2.59-2.83-4.24,11-6.65-36.53-14.15-68.93-7.84-2.84.55-5.07-1.9-3.39-3.75l12.8-14.06c1.62-1.78-.37-4.15-3.15-3.79C82.71,603.77,38.48,617,.79,636.29a2.36,2.36,0,0,0-1.41,2c0,105.24,1.45,412.25,1.45,412.25s1955.07,1.06,2174,1.2l1.45-409.66Z"/></g></svg>