<?xml version="1.0" encoding="utf-8"?>
<!-- Generator: Adobe Illustrator 24.0.1, SVG Export Plug-In . SVG Version: 6.00 Build 0)  -->
<svg version="1.1" id="Calque_1" xmlns="http://www.w3.org/2000/svg" xmlns:xlink="http://www.w3.org/1999/xlink" x="0px" y="0px"
	 viewBox="0 0 1920 1071.6" style="enable-background:new 0 0 1920 1071.6;" xml:space="preserve">
<style type="text/css">
	.st0{fill:#1C3F3C;}
	.st1{fill:#0B0C06;}
	.st2{fill:#FFFFFF;}
	.st3{fill:#142A2A;}
</style>
<title>fond2Plan de travail 4 copie 6</title>
<g id="Calque_6">
	<path class="st0" d="M1482.1,91.5c-106.1-37.8-208.6-7.1-279.7,46.6c15.7,3,31.4,6.4,47.4,8.8c3.3,0.5,7.8-2.6,11.4-4.3
		c14.6-7.1,29.1-14.3,44.9-20l-21.1,29.9c4.1,1.4,5.8,2.2,7.6,2.7c24.5,5.8,24.4,5.8,36.2-10.4c3.4-4.6,8-8.8,12-13.2l2.7,1.1v31.5
		c9.3-1.5,20,1.1,20.4-9.7c2.2,0.5,4.7,0.6,5.6,1.5c10.4,9.8,24.9,8.1,39.4,8.6c18,0.6,35.9,3.2,54,4.2c4,0.2,9.3-2.4,12.2-4.9
		c9.5-8.2,18.1-16.9,28.2-26.5c8.8,13.8,16.9,25.6,23.9,37.7c5.4,9.5-5.8,9.9-15.7,11.7l13.7,12.9l-17.6-2.6c0.8,2.3,1.3,3.8,2.1,6
		l-22.6-1l16.4,9.6l-0.4,0.9c-17.8-7.5-35.5-15.1-53.5-22.4c-22.1-8.9-44.8-17.1-70.4-18.9c-5.9-0.4-13.1-0.3-17.8,1.8
		c-23.5,10.3-46.4,21.4-70.4,32.7c22.9,18.8,46.4,33.1,77.2,39.6c3.5,0.7,8.3-0.5,11.9-1.8s6.1-3.7,10.2-6.4
		c7.9,9.3,3.9,26.3,29.4,21.4l10.7-21.1c4.6,7.5,9.6,12.3,10.3,17.5c1.6,10.9,10.5,13.8,24.4,13.9l7.1-18.4
		c10.5,8.2,20.2,14.6,27.8,22.2c6,6-1,16.7-10.5,17.3c-19.7,1.3-38.3,4.4-52.1,13.4c-15.5-10.5-29.9-20.6-44.9-30.3
		c-3.3-2.1-8.7-2.5-13.1-3.7c-0.6,3.6-1.8,7.3-1.5,11c0.2,3.4,1.8,6.6,4.4,8.8c-20.4-13.8-39.9-28.4-61.5-41.1
		c-30.1-17.9-36.7-7.6-37.7,9.9c-0.7,12.5-3,24.9-4.8,38.9c-2.2-4.5-3.6-7.8-5.5-10.9c-4.2-7-8.6-15.4-20.5-14.7
		c-6.5,0.4-12.4,6.7-18.9,10.5c0-3.3,0.7-7.8-0.2-12.1c-1.9-9.2-3.6-18.5-7.5-27.2c-1.5-3.3-8.4-7-13.3-7.3
		c-4-0.2-10.5,3.6-12.4,6.8c-5.2,8.4-8.5,17.5-12.6,26.3c-0.8,1.8-1.7,3.7-3.4,7.6c-1.1-7.6-0.6-13.1-2.9-18
		c-1.6-3.4-6.3-7.4-10.7-8.2c-3.2-0.5-8.6,3.4-11.7,6.1c-3.1,2.7-4.1,6.3-6.5,10.2c-4.1-15-16-18.5-32.3-9.5
		c-6.2,3.4-11.8,7.9-16.3,13.4c-13.2,16.9-25.4,34.3-36.2,48.9c-7.2-4.3-15.5-12-26.2-14.9c-13.7-3.8-23.6,4-28.4,9.9
		c-2.3-6-2.6-14.8-8.5-20.1c-7.4-6.7-20.1-3.9-47.8,7c0-6.7,0.4-13.5-0.1-20.2c-0.7-9.5-2.4-19.4-16.9-23.1
		c-14.2-3.5-28.2-2-38.5,6.8c-9.2,7.9-17.4,16.5-26.4,25.1c-1.8-2.4-4.2-6-7-9.3c-8.7-10.4-21.9-13.9-35.7-7.1
		c-12.2,6-22,14.7-32.6,22c-5-5.6-9-6-15.4,1s-11.5,14.6-17.3,21.9c-2.2,2.8-4.6,5.4-8.9,10.6c-3.3-14.1-5.8-25.5-8.8-36.9
		c-1.3-5-2.8-10.1-5.6-14.7c-5.5-9.1-13.4-10.3-22.8-3.1c-8.5,6.5-15.9,13.8-23.6,20.8c-4,3.7-7.7,7.6-13.3,11.1
		c-2.9-10.2-0.7-19.9,3.4-29.4c3.1-7.2,8.4-13.9,10.7-21.1c0.2-0.7,0.3-1.4,0.3-2.1c0-5.3-4.3-9.7-9.6-9.7c-0.7,0-1.3,0.1-2,0.2
		c-3.1,0.6-5.9,1.4-7.9,2.9c-16.1,12-31.1,24.8-48.7,36.7c1.7-4.6,4-9.1,5-13.8c0.8-3.3,0-6.9-0.1-10.3c-4.8,0.9-10.3,1.1-14.4,2.9
		c-10.5,4.7-20.3,10.2-30.5,15.2c-1.2,0.6-3.1,0.6-5.5,1c5.5-8.4,11.4-16,15.5-24.1c4.6-9,2.7-17.8-6.4-25.9
		c10.6-7.2,30.8-5.9,35-19.9c0.9,3.8,1.9,7.6,2.9,11.8c8-0.6,15.3-1.2,22.6-1.8c21.2-1.7,21.4-1.8,27.2-19
		c13.7,15.5,30.3,6.5,48.7,4.6c-4.4-3.7-7.2-6.9-11.1-9.2c-31.7-18.5-67.4-31.2-108.4-31.8c-40.6-0.6-73.4,11.7-95.3,39
		c-10.5-3.1-19.5-0.2-25.7,7.4l-23.2-6.8l28.3-4.9l0-2.9l-32.5-4.5c-0.4-5.1-1.3-5.2-31.5-4.2l14.8-6.8l-27.4-5.3
		c9.8-13.7,20.7-25.6,41.1-31.3c0.7,0.6,1.3,1.3,1.8,2c2.6,5.4-2.2,13.9,9.4,15.5c15.1,2.1,31.8-4,37.4-11.9
		c3.5-5.1,7.6-9.9,13.3-17.5l13,24.9c7-0.7,18.5,0.5,23.3-3.1c4.5-3.4,1.9-11.8,4.9-18.6l11.3,16.9h71.4
		c-16.1-17.3-38.1-31-64.3-41.1C532.4,91.4,481,87.7,428.4,92.9c-29.3,2.9-58.1,8.2-85.8,12.2c-4.2-2.7-9.1-8-12.2-7.5
		c-7.8,1.2-12.4,5.8-12.3,12.7c0.2,50.9,0,101.8-0.1,152.7c0,28,0.3,56-0.1,84c-0.1,6.5,2.5,8.1,11.2,8.1
		c126.8-0.1,253.7-0.1,380.5,0.1c123.9,0,247.9-0.1,371.8-0.3c111.1,0,222.3,0.1,333.4,0.3c53.3,0,106.6,0,159.9,0
		c4.9,0,9.8-0.8,14.7-1.2V133.1"/>
	
		<ellipse transform="matrix(0.9751 -0.2215 0.2215 0.9751 -35.353 256.6276)" class="st1" cx="1126.3" cy="285.9" rx="14.9" ry="8.5"/>
	
		<ellipse transform="matrix(0.1913 -0.9815 0.9815 0.1913 655.8066 1367.5524)" class="st1" cx="1157.8" cy="285.8" rx="8.5" ry="14.9"/>
	<ellipse class="st1" cx="1131.1" cy="291.8" rx="5.8" ry="10.6"/>
	<ellipse class="st1" cx="1143" cy="291.6" rx="5.8" ry="10.6"/>
	<ellipse class="st1" cx="1154.1" cy="291" rx="5.8" ry="10.6"/>
	<path class="st1" d="M1140.9,232.7c-10.8,0-19.5,23.6-25.4,14.6c-3.5,5.4-5.3,11.7-5.3,18.1c0,18.1,14.2,32.8,31.8,32.8
		s31.8-14.7,31.8-32.8c0-6.3-1.8-12.5-5.1-17.8C1162.7,256.5,1151.5,232.7,1140.9,232.7z"/>
	<path class="st1" d="M1142.2,261.8c10.6,0,20.5-5.3,26.4-14.1c-9-14.7-28.2-19.4-43-10.4c-4.1,2.5-7.6,6-10.2,10.1
		C1121.4,256.3,1131.5,261.8,1142.2,261.8z"/>
	
		<ellipse transform="matrix(0.6784 -0.7347 0.7347 0.6784 158.1232 929.4639)" class="st2" cx="1140.8" cy="284.1" rx="3.8" ry="2.2"/>
	
		<ellipse transform="matrix(0.6784 -0.7347 0.7347 0.6784 159.1884 931.6384)" class="st2" cx="1143.8" cy="284" rx="2.2" ry="3.8"/>
	
		<ellipse transform="matrix(0.3017 -0.9534 0.9534 0.3017 523.3783 1266.8661)" class="st3" cx="1126.5" cy="276.1" rx="8.1" ry="9"/>
	<ellipse transform="matrix(0.9333 -0.359 0.359 0.9333 -21.8519 434.4462)" class="st3" cx="1158.8" cy="276.1" rx="9" ry="8.1"/>
	
		<ellipse transform="matrix(0.3017 -0.9534 0.9534 0.3017 523.2918 1267.0387)" class="st2" cx="1126.6" cy="276.3" rx="5.5" ry="6.1"/>
	
		<ellipse transform="matrix(0.9974 -7.271600e-02 7.271600e-02 0.9974 -17.0124 84.9958)" class="st2" cx="1158.8" cy="276.1" rx="6.1" ry="5.5"/>
	<path class="st0" d="M1912.1,298.3c-3.9-5.3-7-5.7-12.1,0.9s-9.1,13.7-13.6,20.6c-1.7,2.6-3.6,5.1-7,10c-2.6-13.3-4.6-24-6.9-34.7
		c-0.9-4.8-2.3-9.4-4.4-13.9c-4.3-8.6-10.5-9.7-17.9-2.9c-6.7,6.1-12.5,13-18.6,19.6c-3.2,3.5-6.1,7.2-10.5,10.4
		c-2.3-9.6-0.6-18.7,2.7-27.7c2.4-6.8,6.6-13.1,8.4-19.9c0.2-0.7,0.3-1.3,0.3-2c0.1-5.8-4.4-10.1-9.1-8.9c-2.2,0.4-4.4,1.3-6.2,2.7
		c-12.6,11.3-24.4,23.3-38.2,34.6c1.4-4.3,3.1-8.6,4-13c0.6-3.1,0-6.5-0.1-9.7c-3.8,0.9-8.1,1-11.3,2.7c-8.2,4.4-16,9.6-24,14.4
		c-1,0.6-2.4,0.6-4.3,1c4.3-7.9,9-15.1,12.2-22.7c3.6-8.5,2.1-16.8-5-24.4c8.3-6.8,24.2-5.5,27.5-18.7c0.7,3.6,1.4,7.1,2.3,11.1
		l17.8-1.7c16.7-1.6,16.8-1.7,21.4-17.9c10.8,14.6,23.8,6.1,38.2,4.3c-3.5-3.5-5.7-6.5-8.7-8.6c-24.9-17.5-53-29.4-85.1-29.9
		c-31.9-0.6-57.6,11-74.8,36.7c-8.2-2.9-15.3-0.2-20.2,7l-18.3-6.4l22.2-4.6c0-1.6,0-1.1,0-2.7l-25.5-4.2c-0.3-4.8-1-5-24.7-4
		l11.6-6.4l-21.5-5c7.7-12.9,16.2-24.1,32.3-29.5c0.5,0.6,1,1.2,1.4,1.9c2.1,5.1-1.7,13.1,7.4,14.6c11.8,2,25-3.8,29.3-11.2
		c2.8-4.8,5.9-9.4,10.5-16.5l10.2,23.5c5.5-0.7,14.5,0.5,18.3-2.9c3.5-3.2,1.5-11.1,3.8-17.5l8.9,15.9h56.1
		c-12.6-16.3-29.9-29.3-50.5-38.7c-37.6-17.3-77.9-20.8-119.3-15.9c-23,2.7-45.6,7.7-67.3,11.5c-3.3-2.6-7.1-7.5-9.6-7
		c-6.1,1.2-9.7,5.4-9.7,12c0.2,48,0,95.9,0,143.9c0,26.4,0.3,52.8-0.1,79.2c-0.1,6.1,2,7.6,8.8,7.6c99.6-0.1,199.2,0.1,298.8,0.1
		c27.1,0,54.2,0,81.2,0v-66.4C1919.3,291.9,1915.8,295.2,1912.1,298.3z"/>
	<path class="st0" d="M273.9,110.7C190.6,75,110.2,104,54.4,154.6c12.4,2.8,24.6,6,37.2,8.3c2.6,0.5,6.1-2.4,9-4.1
		c11.5-6.7,22.8-13.5,35.3-18.8l-16.6,28.2c3.2,1.4,4.5,2.1,6,2.5c19.2,5.5,19.1,5.4,28.4-9.8c2.7-4.4,6.3-8.3,9.4-12.4l2.1,1v29.7
		c7.3-1.4,15.7,1,16.1-9.1c1.7,0.5,3.6,0.5,4.4,1.4c8.2,9.2,19.6,7.7,30.9,8.1c14.2,0.5,28.2,3,42.4,3.9c3.1,0.2,7.3-2.3,9.5-4.6
		c7.4-7.7,14.2-15.9,22.2-25c6.9,13,13.3,24.1,18.7,35.5c4.3,8.9-4.5,9.3-12.3,11l10.8,12.1l-13.8-2.5l1.6,5.7l-17.8-1l12.9,9.1
		l-0.4,0.9c-14-7-27.9-14.2-42-21.1c-17.4-8.4-35.1-16.1-55.3-17.8c-4.6-0.4-10.3-0.3-14,1.7c-18.5,9.8-36.5,20.2-55.3,30.8
		c18,17.7,36.4,31.2,60.6,37.3c2.7,0.7,6.5-0.5,9.3-1.7s4.8-3.5,8-6c6.2,8.8,3,24.8,23.1,20.2l8.4-19.9c3.6,7,7.5,11.6,8.1,16.5
		c1.3,10.3,8.2,13,19.2,13.1l5.6-17.4c8.2,7.7,15.9,13.8,21.8,20.9c4.7,5.6-0.8,15.7-8.2,16.3c-15.5,1.2-30.1,4.1-40.9,12.6
		c-12.2-9.9-23.5-19.5-35.3-28.5c-2.6-2-6.8-2.4-10.3-3.5c-0.4,3.5-1.4,6.9-1.2,10.3c0.1,3.1,1.3,6,3.4,8.3
		c-16-13-31.4-26.7-48.3-38.8c-23.7-16.8-28.8-7.1-29.6,9.4c-0.6,11.8-2.4,23.5-3.8,36.6c-1.8-4.2-2.8-7.3-4.3-10.3
		c-3.3-6.6-6.8-14.5-16.1-13.9c-5.1,0.4-9.7,6.3-14.9,9.9c0-3.1,0.6-7.3-0.1-11.4c-1.5-8.6-2.8-17.4-5.9-25.6
		c-1.2-3.1-6.6-6.6-10.5-6.9c-3.1-0.2-8.2,3.4-9.8,6.4c-4.1,8-6.7,16.5-9.9,24.8c-0.7,1.7-1.3,3.5-2.7,7.2c-0.8-7.1-0.5-12.4-2.3-17
		c-1.2-3.2-5-7-8.4-7.7c-2.5-0.5-6.8,3.2-9.2,5.8s-3.2,5.9-5.1,9.7C12.5,264.2,6.4,259.8-2,262v96.9c74.4,0,148.7,0.1,223.1,0.2
		c41.9,0,83.7,0,125.5,0c3.9,0,7.7-0.7,11.5-1.1V149.8L273.9,110.7z"/>
</g>
</svg>
