<svg xmlns="http://www.w3.org/2000/svg" viewBox="0 0 2176.74 1051.17"><title>fond2Plan de travail 7 copie 5</title><g id="Calque_2" data-name="Calque 2"><path d="M1225.13,1021.4c4.35,7.09,7.8,12.71,11,18,34-2.61,28.37-16,39.82-27.39l65.19,25.42,4.28-.71-48.08-48.8c52,5.45,82.79,18.66,95.5,42l27.27-16.49,4.17.82v18.08l46.71-26.35c-4.18,13.49-7.45,24.06-10.72,34.63l4.42-.22c14-8.89,28.35-17.66,41.43-26.81,2.31-1.62-.39-4.94-1.69-7.37-2-3.74-4.79-7.4-8.61-13.16,43.1,2.67,63.26,15.4,82,28.52,16.85-15.21,29.89-31.85,51.9-45.47s52.87-24.12,83.17-34.85c-36.12,23.44-61.16,48.28-59.47,77.1.48,8,7.82,16,12.13,24.25l60.43-27c-1.23,9.4-2.08,15.84-3.11,23.67l43.47-21.75-26.93-29.37c38.79,4.62,59.5,15.23,73.89,28.21l54.26-28.93,4.71,1.41c-12.45,14.38-30.06,28.45-12.61,47.35,6-25.9,29.83-42.45,81.26-47.23l-52.68,44.3,5.83,1.4c21.91-14.9,26.77-15.54,61.71-7.51,1-3.27,2-6.3,3.52-11.23l24.91,7.48c8.49-13.66,16.31-27,25.25-40.17,2.9-4.28,8.75-8.15,15.36-11.92-11.89,17.53-21.18,34.82-2.12,52.91l48.46-20c-3.26,9.27-5.52,15.7-8.27,23.5l37-21.55,3.89,1.37-14.95,29.27,44.92-32.76,5.6,1.32V1027l37.4-7.14V1051H2025.13q-369.29,0-738.57,0-364.87,0-729.77-.1-256.08,0-512.16,0c-48,0-48.07.18-47-25.58l26.11,13.28c-3.51-17.79,7.3-32.19,32.43-44.47-7.82,16.13-10.5,31.9,9.12,47.94,4.75-14.15,13.29-26,46.66-32.62-9,11.78-24,22-4.18,34.1,20-16.87,51.72-24.84,88.61-31l-23.07,29,3,0,69.34-38.38,6.12,2-14.13,29.71c32.11-19,60.12-30.3,108.36-40.67-23.57,13.62-39.41,26.61-35.4,42.59l56.05-15.18c2,6.59,3.53,11.48,5,16.37,13.64-12.91,16.05-12.77,59,2.92-1-5.52-2-11-3.26-18,29.83,3.1,37.75,14.69,56.12,23,.83-6.07,1.52-11.06,2.57-18.68l27.56,17.09c-12.53-17.52,10.61-24.86,39-31.41l-14.35,25.39,5.26.94c8.38-17.44,41.77-22.51,68.93-31.12-4,8.22-7.6,15.8-11,23l67.88-25.83,7.62,30.52c21.48-10.89,21.48-10.89,71.2,8.84l5.19-11.23,14.93.32c-12.49-19-24.75-37.57-37-56.2,50.25,13,70.58,34.65,90,57.21l38.51-12.22v14.69c11.27-4.1,23-7.89,33.33-12.37,4.41-1.91,7.94-5.26,8.1-8,.45-7.52-1.1-15.06-2.05-24.39,41.8,9.53,68.44,23,89,40.47l16.3-17.5,4.13.53v12.58l42-26c-2.36,13.23-4.36,24.46-6.37,35.69l7.2.64c7.65-28.7,36.86-50.87,94.59-66.3-24.8,23.67-29.07,46.67-14.51,70.55l50.86-25.78,4.72,1.74-10.4,20.19Z"/></g></svg>