<svg xmlns="http://www.w3.org/2000/svg" viewBox="0 0 1920 1071.63"><defs><style>.cls-1{fill:#152322;}</style></defs><title>fond2Plan de travail 4 copie</title><g id="Calque_6" data-name="Calque 6"><path class="cls-1" d="M385.55,156.93c18.88-12.1,41-20.41,67.53-24.75a1.54,1.54,0,0,1,1.58,2.38l-6.41,8.82a1.54,1.54,0,0,0,1.7,2.35l47.9-11.67,2.4,4.67-15.76,11.92a1.53,1.53,0,0,0,1.42,2.66c87.41-24.79,171.2-2.59,230.74,36.22a1.5,1.5,0,0,1-.62,2.75c-12.35,2.14-24.68,4.44-37.2,6.09-2.84.38-6.74-2-9.89-3.34-11.09-4.78-22.11-9.65-33.89-13.72a1.54,1.54,0,0,0-1.8,2.36c4.51,5.69,9.06,11.41,13.74,17.32a1.5,1.5,0,0,1-.74,2.37,46.06,46.06,0,0,1-4.51,1.39c-21.22,4.49-21.1,4.44-31.38-8a83.86,83.86,0,0,0-7.8-7.73l-4.9,2V210a1.56,1.56,0,0,1-1.74,1.51c-7-.67-14.51.28-15.78-5.78a1.57,1.57,0,0,0-1.78-1.19,7.73,7.73,0,0,0-3.26.85c-9,7.52-21.59,6.27-34.1,6.63-15.61.44-31.11,2.48-46.72,3.19-3.42.16-8-1.87-10.52-3.76-7.79-6-14.92-12.31-23.1-19.24a1.64,1.64,0,0,0-2.37.28c-7.23,10-13.89,18.69-19.64,27.6-4.1,6.35,2.7,7.42,10.18,8.49a1.5,1.5,0,0,1,.8,2.65l-5.25,4.38a1.53,1.53,0,0,0,1.26,2.66l7.24-1a1.54,1.54,0,0,1,1.71,2l0,.1a1.54,1.54,0,0,0,1.56,2.05L469.9,241a.75.75,0,0,1,.59,1.29l-.12.85.4.82a.82.82,0,0,0,1,.39c11.31-4.25,22.61-8.5,34-12.61,19.14-6.88,38.75-13.17,61-14.56,5.09-.32,11.32-.25,15.44,1.36,19.54,7.64,38.59,15.81,58.45,24.1a1.5,1.5,0,0,1,.33,2.62c-19.18,13.68-39,24.09-64.65,28.88-3,.56-7.18-.39-10.26-1.38-2.64-.85-4.73-2.42-7.63-4.19a1.65,1.65,0,0,0-2.15.38c-5.56,7.23-3.55,18.65-23.72,15.52a1.55,1.55,0,0,1-1.13-.76l-7.68-13.4a1.63,1.63,0,0,0-2.69-.16c-3.5,4.65-6.89,8-7.47,11.47-1.36,8.16-8.6,10.49-20.06,10.71a1.59,1.59,0,0,1-1.49-.93l-5-11.45a1.63,1.63,0,0,0-2.4-.65c-8.46,5.79-16.25,10.48-22.45,15.92-5.21,4.58.87,12.82,9.08,13.31,16.64,1,32.45,3.24,44.27,9.82a1.65,1.65,0,0,0,1.65,0c13.1-7.93,25.34-15.54,38.07-22.8,2.47-1.41,6.3-1.83,9.76-2.51a1.58,1.58,0,0,1,1.86,1.18,24.47,24.47,0,0,1,1,6.92,9.71,9.71,0,0,1-.25,1.51,1.58,1.58,0,0,0,2.39,1.67c15.57-9.52,30.75-19.34,47.3-28.07,26.08-13.75,31.78-5.84,32.64,7.63.53,8.2,2.06,16.38,3.45,25.29a1.61,1.61,0,0,0,3,.48c.84-1.53,1.61-2.9,2.51-4.23,3.63-5.35,7.44-11.87,17.75-11.33,4.77.25,9.14,3.74,13.8,6.6a1.58,1.58,0,0,0,2.44-1.37,22.29,22.29,0,0,1,.27-6.43c1.63-7.05,3.12-14.2,6.47-20.94,1.27-2.55,7.31-5.39,11.52-5.63,3.44-.19,9.09,2.77,10.77,5.21,4.49,6.49,7.38,13.44,10.89,20.21.19.36.37.72.57,1.11a1.61,1.61,0,0,0,3-.54c.31-3.3.59-6.06,1.91-8.58s5.49-5.71,9.23-6.28c2.72-.42,7.46,2.59,10.12,4.69a16.72,16.72,0,0,1,3.91,5.1,1.62,1.62,0,0,0,2.85-.14c4.3-9,14-10.66,26.84-4.38A45.88,45.88,0,0,1,805.39,293c11.08,12.63,21.37,25.57,30.47,36.64a1.62,1.62,0,0,0,2,.37c6-3.38,12.82-8.71,21.54-10.84a24.51,24.51,0,0,1,22.82,5.92,1.61,1.61,0,0,0,2.6-.67c1.34-4.35,2.2-9.64,6.52-13.12,6.24-5,16.77-3.13,39.26,4.64a1.59,1.59,0,0,0,2.13-1.46c-.07-4.43-.26-8.91.1-13.37.6-7.34,2.08-15,14.66-17.75,12.27-2.72,24.43-1.54,33.33,5.25,7.57,5.77,14.33,12,21.62,18.26a1.63,1.63,0,0,0,2.31-.19c1.41-1.73,3.1-3.87,5-5.91,7.55-8,19-10.69,30.9-5.47,10.18,4.45,18.4,10.78,27.18,16.27a1.65,1.65,0,0,0,2-.16c4-3.53,7.27-3.42,12.46,1.59,5.56,5.36,10,11.21,15,16.83,1.52,1.71,3.17,3.38,5.75,6a1.61,1.61,0,0,0,2.71-.67c2.52-9.62,4.51-17.64,6.85-25.62a39.06,39.06,0,0,1,4.83-11.32c4.78-7,11.62-7.91,19.75-2.39,7.37,5,13.78,10.61,20.46,16a88.51,88.51,0,0,0,9.7,7.43,1.62,1.62,0,0,0,2.42-.94c1.62-7.09-.23-13.91-3.48-20.57-2.65-5.42-7.1-10.52-9.14-16a7.56,7.56,0,0,1-.39-2.1c0-4.67,4.63-8,9.36-7.2,2.94.5,5.71,1.11,7.53,2.32,12.54,8.33,24.34,17.12,37.71,25.52a1.57,1.57,0,0,0,2.33-1.89,35.93,35.93,0,0,1-2.27-6c-.53-2.05-.19-4.19,0-6.32a1.57,1.57,0,0,1,1.78-1.38c3.75.51,7.75.75,10.81,2,9.09,3.61,17.6,7.83,26.43,11.73a4.79,4.79,0,0,0,1,.3,1.54,1.54,0,0,0,1.59-2.41C1249,291,1244.8,286,1241.78,280.7c-3.66-6.39-2.52-12.68,3.86-18.51a1.5,1.5,0,0,0-.4-2.5c-8.33-3.85-21.2-4.16-26.53-10.94a1.61,1.61,0,0,0-2.8.51l-1.12,4.08a1.59,1.59,0,0,1-1.67,1.14l-18.25-1.31c-17.31-1.23-18.48-1.39-22.73-12.46a1.63,1.63,0,0,0-2.56-.59c-10.58,8.89-23,4.26-36.77,2.36a1.51,1.51,0,0,1-.81-2.67,41.06,41.06,0,0,1,6.72-4.81c27.48-14.26,58.41-24,93.88-24.46,34.79-.48,62.91,8.77,81.88,29.29a1.63,1.63,0,0,0,1.57.47c8.3-1.92,15.49.09,20.65,5.28a1.69,1.69,0,0,0,1.59.45l12-3.11a1.51,1.51,0,0,0-.16-3l-6.31-1,.08-5.22,16-2a1.6,1.6,0,0,0,1.36-1.24c.56-2.46,2.86-2.81,18.69-2.38a1.52,1.52,0,0,0,.68-2.93l-.13,0a1.51,1.51,0,0,1,.35-2.9l15.82-2.72a1.52,1.52,0,0,0,1-2.46c-7.91-9.51-17-17.67-33.08-21.84a1.68,1.68,0,0,0-1.52.37,4.43,4.43,0,0,0-.91.94c-2.29,4.16,1.89,10.72-8.13,12-13.07,1.61-27.56-3.09-32.34-9.13-2.76-3.49-5.84-6.88-10.06-11.73a1.64,1.64,0,0,0-2.62.23l-9.62,16.39a1.63,1.63,0,0,1-1.52.78c-6.08-.38-15.23.31-19.14-2.3-3.18-2.12-2.25-6.84-3.22-11.34a1.61,1.61,0,0,0-2.84-.57l-7.51,9.92a1.62,1.62,0,0,1-1.29.64h-57.06a1.52,1.52,0,0,1-1.09-2.64c13.62-12.08,31.63-21.77,52.8-29,41.42-14.12,85.93-17,131.49-13,25.16,2.22,49.94,6.25,73.7,9.33a1.66,1.66,0,0,0,1-.22c3.55-2.17,7.5-5.83,10.06-5.47,6.72,1,10.72,4.43,10.69,9.77-.2,39.16,0,78.33.06,117.49,0,21.55-.29,43.11.12,64.66.1,5-2.19,6.21-9.71,6.2q-164.71-.13-329.44.07-160.95,0-321.91-.2-144.33,0-288.67.21-69.21,0-138.43,0c-3.75,0-7.51-.48-11.26-.81a1.54,1.54,0,0,1-1.45-1.51V158.2A1.49,1.49,0,0,1,385.55,156.93Z"/><path class="cls-1" d="M1906.55,330.68a1.61,1.61,0,0,1-2-.37c-9.11-11.07-19.39-24-30.47-36.64a45.78,45.78,0,0,0-14.08-10.3c-12.83-6.28-22.53-4.67-26.84,4.38a1.62,1.62,0,0,1-2.84.14,16.76,16.76,0,0,0-3.91-5.1c-2.66-2.11-7.4-5.11-10.13-4.69-3.73.57-7.86,3.68-9.22,6.27s-1.6,5.28-1.91,8.59a1.6,1.6,0,0,1-3,.53l-.57-1.1c-3.52-6.77-6.4-13.73-10.89-20.22-1.68-2.43-7.33-5.4-10.78-5.2-4.2.24-10.25,3.08-11.51,5.63-3.35,6.73-4.84,13.89-6.47,20.94a22.29,22.29,0,0,0-.27,6.43,1.59,1.59,0,0,1-2.45,1.37c-4.66-2.86-9-6.35-13.79-6.6-10.31-.54-14.12,6-17.75,11.32-.9,1.34-1.68,2.71-2.51,4.24a1.61,1.61,0,0,1-3-.48c-1.39-8.92-2.92-17.09-3.45-25.3-.86-13.46-6.57-21.37-32.64-7.62-16.55,8.73-31.73,18.55-47.31,28.07a1.57,1.57,0,0,1-2.38-1.67,8.74,8.74,0,0,0,.24-1.52,24.15,24.15,0,0,0-1-6.92,1.58,1.58,0,0,0-1.86-1.17c-3.47.68-7.29,1.09-9.76,2.5-12.73,7.26-25,14.88-38.07,22.8a1.67,1.67,0,0,1-1.66,0c-11.81-6.58-27.62-8.85-44.26-9.83-8.21-.48-14.29-8.72-9.08-13.3,6.2-5.45,14-10.13,22.45-15.92a1.62,1.62,0,0,1,2.4.65l5,11.45a1.59,1.59,0,0,0,1.49.93c11.46-.22,18.7-2.55,20.06-10.72.58-3.5,4-6.82,7.47-11.46a1.63,1.63,0,0,1,2.69.15l7.67,13.41a1.61,1.61,0,0,0,1.13.76c20.18,3.13,18.17-8.29,23.73-15.53a1.65,1.65,0,0,1,2.14-.37c2.91,1.76,5,3.34,7.64,4.19,3.08,1,7.25,1.94,10.26,1.38,25.7-4.79,45.47-15.2,64.64-28.88a1.5,1.5,0,0,0-.32-2.63c-19.86-8.28-38.91-16.45-58.46-24.09-4.11-1.61-10.34-1.68-15.44-1.36-22.21,1.39-41.82,7.68-61,14.56-11.42,4.11-22.72,8.36-34,12.6a.81.81,0,0,1-1-.39l-.39-.81.12-.86a.76.76,0,0,0-.59-1.29l-13.8.56a1.53,1.53,0,0,1-1.55-2.05l0-.1a1.55,1.55,0,0,0-1.71-2l-7.24,1a1.53,1.53,0,0,1-1.26-2.66l5.25-4.38a1.51,1.51,0,0,0-.81-2.66c-7.47-1.06-14.27-2.14-10.18-8.48,5.76-8.92,12.42-17.59,19.65-27.6a1.64,1.64,0,0,1,2.37-.29c8.18,6.94,15.31,13.27,23.1,19.24,2.47,1.9,7.1,3.93,10.52,3.77,15.61-.71,31.11-2.76,46.72-3.2,12.51-.35,25.08.9,34.1-6.62a7.58,7.58,0,0,1,3.26-.85,1.57,1.57,0,0,1,1.78,1.19c1.27,6.06,8.73,5.11,15.78,5.78a1.57,1.57,0,0,0,1.74-1.52V191.79l4.9-2a82.56,82.56,0,0,1,7.8,7.72c10.28,12.41,10.16,12.46,31.38,8a46.06,46.06,0,0,0,4.51-1.39,1.5,1.5,0,0,0,.74-2.37c-4.68-5.91-9.23-11.63-13.74-17.32a1.54,1.54,0,0,1,1.8-2.36c11.78,4.07,22.79,8.93,33.89,13.72,3.15,1.36,7.05,3.71,9.89,3.34,12.52-1.66,24.84-4,37.2-6.09a1.51,1.51,0,0,0,.62-2.76c-59.54-38.8-143.33-61-230.75-36.21a1.53,1.53,0,0,1-1.42-2.67l15.77-11.91c-1.33-2.58-1.08-2.09-2.4-4.67l-47.9,11.67a1.54,1.54,0,0,1-1.7-2.35l6.41-8.83a1.53,1.53,0,0,0-1.58-2.37c-26.49,4.34-48.65,12.65-67.54,24.75a1.51,1.51,0,0,0-.7,1.27V357a1.54,1.54,0,0,0,1.45,1.51c3.75.33,7.51.8,11.26.8q69.22.1,138.43,0,144.33-.11,288.67-.22l29.67,0V321.51C1916.62,324.07,1911.3,328,1906.55,330.68Z"/><path class="cls-1" d="M394.21,287.71c0-39.16-.26-78.33-.06-117.49,0-5.34-4-8.8-10.69-9.77-2.56-.36-6.51,3.3-10.06,5.47a1.66,1.66,0,0,1-1,.22c-23.76-3.08-48.54-7.11-73.7-9.33-45.56-4-90.07-1.13-131.49,13-21.17,7.21-39.18,16.9-52.8,29a1.52,1.52,0,0,0,1.09,2.64h57.06a1.62,1.62,0,0,0,1.29-.64l7.51-9.92a1.61,1.61,0,0,1,2.84.57c1,4.5,0,9.22,3.22,11.34,3.91,2.61,13.06,1.92,19.14,2.3a1.63,1.63,0,0,0,1.52-.78l9.62-16.39a1.64,1.64,0,0,1,2.62-.23c4.22,4.85,7.3,8.24,10.06,11.73,4.78,6,19.27,10.74,32.34,9.13,10-1.24,5.84-7.8,8.13-12a4.43,4.43,0,0,1,.91-.94,1.68,1.68,0,0,1,1.52-.37c16,4.17,25.17,12.33,33.08,21.84a1.52,1.52,0,0,1-1,2.46l-15.82,2.72a1.51,1.51,0,0,0-.35,2.9l.13,0a1.52,1.52,0,0,1-.68,2.93c-15.83-.43-18.13-.08-18.69,2.38a1.6,1.6,0,0,1-1.36,1.24l-16,2c-.05,3,0,2.17-.08,5.22l6.31,1a1.51,1.51,0,0,1,.16,3l-12,3.11a1.69,1.69,0,0,1-1.59-.45c-5.16-5.19-12.35-7.2-20.65-5.28a1.63,1.63,0,0,1-1.57-.47c-19-20.52-47.09-29.77-81.88-29.29-35.47.49-66.4,10.2-93.88,24.46a41.06,41.06,0,0,0-6.72,4.81,1.51,1.51,0,0,0,.81,2.67c13.72,1.9,26.19,6.53,36.77-2.36a1.63,1.63,0,0,1,2.56.59c4.25,11.07,5.42,11.23,22.73,12.46l18.25,1.31a1.59,1.59,0,0,0,1.67-1.14c.39-1.4.76-2.75,1.12-4.08a1.61,1.61,0,0,1,2.8-.51c5.33,6.78,18.2,7.09,26.53,10.94a1.5,1.5,0,0,1,.4,2.5c-6.38,5.83-7.52,12.12-3.86,18.51,3,5.29,7.17,10.31,11.26,15.64a1.54,1.54,0,0,1-1.59,2.41,4.79,4.79,0,0,1-1-.3c-8.83-3.9-17.34-8.12-26.43-11.73-3.06-1.23-7.06-1.47-10.81-2a1.57,1.57,0,0,0-1.78,1.38c-.2,2.13-.54,4.27,0,6.32a35.93,35.93,0,0,0,2.27,6,1.57,1.57,0,0,1-2.33,1.89c-13.37-8.4-25.17-17.19-37.71-25.52-1.82-1.21-4.59-1.82-7.53-2.32-4.73-.8-9.33,2.53-9.36,7.2a7.23,7.23,0,0,0,.4,2.1c2,5.48,6.48,10.58,9.13,16,3.25,6.66,5.1,13.48,3.48,20.57a1.62,1.62,0,0,1-2.42.94,88.51,88.51,0,0,1-9.7-7.43c-6.68-5.42-13.09-11-20.46-16-8.13-5.52-15-4.62-19.75,2.39a39.06,39.06,0,0,0-4.83,11.32c-2.34,8-4.33,16-6.85,25.62a1.61,1.61,0,0,1-2.71.67c-2.58-2.67-4.23-4.34-5.75-6C3.19,326.73.64,323.61-2,320.53v38.09l57.2,0q164.72,0,329.44-.07c7.52,0,9.81-1.19,9.71-6.2C393.92,330.82,394.23,309.26,394.21,287.71Z"/></g></svg>