<svg xmlns="http://www.w3.org/2000/svg" viewBox="0 0 1920 1071.63"><defs><style>.cls-1{fill:none;}.cls-2{fill:#172324;}.cls-3{fill:#0b0c06;}.cls-4{fill:#e04c3d;}.cls-5{fill:#ea543f;}.cls-6{fill:#fff;}.cls-7{fill:#0c0d09;opacity:0.39;}</style></defs><title>fond2Plan de travail 4 copie 4</title><g id="Calque_6" data-name="Calque 6"><g id="Calque_11" data-name="Calque 11"><path d="M591.54,349.47V338.68l-1.76-.65-14.12,16.31c1.84-5.72,3.27-10.15,4.7-14.58l-1.23-.68-11.62,10.74c.86-3.89,1.57-7.09,2.6-11.71l-15.24,10c-6-9-3.07-17.63.67-26.36a18.66,18.66,0,0,0-4.84,5.94c-2.81,6.56-5.26,13.2-7.93,20l-7.84-3.73c-.48,2.46-.78,4-1.1,5.6-11-4-12.52-3.68-19.41,3.74l-1.83-.7,16.56-22.06C513,332.88,505.48,341.13,503.6,354c-5.49-9.41,0-16.42,4-23.59l-1.49-.7q-8.52,7.2-17.06,14.41c-4.52-6.46-11-11.75-23.23-14l8.47,14.63-13.67,10.84c.32-3.91.59-7.11,1-11.79l-19,13.45c-1.35-4.1-3.66-8.07-3.81-12.08-.53-14.36,7.34-26.73,18.7-38.41-9.53,5.35-19.26,10.6-26.15,17.37s-11,15.07-16.32,22.64c-5.89-6.53-12.23-12.87-25.78-14.2,1.2,2.87,2.08,4.69,2.71,6.55.41,1.21,1.25,2.87.53,3.67-4.11,4.56-8.64,8.93-13,13.36l-1.39.1c1-5.26,2.06-10.52,3.37-17.24l-14.68,13.12v-9l-1.32-.41-8.57,8.21c-4-11.61-13.68-18.18-30-20.9,5.34,8.6,10.23,16.45,15.12,24.31l-1.35.35L320.06,342c-3.6,5.66-1.84,12.35-12.52,13.65l-3.47-9-15.22,8.9c1.23-3.76,2.25-6.91,3.27-10.06l-1.48-.86-16,12.84c-4.57-11.9-3.23-23.35,4.57-35.14-18.16,7.68-27.34,18.73-29.75,33l-2.26-.32c.63-5.59,1.26-11.19,2-17.78L236,350.24V344l-1.3-.27-5.13,8.72c-6.47-8.69-14.85-15.41-28-20.16.3,4.65.79,8.41.65,12.15a5.81,5.81,0,0,1-2.55,4c-3.24,2.23-6.94,4.11-10.48,6.16v-7.32l-12.11,6.09c-6.11-11.24-12.51-22-28.31-28.5,3.86,9.28,7.72,18.56,11.64,28l-4.69-.17c-.6,2-1.08,3.72-1.63,5.6-15.64-9.83-15.64-9.83-22.4-4.4-.74-4.75-1.49-9.5-2.39-15.21L108,351.52c1.09-3.58,2.24-7.35,3.48-11.45-8.54,4.29-19,6.82-21.68,15.51l-1.65-.48,4.51-12.64c-8.94,3.26-16.21,6.92-12.27,15.64-2.58-2.52-5.15-5.05-8.67-8.51-.33,3.8-.55,6.29-.81,9.31-5.77-4.13-8.26-9.9-17.64-11.45.4,3.52.71,6.23,1,9C40.74,348.62,40,348.55,35.69,355c-.47-2.44-.94-4.88-1.58-8.16l-17.62,7.57c-1.27-8,3.71-14.43,11.13-21.22C14.17,337.75,5.72,342.7-3,350.35v11l97,0,229.48.05H603.3V345.91Z"/><path class="cls-1" d="M1920,343.34v-23C1916.94,327.91,1915.15,335.48,1920,343.34Z"/><path d="M1920,320.29v-1.6a15.84,15.84,0,0,0-3.75,4.93c-2.81,6.56-5.27,13.2-7.94,20l-7.84-3.72c-.48,2.45-.78,4-1.1,5.59-11-4-12.52-3.68-19.41,3.74l-1.83-.69,16.56-22.07c-16.17,2.38-23.66,10.62-25.55,23.52-5.48-9.41,0-16.42,4-23.58l-1.48-.7-17.06,14.41c-4.53-6.47-11-11.75-23.24-14.06,3.38,5.83,6.09,10.53,8.47,14.64l-13.67,10.83c.32-3.9.59-7.11,1-11.79l-19,13.45c-1.36-4.1-3.67-8.07-3.82-12.08-.53-14.35,7.34-26.72,18.7-38.4-9.53,5.35-19.25,10.6-26.15,17.36s-11,15.07-16.32,22.65c-5.88-6.54-12.23-12.88-25.78-14.21,1.21,2.87,2.08,4.69,2.71,6.56.41,1.21,1.26,2.86.53,3.66-4.11,4.57-8.64,8.93-13,13.36l-1.4.11c1-5.27,2.06-10.53,3.38-17.25l-14.69,13.13v-9l-1.31-.41-8.58,8.22c-4-11.61-13.68-18.19-30-20.9l15.12,24.3-1.35.35L1685.61,338c-3.6,5.67-1.85,12.35-12.53,13.65-1-2.62-2.1-5.42-3.47-9l-15.21,8.9c1.22-3.76,2.24-6.91,3.27-10.05l-1.49-.87-16,12.84c-4.58-11.9-3.24-23.35,4.56-35.14-18.15,7.69-27.34,18.73-29.74,33l-2.27-.32c.63-5.59,1.26-11.18,2-17.77l-13.22,12.93v-6.27l-1.3-.26-5.13,8.72c-6.47-8.7-14.84-15.42-28-20.16.3,4.64.79,8.4.65,12.14a5.75,5.75,0,0,1-2.55,4c-3.24,2.23-6.94,4.12-10.48,6.16v-7.31l-12.11,6.08c-6.11-11.24-12.51-22-28.31-28.49,3.86,9.27,7.72,18.55,11.64,28l-4.69-.16c-.6,2-1.08,3.71-1.63,5.59-15.64-9.83-15.64-9.83-22.39-4.4l-2.4-15.2-21.34,12.86L1477,336c-8.54,4.29-19,6.81-21.67,15.5l-1.66-.47c1.47-4.13,2.95-8.25,4.52-12.65-9,3.26-16.22,6.92-12.28,15.65l-8.67-8.52c-.33,3.8-.54,6.29-.81,9.31-5.77-4.12-8.26-9.9-17.64-11.44.4,3.51.71,6.22,1,9-13.5-7.81-14.26-7.88-18.55-1.45-.47-2.44-.94-4.87-1.58-8.15L1382,350.35c-1.26-8,3.72-14.43,11.13-21.22-15.17,5.17-24,10.81-34.08,20.26l4.45-14.8-1.93-1q-10.89,9.57-21.8,19.12l-.94,0,7.25-14.45c-11.6,3.08-21.56,7.05-27.86,15.45-6.24-6-1.52-11.11,1.32-17-10.5,3.29-13.18,9.2-14.68,16.25-6.17-8-5.32-15.85-2.87-23.88-7.9,6.11-11.3,13.29-10.19,22.15l-8.21-6.62c-.33,12.83-.31,12.75,14.78,12.74q80.52-.06,161,0l229.48.05H1920V343.34C1915.15,335.48,1916.94,327.91,1920,320.29Z"/><path d="M984.3,344.35c1.37,3.53,2.46,6.33,3.47,8.95,10.68-1.3,8.93-8,12.53-13.64l20.49,12.66,1.35-.36L1007,327.66c16.35,2.71,26,9.29,30,20.9l8.58-8.21,1.31.4v9l14.69-13.12c-1.32,6.71-2.35,12-3.37,17.24l1.39-.1c4.38-4.44,8.91-8.8,13-13.36.73-.81-.12-2.46-.53-3.67-.63-1.86-1.5-3.69-2.71-6.56,13.56,1.33,19.9,7.68,25.78,14.21,5.3-7.57,9.4-15.86,16.32-22.65s16.62-12,26.15-17.36c-11.35,11.68-19.23,24.05-18.7,38.4.15,4,2.46,8,3.82,12.09l19-13.46c-.39,4.69-.65,7.89-1,11.79l13.67-10.83L1146,327.75c12.2,2.3,18.71,7.58,23.24,14.05l17.06-14.41,1.48.7c-3.91,7.16-9.45,14.17-4,23.59,1.89-12.9,9.38-21.15,25.56-23.53l-16.57,22.07,1.84.7c6.89-7.42,8.41-7.74,19.4-3.74.32-1.63.62-3.14,1.11-5.6l7.83,3.73c2.67-6.81,5.13-13.45,7.94-20a18.49,18.49,0,0,1,4.83-5.94c-3.74,8.73-6.66,17.34-.67,26.35l15.24-9.95c-1,4.62-1.73,7.82-2.6,11.71l11.63-10.74,1.22.68c-1.42,4.43-2.85,8.86-4.7,14.58L1270,335.68l1.76.65v10.79l11.76-3.56v15.55H1003.62l-229.48-.05q-80.52,0-161,0c-15.09,0-15.11.09-14.78-12.74l8.21,6.61c-1.1-8.86,2.29-16,10.2-22.15-2.46,8-3.31,15.89,2.87,23.88,1.49-7,4.17-12.95,14.67-16.25-2.84,5.87-7.56,11-1.32,17C639.24,347,649.2,343,660.81,340c-2.62,5.2-4.94,9.83-7.26,14.45l.94,0,21.81-19.11,1.92,1-4.44,14.79c10.09-9.45,18.9-15.09,34.07-20.25-7.41,6.78-12.39,13.25-11.13,21.21l17.63-7.56c.63,3.28,1.1,5.72,1.58,8.15,4.29-6.43,5-6.36,18.55,1.46-.32-2.75-.63-5.46-1-9,9.38,1.55,11.87,7.32,17.65,11.44.26-3,.47-5.5.8-9.3l8.67,8.51c-3.94-8.72,3.34-12.38,12.28-15.64-1.57,4.39-3,8.52-4.51,12.64l1.65.47c2.64-8.69,13.13-11.21,21.67-15.5-1.24,4.1-2.39,7.87-3.47,11.45l21.35-12.87c.89,5.7,1.64,10.45,2.39,15.2,6.76-5.42,6.76-5.42,22.39,4.41.55-1.89,1-3.55,1.63-5.6l4.7.16c-3.93-9.44-7.79-18.71-11.64-28,15.8,6.47,22.19,17.26,28.3,28.49l12.11-6.08v7.31c3.54-2,7.24-3.92,10.48-6.16a5.75,5.75,0,0,0,2.55-4c.14-3.75-.35-7.5-.64-12.15,13.14,4.75,21.52,11.46,28,20.16l5.12-8.72,1.3.27v6.26L929.44,335c-.74,6.59-1.37,12.18-2,17.78l2.27.31c2.4-14.29,11.59-25.33,29.74-33-7.8,11.79-9.14,23.25-4.56,35.14l16-12.83,1.49.86c-1,3.15-2.05,6.3-3.27,10.06Z"/><circle class="cls-2" cx="500.89" cy="304.56" r="17.73"/><path class="cls-3" d="M526.75,302.43c-8.73,0-20.6,13.14-24.35,5.84a22.56,22.56,0,1,0,42.39,15.43,22.37,22.37,0,0,1-12.95-5.2C529,319.82,530.1,302.43,526.75,302.43Z"/><path class="cls-3" d="M520.68,297.42c-2.65,6.9-10.4-3.47-18.21-3.47-7.11,0-12.19,11.21-15.24,5.27a18.36,18.36,0,1,0,33.45-1.8Z"/><path class="cls-3" d="M615.94,314.13c-3.26,8.48-12.9-5.92-22.49-5.92-8.73,0-14.85,15.43-18.6,8.14a22.55,22.55,0,1,0,41.09-2.22Z"/><path class="cls-1" d="M571.19,313.61q-.53,0-1.05,0Q570.67,313.61,571.19,313.61Z"/><path class="cls-1" d="M570,313.57c-.34,0-.67,0-1-.07C569.3,313.53,569.63,313.56,570,313.57Z"/><path class="cls-4" d="M559,310c.29.19.6.37.9.55C559.59,310.38,559.28,310.2,559,310Z"/><path class="cls-4" d="M553.05,304.41c.2.27.41.54.62.8C553.46,305,553.25,304.68,553.05,304.41Z"/><path class="cls-4" d="M560.06,310.66q.45.25.9.48Q560.51,310.92,560.06,310.66Z"/><path class="cls-4" d="M561.15,311.24c.31.15.62.31.94.45C561.77,311.55,561.46,311.39,561.15,311.24Z"/><path class="cls-4" d="M556.19,307.87c.26.23.53.45.8.67C556.72,308.32,556.45,308.1,556.19,307.87Z"/><path class="cls-4" d="M557.14,308.67c.27.21.54.42.82.62C557.68,309.09,557.41,308.88,557.14,308.67Z"/><path class="cls-4" d="M558.1,309.4l.86.59Z"/><path class="cls-4" d="M552.4,303.47c.19.29.39.58.6.86C552.79,304.05,552.59,303.76,552.4,303.47Z"/><path class="cls-4" d="M553.77,305.33c.21.26.44.52.67.78C554.21,305.85,554,305.59,553.77,305.33Z"/><path class="cls-4" d="M551.75,302.43c.17.3.35.59.54.88C552.1,303,551.92,302.73,551.75,302.43Z"/><path class="cls-4" d="M564.48,312.58c.32.11.65.2,1,.29C565.13,312.78,564.8,312.69,564.48,312.58Z"/><path class="cls-4" d="M555.39,307.11c.23.23.48.46.73.69C555.87,307.57,555.62,307.34,555.39,307.11Z"/><path class="cls-4" d="M555.28,307l-.71-.75Z"/><path class="cls-4" d="M562.18,311.72c.3.14.61.26.93.39C562.79,312,562.48,311.86,562.18,311.72Z"/><path class="cls-4" d="M563.28,312.17c.32.12.64.24,1,.34C563.92,312.41,563.6,312.29,563.28,312.17Z"/><path class="cls-4" d="M551.14,301.33c.17.32.34.63.52.94C551.48,302,551.31,301.65,551.14,301.33Z"/><path class="cls-5" d="M554.44,306.11l.13.15Z"/><path class="cls-5" d="M551.66,302.27l.09.16Z"/><path class="cls-5" d="M552.29,303.31l.11.16Z"/><path class="cls-5" d="M553,304.33a.35.35,0,0,0,0,.08A.35.35,0,0,1,553,304.33Z"/><path class="cls-5" d="M553.67,305.21l.1.12Z"/><path class="cls-5" d="M564.25,312.51l.23.07Z"/><path class="cls-5" d="M562.09,311.69l.09,0Z"/><path class="cls-5" d="M563.11,312.11l.17.06Z"/><path class="cls-5" d="M555.39,307.11l-.11-.1Z"/><path class="cls-5" d="M561,311.14l.19.1Z"/><path class="cls-3" d="M574.85,316.35a22.29,22.29,0,0,1,1.63-3.37c-1.7.41,11.82-8.17,10-8.17-.35,0-7.46-2.36-7.81-2.38-.06,0-8.8-3.32-8.86-3.32-.34,0-6.77-1.12-7.11-1.15h0c-1.19-.12,1.13.3,0,0,0,0-9.05,7.24-9,7.25-2.69,4.43,5,15.53.05,17.27A22.47,22.47,0,0,0,586.48,327,22.67,22.67,0,0,1,574.85,316.35Z"/><path class="cls-5" d="M559,310l0,0Z"/><path class="cls-5" d="M557,308.54l.15.13Z"/><path class="cls-5" d="M559.89,310.56l.17.1Z"/><path class="cls-5" d="M558,309.29l.14.11Z"/><path class="cls-5" d="M556.12,307.8l.07.07Z"/><path class="cls-4" d="M570.14,313.58h0Z"/><polygon class="cls-4" points="568.96 313.5 568.96 313.5 568.96 313.5 568.96 313.5"/><path class="cls-3" d="M547.26,302.87c-8.73,0-17.3,15.89-21,8.6a22.56,22.56,0,1,0,42.74,2,23.13,23.13,0,0,1-3.44-.61C561.56,319.4,555.41,302.87,547.26,302.87Z"/><path class="cls-3" d="M643.5,327c-3.26,8.48-14.2-8.26-23.8-8.26-8.73,0-13.54,17.77-17.29,10.48A22.55,22.55,0,1,0,643.5,327Z"/><path d="M623.45,314.67a22.43,22.43,0,0,0-8.5,1.66,21.73,21.73,0,0,0,1-2.2,22.56,22.56,0,0,0-20.05-12.29,21.9,21.9,0,0,0-2.44.14,22.08,22.08,0,0,0-1.22-2.87,22.5,22.5,0,0,0-39.3-1.42A22.59,22.59,0,0,0,537.87,299a22.42,22.42,0,0,0-14.43-5.25,22.18,22.18,0,0,0-4.79.52,18.32,18.32,0,0,0-31.42,4.93,18.33,18.33,0,0,0,15.69,10,22.46,22.46,0,0,0,28.92,9.29,22.37,22.37,0,0,0,12.95,5.2c.49,0,1,.05,1.48.05a22.41,22.41,0,0,0,7.45-1.27,22.64,22.64,0,0,0,11.8-9.59l0,0-.22-.06.27.08a23.13,23.13,0,0,0,3.44.61h0c.34,0,.67.06,1,.07h.17q.52,0,1.05,0a22.53,22.53,0,0,0,5.29-.63,22.29,22.29,0,0,0-1.63,3.37A22.67,22.67,0,0,0,586.48,327a22.45,22.45,0,0,0,16.92,0,21.89,21.89,0,0,0-1,2.21A22.51,22.51,0,0,0,643.5,327,22.55,22.55,0,0,0,623.45,314.67ZM553,304.33c-.21-.28-.41-.57-.6-.86h0q.29.43.6.87Zm.67.88c-.21-.26-.42-.53-.62-.8h0c.2.27.41.54.62.8Zm.77.9c-.15-.16-.28-.32-.42-.48l.42.48Zm.84.9-.71-.75q.34.38.72.75Zm1.71,1.53-.24-.2.24.2Zm.15.13h0l.22.17Zm1,.73h0l.13.09Zm2,1.26h0l.81.43Zm1.09.58.36.17-.36-.17Zm2,.87-.41-.17.41.17Z"/><ellipse class="cls-3" cx="650.18" cy="297.74" rx="3.31" ry="3.32"/><ellipse class="cls-3" cx="649.38" cy="292.18" rx="3.31" ry="3.32"/><ellipse class="cls-3" cx="649.51" cy="286.72" rx="3.31" ry="3.32"/><ellipse class="cls-3" cx="649.65" cy="282.95" rx="3.31" ry="3.32"/><ellipse class="cls-3" cx="649.91" cy="278.56" rx="3.31" ry="3.32"/><ellipse class="cls-3" cx="651.85" cy="273.35" rx="5.92" ry="5.94"/><ellipse class="cls-3" cx="677.49" cy="312.48" rx="3.32" ry="3.31" transform="translate(21.39 667.68) rotate(-53.19)"/><ellipse class="cls-3" cx="680.18" cy="307.54" rx="3.32" ry="3.31" transform="translate(26.42 667.85) rotate(-53.19)"/><ellipse class="cls-3" cx="683.55" cy="303.25" rx="3.32" ry="3.31" transform="translate(31.21 668.84) rotate(-53.19)"/><ellipse class="cls-3" cx="685.92" cy="300.31" rx="3.32" ry="3.31" transform="translate(34.51 669.56) rotate(-53.19)"/><ellipse class="cls-3" cx="688.76" cy="296.95" rx="3.32" ry="3.31" transform="translate(38.34 670.48) rotate(-53.19)"/><ellipse class="cls-3" cx="693.44" cy="293.95" rx="5.94" ry="5.92" transform="translate(42.62 673.02) rotate(-53.19)"/><path class="cls-3" d="M642.9,300.47a28.2,28.2,0,1,0,39.7,25.72c0-.13,0-.26,0-.39-3.54,1.61-11.09-22.28-15.23-22.28C652,303.52,660.79,311.19,642.9,300.47Z"/><path class="cls-3" d="M654.49,298a27.91,27.91,0,0,0-11.59,2.51,28.07,28.07,0,0,0,39.69,25.33A28.17,28.17,0,0,0,654.49,298Z"/><polyline class="cls-6" points="653.65 332.5 657.45 322.88 658.84 328.38 661.94 326.66 661.94 330.78 666.44 328.72 663.67 336.96"/><path class="cls-6" d="M672,326.2l7.86,2.5s-.39,3.94-4.6,2.41C670.58,329.39,672,326.2,672,326.2Z"/><path class="cls-6" d="M645.86,310.85l8.64,5.36s-1.67,4.46-6.24,1.41C643.15,314.19,645.86,310.85,645.86,310.85Z"/><rect class="cls-7" x="-3.05" width="1929.75" height="1085.39"/></g></g></svg>