<?xml version="1.0" encoding="utf-8"?>
<!-- Generator: Adobe Illustrator 24.0.1, SVG Export Plug-In . SVG Version: 6.00 Build 0)  -->
<svg version="1.1" id="Calque_1" xmlns="http://www.w3.org/2000/svg" xmlns:xlink="http://www.w3.org/1999/xlink" x="0px" y="0px"
	 viewBox="0 0 1920 1071.6" style="enable-background:new 0 0 1920 1071.6;" xml:space="preserve">
<style type="text/css">
	.st0{fill:url(#SVGID_1_);}
	.st1{fill:url(#SVGID_2_);}
	.st2{fill:#327976;}
	.st3{opacity:0.45;}
	.st4{fill:#2D6D68;}
	.st5{fill:#2A635E;}
	.st6{fill:#3F5256;}
	.st7{fill:#34464C;}
</style>
<title>fond2Plan de travail 4 copie 2</title>
<g id="Calque_6">
	
		<linearGradient id="SVGID_1_" gradientUnits="userSpaceOnUse" x1="497.68" y1="542.6295" x2="948.69" y2="542.6295" gradientTransform="matrix(1 0 0 -1 0 1071.7795)">
		<stop  offset="0" style="stop-color:#587372"/>
		<stop  offset="1" style="stop-color:#3C4D53"/>
	</linearGradient>
	<polygon class="st0" points="948.7,358.7 497.7,357.5 497.7,700.8 948.4,444.7 	"/>
	
		<linearGradient id="SVGID_2_" gradientUnits="userSpaceOnUse" x1="948.69" y1="542.4145" x2="1393.28" y2="542.4145" gradientTransform="matrix(1 0 0 -1 0 1071.7795)">
		<stop  offset="0" style="stop-color:#5A6A70"/>
		<stop  offset="1" style="stop-color:#34464C"/>
	</linearGradient>
	<polygon class="st1" points="949,358.7 1393.3,357.5 1386.4,701.3 948.7,444.7 	"/>
	<path class="st2" d="M946,368L497.7,618.9v81.9L948,1066.3l438.1-365l2.2-82.4L946,368z"/>
	<g class="st3">
		<path class="st4" d="M870.3,558.7L834,536l11.5-7.3l-7.8-4.9l35.1-22.9l8.8,7.2l10.1-5.1l33.4,23.2l-9.2,5.5l8.7,5.8l-36.9,20.9
			l-7.8-5.8L870.3,558.7z M839.7,535.9l30.6,19.2l9.8-6l7.8,5.8l31-17.6l-8.6-5.8l9.3-5.6l-28.2-19.6l-10.2,5.2l-8.6-7l-29.3,19.1
			l7.8,4.9L839.7,535.9z"/>
		<path class="st5" d="M870.3,559.3L833.1,536l11.5-7.3l-7.8-4.9l36-23.5l8.8,7.2l10-5.1l34.4,23.8l-9.2,5.5l8.8,5.8l-37.9,21.5
			l-7.8-5.8L870.3,559.3z M835,536l35.3,22.2l9.7-6l7.8,5.8l35.9-20.4l-8.7-5.8l9.2-5.5l-32.5-22.6l-10.1,5.1l-8.7-7.2l-34.1,22.3
			l7.8,4.9L835,536z M870.3,555.8L838.7,536l11.5-7.3l-7.8-4.9l30.3-19.8l8.6,7.1l10.2-5.1l29,20.2l-9.3,5.6l8.6,5.8l-32,18.1
			l-7.8-5.8L870.3,555.8z M840.6,535.9l29.7,18.6l9.8-6l7.8,5.8l30-17l-8.6-5.8l9.3-5.6l-27.3-19l-10.2,5.2l-8.5-7l-28.4,18.5
			l7.8,4.9L840.6,535.9z"/>
		<polygon class="st5" points="857.2,529.9 880.4,516.2 902.4,530.2 879.5,543.9 		"/>
		<path class="st4" d="M879.5,545.7l-25.1-15.8l26.1-15.4l24.8,15.8L879.5,545.7z M860.1,530l19.4,12.2l20-12L880.4,518L860.1,530z"
			/>
	</g>
	<g class="st3">
		<path class="st4" d="M799,603.7l-36.2-22.8l11.5-7.3l-7.8-4.9l35.1-22.9l8.8,7.2l10-5.1l33.4,23.2l-9.2,5.5l8.7,5.8l-36.9,20.9
			l-7.8-5.8L799,603.7z M768.4,580.9l30.6,19.2l9.8-6l7.8,5.8l31-17.6l-8.7-5.8l9.3-5.6l-28.1-19.6l-10.2,5.1l-8.6-7l-29.3,19.2
			l7.8,4.9L768.4,580.9z"/>
		<path class="st5" d="M799,604.2l-37.1-23.3l11.5-7.3l-7.8-4.9l36-23.5l8.8,7.2l10-5.1l34.3,23.8l-9.2,5.5l8.8,5.8l-37.9,21.5
			l-7.8-5.8L799,604.2z M763.8,580.9l35.3,22.2l9.7-6l7.8,5.8l35.9-20.4l-8.7-5.8l9.2-5.5l-32.5-22.6l-10.1,5.1l-8.7-7.2l-34.1,22.3
			l7.8,4.9L763.8,580.9z M799.1,600.7l-31.6-19.8l11.5-7.3l-7.8-4.9l30.3-19.8l8.5,7.1l10.2-5.1l29,20.2l-9.3,5.6l8.6,5.8l-32,18.1
			l-7.8-5.8L799.1,600.7z M769.4,580.9l29.7,18.7l9.8-6.1l7.8,5.8l30-17l-8.6-5.8l9.3-5.6L820.1,552l-10.2,5.2l-8.5-7L773,568.7
			l7.8,4.9L769.4,580.9z"/>
		<polygon class="st5" points="786,574.9 809.2,561.2 831.2,575.2 808.3,588.9 		"/>
		<path class="st4" d="M808.2,590.6l-25.1-15.8l26.1-15.4l24.8,15.8L808.2,590.6z M788.9,574.9l19.4,12.2l20-12l-19.2-12.2
			L788.9,574.9z"/>
	</g>
	<g class="st3">
		<path class="st4" d="M863.4,647.6l-36.2-22.8l11.5-7.3l-7.8-4.9l35.1-22.9l8.8,7.2l10-5.1l33.4,23.2l-9.2,5.5l8.7,5.8l-36.9,20.9
			l-7.8-5.8L863.4,647.6z M832.8,624.8l30.6,19.2l9.8-6l7.8,5.8l31-17.6l-8.6-5.8l9.3-5.6l-28.2-19.6l-10.2,5.2l-8.6-7l-29.3,19.1
			l7.8,4.9L832.8,624.8z"/>
		<path class="st5" d="M863.4,648.2l-37.2-23.3l11.5-7.3l-7.7-4.9l36-23.5l8.8,7.2l10-5.1l34.3,23.8l-9.2,5.5l8.8,5.8L880.8,648
			l-7.8-5.8L863.4,648.2z M828.1,624.8l35.3,22.2l9.7-6l7.8,5.8l35.9-20.4l-8.7-5.8l9.2-5.5l-32.5-22.6l-10.1,5.1l-8.7-7.2
			l-34.1,22.3l7.8,4.9L828.1,624.8z M863.4,644.6l-31.5-19.8l11.5-7.3l-7.8-4.9l30.3-19.8l8.6,7.1l10.2-5.2l29,20.2l-9.3,5.6
			l8.6,5.8l-32,18.1l-7.8-5.8L863.4,644.6z M833.8,624.8l29.7,18.6l9.8-6.1l7.8,5.8l30-17l-8.6-5.8l9.3-5.6l-27.3-19l-10.2,5.2
			l-8.5-7l-28.4,18.5l7.8,4.9L833.8,624.8z"/>
		<polygon class="st5" points="850.3,618.8 873.6,605.1 895.6,619.1 872.6,632.8 		"/>
		<path class="st4" d="M872.6,634.5l-25.1-15.8l26.1-15.4l24.8,15.8L872.6,634.5z M853.2,618.8l19.4,12.2l20-12l-19.2-12.2
			L853.2,618.8z"/>
	</g>
	<g class="st3">
		<path class="st4" d="M1011.5,651.7l-36.2-22.8l11.5-7.3l-7.8-4.9l35.1-22.9l8.8,7.2l10.1-5.1l33.4,23.2l-9.2,5.5l8.7,5.8
			l-36.9,20.9l-7.8-5.8L1011.5,651.7z M980.9,628.9l30.6,19.2l9.8-6l7.8,5.8l31-17.6l-8.6-5.8l9.3-5.6l-28.2-19.6l-10.2,5.2l-8.6-7
			l-29.3,19.2l7.8,4.9L980.9,628.9z"/>
		<path class="st5" d="M1011.5,652.2l-37.2-23.3l11.5-7.3l-7.8-4.9l36-23.5l8.8,7.2l10-5.1l34.3,23.8l-9.2,5.5l8.8,5.8l-37.9,21.5
			l-7.8-5.8L1011.5,652.2z M976.2,628.9l35.3,22.2l9.7-6l7.8,5.8l35.9-20.4l-8.7-5.8l9.2-5.5l-32.5-22.6l-10.1,5.1l-8.7-7.2
			l-34.1,22.3l7.8,4.9L976.2,628.9z M1011.5,648.7L980,628.9l11.5-7.3l-7.8-4.9l30.3-19.8l8.6,7.1l10.2-5.1l29,20.2l-9.3,5.6
			l8.6,5.8l-32,18.1l-7.8-5.8L1011.5,648.7z M981.8,628.9l29.7,18.7l9.8-6.1l7.8,5.8l30-17l-8.6-5.8l9.3-5.6l-27.3-18.9l-10.2,5.2
			l-8.5-7l-28.4,18.5l7.8,4.9L981.8,628.9z"/>
		<polygon class="st5" points="998.5,622.9 1021.7,609.2 1043.7,623.2 1020.7,636.9 		"/>
		<path class="st4" d="M1020.7,638.6l-25.1-15.8l26.1-15.4l24.8,15.8L1020.7,638.6z M1001.3,622.9l19.4,12.2l20-12l-19.2-12.2
			L1001.3,622.9z"/>
	</g>
	<g class="st3">
		<path class="st4" d="M936.7,603.7l-36.2-22.8l11.5-7.3l-7.8-4.9l35.1-22.9l8.7,7.2l10.1-5.1l33.4,23.2l-9.2,5.5l8.7,5.8
			l-36.9,20.9l-7.8-5.8L936.7,603.7z M906.1,580.9l30.6,19.2l9.8-6l7.8,5.8l31-17.6l-8.6-5.8l9.3-5.6l-28.2-19.6l-10.2,5.2l-8.6-7
			l-29.3,19.2l7.8,4.9L906.1,580.9z"/>
		<path class="st5" d="M936.7,604.2l-37.2-23.3l11.5-7.3l-7.8-4.9l36-23.5l8.8,7.2l10-5.1l34.3,23.8l-9.2,5.5l8.8,5.8L954,604.1
			l-7.8-5.8L936.7,604.2z M901.5,580.9l35.3,22.2l9.7-6l7.8,5.8l35.9-20.4l-8.7-5.8l9.2-5.5l-32.5-22.6l-10.1,5.1l-8.7-7.2
			l-34.1,22.3l7.8,4.9L901.5,580.9z M936.8,600.7l-31.5-19.8l11.5-7.3l-7.8-4.9l30.3-19.8l8.6,7.1l10.2-5.1l29,20.2l-9.3,5.6
			l8.6,5.8l-32,18.1l-7.8-5.8L936.8,600.7z M907.1,580.9l29.7,18.7l9.8-6.1l7.8,5.8l30-17l-8.6-5.8l9.3-5.6L957.8,552l-10.2,5.2
			l-8.5-7l-28.4,18.5l7.8,4.9L907.1,580.9z"/>
		<polygon class="st5" points="923.7,574.9 946.9,561.2 968.9,575.2 946,588.9 		"/>
		<path class="st4" d="M945.9,590.6l-25.2-15.8l26.1-15.4l24.8,15.8L945.9,590.6z M926.6,574.9l19.4,12.2l20-12l-19.2-12.2
			L926.6,574.9z"/>
	</g>
	<g class="st3">
		<path class="st4" d="M1016.3,558.2l-36.2-22.7l11.5-7.3l-7.8-4.9l35.1-22.9l8.8,7.2l10-5.1l33.4,23.2l-9.2,5.5l8.7,5.8l-36.9,20.9
			l-7.7-5.8L1016.3,558.2z M985.7,535.5l30.6,19.2l9.8-6l7.8,5.8l31-17.6l-8.6-5.8l9.3-5.6l-28.2-19.6l-10.2,5.2l-8.6-7l-29.3,19.1
			l7.8,4.9L985.7,535.5z"/>
		<path class="st5" d="M1016.3,558.8l-37.2-23.3l11.5-7.3l-7.8-4.9l36-23.5l8.8,7.2l10-5.1l34.3,23.8l-9.2,5.5l8.8,5.8l-37.9,21.5
			l-7.6-5.7L1016.3,558.8z M981.1,535.5l35.3,22.2l9.7-6l7.8,5.8l35.9-20.4l-8.7-5.8l9.2-5.6l-32.6-22.6l-10.1,5.1l-8.7-7.2
			l-34.1,22.3l7.8,4.9L981.1,535.5z M1016.4,555.3l-31.5-19.8l11.5-7.3l-7.8-4.9l30.3-19.8l8.6,7.1l10.2-5.1l29,20.2l-9.3,5.6
			l8.6,5.8l-32,18.1l-7.8-5.8L1016.4,555.3z M986.7,535.5l29.7,18.6l9.8-6.1l7.8,5.8l30-17l-8.6-5.8l9.3-5.6l-27.3-19l-10.2,5.2
			l-8.5-7l-28.4,18.5l7.8,4.9L986.7,535.5z"/>
		<polygon class="st5" points="1003.3,529.5 1026.5,515.8 1048.5,529.8 1025.6,543.5 		"/>
		<path class="st4" d="M1025.5,545.2l-25.1-15.8l26.1-15.5l24.8,15.8L1025.5,545.2z M1006.2,529.5l19.4,12.2l20.1-12l-19.2-12.2
			L1006.2,529.5z"/>
	</g>
	<g class="st3">
		<path class="st4" d="M1083.7,608.9l-36.2-22.8l11.5-7.3l-7.8-4.9l35.1-22.9l8.8,7.2l10-5.1l33.4,23.2l-9.2,5.5l8.7,5.8l-36.9,20.9
			l-7.8-5.8L1083.7,608.9z M1053.1,586.1l30.6,19.2l9.8-6l7.8,5.8l31-17.6l-8.6-5.8l9.3-5.6l-28.2-19.6l-10.2,5.2l-8.6-7l-29.3,19.2
			l7.8,4.9L1053.1,586.1z"/>
		<path class="st5" d="M1083.7,609.5l-37.2-23.3l11.5-7.3l-7.8-4.9l36-23.5l8.8,7.2l10-5.1l34.3,23.8l-9.2,5.5l8.8,5.8l-37.9,21.5
			l-7.8-5.8L1083.7,609.5z M1048.4,586.1l35.3,22.2l9.7-6l7.8,5.8l35.9-20.3l-8.7-5.8l9.2-5.5l-32.5-22.6l-10.1,5.1l-8.7-7.2
			l-34.1,22.3l7.8,4.9L1048.4,586.1z M1083.7,605.9l-31.6-19.8l11.5-7.3l-7.8-4.9l30.3-19.8l8.6,7.1l10.2-5.2l29,20.2l-9.3,5.6
			l8.6,5.8l-32,18.1l-7.8-5.8L1083.7,605.9z M1054,586.1l29.7,18.6l9.8-6l7.8,5.8l30-17l-8.6-5.7l9.3-5.6l-27.3-19l-10.2,5.2l-8.5-7
			l-28.4,18.5l7.8,4.9L1054,586.1z"/>
		<polygon class="st5" points="1070.6,580.1 1093.8,566.4 1115.8,580.4 1092.9,594.1 		"/>
		<path class="st4" d="M1092.9,595.8l-25.1-15.8l26.1-15.4l24.8,15.8L1092.9,595.8z M1073.5,580.1l19.4,12.2l20-12l-19.2-12.2
			L1073.5,580.1z"/>
	</g>
	<g class="st3">
		<path class="st4" d="M863,738l-36.2-22.7l11.5-7.3l-7.8-5l35.1-22.9l8.8,7.2l10-5.1l33.4,23.2l-9.2,5.6l8.7,5.8l-36.9,20.9
			l-7.8-5.8L863,738z M832.4,715.2l30.6,19.2l9.8-6l7.8,5.8l31-17.6l-8.7-5.8l9.3-5.6l-28.2-19.6l-10.1,5.2l-8.6-7L836.1,703
			l7.8,4.9L832.4,715.2z"/>
		<path class="st5" d="M863,738.6l-37.2-23.3l11.5-7.3l-7.8-4.9l36-23.5l8.8,7.2l10-5.1l34.3,23.8l-9.1,5.5l8.8,5.8l-37.9,21.5
			l-7.8-5.8L863,738.6z M827.7,715.2l35.3,22.2l9.7-6l7.8,5.8l35.9-20.4l-8.7-5.8l9.2-5.6l-32.5-22.6l-10.1,5.1l-8.7-7.2L831.4,703
			l7.8,4.9L827.7,715.2z M863.1,735l-31.6-19.8l11.5-7.3l-7.9-4.9l30.3-19.8l8.6,7.1l10.2-5.2l29,20.2l-9.3,5.6l8.6,5.8l-32,18.1
			l-7.8-5.8L863.1,735z M833.4,715.2l29.7,18.6l9.8-6.1l7.8,5.8l30-17l-8.6-5.8l9.3-5.6l-27.3-19l-10.2,5.2l-8.5-7L837,703l7.8,4.9
			L833.4,715.2z"/>
		<polygon class="st5" points="850,709.2 873.2,695.5 895.2,709.5 872.3,723.2 		"/>
		<path class="st4" d="M872.2,725l-25.1-15.8l26.1-15.4l24.8,15.8L872.2,725z M852.9,709.3l19.4,12.2l20-12l-19.2-12.2L852.9,709.3z
			"/>
	</g>
	<g class="st3">
		<path class="st4" d="M935.2,695.2L899,672.4l11.5-7.3l-7.8-4.9l35.1-22.9l8.8,7.2l10.1-5.1l33.4,23.2l-9.2,5.5l8.7,5.8l-36.9,21
			l-7.8-5.8L935.2,695.2z M904.6,672.4l30.6,19.2l9.8-6l7.8,5.8l31-17.6l-8.6-5.8l9.3-5.6L956.4,643l-10.2,5.2l-8.6-7l-29.4,19.1
			l7.8,4.9L904.6,672.4z"/>
		<path class="st5" d="M935.2,695.8l-37.2-23.3l11.5-7.3l-7.8-4.9l36-23.5l8.8,7.2l10-5.1l34.3,23.8l-9.2,5.5l8.8,5.8l-37.9,21.5
			l-7.8-5.8L935.2,695.8z M900,672.4l35.3,22.2l9.7-6l7.8,5.8l35.9-20.4l-8.7-5.8l9.2-5.6L956.5,640l-10.1,5.1l-8.7-7.1l-34.1,22.3
			l7.8,4.9L900,672.4z M935.3,692.2l-31.5-19.8l11.5-7.3l-7.8-4.9l30.3-19.8l8.6,7.1l10.2-5.2l29,20.2l-9.3,5.6l8.6,5.8l-32,18.1
			l-7.8-5.8L935.3,692.2z M905.6,672.4l29.7,18.6l9.7-6.1l7.8,5.8l30-17l-8.6-5.8l9.3-5.6l-27.3-19l-10.2,5.2l-8.5-7l-28.4,18.5
			l7.8,4.9L905.6,672.4z"/>
		<polygon class="st5" points="922.2,666.4 945.4,652.7 967.4,666.7 944.5,680.4 		"/>
		<path class="st4" d="M944.4,682.2l-25.2-15.8l26.1-15.4l24.8,15.8L944.4,682.2z M925,666.5l19.4,12.2l20-12l-19.2-12.2L925,666.5z
			"/>
	</g>
	<g class="st3">
		<path class="st4" d="M930.8,790.1l-36.2-22.8L906,760l-7.8-4.9l35.1-22.9l8.8,7.2l10-5.1l33.4,23.2l-9.2,5.5l8.7,5.8l-36.9,20.9
			l-7.8-5.8L930.8,790.1z M900.2,767.3l30.6,19.2l9.8-6l7.8,5.8l31-17.6l-8.7-5.8l9.3-5.6l-28.2-19.6l-10.2,5.2l-8.6-7l-29.3,19.1
			l7.8,4.9L900.2,767.3z"/>
		<path class="st5" d="M930.8,790.7l-37.2-23.3l11.5-7.3l-7.8-4.9l36-23.5l8.8,7.2l10-5.1l34.3,23.8l-9.2,5.5l8.8,5.9l-37.9,21.5
			l-7.8-5.8L930.8,790.7z M895.5,767.3l35.3,22.2l9.7-6l7.8,5.8l35.9-20.4l-8.7-5.8l9.2-5.5l-32.5-22.6L942,740l-8.7-7.2l-34.1,22.3
			l7.8,4.9L895.5,767.3z M930.8,787.1l-31.5-19.8l11.5-7.3l-7.8-4.9l30.3-19.8l8.6,7.1l10.2-5.2l29,20.2l-9.2,5.6l8.6,5.8l-32,18.1
			l-7.8-5.8L930.8,787.1z M901.1,767.3l29.7,18.6l9.8-6l7.8,5.8l30-17l-8.6-5.8l9.3-5.6l-27.3-19l-10.2,5.2l-8.5-7l-28.4,18.5
			l7.8,4.9L901.1,767.3z"/>
		<polygon class="st5" points="917.7,761.3 940.9,747.6 962.9,761.6 940,775.3 		"/>
		<path class="st4" d="M940,777l-25.1-15.8l26.1-15.4l24.8,15.8L940,777z M920.6,761.3l19.4,12.2l20-12l-19.2-12.2L920.6,761.3z"/>
	</g>
	<g class="st3">
		<path class="st4" d="M726.2,646.3L690,623.6l11.5-7.3l-7.8-4.9l35.1-22.9l8.8,7.2l10-5.1l33.4,23.2l-9.2,5.5l8.7,5.8l-36.9,20.9
			l-7.8-5.8L726.2,646.3z M695.6,623.6l30.6,19.2l9.8-6l7.8,5.8l31-17.6l-8.6-5.8l9.3-5.6l-28.2-19.6l-10.2,5.2l-8.6-7l-29.3,19.2
			l7.8,4.9L695.6,623.6z"/>
		<path class="st5" d="M726.2,646.9l-37.2-23.3l11.5-7.3l-7.8-4.9l36-23.5l8.8,7.2l10-5.1l34.4,23.8l-9.2,5.5l8.8,5.8l-37.9,21.5
			l-7.8-5.7L726.2,646.9z M691,623.6l35.3,22.2l9.7-6l7.8,5.8l35.9-20.4l-8.7-5.8l9.2-5.5l-32.5-22.6l-10.1,5.1l-8.7-7.2l-34.1,22.3
			l7.8,4.9L691,623.6z M726.3,643.4l-31.6-19.8l11.5-7.3l-7.8-4.9l30.3-19.8l8.6,7l10.2-5.1l29,20.2l-9.3,5.6l8.6,5.8l-32,18.1
			l-7.8-5.8L726.3,643.4z M696.6,623.5l29.7,18.7l9.8-6.1l7.8,5.9l30-17l-8.6-5.8l9.3-5.6l-27.3-19l-10.2,5.2l-8.5-7l-28.4,18.5
			l7.8,4.9L696.6,623.5z"/>
		<polygon class="st5" points="713.2,617.5 736.4,603.8 758.4,617.8 735.5,631.5 		"/>
		<path class="st4" d="M735.4,633.3l-25.2-15.8l26.1-15.4l24.8,15.8L735.4,633.3z M716.1,617.6l19.4,12.2l20-12l-19.2-12.2
			L716.1,617.6z"/>
	</g>
	<g class="st3">
		<path class="st4" d="M797.9,693.5l-36.2-22.8l11.5-7.3l-7.8-4.9l35.1-22.9l8.8,7.2l10-5.1l33.4,23.2l-9.2,5.5l8.7,5.8l-36.9,20.9
			l-7.8-5.8L797.9,693.5z M767.3,670.7l30.6,19.2l9.8-6l7.8,5.8l31-17.6l-8.6-5.8l9.3-5.6L819,641.2l-10.2,5.2l-8.6-7l-29.3,19.1
			l7.8,4.9L767.3,670.7z"/>
		<path class="st5" d="M797.9,694l-37.2-23.3l11.5-7.3l-7.8-4.9l36-23.5l8.8,7.2l10-5.1l34.4,23.9l-9.2,5.5l8.8,5.8l-37.9,21.5
			l-7.8-5.8L797.9,694z M762.6,670.7l35.3,22.2l9.7-6l7.8,5.8l35.9-20.4l-8.7-5.8l9.2-5.5l-32.5-22.6l-10.1,5.1l-8.7-7.2l-34.1,22.3
			l7.8,4.9L762.6,670.7z M797.9,690.5l-31.5-19.8l11.5-7.3l-7.8-4.9l30.3-19.8l8.6,7.1l10.2-5.2l29,20.2l-9.3,5.6l8.6,5.8l-32,18.1
			l-7.8-5.8L797.9,690.5z M768.2,670.7l29.7,18.6l9.8-6.1l7.8,5.8l30-17l-8.6-5.8l9.3-5.6l-27.3-19l-10.2,5.3l-8.5-7l-28.4,18.5
			l7.8,4.9L768.2,670.7z"/>
		<polygon class="st5" points="784.8,664.7 808.1,651 830,665 807.1,678.7 		"/>
		<path class="st4" d="M807.1,680.4L782,664.7l26.1-15.4l24.8,15.8L807.1,680.4z M787.7,664.7l19.4,12.2l20-12L808,652.7
			L787.7,664.7z"/>
	</g>
	<g class="st3">
		<path class="st4" d="M780.8,780.9l-36.2-22.8l11.4-7.3l-7.7-4.9l35.1-22.9l8.8,7.2l10-5.1l33.4,23.2l-9.2,5.6l8.7,5.8l-36.9,20.9
			l-7.8-5.8L780.8,780.9z M750.2,758.2l30.6,19.2l9.8-6l7.8,5.8l31-17.6l-8.6-5.8l9.3-5.6l-28.2-19.6l-10.2,5.2l-8.6-7L753.8,746
			l7.8,4.9L750.2,758.2z"/>
		<path class="st5" d="M780.8,781.5l-37.1-23.3l11.5-7.3l-7.8-4.9l36-23.5l8.8,7.2l10-5.1l34.3,23.8l-9.1,5.5l8.8,5.8l-37.9,21.5
			l-7.8-5.8L780.8,781.5z M745.5,758.2l35.3,22.2l9.7-6l7.8,5.8l35.9-20.4l-8.7-5.8l9.2-5.5l-32.5-22.6l-10.1,5l-8.7-7.2L749.2,746
			l7.8,4.9L745.5,758.2z M780.8,778l-31.5-19.8l11.5-7.3l-7.8-4.9l30.3-19.8l8.6,7.1l10.2-5.2l29,20.2l-9.3,5.6l8.6,5.8l-32,18.1
			l-7.8-5.8L780.8,778z M751.1,758.2l29.7,18.7l9.8-6.1l7.8,5.8l30-17l-8.6-5.8l9.3-5.6l-27.3-19l-10.2,5.2l-8.5-7L754.7,746
			l7.8,4.9L751.1,758.2z"/>
		<polygon class="st5" points="767.7,752.2 790.9,738.5 812.9,752.5 790,766.2 		"/>
		<path class="st4" d="M790,767.9l-25.2-15.8l26.2-15.4l24.8,15.8L790,767.9z M770.6,752.2l19.4,12.2l20-12l-19.2-12.2L770.6,752.2z
			"/>
	</g>
	<g class="st3">
		<path class="st4" d="M848.5,833l-36.2-22.7l11.5-7.3l-7.8-4.9l35.1-22.9l8.8,7.2l10-5.1l33.4,23.2l-9.2,5.5l8.7,5.8l-36.9,20.9
			l-7.8-5.8L848.5,833z M817.9,810.2l30.6,19.2l9.8-6l7.8,5.8l31-17.6l-8.6-5.8l9.3-5.6l-28.2-19.6l-10.2,5.2l-8.6-7l-29.3,19.1
			l7.8,4.9L817.9,810.2z"/>
		<path class="st5" d="M848.5,833.6l-37.2-23.3l11.5-7.3l-7.8-4.9l36-23.5l8.8,7.2l10-5.1l34.3,23.8l-9.2,5.5l8.8,5.8l-37.9,21.5
			l-7.8-5.8L848.5,833.6z M813.2,810.3l35.3,22.2l9.7-6l7.8,5.8l35.9-20.4l-8.7-5.8l9.2-5.6l-32.5-22.6l-10.1,5.1l-8.8-7.2
			l-34.1,22.3l7.8,4.9L813.2,810.3z M848.5,830.1L817,810.3l11.4-7.3l-7.8-4.9l30.3-19.8l8.6,7.1l10.2-5.2l29,20.2l-9.3,5.6l8.6,5.8
			l-32,18.1l-7.8-5.8L848.5,830.1z M818.8,810.3l29.7,18.6l9.8-6.1l7.8,5.8l30-17l-8.6-5.8l9.3-5.6l-27.3-19l-10.2,5.2l-8.5-7
			L822.5,798l7.8,4.9L818.8,810.3z"/>
		<polygon class="st5" points="835.5,804.3 858.7,790.6 880.7,804.5 857.7,818.3 		"/>
		<path class="st4" d="M857.7,820l-25.2-15.8l26.1-15.4l24.8,15.8L857.7,820z M838.3,804.3l19.4,12.2l20-12l-19.2-12.2L838.3,804.3z
			"/>
	</g>
	<g class="st3">
		<path class="st4" d="M644,689.3l-36.2-22.8l11.5-7.3l-7.8-4.9l35.1-22.9l8.8,7.2l10.1-5.1l33.4,23.2l-9.2,5.5l8.7,5.8l-36.9,20.9
			l-7.8-5.8L644,689.3z M613.4,666.5l30.6,19.2l9.8-6l7.8,5.8l31-17.6l-8.6-5.8l9.3-5.6L665.1,637l-10.2,5.2l-8.6-7L617,654.3
			l7.8,4.9L613.4,666.5z"/>
		<path class="st5" d="M644,689.9l-37.2-23.3l11.5-7.3l-7.8-4.9l36-23.5l8.8,7.2l10-5.1l34.3,23.8l-9.2,5.5l8.8,5.8l-37.9,21.5
			l-7.8-5.8L644,689.9z M608.7,666.5l35.3,22.2l9.7-6l7.8,5.8l35.9-20.4l-8.7-5.8l9.2-5.5l-32.5-22.6l-10.1,5.1l-8.7-7.2l-34.1,22.3
			l7.8,4.9L608.7,666.5z M644,686.3l-31.5-19.8l11.5-7.3l-7.8-4.9l30.3-19.8l8.6,7.1l10.2-5.2l29,20.2l-9.3,5.6l8.6,5.8l-32,18.1
			l-7.8-5.8L644,686.3z M614.3,666.5l29.7,18.6l9.8-6l7.8,5.8l30-17l-8.6-5.7l9.3-5.6l-27.3-19l-10.2,5.2l-8.5-7l-28.4,18.5l7.8,4.9
			L614.3,666.5z"/>
		<polygon class="st5" points="630.9,660.5 654.1,646.8 676.1,660.8 653.2,674.5 		"/>
		<path class="st4" d="M653.2,676.3L628,660.5l26.1-15.4l24.9,15.8L653.2,676.3z M633.8,660.6l19.4,12.2l20-12l-19.2-12.2
			L633.8,660.6z"/>
	</g>
	<g class="st3">
		<path class="st4" d="M715.7,736.4l-36.2-22.8l11.5-7.3l-7.8-4.9l35.1-22.9l8.8,7.2l10-5.1l33.4,23.2l-9.2,5.5l8.7,5.8L733,736.2
			l-7.8-5.8L715.7,736.4z M685.1,713.6l30.6,19.2l9.8-6l7.8,5.8l31-17.6l-8.6-5.8l9.3-5.6l-28.2-19.6l-10.2,5.2l-8.6-7l-29.3,19.2
			l7.8,4.9L685.1,713.6z"/>
		<path class="st5" d="M715.7,737l-37.2-23.3l11.5-7.3l-7.8-4.9l36-23.5l8.8,7.2l10-5.1l34.3,23.8l-9.2,5.5l8.8,5.8L733,736.8
			l-7.8-5.8L715.7,737z M680.4,713.7l35.3,22.2l9.7-6l7.8,5.8l35.9-20.3l-8.7-5.8l9.2-5.5L737,681.3l-10.1,5.1l-8.7-7.2l-34.1,22.3
			l7.8,4.9L680.4,713.7z M715.7,733.5l-31.5-19.8l11.5-7.3l-7.8-4.9l30.2-19.8l8.6,7.1l10.2-5.1l29,20.2l-9.3,5.6l8.6,5.8l-32,18.1
			l-7.8-5.8L715.7,733.5z M686,713.7l29.7,18.7l9.8-6.1l7.8,5.8l30-17l-8.6-5.8l9.3-5.6l-27.3-19l-10.2,5.2l-8.5-7l-28.4,18.5
			l7.8,4.9L686,713.7z"/>
		<polygon class="st5" points="702.6,707.7 725.8,694 747.8,707.9 724.9,721.6 		"/>
		<path class="st4" d="M724.9,723.4l-25.2-15.8l26.1-15.4l24.8,15.8L724.9,723.4z M705.5,707.7l19.4,12.2l20-12l-19.2-12.2
			L705.5,707.7z"/>
	</g>
	<g class="st3">
		<path class="st4" d="M705.7,827.6l-36.2-22.8l11.5-7.3l-7.8-4.9l35.1-22.9l8.8,7.2l10-5.1l33.4,23.2l-9.2,5.5l8.7,5.8L723,827.5
			l-7.8-5.8L705.7,827.6z M675,804.9l30.6,19.2l9.8-6l7.8,5.8l31-17.6l-8.6-5.8l9.3-5.6l-28.2-19.6l-10.2,5.2l-8.6-7l-29.3,19.2
			l7.8,4.9L675,804.9z"/>
		<path class="st5" d="M705.6,828.2l-37.2-23.3l11.5-7.3l-7.8-4.9l36-23.5l8.8,7.2l10-5.1l34.3,23.8l-9.2,5.5l8.8,5.8L723,828
			l-7.8-5.8L705.6,828.2z M670.4,804.9l35.3,22.1l9.7-6l7.8,5.8l35.9-20.3l-8.7-5.8l9.2-5.5L727,772.5l-10.1,5.1l-8.7-7.2L674,792.7
			l7.8,4.9L670.4,804.9z M705.7,824.7l-31.5-19.8l11.5-7.3l-7.8-4.9l30.3-19.8l8.6,7l10.2-5.1l29,20.2l-9.3,5.6l8.6,5.8l-32,18.1
			l-7.8-5.8L705.7,824.7z M676,804.9l29.7,18.6l9.8-6.1l7.8,5.8l30-17l-8.6-5.8l9.3-5.6L726.7,776l-10.2,5.2l-8.5-7l-28.4,18.5
			l7.8,4.9L676,804.9z"/>
		<polygon class="st5" points="692.6,798.9 715.8,785.2 737.8,799.1 714.9,812.8 		"/>
		<path class="st4" d="M714.8,814.6l-25.1-15.8l26.1-15.4l24.8,15.8L714.8,814.6z M695.5,798.9l19.4,12.2l20-12l-19.2-12.2
			L695.5,798.9z"/>
	</g>
	<g class="st3">
		<path class="st4" d="M773.4,879.7L737.2,857l11.5-7.3l-7.8-4.9l35.1-22.9l8.8,7.2l10-5.1l33.4,23.2l-9.2,5.5l8.7,5.8l-36.9,20.9
			l-7.8-5.8L773.4,879.7z M742.8,857l30.6,19.2l9.8-6l7.8,5.8l31-17.6l-8.6-5.8l9.3-5.6l-28.2-19.6l-10.2,5.2l-8.6-7l-29.3,19.1
			l7.8,4.9L742.8,857z"/>
		<path class="st5" d="M773.4,880.3L736.2,857l11.5-7.3l-7.8-4.9l36.1-23.6l8.8,7.2l10-5.1l34.3,23.8l-9.2,5.5l8.8,5.8l-37.9,21.5
			l-7.8-5.8L773.4,880.3z M738.1,857l35.3,22.2l9.7-6l7.8,5.8l35.9-20.4l-8.7-5.8l9.2-5.6l-32.5-22.6l-10.1,5.1l-8.7-7.2l-34.1,22.3
			l7.8,4.9L738.1,857z M773.4,876.8L741.8,857l11.5-7.3l-7.8-4.9l30.3-19.8l8.6,7.1l10.2-5.2l29,20.2l-9.3,5.6l8.6,5.8L791,876.5
			l-7.8-5.8L773.4,876.8z M743.7,857l29.7,18.6l9.8-6.1l7.8,5.8l30-17l-8.6-5.8l9.3-5.6l-27.3-19l-10.2,5.2l-8.5-7l-28.4,18.5
			l7.8,4.9L743.7,857z"/>
		<polygon class="st5" points="760.3,851 783.5,837.2 805.5,851.2 782.6,864.9 		"/>
		<path class="st4" d="M782.6,866.7l-25.1-15.8l26.1-15.4l24.8,15.8L782.6,866.7z M763.2,851l19.4,12.2l20-12L783.5,839L763.2,851z"
			/>
	</g>
	<g class="st3">
		<path class="st4" d="M568.8,736l-36.2-22.8l11.5-7.3l-7.8-4.9l35.1-22.9l8.8,7.2l10-5.1l33.4,23.2l-9.2,5.5l8.7,5.8l-36.9,20.9
			l-7.8-5.8L568.8,736z M538.2,713.2l30.6,19.2l9.8-6l7.8,5.8l31-17.6l-8.6-5.8l9.3-5.6L590,683.7l-10.2,5.2l-8.6-7L541.9,701
			l7.8,4.9L538.2,713.2z"/>
		<path class="st5" d="M568.8,736.6l-37.2-23.3l11.5-7.3l-7.8-4.9l36-23.5l8.8,7.2l10-5.1l34.3,23.8l-9.1,5.5l8.8,5.8l-37.9,21.5
			l-7.8-5.8L568.8,736.6z M533.6,713.2l35.3,22.2l9.7-6l7.8,5.8l35.9-20.4l-8.7-5.8l9.2-5.5l-32.5-22.6l-10.1,5.1l-8.7-7.2
			L537.2,701l7.8,4.9L533.6,713.2z M568.9,733l-31.6-19.8l11.5-7.3l-7.8-4.9l30.3-19.8l8.6,7.1l10.2-5.1l29,20.2l-9.3,5.6l8.6,5.8
			l-32,18.1l-7.8-5.8L568.9,733z M539.2,713.2l29.7,18.7l9.8-6.1l7.8,5.8l30-17l-8.6-5.8l9.3-5.6l-27.3-19l-10.2,5.2l-8.5-7
			L542.8,701l7.8,4.9L539.2,713.2z"/>
		<polygon class="st5" points="555.8,707.2 579,693.5 601,707.5 578.1,721.2 		"/>
		<path class="st4" d="M578,723l-25.1-15.8l26.1-15.5l24.8,15.8L578,723z M558.6,707.3l19.4,12.2l20-12l-19-12.2L558.6,707.3z"/>
	</g>
	<g class="st3">
		<path class="st4" d="M640.5,783.1l-36.2-22.8l11.5-7.3l-7.8-4.9l35.1-22.9l8.8,7.2l10-5.1l33.4,23.2l-9.2,5.5l8.7,5.8l-36.9,20.9
			l-7.8-5.8L640.5,783.1z M609.9,760.3l30.6,19.2l9.8-6l7.8,5.8l31-17.6l-8.7-5.8l9.3-5.6l-28.2-19.6l-10.2,5.2l-8.6-7l-29.3,19.2
			l7.8,4.9L609.9,760.3z"/>
		<path class="st5" d="M640.5,783.7l-37.2-23.3l11.5-7.3l-7.8-4.9l36-23.5l8.8,7.2l10-5.1l34.3,23.8l-9.2,5.5l8.8,5.8l-37.9,21.5
			l-7.8-5.8L640.5,783.7z M605.2,760.3l35.3,22.2l9.7-6l7.8,5.8l35.9-20.4l-8.7-5.8l9.2-5.5l-32.5-22.6l-10.1,5.1l-8.8-7.1
			l-34.1,22.3l7.8,4.9L605.2,760.3z M640.5,780.1L609,760.3l11.5-7.3l-7.8-4.9l30.3-19.8l8.6,7.1l10.2-5.1l29,20.2l-9.3,5.6l8.6,5.8
			l-32,18.1l-7.8-5.8L640.5,780.1z M610.9,760.3l29.7,18.7l9.8-6.1l7.8,5.8l30-17l-8.6-5.8l9.3-5.6l-27.3-19l-10.2,5.2l-8.5-7
			l-28.4,18.5l7.8,4.9L610.9,760.3z"/>
		<polygon class="st5" points="627.5,754.3 650.7,740.6 672.7,754.6 649.7,768.3 		"/>
		<path class="st4" d="M649.7,770.1l-25.1-15.8l26.1-15.4l24.8,15.8L649.7,770.1z M630.3,754.4l19.4,12.2l20-12l-19.2-12.2
			L630.3,754.4z"/>
	</g>
	<g class="st3">
		<path class="st4" d="M1003,747.3l-36.2-22.8l11.5-7.3l-7.8-4.9l35.1-22.9l8.8,7.2l10-5.1l33.4,23.2l-9.2,5.5l8.7,5.8l-36.9,20.9
			l-7.8-5.8L1003,747.3z M972.4,724.5l30.6,19.2l9.8-6l7.8,5.8l31-17.6l-8.6-5.8l9.3-5.6l-28.2-19.6l-10.2,5.2l-8.6-7L976,712.3
			l7.8,4.9L972.4,724.5z"/>
		<path class="st5" d="M1003,747.9l-37.2-23.3l11.5-7.3l-7.8-4.9l36-23.5l8.8,7.2l10-5.1l34.3,23.8l-9.2,5.5l8.8,5.8l-37.9,21.5
			l-7.8-5.8L1003,747.9z M967.7,724.5l35.3,22.2l9.7-6l7.8,5.8l35.9-20.4l-8.7-5.8l9.2-5.5l-32.6-22.6l-10.1,5.1l-8.7-7.2
			l-34.1,22.3l7.8,4.9L967.7,724.5z M1003,744.3l-31.5-19.8l11.5-7.3l-7.8-4.9l30.3-19.8l8.6,7.1l10.2-5.2l29,20.2l-9.3,5.6l8.6,5.8
			l-32,18.1l-7.8-5.8L1003,744.3z M973.3,724.5l29.7,18.6l9.8-6.1l7.8,5.8l30-17l-8.6-5.8l9.3-5.6l-27.3-19l-10.2,5.2l-8.5-7
			l-28.3,18.5l7.8,4.9L973.3,724.5z"/>
		<polygon class="st5" points="989.9,718.5 1013.1,704.8 1035.1,718.8 1012.2,732.5 		"/>
		<path class="st4" d="M1012.2,734.3L987,718.5l26.1-15.4l24.9,15.8L1012.2,734.3z M992.8,718.5l19.4,12.2l20-12l-19.2-12.2
			L992.8,718.5z"/>
	</g>
	<g class="st3">
		<path class="st4" d="M941.1,516.4l-36.2-22.8l11.5-7.3l-7.8-4.9l35.1-22.9l8.8,7.2l10-5.1l33.4,23.2l-9.2,5.5l8.7,5.8l-36.9,20.9
			l-7.8-5.8L941.1,516.4z M910.5,493.6l30.6,19.2l9.8-6l7.8,5.8l31-17.6l-8.6-5.8l9.3-5.6l-28.2-19.6l-10.2,5.2l-8.6-7l-29.3,19.1
			l7.8,4.9L910.5,493.6z"/>
		<path class="st5" d="M941.1,517l-37.2-23.3l11.5-7.3l-7.8-4.9l36-23.5l8.8,7.2l10-5.1l34.3,23.8l-9.2,5.5l8.8,5.8l-37.9,21.5
			l-7.7-5.8L941.1,517z M905.8,493.7l35.3,22.2l9.7-6l7.8,5.8l35.9-20.4l-8.7-5.8l9.2-5.5l-32.6-22.6l-10.1,5.1l-8.7-7.2l-34.1,22.3
			l7.8,4.9L905.8,493.7z M941.1,513.5l-31.6-19.9l11.5-7.3l-7.8-4.9l30.3-19.8l8.6,7.1l10.2-5.1l29,20.2l-9.2,5.6l8.6,5.8l-32,18.1
			l-7.8-5.8L941.1,513.5z M911.4,493.6l29.7,18.7l9.8-6.1l7.8,5.8l30-17l-8.6-5.8l9.3-5.6l-27.3-19l-10.2,5.2l-8.5-7L915,481.4
			l7.8,4.9L911.4,493.6z"/>
		<polygon class="st5" points="928,487.6 951.2,473.9 973.2,487.9 950.3,501.6 		"/>
		<path class="st4" d="M950.3,503.4l-25.1-15.8l26.1-15.4l24.8,15.8L950.3,503.4z M930.9,487.6l19.4,12.2l20-12l-19.2-12.2
			L930.9,487.6z"/>
	</g>
	<g class="st3">
		<path class="st4" d="M1077.8,696.9l-36.2-22.8l11.5-7.3l-7.8-4.9l35.1-22.9l8.8,7.2l10-5.1l33.4,23.2l-9.2,5.5l8.7,5.8l-36.9,20.9
			l-7.8-5.8L1077.8,696.9z M1047.2,674.1l30.6,19.2l9.8-6l7.8,5.8l31-17.6l-8.6-5.8l9.3-5.6l-28.2-19.6l-10.2,5.2l-8.6-7l-29.3,19.1
			l7.8,4.9L1047.2,674.1z"/>
		<path class="st5" d="M1077.8,697.5l-37.2-23.3l11.5-7.3l-7.8-4.9l36.1-23.5l8.8,7.2l10-5.1l34.3,23.8l-9.2,5.5l8.8,5.8l-37.9,21.5
			l-7.8-5.8L1077.8,697.5z M1042.5,674.2l35.3,22.2l9.7-6l7.8,5.8l35.9-20.4l-8.7-5.8l9.2-5.5l-32.6-22.6l-10.1,5.1l-8.7-7.2
			l-34.1,22.3l7.8,4.9L1042.5,674.2z M1077.8,694l-31.6-19.8l11.5-7.3l-7.8-4.9l30.3-19.8l8.6,7.1l10.2-5.2l29,20.2l-9.3,5.6
			l8.6,5.8l-31.9,18.1l-7.8-5.8L1077.8,694z M1048.2,674.1l29.7,18.6l9.8-6.1l7.8,5.8l30-17l-8.6-5.8l9.3-5.6l-27.3-19l-10.2,5.2
			l-8.5-7l-28.4,18.5l7.8,4.9L1048.2,674.1z"/>
		<polygon class="st5" points="1064.8,668.2 1088,654.5 1110,668.4 1087,682.1 		"/>
		<path class="st4" d="M1087,683.9l-25.1-15.8l26.1-15.4l24.8,15.8L1087,683.9z M1067.6,668.2l19.4,12.2l20-12l-19-12.2
			L1067.6,668.2z"/>
	</g>
	<g class="st3">
		<path class="st4" d="M1151,653.3l-36.2-22.8l11.5-7.3l-7.8-4.9l35.1-22.9l8.8,7.2l10-5.1l33.4,23.2l-9.2,5.5l8.7,5.8l-36.9,20.9
			l-7.8-5.8L1151,653.3z M1120.4,630.5l30.6,19.2l9.8-6l7.8,5.8l31-17.6l-8.6-5.8l9.3-5.6l-28.2-19.6l-10.2,5.2l-8.6-7l-29.3,19.2
			l7.8,4.9L1120.4,630.5z"/>
		<path class="st5" d="M1151,653.9l-37.2-23.3l11.5-7.3l-7.8-4.9l36-23.5l8.8,7.2l10-5.1l34.3,23.8l-9.2,5.5l8.8,5.8l-37.9,21.5
			l-7.8-5.8L1151,653.9z M1115.7,630.5l35.3,22.2l9.7-6l7.8,5.8l35.9-20.4l-8.7-5.8l9.2-5.5l-32.6-22.6l-10.1,5.1l-8.7-7.2
			l-34.1,22.3l7.8,4.9L1115.7,630.5z M1151,650.3l-31.6-19.8l11.5-7.3l-7.8-4.9l30.3-19.8l8.6,7.1l10.2-5.1l29,20.2l-9.3,5.6
			l8.6,5.8l-32,18.1l-7.8-5.8L1151,650.3z M1121.3,630.5l29.7,18.7l9.8-6.1l7.8,5.8l30-17l-8.6-5.8l9.3-5.6l-27.3-19l-10.2,5.2
			l-8.5-7l-28.4,18.5l7.8,4.9L1121.3,630.5z"/>
		<polygon class="st5" points="1137.9,624.5 1161.1,610.8 1183.1,624.8 1160.2,638.5 		"/>
		<path class="st4" d="M1160.2,640.3l-25.2-15.8l26.1-15.4l24.9,15.8L1160.2,640.3z M1140.8,624.6l19.4,12.2l20-12l-19.2-12.2
			L1140.8,624.6z"/>
	</g>
	<g class="st3">
		<path class="st4" d="M1003.3,842l-36.2-22.8l11.5-7.3l-7.8-4.9l35.1-22.9l8.8,7.2l10.1-5.1l33.4,23.2l-9.2,5.5l8.7,5.8l-36.9,20.9
			l-7.8-5.8L1003.3,842z M972.7,819.2l30.6,19.2l9.8-6l7.8,5.8l31-17.6l-8.6-5.8l9.3-5.6l-28.2-19.6l-10.2,5.2l-8.6-7L976.3,807
			l7.8,4.9L972.7,819.2z"/>
		<path class="st5" d="M1003.3,842.6l-37.2-23.3l11.5-7.3l-7.8-4.9l36-23.5l8.8,7.2l10-5.1l34.4,23.8l-9.2,5.5l8.8,5.8l-37.9,21.5
			l-7.8-5.8L1003.3,842.6z M968,819.2l35.3,22.2l9.7-6l7.8,5.8l35.9-20.4l-8.7-5.8l9.2-5.5l-32.6-22.6l-10.1,5.1l-8.7-7.2L971.7,807
			l7.8,4.9L968,819.2z M1003.3,839l-31.5-19.8l11.5-7.3l-7.8-4.9l30.3-19.8l8.6,7.1l10.2-5.1l29,20.2l-9.3,5.6l8.6,5.8l-32,18.1
			l-7.8-5.8L1003.3,839z M973.6,819.2l29.7,18.6l9.8-6l7.8,5.8l30-17l-8.6-5.8l9.3-5.6l-27.3-19l-10.2,5.2l-8.5-7L977.2,807l7.8,4.9
			L973.6,819.2z"/>
		<polygon class="st5" points="990.2,813.2 1013.4,799.5 1035.4,813.5 1012.5,827.2 		"/>
		<path class="st4" d="M1012.5,829l-25.1-15.8l26.1-15.4l24.8,15.8L1012.5,829z M993.1,813.3l19.4,12.2l20-12l-19.2-12.2
			L993.1,813.3z"/>
	</g>
	<g class="st3">
		<path class="st4" d="M921,885l-36.2-22.8l11.5-7.3l-7.8-4.9l35.1-22.9l8.8,7.2l10-5.1l33.4,23.2l-9.2,5.6l8.7,5.8l-36.9,20.9
			l-7.8-5.8L921,885z M890.4,862.2l30.6,19.2l9.8-6l7.8,5.8l31-17.6l-8.6-5.8l9.3-5.6l-28.2-19.6l-10.1,5.2l-8.6-7L894.1,850
			l7.8,4.9L890.4,862.2z"/>
		<path class="st5" d="M921,885.5l-37.1-23.3l11.5-7.3l-7.8-4.9l36-23.5l8.8,7.2l10-5.1l34.3,23.8l-9.1,5.5l8.8,5.8l-37.9,21.5
			l-7.8-5.8L921,885.5z M885.7,862.2l35.3,22.2l9.7-6l7.8,5.8l35.9-20.4l-8.7-5.8l9.2-5.6l-32.5-22.6l-10.1,5.1l-8.7-7.2L889.4,850
			l7.8,4.9L885.7,862.2z M921,882l-31.5-19.8l11.5-7.3l-7.9-4.9l30.3-19.8l8.6,7.1l10.2-5.2l29,20.2l-9.3,5.6l8.6,5.8l-32,18.1
			l-7.8-5.8L921,882z M891.4,862.2l29.7,18.6l9.8-6.1l7.8,5.8l30-17l-8.6-5.8l9.3-5.6l-27.3-19l-10.2,5.2l-8.5-7L895,850l7.8,4.9
			L891.4,862.2z"/>
		<polygon class="st5" points="908,856.2 931.2,842.5 953.2,856.5 930.2,870.2 		"/>
		<path class="st4" d="M930.2,871.9l-25.1-15.8l26.1-15.4l24.8,15.8L930.2,871.9z M910.8,856.2l19.4,12.2l20-12l-19.2-12.2
			L910.8,856.2z"/>
	</g>
	<g class="st3">
		<path class="st4" d="M845.9,931.6l-36.2-22.8l11.5-7.3l-7.8-4.9l35.1-22.9l8.8,7.2l10.1-5.1l33.4,23.2l-9.2,5.5l8.7,5.8
			l-36.9,20.9l-7.8-5.8L845.9,931.6z M815.3,908.9l30.6,19.2l9.8-6l7.8,5.8l31-17.6l-8.6-5.8l9.3-5.6L867,879.4l-10.2,5.2l-8.6-7
			l-29.3,19.1l7.8,4.9L815.3,908.9z"/>
		<path class="st5" d="M845.9,932.2l-37.2-23.3l11.5-7.3l-7.8-4.9l36-23.5l8.8,7.2l10-5.1l34.3,23.8l-9.2,5.5l8.8,5.8L863.2,932
			l-7.8-5.8L845.9,932.2z M810.6,908.9l35.3,22.1l9.7-6l7.8,5.8l35.9-20.4l-8.7-5.8l9.2-5.5l-32.5-22.6l-10.1,5.1l-8.7-7.2
			l-34.1,22.3l7.8,4.9L810.6,908.9z M845.9,928.7l-31.5-19.8l11.5-7.3l-7.8-4.9l30.3-19.8l8.6,7.1l10.1-5.2l29,20.2l-9.3,5.6
			l8.6,5.8l-32,18.1l-7.8-5.8L845.9,928.7z M816.2,908.9l29.7,18.6l9.8-6.1l7.8,5.8l30-17l-8.6-5.8l9.3-5.6L867,880l-10.2,5.2
			l-8.5-7l-28.4,18.5l7.8,4.9L816.2,908.9z"/>
		<polygon class="st5" points="832.8,902.9 856,889.2 878,903.2 855.1,916.8 		"/>
		<path class="st4" d="M855.1,918.6l-25.1-15.8l26.1-15.4l24.8,15.8L855.1,918.6z M835.7,902.9l19.4,12.2l20-12L856,890.9
			L835.7,902.9z"/>
	</g>
	<g class="st3">
		<path class="st4" d="M1075.5,799.2l-36.2-22.8l11.5-7.3l-7.8-4.9l35.1-22.9l8.8,7.2l10-5.1l33.4,23.2l-9.2,5.5l8.7,5.8l-36.8,20.9
			l-7.8-5.8L1075.5,799.2z M1044.9,776.4l30.6,19.2l9.8-6l7.8,5.8l31-17.6l-8.6-5.8l9.3-5.6l-28.2-19.6l-10.2,5.2l-8.6-7l-29.3,19.2
			l7.8,4.9L1044.9,776.4z"/>
		<path class="st5" d="M1075.5,799.8l-37.2-23.3l11.5-7.3l-7.8-4.9l36-23.5l8.8,7.2l10-5.1l34.3,23.8l-9.2,5.5l8.8,5.8l-37.9,21.5
			l-7.8-5.8L1075.5,799.8z M1040.2,776.4l35.3,22.2l9.7-6l7.8,5.8l35.9-20.4l-8.7-5.8l9.2-5.5l-32.5-22.6l-10.1,5.1l-8.7-7.1
			l-34.1,22.3l7.8,4.9L1040.2,776.4z M1075.5,796.2l-31.6-19.8l11.5-7.3l-7.8-4.9l30.3-19.8l8.6,7.1l10.2-5.2l29,20.2l-9.3,5.6
			l8.6,5.8l-32,18.1l-7.8-5.8L1075.5,796.2z M1045.8,776.4l29.7,18.6l9.8-6l7.8,5.8l30-17l-8.6-5.7l9.3-5.6l-27.3-19l-10.2,5.2
			l-8.5-7l-28.4,18.5l7.8,4.9L1045.8,776.4z"/>
		<polygon class="st5" points="1062.4,770.4 1085.6,756.7 1107.6,770.7 1084.7,784.4 		"/>
		<path class="st4" d="M1084.7,786.2l-25.1-15.8l26.1-15.4l24.8,15.8L1084.7,786.2z M1065.3,770.5l19.4,12.2l20-12l-19.2-12.2
			L1065.3,770.5z"/>
	</g>
	<g class="st3">
		<path class="st4" d="M1150.3,748.8l-36.2-22.8l11.5-7.3l-7.8-4.9l35.1-22.9l8.8,7.2l10.1-5.1l33.4,23.2l-9.2,5.5l8.7,5.8
			l-36.9,20.9l-7.8-5.8L1150.3,748.8z M1119.8,726.1l30.6,19.2l9.8-6l7.8,5.8l31-17.6l-8.6-5.8l9.3-5.6l-28.2-19.6l-10.2,5.2l-8.6-7
			l-29.3,19.1l7.8,4.9L1119.8,726.1z"/>
		<path class="st5" d="M1150.3,749.4l-37.2-23.3l11.5-7.3l-7.8-4.9l36-23.5l8.8,7.2l10-5.1l34.3,23.8l-9.2,5.5l8.8,5.8l-37.9,21.5
			l-7.8-5.8L1150.3,749.4z M1115.1,726.1l35.3,22.2l9.7-6l7.8,5.8l35.9-20.4l-8.7-5.8l9.2-5.5l-32.5-22.6l-10.1,5.1l-8.7-7.2
			l-34.1,22.3l7.8,4.9L1115.1,726.1z M1150.4,745.9l-31.6-19.8l11.5-7.3l-7.8-4.9l30.3-19.8l8.6,7.1l10.2-5.1l29,20.2l-9.3,5.6
			l8.6,5.8l-32,18.1l-7.8-5.8L1150.4,745.9z M1120.7,726.1l29.7,18.6l9.8-6l7.8,5.8l30-17l-8.6-5.7l9.3-5.6l-27.3-19l-10.2,5.2
			l-8.5-7l-28.4,18.5l7.8,4.9L1120.7,726.1z"/>
		<polygon class="st5" points="1137.3,720.1 1160.5,706.4 1182.5,720.3 1159.6,734 		"/>
		<path class="st4" d="M1159.5,735.8l-25.1-15.8l26.1-15.4l24.8,15.8L1159.5,735.8z M1140.2,720.1l19.4,12.2l20.1-12l-19.2-12.2
			L1140.2,720.1z"/>
	</g>
	<g class="st3">
		<path class="st4" d="M1223.5,705.2l-36.2-22.8l11.5-7.3l-7.8-4.9l35.1-22.9l8.8,7.2l10-5.1l33.4,23.2l-9.2,5.5l8.7,5.8l-36.8,20.9
			l-7.8-5.8L1223.5,705.2z M1192.9,682.4l30.6,19.2l9.8-6l7.8,5.8l31-17.6l-8.6-5.8l9.3-5.6l-28.2-19.6l-10.2,5.2l-8.6-7l-29.3,19.2
			l7.8,4.9L1192.9,682.4z"/>
		<path class="st5" d="M1223.5,705.8l-37.2-23.3l11.5-7.3l-7.8-4.9l36-23.5l8.8,7.2l10-5.1l34.3,23.8l-9.2,5.5l8.8,5.8l-37.9,21.5
			l-7.8-5.8L1223.5,705.8z M1188.2,682.4l35.3,22.2l9.7-6l7.8,5.8l35.9-20.4l-8.7-5.8l9.2-5.5l-32.6-22.6l-10.1,5.1l-8.7-7.1
			l-34.1,22.3l7.8,4.9L1188.2,682.4z M1223.5,702.3l-31.6-19.8l11.5-7.3l-7.8-4.9l30.3-19.8l8.6,7l10.2-5.1l29,20.2l-9.3,5.6
			l8.6,5.8l-32,18.1l-7.8-5.8L1223.5,702.3z M1193.8,682.4l29.7,18.7l9.8-6.1l7.8,5.8l30-17l-8.6-5.8l9.3-5.6l-27.3-19l-10.2,5.2
			l-8.5-7l-28.4,18.5l7.8,4.9L1193.8,682.4z"/>
		<polygon class="st5" points="1210.4,676.4 1233.6,662.7 1255.6,676.7 1232.7,690.4 		"/>
		<path class="st4" d="M1232.7,692.2l-25.1-15.8l26.1-15.4l24.8,15.8L1232.7,692.2z M1213.3,676.5l19.4,12.2l20-12l-19.2-12.2
			L1213.3,676.5z"/>
	</g>
	<g class="st3">
		<path class="st4" d="M1075,891.5l-36.2-22.8l11.5-7.3l-7.8-4.9l35.1-22.9l8.8,7.2l10-5.1l33.5,23.2l-9.2,5.5l8.7,5.8l-36.9,20.9
			l-7.8-5.8L1075,891.5z M1044.4,868.8L1075,888l9.8-6l7.8,5.8l31-17.6l-8.6-5.8l9.3-5.6l-28.2-19.6l-10.2,5.2l-8.6-7l-29.4,19.1
			l7.8,4.9L1044.4,868.8z"/>
		<path class="st5" d="M1075,892.1l-37.2-23.3l11.5-7.3l-7.8-4.9l36-23.5l8.8,7.2l10-5.1l34.3,23.8l-9.2,5.5l8.8,5.8l-37.9,21.5
			l-7.8-5.8L1075,892.1z M1039.7,868.8l35.3,22.2l9.7-6l7.8,5.8l35.9-20.4l-8.7-5.8l9.2-5.5l-32.6-22.6l-10.1,5.1l-8.7-7.2
			l-34.1,22.3l7.8,4.9L1039.7,868.8z M1075,888.6l-31.6-19.8l11.5-7.3l-7.8-4.9l30.3-19.8l8.6,7l10.2-5.1l29,20.2l-9.3,5.6l8.6,5.8
			l-32,18.1l-7.8-5.8L1075,888.6z M1045.3,868.8l29.7,18.6l9.8-6.1l7.8,5.8l30-17l-8.6-5.8l9.3-5.6l-27.3-19l-10.2,5.1l-8.5-7
			l-28.3,18.5l7.8,4.9L1045.3,868.8z"/>
		<polygon class="st5" points="1061.9,862.8 1085.2,849.1 1107.1,863 1084.2,876.8 		"/>
		<path class="st4" d="M1084.2,878.5l-25.2-15.8l26.1-15.4l24.8,15.8L1084.2,878.5z M1064.8,862.8l19.4,12.2l20-12l-19.2-12.2
			L1064.8,862.8z"/>
	</g>
	<g class="st3">
		<path class="st4" d="M992.8,934.5l-36.2-22.8l11.5-7.3l-7.8-4.9l35.1-22.9l8.8,7.2l10.1-5.1l33.4,23.2l-9.2,5.5l8.7,5.8
			l-36.9,20.9l-7.8-5.8L992.8,934.5z M962.2,911.7l30.6,19.3l9.8-6l7.8,5.8l31-17.6l-8.6-5.8l9.3-5.6l-28.2-19.6l-10.2,5.2l-8.6-7
			l-29.3,19.2l7.8,4.9L962.2,911.7z"/>
		<path class="st5" d="M992.8,935.1l-37.2-23.3l11.5-7.3l-7.8-4.9l36-23.5l8.8,7.2l10-5.1l34.3,23.8l-9.2,5.5l8.8,5.8l-37.9,21.5
			l-7.8-5.8L992.8,935.1z M957.5,911.8l35.3,22.2l9.7-6l7.8,5.8l35.9-20.4l-8.7-5.8l9.2-5.5l-32.5-22.6l-10.1,5.1l-8.7-7.2
			l-34.1,22.3l7.8,4.9L957.5,911.8z M992.8,931.5l-31.5-19.8l11.5-7.3l-7.8-4.9l30.3-19.8l8.6,7.1l10.2-5.1l29,20.2l-9.3,5.6
			l8.6,5.8l-32,18.1l-7.8-5.8L992.8,931.5z M963.1,911.7l29.7,18.7l9.8-6.1l7.8,5.8l30-17l-8.6-5.8l9.3-5.6l-27.3-19l-10.2,5.2
			l-8.5-7l-28.4,18.5l7.8,4.9L963.1,911.7z"/>
		<polygon class="st5" points="979.7,905.7 1002.9,892 1024.9,906 1002,919.7 		"/>
		<path class="st4" d="M1001.9,921.5l-25.1-15.8l26.1-15.4l24.8,15.8L1001.9,921.5z M982.6,905.8L1002,918l20-12l-19.2-12.2
			L982.6,905.8z"/>
	</g>
	<g class="st3">
		<path class="st4" d="M917.6,981.2l-36.2-22.8l11.5-7.3l-7.8-4.9l35.1-22.9l8.8,7.2l10.1-5.1l33.4,23.2l-9.2,5.5l8.7,5.8L935,981
			l-7.8-5.8L917.6,981.2z M887,958.4l30.6,19.2l9.8-6l7.8,5.8l31-17.6l-8.6-5.8l9.3-5.6L938.8,929l-10.2,5.2l-8.6-7l-29.3,19.1
			l7.8,4.9L887,958.4z"/>
		<path class="st5" d="M917.6,981.8l-37.2-23.3l11.5-7.3l-7.8-4.9l36-23.5l8.8,7.2l10-5.1l34.3,23.8l-9.2,5.5l8.8,5.8L935,981.6
			l-7.8-5.8L917.6,981.8z M882.3,958.4l35.3,22.2l9.7-6l7.8,5.8l36-20.4l-8.7-5.8l9.2-5.5L938.9,926l-10.1,5.1l-8.7-7.1L886,946.2
			l7.8,4.9L882.3,958.4z M917.6,978.2l-31.5-19.8l11.5-7.3l-7.8-4.9l30.3-19.8l8.6,7.1l10.2-5.1l29,20.2l-9.3,5.6l8.6,5.8L935.2,978
			l-7.8-5.8L917.6,978.2z M887.9,958.4l29.7,18.7l9.8-6.1l7.8,5.8l30-17l-8.6-5.8l9.3-5.6l-27.3-19l-10.2,5.2l-8.5-7l-28.4,18.5
			l7.8,4.9L887.9,958.4z"/>
		<polygon class="st5" points="904.5,952.4 927.8,938.7 949.7,952.7 926.8,966.4 		"/>
		<path class="st4" d="M926.8,968.2l-25.2-15.8l26.1-15.4l24.8,15.8L926.8,968.2z M907.4,952.5l19.4,12.2l20-12l-19.2-12.2
			L907.4,952.5z"/>
	</g>
	<g class="st3">
		<path class="st4" d="M1147.2,848.7L1111,826l11.5-7.3l-7.8-4.9l35.1-22.9l8.8,7.2l10-5.1l33.5,23.2l-9.2,5.5l8.7,5.8l-36.9,20.9
			l-7.8-5.8L1147.2,848.7z M1116.6,826l30.6,19.2l9.8-6l7.8,5.8l31-17.6l-8.6-5.8l9.3-5.6l-28.2-19.6l-10.2,5.2l-8.6-7l-29.3,19.2
			l7.8,4.9L1116.6,826z"/>
		<path class="st5" d="M1147.2,849.3L1110,826l11.5-7.3l-7.8-4.9l36-23.5l8.8,7.2l10-5.1l34.3,23.8l-9.2,5.5l8.8,5.8l-37.9,21.5
			l-7.8-5.8L1147.2,849.3z M1111.9,826l35.3,22.2l9.7-6l7.8,5.8l35.9-20.4l-8.7-5.8l9.2-5.5l-32.6-22.6l-10.1,5.1l-8.7-7.2
			l-34.1,22.3l7.8,4.9L1111.9,826z M1147.2,845.8l-31.6-19.8l11.5-7.3l-7.8-4.9l30.3-19.8l8.6,7l10.2-5.1l29,20.2l-9.3,5.6l8.6,5.8
			l-32,18.1l-7.8-5.8L1147.2,845.8z M1117.5,826l29.7,18.7l9.8-6.1l7.8,5.8l30-17l-8.6-5.8l9.3-5.6l-27.3-19l-10.3,5.1l-8.5-7
			l-28.4,18.5l7.8,4.9L1117.5,826z"/>
		<polygon class="st5" points="1134.1,820 1157.3,806.3 1179.3,820.3 1156.4,834 		"/>
		<path class="st4" d="M1156.4,835.7l-25.1-15.8l26.1-15.4l24.8,15.8L1156.4,835.7z M1137,820l19.4,12.2l20-12l-19.1-12.2L1137,820z
			"/>
	</g>
	<g class="st3">
		<path class="st4" d="M1222.1,798.4l-36.2-22.8l11.5-7.3l-7.8-4.9l35.1-22.9l8.8,7.2l10.1-5.1l33.4,23.2l-9.2,5.5l8.7,5.8
			l-36.9,20.9l-7.8-5.8L1222.1,798.4z M1191.5,775.6l30.6,19.2l9.8-6l7.8,5.8l31-17.6l-8.6-5.8l9.3-5.6l-28.2-19.6l-10.2,5.2l-8.6-7
			l-29.3,19.2l7.8,4.9L1191.5,775.6z"/>
		<path class="st5" d="M1222.1,799l-37.2-23.3l11.5-7.3l-7.8-4.9l36.1-23.5l8.8,7.2l10-5.1l34.3,23.8l-9.2,5.5l8.8,5.8l-37.9,21.5
			l-7.8-5.8L1222.1,799z M1186.8,775.7l35.3,22.2l9.7-6l7.8,5.8l35.9-20.4l-8.7-5.8l9.2-5.5l-32.6-22.6l-10.1,5.1l-8.7-7.2
			l-34.1,22.3l7.8,4.9L1186.8,775.7z M1222.1,795.5l-31.6-19.8l11.5-7.3l-7.8-4.9l30.3-19.8l8.6,7l10.2-5.1l29,20.2l-9.2,5.6
			l8.6,5.8l-31.9,18.1l-7.8-5.8L1222.1,795.5z M1192.4,775.6l29.7,18.7l9.8-6.1l7.8,5.8l30-17l-8.6-5.8l9.3-5.6l-27.3-19l-10.2,5.2
			l-8.5-7l-28.4,18.5l7.8,4.9L1192.4,775.6z"/>
		<polygon class="st5" points="1209,769.6 1232.2,755.9 1254.2,769.9 1231.3,783.6 		"/>
		<path class="st4" d="M1231.3,785.4l-25.1-15.8l26.1-15.4l24.8,15.8L1231.3,785.4z M1211.9,769.7l19.4,12.2l20-12l-19.2-12.2
			L1211.9,769.7z"/>
	</g>
	<g class="st3">
		<path class="st4" d="M1295.2,754.8L1259,732l11.5-7.3l-7.8-4.9l35.1-22.9l8.8,7.2l10.1-5.1l33.4,23.2l-9.2,5.5l8.7,5.8l-36.9,20.9
			l-7.8-5.8L1295.2,754.8z M1264.6,732l30.6,19.2l9.8-6l7.8,5.8l31-17.6l-8.6-5.8l9.3-5.6l-28.2-19.6l-10.2,5.2l-8.6-7l-29.3,19.1
			l7.8,4.9L1264.6,732z"/>
		<path class="st5" d="M1295.2,755.3L1258,732l11.5-7.3l-7.8-4.9l36-23.5l8.8,7.2l10-5.1l34.3,23.8l-9.2,5.5l8.8,5.8l-37.9,21.5
			l-7.8-5.8L1295.2,755.3z M1259.9,732l35.3,22.2l9.7-6l7.8,5.8l35.9-20.4l-8.7-5.8l9.2-5.5l-32.5-22.6l-10.1,5.1l-8.7-7.2
			l-34.1,22.3l7.8,4.9L1259.9,732z M1295.2,751.8l-31.6-19.8l11.5-7.3l-7.8-4.9l30.3-19.8l8.6,7.1l10.2-5.2l29,20.2l-9.3,5.6
			l8.6,5.8l-32,18.1l-7.8-5.8L1295.2,751.8z M1265.5,732l29.7,18.6l9.8-6.1l7.8,5.8l30-17l-8.6-5.8l9.3-5.6l-27.3-19l-10.3,5.1
			l-8.5-7l-28.4,18.5l7.8,4.9L1265.5,732z"/>
		<polygon class="st5" points="1282.1,726 1305.3,712.3 1327.3,726.3 1304.4,740 		"/>
		<path class="st4" d="M1304.4,741.7l-25.2-15.7l26.1-15.4l24.8,15.8L1304.4,741.7z M1285,726l19.4,12.2l20-12l-19.2-12.2L1285,726z
			"/>
	</g>
	<polygon class="st6" points="948.4,444.7 1386.1,701.3 1388.5,610.8 948.5,358.8 	"/>
	<polygon class="st7" points="948.4,444.7 497.7,700.8 497.7,610.4 948.7,358.7 	"/>
</g>
</svg>
