<svg xmlns="http://www.w3.org/2000/svg" xmlns:xlink="http://www.w3.org/1999/xlink" viewBox="0 0 1920 1071.63"><defs><style>.cls-1{fill:#4c7b80;}.cls-2{fill:#7ebcb7;}.cls-3{fill:#80bcb9;}.cls-4{fill:#0b0c07;}.cls-5{fill:url(#Dégradé_sans_nom_7);}.cls-6{fill:#152322;}.cls-7{fill:url(#Dégradé_sans_nom_7-2);}.cls-8{fill:url(#Dégradé_sans_nom_7-3);}.cls-9{fill:url(#Dégradé_sans_nom_7-4);}</style><linearGradient id="Dégradé_sans_nom_7" x1="1281.02" y1="721.59" x2="1207.86" y2="583.58" gradientUnits="userSpaceOnUse"><stop offset="0" stop-color="#587372" stop-opacity="0"/><stop offset="0.52" stop-color="#4d6665" stop-opacity="0"/><stop offset="0.7" stop-color="#415858" stop-opacity="0.18"/><stop offset="0.91" stop-color="#203131" stop-opacity="0.71"/><stop offset="1" stop-color="#0d1b1b"/></linearGradient><linearGradient id="Dégradé_sans_nom_7-2" x1="-389.19" y1="685.83" x2="-462.08" y2="548.32" gradientTransform="matrix(-1, 0, 0, 1, 171.08, 0)" xlink:href="#Dégradé_sans_nom_7"/><linearGradient id="Dégradé_sans_nom_7-3" x1="1077.04" y1="1013.45" x2="1003.55" y2="874.82" xlink:href="#Dégradé_sans_nom_7"/><linearGradient id="Dégradé_sans_nom_7-4" x1="27.31" y1="1094.15" x2="-80.63" y2="890.53" gradientTransform="matrix(-1, 0, 0, 1, 826.24, 0)" xlink:href="#Dégradé_sans_nom_7"/></defs><title>fond2Plan de travail 4 copie 3</title><g id="Calque_6" data-name="Calque 6"><polygon class="cls-1" points="649.49 456.19 574.27 501.89 574.19 411.82 647.82 372.47 649.49 456.19"/><polygon class="cls-1" points="501.03 284.85 415.2 331.1 415.12 156.47 501.99 120.7 501.03 284.85"/><polygon class="cls-2" points="1328.64 326.7 1414.47 372.96 1414.55 168.42 1327.68 132.65 1328.64 326.7"/><polygon class="cls-1" points="880.56 759.26 798.87 804.96 798.87 717.89 878.89 675.54 880.56 759.26"/><polygon class="cls-3" points="414.37 329.43 501.03 284.85 647.82 372.47 572.68 411.82 414.37 329.43"/><polygon class="cls-3" points="574.27 501.89 649.49 456.19 726.52 503.08 649.19 544.1 574.27 501.89"/><polygon class="cls-3" points="647.87 629.5 728.19 586.8 878.89 675.54 798.87 717.89 647.87 629.5"/><polygon class="cls-1" points="728.19 586.8 647.87 629.5 647.19 544.1 726.52 503.08 728.19 586.8"/><polygon class="cls-3" points="798.87 804.96 880.56 759.26 948.93 800.84 949.05 896.56 798.87 804.96"/><polygon class="cls-1" points="1255.63 543.19 1176.31 499.73 1103.39 544.38 1180.71 585.4 1255.63 543.19"/><polygon class="cls-1" points="1180.84 673.8 1101.52 630.33 1028.6 674.98 1105.92 716.01 1180.84 673.8"/><polygon class="cls-1" points="1405.54 368.29 1329.21 324.82 1177.98 416.01 1255.5 455.91 1405.54 368.29"/><polygon class="cls-2" points="1101.52 630.33 1181.65 673.87 1179.49 583.45 1103.39 544.38 1101.52 630.33"/><polygon class="cls-2" points="1176.31 499.73 1256.17 543.26 1254 454.52 1177.98 416.01 1176.31 499.73"/><polygon class="cls-2" points="1026.68 759.82 1107.05 804.19 1103.31 714.89 1028.6 674.98 1026.68 759.82"/><polygon class="cls-1" points="1104.1 802.24 1026.68 759.82 948.93 800.84 949.05 896.56 1104.1 802.24"/><path class="cls-4" d="M1926.69,1085.39l-5.41-975.64s-357.88-5-363,0l-151.87,55.09-.84,203.45L1254,454.52l-.83,88.74-73.68,40.19-.83,90.42-75.35,41L1105,802l-155.93,94.6L798.87,805V717.89l-151-88.39.83-85.4-74.51-41.86V411.82L413.88,329.43l1.24-173L334.81,108.4c-4.08-4-238.26-.5-335.63,1.12l1,976.34,954.66-.47Z"/><polygon class="cls-5" points="1272.38 675.63 1180.36 723.08 1179.49 583.45 1279.11 526.61 1272.38 675.63"/><g id="plante"><path id="Tracé_3169" data-name="Tracé 3169" class="cls-6" d="M1201.63,604.34s13.52,6.64,12.08,57.51l3.17-.14s3.56-35.54-9.7-57.61Z"/><path id="Tracé_3170" data-name="Tracé 3170" class="cls-6" d="M1211.21,613.06a97.78,97.78,0,0,0,10.54,12.44c5.21,4.89,17.84,9.94,17.84,9.94s-4.48-16.24-11.54-21.78-20.87-9.56-20.87-9.56Z"/><path id="Tracé_3171" data-name="Tracé 3171" class="cls-6" d="M1204.63,607.3a31.2,31.2,0,0,1-4.39,13.48c-4,6.2-12.26,12.16-12.26,12.16s-.19-12.78,3.57-18.66,10.77-10,10.77-10Z"/><path id="Tracé_3172" data-name="Tracé 3172" class="cls-6" d="M1216.88,661.71s6.41,10.24,8.6,18.78,1.73,27,1.73,27-9.68-11-10.84-21.08-1.08-24.59-1.08-24.59Z"/><path id="Tracé_3173" data-name="Tracé 3173" class="cls-6" d="M1225.48,680.5c1.94,7.52,1.8,22.67,1.74,26.2l-.15.59-.11-.12c-.76-3.7-8.64-41.86-10.94-45.42l.85,0,1.15,1.92C1220,667,1223.87,674.21,1225.48,680.5Z"/><path id="Tracé_3174" data-name="Tracé 3174" class="cls-6" d="M1213.71,661.85c-11,12.62-15.54,31.77-15.54,31.77a39,39,0,0,0,13.84-9.49c5.68-6.46,3.29-22.35,3.29-22.35Z"/><g id="Groupe_724" data-name="Groupe 724"><path id="Tracé_3175" data-name="Tracé 3175" class="cls-6" d="M1216.67,637.69s13.11,7,16.95,16.11,5.6,26.5,5.6,26.5-12.16-6.16-16.84-16.73-5.54-14.54-5.54-14.54Z"/><path id="Tracé_3176" data-name="Tracé 3176" class="cls-6" d="M1233.62,653.8c3.84,9.07,5.6,26.5,5.6,26.5s-5-11.84-10.77-23.18c-4.45-8.72-9.59-17.2-11.78-19.43C1216.67,637.69,1229.78,644.73,1233.62,653.8Z"/></g><path id="Tracé_3177" data-name="Tracé 3177" class="cls-6" d="M1214.48,661.82c-1,14.69-16.31,31.8-16.31,31.8s4.53-19.15,15.54-31.77Z"/><path id="Tracé_3178" data-name="Tracé 3178" class="cls-6" d="M1239.59,635.44s-23.27-27.44-32.41-31.34c0,0,13.81,4,20.87,9.56S1239.59,635.44,1239.59,635.44Z"/><path id="Tracé_3179" data-name="Tracé 3179" class="cls-6" d="M1202.32,604.31l.6.77c-4.47,6.07-14.93,27.86-14.93,27.86s-.2-12.78,3.56-18.66S1202.32,604.31,1202.32,604.31Z"/><path id="Tracé_3180" data-name="Tracé 3180" class="cls-6" d="M1214.19,643.79s-3.83,9.54-10,12.73a41.72,41.72,0,0,1-10.42,4s4.76-10.9,7.42-12.66,13-5.43,13-5.43Z"/><path id="Tracé_3181" data-name="Tracé 3181" class="cls-6" d="M1193.75,660.48s4.76-10.89,7.42-12.65,13-5.44,13-5.44l0,.85a81.57,81.57,0,0,0-10.25,7.69C1199.36,655,1195.35,660.22,1193.75,660.48Z"/></g><g id="plante-2" data-name="plante"><path id="Tracé_3169-2" data-name="Tracé 3169" class="cls-6" d="M1249,571.39s11.28,5.52,10.59,46.86l2.62-.08s2.61-28.86-8.61-46.93Z"/><path id="Tracé_3170-2" data-name="Tracé 3170" class="cls-6" d="M1257.05,578.56a82.88,82.88,0,0,0,8.87,10.23c4.36,4,14.9,8.25,14.9,8.25s-3.88-13.24-9.79-17.82-17.41-8-17.41-8Z"/><path id="Tracé_3171-2" data-name="Tracé 3171" class="cls-6" d="M1251.53,573.82a24.34,24.34,0,0,1-3.51,10.91c-3.25,5-10,9.77-10,9.77s-.29-10.39,2.77-15.14,8.84-8,8.84-8Z"/><path id="Tracé_3172-2" data-name="Tracé 3172" class="cls-6" d="M1262.23,618.17s5.42,8.38,7.33,15.35,1.7,21.93,1.7,21.93-8.13-9.06-9.2-17.24-1.14-20-1.14-20Z"/><path id="Tracé_3173-2" data-name="Tracé 3173" class="cls-6" d="M1269.56,633.52c1.68,6.14,1.72,18.45,1.7,21.32l-.12.48-.08-.1c-.67-3-7.6-34.11-9.53-37l.7,0,1,1.58C1264.85,622.5,1268.16,628.39,1269.56,633.52Z"/><path id="Tracé_3174-2" data-name="Tracé 3174" class="cls-6" d="M1259.61,618.25c-9,10.15-12.57,25.66-12.57,25.66a31.21,31.21,0,0,0,11.38-7.57c4.65-5.19,2.5-18.13,2.5-18.13Z"/><g id="Groupe_724-2" data-name="Groupe 724"><path id="Tracé_3175-2" data-name="Tracé 3175" class="cls-6" d="M1261.82,598.64s11,5.86,14.22,13.26,4.91,21.6,4.91,21.6-10.15-5.13-14.13-13.77-4.74-11.87-4.74-11.87Z"/><path id="Tracé_3176-2" data-name="Tracé 3176" class="cls-6" d="M1276,611.9c3.28,7.41,4.91,21.6,4.91,21.6s-4.26-9.67-9.16-19c-3.77-7.13-8.13-14.08-10-15.91C1261.82,598.64,1272.77,604.5,1276,611.9Z"/></g><path id="Tracé_3177-2" data-name="Tracé 3177" class="cls-6" d="M1260.25,618.23c-.67,11.94-13.21,25.69-13.21,25.69s3.56-15.52,12.57-25.67Z"/><path id="Tracé_3178-2" data-name="Tracé 3178" class="cls-6" d="M1280.82,597s-19.58-22.53-27.2-25.8c0,0,11.5,3.41,17.41,8S1280.82,597,1280.82,597Z"/><path id="Tracé_3179-2" data-name="Tracé 3179" class="cls-6" d="M1249.59,571.37l.5.63c-3.65,4.89-12.11,22.5-12.11,22.5s-.29-10.39,2.77-15.14S1249.59,571.37,1249.59,571.37Z"/><path id="Tracé_3180-2" data-name="Tracé 3180" class="cls-6" d="M1259.82,603.57s-3.07,7.72-8.18,10.25a33.9,33.9,0,0,1-8.6,3.11s3.84-8.8,6-10.21,10.69-4.28,10.69-4.28Z"/><path id="Tracé_3181-2" data-name="Tracé 3181" class="cls-6" d="M1243,616.94s3.85-8.81,6-10.21,10.69-4.29,10.69-4.29l0,.69a63.8,63.8,0,0,0-8.43,6.15C1247.64,612.57,1244.36,616.74,1243,616.94Z"/></g><polygon class="cls-7" points="575.82 635.45 649.7 682.89 648.14 543.26 572.47 497.03 575.82 635.45"/><g id="plante-3" data-name="plante"><path id="Tracé_3169-3" data-name="Tracé 3169" class="cls-6" d="M628.43,564.15s-13.52,6.64-12.08,57.52l-3.16-.14s-3.57-35.55,9.69-57.62Z"/><path id="Tracé_3170-3" data-name="Tracé 3170" class="cls-6" d="M618.85,572.87a97.06,97.06,0,0,1-10.54,12.45c-5.2,4.88-17.84,9.94-17.84,9.94S595,579,602,573.48s20.87-9.57,20.87-9.57Z"/><path id="Tracé_3171-3" data-name="Tracé 3171" class="cls-6" d="M625.43,567.12a31.12,31.12,0,0,0,4.39,13.47c4,6.2,12.26,12.16,12.26,12.16s.19-12.77-3.57-18.66-10.77-10-10.77-10Z"/><path id="Tracé_3172-3" data-name="Tracé 3172" class="cls-6" d="M613.19,621.53s-6.42,10.23-8.61,18.78-1.72,27-1.72,27,9.67-11,10.84-21.07,1.07-24.59,1.07-24.59Z"/><path id="Tracé_3173-3" data-name="Tracé 3173" class="cls-6" d="M604.58,640.31c-1.94,7.52-1.8,22.67-1.74,26.21l.15.58.11-.12c.76-3.7,8.65-41.85,10.94-45.41l-.85,0L612,623.46C610.09,626.82,606.2,634,604.58,640.31Z"/><path id="Tracé_3174-3" data-name="Tracé 3174" class="cls-6" d="M616.35,621.67c11,12.61,15.54,31.76,15.54,31.76a38.82,38.82,0,0,1-13.84-9.49c-5.68-6.46-3.28-22.34-3.28-22.34Z"/><g id="Groupe_724-3" data-name="Groupe 724"><path id="Tracé_3175-3" data-name="Tracé 3175" class="cls-6" d="M613.39,597.5s-13.1,7-16.95,16.11-5.6,26.5-5.6,26.5S603,634,607.68,623.38s5.54-14.54,5.54-14.54Z"/><path id="Tracé_3176-3" data-name="Tracé 3176" class="cls-6" d="M596.44,613.61c-3.84,9.07-5.6,26.5-5.6,26.5s5-11.84,10.78-23.18c4.44-8.72,9.58-17.2,11.77-19.42C613.39,597.5,600.29,604.54,596.44,613.61Z"/></g><path id="Tracé_3177-3" data-name="Tracé 3177" class="cls-6" d="M615.58,621.63c1,14.7,16.31,31.8,16.31,31.8s-4.53-19.15-15.54-31.76Z"/><path id="Tracé_3178-3" data-name="Tracé 3178" class="cls-6" d="M590.47,595.26s23.27-27.44,32.41-31.35c0,0-13.81,4-20.87,9.57S590.47,595.26,590.47,595.26Z"/><path id="Tracé_3179-3" data-name="Tracé 3179" class="cls-6" d="M627.74,564.12l-.6.78c4.47,6.07,14.94,27.85,14.94,27.85s.19-12.77-3.57-18.66S627.74,564.12,627.74,564.12Z"/><path id="Tracé_3180-3" data-name="Tracé 3180" class="cls-6" d="M615.87,603.6s3.83,9.54,10,12.73a41.48,41.48,0,0,0,10.42,4s-4.76-10.89-7.42-12.65-13-5.44-13-5.44Z"/><path id="Tracé_3181-3" data-name="Tracé 3181" class="cls-6" d="M636.31,620.3s-4.76-10.9-7.42-12.66-12.95-5.43-12.95-5.43l0,.85a79.68,79.68,0,0,1,10.25,7.69C630.7,614.85,634.71,620,636.31,620.3Z"/></g><g id="plante-4" data-name="plante"><path id="Tracé_3169-4" data-name="Tracé 3169" class="cls-6" d="M581.05,531.2s-11.29,5.53-10.6,46.87l-2.62-.08s-2.61-28.86,8.61-46.93Z"/><path id="Tracé_3170-4" data-name="Tracé 3170" class="cls-6" d="M573,538.38a81.24,81.24,0,0,1-8.87,10.22c-4.36,4-14.9,8.26-14.9,8.26S553.12,543.61,559,539s17.41-8,17.41-8Z"/><path id="Tracé_3171-4" data-name="Tracé 3171" class="cls-6" d="M578.53,533.64A24.42,24.42,0,0,0,582,544.55c3.25,5,10,9.76,10,9.76s.29-10.39-2.77-15.13-8.84-8-8.84-8Z"/><path id="Tracé_3172-4" data-name="Tracé 3172" class="cls-6" d="M567.83,578s-5.42,8.38-7.33,15.35-1.7,21.92-1.7,21.92,8.14-9,9.21-17.24,1.13-20,1.13-20Z"/><path id="Tracé_3173-4" data-name="Tracé 3173" class="cls-6" d="M560.5,593.34c-1.68,6.13-1.72,18.44-1.7,21.31l.12.48.09-.1c.66-3,7.59-34.11,9.52-37l-.7,0-1,1.57C565.21,582.32,561.9,588.21,560.5,593.34Z"/><path id="Tracé_3174-4" data-name="Tracé 3174" class="cls-6" d="M570.45,578.07c9,10.14,12.57,25.66,12.57,25.66a31.39,31.39,0,0,1-11.38-7.58C567,591,569.14,578,569.14,578Z"/><g id="Groupe_724-4" data-name="Groupe 724"><path id="Tracé_3175-4" data-name="Tracé 3175" class="cls-6" d="M568.24,558.46s-11,5.85-14.22,13.26-4.91,21.59-4.91,21.59,10.15-5.12,14.13-13.76S568,567.67,568,567.67Z"/><path id="Tracé_3176-4" data-name="Tracé 3176" class="cls-6" d="M554,571.72c-3.28,7.41-4.91,21.59-4.91,21.59s4.26-9.67,9.17-18.94c3.77-7.14,8.12-14.08,10-15.91C568.24,558.46,557.29,564.31,554,571.72Z"/></g><path id="Tracé_3177-4" data-name="Tracé 3177" class="cls-6" d="M569.81,578.05C570.48,590,583,603.73,583,603.73s-3.57-15.52-12.58-25.66Z"/><path id="Tracé_3178-4" data-name="Tracé 3178" class="cls-6" d="M549.24,556.86s19.58-22.54,27.2-25.8c0,0-11.49,3.41-17.41,8S549.24,556.86,549.24,556.86Z"/><path id="Tracé_3179-4" data-name="Tracé 3179" class="cls-6" d="M580.47,531.18l-.5.64c3.65,4.88,12.11,22.49,12.11,22.49s.29-10.39-2.77-15.13S580.47,531.18,580.47,531.18Z"/><path id="Tracé_3180-4" data-name="Tracé 3180" class="cls-6" d="M570.24,563.39s3.08,7.72,8.18,10.25a34.22,34.22,0,0,0,8.61,3.11s-3.84-8.81-6-10.21-10.69-4.29-10.69-4.29Z"/><path id="Tracé_3181-4" data-name="Tracé 3181" class="cls-6" d="M587,576.75s-3.84-8.81-6-10.21-10.69-4.29-10.69-4.29l0,.69a64.72,64.72,0,0,1,8.43,6.15C582.43,572.38,585.7,576.56,587,576.75Z"/></g><polygon class="cls-8" points="1097.87 944.84 947.51 1031.36 949.53 897.12 1104.1 802.24 1097.87 944.84"/><g id="plante-5" data-name="plante"><path id="Tracé_3169-5" data-name="Tracé 3169" class="cls-6" d="M968.48,915.88s8.77,4.28,9.35,34h2s1.22-20.68-7.84-34Z"/><path id="Tracé_3170-5" data-name="Tracé 3170" class="cls-6" d="M974.81,921.26a68.1,68.1,0,0,0,7.05,7.59c3.44,3,11.61,6.33,11.61,6.33s-3.32-9.63-8-13.07S972,915.9,972,915.9Z"/><path id="Tracé_3171-5" data-name="Tracé 3171" class="cls-6" d="M970.46,917.7a15.65,15.65,0,0,1-2.39,7.75c-2.35,3.51-7.41,6.76-7.41,6.76s-.5-7.48,1.71-10.82,6.54-5.51,6.54-5.51Z"/><path id="Tracé_3172-5" data-name="Tracé 3172" class="cls-6" d="M979.83,949.88s4.37,6.18,6,11.24,1.89,15.82,1.89,15.82-6.46-6.74-7.5-12.65a136.33,136.33,0,0,1-1.4-14.41Z"/><path id="Tracé_3173-5" data-name="Tracé 3173" class="cls-6" d="M985.84,961.12c1.45,4.46,1.81,13.32,1.87,15.38l-.08.34-.07-.08c-.59-2.18-6.71-24.73-8.27-26.88h.54l.78,1.17A47.23,47.23,0,0,1,985.84,961.12Z"/><path id="Tracé_3174-5" data-name="Tracé 3174" class="cls-6" d="M977.83,949.87c-6.62,7.06-8.93,18.12-8.93,18.12a22,22,0,0,0,8.5-5.14c3.42-3.61,1.43-13,1.43-13Z"/><g id="Groupe_724-5" data-name="Groupe 724"><path id="Tracé_3175-5" data-name="Tracé 3175" class="cls-6" d="M979,935.83s8.53,4.5,11.23,9.91,4.33,15.67,4.33,15.67-7.9-4-11.17-10.28-3.94-8.67-3.94-8.67Z"/><path id="Tracé_3176-5" data-name="Tracé 3176" class="cls-6" d="M990.22,945.74c2.7,5.42,4.33,15.67,4.33,15.67S991,954.34,987,947.54c-3.07-5.23-6.58-10.35-8-11.71C979,935.83,987.52,940.33,990.22,945.74Z"/></g><path id="Tracé_3177-5" data-name="Tracé 3177" class="cls-6" d="M978.32,949.87c-.2,8.57-9.42,18.12-9.42,18.12s2.31-11.06,8.93-18.12Z"/><path id="Tracé_3178-5" data-name="Tracé 3178" class="cls-6" d="M993.47,935.18S977.9,918.45,972,915.9c0,0,8.88,2.76,13.52,6.21S993.47,935.18,993.47,935.18Z"/><path id="Tracé_3179-5" data-name="Tracé 3179" class="cls-6" d="M968.91,915.88l.4.47c-2.65,3.42-8.65,15.86-8.65,15.86s-.5-7.48,1.71-10.82S968.91,915.88,968.91,915.88Z"/><path id="Tracé_3180-5" data-name="Tracé 3180" class="cls-6" d="M977.6,939.32s-2.15,5.47-6,7.15a25.45,25.45,0,0,1-6.5,2s2.7-6.23,4.34-7.18,8.06-2.8,8.06-2.8Z"/><path id="Tracé_3181-5" data-name="Tracé 3181" class="cls-6" d="M965.12,948.48s2.7-6.23,4.34-7.18,8.06-2.8,8.06-2.8l.05.5a43.49,43.49,0,0,0-6.28,4.2C968.52,945.46,966.13,948.38,965.12,948.48Z"/></g><g id="plante-6" data-name="plante"><path id="Tracé_3169-6" data-name="Tracé 3169" class="cls-6" d="M1050.88,863.87s8.77,4.28,9.35,34l2,0s1.22-20.69-7.83-34Z"/><path id="Tracé_3170-6" data-name="Tracé 3170" class="cls-6" d="M1057.21,869.25a68.23,68.23,0,0,0,7,7.59c3.45,3,11.62,6.34,11.62,6.34s-3.32-9.63-8-13.08-13.53-6.21-13.53-6.21Z"/><path id="Tracé_3171-6" data-name="Tracé 3171" class="cls-6" d="M1052.87,865.69a15.92,15.92,0,0,1-2.39,7.76c-2.35,3.5-7.42,6.75-7.42,6.75s-.49-7.48,1.72-10.81,6.54-5.52,6.54-5.52Z"/><path id="Tracé_3172-6" data-name="Tracé 3172" class="cls-6" d="M1062.23,897.88s4.37,6.17,6,11.23,1.88,15.82,1.88,15.82-6.46-6.73-7.5-12.65a139.32,139.32,0,0,1-1.4-14.41Z"/><path id="Tracé_3173-6" data-name="Tracé 3173" class="cls-6" d="M1068.25,909.11c1.44,4.46,1.8,13.32,1.87,15.38l-.08.34-.07-.07c-.59-2.19-6.72-24.74-8.28-26.89h.54L1063,899A48,48,0,0,1,1068.25,909.11Z"/><path id="Tracé_3174-6" data-name="Tracé 3174" class="cls-6" d="M1060.23,897.86c-6.62,7.06-8.92,18.13-8.92,18.13a22,22,0,0,0,8.49-5.15c3.42-3.61,1.43-13,1.43-13Z"/><g id="Groupe_724-6" data-name="Groupe 724"><path id="Tracé_3175-6" data-name="Tracé 3175" class="cls-6" d="M1061.4,883.82s8.52,4.5,11.22,9.92S1077,909.4,1077,909.4s-7.89-4-11.17-10.28-3.94-8.66-3.94-8.66Z"/><path id="Tracé_3176-6" data-name="Tracé 3176" class="cls-6" d="M1072.62,893.74c2.7,5.41,4.33,15.66,4.33,15.66s-3.52-7.07-7.51-13.87c-3.07-5.23-6.59-10.35-8-11.71C1061.4,883.82,1069.92,888.32,1072.62,893.74Z"/></g><path id="Tracé_3177-6" data-name="Tracé 3177" class="cls-6" d="M1060.72,897.87c-.19,8.56-9.41,18.12-9.41,18.12s2.3-11.07,8.92-18.13Z"/><path id="Tracé_3178-6" data-name="Tracé 3178" class="cls-6" d="M1075.88,883.18s-15.57-16.73-21.49-19.29c0,0,8.88,2.76,13.53,6.21S1075.88,883.18,1075.88,883.18Z"/><path id="Tracé_3179-6" data-name="Tracé 3179" class="cls-6" d="M1051.32,863.87l.4.47c-2.66,3.42-8.66,15.86-8.66,15.86s-.49-7.48,1.72-10.81S1051.32,863.87,1051.32,863.87Z"/><path id="Tracé_3180-6" data-name="Tracé 3180" class="cls-6" d="M1060,887.31s-2.14,5.47-6,7.16a25.36,25.36,0,0,1-6.49,2s2.7-6.23,4.34-7.18,8.05-2.8,8.05-2.8Z"/><path id="Tracé_3181-6" data-name="Tracé 3181" class="cls-6" d="M1047.53,896.48s2.7-6.24,4.34-7.19,8.05-2.8,8.05-2.8l0,.5a44.23,44.23,0,0,0-6.27,4.2C1050.93,893.46,1048.54,896.37,1047.53,896.48Z"/></g><g id="plante-7" data-name="plante"><path id="Tracé_3169-7" data-name="Tracé 3169" class="cls-6" d="M1081.66,841.1s8.77,4.28,9.35,34h2s1.22-20.69-7.84-34Z"/><path id="Tracé_3170-7" data-name="Tracé 3170" class="cls-6" d="M1088,846.48a68.23,68.23,0,0,0,7,7.59c3.45,3,11.61,6.34,11.61,6.34s-3.32-9.63-8-13.08-13.52-6.2-13.52-6.2Z"/><path id="Tracé_3171-7" data-name="Tracé 3171" class="cls-6" d="M1083.65,842.93a15.88,15.88,0,0,1-2.39,7.75c-2.35,3.51-7.42,6.75-7.42,6.75s-.5-7.48,1.72-10.81,6.54-5.51,6.54-5.51Z"/><path id="Tracé_3172-7" data-name="Tracé 3172" class="cls-6" d="M1093,875.11s4.37,6.17,6,11.24,1.88,15.81,1.88,15.81-6.46-6.73-7.5-12.64a139.66,139.66,0,0,1-1.4-14.42Z"/><path id="Tracé_3173-7" data-name="Tracé 3173" class="cls-6" d="M1099,886.35c1.44,4.45,1.8,13.31,1.87,15.37l-.08.34-.07-.07c-.6-2.19-6.72-24.73-8.28-26.88h.54l.79,1.16A48.53,48.53,0,0,1,1099,886.35Z"/><path id="Tracé_3174-7" data-name="Tracé 3174" class="cls-6" d="M1091,875.1c-6.62,7-8.92,18.12-8.92,18.12a22.07,22.07,0,0,0,8.49-5.15c3.42-3.61,1.43-13,1.43-13Z"/><g id="Groupe_724-7" data-name="Groupe 724"><path id="Tracé_3175-7" data-name="Tracé 3175" class="cls-6" d="M1092.18,861.05s8.52,4.5,11.22,9.92,4.33,15.66,4.33,15.66-7.89-4-11.17-10.28-3.94-8.66-3.94-8.66Z"/><path id="Tracé_3176-7" data-name="Tracé 3176" class="cls-6" d="M1103.4,871c2.7,5.42,4.33,15.66,4.33,15.66s-3.52-7.07-7.51-13.87c-3.08-5.23-6.59-10.34-8-11.71C1092.18,861.05,1100.7,865.55,1103.4,871Z"/></g><path id="Tracé_3177-7" data-name="Tracé 3177" class="cls-6" d="M1091.5,875.1c-.19,8.56-9.41,18.12-9.41,18.12s2.3-11.07,8.92-18.12Z"/><path id="Tracé_3178-7" data-name="Tracé 3178" class="cls-6" d="M1106.65,860.41s-15.56-16.73-21.48-19.28c0,0,8.88,2.76,13.52,6.2S1106.65,860.41,1106.65,860.41Z"/><path id="Tracé_3179-7" data-name="Tracé 3179" class="cls-6" d="M1082.1,841.11l.4.47c-2.66,3.42-8.66,15.85-8.66,15.85s-.49-7.48,1.72-10.81S1082.1,841.11,1082.1,841.11Z"/><path id="Tracé_3180-7" data-name="Tracé 3180" class="cls-6" d="M1090.78,864.55s-2.15,5.46-6,7.15a25.78,25.78,0,0,1-6.49,2s2.7-6.24,4.33-7.19,8.06-2.8,8.06-2.8Z"/><path id="Tracé_3181-7" data-name="Tracé 3181" class="cls-6" d="M1078.31,873.71s2.7-6.23,4.33-7.18,8.06-2.8,8.06-2.8l0,.5a44.85,44.85,0,0,0-6.28,4.19C1081.71,870.69,1079.32,873.6,1078.31,873.71Z"/></g><g id="plante-8" data-name="plante"><path id="Tracé_3169-8" data-name="Tracé 3169" class="cls-6" d="M1016.83,885.06s11.28,5.53,10.6,46.86l2.62-.08s2.6-28.85-8.62-46.92Z"/><path id="Tracé_3170-8" data-name="Tracé 3170" class="cls-6" d="M1024.87,892.24a82.71,82.71,0,0,0,8.86,10.22c4.37,4,14.9,8.26,14.9,8.26s-3.88-13.25-9.79-17.82-17.41-8-17.41-8Z"/><path id="Tracé_3171-8" data-name="Tracé 3171" class="cls-6" d="M1019.35,887.5a24.54,24.54,0,0,1-3.51,10.91c-3.25,5-10.05,9.76-10.05,9.76s-.28-10.39,2.78-15.14,8.83-8,8.83-8Z"/><path id="Tracé_3172-8" data-name="Tracé 3172" class="cls-6" d="M1030.05,931.84s5.42,8.39,7.33,15.36,1.69,21.92,1.69,21.92-8.13-9-9.2-17.24a199.49,199.49,0,0,1-1.13-20Z"/><path id="Tracé_3173-8" data-name="Tracé 3173" class="cls-6" d="M1037.38,947.2c1.68,6.13,1.71,18.44,1.7,21.31l-.12.48-.09-.1c-.67-3-7.59-34.11-9.53-37l.71,0,1,1.57C1032.67,936.18,1036,942.07,1037.38,947.2Z"/><path id="Tracé_3174-8" data-name="Tracé 3174" class="cls-6" d="M1027.43,931.92c-9,10.15-12.58,25.67-12.58,25.67a31.31,31.31,0,0,0,11.38-7.58c4.65-5.19,2.51-18.12,2.51-18.12Z"/><g id="Groupe_724-8" data-name="Groupe 724"><path id="Tracé_3175-8" data-name="Tracé 3175" class="cls-6" d="M1029.64,912.32s10.94,5.85,14.22,13.26,4.91,21.59,4.91,21.59-10.15-5.12-14.14-13.76-4.74-11.88-4.74-11.88Z"/><path id="Tracé_3176-8" data-name="Tracé 3176" class="cls-6" d="M1043.86,925.58c3.27,7.41,4.91,21.59,4.91,21.59s-4.27-9.67-9.17-18.94c-3.77-7.14-8.12-14.08-10-15.91C1029.64,912.32,1040.58,918.17,1043.86,925.58Z"/></g><path id="Tracé_3177-8" data-name="Tracé 3177" class="cls-6" d="M1028.07,931.91c-.67,11.93-13.22,25.68-13.22,25.68s3.56-15.52,12.58-25.66Z"/><path id="Tracé_3178-8" data-name="Tracé 3178" class="cls-6" d="M1048.63,910.72s-19.58-22.54-27.2-25.8c0,0,11.5,3.41,17.41,8S1048.63,910.72,1048.63,910.72Z"/><path id="Tracé_3179-8" data-name="Tracé 3179" class="cls-6" d="M1017.4,885l.51.64c-3.65,4.88-12.12,22.49-12.12,22.49s-.28-10.39,2.78-15.13S1017.4,885,1017.4,885Z"/><path id="Tracé_3180-8" data-name="Tracé 3180" class="cls-6" d="M1027.64,917.25s-3.08,7.72-8.18,10.25a34.36,34.36,0,0,1-8.61,3.11s3.84-8.81,6-10.21,10.7-4.29,10.7-4.29Z"/><path id="Tracé_3181-8" data-name="Tracé 3181" class="cls-6" d="M1010.85,930.61s3.84-8.81,6-10.21,10.69-4.29,10.69-4.29l0,.69a65.3,65.3,0,0,0-8.42,6.15C1015.45,926.24,1012.18,930.42,1010.85,930.61Z"/></g><polygon class="cls-9" points="792.66 1000.19 949.49 1099.4 949.53 897.12 798.87 804.96 792.66 1000.19"/><g id="plante-9" data-name="plante"><path id="Tracé_3169-9" data-name="Tracé 3169" class="cls-6" d="M928.09,900.78s-15.28,7.51-12.82,66.8l-3.6-.21s-4.63-41.46,10.1-67Z"/><path id="Tracé_3170-9" data-name="Tracé 3170" class="cls-6" d="M917.33,910.78a108.23,108.23,0,0,1-11.79,14.33c-5.84,5.61-20.14,11.29-20.14,11.29s4.84-18.85,12.78-25.18,23.59-10.8,23.59-10.8Z"/><path id="Tracé_3171-9" data-name="Tracé 3171" class="cls-6" d="M924.72,904.19A37.8,37.8,0,0,0,929.94,920c4.64,7.29,14.13,14.37,14.13,14.37s0-14.88-4.36-21.8-12.41-11.78-12.41-11.78Z"/><path id="Tracé_3172-9" data-name="Tracé 3172" class="cls-6" d="M911.67,967.37s-7.13,11.81-9.49,21.73-1.52,31.37-1.52,31.37,10.82-12.68,12-24.38.82-28.62.82-28.62Z"/><path id="Tracé_3173-9" data-name="Tracé 3173" class="cls-6" d="M902.18,989.1c-2.08,8.73-1.68,26.38-1.55,30.5l.18.69.12-.14c.8-4.3,9.16-48.61,11.71-52.73l-1,0-1.27,2.22C908.23,973.48,903.92,981.8,902.18,989.1Z"/><path id="Tracé_3174-9" data-name="Tracé 3174" class="cls-6" d="M915.27,967.58c12.73,14.87,18.19,37.25,18.19,37.25a45.85,45.85,0,0,1-15.89-11.28c-6.57-7.61-4.1-26.08-4.1-26.08Z"/><g id="Groupe_724-9" data-name="Groupe 724"><path id="Tracé_3175-9" data-name="Tracé 3175" class="cls-6" d="M911.52,939.39s-14.8,8-19,18.49-6,30.77-6,30.77,13.74-7,18.89-19.21,6.06-16.85,6.06-16.85Z"/><path id="Tracé_3176-9" data-name="Tracé 3176" class="cls-6" d="M892.5,957.88c-4.22,10.5-6,30.77-6,30.77s5.5-13.71,11.88-26.82c4.92-10.09,10.63-19.89,13.09-22.44C911.52,939.39,896.72,947.38,892.5,957.88Z"/></g><path id="Tracé_3177-9" data-name="Tracé 3177" class="cls-6" d="M914.39,967.53c1.36,17.13,19.07,37.3,19.07,37.3s-5.46-22.38-18.19-37.25Z"/><path id="Tracé_3178-9" data-name="Tracé 3178" class="cls-6" d="M885.4,936.4s26-31.59,36.37-36c0,0-15.65,4.46-23.59,10.8S885.4,936.4,885.4,936.4Z"/><path id="Tracé_3179-9" data-name="Tracé 3179" class="cls-6" d="M927.3,900.74l-.67.89c5.19,7.14,17.44,32.69,17.44,32.69s0-14.88-4.36-21.8S927.3,900.74,927.3,900.74Z"/><path id="Tracé_3180-9" data-name="Tracé 3180" class="cls-6" d="M914.44,946.53s4.51,11.18,11.6,15A47.74,47.74,0,0,0,938,966.3s-5.59-12.77-8.65-14.86-14.82-6.54-14.82-6.54Z"/><path id="Tracé_3181-9" data-name="Tracé 3181" class="cls-6" d="M938,966.3s-5.59-12.76-8.65-14.86-14.82-6.53-14.82-6.53l0,1A95,95,0,0,1,926.24,955C931.49,959.87,936.13,966,938,966.3Z"/></g><g id="plante-10" data-name="plante"><path id="Tracé_3169-10" data-name="Tracé 3169" class="cls-6" d="M861.4,879.19s-12.57,6.24-7.47,61.77l-3.07-.38s-6-39,5.16-62.06Z"/><path id="Tracé_3170-10" data-name="Tracé 3170" class="cls-6" d="M852.78,888a85.07,85.07,0,0,1-9.27,12.79c-4.67,4.94-16.52,9.52-16.52,9.52s3.15-17.37,9.56-22.88S856,878.53,856,878.53Z"/><path id="Tracé_3171-10" data-name="Tracé 3171" class="cls-6" d="M858.73,882.2a41.69,41.69,0,0,0,5.22,15c4.31,7,12.73,14.14,12.73,14.14s-.75-13.9-4.81-20.59-11.13-11.64-11.13-11.64Z"/><path id="Tracé_3172-10" data-name="Tracé 3172" class="cls-6" d="M850.86,940.58s-5.45,10.68-7,19.83.31,29.24.31,29.24,8.54-11.31,8.93-22.17-.76-26.71-.76-26.71Z"/><path id="Tracé_3173-10" data-name="Tracé 3173" class="cls-6" d="M843.91,960.41c-1.32,8.05-.08,24.57.24,28.42l.19.65.09-.12c.47-4,5.3-45,7.26-48.68l-.83-.1-1,2C848.26,946.12,845,953.68,843.91,960.41Z"/><path id="Tracé_3174-10" data-name="Tracé 3174" class="cls-6" d="M853.93,941c11.56,14.54,17.33,35.73,17.33,35.73a45.6,45.6,0,0,1-14.06-11.34c-6-7.45-4.81-24.58-4.81-24.58Z"/><g id="Groupe_724-10" data-name="Groupe 724"><path id="Tracé_3175-10" data-name="Tracé 3175" class="cls-6" d="M849.31,914.42s-12.15,6.72-15.2,16.31-3.48,28.46-3.48,28.46,11.3-5.82,15-17S850,926.76,850,926.76Z"/><path id="Tracé_3176-10" data-name="Tracé 3176" class="cls-6" d="M834.11,930.73c-3.05,9.6-3.48,28.46-3.48,28.46s4-12.53,8.72-24.46c3.65-9.17,8-18,10-20.31C849.31,914.42,837.16,921.14,834.11,930.73Z"/></g><path id="Tracé_3177-10" data-name="Tracé 3177" class="cls-6" d="M853.18,940.87c2,16.07,18.08,35.83,18.08,35.83s-5.77-21.2-17.33-35.74Z"/><path id="Tracé_3178-10" data-name="Tracé 3178" class="cls-6" d="M827,910.3s20.49-28.19,29-31.77c0,0-13,3.37-19.47,8.89S827,910.3,827,910.3Z"/><path id="Tracé_3179-10" data-name="Tracé 3179" class="cls-6" d="M860.74,879.11l-.52.8c4.76,6.94,16.46,31.43,16.46,31.43s-.75-13.9-4.81-20.59S860.74,879.11,860.74,879.11Z"/><path id="Tracé_3180-10" data-name="Tracé 3180" class="cls-6" d="M852.15,921.25s4.39,10.67,10.61,14.6a44,44,0,0,0,10.36,5.07s-5.4-12.22-8.1-14.33-12.91-6.86-12.91-6.86Z"/><path id="Tracé_3181-10" data-name="Tracé 3181" class="cls-6" d="M873.12,940.92s-5.4-12.21-8.1-14.32-12.91-6.87-12.91-6.87l0,.93a96.48,96.48,0,0,1,10.46,9.12C867.3,934.58,871.55,940.52,873.12,940.92Z"/></g><g id="plante-11" data-name="plante"><path id="Tracé_3169-11" data-name="Tracé 3169" class="cls-6" d="M811.59,844.47s-9.31,4.63-4.92,47.07l-2.29-.33s-4.91-29.81,3.19-47.3Z"/><path id="Tracé_3170-11" data-name="Tracé 3170" class="cls-6" d="M805.26,851.09a62.63,62.63,0,0,1-6.78,9.67c-3.43,3.72-12.21,7.09-12.21,7.09s2.16-13.22,6.88-17.36,14.42-6.58,14.42-6.58Z"/><path id="Tracé_3171-11" data-name="Tracé 3171" class="cls-6" d="M809.62,846.74a33.16,33.16,0,0,0,4.06,11.51c3.28,5.42,9.63,10.93,9.63,10.93s-.7-10.62-3.8-15.77a35.63,35.63,0,0,0-8.42-9Z"/><path id="Tracé_3172-11" data-name="Tracé 3172" class="cls-6" d="M804.38,891.22s-3.94,8.09-5,15.06.53,22.31.53,22.31,6.25-8.53,6.43-16.82-.85-20.39-.85-20.39Z"/><path id="Tracé_3173-11" data-name="Tracé 3173" class="cls-6" d="M799.42,906.28c-.9,6.13.2,18.75.47,21.69l.15.5.07-.09c.3-3,3.47-34.26,4.89-37.08l-.62-.08-.7,1.52A58.05,58.05,0,0,0,799.42,906.28Z"/><path id="Tracé_3174-11" data-name="Tracé 3174" class="cls-6" d="M806.67,891.54C815.45,902.76,820,919,820,919a35.58,35.58,0,0,1-10.6-8.81c-4.52-5.75-3.84-18.81-3.84-18.81Z"/><g id="Groupe_724-11" data-name="Groupe 724"><path id="Tracé_3175-11" data-name="Tracé 3175" class="cls-6" d="M803,871.24s-9,5-11.16,12.28-2.29,21.68-2.29,21.68,8.36-4.32,11-12.81,3-11.73,3-11.73Z"/><path id="Tracé_3176-11" data-name="Tracé 3176" class="cls-6" d="M791.79,883.52c-2.17,7.3-2.29,21.68-2.29,21.68s2.83-9.52,6.24-18.57c2.63-7,5.78-13.69,7.21-15.39C803,871.24,794,876.23,791.79,883.52Z"/></g><path id="Tracé_3177-11" data-name="Tracé 3177" class="cls-6" d="M806.11,891.46C807.79,903.75,820,919,820,919s-4.52-16.24-13.3-27.46Z"/><path id="Tracé_3178-11" data-name="Tracé 3178" class="cls-6" d="M786.27,867.85s15-21.3,21.3-23.94c0,0-9.69,2.44-14.42,6.58S786.27,867.85,786.27,867.85Z"/><path id="Tracé_3179-11" data-name="Tracé 3179" class="cls-6" d="M811.09,844.4l-.38.61c3.62,5.34,12.6,24.17,12.6,24.17s-.7-10.62-3.8-15.77A35.63,35.63,0,0,0,811.09,844.4Z"/><path id="Tracé_3180-11" data-name="Tracé 3180" class="cls-6" d="M805.14,876.47s3.39,8.2,8.06,11.26a33.43,33.43,0,0,0,7.77,4s-4.15-9.38-6.18-11-9.7-5.38-9.7-5.38Z"/><path id="Tracé_3181-11" data-name="Tracé 3181" class="cls-6" d="M821,891.71s-4.16-9.38-6.19-11-9.7-5.37-9.7-5.37l0,.7a76.06,76.06,0,0,1,7.9,7.08C816.57,886.81,819.8,891.39,821,891.71Z"/></g><polygon class="cls-2" points="334.81 108.4 501.99 120.7 415.12 156.47 334.81 108.4"/><polygon class="cls-1" points="1327.68 132.65 1406.38 164.84 1558.25 109.75 1327.68 132.65"/></g></svg>