<?xml version="1.0" encoding="utf-8"?>
<!-- Generator: Adobe Illustrator 24.0.1, SVG Export Plug-In . SVG Version: 6.00 Build 0)  -->
<svg version="1.1" id="Calque_1" xmlns="http://www.w3.org/2000/svg" xmlns:xlink="http://www.w3.org/1999/xlink" x="0px" y="0px"
	 viewBox="0 0 1919.6 1051.2" style="enable-background:new 0 0 1919.6 1051.2;" xml:space="preserve">
<style type="text/css">
	.st0{fill:url(#SVGID_1_);}
	.st1{opacity:0.51;fill:#1C3F3C;enable-background:new    ;}
	.st2{opacity:0.75;}
	.st3{fill:#1C3F3C;}
	.st4{opacity:0.24;fill:#0C0D09;enable-background:new    ;}
	.st5{fill:none;}
</style>
<title>fond2Plan de travail 7 copie 2</title>
<g id="Calque_2_1_">
	
		<linearGradient id="SVGID_1_" gradientUnits="userSpaceOnUse" x1="959.2676" y1="1020.4995" x2="959.1475" y2="24.2395" gradientTransform="matrix(1 0 0 -1 0 1051.7795)">
		<stop  offset="0" style="stop-color:#DCF8E3"/>
		<stop  offset="0.19" style="stop-color:#A2F0C7"/>
		<stop  offset="0.39" style="stop-color:#6DE9AD"/>
		<stop  offset="0.58" style="stop-color:#44E398"/>
		<stop  offset="0.75" style="stop-color:#26DF89"/>
		<stop  offset="0.9" style="stop-color:#14DD80"/>
		<stop  offset="1" style="stop-color:#0DDC7D"/>
	</linearGradient>
	<rect x="-0.8" y="-4.9" class="st0" width="1920" height="1055.8"/>
	<path d="M1918.7-4.4v1054.8H-0.3V-4.4H1918.7 M1919.7-5.4H-1.3v1056.8h1921V-5.4z"/>
	<path class="st1" d="M1902.8,523.4c-8.3-31-10-61.6-2.8-93.5c9-39.7,16-79.8,10.7-121.3c-2.7-21-2.6-42.4-2.7-63.6
		c-0.7-78.4-0.9-156.9-1.7-235.3c0-3.6-3.9-10.1-6.2-10.2c-15.4-0.9-31-0.5-45-0.5c2.3,37.4,7.3,71.7,5.8,105.6
		c-2.3,51-4.1,103.1-15.4,152.3c-10.3,45-53.5,105.9-71,149.6c-9.8-21.3-66-36.8-77-58.2c-24.3-46.9-8.1-273.3-7.6-330.5
		c0.3-12.9-2.8-19.6-16-18.6c-11.7,0.8-23.5,0.7-35.3,0.2c-10.3-0.4-11.8,4.8-13.1,14.7c-6.2,50.2-10.4,100.9-21.2,150
		c-12.8,58.7-33.6,115.4-47.1,174c-11.1,47.9-22.2,97.2-23.3,146.1c-1.9,86.5,2.4,173.4,7.1,259.9c2.4,46.6,11.1,92.9,17,139.2
		c1.6,12.2-3.3,137.2,9,137.1c106.4-0.5,212.9-0.2,319.4-0.1c7.7,0,26-120.8,33.6-120.8V588C1914.3,566.5,1908.6,544.9,1902.8,523.4
		z"/>
	<g class="st2">
		<path class="st1" d="M897.6,394.8l37.9-4.9l-28.8-57.2c2.5-1.3,29.6-32.1,32.1-33.4c12.4,7.6,19.3,23.3,34.3,32.5
			c74.1-109.3,110.6-199.1,73.8-328.3c12.2-0.9,20-1.9,27.8-1.9c28.7-0.3,57.5,0.3,86.2-0.6c19-0.6,27,4.6,26,20.5
			c-3.6,53.8-4.4,107.8-9.3,161.5c-5.7,61.5-45.1,98.2-71.3,156.6c-4.4,9.7-9.2,43.2-15.1,52.4c-28.2,43.8-5.3,90.3-1.3,138.6
			c6.3,74.8,21.2,148.4,48.9,219.9c18.1,46.8,40.8,92.4,61.4,138.5c1.6,3.5,22.6,126.2,24.9,131.1h-196.9
			c-4.7-40.5-28.3-199.7-33.4-239.7c-8.2-65-13.1-130.5-26.8-194.7c-7.8-36.3-18.7-70.7-32.5-106.5C925,452,905.9,424.1,897.6,394.8
			z"/>
		<path class="st1" d="M351.8,900.9H241.1c-0.9-27.6-3.1-54.6-2.5-81.6c2.4-105.8,4.3-211.5,9.2-317.2
			c2.4-51.6,11.9-102.7,16.8-154.2c6.2-64.8,4.9-129-8-193.4c-8.8-44-10.6-89.6-15.5-134.4C239.7,7.9,242.6,0.6,256.4,1
			c11.4,0.3,17.6,1,19.7,16.8c4.6,35.5,12.6,70.5,19.8,105.6c4.5,22.2,17.7,30.3,25.1,51.4c3.5,10.2,4.7,32.5,12.7,40.6
			c6.3,6.3,14,11,20.6,17c17,15.6,25.5,34.6,21.9,59.3C365.1,367,352.1,442.3,344.7,518c-5.3,53.4-4.6,107.8-3.3,161.7
			C343.2,753.1,348.1,826.4,351.8,900.9z"/>
		<path class="st1" d="M530.8,973.5c-29.1,0-57.3,0.5-85.3-0.5c-5.4-0.2-14.1-6-14.9-9.8c-20.2-101-58.1-272-37.2-374.7
			c8-39.4,8.2-79.3,13.9-118.9c2.8-19.4,10.7-38.4,15.4-57.7c10-40.8,21.1-81.6,28.7-122.7c7.7-41.6,15.6-83.4,16.3-125.2
			c0.8-52.1-17.5-102.6-50.9-150.6c-1.6-2.3-2.3-5-4.9-10.6c38.1,0,73.4-0.5,108.7,0.6c4.7,0.2,12.2,8.2,12.7,12.9
			c4.7,42.9,9.9,85.9,11.6,128.8c4.3,108,2.1,216.2-26.6,322.8c-13.3,49.6-8.9,96.3,13.9,143.3c22.8,47,20.4,94.2,0.4,140.4
			C511.3,801.5,514.5,921.5,530.8,973.5z"/>
		<path class="st1" d="M78.1,898.1c-17.4,0-34.2,0.5-51-0.5c-3.2-0.2-8.5-6-8.9-9.8C6.1,786.9-10.5,686.3,2,583.7
			c4.8-39.4,4.9-79.3,8.3-118.9c1.7-19.4,6.4-38.4,9.2-57.7c6-40.8,12.6-81.6,17.2-122.7c4.6-41.6,9.4-83.4,9.7-125.2
			C47,107.1,36,56.6,16.1,8.7c-1-2.3-1.4-5-2.9-10.6c22.8,0,43.9-0.5,65,0.6c2.8,0.2,7.3,8.2,7.6,12.9c2.8,42.9,5.9,85.9,6.9,128.8
			c2.6,108,1.3,216.2-15.9,322.8c-8,49.6-5.3,96.3,8.3,143.3s12.2,94.2,0.2,140.4C72.5,796.6,68.4,846.1,78.1,898.1z"/>
	</g>
	<path class="st3" d="M1856.5,802.6c-37.6-13.7-76.2-26.2-119.8-28.9c-10-0.6-22.3-0.5-30.3,2.7c-40,15.8-79,32.8-119.8,50
		c39,28.7,78.9,50.6,131.3,60.5c5.9,1.1,14.1-0.8,20.2-2.7c5.9-1.9,10.4-5.7,17.4-9.8c13.4,14.3,6.6,40.2,50,32.8l18.2-32.2
		c7.8,11.4,16.2,18.8,17.5,26.8c2.8,16.7,17.8,21.1,41.5,21.3l12.1-28.2c8.3,5.9,16.4,11.2,23.9,16.3l0.8-85
		C1898.6,818.2,1877.7,810.3,1856.5,802.6z"/>
	<path class="st3" d="M1835.7,975.6c-26.4-16.1-50.9-31.6-76.4-46.3c-5.6-3.2-14.7-3.8-22.2-5.7c-1,5.6-3,11.2-2.6,16.8
		c0.4,5.3,3.1,10.2,7.4,13.5c-34.7-21.1-68-43.4-104.6-62.9c-51.2-27.3-62.4-11.6-64.1,15.2c-1.2,19.1-5.1,38.1-8.2,59.5
		c-3.8-6.8-6.2-11.9-9.4-16.7c-7.1-10.6-14.6-23.6-34.9-22.5c-11.1,0.6-21.1,10.2-32.2,16c0-5.1,1.2-11.9-0.2-18.4
		c-3.2-14-6.1-28.2-12.7-41.6c-2.5-5.1-14.4-10.7-22.6-11.2c-6.8-0.4-17.9,5.5-21.2,10.3c-8.8,12.9-14.5,26.7-21.4,40.2
		c-1.4,2.8-2.8,5.6-5.8,11.6c-1.8-11.6-1.1-20.1-5-27.5c-2.7-5.2-10.8-11.3-18.1-12.5c-5.4-0.8-14.7,5.1-19.9,9.3
		c-5,4-7,9.6-11.1,15.7c-6.9-23-27.2-28.2-54.9-14.5c-10.9,5.4-20.9,12.7-27.7,20.5c-22.4,25.9-43.2,52.4-61.5,74.8
		c-12.3-6.5-26.4-18.3-44.7-22.8c-23.2-5.8-40.1,6.2-48.3,15.2c-3.9-9.2-4.4-22.6-14.5-30.8c-12.6-10.3-34.2-6-81.4,10.7
		c0-10.2,0.7-20.6-0.2-31c-1.2-14.6-4.1-29.7-28.8-35.3c-24.1-5.4-48-3-65.5,10.4c-15.7,12.1-29.7,25.3-45,38.4
		c-3.1-3.7-7.2-9.1-12-14.3c-14.8-15.9-37.3-21.2-60.7-10.9c-20.8,9.2-37.5,22.5-55.5,33.7c-8.5-8.6-15.3-9.2-26.2,1.5
		s-19.6,22.4-29.4,33.5c-3.7,4.2-7.8,8.3-15.2,16.2c-5.6-21.6-9.9-39-14.9-56.4c-2.2-7.6-4.7-15.5-9.5-22.5
		c-9.4-13.9-22.8-15.7-38.8-4.8c-14.5,10-27.1,21.1-40.2,31.9c-6.9,5.7-13.2,11.6-22.7,16.9c-4.9-15.5-1.2-30.4,5.8-44.9
		c5.3-10.9,14.2-21.2,18.1-32.3c0.4-1,0.6-2.1,0.6-3.2c0.3-9.3-9.6-16.3-19.8-14.5c-5.2,1-10.1,2.2-13.4,4.4
		c-27.3,18.3-52.9,37.8-82.8,56.2c3-7,6.8-14,8.6-21.1c1.3-5.1-0.1-10.5-0.2-15.8c-8.2,1.4-17.6,1.6-24.5,4.4
		c-17.9,7.2-34.6,15.6-51.9,23.3c-2.1,1-5.2,0.9-9.4,1.6c9.3-12.8,19.4-24.5,26.4-36.9c7.8-13.7,4.5-27.2-10.9-39.6
		c18-11.1,52.5-9,59.6-30.4c1.6,5.8,3.1,11.6,4.9,18.1c13.6-1,26-1.9,38.5-2.8c36.1-2.6,36.5-2.8,46.3-29.1
		c23.3,23.7,51.6,9.9,82.9,7c-7.5-5.7-12.3-10.6-18.8-14c-54-28.3-114.8-47.6-184.5-48.6c-69.1-1-124.9,17.8-162.1,59.6
		c-17.8-4.7-33.1-0.3-43.7,11.4l-39.6-10.3l48.1-7.5c0-2.5,0-1.9-0.1-4.4l-55.3-6.9c-0.7-7.8-2.2-8-53.6-6.4l25.1-10.4l-46.5-8.1
		c16.6-21,35.1-39.1,69.9-47.8c1.7,1.6,2.6,2.3,3,3c4.5,8.3-3.7,21.3,16,23.8c25.7,3.2,54.2-6.2,63.6-18.2
		c6-7.7,12.9-15.2,22.7-26.7l22.1,38.1c11.9-1.1,31.5,0.8,39.6-4.7c7.7-5.2,3.2-18,8.3-28.5l19.3,25.8h121.5
		c-27.3-26.4-64.8-47.4-109.4-62.8C296,651.5,208.5,645.8,119,653.8c-40.9,3.7-81.2,9.8-120.4,15.2v385.7
		c199.6-0.1,399.2,0,598.8,0.2c210.9,0,421.7-0.1,632.6-0.4c189.1,0,378.2,0.1,567.2,0.4h120.3l0.9-99.3
		C1887.1,957.7,1857.7,962.6,1835.7,975.6z"/>
	<path class="st3" d="M1911.8,651.7c-180.6-57.9-354.8-10.9-475.8,71.2c26.8,4.6,53.4,9.8,80.6,13.4c5.6,0.7,13.2-3.9,19.4-6.6
		c24.9-10.8,49.5-21.9,76.4-30.6l-35.9,45.8c6.9,2.2,9.8,3.4,13,4.1c41.7,8.9,41.5,8.8,61.7-15.8c5.8-7.1,13.6-13.5,20.4-20.2
		l4.6,1.6v48.2c15.8-2.3,34.1,1.6,34.8-14.8c3.7,0.8,7.9,0.8,9.6,2.2c17.7,14.9,42.4,12.5,67,13.2c30.7,0.9,61.1,4.9,91.8,6.3
		c6.7,0.3,15.8-3.7,20.7-7.5c6.9-5.4,13.6-10.9,20.4-16.7l0.8-90.7L1911.8,651.7z"/>
	<polygon class="st4" points="1919.6,1050.9 0,1053.2 0,-4.8 1919.6,-7.2 	"/>
	<path class="st5" d="M993.1,199.4l0.2,0.3c1.2-0.2,2.4-0.3,3.7-0.3H993.1z"/>
</g>
</svg>
