<svg xmlns="http://www.w3.org/2000/svg" xmlns:xlink="http://www.w3.org/1999/xlink" viewBox="0 0 1919.64 1051.17"><defs><style>.cls-1{fill:url(#Dégradé_sans_nom_2);}.cls-2,.cls-4{fill:#1c3f3c;}.cls-2{opacity:0.51;}.cls-3{opacity:0.75;}.cls-5{fill:#214c47;}.cls-6,.cls-8{fill:#0c0d09;}.cls-6{opacity:0.48;}.cls-7{fill:none;}.cls-9{fill:#152322;}</style><linearGradient id="Dégradé_sans_nom_2" x1="959.83" y1="31.01" x2="959.71" y2="1027.27" gradientUnits="userSpaceOnUse"><stop offset="0" stop-color="#dcf8e3"/><stop offset="0.19" stop-color="#a2f0c7"/><stop offset="0.39" stop-color="#6de9ad"/><stop offset="0.58" stop-color="#44e398"/><stop offset="0.75" stop-color="#26df89"/><stop offset="0.9" stop-color="#14dd80"/><stop offset="1" stop-color="#0ddc7d"/></linearGradient></defs><title>fond2Plan de travail 7 copie 3</title><g id="Calque_2" data-name="Calque 2"><rect class="cls-1" x="-0.23" y="-5.17" width="1920" height="1055.84"/><path d="M1919.27-4.67V1050.17H.27V-4.67h1919m1-1H-.73V1051.17h1921V-5.67Z"/><path class="cls-2" d="M1903.35,451.38c-8.29-26.78-10-53.21-2.81-80.74,9-34.26,16-68.89,10.73-104.74-2.66-18.1-2.55-36.6-2.74-54.93-.7-67.73-.92-135.47-1.73-203.2,0-3.11-3.9-8.73-6.24-8.85-15.45-.8-31-.42-45-.42,2.3,32.33,7.3,61.88,5.8,91.15-2.26,44-4.09,89-15.4,131.51-10.35,38.87-53.53,91.48-71,129.21-9.83-18.42-66-31.81-77-50.24-24.3-40.52-8.12-235.94-7.62-285.41.3-11.11-2.76-16.89-16-16.1-11.71.69-23.52.6-35.26.16-10.29-.38-11.85,4.16-13.07,12.72-6.15,43.31-10.43,87.14-21.17,129.54-12.84,50.68-33.58,99.65-47.09,150.21-11.07,41.4-22.21,83.93-23.27,126.17-1.87,74.73,2.41,149.69,7.08,224.4C1544,682.06,1552.65,722,1558.57,762c1.56,10.57,7.34,14.1,19.66,14.05,106.46-.47,212.92-.13,319.37-.06h23V507.18Q1912,479.27,1903.35,451.38Z"/><g class="cls-3"><path class="cls-2" d="M898.15,340.33l37.94-4.22-28.76-49.39c2.49-1.1,29.61-27.75,32.1-28.86,12.39,6.58,19.35,20.16,34.32,28.1,74.11-94.41,110.58-171.9,73.8-283.48,12.19-.76,20-1.61,27.8-1.68,28.73-.25,57.49.24,86.19-.49,19-.49,27,3.94,26,17.69-3.57,46.48-4.36,93.09-9.34,139.49-5.69,53.07-45.06,84.83-71.32,135.25-4.37,8.39-9.17,37.29-15.07,45.21-28.15,37.8-5.32,78-1.26,119.67,6.3,64.61,21.16,128.13,48.86,189.9,18.09,40.37,40.77,79.76,61.4,119.58,1.55,3,3.2,6,5.48,10.23H1009.39c-4.66-34.94-8.91-69.49-13.95-104-8.19-56.12-13.1-112.64-26.85-168.12-7.77-31.37-18.71-61.07-32.52-91.93C925.54,389.77,906.44,365.64,898.15,340.33Z"/><path class="cls-2" d="M352.38,777.32H241.7c-.92-23.87-3.12-47.17-2.51-70.42,2.39-91.31,4.28-182.66,9.2-273.86,2.41-44.52,11.85-88.67,16.75-133.12,6.16-55.92,4.92-111.37-7.95-167-8.8-38-10.59-77.33-15.53-116.06C240.31,6.3,243.21,0,257,.34c11.37.3,17.64.86,19.69,14.48C281.3,45.48,289.3,75.73,296.49,106c4.54,19.14,17.72,26.12,25.07,44.38,3.55,8.83,4.68,28.1,12.69,35.07,6.29,5.46,14,9.5,20.6,14.7,17,13.44,25.53,29.84,21.9,51.17-11.06,65.06-24.06,130-31.53,195.38-5.28,46.15-4.64,93.08-3.31,139.59C343.72,649.72,348.7,713.05,352.38,777.32Z"/><path class="cls-2" d="M521.22,779.17c-29.11,0-57.25.46-85.26-.4-5.42-.17-14.13-5.21-14.88-8.46-20.2-87.16-48-174-27.06-262.62,8-34,8.16-68.47,13.89-102.63,2.81-16.73,10.67-33.18,15.4-49.83,10-35.27,21.15-70.48,28.74-105.92,7.7-35.91,15.64-72,16.29-108.11.8-45-17.55-88.61-50.86-130-1.63-2-2.31-4.3-4.85-9.17,38.07,0,73.43-.43,108.68.51,4.71.13,12.16,7.1,12.67,11.12,4.69,37.05,9.86,74.13,11.59,111.25,4.35,93.27,2.14,186.65-26.57,278.72-13.35,42.81-8.89,83.15,13.92,123.7s20.39,81.31.42,121.22C511.82,691.55,504.94,734.28,521.22,779.17Z"/><path class="cls-2" d="M78.69,774.93c-17.41,0-34.24.45-51-.4-3.23-.17-8.45-5.21-8.9-8.46C6.71,678.91-9.92,592.06,2.61,503.45c4.8-34,4.88-68.47,8.31-102.63,1.68-16.73,6.38-33.18,9.21-49.83,6-35.27,12.65-70.48,17.19-105.92,4.61-35.91,9.36-72,9.74-108.11.48-45-10.49-88.61-30.42-130-1-2-1.38-4.3-2.9-9.17,22.77,0,43.92-.43,65,.51,2.83.13,7.28,7.1,7.59,11.12,2.8,37.05,5.89,74.13,6.93,111.25,2.6,93.27,1.28,186.65-15.9,278.72-8,42.81-5.31,83.15,8.33,123.7s12.2,81.31.25,121.22C73.07,687.31,69,730,78.69,774.93Z"/></g><path class="cls-4" d="M1858.07,588.23c-37.63-13.67-76.16-26.17-119.81-28.93-10-.64-22.27-.5-30.35,2.7-40,15.82-79,32.78-119.81,50,39,28.72,78.92,50.64,131.33,60.51,5.92,1.12,14.12-.78,20.17-2.73,5.89-1.91,10.37-5.68,17.39-9.75,13.43,14.28,6.59,40.17,50,32.78l18.23-32.22c7.78,11.41,16.23,18.85,17.54,26.78,2.76,16.73,17.79,21.13,41.53,21.33l12.14-28.17c8.35,5.88,16.4,11.15,23.94,16.28l.75-85C1900.14,603.86,1879.21,595.92,1858.07,588.23Z"/><path class="cls-5" d="M1837.24,761.27c-26.37-16.1-50.91-31.57-76.43-46.3-5.6-3.23-14.74-3.83-22.24-5.65-1,5.59-3,11.21-2.6,16.76a18.57,18.57,0,0,0,7.43,13.45c-34.74-21.07-68-43.37-104.59-62.9-51.24-27.32-62.45-11.6-64.14,15.16-1.21,19.09-5.12,38.1-8.16,59.48-3.8-6.8-6.18-11.86-9.41-16.68C1550,724,1542.48,711,1522.23,712.08c-11.09.59-21.06,10.18-32.2,16,0-5.07,1.24-11.89-.25-18.44-3.2-14-6.14-28.22-12.71-41.61-2.49-5.06-14.37-10.7-22.63-11.18-6.77-.39-17.87,5.51-21.18,10.35-8.82,12.89-14.49,26.71-21.4,40.17-1.43,2.8-2.81,5.61-5.82,11.61-1.8-11.6-1.09-20.08-5-27.55-2.67-5.15-10.79-11.33-18.13-12.47-5.36-.83-14.67,5.14-19.9,9.33-5,4-7,9.6-11.07,15.66-6.91-23-27.22-28.23-54.94-14.51-10.93,5.41-20.92,12.69-27.67,20.48-22.44,25.88-43.22,52.39-61.51,74.82-12.27-6.55-26.38-18.29-44.65-22.82-23.23-5.75-40.08,6.18-48.26,15.18-3.94-9.21-4.38-22.56-14.51-30.81-12.64-10.3-34.25-6-81.36,10.71,0-10.22.67-20.62-.17-31-1.17-14.58-4.08-29.73-28.8-35.27-24.12-5.4-48-3-65.51,10.44-15.73,12.13-29.67,25.26-45,38.43-3.09-3.72-7.15-9.14-11.95-14.27-14.85-15.89-37.26-21.24-60.73-10.87-20.82,9.21-37.47,22.46-55.53,33.67-8.55-8.64-15.27-9.18-26.21,1.5S705.59,772,695.78,783.15c-3.7,4.21-7.77,8.27-15.21,16.16-5.64-21.58-9.86-39-14.89-56.36-2.21-7.64-4.73-15.46-9.48-22.5-9.4-13.94-22.84-15.72-38.8-4.76-14.49,9.95-27.09,21.09-40.22,31.86-6.89,5.65-13.15,11.62-22.72,16.92-4.94-15.54-1.25-30.41,5.75-44.91,5.29-10.94,14.22-21.22,18.13-32.31a10.39,10.39,0,0,0,.58-3.21c.28-9.33-9.62-16.34-19.8-14.49-5.24,1-10.09,2.16-13.37,4.36-27.33,18.35-52.87,37.84-82.82,56.15,3-7,6.78-14,8.6-21.12,1.3-5.11-.07-10.51-.25-15.79-8.25,1.4-17.59,1.62-24.52,4.41-17.86,7.19-34.59,15.57-51.94,23.32-2.12,1-5.24.94-9.41,1.61,9.34-12.82,19.43-24.47,26.44-36.87,7.76-13.74,4.51-27.24-10.85-39.59,18-11.09,52.45-8.95,59.64-30.39,1.57,5.8,3.15,11.61,4.9,18.07,13.61-1,26-1.92,38.49-2.81,36.11-2.59,36.48-2.8,46.29-29.1,23.3,23.7,51.57,9.94,82.88,7-7.54-5.69-12.29-10.58-18.84-14-54-28.33-114.77-47.63-184.47-48.6-69.14-1-124.87,17.83-162.15,59.58-17.81-4.73-33.12-.31-43.7,11.41l-39.58-10.33,48.14-7.49c0-2.54,0-1.86-.08-4.39l-55.27-6.88c-.74-7.79-2.17-8-53.6-6.41l25.12-10.38-46.52-8.08c16.59-21,35.14-39.13,69.95-47.84,1.66,1.63,2.62,2.28,3,3,4.5,8.26-3.71,21.31,16,23.77,25.68,3.21,54.16-6.15,63.55-18.15,6-7.72,12.85-15.18,22.69-26.7l22.12,38.13c11.85-1.1,31.5.75,39.62-4.73,7.66-5.17,3.17-18,8.33-28.45l19.27,25.77H488.29C461,501.62,423.5,480.61,378.92,465.24c-81.4-28.07-168.87-33.8-258.41-25.81-40.88,3.65-81.25,9.75-120.4,15.21V840.33q299.43-.15,598.85.16,316.29,0,632.58-.41,283.62,0,567.24.43l120.27,0,.88-99.35C1888.65,743.39,1859.23,748.28,1837.24,761.27Z"/><path class="cls-5" d="M1913.3,437.36c-180.64-57.86-354.83-10.87-475.78,71.25,26.78,4.61,53.43,9.78,80.56,13.41,5.58.74,13.25-3.94,19.43-6.64,24.86-10.85,49.52-21.9,76.41-30.56L1578,530.59c6.92,2.21,9.82,3.42,13,4.1,41.7,8.93,41.46,8.82,61.66-15.83,5.79-7.07,13.57-13.45,20.39-20.17l4.56,1.6v48.23c15.76-2.27,34.05,1.63,34.77-14.79,3.66.8,7.92.85,9.56,2.23,17.73,14.94,42.43,12.47,67,13.17,30.68.87,61.13,4.93,91.82,6.35,6.71.31,15.81-3.72,20.67-7.48,6.95-5.4,13.64-10.94,20.38-16.67l.8-90.74Z"/><polygon class="cls-6" points="1918.31 1051.58 -1.33 1053.92 -1.33 -4.09 1918.31 -6.43 1918.31 1051.58"/><path class="cls-7" d="M993.66,199.17l.15.28a24.81,24.81,0,0,1,3.68-.28Z"/><rect class="cls-8" x="-1.28" y="869.89" width="1921.83" height="181.27"/><path class="cls-9" d="M1919.35,561.91c-4.51-.59-11.46,5.25-17.72,8.71a3,3,0,0,1-1.86.34c-41.84-4.9-85.48-11.32-129.8-14.86-80.26-6.4-158.66-1.81-231.62,20.7-37.29,11.5-69,26.94-93,46.19-1.86,1.5-.62,4.21,1.92,4.21h100.5a3,3,0,0,0,2.29-1c4.72-5.65,9-10.78,13.21-15.82,1.42-1.69,4.51-1.14,5,.91,1.72,7.19.07,14.7,5.67,18.08,6.89,4.16,23,3,33.73,3.66a2.94,2.94,0,0,0,2.67-1.24l17-26.12a3.06,3.06,0,0,1,4.61-.37c7.44,7.74,12.86,13.13,17.73,18.7,8.42,9.62,33.94,17.12,57,14.55,17.65-2,10.29-12.44,14.32-19.06a7.47,7.47,0,0,1,1.6-1.49,3.16,3.16,0,0,1,2.68-.6c28.24,6.66,44.33,19.65,58.26,34.81,1.33,1.45.39,3.6-1.71,3.93l-27.86,4.32c-2.73.43-3.16,3.69-.61,4.63l.22.08c2.84,1.05,1.9,4.74-1.19,4.66-27.88-.68-31.94-.12-32.92,3.81a2.71,2.71,0,0,1-2.4,2l-28.22,3.15c-.09,4.85-.06,3.46-.15,8.32l11.13,1.55c3,.41,3.2,4.06.28,4.74l-21.2,4.95a3.15,3.15,0,0,1-2.8-.7c-9.08-8.27-21.74-11.48-36.38-8.43a3.06,3.06,0,0,1-2.76-.73c-33.4-32.72-82.94-47.45-144.22-46.69-62.48.78-117,16.26-165.36,39-4.27,2-7.69,4.63-11.84,7.67-1.85,1.36-1,4,1.43,4.26,24.16,3,46.13,10.4,64.77-3.77a3,3,0,0,1,4.51,1c7.47,17.63,9.55,17.89,40,19.85,10.43.66,20.86,1.36,32.15,2.09a2.82,2.82,0,0,0,2.94-1.81c.68-2.25,1.34-4.4,2-6.51s3.52-2.44,4.93-.82c9.39,10.82,32,11.3,46.73,17.45a2.28,2.28,0,0,1,.7,4c-11.23,9.29-13.24,19.31-6.81,29.51,5.33,8.42,12.63,16.42,19.84,24.92,1.51,1.78-.3,4.29-2.79,3.84a9.3,9.3,0,0,1-1.79-.48c-15.54-6.21-30.54-12.94-46.55-18.7-5.4-1.95-12.43-2.34-19-3.14a2.71,2.71,0,0,0-3.15,2.19c-.36,3.39-.95,6.81,0,10.08a55.14,55.14,0,0,0,4,9.56c1.12,2.22-1.77,4.34-4.1,3-23.55-13.39-44.34-27.4-66.43-40.68-3.21-1.92-8.07-2.9-13.25-3.7-8.34-1.28-16.45,4-16.49,11.48a10.42,10.42,0,0,0,.69,3.34c3.59,8.74,11.42,16.86,16.09,25.5,5.72,10.62,9,21.49,6.13,32.79-.41,1.64-2.63,2.41-4.26,1.5-6.8-3.79-11.73-7.91-17.08-11.84-11.78-8.64-23.07-17.57-36.05-25.55-14.32-8.79-26.36-7.37-34.79,3.81-4.26,5.65-6.51,11.93-8.5,18-4.12,12.72-7.63,25.5-12.07,40.83-.54,1.87-3.27,2.48-4.78,1.07-4.54-4.27-7.44-6.92-10.13-9.65-8.79-8.95-16.58-18.28-26.38-26.83-9.14-8-15-8.15-21.94-2.53a3.16,3.16,0,0,1-3.45.26c-15.47-8.75-30-18.84-47.88-25.93-21-8.33-41.13-4-54.44,8.71-3.4,3.26-6.39,6.66-8.87,9.42a3.09,3.09,0,0,1-4.07.31c-12.84-10-24.74-19.9-38.08-29.1-15.68-10.83-37.09-12.71-58.72-8.38-22.15,4.44-24.76,16.59-25.81,28.29-.64,7.11-.29,14.26-.18,21.31,0,1.71-1.91,2.91-3.76,2.33-39.61-12.39-58.16-15.4-69.14-7.39-7.62,5.55-9.12,14-11.49,20.9a3,3,0,0,1-4.58,1.07,46.32,46.32,0,0,0-40.19-9.43c-15.36,3.4-27.44,11.89-38,17.27a3,3,0,0,1-3.56-.59c-16-17.64-34.14-38.25-53.66-58.4-6-6.24-15-12.08-24.79-16.42-22.6-10-39.7-7.45-47.28,7a3,3,0,0,1-5,.23c-2-3.12-3.82-5.93-6.89-8.13-4.68-3.36-13-8.15-17.83-7.48-6.58.91-13.86,5.86-16.26,10s-2.81,8.42-3.36,13.69c-.25,2.45-4.06,3.06-5.3.85-.35-.62-.67-1.19-1-1.76-6.19-10.79-11.27-21.88-19.19-32.22-3-3.88-12.91-8.61-19-8.3-7.4.38-18,4.91-20.28,9-5.89,10.74-8.52,22.14-11.39,33.37a32,32,0,0,0-.47,10.26c.14,2-2.38,3.25-4.32,2.18-8.21-4.56-15.9-10.12-24.3-10.52-18.15-.86-24.86,9.53-31.26,18.05a80.33,80.33,0,0,0-4.42,6.75c-1.25,2.08-4.84,1.56-5.24-.77-2.47-14.2-5.16-27.23-6.08-40.31-1.53-21.46-11.57-34.07-57.5-12.16-29.16,13.92-55.9,29.58-83.33,44.74-2.14,1.19-4.8-.51-4.2-2.65a12.67,12.67,0,0,0,.43-2.42c.3-3.65-.87-7.34-1.78-11a2.81,2.81,0,0,0-3.28-1.88c-6.1,1.09-12.84,1.75-17.19,4-22.42,11.57-44,23.71-67.07,36.34a3.19,3.19,0,0,1-2.9,0c-20.82-10.49-48.67-14.1-78-15.66-14.46-.77-25.17-13.9-16-21.21,10.91-8.67,24.63-16.14,39.53-25.37a3,3,0,0,1,4.23,1l8.79,18.24a2.83,2.83,0,0,0,2.63,1.49c20.19-.35,32.93-4.07,35.33-17.08,1-5.59,7-10.87,13.16-18.27a3,3,0,0,1,4.74.24l13.52,21.37a2.78,2.78,0,0,0,2,1.21c35.53,5,32-13.21,41.79-24.74a3.11,3.11,0,0,1,3.77-.6c5.12,2.81,8.8,5.33,13.45,6.68,5.42,1.56,12.77,3.09,18.08,2.19,45.26-7.63,80.09-24.22,113.86-46a2.3,2.3,0,0,0-.57-4.19c-35-13.2-68.54-26.22-103-38.4-7.25-2.56-18.23-2.68-27.2-2.17-39.13,2.22-73.67,12.24-107.4,23.21-20.12,6.55-40,13.32-59.94,20.09a1.52,1.52,0,0,1-1.8-.62l-.69-1.3c.07-.45.14-.92.22-1.36.85-.72.28-2.11-1-2.06l-24.3.89c-2,.07-3.43-1.65-2.73-3.27l.07-.17c.74-1.72-.91-3.5-3-3.25l-12.76,1.53c-2.75.34-4.32-2.65-2.22-4.24l9.25-7c1.8-1.36.94-3.93-1.42-4.24C98.92,668.79,87,667.07,94.16,657c10.14-14.21,21.87-28,34.6-44a3.09,3.09,0,0,1,4.17-.44c14.41,11,27,21.14,40.69,30.66,4.35,3,12.52,6.25,18.53,6,27.51-1.13,54.8-4.39,82.3-5.09,22-.56,44.18,1.42,60.07-10.56,1.06-.8,3.33-1,5.74-1.36a2.77,2.77,0,0,1,3.14,1.9c2.23,9.66,15.38,8.15,27.79,9.21a2.67,2.67,0,0,0,3.06-2.41V610.7l8.64-3.19c4.84,4,9.79,8,13.73,12.3,18.11,19.77,17.9,19.86,55.27,12.7,2.2-.43,4.25-1.1,7.95-2.21a2.32,2.32,0,0,0,1.31-3.79l-24.21-27.59c-1.69-1.93.56-4.59,3.18-3.77,20.74,6.49,40.15,14.24,59.7,21.87,5.54,2.16,12.41,5.92,17.41,5.32,22.06-2.64,43.76-6.29,65.52-9.71,2.46-.39,3.16-3.17,1.1-4.39C479,546.39,331.38,511,177.4,550.52c-2.94.75-4.91-2.59-2.5-4.24,9.72-6.65-32.24-14.15-60.83-7.84-2.52.55-4.48-1.9-3-3.75l11.3-14.06c1.43-1.78-.33-4.15-2.78-3.79-46.66,6.93-85.7,20.17-119,39.45a2.38,2.38,0,0,0-1.25,2V874.05a2.6,2.6,0,0,0,2.55,2.42c6.62.52,13.23,1.27,19.85,1.28q121.92.15,243.84,0,254.22-.15,508.46-.34,283.52,0,567,.32,289.79,0,579.56-.11V562.11Z"/><path d="M1090.12,860.4c3.85,7.09,6.89,12.71,9.75,18,30-2.61,25-16,35.14-27.39l57.54,25.42,3.78-.71-42.44-48.8c45.89,5.45,73.07,18.66,84.29,42l24.07-16.49,3.68.82v18.08l41.22-26.35c-3.68,13.49-6.57,24.06-9.46,34.63l3.91-.22c12.31-8.89,25-17.66,36.56-26.81,2-1.62-.34-4.94-1.49-7.37-1.76-3.74-4.23-7.4-7.6-13.16,38,2.67,55.83,15.4,72.35,28.52,14.87-15.21,26.38-31.85,45.8-45.47s46.66-24.12,73.41-34.85c-31.88,23.44-54,48.28-52.49,77.1.42,8.05,6.9,16,10.71,24.25l53.33-27c-1.09,9.4-1.83,15.84-2.74,23.67l38.36-21.75L1544,827.07c34.23,4.62,52.51,15.23,65.21,28.21l47.89-28.93,4.16,1.41c-11,14.38-26.53,28.45-11.14,47.35,5.29-25.9,26.33-42.45,71.72-47.23l-46.49,44.3,5.15,1.4c19.33-14.9,23.62-15.54,54.46-7.51.91-3.27,1.74-6.3,3.11-11.23l22,7.48c7.5-13.66,14.4-27,22.29-40.17,2.56-4.28,7.72-8.15,13.56-11.92-10.5,17.53-18.7,34.82-1.87,52.91l42.77-20-7.3,23.5,32.63-21.55,3.44,1.37-13.2,29.27L1892.06,843l4.94,1.32V866l33-7.14V890H1796.2q-325.93,0-651.85,0-322,0-644.1-.1-226,0-452,0c-42.37,0-42.43.18-41.49-25.58l23,13.28c-3.09-17.79,6.44-32.19,28.63-44.47-6.9,16.13-9.27,31.9,8,47.94,4.19-14.15,11.73-26,41.18-32.62-8,11.78-21.22,22-3.69,34.1,17.68-16.87,45.65-24.84,78.21-31l-20.36,29,2.63,0,61.21-38.38,5.39,2Q224.79,859,218.54,873.9c28.35-19,53.06-30.3,95.64-40.67-20.8,13.62-34.78,26.61-31.24,42.59l49.47-15.18c1.79,6.59,3.11,11.48,4.44,16.37,12-12.91,14.16-12.77,52.07,2.92-.89-5.52-1.76-11-2.88-18,26.32,3.1,33.31,14.69,49.52,23,.74-6.07,1.35-11.06,2.27-18.68l24.33,17.09c-11.06-17.52,9.36-24.86,34.45-31.41L484,877.27l4.64.94c7.4-17.44,36.87-22.51,60.84-31.12l-9.76,23,59.92-25.83,6.72,30.52c19-10.89,19-10.89,62.85,8.84l4.57-11.23,13.18.32c-11-19-21.85-37.57-32.67-56.2,44.35,13,62.29,34.65,79.45,57.21l34-12.22v14.69c9.94-4.1,20.32-7.89,29.42-12.37,3.88-1.91,7-5.26,7.15-8,.39-7.52-1-15.06-1.81-24.39,36.89,9.53,60.4,23,78.56,40.47l14.38-17.5,3.65.53v12.58l37.1-26c-2.08,13.23-3.85,24.46-5.62,35.69l6.35.64c6.75-28.7,32.53-50.87,83.49-66.3-21.9,23.67-25.66,46.67-12.81,70.55l44.89-25.78,4.17,1.74c-2.88,6.32-5.75,12.64-9.18,20.19Z"/></g></svg>