<?xml version="1.0" encoding="utf-8"?>
<!-- Generator: Adobe Illustrator 24.1.3, SVG Export Plug-In . SVG Version: 6.00 Build 0)  -->
<svg version="1.1" id="Calque_1" xmlns="http://www.w3.org/2000/svg" xmlns:xlink="http://www.w3.org/1999/xlink" x="0px" y="0px"
	 viewBox="0 0 250 204.8" style="enable-background:new 0 0 250 204.8;" xml:space="preserve">
<style type="text/css">
	.st0{fill:#FFFFFF;}
</style>
<path class="st0" d="M64,74.1c0-14,0-28,0-42c0-11.6,7-18.9,18.5-18.9c28.1-0.1,56.3-0.1,84.4,0c11.2,0.1,18.3,7.3,18.3,18.6
	c0.1,28.3,0.1,56.6,0,84.9c0,11.5-6.9,18.2-18.5,18.2c-28.1,0-56.3,0-84.4,0c-11.4,0-18.3-7-18.4-18.4C63.9,102.4,64,88.3,64,74.1z
	 M143.2,71.7c0.5-0.5,0.8-1,1.1-1.2c6.5-4.7,7.3-11.3,5.5-18.3c-1.6-6.1-6.4-9.3-12.6-10.4c-12.2-2-24.5-0.4-36.7-0.9
	c-2.4-0.1-2.5,1.7-2.5,3.4c0,20,0,39.9,0,59.9c0,2.2,0.8,2.9,2.9,2.9c12.1-0.1,24.3,0.1,36.4-0.4c8.8-0.4,15.3-7.9,16-16.5
	C154.1,81.8,151.1,75.5,143.2,71.7z"/>
<path class="st0" d="M11.2,172c0-5,0.1-10,0-14.9c-0.1-2.4,0.7-3.2,3.1-3.2c5.5,0.1,11,0,16.4,0.1c3.7,0.1,6.9,1.4,8.4,5
	c1.5,3.5,1.2,6.9-1.7,9.6c-1.5,1.4-1.4,2.1,0.2,3.3c4.1,3,4.5,7.4,3.1,11.7c-1.3,4.3-5,6.2-9.2,6.4c-6,0.3-11.9,0.2-17.9,0.3
	c-2.5,0-2.5-1.5-2.5-3.3C11.3,182,11.2,177,11.2,172z M25.2,184.9C25.2,184.9,25.2,184.8,25.2,184.9c1.2,0,2.3-0.1,3.5,0
	c3.7,0.1,6.1-1.5,6.3-5.3c0.2-3.9-2.5-5.5-5.9-6c-1.1-0.2-2.3,0-3.5,0c-8.5,0-8.4,0-7.7,8.5c0.2,2.1,0.7,3.1,2.9,2.9
	C22.2,184.8,23.7,184.9,25.2,184.9z M24.4,158.9c-1.8,1.1-5.3-2.1-6.4,1.9c-1.8,6.5,0,8.7,6.6,8.6c2,0,4,0.2,5.9-0.7
	c3.1-1.6,3.9-6,1.4-8.4C29.8,158.3,27.2,159.1,24.4,158.9z"/>
<path class="st0" d="M218.6,187.8c0,3.5-0.1,6.3,0,9.1c0.1,2.1-0.6,2.9-2.9,3c-2.1,0-2.9-0.7-2.9-2.9c0.1-10,0.1-19.9,0-29.9
	c0-2.5,1.3-3.7,3.2-2.8c2.8,1.3,4.9,0.3,7.5-0.5c8.5-2.5,15.2,3,15.3,11.9c0.1,10.8-4.5,16.2-12.8,15.2
	C223.6,190.6,221.6,189,218.6,187.8z M218.9,176.7c-0.1,6.3,3.3,10.4,7.9,9.7c4.3-0.6,6.7-4.8,6.2-10.9c-0.4-5-3.1-7.8-7.3-7.6
	C221.5,168.1,219,171.4,218.9,176.7z"/>
<path class="st0" d="M183,182.6c0.2-3.7,2.7-6.2,6.9-7.1c2.6-0.5,5.3-0.5,7.9-1c1.9-0.4,3.4-1.5,3.2-3.8c-0.2-2.1-1.7-2.6-3.5-2.8
	c-2.6-0.2-5-0.2-6.7,2.2c-1.7,2.4-4.7,2.4-6.1,1c-1.4-1.4,0.6-3.6,2-5c4.5-4.1,9.9-3.4,15.1-2.2c5,1.2,5.1,5.6,5.2,10
	c0.1,4.4-1.9,9.2,2,13.2c0.6,0.6,0.5,2-0.3,2.8c-1.4,1.3-3.6,1.4-4.6,0.4c-2.5-2.3-4.7-1-7.2-0.3C189.3,192.4,183.2,189.2,183,182.6
	z M194.9,186.1c0.1,0,0.8,0.1,1.4-0.1c2.9-0.9,5-2.7,4.6-6.1c-0.5-4.2-3.3-0.5-4.8-1.2c-0.5-0.2-1.3,0-2,0.1c-2.6,0.1-4.8,1.6-4.9,4
	C189.2,185.6,191.9,186.1,194.9,186.1z"/>
<path class="st0" d="M75.5,177.3c0-9.4,4-13.8,12.9-13.8c8.4,0,13.2,4.7,13.3,13.2c0.1,9.1-4.7,14.3-13.3,14.3
	C80.2,190.9,75.6,186,75.5,177.3z M96,177.1c0.1-5.2-3.3-9.2-7.6-9.2c-4.3,0-7.1,3.4-7.3,8.8c-0.1,5.1,3.1,9.5,7.2,9.7
	C92.4,186.6,95.9,182.4,96,177.1z"/>
<path class="st0" d="M133.9,163.4c2.5-0.1,5.5,0,7.8,2.3c1.5,1.5,3.7,3.6,2.1,5.3c-1.2,1.3-4.4,1.5-6-1.1c-1.5-2.3-3.9-2.3-6.3-2
	c-1.2,0.1-2.3,0.5-2.6,1.9c-0.4,1.6,0.6,2.6,1.9,3c2.2,0.7,4.4,1.3,6.7,1.8c5.4,1.3,8.3,4.1,8,8c-0.3,5.2-4,6.9-8.4,7.7
	c-5.1,1-10,0.8-13.6-3.7c-1-1.2-2.5-3.2-0.9-4.3c1.5-1,4-1.7,5.6,0.8c2,3.2,5.1,3.4,8.3,2.7c1.6-0.3,2.6-1.4,2.6-3.2
	c0-1.5-0.9-2.5-2.2-2.9c-1.9-0.6-3.9-0.9-5.8-1.4c-6.5-1.4-8.6-3.8-8.1-9.1c0.4-4,3.6-5.9,9.9-6C133,163.4,133.2,163.4,133.9,163.4z
	"/>
<path class="st0" d="M45.1,177.1c0-8.6,4.9-13.6,13.5-13.6c8.6,0,13.4,5.1,13.4,14.3c0,7.4-5.8,13.1-13.3,13.2
	C50.6,191,45.1,185.4,45.1,177.1z M65.8,177.5c0.3-5.5-2.6-9.5-7.1-9.6c-4.5-0.2-7.6,3.4-7.8,9c-0.2,5.3,2.9,9.4,7.3,9.5
	C62.2,186.5,65.6,182.6,65.8,177.5z"/>
<path class="st0" d="M151.9,178.1c0-2,0-4,0-6c0-2,0.3-4.2-2.8-4.1c-1.3,0-1.6-1-1.5-2.1c0.1-0.9,0.4-1.8,1.4-1.7
	c4,0.1,2.8-2.8,2.9-4.9c0.1-1.9-0.2-3.6,2.7-3.5c2.7,0,3.1,1.3,2.9,3.4c-0.2,2.7-0.1,5.1,3.7,4.8c1.2-0.1,1.4,1.2,1.4,2.2
	c0,1.2-0.6,2-1.8,1.9c-3.7-0.3-3.4,2.2-3.4,4.6c0,2.7,0,5.3,0,8c0,2.6-0.2,5.2,3.6,5.2c1.3,0,1.6,1,1.6,2.1c0,0.9-0.1,1.6-0.9,2.1
	c-3.6,2.3-9.5-0.7-9.8-4.9C151.8,182.8,151.9,180.5,151.9,178.1z"/>
<path class="st0" d="M108.6,178c0-1.8,0-3.6,0-5.5c0-2.2,0.3-4.5-3-4.4c-1.2,0-1.7-0.8-1.7-1.9c0-0.9,0.3-1.8,1.2-1.9
	c3.8,0,3.6-2.7,3.4-5.2c-0.1-2.2,0.3-3.4,3-3.3c2.4,0.1,2.7,1.2,2.6,3.1c-0.1,2.5-0.6,5.2,3.4,5c1.2-0.1,1.5,1,1.6,2.1
	c0.1,1.5-0.6,2.2-2,2.1c-3-0.2-3.1,1.7-3,3.9c0.1,2.8,0,5.6,0,8.5c0,2.6-0.6,5.6,3.7,5.4c1.4,0,1.3,1.2,1.4,2.2
	c0,1.1-0.2,1.8-1.4,2.2c-5,1.8-9-0.9-9.1-6.3C108.6,181.9,108.6,180,108.6,178z"/>
<path class="st0" d="M167,177.1c0-3.3,0.1-6.7,0-10c-0.2-4,3.7-3.9,4.3-2.6c2,4,3.2,0.8,4.5,0c1.7-1,3.4-1.4,5.2-1
	c1.6,0.4,0.9,1.9,1,3c0.2,1.7-0.6,2.3-2.3,2.3c-4.9,0-6.5,3.3-6.8,7.5c-0.2,3.3-0.1,6.6-0.1,10c0,2.1,0.2,3.9-2.9,4
	c-3.1,0.1-3.1-1.6-3-3.8C167,183.4,167,180.3,167,177.1z"/>
<path class="st0" d="M123,96.9c-11.9,0-11.9,0-11.9-12.1c0-6.9,0-6.9,7.1-6.9c4.5,0,9-0.1,13.4,0c6.1,0.2,9.4,3.8,9.3,9.8
	c-0.1,5.5-3.7,9-9.5,9.1C128.6,96.9,125.8,96.9,123,96.9z"/>
<path class="st0" d="M121.6,68.6c-10.6,0-10.6,0-10.5-10.6c0.1-7.9-1.2-6.7,6.9-6.8c3.2,0,6.3,0,9.5,0c7.4,0,10.7,2.8,10.6,8.8
	c0,5.6-3.8,8.7-11,8.7C125.2,68.6,123.4,68.6,121.6,68.6z"/>
</svg>
