<svg xmlns="http://www.w3.org/2000/svg" viewBox="0 0 197.58 194.72"><defs><style>.cls-1{fill:#8c8c8c;}.cls-2{fill:#172121;}.cls-3{fill:#243333;}.cls-4{fill:#3a4f4e;}</style></defs><title>fond2Plan de travail 20</title><g id="Calque_4" data-name="Calque 4"><ellipse class="cls-1" cx="136.06" cy="99.05" rx="10.14" ry="18.47"/><polygon class="cls-1" points="191.49 99.09 136.53 117.52 136.53 80.67 191.49 99.09"/><path class="cls-2" d="M107.22,117.2A44.91,44.91,0,0,1,62.37,74.55,44.91,44.91,0,1,0,147,95.61c0-.75,0-1.51-.06-2.25A44.9,44.9,0,0,1,107.22,117.2Z"/><path class="cls-3" d="M107.22,117.2a44.9,44.9,0,0,0,39.67-23.84A44.91,44.91,0,0,0,62.37,74.55,44.91,44.91,0,0,0,107.22,117.2Z"/><ellipse class="cls-1" cx="61.52" cy="96.48" rx="10.14" ry="18.47"/><polygon class="cls-1" points="6.09 96.52 61.05 114.95 61.05 78.1 6.09 96.52"/><ellipse class="cls-1" cx="101.8" cy="137.4" rx="10.14" ry="18.47" transform="translate(-37.79 236.16) rotate(-88.74)"/><polygon class="cls-1" points="100.54 192.82 83.33 137.47 120.17 138.27 100.54 192.82"/><ellipse class="cls-1" cx="103.36" cy="55.42" rx="10.14" ry="18.47" transform="translate(45.68 157.54) rotate(-88.74)"/><polygon class="cls-1" points="104.54 0 84.91 54.54 121.75 55.35 104.54 0"/><ellipse class="cls-4" cx="128.77" cy="78.09" rx="8" ry="11.63" transform="translate(-19.74 103.12) rotate(-40.8)"/></g></svg>