<svg xmlns="http://www.w3.org/2000/svg" viewBox="0 0 91 131.33"><defs><style>.cls-1{fill:#777;}.cls-2{fill:#fff;}</style></defs><title>fond2Plan de travail 42</title><g id="Calque_2" data-name="Calque 2"><path class="cls-1" d="M42.88,41.84v0c-7.11,0-14.22.06-21.33,0-1.92,0-2.61.27-2.38,2.48.84,7.88,1.5,15.79,2,23.69.15,2.32.82,3.08,3.22,3,9.24-.13,18.49,0,27.73,0,1.94,0,2.79.4,2.47,2.54-.38,2.61-.51,5.26-.7,7.9a2.6,2.6,0,0,1-2,2.59,23.31,23.31,0,0,1-18,0A2.62,2.62,0,0,1,32,81.51C31.48,76,31.43,76,25.74,76c-.61,0-1.22,0-1.83,0-1.4-.12-2,.26-1.78,1.88.45,3.62.78,7.28.93,10.93.07,1.8.9,2.39,2.46,2.84,5.53,1.6,11.07,4,16.61,4.52S53.27,93.49,58.86,92A8.06,8.06,0,0,1,60,91.74c2.1-.23,2.79-1.44,2.94-3.47.62-8.21,1.28-16.42,2.13-24.6.21-2.11-.53-2.32-2.27-2.3-8.64.09-17.27.07-25.91.08-6.93,0-6.83,0-7.39-7.11-.18-2.3.35-3,2.71-2.94,9,.15,18.08.09,27.12.1,7.2,0,7.12,0,7.49-7.32.1-2-.52-2.4-2.34-2.38C57.31,41.89,50.09,41.84,42.88,41.84Z"/><path class="cls-2" d="M43.09,29.33c11.88,0,23.77,0,35.66,0,2.08,0,2.74.39,2.52,2.72-2,22-4,43.94-5.89,65.91-.23,2.64-.58,5.27-.64,7.9,0,1.79-.87,2.46-2.44,2.89q-14,3.8-27.88,7.74a5.73,5.73,0,0,1-3.26-.11c-9.1-2.54-18.19-5.09-27.31-7.55a3,3,0,0,1-2.58-3.1Q8.11,69.08,4.72,32.48c-.24-2.6.44-3.24,3-3.21C19.51,29.4,31.3,29.33,43.09,29.33Z"/><path d="M44.56,45.19c7.82,0,15.64,0,23.46,0,1.69,0,2.22.42,2,2.18q-2.25,23.35-4.28,46.74a2.52,2.52,0,0,1-2.19,2.6c-5.88,1.52-11.72,3.12-17.57,4.73a6.44,6.44,0,0,1-3.51-.18c-5.54-1.49-11.07-3-16.63-4.45-1.79-.45-2.78-1.12-2.87-3.1q-.22-5.35-1-10.67c-.31-2.22.58-2.71,2.63-2.57s4.66-.54,6.43.28.73,3.53,1.34,5.38,1.46,2.31,3.09,3c6.21,2.6,12.21,1.74,18.27-.37,1.29-.45,2-.92,2-2.35.12-2.73.34-5.46.73-8.16.31-2.08-.33-2.72-2.54-2.69-6.08.08-12.16-.18-18.24-.06-2.3,0-2.92-.78-3.13-2.81-.74-7.2-.81-7.18,6.76-7.2,5.32,0,10.64-.15,16-.09,1.78,0,2.4-.46,2.58-2.25.78-7.69.85-7.67-7.23-7.69-9.56,0-19.11-.15-28.67-.12-1.9,0-2.58-.44-2.78-2.39-.81-7.6-.9-7.59,7-7.59H44.56Z"/><path class="cls-2" d="M43.55,10.81c1.84,2,3.18,3.56,4.61,5a3.13,3.13,0,0,1,.66,3.34c-.38,1.18-1.62.61-2.48.64-2.31.07-4.63,0-6.94,0-1.3,0-2.29.05-2.29-1.81s.73-2,2.17-1.91c.9.08,1.81,0,3.33,0-1.74-1.91-3-3.45-4.48-4.86a3.15,3.15,0,0,1-.8-3.53c.42-1.1,1.67-.52,2.54-.54,2.4-.08,4.8,0,7.2,0,1.36,0,1.79.46,1.75,1.79s-.2,2-1.68,1.88C46.14,10.74,45.12,10.81,43.55,10.81Z"/><path class="cls-2" d="M57.13,10.81c1.87,2,3.13,3.54,4.53,4.9A3.17,3.17,0,0,1,62.47,19c-.38,1.45-1.73.72-2.63.76-2.48.1-5,0-7.45.06-1.52.06-1.6-.76-1.63-1.93s.29-1.94,1.71-1.8c1,.09,2.05,0,3.33,0-.94-1.93-2.49-3.12-3.78-4.5-1-1.11-1.61-2.33-1.13-3.7s1.92-.65,2.91-.7c2.31-.12,4.63,0,6.94-.06,1.22,0,1.67.42,1.62,1.65s0,2.1-1.54,2C59.82,10.75,58.82,10.81,57.13,10.81Z"/><path class="cls-2" d="M25.14,13.25c0-6,0-6,6.13-6a20,20,0,0,0,2.05,0c1.39-.15,2,.28,2,1.81-.05,1.34-.26,2.19-1.83,2a9.1,9.1,0,0,0-1.28,0,3,3,0,0,0-2.56,4.55c.85,1.19,2.4.53,3.59.46,1.8-.1,2.14.65,2.08,2.23-.06,1.22-.44,1.67-1.66,1.63q-3.46-.11-6.93,0c-1.3,0-1.6-.55-1.56-1.71C25.19,16.51,25.14,14.88,25.14,13.25Z"/></g></svg>