<svg xmlns="http://www.w3.org/2000/svg" xmlns:xlink="http://www.w3.org/1999/xlink" viewBox="0 0 516.97 907.88"><defs><style>.cls-1{opacity:0.48;}.cls-2{fill:url(#Dégradé_sans_nom_13);}.cls-3{fill:url(#Dégradé_sans_nom_13-2);}.cls-4{fill:url(#Dégradé_sans_nom_13-3);}.cls-5{fill:url(#Dégradé_sans_nom_5);}.cls-6{fill:#28363a;}.cls-7{fill:none;}.cls-8{fill:#327976;}.cls-9{fill:#0d1b1b;}.cls-10{fill:url(#Dégradé_sans_nom_44);}</style><linearGradient id="Dégradé_sans_nom_13" x1="-3427.25" y1="18.55" x2="-3427.25" y2="456.02" gradientTransform="matrix(-1, 0, 0, 1, -2956.53, 0)" gradientUnits="userSpaceOnUse"><stop offset="0" stop-color="#5a6a70"/><stop offset="1" stop-color="#34464c"/></linearGradient><linearGradient id="Dégradé_sans_nom_13-2" x1="-3266.69" y1="18.55" x2="-3266.69" y2="456.02" xlink:href="#Dégradé_sans_nom_13"/><linearGradient id="Dégradé_sans_nom_13-3" x1="-3168.01" y1="-239.13" x2="-3168.01" y2="333.16" xlink:href="#Dégradé_sans_nom_13"/><linearGradient id="Dégradé_sans_nom_5" x1="-3266.69" y1="-532.93" x2="-3266.69" y2="3032.82" gradientTransform="matrix(-1, 0, 0, 1, -2956.53, 0)" gradientUnits="userSpaceOnUse"><stop offset="0" stop-color="#dcf8e3"/><stop offset="0.11" stop-color="#d7f7e0"/><stop offset="0.25" stop-color="#c7f5d9"/><stop offset="0.41" stop-color="#aef2cc"/><stop offset="0.57" stop-color="#8bedbb"/><stop offset="0.75" stop-color="#5ee7a5"/><stop offset="0.92" stop-color="#27e08a"/><stop offset="1" stop-color="#0ddc7d"/></linearGradient><linearGradient id="Dégradé_sans_nom_44" x1="-3062.98" y1="843.94" x2="-3285.1" y2="424.91" gradientTransform="matrix(-1, 0, 0, 1, -2956.53, 0)" gradientUnits="userSpaceOnUse"><stop offset="0" stop-color="#587372" stop-opacity="0"/><stop offset="0.28" stop-color="#4d6665" stop-opacity="0"/><stop offset="0.69" stop-color="#213232" stop-opacity="0.69"/><stop offset="1" stop-color="#0d1b1b"/></linearGradient></defs><title>fond2Plan de travail 22</title><g id="Calque_10" data-name="Calque 10"><g class="cls-1"><path class="cls-2" d="M471.38,314.68a26.11,26.11,0,0,1-1.31-3.26C470.52,312.51,470.94,313.6,471.38,314.68Z"/><path class="cls-3" d="M473.6,332.85c.84-4.46-.48-11.83-3.53-21.43a26.11,26.11,0,0,0,1.31,3.26Q476,326,479.91,337.31L140.41,146.78Z"/><path class="cls-4" d="M166.31,13.91c.19,0,.37-.1.55-.13,50.79-8,89.78-1,89.78-1S215.9,6.81,166.31,13.91Z"/><path class="cls-5" d="M143.07,84.66c0-9.23,1.08-43.36,6.76-53.48,3.32-5.93,9.6-15.73,16.48-17.27,49.12-9.07,90.33-1.11,90.33-1.11,20,22,154,155.42,213.43,298.62a26.11,26.11,0,0,0,1.31,3.26Q476,326,479.91,337.31L140.41,146.78S143.07,93,143.07,84.66Z"/><path class="cls-6" d="M78.42,42.57c23.45-13.51,49-21.54,73.28-26.22,4.93-1,9.81-1.75,14.61-2.44-6.88,1.54-13.16,11.34-16.48,17.27-5.68,10.12-6.76,44.25-6.76,53.48,0,7.66-2.25,53.79-2.61,61.1l-.05,0L24.18,205.28l34.66,19.87L24.18,206.32S.94,87.23,78.42,42.57Z"/><path class="cls-7" d="M502.23,448.16l-4-2.19c1.08-26.17-2.56-53.13-9.66-80.19l15.54,9Z"/><path class="cls-8" d="M498.25,446,65.92,208.44l76.51-42.08L488.59,365.78C495.69,392.84,499.33,419.8,498.25,446Z"/><path class="cls-8" d="M140.41,145.74l.05,0c0,.64-.05,1-.05,1l339.5,190.53q3.78,10.89,6.86,21.79L142.49,160.76,55.8,208.44,498,451.37q-.39,5.89-1.12,11.73l-438-237.95L24.18,205.28Z"/><path class="cls-9" d="M142.49,160.76,486.77,359.1c.63,2.23,1.24,4.45,1.82,6.68L142.43,166.36,65.92,208.44,498.25,446c-.08,1.81-.17,3.61-.29,5.4L55.8,208.44Z"/><polygon class="cls-10" points="29.24 646.02 498.44 898.31 494.36 464.46 24.18 205.28 29.24 646.02"/><g id="plante"><path id="Tracé_3169" data-name="Tracé 3169" class="cls-9" d="M146.67,346.08c-18.14,30.18-13.26,78.8-13.26,78.8l4.32.19c-2-69.59,16.53-78.66,16.53-78.66Z"/><path id="Tracé_3170" data-name="Tracé 3170" class="cls-9" d="M146.67,346.08s-18.89,5.51-28.55,13.08S102.34,389,102.34,389s17.28-6.91,24.4-13.6a133,133,0,0,0,14.41-17Z"/><path id="Tracé_3171" data-name="Tracé 3171" class="cls-9" d="M153.31,346.37s9.6,5.58,14.74,13.63,4.88,25.52,4.88,25.52-11.31-8.15-16.76-16.63a42.48,42.48,0,0,1-6-18.43Z"/><path id="Tracé_3172" data-name="Tracé 3172" class="cls-9" d="M135.57,425s.14,19.88-1.46,33.63-14.83,28.83-14.83,28.83-.65-25.17,2.36-36.86,11.77-25.69,11.77-25.69Z"/><path id="Tracé_3173" data-name="Tracé 3173" class="cls-9" d="M131.84,427.52l1.57-2.64,1.17.05c-3.14,4.87-13.93,57.05-15,62.12l-.14.16-.21-.8c-.08-4.83-.27-25.55,2.38-35.84C123.85,442,129.18,432.12,131.84,427.52Z"/><path id="Tracé_3174" data-name="Tracé 3174" class="cls-9" d="M135.57,425s-3.28,21.73,4.5,30.56,18.92,13,18.92,13-6.19-26.19-21.26-43.44Z"/><g id="Groupe_724" data-name="Groupe 724"><path id="Tracé_3175" data-name="Tracé 3175" class="cls-9" d="M133.46,407.53s-1.18,5.42-7.58,19.88-23,22.88-23,22.88,2.41-23.84,7.66-36.24,23.18-22,23.18-22Z"/><path id="Tracé_3176" data-name="Tracé 3176" class="cls-9" d="M133.69,392c-3,3-10,14.65-16.1,26.58-7.9,15.5-14.74,31.69-14.74,31.69s2.41-23.84,7.66-36.24S133.69,392,133.69,392Z"/></g><path id="Tracé_3177" data-name="Tracé 3177" class="cls-9" d="M137.73,425.07C152.8,442.32,159,468.51,159,468.51S138,445.12,136.68,425Z"/><path id="Tracé_3178" data-name="Tracé 3178" class="cls-9" d="M118.12,359.16c9.66-7.57,28.55-13.08,28.55-13.08-12.5,5.34-44.33,42.87-44.33,42.87S108.47,366.73,118.12,359.16Z"/><path id="Tracé_3179" data-name="Tracé 3179" class="cls-9" d="M168,360c5.15,8.05,4.88,25.53,4.88,25.53s-14.31-29.8-20.42-38.11l.81-1.05S162.9,352,168,360Z"/><path id="Tracé_3180" data-name="Tracé 3180" class="cls-9" d="M137.17,398.45s14.07,5,17.72,7.43S165,423.19,165,423.19a56.79,56.79,0,0,1-14.25-5.42c-8.47-4.36-13.7-17.41-13.7-17.41Z"/><path id="Tracé_3181" data-name="Tracé 3181" class="cls-9" d="M151.14,410.14a108.66,108.66,0,0,0-14-10.52l0-1.17s14.08,5,17.72,7.44S165,423.19,165,423.19C162.85,422.84,157.37,415.74,151.14,410.14Z"/></g><g id="plante-2" data-name="plante"><path id="Tracé_3169-2" data-name="Tracé 3169" class="cls-9" d="M337.07,449.44c-18.13,30.18-13.26,78.8-13.26,78.8l4.33.19c-2-69.59,16.52-78.66,16.52-78.66Z"/><path id="Tracé_3170-2" data-name="Tracé 3170" class="cls-9" d="M337.07,449.44s-18.89,5.51-28.55,13.08-15.78,29.79-15.78,29.79,17.29-6.91,24.4-13.6a132.29,132.29,0,0,0,14.42-17Z"/><path id="Tracé_3171-2" data-name="Tracé 3171" class="cls-9" d="M343.72,449.73s9.59,5.58,14.73,13.63,4.88,25.53,4.88,25.53-11.3-8.16-16.76-16.64a42.48,42.48,0,0,1-6-18.43Z"/><path id="Tracé_3172-2" data-name="Tracé 3172" class="cls-9" d="M326,528.33s.14,19.88-1.46,33.64-14.83,28.82-14.83,28.82S309,565.62,312,553.93s11.77-25.69,11.77-25.69Z"/><path id="Tracé_3173-2" data-name="Tracé 3173" class="cls-9" d="M322.24,530.88l1.57-2.64,1.17,0c-3.14,4.87-13.92,57.06-15,62.12l-.14.17-.21-.81c-.08-4.83-.27-25.55,2.38-35.84C314.25,545.32,319.58,535.48,322.24,530.88Z"/><path id="Tracé_3174-2" data-name="Tracé 3174" class="cls-9" d="M326,528.34s-3.28,21.72,4.5,30.55,18.92,13,18.92,13-6.19-26.19-21.25-43.44Z"/><g id="Groupe_724-2" data-name="Groupe 724"><path id="Tracé_3175-2" data-name="Tracé 3175" class="cls-9" d="M323.86,510.89s-1.17,5.42-7.57,19.88-23,22.88-23,22.88,2.41-23.83,7.66-36.24,23.19-22,23.19-22Z"/><path id="Tracé_3176-2" data-name="Tracé 3176" class="cls-9" d="M324.09,495.38c-3,3.05-10,14.65-16.1,26.58-7.9,15.5-14.74,31.69-14.74,31.69s2.41-23.83,7.66-36.24S324.1,495.38,324.09,495.38Z"/></g><path id="Tracé_3177-2" data-name="Tracé 3177" class="cls-9" d="M328.14,528.43c15.06,17.25,21.25,43.44,21.25,43.44s-21-23.39-22.31-43.49Z"/><path id="Tracé_3178-2" data-name="Tracé 3178" class="cls-9" d="M308.52,462.52c9.66-7.57,28.55-13.08,28.55-13.08-12.5,5.34-44.33,42.87-44.33,42.87S298.87,470.09,308.52,462.52Z"/><path id="Tracé_3179-2" data-name="Tracé 3179" class="cls-9" d="M358.45,463.36c5.14,8.05,4.87,25.53,4.87,25.53s-14.31-29.8-20.42-38.1l.82-1.06S353.3,455.31,358.45,463.36Z"/><path id="Tracé_3180-2" data-name="Tracé 3180" class="cls-9" d="M327.57,501.81s14.08,5,17.72,7.43,10.15,17.31,10.15,17.31a57.3,57.3,0,0,1-14.25-5.41c-8.47-4.37-13.7-17.42-13.7-17.42Z"/><path id="Tracé_3181-2" data-name="Tracé 3181" class="cls-9" d="M341.54,513.5a108.66,108.66,0,0,0-14-10.52l.05-1.17s14.08,5,17.72,7.44,10.15,17.3,10.15,17.3C353.25,526.2,347.77,519.11,341.54,513.5Z"/></g><g id="plante-3" data-name="plante"><path id="Tracé_3169-3" data-name="Tracé 3169" class="cls-9" d="M464.91,487.52c-18.13,30.18-13.26,78.8-13.26,78.8l4.33.19c-2-69.59,16.52-78.66,16.52-78.66Z"/><path id="Tracé_3170-3" data-name="Tracé 3170" class="cls-9" d="M464.91,487.52S446,493,436.36,500.6s-15.78,29.79-15.78,29.79,17.29-6.91,24.41-13.6a133,133,0,0,0,14.41-17Z"/><path id="Tracé_3171-3" data-name="Tracé 3171" class="cls-9" d="M471.56,487.81s9.59,5.58,14.73,13.63S491.17,527,491.17,527s-11.3-8.16-16.76-16.64a42.61,42.61,0,0,1-6-18.43Z"/><path id="Tracé_3172-3" data-name="Tracé 3172" class="cls-9" d="M453.82,566.42s.13,19.87-1.47,33.63-14.83,28.82-14.83,28.82-.65-25.17,2.36-36.86,11.77-25.69,11.77-25.69Z"/><path id="Tracé_3173-3" data-name="Tracé 3173" class="cls-9" d="M450.08,569l1.58-2.64,1.16,0c-3.14,4.87-13.92,57.06-15,62.12l-.15.17-.21-.81c-.08-4.83-.27-25.55,2.38-35.84C442.09,583.4,447.42,573.56,450.08,569Z"/><path id="Tracé_3174-3" data-name="Tracé 3174" class="cls-9" d="M453.81,566.42s-3.27,21.72,4.5,30.55,18.92,13,18.92,13-6.18-26.19-21.25-43.44Z"/><g id="Groupe_724-3" data-name="Groupe 724"><path id="Tracé_3175-3" data-name="Tracé 3175" class="cls-9" d="M451.7,549s-1.17,5.43-7.57,19.89-23,22.87-23,22.87,2.4-23.83,7.66-36.24,23.18-22,23.18-22Z"/><path id="Tracé_3176-3" data-name="Tracé 3176" class="cls-9" d="M451.93,533.46c-3,3-10,14.65-16.1,26.58-7.89,15.51-14.73,31.69-14.73,31.69s2.4-23.83,7.66-36.24S451.94,533.46,451.93,533.46Z"/></g><path id="Tracé_3177-3" data-name="Tracé 3177" class="cls-9" d="M456,566.51C471.05,583.76,477.23,610,477.23,610s-21-23.39-22.31-43.49Z"/><path id="Tracé_3178-3" data-name="Tracé 3178" class="cls-9" d="M436.36,500.6c9.66-7.57,28.55-13.08,28.55-13.08-12.5,5.34-44.33,42.87-44.33,42.87S426.71,508.17,436.36,500.6Z"/><path id="Tracé_3179-3" data-name="Tracé 3179" class="cls-9" d="M486.29,501.44c5.14,8.05,4.88,25.53,4.88,25.53s-14.32-29.8-20.43-38.1l.82-1.06S481.14,493.39,486.29,501.44Z"/><path id="Tracé_3180-3" data-name="Tracé 3180" class="cls-9" d="M455.41,539.89s14.08,5,17.72,7.43,10.15,17.31,10.15,17.31A57.3,57.3,0,0,1,469,559.22c-8.47-4.37-13.7-17.42-13.7-17.42Z"/><path id="Tracé_3181-3" data-name="Tracé 3181" class="cls-9" d="M469.38,551.58a108,108,0,0,0-14-10.52l.05-1.17s14.08,5,17.72,7.44,10.15,17.3,10.15,17.3C481.09,564.28,475.61,557.19,469.38,551.58Z"/></g><g id="Groupe_725" data-name="Groupe 725"><path id="Tracé_3182" data-name="Tracé 3182" class="cls-9" d="M220,376.77c-.3,2.17-.58,4.34-.9,6.5s-.56,4.33-.85,6.5-.57,4.33-.84,6.5-.56,4.33-.78,6.5c-1,8.68-1.89,17.37-2.66,26.07-.18,2.18-.33,4.36-.52,6.54s-.29,4.36-.44,6.54l-.24,3.28c-.08,1.09-.09,2.18-.16,3.28-.11,2.19-.23,4.38-.39,6.57-.2-2.19-.36-4.38-.52-6.57-.07-1.1-.16-2.2-.2-3.29l-.1-3.3c0-2.2-.12-4.4-.1-6.6s.08-4.39.12-6.59c.3-8.79.89-17.58,2-26.31.24-2.18.55-4.36.85-6.54s.58-4.35.95-6.52c.7-4.34,1.43-8.67,2.29-13a252.51,252.51,0,0,1,6.3-25.58C222.51,359.46,221.23,368.12,220,376.77Z"/><path id="Tracé_3183" data-name="Tracé 3183" class="cls-9" d="M200.57,409.53c-7.83,9.26-16.76,9-20.27,4.58S176,402,189.31,391a47.91,47.91,0,0,1,28.82-10.69S208.4,400.27,200.57,409.53Z"/><path id="Tracé_3184" data-name="Tracé 3184" class="cls-9" d="M196.48,379c-10.23,6.51-18.67,3.57-20.71-1.67s-.53-12.85,15.5-19.4a47.94,47.94,0,0,1,30.7-1.6S206.72,372.53,196.48,379Z"/><path id="Tracé_3185" data-name="Tracé 3185" class="cls-9" d="M204.14,440.31c-4.07,4.82-8.72,4.67-10.54,2.39s-2.27-6.31,4.68-12.05a25,25,0,0,1,15-5.57S208.21,435.49,204.14,440.31Z"/><path id="Tracé_3186" data-name="Tracé 3186" class="cls-9" d="M218.28,381.5c2.2,6.77,4.5,13.51,7,20.16,3.09,8.1,6.84,18,16.43,20,4.22.85,9.19-1.14,10.52-5.51,1.11-3.62-.7-7.56-2.34-10.73-4.76-9.21-10.93-15.68-20.39-20.14a70.79,70.79,0,0,0-8.1-3.23c-.32-.11-3.2-.7-3.3-1Z"/><path id="Tracé_3187" data-name="Tracé 3187" class="cls-9" d="M222.62,358.38c3.39,6.26,6.88,12.47,10.57,18.55,4.51,7.41,10,16.5,19.78,16.66,4.3.08,8.84-2.78,9.35-7.32.43-3.77-2.07-7.31-4.25-10.13-6.35-8.19-13.6-13.44-23.71-16.11a72.91,72.91,0,0,0-8.54-1.71c-.34,0-3.28-.1-3.43-.38Z"/><path id="Tracé_3188" data-name="Tracé 3188" class="cls-9" d="M213.43,418.44c1.34,4.13,2.76,8.26,4.3,12.32,1.89,5,4.18,11,10.05,12.22,2.58.52,5.62-.7,6.44-3.37.67-2.22-.44-4.63-1.44-6.57a25.83,25.83,0,0,0-12.47-12.32,45.94,45.94,0,0,0-4.95-2,10.3,10.3,0,0,1-2-.61Z"/></g><g id="Groupe_725-2" data-name="Groupe 725"><path id="Tracé_3182-2" data-name="Tracé 3182" class="cls-9" d="M80.79,337.42c-.29,2.16-.58,4.33-.89,6.49s-.57,4.34-.86,6.5-.56,4.34-.84,6.5-.55,4.33-.77,6.51c-1.05,8.67-1.9,17.36-2.66,26.07-.18,2.17-.34,4.35-.53,6.53s-.28,4.36-.43,6.54l-.24,3.28c-.08,1.09-.1,2.19-.16,3.28-.11,2.19-.23,4.38-.39,6.58q-.3-3.29-.52-6.58c-.08-1.1-.16-2.19-.2-3.29l-.1-3.29c0-2.2-.12-4.4-.1-6.6s.08-4.4.12-6.6c.29-8.79.89-17.57,2-26.3.25-2.19.55-4.36.86-6.54s.57-4.36.94-6.53c.71-4.33,1.43-8.67,2.3-13a250.7,250.7,0,0,1,6.3-25.59C83.3,320.11,82,328.76,80.79,337.42Z"/><path id="Tracé_3183-2" data-name="Tracé 3183" class="cls-9" d="M61.36,370.17c-7.83,9.26-16.76,9-20.27,4.59s-4.35-12.11,9-23.14a48,48,0,0,1,28.82-10.7S69.18,360.91,61.36,370.17Z"/><path id="Tracé_3184-2" data-name="Tracé 3184" class="cls-9" d="M57.27,339.68C47,346.18,38.59,343.24,36.55,338S36,325.15,52.06,318.61a47.94,47.94,0,0,1,30.7-1.6S67.5,333.17,57.27,339.68Z"/><path id="Tracé_3185-2" data-name="Tracé 3185" class="cls-9" d="M64.93,401c-4.07,4.82-8.72,4.67-10.55,2.38s-2.26-6.3,4.69-12a24.89,24.89,0,0,1,15-5.57S69,396.13,64.93,401Z"/><path id="Tracé_3186-2" data-name="Tracé 3186" class="cls-9" d="M79.07,342.15c2.19,6.76,4.5,13.5,7,20.15,3.08,8.1,6.83,18,16.43,20,4.21.86,9.19-1.13,10.52-5.5,1.11-3.63-.71-7.57-2.35-10.74-4.75-9.2-10.93-15.68-20.38-20.14a73.45,73.45,0,0,0-8.1-3.23c-.32-.1-3.21-.69-3.3-1Z"/><path id="Tracé_3187-2" data-name="Tracé 3187" class="cls-9" d="M83.41,319c3.38,6.26,6.87,12.47,10.57,18.54,4.5,7.42,10,16.5,19.78,16.67,4.3.07,8.83-2.78,9.35-7.32.43-3.78-2.07-7.32-4.26-10.14-6.34-8.19-13.59-13.44-23.7-16.11A71,71,0,0,0,86.6,319c-.33-.05-3.28-.11-3.43-.38Z"/><path id="Tracé_3188-2" data-name="Tracé 3188" class="cls-9" d="M74.22,379.08c1.34,4.14,2.75,8.26,4.3,12.33,1.89,4.95,4.18,11,10,12.21,2.57.52,5.62-.69,6.43-3.37.68-2.22-.43-4.62-1.43-6.56A25.87,25.87,0,0,0,81.1,381.37a44.18,44.18,0,0,0-5-2,9.75,9.75,0,0,1-2-.61Z"/></g><g id="Groupe_725-3" data-name="Groupe 725"><path id="Tracé_3182-3" data-name="Tracé 3182" class="cls-9" d="M266.25,444.77c-.3,2.17-.58,4.34-.9,6.5s-.56,4.33-.85,6.5-.57,4.33-.84,6.5-.56,4.33-.78,6.5c-1.05,8.68-1.89,17.37-2.66,26.07-.18,2.18-.33,4.36-.52,6.54s-.29,4.36-.44,6.54L259,513.2c-.08,1.09-.09,2.18-.16,3.28-.11,2.19-.23,4.38-.39,6.57-.2-2.19-.36-4.38-.52-6.57-.07-1.1-.16-2.19-.2-3.29l-.1-3.3c0-2.19-.12-4.4-.1-6.59s.08-4.4.12-6.6c.3-8.79.89-17.58,2-26.31.24-2.18.55-4.36.85-6.54s.58-4.35.95-6.52c.7-4.34,1.43-8.67,2.29-13a252.51,252.51,0,0,1,6.3-25.58C268.75,427.46,267.47,436.12,266.25,444.77Z"/><path id="Tracé_3183-3" data-name="Tracé 3183" class="cls-9" d="M246.81,477.53c-7.83,9.26-16.76,9-20.27,4.59s-4.34-12.11,9-23.15a47.91,47.91,0,0,1,28.82-10.69S254.64,468.27,246.81,477.53Z"/><path id="Tracé_3184-3" data-name="Tracé 3184" class="cls-9" d="M242.72,447c-10.23,6.51-18.67,3.57-20.71-1.67s-.53-12.85,15.5-19.4a47.94,47.94,0,0,1,30.7-1.6S253,440.53,242.72,447Z"/><path id="Tracé_3185-3" data-name="Tracé 3185" class="cls-9" d="M250.38,508.31c-4.07,4.82-8.72,4.67-10.54,2.39s-2.27-6.3,4.68-12.05a25,25,0,0,1,15-5.57S254.45,503.49,250.38,508.31Z"/><path id="Tracé_3186-3" data-name="Tracé 3186" class="cls-9" d="M264.52,449.5c2.2,6.77,4.5,13.51,7,20.16,3.09,8.1,6.84,18,16.43,20,4.22.85,9.19-1.14,10.52-5.51,1.11-3.62-.7-7.56-2.34-10.73-4.76-9.21-10.93-15.68-20.39-20.14a71.38,71.38,0,0,0-8.09-3.23c-.33-.11-3.21-.7-3.31-1Z"/><path id="Tracé_3187-3" data-name="Tracé 3187" class="cls-9" d="M268.86,426.39c3.39,6.25,6.88,12.46,10.57,18.54,4.51,7.41,10,16.5,19.78,16.66,4.3.08,8.84-2.78,9.35-7.32.43-3.77-2.07-7.31-4.25-10.13C298,436,290.71,430.7,280.6,428a72.91,72.91,0,0,0-8.54-1.71c-.34,0-3.28-.1-3.43-.38C268.71,426.09,268.79,426.24,268.86,426.39Z"/><path id="Tracé_3188-3" data-name="Tracé 3188" class="cls-9" d="M259.67,486.44c1.34,4.14,2.76,8.26,4.3,12.32,1.89,5,4.18,11,10,12.22,2.58.52,5.62-.69,6.44-3.37.67-2.22-.44-4.63-1.44-6.57a25.83,25.83,0,0,0-12.47-12.32,45.94,45.94,0,0,0-4.95-2,10.3,10.3,0,0,1-2-.61Z"/></g><g id="Groupe_725-4" data-name="Groupe 725"><path id="Tracé_3182-4" data-name="Tracé 3182" class="cls-9" d="M403.85,492c-.3,2.16-.58,4.33-.9,6.49s-.56,4.34-.85,6.5-.57,4.34-.84,6.5-.56,4.34-.77,6.51c-1.06,8.68-1.9,17.36-2.67,26.07-.18,2.18-.33,4.35-.52,6.53s-.28,4.36-.44,6.55l-.24,3.27c-.08,1.1-.09,2.19-.16,3.28-.11,2.19-.23,4.38-.38,6.58-.21-2.19-.37-4.38-.53-6.57-.07-1.1-.16-2.2-.2-3.3l-.09-3.29c0-2.2-.12-4.4-.11-6.6s.08-4.39.12-6.6c.3-8.79.89-17.57,2-26.3.24-2.19.55-4.36.85-6.54s.58-4.36,1-6.52c.71-4.34,1.43-8.67,2.29-13a255.21,255.21,0,0,1,6.3-25.58C406.35,474.7,405.07,483.35,403.85,492Z"/><path id="Tracé_3183-4" data-name="Tracé 3183" class="cls-9" d="M384.41,524.76c-7.82,9.27-16.76,9-20.27,4.59s-4.34-12.11,9-23.14A48,48,0,0,1,402,495.51S392.24,515.5,384.41,524.76Z"/><path id="Tracé_3184-4" data-name="Tracé 3184" class="cls-9" d="M380.32,494.27c-10.23,6.5-18.67,3.56-20.71-1.68s-.53-12.85,15.51-19.39a47.94,47.94,0,0,1,30.7-1.6S390.56,487.77,380.32,494.27Z"/><path id="Tracé_3185-4" data-name="Tracé 3185" class="cls-9" d="M388,555.55c-4.08,4.82-8.73,4.67-10.55,2.38s-2.27-6.3,4.68-12a24.94,24.94,0,0,1,15-5.57S392.06,550.73,388,555.55Z"/><path id="Tracé_3186-4" data-name="Tracé 3186" class="cls-9" d="M402.12,496.74c2.2,6.76,4.5,13.5,7,20.15,3.09,8.11,6.84,18,16.43,20,4.22.85,9.19-1.14,10.52-5.51,1.11-3.63-.7-7.57-2.34-10.73-4.76-9.21-10.93-15.69-20.39-20.15a73.23,73.23,0,0,0-8.09-3.22c-.32-.11-3.21-.7-3.31-1Z"/><path id="Tracé_3187-4" data-name="Tracé 3187" class="cls-9" d="M406.47,473.62c3.38,6.26,6.87,12.47,10.56,18.55,4.51,7.41,10,16.49,19.78,16.66,4.3.08,8.84-2.78,9.35-7.32.43-3.77-2.07-7.32-4.25-10.14-6.35-8.19-13.59-13.44-23.7-16.11a71.42,71.42,0,0,0-8.55-1.7c-.34-.05-3.28-.1-3.43-.38Z"/><path id="Tracé_3188-4" data-name="Tracé 3188" class="cls-9" d="M397.27,533.67c1.35,4.14,2.76,8.26,4.3,12.33,1.89,5,4.19,11,10.05,12.22,2.58.52,5.62-.7,6.44-3.37.67-2.22-.44-4.63-1.44-6.57A25.79,25.79,0,0,0,404.15,536a42.15,42.15,0,0,0-4.95-2,9.57,9.57,0,0,1-2-.62Z"/></g></g></g></svg>