<svg xmlns="http://www.w3.org/2000/svg" xmlns:xlink="http://www.w3.org/1999/xlink" viewBox="0 0 516.97 907.88"><defs><style>.cls-1{opacity:0.48;}.cls-2{fill:url(#Dégradé_sans_nom_13);}.cls-3{fill:url(#Dégradé_sans_nom_13-2);}.cls-4{fill:url(#Dégradé_sans_nom_13-3);}.cls-5{fill:url(#Dégradé_sans_nom_5);}.cls-6{fill:#2a393d;}.cls-7{fill:none;}.cls-8{fill:#327976;}.cls-9{fill:#0d1b1b;}.cls-10{fill:url(#Dégradé_sans_nom_44);}</style><linearGradient id="Dégradé_sans_nom_13" x1="51.27" y1="15.38" x2="51.27" y2="452.84" gradientUnits="userSpaceOnUse"><stop offset="0" stop-color="#5a6a70"/><stop offset="1" stop-color="#34464c"/></linearGradient><linearGradient id="Dégradé_sans_nom_13-2" x1="211.83" y1="15.38" x2="211.83" y2="452.84" xlink:href="#Dégradé_sans_nom_13"/><linearGradient id="Dégradé_sans_nom_13-3" x1="310.51" y1="-242.3" x2="310.51" y2="329.99" xlink:href="#Dégradé_sans_nom_13"/><linearGradient id="Dégradé_sans_nom_5" x1="211.83" y1="-573.09" x2="211.83" y2="3026.58" gradientUnits="userSpaceOnUse"><stop offset="0" stop-color="#dcf8e3"/><stop offset="0.11" stop-color="#d7f7e0"/><stop offset="0.25" stop-color="#c7f5d9"/><stop offset="0.41" stop-color="#aef2cc"/><stop offset="0.57" stop-color="#8bedbb"/><stop offset="0.75" stop-color="#5ee7a5"/><stop offset="0.92" stop-color="#27e08a"/><stop offset="1" stop-color="#0ddc7d"/></linearGradient><linearGradient id="Dégradé_sans_nom_44" x1="415.54" y1="840.76" x2="193.41" y2="421.74" gradientUnits="userSpaceOnUse"><stop offset="0" stop-color="#587372" stop-opacity="0"/><stop offset="0.28" stop-color="#4d6665" stop-opacity="0"/><stop offset="0.69" stop-color="#213232" stop-opacity="0.69"/><stop offset="1" stop-color="#0d1b1b"/></linearGradient></defs><title>fond2Plan de travail 22</title><g id="Calque_10" data-name="Calque 10"><g class="cls-1"><path class="cls-2" d="M50.61,311.5a29.47,29.47,0,0,0,1.31-3.25C51.47,309.33,51.05,310.42,50.61,311.5Z"/><path class="cls-3" d="M48.39,329.67c-.84-4.45.47-11.82,3.53-21.42a29.47,29.47,0,0,1-1.31,3.25Q46,322.79,42.07,334.14L381.58,143.6Z"/><path class="cls-4" d="M355.67,10.74a5.29,5.29,0,0,0-.54-.13c-50.79-8.06-89.78-1-89.78-1S306.09,3.63,355.67,10.74Z"/><path class="cls-5" d="M378.91,81.49c0-9.24-1.08-43.36-6.75-53.49-3.32-5.92-9.61-15.72-16.49-17.26-50.14-9.07-90.32-1.11-90.32-1.11-20,22-154,155.41-213.43,298.62a29.47,29.47,0,0,1-1.31,3.25Q46,322.79,42.07,334.14L381.58,143.6S378.91,89.81,378.91,81.49Z"/><path class="cls-6" d="M443.56,39.4c-23.44-13.51-49-21.55-73.27-26.22q-7.41-1.42-14.62-2.44c6.88,1.54,13.17,11.34,16.49,17.26,5.67,10.13,6.75,44.25,6.75,53.49,0,7.65,2.26,53.78,2.62,61.1l.05,0L497.8,202.1,463.15,222l34.65-18.83S521.05,84.06,443.56,39.4Z"/><path class="cls-7" d="M19.76,445l4-2.19c-1.08-26.17,2.55-53.12,9.65-80.19l-15.53,8.95Z"/><path class="cls-8" d="M23.74,442.79,456.07,205.26l-76.52-42.08L33.39,362.6C26.29,389.67,22.66,416.62,23.74,442.79Z"/><path class="cls-8" d="M381.58,142.56l-.05,0c0,.63.05,1,.05,1L42.07,334.14Q38.31,345,35.22,355.93L379.5,157.59l86.69,47.67L24,448.2q.39,5.9,1.11,11.73l438-238L497.8,202.1Z"/><path class="cls-9" d="M379.5,157.59,35.22,355.93c-.63,2.22-1.24,4.45-1.83,6.67L379.55,163.18l76.52,42.08L23.74,442.79c.08,1.81.17,3.61.29,5.41L466.19,205.26Z"/><polygon class="cls-10" points="492.75 642.85 23.54 895.13 27.62 461.29 497.8 202.1 492.75 642.85"/><g id="plante"><path id="Tracé_3169" data-name="Tracé 3169" class="cls-9" d="M367.73,343.23s18.49,9.08,16.52,78.66l4.33-.19s4.87-48.61-13.26-78.8Z"/><path id="Tracé_3170" data-name="Tracé 3170" class="cls-9" d="M380.83,355.15a133.11,133.11,0,0,0,14.41,17c7.12,6.68,24.41,13.59,24.41,13.59s-6.13-22.22-15.79-29.79-28.54-13.08-28.54-13.08Z"/><path id="Tracé_3171" data-name="Tracé 3171" class="cls-9" d="M371.83,347.29a42.65,42.65,0,0,1-6,18.43c-5.46,8.48-16.76,16.63-16.76,16.63s-.26-17.48,4.88-25.53,14.73-13.63,14.73-13.63Z"/><path id="Tracé_3172" data-name="Tracé 3172" class="cls-9" d="M388.58,421.7s8.76,14,11.77,25.69,2.36,36.87,2.36,36.87-13.23-15.08-14.83-28.83-1.47-33.63-1.47-33.63Z"/><path id="Tracé_3173" data-name="Tracé 3173" class="cls-9" d="M400.35,447.39c2.65,10.29,2.46,31,2.38,35.84l-.21.81-.15-.17c-1-5.06-11.82-57.24-15-62.11l1.16-.05,1.57,2.63C392.81,428.94,398.14,438.79,400.35,447.39Z"/><path id="Tracé_3174" data-name="Tracé 3174" class="cls-9" d="M384.25,421.89C369.18,439.15,363,465.34,363,465.34s11.14-4.15,18.92-13,4.5-30.56,4.5-30.56Z"/><g id="Groupe_724" data-name="Groupe 724"><path id="Tracé_3175" data-name="Tracé 3175" class="cls-9" d="M388.29,388.85s17.93,9.62,23.18,22,7.66,36.24,7.66,36.24-16.63-8.42-23-22.88-7.57-19.88-7.57-19.88Z"/><path id="Tracé_3176" data-name="Tracé 3176" class="cls-9" d="M411.47,410.88c5.26,12.4,7.66,36.24,7.66,36.24s-6.84-16.19-14.73-31.7c-6.07-11.93-13.11-23.53-16.1-26.57C388.29,388.85,406.22,398.47,411.47,410.88Z"/></g><path id="Tracé_3177" data-name="Tracé 3177" class="cls-9" d="M385.31,421.85C384,441.94,363,465.34,363,465.34s6.18-26.19,21.25-43.45Z"/><path id="Tracé_3178" data-name="Tracé 3178" class="cls-9" d="M419.65,385.77s-31.83-37.53-44.33-42.87c0,0,18.89,5.51,28.54,13.08S419.65,385.77,419.65,385.77Z"/><path id="Tracé_3179" data-name="Tracé 3179" class="cls-9" d="M368.67,343.19l.82,1.06c-6.11,8.3-20.43,38.1-20.43,38.1s-.26-17.47,4.88-25.53S368.67,343.19,368.67,343.19Z"/><path id="Tracé_3180" data-name="Tracé 3180" class="cls-9" d="M384.9,397.19s-5.23,13.05-13.7,17.41A56.91,56.91,0,0,1,357,420s6.51-14.9,10.15-17.31,17.72-7.43,17.72-7.43Z"/><path id="Tracé_3181" data-name="Tracé 3181" class="cls-9" d="M357,420s6.51-14.9,10.15-17.31,17.72-7.43,17.72-7.43l.05,1.16a108.89,108.89,0,0,0-14,10.52C364.62,412.57,359.14,419.66,357,420Z"/></g><g id="plante-2" data-name="plante"><path id="Tracé_3169-2" data-name="Tracé 3169" class="cls-9" d="M177.33,446.59s18.48,9.08,16.52,78.66l4.32-.19s4.88-48.61-13.25-78.8Z"/><path id="Tracé_3170-2" data-name="Tracé 3170" class="cls-9" d="M190.43,458.51a133.11,133.11,0,0,0,14.41,17c7.12,6.68,24.41,13.59,24.41,13.59s-6.13-22.21-15.79-29.79-28.54-13.08-28.54-13.08Z"/><path id="Tracé_3171-2" data-name="Tracé 3171" class="cls-9" d="M181.42,450.65a42.51,42.51,0,0,1-6,18.43c-5.46,8.48-16.76,16.63-16.76,16.63s-.26-17.47,4.88-25.53,14.73-13.63,14.73-13.63Z"/><path id="Tracé_3172-2" data-name="Tracé 3172" class="cls-9" d="M198.17,525.06s8.77,14,11.78,25.69,2.35,36.87,2.35,36.87-13.23-15.08-14.82-28.83S196,525.16,196,525.16Z"/><path id="Tracé_3173-2" data-name="Tracé 3173" class="cls-9" d="M210,550.75c2.64,10.29,2.46,31,2.37,35.84l-.21.81-.14-.17c-1-5.06-11.83-57.24-15-62.11l1.16,0,1.57,2.63C202.41,532.3,207.74,542.15,210,550.75Z"/><path id="Tracé_3174-2" data-name="Tracé 3174" class="cls-9" d="M193.85,525.25c-15.07,17.26-21.25,43.45-21.25,43.45s11.14-4.15,18.92-13S196,525.16,196,525.16Z"/><g id="Groupe_724-2" data-name="Groupe 724"><path id="Tracé_3175-2" data-name="Tracé 3175" class="cls-9" d="M197.89,492.21s17.93,9.63,23.18,22,7.66,36.24,7.66,36.24-16.63-8.42-23-22.88-7.57-19.88-7.57-19.88Z"/><path id="Tracé_3176-2" data-name="Tracé 3176" class="cls-9" d="M221.07,514.24c5.25,12.4,7.66,36.24,7.66,36.24s-6.84-16.19-14.73-31.7c-6.08-11.93-13.11-23.53-16.11-26.57C197.89,492.21,215.82,501.84,221.07,514.24Z"/></g><path id="Tracé_3177-2" data-name="Tracé 3177" class="cls-9" d="M194.9,525.21c-1.34,20.09-22.3,43.49-22.3,43.49s6.18-26.19,21.25-43.45Z"/><path id="Tracé_3178-2" data-name="Tracé 3178" class="cls-9" d="M229.25,489.13s-31.83-37.53-44.33-42.87c0,0,18.89,5.51,28.54,13.08S229.25,489.13,229.25,489.13Z"/><path id="Tracé_3179-2" data-name="Tracé 3179" class="cls-9" d="M178.27,446.55l.82,1.06c-6.12,8.3-20.43,38.1-20.43,38.1s-.26-17.47,4.88-25.53S178.27,446.55,178.27,446.55Z"/><path id="Tracé_3180-2" data-name="Tracé 3180" class="cls-9" d="M194.5,500.55S189.27,513.6,180.8,518a56.45,56.45,0,0,1-14.26,5.41s6.52-14.9,10.16-17.31,17.72-7.43,17.72-7.43Z"/><path id="Tracé_3181-2" data-name="Tracé 3181" class="cls-9" d="M166.54,523.38s6.51-14.9,10.16-17.31,17.71-7.43,17.71-7.43l.05,1.16a110.43,110.43,0,0,0-14,10.52C174.22,515.93,168.74,523,166.54,523.38Z"/></g><g id="plante-3" data-name="plante"><path id="Tracé_3169-3" data-name="Tracé 3169" class="cls-9" d="M49.49,484.67S68,493.75,66,563.33l4.32-.19s4.88-48.61-13.25-78.8Z"/><path id="Tracé_3170-3" data-name="Tracé 3170" class="cls-9" d="M62.59,496.59a133.11,133.11,0,0,0,14.41,17c7.12,6.68,24.41,13.59,24.41,13.59S95.28,505,85.62,497.42s-28.54-13.07-28.54-13.07Z"/><path id="Tracé_3171-3" data-name="Tracé 3171" class="cls-9" d="M53.58,488.73a42.51,42.51,0,0,1-6,18.43c-5.46,8.48-16.76,16.63-16.76,16.63s-.26-17.47,4.88-25.53,14.73-13.63,14.73-13.63Z"/><path id="Tracé_3172-3" data-name="Tracé 3172" class="cls-9" d="M70.33,563.14s8.77,14,11.78,25.69,2.35,36.87,2.35,36.87-13.23-15.08-14.82-28.83-1.47-33.63-1.47-33.63Z"/><path id="Tracé_3173-3" data-name="Tracé 3173" class="cls-9" d="M82.11,588.83c2.64,10.29,2.46,31,2.37,35.84l-.21.81-.14-.17c-1-5.06-11.83-57.24-15-62.11l1.16-.05,1.57,2.63C74.57,570.38,79.89,580.23,82.11,588.83Z"/><path id="Tracé_3174-3" data-name="Tracé 3174" class="cls-9" d="M66,563.33c-15.07,17.26-21.25,43.45-21.25,43.45s11.14-4.15,18.91-13,4.5-30.56,4.5-30.56Z"/><g id="Groupe_724-3" data-name="Groupe 724"><path id="Tracé_3175-3" data-name="Tracé 3175" class="cls-9" d="M70.05,530.29s17.93,9.63,23.18,22,7.66,36.24,7.66,36.24-16.63-8.42-23-22.88-7.57-19.88-7.57-19.88Z"/><path id="Tracé_3176-3" data-name="Tracé 3176" class="cls-9" d="M93.23,552.32c5.25,12.4,7.66,36.24,7.66,36.24s-6.84-16.19-14.73-31.7c-6.08-11.92-13.11-23.53-16.11-26.57C70.05,530.29,88,539.92,93.23,552.32Z"/></g><path id="Tracé_3177-3" data-name="Tracé 3177" class="cls-9" d="M67.06,563.29c-1.34,20.09-22.31,43.49-22.31,43.49S50.94,580.59,66,563.33Z"/><path id="Tracé_3178-3" data-name="Tracé 3178" class="cls-9" d="M101.41,527.21s-31.83-37.53-44.33-42.86c0,0,18.89,5.5,28.54,13.07S101.41,527.21,101.41,527.21Z"/><path id="Tracé_3179-3" data-name="Tracé 3179" class="cls-9" d="M50.43,484.63l.82,1.06c-6.12,8.3-20.43,38.1-20.43,38.1s-.26-17.47,4.88-25.53S50.43,484.63,50.43,484.63Z"/><path id="Tracé_3180-3" data-name="Tracé 3180" class="cls-9" d="M66.66,538.63S61.42,551.68,53,556a56.45,56.45,0,0,1-14.26,5.41s6.52-14.9,10.16-17.31,17.71-7.43,17.71-7.43Z"/><path id="Tracé_3181-3" data-name="Tracé 3181" class="cls-9" d="M38.7,561.46s6.51-14.9,10.16-17.31,17.71-7.43,17.71-7.43l.05,1.16a110.43,110.43,0,0,0-14,10.52C46.38,554,40.9,561.1,38.7,561.46Z"/></g><g id="Groupe_725" data-name="Groupe 725"><path id="Tracé_3182" data-name="Tracé 3182" class="cls-9" d="M298.2,347.59a252.65,252.65,0,0,1,6.29,25.59c.87,4.3,1.59,8.64,2.3,13,.37,2.17.64,4.35.95,6.53s.61,4.35.85,6.54c1.08,8.72,1.67,17.51,2,26.3,0,2.2.1,4.4.12,6.6s-.07,4.4-.11,6.6l-.1,3.29c0,1.1-.12,2.19-.19,3.29-.16,2.2-.32,4.39-.53,6.57-.16-2.19-.27-4.38-.38-6.57-.07-1.09-.08-2.19-.16-3.28l-.24-3.28c-.16-2.18-.25-4.36-.44-6.54s-.35-4.36-.52-6.53c-.77-8.71-1.62-17.4-2.67-26.07-.21-2.18-.5-4.34-.77-6.51s-.55-4.33-.84-6.5-.54-4.33-.86-6.5-.59-4.33-.89-6.49C300.76,364.94,299.48,356.29,298.2,347.59Z"/><path id="Tracé_3183" data-name="Tracé 3183" class="cls-9" d="M303.86,377.1a47.92,47.92,0,0,1,28.82,10.7c13.35,11,12.52,18.75,9,23.14s-12.45,4.67-20.27-4.59S303.86,377.1,303.86,377.1Z"/><path id="Tracé_3184" data-name="Tracé 3184" class="cls-9" d="M300,353.19a47.94,47.94,0,0,1,30.7,1.6c16,6.54,17.55,14.15,15.51,19.39s-10.48,8.18-20.72,1.68S300,353.19,300,353.19Z"/><path id="Tracé_3185" data-name="Tracé 3185" class="cls-9" d="M308.71,421.91a25,25,0,0,1,15,5.56c6.94,5.75,6.51,9.77,4.68,12s-6.48,2.44-10.55-2.39S308.71,421.91,308.71,421.91Z"/><path id="Tracé_3186" data-name="Tracé 3186" class="cls-9" d="M303.86,377.85c-.1.3-3,.89-3.31,1a73.3,73.3,0,0,0-8.09,3.23c-9.46,4.46-15.63,10.94-20.39,20.14-1.64,3.17-3.45,7.11-2.35,10.73,1.33,4.38,6.31,6.37,10.53,5.51,9.59-1.94,13.34-11.87,16.43-20,2.53-6.65,4.83-13.39,7-20.15Z"/><path id="Tracé_3187" data-name="Tracé 3187" class="cls-9" d="M299.6,354.77c-.15.27-3.1.33-3.43.38a71.42,71.42,0,0,0-8.55,1.7c-10.11,2.67-17.35,7.92-23.7,16.11-2.18,2.82-4.68,6.36-4.25,10.13.51,4.55,5,7.4,9.35,7.33,9.78-.17,15.27-9.25,19.77-16.67,3.7-6.08,7.19-12.28,10.57-18.54Z"/><path id="Tracé_3188" data-name="Tracé 3188" class="cls-9" d="M308.65,415a9.57,9.57,0,0,1-2,.61,44,44,0,0,0-4.95,2,25.74,25.74,0,0,0-12.47,12.32c-1,1.94-2.11,4.34-1.44,6.56.81,2.68,3.86,3.89,6.44,3.37,5.86-1.18,8.16-7.26,10-12.21,1.55-4.07,3-8.19,4.3-12.33Z"/></g><g id="Groupe_725-2" data-name="Groupe 725"><path id="Tracé_3182-2" data-name="Tracé 3182" class="cls-9" d="M437.41,308.24a249.87,249.87,0,0,1,6.3,25.58c.86,4.31,1.59,8.64,2.29,13,.37,2.16.64,4.35.95,6.52s.61,4.36.85,6.54c1.08,8.73,1.67,17.51,2,26.31,0,2.2.1,4.39.12,6.59s-.07,4.4-.1,6.6l-.1,3.3c0,1.09-.13,2.19-.2,3.29-.16,2.19-.32,4.38-.52,6.57-.16-2.2-.28-4.39-.39-6.58-.07-1.09-.08-2.18-.16-3.28l-.24-3.27c-.15-2.18-.24-4.37-.44-6.55s-.34-4.35-.52-6.53c-.77-8.7-1.61-17.39-2.66-26.07-.22-2.17-.51-4.34-.78-6.5s-.55-4.34-.84-6.5-.54-4.34-.85-6.5-.6-4.33-.9-6.5C440,325.59,438.69,316.93,437.41,308.24Z"/><path id="Tracé_3183-2" data-name="Tracé 3183" class="cls-9" d="M443.07,337.75a47.91,47.91,0,0,1,28.82,10.69c13.35,11,12.52,18.75,9,23.14s-12.44,4.68-20.27-4.58S443.07,337.75,443.07,337.75Z"/><path id="Tracé_3184-2" data-name="Tracé 3184" class="cls-9" d="M439.23,313.83a47.94,47.94,0,0,1,30.7,1.6c16,6.54,17.54,14.16,15.5,19.4S475,343,464.72,336.5,439.23,313.83,439.23,313.83Z"/><path id="Tracé_3185-2" data-name="Tracé 3185" class="cls-9" d="M447.92,382.55a25,25,0,0,1,15,5.57c6.95,5.74,6.51,9.76,4.68,12.05s-6.47,2.43-10.54-2.39S447.92,382.55,447.92,382.55Z"/><path id="Tracé_3186-2" data-name="Tracé 3186" class="cls-9" d="M443.07,338.49c-.1.3-3,.89-3.3,1a70.79,70.79,0,0,0-8.1,3.23c-9.46,4.45-15.63,10.93-20.39,20.14-1.64,3.17-3.45,7.1-2.34,10.73,1.33,4.37,6.3,6.36,10.52,5.51,9.59-1.94,13.34-11.87,16.43-20,2.53-6.64,4.84-13.38,7-20.15Z"/><path id="Tracé_3187-2" data-name="Tracé 3187" class="cls-9" d="M438.81,315.41c-.15.28-3.09.33-3.43.38a72.91,72.91,0,0,0-8.54,1.71c-10.11,2.67-17.36,7.92-23.71,16.11-2.18,2.82-4.68,6.36-4.25,10.13.51,4.54,5.05,7.4,9.35,7.32,9.79-.16,15.27-9.25,19.78-16.66,3.69-6.08,7.18-12.29,10.57-18.55Z"/><path id="Tracé_3188-2" data-name="Tracé 3188" class="cls-9" d="M447.87,375.61a10.3,10.3,0,0,1-2,.61,45.94,45.94,0,0,0-4.95,2,25.87,25.87,0,0,0-12.47,12.32c-1,1.94-2.11,4.35-1.44,6.57.82,2.67,3.86,3.89,6.44,3.37,5.87-1.19,8.16-7.26,10.05-12.22,1.54-4.07,3-8.19,4.3-12.33Z"/></g><g id="Groupe_725-3" data-name="Groupe 725"><path id="Tracé_3182-3" data-name="Tracé 3182" class="cls-9" d="M252,415.59a253.31,253.31,0,0,1,6.29,25.59c.87,4.3,1.59,8.64,2.3,13,.37,2.17.64,4.35.95,6.53s.6,4.35.85,6.54c1.08,8.73,1.67,17.51,2,26.3,0,2.2.1,4.4.11,6.6s-.06,4.4-.1,6.6l-.1,3.29c0,1.1-.12,2.19-.19,3.29-.16,2.2-.32,4.39-.53,6.58-.16-2.2-.27-4.39-.38-6.58-.07-1.09-.09-2.19-.16-3.28l-.24-3.28c-.16-2.18-.25-4.36-.44-6.54s-.35-4.36-.52-6.53c-.77-8.71-1.62-17.4-2.67-26.07-.22-2.18-.5-4.34-.77-6.51s-.55-4.33-.84-6.5-.54-4.33-.86-6.5-.59-4.33-.89-6.49C254.52,432.94,253.24,424.29,252,415.59Z"/><path id="Tracé_3183-3" data-name="Tracé 3183" class="cls-9" d="M257.62,445.1a47.92,47.92,0,0,1,28.82,10.7c13.35,11,12.52,18.75,9,23.14s-12.45,4.67-20.27-4.59S257.62,445.1,257.62,445.1Z"/><path id="Tracé_3184-3" data-name="Tracé 3184" class="cls-9" d="M253.77,421.19a47.94,47.94,0,0,1,30.7,1.6c16,6.54,17.55,14.15,15.51,19.39s-10.48,8.18-20.72,1.68S253.77,421.19,253.77,421.19Z"/><path id="Tracé_3185-3" data-name="Tracé 3185" class="cls-9" d="M262.47,489.91a24.94,24.94,0,0,1,15,5.57c6.94,5.74,6.51,9.76,4.68,12s-6.48,2.44-10.55-2.38S262.47,489.91,262.47,489.91Z"/><path id="Tracé_3186-3" data-name="Tracé 3186" class="cls-9" d="M257.62,445.85c-.1.3-3,.89-3.31,1a73.3,73.3,0,0,0-8.09,3.23c-9.46,4.46-15.63,10.94-20.39,20.14-1.64,3.17-3.45,7.11-2.35,10.74,1.33,4.37,6.31,6.36,10.53,5.5,9.59-1.94,13.34-11.87,16.42-20,2.53-6.65,4.84-13.39,7-20.15Z"/><path id="Tracé_3187-3" data-name="Tracé 3187" class="cls-9" d="M253.36,422.77c-.15.27-3.1.33-3.43.38a71.42,71.42,0,0,0-8.55,1.7c-10.11,2.67-17.35,7.92-23.7,16.11-2.19,2.82-4.68,6.36-4.25,10.13.51,4.55,5,7.4,9.35,7.33,9.78-.17,15.27-9.25,19.77-16.67,3.7-6.08,7.19-12.28,10.57-18.54Z"/><path id="Tracé_3188-3" data-name="Tracé 3188" class="cls-9" d="M262.41,483a9.57,9.57,0,0,1-2,.61,44,44,0,0,0-4.95,2A25.74,25.74,0,0,0,243,497.87c-1,1.94-2.11,4.34-1.44,6.56.81,2.68,3.86,3.89,6.44,3.37,5.86-1.18,8.16-7.26,10-12.21,1.55-4.07,3-8.19,4.3-12.33Z"/></g><g id="Groupe_725-4" data-name="Groupe 725"><path id="Tracé_3182-4" data-name="Tracé 3182" class="cls-9" d="M114.36,462.83a252.47,252.47,0,0,1,6.29,25.58c.87,4.31,1.59,8.64,2.3,13,.37,2.17.64,4.35.94,6.52s.61,4.36.86,6.54c1.08,8.73,1.67,17.52,2,26.31,0,2.2.1,4.4.11,6.59s-.06,4.4-.1,6.6l-.1,3.3c0,1.09-.12,2.19-.2,3.29-.15,2.19-.31,4.38-.52,6.57-.16-2.2-.27-4.39-.38-6.57-.07-1.1-.09-2.19-.17-3.28l-.23-3.28c-.16-2.18-.25-4.37-.44-6.54s-.35-4.36-.52-6.54c-.77-8.7-1.62-17.39-2.67-26.07-.22-2.17-.5-4.34-.77-6.5s-.55-4.34-.84-6.5-.54-4.34-.86-6.5-.59-4.33-.89-6.5C116.92,480.18,115.63,471.52,114.36,462.83Z"/><path id="Tracé_3183-4" data-name="Tracé 3183" class="cls-9" d="M120,492.34A47.91,47.91,0,0,1,148.84,503c13.35,11,12.51,18.75,9,23.14s-12.44,4.68-20.27-4.58S120,492.34,120,492.34Z"/><path id="Tracé_3184-4" data-name="Tracé 3184" class="cls-9" d="M116.17,468.42a47.94,47.94,0,0,1,30.7,1.6c16,6.55,17.55,14.16,15.51,19.4s-10.48,8.18-20.72,1.67S116.17,468.42,116.17,468.42Z"/><path id="Tracé_3185-4" data-name="Tracé 3185" class="cls-9" d="M124.86,537.14a25,25,0,0,1,15,5.57c6.95,5.74,6.52,9.76,4.69,12s-6.48,2.43-10.55-2.39S124.86,537.14,124.86,537.14Z"/><path id="Tracé_3186-4" data-name="Tracé 3186" class="cls-9" d="M120,493.08c-.1.3-3,.89-3.31,1a72.29,72.29,0,0,0-8.1,3.23c-9.45,4.46-15.63,10.93-20.38,20.14-1.64,3.17-3.45,7.11-2.35,10.73,1.33,4.37,6.31,6.36,10.53,5.51,9.59-1.94,13.34-11.87,16.42-20,2.53-6.65,4.84-13.39,7-20.16Z"/><path id="Tracé_3187-4" data-name="Tracé 3187" class="cls-9" d="M115.76,470c-.15.28-3.1.34-3.43.38a73.07,73.07,0,0,0-8.55,1.71c-10.11,2.67-17.35,7.92-23.7,16.11-2.19,2.82-4.68,6.36-4.26,10.13.52,4.54,5.05,7.4,9.35,7.32C95,505.49,100.45,496.4,105,489c3.7-6.08,7.19-12.29,10.57-18.55Z"/><path id="Tracé_3188-4" data-name="Tracé 3188" class="cls-9" d="M124.81,530.2a10.2,10.2,0,0,1-2,.61,45.94,45.94,0,0,0-5,2,25.89,25.89,0,0,0-12.48,12.32c-1,1.94-2.11,4.35-1.43,6.57.81,2.67,3.86,3.89,6.44,3.37,5.86-1.19,8.16-7.26,10-12.22,1.55-4.06,3-8.19,4.3-12.32Z"/></g></g></g></svg>