<svg xmlns="http://www.w3.org/2000/svg" xmlns:xlink="http://www.w3.org/1999/xlink" viewBox="0 0 333.02 233.45"><defs><style>.cls-1{fill:url(#Dégradé_sans_nom_7);}.cls-2{fill:#152322;}.cls-3{fill:url(#Dégradé_sans_nom_7-2);}.cls-4{fill:#0d1615;}</style><linearGradient id="Dégradé_sans_nom_7" x1="4024.88" y1="294.12" x2="3914.99" y2="86.81" gradientTransform="matrix(-1, 0, 0, 1, 4038.14, 0)" gradientUnits="userSpaceOnUse"><stop offset="0" stop-color="#587372" stop-opacity="0"/><stop offset="0.52" stop-color="#4d6665" stop-opacity="0"/><stop offset="0.7" stop-color="#415858" stop-opacity="0.18"/><stop offset="0.91" stop-color="#203131" stop-opacity="0.71"/><stop offset="1" stop-color="#0d1b1b"/></linearGradient><linearGradient id="Dégradé_sans_nom_7-2" x1="296.16" y1="212.99" x2="222.05" y2="73.19" gradientTransform="matrix(1, 0, 0, 1, 0, 0)" xlink:href="#Dégradé_sans_nom_7"/></defs><title>fond2Plan de travail 14</title><g id="Calque_6" data-name="Calque 6"><polygon class="cls-1" points="9.2 199.99 166.03 299.2 166.07 96.92 13.71 -0.03 9.2 199.99"/><g id="plante"><path id="Tracé_3169" data-name="Tracé 3169" class="cls-2" d="M144.63,100.58s-15.27,7.51-12.82,66.8l-3.6-.21s-4.63-41.46,10.1-67Z"/><path id="Tracé_3170" data-name="Tracé 3170" class="cls-2" d="M133.87,110.58a108.23,108.23,0,0,1-11.79,14.33c-5.84,5.61-20.14,11.29-20.14,11.29s4.84-18.85,12.78-25.18,23.59-10.81,23.59-10.81Z"/><path id="Tracé_3171" data-name="Tracé 3171" class="cls-2" d="M141.27,104a37.65,37.65,0,0,0,5.21,15.76c4.64,7.29,14.14,14.37,14.14,14.37s0-14.88-4.36-21.8-12.42-11.78-12.42-11.78Z"/><path id="Tracé_3172" data-name="Tracé 3172" class="cls-2" d="M128.21,167.17s-7.13,11.81-9.49,21.73-1.52,31.37-1.52,31.37,10.82-12.68,12-24.38.82-28.62.82-28.62Z"/><path id="Tracé_3173" data-name="Tracé 3173" class="cls-2" d="M118.72,188.9c-2.08,8.73-1.68,26.38-1.55,30.5l.18.69.12-.14c.8-4.3,9.16-48.62,11.71-52.73l-1-.05-1.27,2.22C124.78,173.28,120.46,181.6,118.72,188.9Z"/><path id="Tracé_3174" data-name="Tracé 3174" class="cls-2" d="M131.81,167.38C144.55,182.25,150,204.63,150,204.63a45.85,45.85,0,0,1-15.89-11.28c-6.57-7.61-4.1-26.08-4.1-26.08Z"/><g id="Groupe_724" data-name="Groupe 724"><path id="Tracé_3175" data-name="Tracé 3175" class="cls-2" d="M128.06,139.19s-14.8,8-19,18.49-6,30.77-6,30.77,13.74-7,18.89-19.21,6.07-16.85,6.07-16.85Z"/><path id="Tracé_3176" data-name="Tracé 3176" class="cls-2" d="M109,157.68c-4.22,10.5-6,30.77-6,30.77s5.5-13.71,11.89-26.82c4.91-10.09,10.62-19.89,13.08-22.44C128.06,139.19,113.26,147.18,109,157.68Z"/></g><path id="Tracé_3177" data-name="Tracé 3177" class="cls-2" d="M130.93,167.33c1.36,17.13,19.07,37.3,19.07,37.3s-5.45-22.38-18.19-37.25Z"/><path id="Tracé_3178" data-name="Tracé 3178" class="cls-2" d="M101.94,136.2s26-31.59,36.37-36c0,0-15.65,4.47-23.59,10.81S101.94,136.2,101.94,136.2Z"/><path id="Tracé_3179" data-name="Tracé 3179" class="cls-2" d="M143.84,100.54l-.66.89c5.18,7.14,17.43,32.69,17.43,32.69s0-14.88-4.36-21.8S143.84,100.54,143.84,100.54Z"/><path id="Tracé_3180" data-name="Tracé 3180" class="cls-2" d="M131,146.33s4.51,11.18,11.6,15a48.12,48.12,0,0,0,11.92,4.78s-5.59-12.77-8.65-14.86S131,144.7,131,144.7Z"/><path id="Tracé_3181" data-name="Tracé 3181" class="cls-2" d="M154.5,166.1s-5.59-12.76-8.65-14.86S131,144.7,131,144.7l0,1a96.07,96.07,0,0,1,11.78,9.13C148,159.67,152.67,165.77,154.5,166.1Z"/></g><g id="plante-2" data-name="plante"><path id="Tracé_3169-2" data-name="Tracé 3169" class="cls-2" d="M80.73,73.67s-9,4.47-5.35,44.25l-2.2-.28s-4.32-27.92,3.7-44.44Z"/><path id="Tracé_3170-2" data-name="Tracé 3170" class="cls-2" d="M74.56,80a61.84,61.84,0,0,1-6.64,9.17C64.57,92.68,56.09,96,56.09,96s2.25-12.44,6.84-16.39S76.88,73.2,76.88,73.2Z"/><path id="Tracé_3171-2" data-name="Tracé 3171" class="cls-2" d="M78.82,75.83a29.8,29.8,0,0,0,3.74,10.74c3.08,5.05,9.12,10.13,9.12,10.13s-.54-10-3.45-14.75a32.38,32.38,0,0,0-8-8.34Z"/><path id="Tracé_3172-2" data-name="Tracé 3172" class="cls-2" d="M73.18,117.64s-3.9,7.65-5,14.21.21,20.94.21,20.94,6.12-8.1,6.4-15.88-.54-19.13-.54-19.13Z"/><path id="Tracé_3173-2" data-name="Tracé 3173" class="cls-2" d="M68.21,131.85c-.95,5.77-.06,17.6.16,20.36l.14.46.07-.09c.33-2.85,3.79-32.2,5.19-34.86l-.59-.07-.69,1.44A54.62,54.62,0,0,0,68.21,131.85Z"/><path id="Tracé_3174-2" data-name="Tracé 3174" class="cls-2" d="M75.38,117.92c8.28,10.42,12.41,25.59,12.41,25.59a32.79,32.79,0,0,1-10.07-8.12c-4.27-5.34-3.44-17.61-3.44-17.61Z"/><g id="Groupe_724-2" data-name="Groupe 724"><path id="Tracé_3175-2" data-name="Tracé 3175" class="cls-2" d="M72.07,98.91s-8.7,4.81-10.89,11.68S58.69,131,58.69,131s8.09-4.16,10.78-12.17,3.07-11,3.07-11Z"/><path id="Tracé_3176-2" data-name="Tracé 3176" class="cls-2" d="M61.18,110.59C59,117.47,58.69,131,58.69,131s2.84-9,6.25-17.52c2.61-6.57,5.73-12.92,7.13-14.54C72.07,98.91,63.37,103.72,61.18,110.59Z"/></g><path id="Tracé_3177-2" data-name="Tracé 3177" class="cls-2" d="M74.84,117.85c1.45,11.52,13,25.66,13,25.66s-4.13-15.17-12.41-25.59Z"/><path id="Tracé_3178-2" data-name="Tracé 3178" class="cls-2" d="M56.09,96S70.76,75.76,76.88,73.2c0,0-9.35,2.42-13.95,6.37S56.09,96,56.09,96Z"/><path id="Tracé_3179-2" data-name="Tracé 3179" class="cls-2" d="M80.25,73.61l-.37.58c3.41,5,11.79,22.51,11.79,22.51s-.53-10-3.44-14.75A32.38,32.38,0,0,0,80.25,73.61Z"/><path id="Tracé_3180-2" data-name="Tracé 3180" class="cls-2" d="M74.11,103.8s3.14,7.64,7.6,10.45a31.07,31.07,0,0,0,7.41,3.64s-3.86-8.75-5.8-10.26-9.25-4.92-9.25-4.92Z"/><path id="Tracé_3181-2" data-name="Tracé 3181" class="cls-2" d="M89.13,117.89s-3.87-8.75-5.8-10.26-9.25-4.92-9.25-4.92v.66a70,70,0,0,1,7.5,6.54C85,113.35,88,117.6,89.13,117.89Z"/></g><g id="plante-3" data-name="plante"><path id="Tracé_3169-3" data-name="Tracé 3169" class="cls-2" d="M28.13,44.27s-9.31,4.63-4.92,47.07L20.93,91S16,61.2,24.11,43.71Z"/><path id="Tracé_3170-3" data-name="Tracé 3170" class="cls-2" d="M21.8,50.89A62,62,0,0,1,15,60.56c-3.43,3.72-12.21,7.09-12.21,7.09S5,54.43,9.7,50.29s14.41-6.58,14.41-6.58Z"/><path id="Tracé_3171-3" data-name="Tracé 3171" class="cls-2" d="M26.16,46.54a33.16,33.16,0,0,0,4.06,11.51C33.51,63.47,39.86,69,39.86,69s-.71-10.62-3.81-15.77a35.63,35.63,0,0,0-8.42-9Z"/><path id="Tracé_3172-3" data-name="Tracé 3172" class="cls-2" d="M20.93,91s-3.95,8.1-5,15.07.53,22.31.53,22.31,6.25-8.53,6.43-16.82-.85-20.39-.85-20.39Z"/><path id="Tracé_3173-3" data-name="Tracé 3173" class="cls-2" d="M16,106.08c-.9,6.13.2,18.75.47,21.69l.15.5.07-.09c.31-3,3.47-34.27,4.89-37.08L20.93,91l-.7,1.52A57.53,57.53,0,0,0,16,106.08Z"/><path id="Tracé_3174-3" data-name="Tracé 3174" class="cls-2" d="M23.21,91.34c8.78,11.22,13.3,27.46,13.3,27.46A35.58,35.58,0,0,1,25.91,110c-4.52-5.75-3.84-18.81-3.84-18.81Z"/><g id="Groupe_724-3" data-name="Groupe 724"><path id="Tracé_3175-3" data-name="Tracé 3175" class="cls-2" d="M19.49,71s-9,5-11.16,12.28S6,105,6,105s8.36-4.32,11-12.81,3-11.73,3-11.73Z"/><path id="Tracé_3176-3" data-name="Tracé 3176" class="cls-2" d="M8.33,83.32C6.16,90.61,6,105,6,105s2.83-9.52,6.24-18.57c2.63-7,5.78-13.69,7.21-15.39C19.49,71,10.5,76,8.33,83.32Z"/></g><path id="Tracé_3177-3" data-name="Tracé 3177" class="cls-2" d="M22.66,91.26c1.67,12.29,13.85,27.54,13.85,27.54S32,102.56,23.21,91.34Z"/><path id="Tracé_3178-3" data-name="Tracé 3178" class="cls-2" d="M2.81,67.65s15-21.3,21.3-23.94c0,0-9.69,2.44-14.41,6.58S2.81,67.65,2.81,67.65Z"/><path id="Tracé_3179-3" data-name="Tracé 3179" class="cls-2" d="M27.63,44.2l-.38.61C30.87,50.15,39.85,69,39.85,69s-.7-10.62-3.8-15.77A35.63,35.63,0,0,0,27.63,44.2Z"/><path id="Tracé_3180-3" data-name="Tracé 3180" class="cls-2" d="M21.68,76.27s3.39,8.2,8.06,11.26a33.3,33.3,0,0,0,7.78,4s-4.16-9.38-6.19-11-9.7-5.38-9.7-5.38Z"/><path id="Tracé_3181-3" data-name="Tracé 3181" class="cls-2" d="M37.52,91.51s-4.15-9.38-6.19-11-9.7-5.37-9.7-5.37l0,.7a76.06,76.06,0,0,1,7.9,7.08C33.11,86.61,36.34,91.19,37.52,91.51Z"/></g><polygon class="cls-3" points="316.17 144.39 165.81 230.9 166.07 96.92 323.16 0.15 316.17 144.39"/><g id="plante-4" data-name="plante"><path id="Tracé_3169-4" data-name="Tracé 3169" class="cls-2" d="M186.78,115.42s8.77,4.28,9.35,34h2s1.22-20.69-7.84-34Z"/><path id="Tracé_3170-4" data-name="Tracé 3170" class="cls-2" d="M193.11,120.8a66.39,66.39,0,0,0,7,7.59c3.44,3,11.61,6.34,11.61,6.34s-3.32-9.63-8-13.08-13.52-6.2-13.52-6.2Z"/><path id="Tracé_3171-4" data-name="Tracé 3171" class="cls-2" d="M188.76,117.25a15.68,15.68,0,0,1-2.39,7.75c-2.35,3.51-7.41,6.75-7.41,6.75s-.5-7.48,1.71-10.81,6.54-5.51,6.54-5.51Z"/><path id="Tracé_3172-4" data-name="Tracé 3172" class="cls-2" d="M198.13,149.43s4.37,6.17,6,11.24S206,176.48,206,176.48s-6.46-6.73-7.5-12.64a136.66,136.66,0,0,1-1.4-14.42Z"/><path id="Tracé_3173-4" data-name="Tracé 3173" class="cls-2" d="M204.14,160.67C205.59,165.12,206,174,206,176l-.08.34-.07-.07c-.59-2.19-6.71-24.73-8.27-26.88h.54l.78,1.16A47.59,47.59,0,0,1,204.14,160.67Z"/><path id="Tracé_3174-4" data-name="Tracé 3174" class="cls-2" d="M196.13,149.42c-6.62,7.05-8.93,18.12-8.93,18.12a22.07,22.07,0,0,0,8.5-5.15c3.42-3.61,1.43-13,1.43-13Z"/><g id="Groupe_724-4" data-name="Groupe 724"><path id="Tracé_3175-4" data-name="Tracé 3175" class="cls-2" d="M197.29,135.37s8.53,4.5,11.23,9.92S212.85,161,212.85,161s-7.9-4-11.18-10.28a56.63,56.63,0,0,1-3.93-8.66Z"/><path id="Tracé_3176-4" data-name="Tracé 3176" class="cls-2" d="M208.52,145.29c2.7,5.42,4.33,15.66,4.33,15.66s-3.52-7.07-7.52-13.87c-3.07-5.23-6.58-10.34-8-11.71C197.29,135.37,205.82,139.87,208.52,145.29Z"/></g><path id="Tracé_3177-4" data-name="Tracé 3177" class="cls-2" d="M196.62,149.42c-.2,8.56-9.42,18.12-9.42,18.12s2.31-11.07,8.93-18.12Z"/><path id="Tracé_3178-4" data-name="Tracé 3178" class="cls-2" d="M211.77,134.73S196.2,118,190.29,115.45c0,0,8.88,2.76,13.52,6.2S211.77,134.73,211.77,134.73Z"/><path id="Tracé_3179-4" data-name="Tracé 3179" class="cls-2" d="M187.21,115.43l.4.47C185,119.32,179,131.75,179,131.75s-.5-7.48,1.71-10.81S187.21,115.43,187.21,115.43Z"/><path id="Tracé_3180-4" data-name="Tracé 3180" class="cls-2" d="M195.9,138.87s-2.15,5.46-6,7.15a25.86,25.86,0,0,1-6.5,2s2.7-6.24,4.34-7.19,8.06-2.8,8.06-2.8Z"/><path id="Tracé_3181-4" data-name="Tracé 3181" class="cls-2" d="M183.42,148s2.7-6.23,4.34-7.18,8.06-2.8,8.06-2.8l.05.5a44.27,44.27,0,0,0-6.28,4.19C186.82,145,184.43,147.92,183.42,148Z"/></g><g id="plante-5" data-name="plante"><path id="Tracé_3169-5" data-name="Tracé 3169" class="cls-2" d="M250.48,70.27s8.77,4.28,9.35,34h2s1.22-20.69-7.84-34Z"/><path id="Tracé_3170-5" data-name="Tracé 3170" class="cls-2" d="M256.81,75.65a67.3,67.3,0,0,0,7.05,7.59c3.45,3,11.61,6.34,11.61,6.34s-3.32-9.63-8-13.08S254,70.3,254,70.3Z"/><path id="Tracé_3171-5" data-name="Tracé 3171" class="cls-2" d="M252.47,72.09a15.89,15.89,0,0,1-2.39,7.76c-2.35,3.51-7.42,6.75-7.42,6.75s-.5-7.48,1.71-10.81,6.54-5.51,6.54-5.51Z"/><path id="Tracé_3172-5" data-name="Tracé 3172" class="cls-2" d="M261.83,104.28s4.37,6.17,6,11.24,1.89,15.81,1.89,15.81-6.46-6.73-7.5-12.65a139.32,139.32,0,0,1-1.4-14.41Z"/><path id="Tracé_3173-5" data-name="Tracé 3173" class="cls-2" d="M267.84,115.52c1.45,4.45,1.81,13.31,1.87,15.37l-.08.34-.07-.07c-.59-2.19-6.71-24.73-8.27-26.88h.54l.79,1.16A47.82,47.82,0,0,1,267.84,115.52Z"/><path id="Tracé_3174-5" data-name="Tracé 3174" class="cls-2" d="M259.83,104.27c-6.62,7-8.93,18.12-8.93,18.12a22.07,22.07,0,0,0,8.5-5.15c3.42-3.61,1.43-13,1.43-13Z"/><g id="Groupe_724-5" data-name="Groupe 724"><path id="Tracé_3175-5" data-name="Tracé 3175" class="cls-2" d="M261,90.22s8.53,4.5,11.23,9.92,4.33,15.66,4.33,15.66-7.89-4-11.17-10.28-3.94-8.66-3.94-8.66Z"/><path id="Tracé_3176-5" data-name="Tracé 3176" class="cls-2" d="M272.22,100.14c2.7,5.42,4.33,15.66,4.33,15.66S273,108.73,269,101.93c-3.08-5.23-6.59-10.34-8-11.71C261,90.22,269.52,94.72,272.22,100.14Z"/></g><path id="Tracé_3177-5" data-name="Tracé 3177" class="cls-2" d="M260.32,104.27c-.2,8.56-9.42,18.12-9.42,18.12s2.31-11.07,8.93-18.12Z"/><path id="Tracé_3178-5" data-name="Tracé 3178" class="cls-2" d="M275.47,89.58S259.9,72.85,254,70.3c0,0,8.88,2.76,13.52,6.2S275.47,89.58,275.47,89.58Z"/><path id="Tracé_3179-5" data-name="Tracé 3179" class="cls-2" d="M250.91,70.28l.41.47c-2.66,3.41-8.66,15.85-8.66,15.85s-.5-7.48,1.72-10.81S250.91,70.28,250.91,70.28Z"/><path id="Tracé_3180-5" data-name="Tracé 3180" class="cls-2" d="M259.6,93.71s-2.15,5.47-6,7.16a25.73,25.73,0,0,1-6.5,2s2.7-6.24,4.34-7.19,8.06-2.8,8.06-2.8Z"/><path id="Tracé_3181-5" data-name="Tracé 3181" class="cls-2" d="M247.12,102.88s2.7-6.23,4.34-7.19,8.06-2.79,8.06-2.79l.05.49a45.2,45.2,0,0,0-6.28,4.2C250.52,99.86,248.13,102.77,247.12,102.88Z"/></g><g id="plante-6" data-name="plante"><path id="Tracé_3169-6" data-name="Tracé 3169" class="cls-2" d="M220,87.52s8.77,4.28,9.35,34l2,0s1.22-20.69-7.84-34Z"/><path id="Tracé_3170-6" data-name="Tracé 3170" class="cls-2" d="M226.36,92.9a68.23,68.23,0,0,0,7,7.59c3.45,3,11.61,6.34,11.61,6.34s-3.32-9.64-8-13.08-13.52-6.21-13.52-6.21Z"/><path id="Tracé_3171-6" data-name="Tracé 3171" class="cls-2" d="M222,89.34a15.92,15.92,0,0,1-2.39,7.76c-2.35,3.5-7.42,6.75-7.42,6.75s-.5-7.48,1.72-10.81,6.54-5.52,6.54-5.52Z"/><path id="Tracé_3172-6" data-name="Tracé 3172" class="cls-2" d="M231.38,121.53s4.37,6.17,6,11.23,1.88,15.82,1.88,15.82-6.46-6.73-7.5-12.65a139.32,139.32,0,0,1-1.4-14.41Z"/><path id="Tracé_3173-6" data-name="Tracé 3173" class="cls-2" d="M237.4,132.76c1.44,4.46,1.8,13.32,1.87,15.38l-.08.34-.07-.07c-.6-2.19-6.72-24.74-8.28-26.89h.54l.79,1.16A48.42,48.42,0,0,1,237.4,132.76Z"/><path id="Tracé_3174-6" data-name="Tracé 3174" class="cls-2" d="M229.38,121.51c-6.62,7.06-8.92,18.13-8.92,18.13a22,22,0,0,0,8.49-5.15c3.42-3.61,1.43-13,1.43-13Z"/><g id="Groupe_724-6" data-name="Groupe 724"><path id="Tracé_3175-6" data-name="Tracé 3175" class="cls-2" d="M230.55,107.47s8.52,4.5,11.22,9.92,4.33,15.66,4.33,15.66-7.89-4-11.17-10.28-3.94-8.66-3.94-8.66Z"/><path id="Tracé_3176-6" data-name="Tracé 3176" class="cls-2" d="M241.77,117.39c2.7,5.41,4.33,15.66,4.33,15.66s-3.52-7.07-7.51-13.87c-3.08-5.23-6.59-10.35-8-11.71C230.55,107.47,239.07,112,241.77,117.39Z"/></g><path id="Tracé_3177-6" data-name="Tracé 3177" class="cls-2" d="M229.87,121.52c-.19,8.56-9.41,18.12-9.41,18.12s2.3-11.07,8.92-18.13Z"/><path id="Tracé_3178-6" data-name="Tracé 3178" class="cls-2" d="M245,106.83S229.46,90.1,223.54,87.54c0,0,8.88,2.76,13.52,6.21S245,106.83,245,106.83Z"/><path id="Tracé_3179-6" data-name="Tracé 3179" class="cls-2" d="M220.47,87.52l.4.47c-2.66,3.42-8.66,15.86-8.66,15.86s-.49-7.48,1.72-10.81S220.47,87.52,220.47,87.52Z"/><path id="Tracé_3180-6" data-name="Tracé 3180" class="cls-2" d="M229.15,111s-2.15,5.47-6,7.15a25,25,0,0,1-6.49,2s2.7-6.23,4.33-7.18,8.06-2.8,8.06-2.8Z"/><path id="Tracé_3181-6" data-name="Tracé 3181" class="cls-2" d="M216.68,120.13s2.7-6.24,4.33-7.19,8.06-2.8,8.06-2.8l.05.5a44.91,44.91,0,0,0-6.28,4.2C220.08,117.11,217.69,120,216.68,120.13Z"/></g><g id="plante-7" data-name="plante"><path id="Tracé_3169-7" data-name="Tracé 3169" class="cls-2" d="M284.75,39.51s15.88,7.78,14.91,65.94l3.69-.11s3.66-40.6-12.12-66Z"/><path id="Tracé_3170-7" data-name="Tracé 3170" class="cls-2" d="M296.06,49.61A115.94,115.94,0,0,0,308.53,64c6.15,5.67,21,11.62,21,11.62S324,57,315.73,50.54s-24.5-11.23-24.5-11.23Z"/><path id="Tracé_3171-7" data-name="Tracé 3171" class="cls-2" d="M288.29,42.94a34.36,34.36,0,0,1-4.94,15.35c-4.57,7-14.13,13.74-14.13,13.74s-.4-14.62,3.9-21.3,12.44-11.25,12.44-11.25Z"/><path id="Tracé_3172-7" data-name="Tracé 3172" class="cls-2" d="M303.35,105.34s7.63,11.79,10.31,21.6,2.39,30.86,2.39,30.86-11.44-12.75-12.95-24.26-1.59-28.14-1.59-28.14Z"/><path id="Tracé_3173-7" data-name="Tracé 3173" class="cls-2" d="M313.66,126.94c2.37,8.63,2.42,26,2.4,30l-.17.67-.12-.14c-.95-4.24-10.69-48-13.41-52.1l1,0,1.37,2.22C307,111.44,311.69,119.73,313.66,126.94Z"/><path id="Tracé_3174-7" data-name="Tracé 3174" class="cls-2" d="M299.66,105.45C287,119.73,282,141.57,282,141.57s9.46-3.36,16-10.66,3.53-25.51,3.53-25.51Z"/><g id="Groupe_724-7" data-name="Groupe 724"><path id="Tracé_3175-7" data-name="Tracé 3175" class="cls-2" d="M302.77,77.86s15.4,8.24,20,18.66,6.91,30.39,6.91,30.39-14.28-7.21-19.89-19.37-6.67-16.71-6.67-16.71Z"/><path id="Tracé_3176-7" data-name="Tracé 3176" class="cls-2" d="M322.78,96.52c4.61,10.43,6.91,30.39,6.91,30.39s-6-13.61-12.9-26.66c-5.3-10-11.43-19.81-14-22.39C302.77,77.86,318.17,86.1,322.78,96.52Z"/></g><path id="Tracé_3177-7" data-name="Tracé 3177" class="cls-2" d="M300.56,105.43c-.94,16.79-18.59,36.14-18.59,36.14s5-21.84,17.69-36.12Z"/><path id="Tracé_3178-7" data-name="Tracé 3178" class="cls-2" d="M329.5,75.61S302,43.9,291.23,39.31c0,0,16.18,4.8,24.5,11.23S329.5,75.61,329.5,75.61Z"/><path id="Tracé_3179-7" data-name="Tracé 3179" class="cls-2" d="M285.56,39.48l.7.89c-5.13,6.88-17,31.66-17,31.66s-.4-14.62,3.91-21.3S285.56,39.48,285.56,39.48Z"/><path id="Tracé_3180-7" data-name="Tracé 3180" class="cls-2" d="M300,84.8s-4.33,10.86-11.51,14.42a47.93,47.93,0,0,1-12.11,4.38s5.4-12.39,8.49-14.37,15-6,15-6Z"/><path id="Tracé_3181-7" data-name="Tracé 3181" class="cls-2" d="M276.34,103.61s5.4-12.4,8.48-14.37,15.05-6,15.05-6l.06,1a90.19,90.19,0,0,0-11.86,8.65C282.81,97.46,278.21,103.33,276.34,103.61Z"/></g><polygon class="cls-4" points="13.71 -0.03 166.07 96.92 323.16 0.15 13.71 -0.03"/></g></svg>