<svg xmlns="http://www.w3.org/2000/svg" viewBox="0 0 59.23 117.24"><defs><style>.cls-1{fill:#fff;opacity:0.12;}</style></defs><title>fond2Plan de travail 87</title><g id="Calque_5" data-name="Calque 5"><path class="cls-1" d="M44.05,28.48a1.43,1.43,0,0,1,0,2l-.81.81a1.41,1.41,0,0,1-2,0l-9.68-10V43.56A1.41,1.41,0,0,1,30.14,45H29a1.41,1.41,0,0,1-1.41-1.41V21.23l-9.69,10a1.39,1.39,0,0,1-2,0l-.81-.81a1.42,1.42,0,0,1,0-2L28.55,15a1.42,1.42,0,0,1,2,0l13.5,13.51Zm6.16,27.76H8.89a5.63,5.63,0,0,1-5.63-5.63V9.29A5.63,5.63,0,0,1,8.89,3.66H50.21a5.63,5.63,0,0,1,5.63,5.63V50.61A5.63,5.63,0,0,1,50.21,56.24ZM52.09,9.29a1.89,1.89,0,0,0-1.88-1.88H8.89A1.88,1.88,0,0,0,7,9.29V50.61a1.87,1.87,0,0,0,1.87,1.87H50.21a1.88,1.88,0,0,0,1.88-1.87Z"/><path class="cls-1" d="M15.1,89.59a1.43,1.43,0,0,1,0-2l.81-.81a1.41,1.41,0,0,1,2,0l9.69,10V74.51A1.41,1.41,0,0,1,29,73.1h1.17a1.41,1.41,0,0,1,1.41,1.41V96.84l9.68-10a1.4,1.4,0,0,1,2,0l.81.81a1.42,1.42,0,0,1,0,2L30.59,103.1a1.41,1.41,0,0,1-2,0L15.1,89.59ZM8.94,61.83H50.25a5.63,5.63,0,0,1,5.63,5.63v41.32a5.63,5.63,0,0,1-5.63,5.63H8.94a5.64,5.64,0,0,1-5.64-5.63V67.46A5.64,5.64,0,0,1,8.94,61.83Zm-1.88,47a1.88,1.88,0,0,0,1.88,1.87H50.25a1.88,1.88,0,0,0,1.88-1.87V67.46a1.89,1.89,0,0,0-1.88-1.88H8.94a1.88,1.88,0,0,0-1.88,1.88Z"/></g></svg>