<svg xmlns="http://www.w3.org/2000/svg" viewBox="0 0 58.6 58.06"><defs><style>.cls-1{fill:#fff;}</style></defs><title>fond2Plan de travail 88</title><g id="Calque_5" data-name="Calque 5"><path class="cls-1" d="M26.72,43.21,13.21,29.71a1.41,1.41,0,0,1,0-2l13.51-13.5a1.41,1.41,0,0,1,2,0l.81.81a1.4,1.4,0,0,1,0,2l-10,9.68H41.8a1.41,1.41,0,0,1,1.41,1.41V29.3a1.41,1.41,0,0,1-1.41,1.41H19.47l10,9.69a1.4,1.4,0,0,1,0,2l-.81.81a1.43,1.43,0,0,1-2,0ZM48.84,55H7.53A5.64,5.64,0,0,1,1.9,49.37V8.06A5.63,5.63,0,0,1,7.53,2.43H48.84a5.64,5.64,0,0,1,5.64,5.63V49.37A5.65,5.65,0,0,1,48.84,55Zm0-3.76a1.88,1.88,0,0,0,1.88-1.88V8.06a1.88,1.88,0,0,0-1.88-1.88H7.53A1.89,1.89,0,0,0,5.65,8.06V49.37a1.88,1.88,0,0,0,1.88,1.88Z"/></g></svg>