<?xml version="1.0" encoding="utf-8"?>
<!-- Generator: Adobe Illustrator 24.1.3, SVG Export Plug-In . SVG Version: 6.00 Build 0)  -->
<svg version="1.1" id="Calque_1" xmlns="http://www.w3.org/2000/svg" xmlns:xlink="http://www.w3.org/1999/xlink" x="0px" y="0px"
	 viewBox="0 0 139.5 133.4" style="enable-background:new 0 0 139.5 133.4;" xml:space="preserve">
<style type="text/css">
	.st0{fill:#FFFFFF;}
</style>
<path class="st0" d="M33.2,12.7c8.8,0,17.9,0,27.1,0c5.8,0,11.7,0.6,17.5-0.1c9.5-1.2,17.4,2.5,24.7,7.4c2.1,1.4,2.1,6,3.4,10
	c-23.4,0-45.3,0-67.2,0c4.8,3.6,9.3,7.1,15.6,6.3c2.5-0.3,5,0.3,7.5-0.1c9.7-1.5,17.7,2.7,25.9,7c4.2,2.2,2.4,5.8,2.3,8.8
	c0,0.7-3.1,1.8-4.7,1.8c-11.6,0.2-23.3,0.1-35.5,0.1c-0.1,2-0.2,3.7-0.2,4.3c6.9,2.5,13.2,4.9,19.7,6.9c5.9,1.9,7.5,5.8,5.7,12
	C60.9,77.6,46.4,80,34.3,70c-2-1.6-1.8-6-2.8-9.8c4.7,0,8.2,0,13,0c-5.9-4.6-15.8-4.9-11.2-15.8c2.9,0,6.3,0,9.8,0
	C38,39.9,28.9,39,33.1,28.5c2.9,0,6.2,0,11.1,0C38.2,23.9,28.8,23.3,33.2,12.7z M103.1,22.5c-18.1,0-35.8,0-53.5,0c0,2,0,3.6,0,5.5
	c17.9,0,35.6,0,53.5,0C103.1,26.1,103.1,24.5,103.1,22.5z M99.6,20.5c-10.1-6.3-10.1-6.3-19.7-6.3c-12.6,0-25.3,0-37.9,0
	c-1.2,0-2.3,0.2-4.2,0.4c6.1,4.1,11.8,6.4,18.7,6.1c10.3-0.5,20.6-0.1,30.9-0.1C91.2,20.5,94.9,20.5,99.6,20.5z M88.3,46.2
	c-16.8,0-33.2,0-50.9,0c6.3,3.4,11,6.4,17.5,6.1c11.1-0.5,22.2-0.2,33.4-0.2c0.1-1.4,0.2-2.3,0.1-3.1C88.4,48.3,88.3,47.4,88.3,46.2
	z M84,43.9c-10.6-9.2-22.7-4.8-34.3-6c0,2.4,0,4.1,0,6C61.1,43.9,72.3,43.9,84,43.9z M73.4,70c-8.2,0-15.9,0-23.6,0
	c0,2.1,0,3.8,0,5.7c8,0,15.7,0,23.6,0C73.4,73.8,73.4,72,73.4,70z M70.2,68.2c-9.4-6.5-22.4-8.5-31-5.5
	C47.9,70.5,58.8,67.3,70.2,68.2z M47.1,59c0.9-5.9-3.2-9.5-13-11.6C33.5,53,33.5,53,47.1,59z M47.1,28c0.9-6.6-3-10-13.3-12.4
	C33.4,25.2,42.8,23.3,47.1,28z M48.3,43.2c-0.9-2.6-1.1-5.4-2.5-6.4c-3.5-2.4-7.5-4-11.4-5.9C33.3,37.2,35.5,39.2,48.3,43.2z
	 M47.3,75.6c0.5-6.7-4.3-10.7-13.8-12.3C33.9,72.3,42.6,71,47.3,75.6z"/>
<path class="st0" d="M73.2,127.7c-2.1,0-3.6,0-5.5,0c0-6.8,0-13.4,0-20.9c5.5,3.1,11.5-3.4,17,1.9c0.3,0.3,1.9-0.6,2.8-1.1
	c6.1-3.2,11.6-0.1,11.9,6.8c0.2,3.7,0.1,7.3,0,11c0,0.6-0.1,1.3-0.2,2.3c-1.6,0-3.2,0-5.2,0c0-3.9,0.4-7.7-0.2-11.4
	c-0.2-1.7-2.2-3.1-3.4-4.6c-1.4,1.6-3.6,3-3.9,4.7c-0.6,3.5-0.2,7.3-0.2,11.4c-1.8,0.1-3.4,0.2-5.8,0.4c0-4.1,0.4-7.9-0.2-11.6
	c-0.3-1.8-2.3-3.3-3.5-4.9c-1.2,1.7-3.3,3.2-3.6,5C72.8,120.1,73.2,123.8,73.2,127.7z"/>
<path class="st0" d="M119.6,127.7c-1.1,0-2.5,0-4.4,0c0-10.1,0-20.1,0-30.4c1.6,0,3.2,0,5.2,0c0,5.4,0,10.6,0,16.6
	c4.6-3,6.8-9.5,13.8-6.3c-2.3,2.6-4.7,5.2-7.3,8.1c2.6,3.8,5.1,7.5,7.8,11.4c-5.5,1.2-5.5,1.2-12.5-7.6
	C121.3,122.7,120.5,125,119.6,127.7z"/>
<path class="st0" d="M13,103.1c0,2.9,0,5,0,7.7c2.1,0,3.9,0,5.7,0c1.8,0,3.6,0,5.6,0c0,1.9,0,3.3,0,5.3c-1.9,0-3.7,0-5.5,0
	c-1.8,0-3.6,0-5.9,0c0,4,0,7.6,0,11.6c-2.1,0.1-3.6,0.2-5.6,0.3c0-10,0-19.7,0-29.8c6.1,0,12.1,0,18.5,0c0,1.6,0,3,0,4.9
	C21.5,103.1,17.4,103.1,13,103.1z"/>
<path class="st0" d="M37.5,128.4c-6.3,0.1-11.1-4.6-11.2-10.8c-0.1-6.3,4.4-11.1,10.7-11.3c6-0.2,11,4.7,11.2,10.9
	C48.4,123.4,43.7,128.4,37.5,128.4z M42.5,117.8c0-3.9-1.6-6.2-5.3-6.2c-3.4,0-5,2.3-5.2,5.5c-0.1,3.4,1.2,6,5,6.1
	C40.8,123.3,42.4,120.9,42.5,117.8z"/>
<path class="st0" d="M51.9,107.8c4.4,0,8.2,0,12.3,0c0.1,0.9,0.2,2.3,0.3,4.1c-11.2,1-5.6,9.9-7.7,15.8c-1.4,0.1-3,0.2-4.9,0.3
	C51.9,120.9,51.9,114.1,51.9,107.8z"/>
<path class="st0" d="M104.5,107.2c1.8,0,3.2,0,4.9,0c0,6.8,0,13.4,0,20.4c-1.6,0-3.1,0-4.9,0C104.5,120.9,104.5,114.3,104.5,107.2z"
	/>
<path class="st0" d="M111.9,100.3c-2.5,1.5-3.9,2.9-5.2,2.9c-1.1-0.1-3.1-2.2-2.9-2.9c0.4-1.4,2-3.2,3.2-3.3
	C108.2,96.7,109.6,98.5,111.9,100.3z"/>
</svg>
