<svg xmlns="http://www.w3.org/2000/svg" viewBox="0 0 153.78 79.22"><defs><style>.cls-1{fill:#fff;}</style></defs><title>fond2Plan de travail 37</title><g id="Calque_2" data-name="Calque 2"><path class="cls-1" d="M41.76,8.21C45.3,10.59,48,13.92,51,16.86c5.92,5.77,11.73,11.66,17.59,17.49,2.86,2.85,2.87,4.61,0,7.44l-24.11,24c-.72.71-1.53,1.33-2.3,2H39.29c-1.16-1.13-2.34-2.24-3.48-3.39q-12.47-12.48-24.9-25V36.57Q20,27.39,29.08,18.2c.76-.78,1.21-.49,1.82.15,1.47,1.53,3,3,4.51,4.5a2.68,2.68,0,0,1,1,2.67,3.82,3.82,0,0,0,1.68,3.94,2.55,2.55,0,0,1,1.1,2.45Q39.16,38,39.21,44a3.72,3.72,0,0,1-1.41,3.53,4.28,4.28,0,0,0-.23,6.25,4.55,4.55,0,0,0,6.3.4c1.83-1.54,2.4-4.43.65-6S42.94,44.9,42.94,43c0-3.56,0-7.12,0-10.69,0-.47-.32-1.09.35-1.45.18.14.35.25.5.39,1.4,1.41,2.77,2.85,4.23,4.21a2.49,2.49,0,0,1,.81,2.33,4.53,4.53,0,1,0,4-4c-.65,0-1.16.12-1.67-.4Q48.63,30.8,46,28.21a2,2,0,0,1-.57-1.65c0-3.43-1.62-5.06-5.17-5.09a2.13,2.13,0,0,1-1.65-.64c-1.74-1.75-3.47-3.5-5.22-5.23-.49-.49-.81-.9-.14-1.52,2.15-2,3.92-4.35,6.48-5.87Z"/><path class="cls-1" d="M146.73,52.33c-2.13.47-4.08,1.56-6.29,1.76-.95.09-1.9.25-2.86.27-6.85.11-9.48-2.48-9.49-9.33,0-4.38-.08-8.77,0-13.15,0-1.69-.41-2.36-2.15-2.18-.74.08-2,.48-2.2-.39a17.08,17.08,0,0,1,0-4.46c0-.15.57-.33.9-.38,4-.62,5.68-3.33,6.18-6.93.24-1.7.76-2.28,2.54-2.19,3.28.17,3.28.05,3.28,3.43,0,5.25,0,5.25,5.16,5.25,3.31,0,3.17,0,3.36,3.34.11,2-.5,2.54-2.47,2.43s-4.5-.91-5.72.34-.28,3.65-.32,5.56c0,2.6,0,5.2,0,7.8,0,3.69,1.3,4.74,4.95,4.46,1.21-.1,2.55-1.19,3.47-.43.76.63.81,2.11,1.2,3.2.06.15.26.25.4.37Z"/><path class="cls-1" d="M117.11,10c1.3.82,2.69,1.49,3.12,3.23.6,2.37-.09,5-1.8,6.11a6.49,6.49,0,0,1-6.62-.24c-1.65-1.34-2.17-4.18-1.29-6.43.55-1.39,1.77-1.95,2.89-2.67Z"/><path class="cls-1" d="M83.83,48.66c3.27.23,6.41.44,9.55.7,1.5.12,3,.27,4.48.53,3.29.58,6,1.85,6.82,5.55a9.1,9.1,0,0,1-4,9.65,18.76,18.76,0,0,1-9,2.58,32,32,0,0,1-11.81-1c-5.37-1.61-6.75-6.51-3.06-10.69.62-.69,1-1,0-1.85-1.86-1.53-2-3.9-.29-5.82,1.21-1.39,2.67-2.54,4.12-3.9-2.88-1.85-4.55-4.15-4.85-7.31C75.18,30,79.32,25.34,86.71,24.73c4.33-.36,8.58.88,12.91.5.81-.08,1.64,0,2.46,0,3.16,0,3,0,3.19,2.9.08,1.67-.51,2.18-2.06,2.1a22.45,22.45,0,0,0-3,.24c1,1.87,1.86,3.52,1.88,5.52a9.35,9.35,0,0,1-6.6,9.37,14.41,14.41,0,0,1-7.7.69C85.47,45.54,84.52,46.5,83.83,48.66Zm5.39-8.42c3.24-.05,5.34-2,5.31-5s-2-5-5.26-5c-3.4,0-5.46,2.07-5.38,5.36C84,38.61,85.9,40.29,89.22,40.24ZM88.8,62.36a15.26,15.26,0,0,0,5.45-.74c1.23-.5,2.19-1.28,2-2.74s-1.39-1.59-2.49-1.69c-3.06-.27-6.14-.38-9.19-.73-1.85-.21-2.44.91-2.83,2.26-.44,1.55.43,2.45,1.8,3A15.56,15.56,0,0,0,88.8,62.36Z"/><path class="cls-1" d="M120.33,36.73c0,3.56.07,7.12,0,10.67,0,1.5.44,2.11,1.94,2.18.64,0,1.73-.29,1.85.76A14.11,14.11,0,0,1,124,54c-.07.47-.83.28-1.29.28-4.45,0-8.9,0-13.35,0-1.21,0-1.46-.4-1.5-1.52-.06-1.89-.19-3.61,2.55-3.37,1.07.09,1.31-.67,1.31-1.63,0-5.27-.06-10.53,0-15.8,0-1.68-1.16-1.93-2.24-2.15-2.35-.46-1.28-2.06-1.28-3.34,0-1.47.61-1.95,2.12-1.88,2.87.14,5.75.08,8.62,0,1.07,0,1.42.33,1.4,1.4C120.3,29.62,120.33,33.18,120.33,36.73Z"/></g></svg>