<svg xmlns="http://www.w3.org/2000/svg" viewBox="0 0 93.48 123.84"><defs><style>.cls-1{fill:#fff;}</style></defs><title>fond2Plan de travail 32</title><g id="Calque_2" data-name="Calque 2"><path class="cls-1" d="M55.38,11.65c-1.45.77-1.49,3-2.74,2.79-.85-.11-1.49-1.74-2.58-3.15a20.8,20.8,0,0,0,0,2.92c.33,2.09-.63,2.56-2.53,2.46-1.32-.07-1.72-.49-1.68-1.77.07-2.76,0-5.51.05-8.26,0-.78-.64-2.15.79-2.22s3-.84,4.12.8c.62,1,1.2,1.93,2,3.14.66-1.09,1.22-1.91,1.68-2.78,1.15-2.12,3.06-1.16,4.67-1.11.72,0,.5.94.51,1.48,0,3-.08,6,0,9,.06,1.65-.81,1.74-2,1.67S55.18,17,55.37,15C55.46,14,55.38,12.91,55.38,11.65Z"/><path class="cls-1" d="M31.52,10.45c0,1.42-.1,2.85,0,4.25.14,1.6-.53,1.95-2,2-1.66,0-2.56-.33-2.27-2.19.2-1.26-.09-2-1.67-2s-1.93.56-1.72,1.89c.28,1.76-.45,2.26-2.2,2.28s-2.24-.7-2.18-2.36c.11-2.75.13-5.51,0-8.26-.09-1.82.92-1.8,2.18-1.77S24.08,4.12,23.89,6c-.11,1.09-.42,2.29,1.56,2.32S27.4,7.27,27.25,6C27,4,28.35,4.34,29.5,4.31s2.18-.06,2,1.63C31.42,7.43,31.52,9,31.52,10.45Z"/><path class="cls-1" d="M39,4.32c.92,0,1.84-.07,2.75,0,1.14.11,2.81-.76,2.77,1.65,0,1.75-.15,3-2.37,2.6-1-.18-1.26.46-1.24,1.35,0,1.42-.09,2.85,0,4.26.16,1.76-.27,2.49-2.27,2.5-2.16,0-2.27-1-2.15-2.62.08-.91,0-1.84,0-2.75.16-1.78.05-3.06-2.37-2.81-1.64.17-1-1.36-1.1-2.23s-.34-2,1.16-2Z"/><path class="cls-1" d="M61.44,10.37a20.42,20.42,0,0,0,0-3.5c-.46-2.56,1-2.68,2.87-2.58,1.13.06,1.46.53,1.39,1.55,0,.67,0,1.34,0,2,0,4.2,0,4.3,4.16,4.47,1.72.06,1.59,1,1.57,2.13s.23,2.25-1.53,2.19c-2.33-.07-4.67-.05-7,0-1.1,0-1.46-.45-1.42-1.5C61.48,13.55,61.44,12,61.44,10.37Z"/><path class="cls-1" d="M43.45,39v.06c-7.19,0-14.37.06-21.56,0-1.94,0-2.64.27-2.4,2.5q1.26,12,2.06,23.94c.15,2.34.83,3.11,3.26,3.08,9.34-.14,18.68,0,28,0,2,0,2.81.4,2.49,2.57-.39,2.64-.52,5.31-.7,8a2.66,2.66,0,0,1-2,2.62,23.58,23.58,0,0,1-18.18,0,2.63,2.63,0,0,1-2-2.62c-.53-5.62-.57-5.62-6.33-5.62-.61,0-1.23,0-1.84,0-1.42-.12-2,.26-1.8,1.9.46,3.66.79,7.36.94,11,.07,1.81.91,2.41,2.48,2.87,5.59,1.62,11.19,4,16.79,4.56S54,91.23,59.59,89.74a8.67,8.67,0,0,1,1.2-.28c2.12-.22,2.82-1.45,3-3.5.62-8.29,1.29-16.59,2.15-24.86.22-2.13-.53-2.34-2.3-2.32-8.72.09-17.45.07-26.17.08-7,0-6.91,0-7.48-7.19-.18-2.32.36-3,2.74-3,9.14.15,18.27.1,27.41.11,7.27,0,7.19,0,7.57-7.4.1-2-.52-2.43-2.37-2.4C58,39.09,50.74,39,43.45,39Z"/><path class="cls-1" d="M43.66,26.4c12,0,24,0,36,0,2.11,0,2.77.4,2.55,2.75-2.07,22.19-4,44.4-5.95,66.61-.24,2.66-.59,5.31-.65,8,0,1.8-.88,2.48-2.47,2.91q-14.1,3.86-28.17,7.83a5.78,5.78,0,0,1-3.3-.12c-9.18-2.56-18.37-5.13-27.58-7.62a3,3,0,0,1-2.61-3.14q-3.19-37-6.62-74c-.24-2.63.44-3.28,3-3.25C19.84,26.48,31.75,26.4,43.66,26.4Z"/><path d="M43.36,41.92c7.21,0,14.42,0,21.63,0,1.82,0,2.43.41,2.33,2.4-.36,7.4-.29,7.41-7.48,7.4-9,0-18.08,0-27.11-.1-2.36,0-2.9.65-2.72,3,.56,7.18.47,7.19,7.4,7.18,8.63,0,17.26,0,25.89-.07,1.75,0,2.49.18,2.27,2.32-.84,8.27-1.51,16.56-2.12,24.86-.15,2-.84,3.28-2.94,3.5a7,7,0,0,0-1.18.28c-5.59,1.49-11.16,4.68-16.72,4.14s-11.08-3-16.61-4.57c-1.56-.45-2.39-1-2.46-2.87-.15-3.69-.48-7.38-.93-11-.2-1.64.38-2,1.78-1.9.6.05,1.22,0,1.83,0,5.69,0,5.73,0,6.25,5.61a2.63,2.63,0,0,0,2,2.62,23.07,23.07,0,0,0,18,0,2.66,2.66,0,0,0,2-2.63c.18-2.66.31-5.34.69-8,.32-2.17-.53-2.59-2.47-2.57-9.24.06-18.48-.09-27.72,0-2.4,0-3.07-.73-3.22-3.07-.54-8-1.2-16-2-23.94-.23-2.23.46-2.53,2.38-2.51,7.11.1,14.22,0,21.33,0Z"/></g></svg>