<svg xmlns="http://www.w3.org/2000/svg" viewBox="0 0 34.14 32.4"><defs><style>.cls-1{fill:#fff;}</style></defs><title>fond2Plan de travail 18</title><g id="Calque_2" data-name="Calque 2"><path id="LinkedIn" class="cls-1" d="M33.14,19.46V31.4H26.22V20.26c0-2.8-1-4.71-3.51-4.71a3.79,3.79,0,0,0-3.55,2.53,4.84,4.84,0,0,0-.23,1.69V31.4H12s.1-18.87,0-20.83h6.93v3l-.05.06h.05v-.06a6.87,6.87,0,0,1,6.24-3.45C29.73,10.08,33.14,13.06,33.14,19.46ZM4.76.53a3.61,3.61,0,1,0-.09,7.2h0a3.61,3.61,0,1,0,0-7.2ZM1.25,31.4H8.17V10.57H1.25Z"/></g></svg>