<svg xmlns="http://www.w3.org/2000/svg" viewBox="0 0 40.62 39.03"><defs><style>.cls-1{fill:#fff;}</style></defs><title>fond2Plan de travail 17</title><g id="Calque_2" data-name="Calque 2"><path class="cls-1" d="M20.68,2.28A18.52,18.52,0,0,0,2,20.64,18.37,18.37,0,0,0,14.77,38.05c.94.17,1.28-.39,1.28-.88s0-1.59,0-3.12c-5.2,1.11-6.3-2.46-6.3-2.46A4.92,4.92,0,0,0,7.66,28.9c-1.7-1.14.13-1.11.13-1.11a3.9,3.9,0,0,1,2.86,1.89,4,4,0,0,0,5.44,1.52,3.92,3.92,0,0,1,1.18-2.45c-4.15-.46-8.51-2-8.51-9.07a7.08,7.08,0,0,1,1.92-4.93,6.39,6.39,0,0,1,.17-4.85s1.56-.5,5.14,1.88a17.86,17.86,0,0,1,9.33,0C28.87,9.4,30.44,9.9,30.44,9.9a6.65,6.65,0,0,1,.19,4.85,7.07,7.07,0,0,1,1.91,4.93c0,7.05-4.37,8.6-8.52,9.05a4.39,4.39,0,0,1,1.26,3.4c0,2.46,0,4.43,0,5s.33,1.05,1.29.87A18.33,18.33,0,0,0,39.36,20.64,18.52,18.52,0,0,0,20.68,2.28Z"/></g></svg>