<svg xmlns="http://www.w3.org/2000/svg" xmlns:xlink="http://www.w3.org/1999/xlink" viewBox="0 0 408.56 601.15"><defs><style>.cls-1{fill:url(#Dégradé_sans_nom_13);}.cls-2{fill:url(#Dégradé_sans_nom_13-2);}.cls-3{fill:url(#Dégradé_sans_nom_13-3);}.cls-4{fill:url(#Dégradé_sans_nom_5);}.cls-5{fill:#34464c;}.cls-6{fill:none;}.cls-7{fill:#327976;}.cls-8{fill:#0d1b1b;}.cls-9{fill:url(#Dégradé_sans_nom_44);}.cls-10{fill:#f7b3b1;}.cls-11{fill:#f9cfcf;}.cls-12{fill:#0b0c06;}.cls-13{fill:#142a2a;}.cls-14{fill:#f9644b;}.cls-15{fill:#3f4242;}.cls-16{fill:#6bed8c;}.cls-17{fill:#d2ffe0;}.cls-18{fill:#04af38;}</style><linearGradient id="Dégradé_sans_nom_13" x1="50.22" y1="16.63" x2="50.22" y2="303.56" gradientUnits="userSpaceOnUse"><stop offset="0" stop-color="#5a6a70"/><stop offset="1" stop-color="#34464c"/></linearGradient><linearGradient id="Dégradé_sans_nom_13-2" x1="155.53" y1="16.63" x2="155.53" y2="303.56" xlink:href="#Dégradé_sans_nom_13"/><linearGradient id="Dégradé_sans_nom_13-3" x1="220.26" y1="-152.38" x2="220.26" y2="222.98" xlink:href="#Dégradé_sans_nom_13"/><linearGradient id="Dégradé_sans_nom_5" x1="155.53" y1="-369.34" x2="155.53" y2="1991.66" gradientUnits="userSpaceOnUse"><stop offset="0" stop-color="#dcf8e3"/><stop offset="0.11" stop-color="#d7f7e0"/><stop offset="0.25" stop-color="#c7f5d9"/><stop offset="0.41" stop-color="#aef2cc"/><stop offset="0.57" stop-color="#8bedbb"/><stop offset="0.75" stop-color="#5ee7a5"/><stop offset="0.92" stop-color="#27e08a"/><stop offset="1" stop-color="#0ddc7d"/></linearGradient><linearGradient id="Dégradé_sans_nom_44" x1="289.14" y1="558" x2="143.45" y2="283.16" gradientUnits="userSpaceOnUse"><stop offset="0" stop-color="#587372" stop-opacity="0"/><stop offset="0.28" stop-color="#4d6665" stop-opacity="0"/><stop offset="0.69" stop-color="#213232" stop-opacity="0.69"/><stop offset="1" stop-color="#0d1b1b"/></linearGradient></defs><title>fond2Plan de travail 30</title><g id="Calque_2" data-name="Calque 2"><path class="cls-1" d="M49.79,210.86a19.92,19.92,0,0,0,.86-2.14C50.35,209.43,50.08,210.15,49.79,210.86Z"/><path class="cls-2" d="M48.33,222.78c-.55-2.93.31-7.76,2.32-14.06a19.92,19.92,0,0,1-.86,2.14q-3,7.39-5.6,14.84l222.68-125Z"/><path class="cls-3" d="M249.88,13.59l-.36-.09c-33.31-5.28-58.89-.64-58.89-.64A229.21,229.21,0,0,1,249.88,13.59Z"/><path class="cls-4" d="M265.12,60c0-6.06-.71-28.44-4.43-35.08-2.18-3.89-6.3-10.31-10.81-11.32-32.89-5.95-59.25-.73-59.25-.73-13.12,14.41-101,101.93-140,195.86a19.92,19.92,0,0,1-.86,2.14q-3,7.39-5.6,14.84l222.68-125S265.12,65.45,265.12,60Z"/><path class="cls-5" d="M307.53,32.38c-15.38-8.86-32.15-14.13-48.06-17.19-3.24-.63-6.44-1.15-9.59-1.6,4.51,1,8.63,7.43,10.81,11.32,3.72,6.64,4.43,29,4.43,35.08,0,5,1.48,35.28,1.72,40.08l0,0L343.1,139.1l-22.73,13,22.73-12.35S358.35,61.68,307.53,32.38Z"/><path class="cls-6" d="M29.55,298.41,32.17,297c-.72-17.17,1.67-34.85,6.33-52.6l-10.19,5.87Z"/><path class="cls-7" d="M32.17,297l283.56-155.8-50.19-27.6-227,130.8C33.84,262.12,31.45,279.8,32.17,297Z"/><path class="cls-7" d="M266.87,100.05l0,0,0,.66L44.19,225.7q-2.47,7.14-4.5,14.29L265.51,109.9l56.85,31.28-290,159.33c.18,2.58.42,5.15.74,7.7L320.37,152.13l22.73-13Z"/><path class="cls-8" d="M265.51,109.9,39.69,240c-.41,1.46-.81,2.92-1.19,4.38l227-130.8,50.19,27.6L32.17,297c0,1.18.1,2.37.18,3.54l290-159.33Z"/><polygon class="cls-9" points="339.79 428.18 32.04 593.65 34.71 309.1 343.1 139.1 339.79 428.18"/><g id="plante"><path id="Tracé_3169" data-name="Tracé 3169" class="cls-8" d="M257.79,231.67s12.12,6,10.83,51.59l2.84-.12s3.2-31.89-8.7-51.69Z"/><path id="Tracé_3170" data-name="Tracé 3170" class="cls-8" d="M266.38,239.49a87.55,87.55,0,0,0,9.45,11.16c4.67,4.39,16,8.92,16,8.92s-4-14.57-10.35-19.54-18.73-8.58-18.73-8.58Z"/><path id="Tracé_3171" data-name="Tracé 3171" class="cls-8" d="M260.47,234.33a27.73,27.73,0,0,1-3.94,12.08c-3.58,5.57-11,10.91-11,10.91s-.17-11.46,3.2-16.74,9.66-8.94,9.66-8.94Z"/><path id="Tracé_3172" data-name="Tracé 3172" class="cls-8" d="M271.46,283.14s5.75,9.18,7.72,16.84,1.55,24.19,1.55,24.19-8.68-9.89-9.73-18.91-1-22.06-1-22.06Z"/><path id="Tracé_3173" data-name="Tracé 3173" class="cls-8" d="M279.18,300c1.74,6.74,1.61,20.34,1.56,23.5l-.14.53-.09-.11c-.68-3.32-7.76-37.54-9.82-40.74l.77,0,1,1.73C274.24,287.89,277.73,294.34,279.18,300Z"/><path id="Tracé_3174" data-name="Tracé 3174" class="cls-8" d="M268.62,283.26c-9.88,11.32-13.94,28.5-13.94,28.5a34.94,34.94,0,0,0,12.41-8.52c5.1-5.79,3-20,3-20Z"/><g id="Groupe_724" data-name="Groupe 724"><path id="Tracé_3175" data-name="Tracé 3175" class="cls-8" d="M271.27,261.59S283,267.9,286.48,276s5,23.77,5,23.77-10.91-5.53-15.1-15-5-13-5-13Z"/><path id="Tracé_3176" data-name="Tracé 3176" class="cls-8" d="M286.48,276c3.44,8.13,5,23.77,5,23.77S287,289.19,281.84,279c-4-7.83-8.6-15.44-10.56-17.43C271.27,261.59,283,267.9,286.48,276Z"/></g><path id="Tracé_3177" data-name="Tracé 3177" class="cls-8" d="M269.31,283.23c-.88,13.18-14.63,28.53-14.63,28.53s4.06-17.18,13.94-28.5Z"/><path id="Tracé_3178" data-name="Tracé 3178" class="cls-8" d="M291.84,259.57S271,235,262.76,231.45c0,0,12.39,3.61,18.73,8.58S291.84,259.57,291.84,259.57Z"/><path id="Tracé_3179" data-name="Tracé 3179" class="cls-8" d="M258.4,231.64l.54.69c-4,5.45-13.4,25-13.4,25s-.17-11.46,3.2-16.74S258.4,231.64,258.4,231.64Z"/><path id="Tracé_3180" data-name="Tracé 3180" class="cls-8" d="M269.05,267.06s-3.43,8.56-9,11.42a37.65,37.65,0,0,1-9.35,3.55s4.27-9.78,6.66-11.36S269,265.8,269,265.8Z"/><path id="Tracé_3181" data-name="Tracé 3181" class="cls-8" d="M250.71,282s4.27-9.77,6.66-11.35S269,265.8,269,265.8l0,.77a71,71,0,0,0-9.2,6.9C255.75,277.15,252.15,281.8,250.71,282Z"/></g><g id="plante-2" data-name="plante"><path id="Tracé_3169-2" data-name="Tracé 3169" class="cls-8" d="M132.9,299.46s12.13,6,10.84,51.59l2.84-.12s3.19-31.89-8.7-51.68Z"/><path id="Tracé_3170-2" data-name="Tracé 3170" class="cls-8" d="M141.5,307.28A86.83,86.83,0,0,0,151,318.45c4.67,4.38,16,8.91,16,8.91s-4-14.57-10.36-19.54-18.72-8.57-18.72-8.57Z"/><path id="Tracé_3171-2" data-name="Tracé 3171" class="cls-8" d="M135.59,302.12a27.9,27.9,0,0,1-3.94,12.09c-3.58,5.56-11,10.91-11,10.91s-.17-11.46,3.2-16.74,9.66-8.95,9.66-8.95Z"/><path id="Tracé_3172-2" data-name="Tracé 3172" class="cls-8" d="M146.58,350.93s5.75,9.18,7.72,16.85S155.84,392,155.84,392s-8.67-9.89-9.72-18.91-1-22.06-1-22.06Z"/><path id="Tracé_3173-2" data-name="Tracé 3173" class="cls-8" d="M154.3,367.78c1.73,6.75,1.61,20.34,1.56,23.51l-.14.53-.09-.11c-.69-3.32-7.76-37.55-9.82-40.74l.76,0,1,1.73C149.35,355.68,152.85,362.14,154.3,367.78Z"/><path id="Tracé_3174-2" data-name="Tracé 3174" class="cls-8" d="M143.74,351.05c-9.88,11.32-13.94,28.5-13.94,28.5A34.83,34.83,0,0,0,142.21,371c5.1-5.8,2.95-20.05,2.95-20.05Z"/><g id="Groupe_724-2" data-name="Groupe 724"><path id="Tracé_3175-2" data-name="Tracé 3175" class="cls-8" d="M146.39,329.38s11.76,6.32,15.2,14.45,5,23.77,5,23.77-10.91-5.52-15.11-15-5-13-5-13Z"/><path id="Tracé_3176-2" data-name="Tracé 3176" class="cls-8" d="M161.59,343.83c3.45,8.13,5,23.77,5,23.77S162.13,357,157,346.81c-4-7.82-8.59-15.43-10.56-17.43C146.39,329.38,158.15,335.7,161.59,343.83Z"/></g><path id="Tracé_3177-2" data-name="Tracé 3177" class="cls-8" d="M144.43,351c-.88,13.19-14.63,28.53-14.63,28.53s4.06-17.18,13.94-28.5Z"/><path id="Tracé_3178-2" data-name="Tracé 3178" class="cls-8" d="M167,327.36s-20.88-24.61-29.08-28.11c0,0,12.39,3.61,18.72,8.57S167,327.36,167,327.36Z"/><path id="Tracé_3179-2" data-name="Tracé 3179" class="cls-8" d="M133.52,299.43l.54.7c-4,5.44-13.4,25-13.4,25s-.17-11.46,3.2-16.74S133.52,299.43,133.52,299.43Z"/><path id="Tracé_3180-2" data-name="Tracé 3180" class="cls-8" d="M144.16,334.85s-3.43,8.56-9,11.42a37.26,37.26,0,0,1-9.35,3.55s4.27-9.77,6.66-11.35,11.62-4.88,11.62-4.88Z"/><path id="Tracé_3181-2" data-name="Tracé 3181" class="cls-8" d="M125.83,349.82s4.27-9.77,6.66-11.35,11.62-4.87,11.62-4.87l0,.76a71.81,71.81,0,0,0-9.19,6.9C130.86,344.94,127.27,349.59,125.83,349.82Z"/></g><g id="plante-3" data-name="plante"><path id="Tracé_3169-3" data-name="Tracé 3169" class="cls-8" d="M49.05,324.44S61.18,330.39,59.89,376l2.84-.12S65.92,344,54,324.22Z"/><path id="Tracé_3170-3" data-name="Tracé 3170" class="cls-8" d="M57.65,332.26a86.74,86.74,0,0,0,9.45,11.16c4.67,4.39,16,8.92,16,8.92s-4-14.57-10.36-19.54S54,324.22,54,324.22Z"/><path id="Tracé_3171-3" data-name="Tracé 3171" class="cls-8" d="M51.74,327.1a27.94,27.94,0,0,1-3.94,12.09c-3.58,5.56-11,10.9-11,10.9s-.17-11.46,3.2-16.74,9.66-8.94,9.66-8.94Z"/><path id="Tracé_3172-3" data-name="Tracé 3172" class="cls-8" d="M62.73,375.91s5.75,9.18,7.72,16.85S72,416.94,72,416.94s-8.67-9.89-9.72-18.91-1-22.06-1-22.06Z"/><path id="Tracé_3173-3" data-name="Tracé 3173" class="cls-8" d="M70.45,392.76c1.73,6.74,1.61,20.34,1.56,23.5l-.14.53-.09-.11c-.69-3.32-7.76-37.54-9.82-40.74l.76,0,1,1.73C65.5,380.66,69,387.11,70.45,392.76Z"/><path id="Tracé_3174-3" data-name="Tracé 3174" class="cls-8" d="M59.89,376C50,387.35,46,404.53,46,404.53A34.94,34.94,0,0,0,58.36,396c5.1-5.79,3-20,3-20Z"/><g id="Groupe_724-3" data-name="Groupe 724"><path id="Tracé_3175-3" data-name="Tracé 3175" class="cls-8" d="M62.54,354.36s11.76,6.31,15.2,14.45,5,23.77,5,23.77-10.91-5.53-15.11-15-5-13-5-13Z"/><path id="Tracé_3176-3" data-name="Tracé 3176" class="cls-8" d="M77.74,368.81c3.45,8.13,5,23.77,5,23.77S78.28,382,73.1,371.79c-4-7.83-8.59-15.44-10.56-17.43C62.54,354.36,74.3,360.67,77.74,368.81Z"/></g><path id="Tracé_3177-3" data-name="Tracé 3177" class="cls-8" d="M60.58,376C59.7,389.18,46,404.53,46,404.53S50,387.35,59.89,376Z"/><path id="Tracé_3178-3" data-name="Tracé 3178" class="cls-8" d="M83.11,352.34S62.23,327.73,54,324.22c0,0,12.39,3.61,18.72,8.58S83.11,352.34,83.11,352.34Z"/><path id="Tracé_3179-3" data-name="Tracé 3179" class="cls-8" d="M49.67,324.41l.54.7c-4,5.44-13.4,25-13.4,25s-.17-11.47,3.2-16.75S49.67,324.41,49.67,324.41Z"/><path id="Tracé_3180-3" data-name="Tracé 3180" class="cls-8" d="M60.31,359.83s-3.43,8.56-9,11.42A37.26,37.26,0,0,1,42,374.8s4.27-9.78,6.66-11.35,11.62-4.88,11.62-4.88Z"/><path id="Tracé_3181-3" data-name="Tracé 3181" class="cls-8" d="M42,374.8s4.27-9.77,6.66-11.35,11.62-4.88,11.62-4.88l0,.77a71.81,71.81,0,0,0-9.19,6.9C47,369.92,43.42,374.57,42,374.8Z"/></g><g id="Groupe_725" data-name="Groupe 725"><path id="Tracé_3182" data-name="Tracé 3182" class="cls-8" d="M212.18,234.53a164.28,164.28,0,0,1,4.13,16.78c.57,2.82,1,5.67,1.51,8.51.24,1.42.42,2.85.62,4.28s.4,2.85.56,4.29c.7,5.72,1.09,11.48,1.29,17.25,0,1.45.06,2.89.07,4.33s0,2.88-.06,4.32l-.07,2.17c0,.72-.08,1.43-.13,2.16-.1,1.44-.21,2.87-.34,4.31-.1-1.44-.18-2.88-.25-4.32,0-.71-.06-1.43-.11-2.15l-.16-2.15c-.1-1.43-.16-2.86-.28-4.29s-.23-2.86-.35-4.28c-.5-5.71-1.05-11.41-1.74-17.1-.15-1.43-.33-2.85-.51-4.27s-.36-2.84-.55-4.26-.36-2.85-.56-4.27-.39-2.84-.59-4.26C213.86,245.91,213,240.23,212.18,234.53Z"/><path id="Tracé_3183" data-name="Tracé 3183" class="cls-8" d="M215.89,253.88a31.45,31.45,0,0,1,18.91,7c8.75,7.24,8.21,12.3,5.9,15.18s-8.16,3.06-13.29-3S215.89,253.88,215.89,253.88Z"/><path id="Tracé_3184" data-name="Tracé 3184" class="cls-8" d="M213.37,238.2a31.46,31.46,0,0,1,20.14,1.05C244,243.54,245,248.53,243.68,252s-6.88,5.36-13.59,1.1S213.37,238.2,213.37,238.2Z"/><path id="Tracé_3185" data-name="Tracé 3185" class="cls-8" d="M219.07,283.27a16.37,16.37,0,0,1,9.84,3.65c4.56,3.77,4.27,6.4,3.07,7.9s-4.24,1.6-6.91-1.56S219.07,283.27,219.07,283.27Z"/><path id="Tracé_3186" data-name="Tracé 3186" class="cls-8" d="M215.89,254.37a10.23,10.23,0,0,1-2.17.66,45.68,45.68,0,0,0-5.3,2.11A27.74,27.74,0,0,0,195,270.35c-1.07,2.08-2.26,4.66-1.53,7,.87,2.87,4.13,4.17,6.9,3.62,6.29-1.28,8.75-7.79,10.77-13.11,1.66-4.36,3.17-8.78,4.61-13.21Z"/><path id="Tracé_3187" data-name="Tracé 3187" class="cls-8" d="M213.1,239.23a10.54,10.54,0,0,1-2.25.25,48.83,48.83,0,0,0-5.61,1.12,27.69,27.69,0,0,0-15.54,10.57c-1.44,1.85-3.07,4.17-2.79,6.64.34,3,3.31,4.86,6.13,4.81,6.42-.11,10-6.07,13-10.93,2.43-4,4.72-8.06,6.93-12.17Z"/><path id="Tracé_3188" data-name="Tracé 3188" class="cls-8" d="M219,278.71a6.92,6.92,0,0,1-1.33.41,27.46,27.46,0,0,0-3.25,1.29,17,17,0,0,0-8.18,8.08c-.65,1.27-1.38,2.85-.94,4.31a3.62,3.62,0,0,0,4.22,2.21c3.85-.78,5.36-4.76,6.59-8,1-2.67,1.94-5.37,2.82-8.09Z"/></g><g id="Groupe_725-2" data-name="Groupe 725"><path id="Tracé_3182-2" data-name="Tracé 3182" class="cls-8" d="M303.49,208.72a163,163,0,0,1,4.13,16.78c.57,2.82,1,5.66,1.5,8.51.25,1.42.43,2.85.63,4.28s.4,2.85.56,4.28c.7,5.73,1.09,11.49,1.29,17.26,0,1.44.06,2.88.07,4.33s0,2.88-.06,4.32l-.07,2.16c0,.72-.08,1.44-.13,2.16-.1,1.44-.21,2.88-.34,4.31-.1-1.44-.18-2.87-.25-4.31-.05-.72-.06-1.43-.11-2.15l-.16-2.15c-.1-1.43-.16-2.86-.28-4.29s-.23-2.86-.35-4.29c-.5-5.71-1.05-11.4-1.74-17.1-.15-1.42-.33-2.84-.51-4.26s-.36-2.85-.55-4.27-.36-2.84-.56-4.26-.39-2.84-.59-4.26C305.17,220.09,304.33,214.42,303.49,208.72Z"/><path id="Tracé_3183-2" data-name="Tracé 3183" class="cls-8" d="M307.2,228.07a31.41,31.41,0,0,1,18.91,7c8.75,7.23,8.21,12.29,5.9,15.17s-8.16,3.07-13.29-3S307.2,228.07,307.2,228.07Z"/><path id="Tracé_3184-2" data-name="Tracé 3184" class="cls-8" d="M304.68,212.39a31.39,31.39,0,0,1,20.14,1c10.51,4.3,11.5,9.29,10.17,12.72s-6.88,5.37-13.59,1.1S304.68,212.39,304.68,212.39Z"/><path id="Tracé_3185-2" data-name="Tracé 3185" class="cls-8" d="M310.38,257.46a16.31,16.31,0,0,1,9.84,3.65c4.56,3.77,4.27,6.4,3.07,7.9s-4.24,1.6-6.91-1.56S310.38,257.46,310.38,257.46Z"/><path id="Tracé_3186-2" data-name="Tracé 3186" class="cls-8" d="M307.2,228.56a10.23,10.23,0,0,1-2.17.65,48.54,48.54,0,0,0-5.31,2.12,27.68,27.68,0,0,0-13.37,13.21c-1.07,2.08-2.26,4.66-1.54,7,.88,2.87,4.14,4.17,6.91,3.61,6.29-1.27,8.75-7.78,10.77-13.1,1.66-4.36,3.17-8.78,4.61-13.22Z"/><path id="Tracé_3187-2" data-name="Tracé 3187" class="cls-8" d="M304.41,213.42a10.54,10.54,0,0,1-2.25.25,46.79,46.79,0,0,0-5.61,1.12A27.67,27.67,0,0,0,281,225.35c-1.44,1.85-3.07,4.18-2.79,6.65.33,3,3.31,4.85,6.13,4.8,6.42-.11,10-6.06,13-10.93,2.43-4,4.71-8.06,6.93-12.16Z"/><path id="Tracé_3188-2" data-name="Tracé 3188" class="cls-8" d="M310.35,252.9a6.28,6.28,0,0,1-1.33.4,29.35,29.35,0,0,0-3.25,1.3,17,17,0,0,0-8.18,8.08c-.65,1.27-1.38,2.85-.94,4.31a3.61,3.61,0,0,0,4.22,2.21c3.85-.78,5.36-4.77,6.59-8,1-2.66,1.94-5.37,2.82-8.08Z"/></g><g id="Groupe_725-3" data-name="Groupe 725"><path id="Tracé_3182-3" data-name="Tracé 3182" class="cls-8" d="M181.85,279.13A164.28,164.28,0,0,1,186,295.91c.57,2.82,1,5.67,1.51,8.51.24,1.42.42,2.85.62,4.28s.4,2.86.56,4.29c.7,5.72,1.09,11.49,1.29,17.25,0,1.45.06,2.89.08,4.33s0,2.89-.07,4.33l-.07,2.16c0,.72-.08,1.44-.13,2.16-.1,1.44-.2,2.87-.34,4.31-.1-1.44-.18-2.88-.25-4.31-.05-.72-.06-1.44-.11-2.16l-.15-2.15c-.11-1.43-.17-2.86-.29-4.29s-.23-2.85-.34-4.28c-.51-5.71-1.06-11.41-1.75-17.1-.14-1.43-.33-2.85-.51-4.27s-.36-2.84-.55-4.26-.35-2.85-.56-4.26-.39-2.84-.59-4.27C183.53,290.51,182.69,284.83,181.85,279.13Z"/><path id="Tracé_3183-3" data-name="Tracé 3183" class="cls-8" d="M185.57,298.48a31.44,31.44,0,0,1,18.9,7c8.76,7.24,8.21,12.3,5.91,15.18s-8.17,3.06-13.3-3S185.57,298.48,185.57,298.48Z"/><path id="Tracé_3184-3" data-name="Tracé 3184" class="cls-8" d="M183,282.8a31.46,31.46,0,0,1,20.14,1.05c10.52,4.29,11.51,9.28,10.17,12.72s-6.88,5.36-13.59,1.1S183,282.8,183,282.8Z"/><path id="Tracé_3185-3" data-name="Tracé 3185" class="cls-8" d="M188.74,327.87a16.41,16.41,0,0,1,9.84,3.65c4.56,3.77,4.27,6.41,3.08,7.91s-4.25,1.59-6.92-1.57S188.74,327.87,188.74,327.87Z"/><path id="Tracé_3186-3" data-name="Tracé 3186" class="cls-8" d="M185.56,299a10.13,10.13,0,0,1-2.16.66,45.83,45.83,0,0,0-5.31,2.11A27.74,27.74,0,0,0,164.71,315c-1.07,2.08-2.26,4.67-1.53,7,.87,2.87,4.13,4.18,6.9,3.62,6.29-1.28,8.75-7.79,10.77-13.1,1.66-4.37,3.18-8.79,4.61-13.22Z"/><path id="Tracé_3187-3" data-name="Tracé 3187" class="cls-8" d="M182.77,283.83a9.94,9.94,0,0,1-2.25.25,48.25,48.25,0,0,0-5.6,1.12,27.71,27.71,0,0,0-15.55,10.57c-1.43,1.85-3.07,4.17-2.79,6.64.34,3,3.31,4.86,6.13,4.81,6.42-.11,10-6.07,13-10.93,2.43-4,4.72-8.06,6.94-12.17Z"/><path id="Tracé_3188-3" data-name="Tracé 3188" class="cls-8" d="M188.71,323.32a6.93,6.93,0,0,1-1.33.4,29.29,29.29,0,0,0-3.25,1.29,17,17,0,0,0-8.18,8.08c-.65,1.28-1.38,2.85-.94,4.31a3.62,3.62,0,0,0,4.22,2.21c3.85-.78,5.36-4.76,6.59-8,1-2.67,1.94-5.37,2.82-8.09Z"/></g><g id="Groupe_725-4" data-name="Groupe 725"><path id="Tracé_3182-4" data-name="Tracé 3182" class="cls-8" d="M91.6,310.11a164.28,164.28,0,0,1,4.13,16.78c.57,2.83,1,5.67,1.5,8.51.25,1.42.43,2.85.63,4.28s.4,2.86.56,4.29c.7,5.73,1.09,11.49,1.29,17.25,0,1.45.06,2.89.07,4.33s0,2.89-.06,4.33L99.65,372c0,.72-.08,1.44-.13,2.16-.1,1.44-.21,2.87-.34,4.31-.11-1.44-.18-2.88-.25-4.31-.05-.72-.06-1.44-.11-2.15l-.16-2.15c-.1-1.44-.16-2.87-.28-4.3s-.23-2.85-.35-4.28c-.5-5.71-1-11.41-1.74-17.1-.15-1.43-.33-2.85-.51-4.27s-.36-2.84-.55-4.26-.36-2.84-.56-4.26-.39-2.84-.59-4.26C93.28,321.49,92.44,315.81,91.6,310.11Z"/><path id="Tracé_3183-4" data-name="Tracé 3183" class="cls-8" d="M95.31,329.47a31.4,31.4,0,0,1,18.91,7c8.75,7.24,8.21,12.3,5.9,15.18s-8.16,3.07-13.29-3S95.31,329.47,95.31,329.47Z"/><path id="Tracé_3184-4" data-name="Tracé 3184" class="cls-8" d="M92.79,313.78a31.46,31.46,0,0,1,20.14,1.05c10.51,4.29,11.5,9.28,10.17,12.72s-6.88,5.37-13.59,1.1S92.79,313.78,92.79,313.78Z"/><path id="Tracé_3185-4" data-name="Tracé 3185" class="cls-8" d="M98.49,358.85a16.44,16.44,0,0,1,9.84,3.65c4.56,3.77,4.27,6.41,3.07,7.91s-4.24,1.59-6.91-1.57S98.49,358.85,98.49,358.85Z"/><path id="Tracé_3186-4" data-name="Tracé 3186" class="cls-8" d="M95.31,330a10.23,10.23,0,0,1-2.17.66,48.47,48.47,0,0,0-5.31,2.11,27.74,27.74,0,0,0-13.37,13.22c-1.07,2.07-2.26,4.66-1.54,7,.88,2.87,4.14,4.18,6.91,3.62,6.29-1.27,8.75-7.79,10.77-13.1,1.66-4.36,3.17-8.78,4.61-13.22Z"/><path id="Tracé_3187-4" data-name="Tracé 3187" class="cls-8" d="M92.52,314.82a10.56,10.56,0,0,1-2.25.24,48.83,48.83,0,0,0-5.61,1.12,27.69,27.69,0,0,0-15.54,10.57c-1.44,1.85-3.07,4.17-2.79,6.65.33,3,3.31,4.85,6.13,4.8,6.42-.11,10-6.07,13-10.93,2.43-4,4.71-8.06,6.93-12.16Z"/><path id="Tracé_3188-4" data-name="Tracé 3188" class="cls-8" d="M98.46,354.3a6.93,6.93,0,0,1-1.33.4A29.29,29.29,0,0,0,93.88,356a17,17,0,0,0-8.18,8.08c-.65,1.28-1.38,2.85-.94,4.31A3.6,3.6,0,0,0,89,370.59c3.85-.78,5.35-4.76,6.59-8,1-2.67,1.94-5.37,2.82-8.09Z"/></g><path class="cls-10" d="M392.23,186c-8.17-18.37-29.39-49.7-81.23-60.85-64.09-13.77-101.34,10.46-115.07,22.78a91.64,91.64,0,0,0-32.31,69.91V258a91.43,91.43,0,0,0,19.78,56.9c.16,8.83,13.31,34.61,5.9,50.88-7.06,15.5-17.59,23.81,15.7,47.39s37.12,37.37,34.43,41.6c-11.47,18.08-5.3,27.33,7.27,34.83C275.88,507,270.25,512.88,287,527.7c14,12.34,2.51-13.64,2.44-29.47,0-8.2-14-12.65-18.06-23.55-3.45-9.25,6.17-25.18-3.82-31.55-9.36-6-31.7-52.24-.79-66.62s83.92-35.18,83.92-35.18,12.28-3.75,11-12.71c-.57-4-3-8.8-6.06-13.72,0,0,17.67-35.41,17.67-56.9V224.84c4.52-9.07,9.42-15,13.58-18.69C393.24,200.45,395.33,192.92,392.23,186Z"/><path class="cls-11" d="M231.83,350.49c0-9.27-15.56-24.7-17.94-27-5.66-4.91-8.91-10.6-8.91-16.68,0-18.45,29.82-33.41,66.6-33.41s66.59,15,66.59,33.41c0,9.41-7.76,17.9-20.23,24-15.44,8.93-42.83,20.48-52.19,26.58-13.78,9-23.82,20.35-30.21,28-14.58,17.44,21,52.27,22.79,60.21,1.72,7.48-1.86,18.6-.27,23.08S273.7,492,273.7,492s-23.85-13.73-24.91-24.29,8.48-19.54-12.72-39.61-33.39-25.36-23.85-41.73S231.83,360.52,231.83,350.49Z"/><ellipse class="cls-12" cx="228.44" cy="279.73" rx="39.41" ry="22.59" transform="translate(-56.31 57.58) rotate(-12.8)"/><ellipse class="cls-12" cx="312.07" cy="279.73" rx="22.59" ry="39.41" transform="translate(-22.22 532.5) rotate(-78.97)"/><ellipse class="cls-12" cx="241.22" cy="295.54" rx="15.48" ry="28.05"/><ellipse class="cls-12" cx="272.7" cy="294.93" rx="15.48" ry="28.05"/><ellipse class="cls-12" cx="302.08" cy="293.44" rx="15.48" ry="28.05"/><path class="cls-12" d="M270.68,216.1A84.64,84.64,0,0,1,199.91,178a88,88,0,0,0-14,47.93c0,47.84,37.63,86.62,84.06,86.62S354,273.72,354,225.88a88.06,88.06,0,0,0-13.48-47A83.94,83.94,0,0,1,270.68,216.1Z"/><path class="cls-13" d="M270.68,216.1a83.94,83.94,0,0,0,69.82-37.24c-15-23.82-41-39.59-70.58-39.59-29.22,0-55,15.36-70,38.68A84.64,84.64,0,0,0,270.68,216.1Z"/><ellipse class="cls-14" cx="266.88" cy="275.34" rx="10.1" ry="5.85" transform="translate(-116.46 284.6) rotate(-47.28)"/><ellipse class="cls-14" cx="274.85" cy="274.98" rx="5.85" ry="10.1" transform="translate(-113.64 290.34) rotate(-47.28)"/><ellipse class="cls-13" cx="228.94" cy="254.02" rx="21.46" ry="23.74" transform="translate(-82.31 395.67) rotate(-72.44)"/><ellipse class="cls-13" cx="314.53" cy="254.02" rx="23.74" ry="21.46" transform="translate(-70.22 129.84) rotate(-21.04)"/><ellipse class="cls-14" cx="229.14" cy="254.38" rx="14.51" ry="16.05" transform="translate(-82.5 396.12) rotate(-72.44)"/><ellipse class="cls-14" cx="314.47" cy="254.42" rx="16.05" ry="14.51" transform="translate(-17.65 23.51) rotate(-4.17)"/><ellipse class="cls-15" cx="310.65" cy="172.72" rx="11.39" ry="16.56" transform="translate(-37.37 244.96) rotate(-40.8)"/><path class="cls-16" d="M388,383.09c-4.27-9.68-15.45-26.18-42.76-32-33.75-7.27-53.41,5.48-60.61,12a48.3,48.3,0,0,0-17,36.83V421a48.46,48.46,0,0,0,10.43,30c.07,4.65,26.18,20,22.28,28.51-3.75,8.17-3,14.25,5.85,27.6,11.85,17.93-3.15,25.06,3.53,29,15.37,9.16,4.72,19.81,13.57,27.61,7.35,6.53,1.35-7.2,1.28-15.53,0-4.35,2-7.35-.15-13-1.8-4.88,3.22-13.28-2-16.58-4.95-3.15,1.43-26,14.86-38a198.08,198.08,0,0,1,23.55-18.45s10.35-2.63,7.95-11.18c0,0,9.3-18.68,9.3-30V403.57a33.1,33.1,0,0,1,7.13-9.83C388.48,390.74,389.6,386.76,388,383.09Z"/><path class="cls-17" d="M303.48,469.73c0-4.88-8.17-13-9.45-14.25-3-2.55-4.65-5.55-4.65-8.78,0-9.75,15.68-17.63,35.11-17.63S359.6,437,359.6,446.7c0,4.95-4.05,9.45-10.66,12.6-8.1,4.73-11.55,13.58-16.5,16.81-7.28,4.72-9.83,12.3-13.2,16.35-7.65,9.15-4,16.05-2.55,20.1s1.35,12,1.72,14.93c.38,3.08,3.6,12.38,3.6,12.38s-6-3.68-6.52-9.23.75-6.22-4.58-20.63c-4.05-10.8-7.35-14.77-2.32-23.4S303.48,475,303.48,469.73Z"/><ellipse class="cls-12" cx="301.72" cy="432.52" rx="20.78" ry="11.93" transform="translate(-88.31 77.57) rotate(-12.8)"/><ellipse class="cls-12" cx="345.63" cy="432.54" rx="11.93" ry="20.78" transform="translate(-145.04 689.04) rotate(-78.97)"/><ellipse class="cls-12" cx="308.43" cy="440.77" rx="8.18" ry="14.78"/><ellipse class="cls-12" cx="325.01" cy="440.47" rx="8.18" ry="14.78"/><ellipse class="cls-12" cx="340.47" cy="439.72" rx="8.18" ry="14.78"/><path class="cls-12" d="M324.49,365.83c-15,0-29.56,25.58-37.81,13.06a46.27,46.27,0,0,0-7.43,25.28c0,25.2,19.81,45.61,44.26,45.61s44.26-20.41,44.26-45.61a46.6,46.6,0,0,0-7.12-24.76C352.47,391.64,339.27,365.83,324.49,365.83Z"/><path class="cls-13" d="M324,399a44.21,44.21,0,0,0,36.76-19.58,43.53,43.53,0,0,0-59.86-14.48,44.19,44.19,0,0,0-14.18,14A44.71,44.71,0,0,0,324,399Z"/><ellipse class="cls-18" cx="321.96" cy="430.13" rx="5.33" ry="3.08" transform="translate(-212.47 374.88) rotate(-47.28)"/><ellipse class="cls-18" cx="326.13" cy="429.88" rx="3.08" ry="5.33" transform="translate(-210.95 377.86) rotate(-47.28)"/><ellipse class="cls-13" cx="302.07" cy="418.92" rx="11.33" ry="12.53" transform="translate(-188.46 580.52) rotate(-72.44)"/><ellipse class="cls-13" cx="346.95" cy="418.87" rx="12.53" ry="11.33" transform="translate(-127.25 152.48) rotate(-21.04)"/><ellipse class="cls-18" cx="302.11" cy="419.2" rx="7.65" ry="8.48" transform="translate(-188.71 580.76) rotate(-72.44)"/><ellipse class="cls-18" cx="347.27" cy="419.02" rx="8.48" ry="7.65" transform="translate(-29.55 26.36) rotate(-4.17)"/><ellipse class="cls-15" cx="345.03" cy="376.11" rx="6" ry="8.7" transform="translate(-161.91 316.84) rotate(-40.8)"/></g></svg>