<svg xmlns="http://www.w3.org/2000/svg" viewBox="0 0 112.18 110.88"><defs><style>.cls-1{fill:#fff;}</style></defs><title>fond2Plan de travail 34</title><g id="Calque_2" data-name="Calque 2"><path class="cls-1" d="M84.36,53.38A30,30,0,0,1,70,66.41c-13.41,6-30.36,2.2-41.08-9.1-7.4-7.8-11.12-17-10.37-27.84a24.68,24.68,0,0,1,7-14.89c-4.07,18.93,3.07,32.6,19.35,41.64C58.41,63.75,71.68,63,84.36,53.38Z"/><path class="cls-1" d="M86.62,35.07c-4.71,9.54-14.49,13.19-24.06,12.18a27,27,0,0,1-23.47-21A20.06,20.06,0,0,1,43.18,8.65c-2.53,16.28,4.89,26.19,18.91,31.67C71,43.78,79.15,41.88,86.62,35.07Z"/><path class="cls-1" d="M34.87,94l2,.34L36,98c-4.54,0-9,.13-13.41,0-2.73-.11-4.62-2.27-4.94-5.13a15.86,15.86,0,0,1,3-11.46A10.66,10.66,0,0,1,33.3,78.42,7.28,7.28,0,0,1,37,86.86C36.38,89.23,35.59,91.54,34.87,94Zm-7.62.15c3,0,3,0,3.83-2.85.39-1.4.74-2.8,1.08-4.22.65-2.67,0-4.31-2.06-5.07-2.25-.85-5.09,0-5.93,2.21a34.35,34.35,0,0,0-1.7,6.67c-.3,1.72.81,2.72,2.42,3.08A14.18,14.18,0,0,0,27.25,94.11Z"/><path class="cls-1" d="M69.93,91.6c-3.18,0-6-.06-8.87,0-.6,0-1.19.6-1.78.93.57.51,1.09,1.42,1.72,1.49,2.55.28,5.13.31,7.94.45L68.18,98c-3.32,0-6.57.15-9.79,0a3.7,3.7,0,0,1-3.62-4.52,33.93,33.93,0,0,1,1.69-7.11C58,82.09,65,80,68.63,82.67a5.73,5.73,0,0,1,1.89,3.65C70.71,88,70.18,89.7,69.93,91.6Zm-9.72-3.72h5.84l.35-.7A7.87,7.87,0,0,0,64,85.58C62.29,85.16,61,86,60.21,87.88Z"/><path class="cls-1" d="M40.67,82.14H45c-.38,2-.76,3.8-1.07,5.65-.27,1.57-.49,3.14-.66,4.72-.12,1.14.41,1.74,1.64,1.6a7,7,0,0,1,1.59,0c1.18.12,1.74-.25,2-1.55.64-3.45,1.49-6.86,2.27-10.37h4.08c-1.11,5.29-2.2,10.49-3.32,15.81-3.2,0-6.31.13-9.41,0-2.31-.13-3.59-1.86-3.26-4.57C39.26,89.65,40,85.94,40.67,82.14Z"/><path class="cls-1" d="M58.18,4.79C55.92,17.54,70.73,29.3,83.08,23.55c-2.3,3.62-6.58,5.3-12.32,4.61-7.16-.86-11.8-5-14.3-11.59-1.52-4-1-7.82,1.72-11.78"/><path class="cls-1" d="M88.84,98H84.19c1.92-3.79-.33-7.16-.9-10.66,3.86-.68,4.27-.53,5.52,2.14,1.71-2.48,3.52-4.76,5-7.26,1.18-2,2.64-3,4.95-2.53a12.06,12.06,0,0,0,2,0C97,86.12,91.08,90.8,88.84,98Z"/><path class="cls-1" d="M71.09,98.05a6.4,6.4,0,0,1,0-.91l3.24-15c3.61,0,7.18-.12,10.73,0,2.08.1,2.27,1.81,2.31,3.71-2.73,0-5.37,0-8,0a1.64,1.64,0,0,0-2,1.59c-.51,2.87-1.33,5.68-1.74,8.55-.26,1.83-1.07,2.34-2.73,2.1A13.87,13.87,0,0,0,71.09,98.05Z"/><path class="cls-1" d="M4.44,104.46c.43-1.63-.21-3.79,2.65-4,.5,0,1.18-1.06,1.37-1.74.74-2.66,1.39-5.36,2-8.07.85-4,.88-4,5.31-3.52-.17,1-.29,1.9-.5,2.82-.74,3.22-1.44,6.46-2.27,9.65C11.73,104.38,9.56,105.6,4.44,104.46Z"/><path class="cls-1" d="M16.86,82.14c-.21,1.06-.37,1.9-.55,2.74a5.23,5.23,0,0,1-.34.76H11.62l.85-3.5Z"/></g></svg>