<svg xmlns="http://www.w3.org/2000/svg" viewBox="0 0 93.56 130.84"><defs><style>.cls-1{fill:#fff;}</style></defs><title>fond2Plan de travail 43</title><g id="Calque_2" data-name="Calque 2"><path class="cls-1" d="M45,27.9c12.5,0,25,0,37.48,0,2.19,0,2.88.4,2.65,2.85C82.94,53.79,80.94,76.89,78.9,100c-.25,2.76-.61,5.53-.67,8.3,0,1.87-.92,2.58-2.57,3q-14.67,4-29.3,8.14a6,6,0,0,1-3.42-.12c-9.56-2.67-19.12-5.34-28.69-7.93a3.16,3.16,0,0,1-2.72-3.26Q8.22,69.66,4.65,31.21c-.25-2.73.46-3.41,3.16-3.38C20.19,28,32.58,27.9,45,27.9Z"/><path d="M45.83,43.09c5.71,0,11.42,0,17.14,0,1.74,0,2.57.32,2.71,2.32.37,5.6.95,11.18,1.54,16.76.18,1.67-.38,2.12-2,2.19-7.84.36-7.91.42-8.42-7.62-.14-2.11-.79-2.86-2.94-2.9-5.29-.09-10.55-.69-15.87-.29-2.18.17-3.12.6-3.16,3a67.47,67.47,0,0,1-.88,9.93c-.37,2.21.32,2.66,2.35,2.64,9.35-.09,18.7,0,28.05-.15,2.63,0,3.09.82,2.84,3.21Q65.85,84.53,64.91,97c-.15,1.91-.82,2.85-2.64,3.12a19.79,19.79,0,0,0-2.1.57c-5.21,1.43-10.46,4.14-15.6,3.95-6.06-.22-12-3-18-4.59-1.45-.38-2.28-.92-2.37-2.66-.2-3.83-.63-7.66-1.05-11.48-.17-1.52.36-2.14,1.86-2,.52,0,1,0,1.56,0,5.88,0,6,0,6.72,5.63.23,1.72,1,2.34,2.55,2.94a23.46,23.46,0,0,0,17.53-.12c1.46-.56,2.19-1.13,2.24-2.78a50.55,50.55,0,0,1,.73-8.07c.45-2.3-.41-2.6-2.38-2.58-9.35,0-18.7-.06-28,0-2.09,0-3-.37-2.72-2.72Q24.77,60.85,26,45.48c.16-1.93.83-2.41,2.65-2.38,5.71.1,11.42,0,17.14,0Z"/><path class="cls-1" d="M52.18,9.1C54,11,55.24,12.6,56.7,14a3.36,3.36,0,0,1,1,3.87c-.49,1.19-1.91.55-2.9.58-2.51.08-5-.05-7.52,0-1.55.07-1.69-.68-1.72-1.94s.3-2,1.78-1.9a6,6,0,0,0,3.45-.39c-1.45-1.59-2.72-3.15-4.18-4.53A3.43,3.43,0,0,1,45.7,6c.43-1.37,1.85-.64,2.8-.68,2.51-.1,5,0,7.52-.06,1.42,0,1.6.67,1.6,1.81s-.06,2.15-1.66,2C54.93,9,53.88,9.1,52.18,9.1Z"/><path class="cls-1" d="M43.65,11.84c0,6.59,0,6.59-6.71,6.59a19.28,19.28,0,0,0-2.15,0c-1.73.2-1.89-.81-1.82-2.14s-.27-2.43,1.79-2.47c4.33-.07,4.32-.19,4.32-4.6a13,13,0,0,0,0-1.87c-.3-2,.83-2.11,2.39-2.11s2.4.2,2.22,2C43.54,8.78,43.65,10.32,43.65,11.84Z"/></g></svg>