<?xml version="1.0" encoding="utf-8"?>
<!-- Generator: Adobe Illustrator 24.0.1, SVG Export Plug-In . SVG Version: 6.00 Build 0)  -->
<svg version="1.1" id="Calque_1" xmlns="http://www.w3.org/2000/svg" xmlns:xlink="http://www.w3.org/1999/xlink" x="0px" y="0px"
	 viewBox="0 0 44.7 50.3" style="enable-background:new 0 0 44.7 50.3;" xml:space="preserve">
<style type="text/css">
	.st0{fill:#FFFFFF;}
</style>
<title>fond2Plan de travail 67</title>
<g id="Calque_2_1_">
	<path id="LinkedIn" class="st0" d="M38.9,28.5v12.4h-7.2V29.3c0-2.9-1-4.9-3.6-4.9c-1.7,0-3.1,1.1-3.7,2.6
		c-0.2,0.6-0.3,1.2-0.2,1.8v12.1h-7.2c0,0,0.1-19.6,0-21.7h7.2v3.1l0,0.1h0v-0.1c1.3-2.3,3.8-3.7,6.5-3.6
		C35.3,18.7,38.9,21.8,38.9,28.5z M9.4,8.8c-2.1-0.1-3.8,1.4-4,3.5s1.4,3.8,3.5,4c0.1,0,0.3,0,0.4,0h0c2.1,0.2,3.9-1.3,4.1-3.4
		S12.1,9,10,8.8C9.8,8.8,9.5,8.8,9.4,8.8L9.4,8.8z M5.7,40.9h7.2V19.3H5.7V40.9z"/>
</g>
</svg>
