<?xml version="1.0" encoding="utf-8"?>
<!-- Generator: Adobe Illustrator 24.0.1, SVG Export Plug-In . SVG Version: 6.00 Build 0)  -->
<svg version="1.1" id="Calque_1" xmlns="http://www.w3.org/2000/svg" xmlns:xlink="http://www.w3.org/1999/xlink" x="0px" y="0px"
	 viewBox="0 0 33.1 39.1" style="enable-background:new 0 0 33.1 39.1;" xml:space="preserve">
<style type="text/css">
	.st0{fill:#FFFFFF;}
</style>
<title>fond2Plan de travail 62</title>
<g id="Calque_2_1_">
	<path class="st0" d="M14.9,38.7C3.7,22.4,1.7,20.8,1.7,14.8C1.7,6.6,8.3,0,16.5,0s14.8,6.6,14.8,14.8c0,6-2.1,7.6-13.3,23.9
		c-0.6,0.8-1.8,1-2.6,0.4C15.2,39,15.1,38.8,14.9,38.7L14.9,38.7z M16.5,21c3.4,0,6.2-2.8,6.2-6.2s-2.8-6.2-6.2-6.2
		s-6.2,2.8-6.2,6.2l0,0C10.3,18.2,13.1,20.9,16.5,21z"/>
</g>
</svg>
