<?xml version="1.0" encoding="utf-8"?>
<!-- Generator: Adobe Illustrator 24.0.1, SVG Export Plug-In . SVG Version: 6.00 Build 0)  -->
<svg version="1.1" id="Calque_1" xmlns="http://www.w3.org/2000/svg" xmlns:xlink="http://www.w3.org/1999/xlink" x="0px" y="0px"
	 viewBox="0 0 31.3 46.3" style="enable-background:new 0 0 31.3 46.3;" xml:space="preserve">
<style type="text/css">
	.st0{fill:#FFFFFF;}
</style>
<title>fond2Plan de travail 63</title>
<g id="Calque_2_1_">
	<path class="st0" d="M24.4,2.9H6.5c-2.1,0-3.8,1.7-3.8,3.8v33.2c0,2.1,1.7,3.8,3.8,3.8c0,0,0,0,0,0h17.8c2.1,0,3.8-1.7,3.9-3.8
		c0,0,0,0,0-0.1V6.7C28.2,4.5,26.5,2.8,24.4,2.9C24.4,2.9,24.4,2.9,24.4,2.9z M19.2,38.9c0,0.6-0.4,1-1,1h-5.7c-0.5,0-1-0.5-1-1
		v-0.6c0-0.5,0.4-1,1-1h5.7c0.6,0,1,0.4,1,1L19.2,38.9z M24.3,32.5c0,0.6-0.4,1-1,1H7.5c-0.6,0-1-0.4-1-1V7.7c0-0.6,0.4-1,1-1h15.9
		c0.6,0,1,0.4,1,1L24.3,32.5z"/>
</g>
</svg>
