<svg xmlns="http://www.w3.org/2000/svg" viewBox="0 0 115.58 123.97"><defs><style>.cls-1{fill:#fff;}</style></defs><title>fond2Plan de travail 35</title><g id="Calque_2" data-name="Calque 2"><path class="cls-1" d="M16.81,37.6a72.25,72.25,0,0,1,1.73-15.32c1-4.29,3.54-7,7.43-8.8A57.93,57.93,0,0,1,42,8.8,101.21,101.21,0,0,1,60.66,7.61,94.44,94.44,0,0,1,77.25,9.43a55.68,55.68,0,0,1,12.83,4.42,12.21,12.21,0,0,1,6.75,8.6,63.85,63.85,0,0,1,1.71,15.81,67.38,67.38,0,0,1-1.75,15.25,53.88,53.88,0,0,1-4.65,12.83,68.06,68.06,0,0,1-15.91,19.6A71.49,71.49,0,0,1,58.91,97a2.86,2.86,0,0,1-2.61,0A72.91,72.91,0,0,1,32.81,79.9a59,59,0,0,1-11.4-17.23,63.13,63.13,0,0,1-4.13-16.75C16.94,43,17,40.1,16.81,37.6ZM59.43,14.12c-8.6,0-15.46.51-22.2,2.2a37.39,37.39,0,0,0-10.15,4,3.52,3.52,0,0,0-1.69,1.93,43.7,43.7,0,0,0-2.15,13.6,65,65,0,0,0,1.58,16A45.86,45.86,0,0,0,31.28,67.5,65.32,65.32,0,0,0,43.51,81.29,66.36,66.36,0,0,0,57,90.18a1.18,1.18,0,0,0,1.24.08c.63-.38,1.33-.65,2-1A68.22,68.22,0,0,0,82,70.43a46,46,0,0,0,7.93-16.06,64.94,64.94,0,0,0,2.14-18.72,52.69,52.69,0,0,0-1.61-12,5.65,5.65,0,0,0-2.9-3.78A40.65,40.65,0,0,0,76.86,16,79.4,79.4,0,0,0,59.43,14.12Z"/><path class="cls-1" d="M79.25,110c0-1.66,0-3.32,0-5a1.29,1.29,0,0,0-1.33-1.53c-.33,0-1,.11-.91-.51s.47-.67,1-.67c2.66,0,5.32-.07,8,0,4.6.18,7.59,4.57,6.4,9.27-1,3.73-3.89,5.86-8.4,6-2,.05-3.91,0-5.86-.08-.27,0-.69.12-.75-.27a.68.68,0,0,1,.61-.79c1.14-.12,1.31-.87,1.29-1.81C79.24,113.07,79.26,111.52,79.25,110Zm2.51-.54h0v2.43c0,.81,0,1.62,0,2.43a1.69,1.69,0,0,0,.94,1.73,5.48,5.48,0,0,0,5.7-1.27,8.08,8.08,0,0,0,.87-8c-1.15-2.28-3.5-3.43-6.51-3.23-.76,0-1,.35-1,1.09C81.79,106.18,81.76,107.8,81.76,109.43Z"/><path class="cls-1" d="M96.13,109.86c0-1.66,0-3.32,0-5,0-.9-.28-1.4-1.24-1.44-.33,0-.86,0-.83-.48s.45-.68,1-.68c2.29,0,4.58,0,6.86,0,2.81.12,4.45,2.25,3.62,4.56a3.29,3.29,0,0,1-1.2,1.55c-.48.33-.53.55.07.79a3.47,3.47,0,0,1,2.3,3.83,4.07,4.07,0,0,1-2.39,3.56,7.83,7.83,0,0,1-3.93,1c-1.84,0-3.69,0-5.53-.1-.3,0-.74.14-.79-.36a.62.62,0,0,1,.58-.7c1.5,0,1.54-1,1.5-2.14,0-1.48,0-3,0-4.43Zm2.43,2.71h0c0,.74,0,1.48,0,2.21a1.28,1.28,0,0,0,.72,1.28,3.93,3.93,0,0,0,3.72-.26,3,3,0,0,0,1.16-3.25,2.94,2.94,0,0,0-2.2-2.39,10.21,10.21,0,0,0-2.4-.33c-.77-.08-1.2.19-1.06,1.08A10.21,10.21,0,0,1,98.56,112.57Zm0-6.57h0c0,.22,0,.44,0,.66,0,2.28.08,2.27,2.35,2.12,2.46-.15,2.79-2.62,1.88-4.07a3.57,3.57,0,0,0-3.69-1.16c-1,.38-.32,1.41-.52,2.12A1.82,1.82,0,0,0,98.59,106Z"/><path class="cls-1" d="M12.82,108.67c.69-.37,1.34-.77,2-1.07a2.59,2.59,0,0,1,3.47.73c.39.44.63.51,1.07.14a5.32,5.32,0,0,1,.94-.59c2.66-1.44,4.93-.21,5.11,2.83a39.6,39.6,0,0,1,0,4.22c0,.83.16,1.36,1.06,1.49.29,0,.63.15.58.53s-.39.45-.75.45c-1.22,0-2.44,0-3.66,0-.26,0-.54,0-.62-.32s.12-.56.44-.63c.83-.18,1-.75,1-1.49,0-1.29,0-2.59,0-3.88A2.07,2.07,0,0,0,22,109a3,3,0,0,0-2.71.55c-.24.15-.24.42-.23.69,0,1.59.06,3.18,0,4.76,0,.79.17,1.29,1,1.43.31,0,.6.15.54.56s-.35.41-.67.41c-1.25,0-2.51,0-3.77,0-.32,0-.62-.05-.67-.41s.23-.54.55-.57c.86-.09,1.05-.64,1.06-1.39a34.8,34.8,0,0,0-.06-4.21,2,2,0,0,0-1.39-1.95,3,3,0,0,0-2.79.72c-.29.22-.25.59-.25.93,0,1.51,0,3,0,4.54,0,.73.16,1.23,1,1.34.3,0,.6.15.55.54s-.42.44-.75.43a26.3,26.3,0,0,0-3.66,0c-.34,0-.73,0-.78-.41s.3-.49.59-.53c.95-.14,1.14-.77,1.13-1.6,0-1.4-.05-2.81,0-4.21a1.53,1.53,0,0,0-1.23-1.79c-.24-.08-.69,0-.63-.45s.48-.27.74-.35c.52-.16,1.08-.24,1.61-.38C12.62,107.31,12.61,107.3,12.82,108.67Z"/><path class="cls-1" d="M63.57,107.58c.23,1-.07,1.63-1,1.73-.6.06-.68.26-.66.82a3.94,3.94,0,0,1-3.78,4.33,4.64,4.64,0,0,0-.65.11c-.33.09-.66.23-.63.65a.65.65,0,0,0,.59.58c.5.1,1,.12,1.53.17.81.09,1.63.15,2.43.29a2.54,2.54,0,0,1,2.07,3.29c-.58,2.27-3.13,3.68-4.94,3.91a5.1,5.1,0,0,1-3.42-.57c-1.93-1.15-2.15-2.91-.46-4.36.36-.3.84-.47,1.09-1-.2-.15-.42-.29-.61-.45-.92-.79-.9-1.26.14-1.91.59-.38,1.11-.57.08-1.18a3.48,3.48,0,0,1,0-5.8,5.09,5.09,0,0,1,4.76-.65A4,4,0,0,0,63.57,107.58Zm-5.18,10.25a6.14,6.14,0,0,0-1.18,0,2.27,2.27,0,0,0-1.85,1.7,1.89,1.89,0,0,0,1.07,2.1,4.42,4.42,0,0,0,4.41-.12,2,2,0,0,0,.84-2,1.69,1.69,0,0,0-1.41-1.37A7.77,7.77,0,0,0,58.39,117.83Zm1.52-7a2.43,2.43,0,0,0-1.36-2.44,1.73,1.73,0,0,0-2.06.26,2.72,2.72,0,0,0-.53,2.89,2.19,2.19,0,0,0,2.44,1.9C59.38,113.33,59.91,112.49,59.91,110.88Z"/><path class="cls-1" d="M44.39,113c0,.66,0,1.33,0,2s.11,1.4,1.07,1.46a.46.46,0,0,1,.47.6c0,.36-.25.48-.6.48h-4c-.3,0-.6,0-.67-.41a.5.5,0,0,1,.44-.65c1.11-.09,1.1-.86,1.1-1.67,0-1.3-.05-2.59,0-3.88.07-1-.21-1.64-1.22-1.9-.23-.06-.55-.12-.55-.45s.37-.42.64-.49c.85-.23,1.72-.41,2.56-.67.49-.16.73-.06.68.47-.08.87.28.73.79.37,1.23-.87,2.55-1.45,4-.64s1.71,2.3,1.73,3.82c0,1.22.08,2.44,0,3.66,0,.76.21,1.19,1,1.31.39.06.74.19.64.71s-.43.43-.78.42H48.11c-.32,0-.7.09-.77-.4s.22-.68.64-.72c.69-.08.79-.56.79-1.12,0-1.44,0-2.88-.08-4.32a2,2,0,0,0-2.18-2,1.94,1.94,0,0,0-2.16,2.17V113Z"/><path class="cls-1" d="M28.76,112.46a5.12,5.12,0,0,1,5.4-5.21,4.65,4.65,0,0,1,4.77,5,5.14,5.14,0,0,1-5.34,5.38C30.66,117.6,28.76,115.58,28.76,112.46Zm2.18-.72a5.26,5.26,0,0,0,1.4,4,2.59,2.59,0,0,0,2.63.73,2.34,2.34,0,0,0,1.63-2,7.31,7.31,0,0,0-.11-3.29,3.3,3.3,0,0,0-3.4-2.72C31.69,108.55,31,109.72,30.94,111.74Z"/><path class="cls-1" d="M70.21,107.26A4.62,4.62,0,0,1,75,112.14a5.19,5.19,0,0,1-5.39,5.47c-2.95,0-4.8-2.07-4.79-5.3A5.1,5.1,0,0,1,70.21,107.26Zm2.55,5.83a5.17,5.17,0,0,0-1.49-4,2.43,2.43,0,0,0-4,.82,5.91,5.91,0,0,0,.73,5.38,2.64,2.64,0,0,0,2.88,1.19,2.38,2.38,0,0,0,1.79-2.27C72.71,113.78,72.73,113.38,72.76,113.09Z"/><path class="cls-1" d="M71.84,44.94l0-.4-.2-.24v0a.28.28,0,0,0,0-.18l0-.46a.4.4,0,0,0-.17-.45,1.87,1.87,0,0,0-.24-1.09c0-.25,0-.5-.21-.67-.52-1.33-1-2.65-1.55-4,0,0,.08-.06.07-.07a.53.53,0,0,0-.08-.17l-.19-.45c.12-.48-.22-.78-.46-1.12h0a1.18,1.18,0,0,0-.46-.86,4.4,4.4,0,0,1-.3-.45,30.7,30.7,0,0,0-4-6.52c-2-2.39-4.43-4.4-5.86-7.24h0l0,17.31h0q0-8.66,0-17.31l-.18-.26c0-.13-.05-.27-.08-.4s.09-.47-.2-.6l-.18-.05,0,.1a6.4,6.4,0,0,1-2.49,3.51,22.17,22.17,0,0,0-4.84,5.64l-.24.26a.41.41,0,0,0-.21.4c-.37.2-.48.59-.67.92a20.69,20.69,0,0,0-2.87,5.54,23.49,23.49,0,0,0-2,6.42c-.59,1.23-.48,2.58-.73,3.87a28.2,28.2,0,0,0,.17,10.64,30.37,30.37,0,0,0,5.8,12.74,21.69,21.69,0,0,0,4.1,4.51,1.81,1.81,0,0,0,1,.92l.26.25c.45.43.77,1.05,1.5,1.08.25,1.06.64,2.08.85,3.17a24.59,24.59,0,0,1,.34,4.27c0,1,.88,1,1.49,1.11s.41-.65.4-1c-.11-2.64-.31-5.29.84-7.79a2.72,2.72,0,0,0,1.22-.72,26.28,26.28,0,0,0,4-4,30.31,30.31,0,0,0,5.43-9.66,32.71,32.71,0,0,0,1.61-8.09A31.77,31.77,0,0,0,71.84,44.94Zm-13.55-3.5h0c0-.6,0-1.19,0-1.78Zm0,3.55a43.61,43.61,0,0,0-.13,4.43A43.61,43.61,0,0,1,58.29,45a.85.85,0,0,0,.45,0A.85.85,0,0,1,58.29,45Z"/></g></svg>