<svg xmlns="http://www.w3.org/2000/svg" viewBox="0 0 155.83 102.69"><defs><style>.cls-1{fill:#fff;}</style></defs><title>fond2Plan de travail 36</title><g id="Calque_2" data-name="Calque 2"><path class="cls-1" d="M104.43,5.58a3.56,3.56,0,0,0,.95.58c2.2,1.25,4.42,2.48,6.64,3.72a3.68,3.68,0,0,1,1.06.7,1.55,1.55,0,0,1,.44,1.08v40a1.37,1.37,0,0,1-.68,1.23c-1.09.65-2.19,1.29-3.29,1.93l-4.19,2.41-3.84,2.22c-.75.43-1.53.82-2.24,1.3a2.21,2.21,0,0,1-2.59,0c-1.47-.88-3-1.72-4.45-2.58s-2.77-1.63-4.17-2.43-2.56-1.48-3.85-2.21c-.35-.2-.71-.38-1-.6a2,2,0,0,1-.75-1.7V36.08a5.66,5.66,0,0,1,.07-.81A1.61,1.61,0,0,1,83.37,34l6.78-3.94C92.1,29,94.06,27.86,96,26.74l1.21-.68a1.54,1.54,0,0,1,1.59,0c1.14.63,2.27,1.26,3.39,1.93a.68.68,0,0,0,.65.08.61.61,0,0,0,.26-.61q0-4.91,0-9.79c0-3.65,0-7.3,0-11a1.21,1.21,0,0,1,.55-1.14Zm-11.58,38c0,.86,0,1.72,0,2.58a.52.52,0,0,0,.3.52c.58.32,1.14.66,1.71,1l2.81,1.62a.53.53,0,0,0,.58,0l.64-.37c1.27-.73,2.53-1.49,3.81-2.2a.7.7,0,0,0,.42-.7c0-1.66,0-3.31,0-5a.63.63,0,0,0-.35-.63c-.73-.41-1.44-.85-2.16-1.27s-1.59-.9-2.39-1.35a.4.4,0,0,0-.43-.06l-4.62,2.67a.6.6,0,0,0-.32.6C92.86,41.84,92.85,42.69,92.85,43.54Z"/><path class="cls-1" d="M7,34.55c.42-.95,1.38-1.23,2.16-1.71,1.46-.88,2.94-1.71,4.41-2.56l3.89-2.22,4-2.31a1.8,1.8,0,0,1,2,0c1.45.84,2.91,1.66,4.36,2.49l4.87,2.83,4,2.26c.56.31,1.13.62,1.3,1.33a1.8,1.8,0,0,1,.05.46c0,7.07,0,14.14,0,21.21a.94.94,0,0,1-1.48.91c-1.53-.91-3.09-1.79-4.64-2.68-1.1-.63-2.18-1.28-3.29-1.87a1.82,1.82,0,0,1-1-1.7c0-3.16,0-6.32,0-9.48a2.07,2.07,0,0,0-1.19-2c-1-.55-2-1.14-3-1.71a1.64,1.64,0,0,0-1.78-.06c-1.15.67-2.31,1.31-3.46,2a1.78,1.78,0,0,0-.86,1.67c0,3.26,0,6.52,0,9.78a1.61,1.61,0,0,1-.89,1.51c-2.09,1.21-4.2,2.4-6.3,3.6l-1.7,1A1,1,0,0,1,7,56.86Z"/><path class="cls-1" d="M151.26,39.79c-.33.78-1.08,1.07-1.74,1.46q-2.06,1.22-4.13,2.41l-3.11,1.79a.91.91,0,0,1-1.43-.87c0-1.12,0-2.24,0-3.36a1.22,1.22,0,0,0-.69-1.29c-1.35-.73-2.67-1.51-4-2.27a.77.77,0,0,0-.84,0l-3.45,2a6.48,6.48,0,0,1-.67.39,1.07,1.07,0,0,0-.63,1.1q0,2.19,0,4.38a1.11,1.11,0,0,0,.6,1.07c1.55.86,3.09,1.76,4.62,2.65l4.49,2.59L144.18,54c.25.14.51.26.75.41a.88.88,0,0,1,0,1.56c-.81.48-1.63.93-2.45,1.39-1.83,1-3.68,2-5.5,3.07a2.13,2.13,0,0,1-2.36,0c-1-.63-2.11-1.22-3.17-1.83l-4.23-2.42-3.66-2.07c-.8-.45-1.61-.87-2.38-1.36a1.72,1.72,0,0,1-.83-1.53c0-5.16,0-10.31,0-15.46a2.22,2.22,0,0,1,1.27-2.18c1.86-1,3.68-2.12,5.52-3.18L133,27.05c.57-.33,1.14-.65,1.7-1a2.08,2.08,0,0,1,2.38,0c1.91,1.13,3.83,2.23,5.74,3.35l6,3.5c.41.24.82.48,1.25.7a2.81,2.81,0,0,1,1.22,1.12Z"/><path class="cls-1" d="M77.81,94a34.46,34.46,0,0,1-4.29-2.38c-.38-.2-.75-.43-1.11-.66-.11-.07-.24-.14-.23-.29s.16-.17.27-.2a8.64,8.64,0,0,0,1.88-.86c.23-.14.4,0,.58.08,1,.59,2,1.18,3,1.78a.66.66,0,0,0,.78,0Q85,87.79,91.32,84.16a.7.7,0,0,0,.39-.69q0-7.27,0-14.56a.76.76,0,0,0-.44-.75Q85,64.56,78.7,60.91a.74.74,0,0,0-.83,0q-6.27,3.65-12.56,7.25a.75.75,0,0,0-.44.74q0,7.29,0,14.57a.67.67,0,0,0,.39.68c1.08.6,2.15,1.23,3.22,1.86a3.62,3.62,0,0,0,1,.4,1.71,1.71,0,0,0,2.2-1.75c0-3.74,0-7.49,0-11.23V70.18c0-.54.11-.63.65-.63h1.33a.42.42,0,0,1,.47.45V84.8A5.4,5.4,0,0,1,74,86.19a3.46,3.46,0,0,1-3.53,2.69A6.33,6.33,0,0,1,67.16,88c-1.09-.6-2.17-1.23-3.25-1.87a2.71,2.71,0,0,1-1.41-2.49q0-7.44,0-14.88A2.75,2.75,0,0,1,64,66.2l12.8-7.39a2.81,2.81,0,0,1,3,0l12.87,7.44a2.73,2.73,0,0,1,1.44,2.51V83.66a2.68,2.68,0,0,1-1.38,2.43q-6.51,3.78-13,7.53c-.28.16-.6.22-.9.36Z"/><path class="cls-1" d="M75.64,43.36c0,2.55,0,5.09,0,7.63a1.92,1.92,0,0,1-1.11,1.89c-1.41.76-2.78,1.57-4.16,2.37l-4.1,2.38-4.77,2.73a2.69,2.69,0,0,1-1,.49,1.85,1.85,0,0,1-1.19-.25L45.73,52.77a1.74,1.74,0,0,1-.94-1.64V35.48a1.74,1.74,0,0,1,.91-1.62Q52.54,29.92,59.39,26a1.66,1.66,0,0,1,1.78.06q2.46,1.44,4.93,2.87c2.06,1.19,4.12,2.36,6.18,3.54.78.45,1.55.92,2.33,1.34a1.88,1.88,0,0,1,1,1.82c0,2.59,0,5.17,0,7.75Z"/><path class="cls-1" d="M82.11,69.15a8.59,8.59,0,0,1,4,.89,4.28,4.28,0,0,1,2.15,3.64.39.39,0,0,1-.44.47H86.29a.4.4,0,0,1-.45-.34,2.66,2.66,0,0,0-2.7-2.27,9.51,9.51,0,0,0-3.19.12A1.7,1.7,0,0,0,78.46,73a1,1,0,0,0,.72,1.3,10.08,10.08,0,0,0,2.09.49c1.42.23,2.85.34,4.24.7l.6.17a3.29,3.29,0,0,1,2.71,3.12,3.93,3.93,0,0,1-2.1,3.9,7.18,7.18,0,0,1-2.75.82,12.38,12.38,0,0,1-5.41-.43,4.22,4.22,0,0,1-3.15-3.82c-.07-.74,0-.87.75-.87.4,0,.81,0,1.21,0s.47.11.5.39a2.53,2.53,0,0,0,2.47,2.38A11,11,0,0,0,84.69,81a1.75,1.75,0,0,0,1.51-1.7,1.13,1.13,0,0,0-.83-1.26,7.77,7.77,0,0,0-1.84-.47c-1.45-.25-2.94-.27-4.37-.63A7.86,7.86,0,0,1,78,76.6a3.29,3.29,0,0,1-2.08-3.86,3.6,3.6,0,0,1,2.25-2.89A8.91,8.91,0,0,1,82.11,69.15Z"/><path class="cls-1" d="M138.81,43.23c0,.48,0,1,0,1.44a.43.43,0,0,1-.25.44c-.82.47-1.63.93-2.44,1.41a.51.51,0,0,1-.58,0l-2.43-1.41a.43.43,0,0,1-.25-.44c0-1,0-1.9,0-2.85a.49.49,0,0,1,.27-.47c.81-.46,1.61-.92,2.4-1.39a.56.56,0,0,1,.62,0c.79.47,1.58.92,2.37,1.37a.52.52,0,0,1,.3.53C138.8,42.32,138.81,42.77,138.81,43.23Z"/><path class="cls-1" d="M98.58,70.34a2.52,2.52,0,1,1,2.54-2.52A2.5,2.5,0,0,1,98.58,70.34Zm-2.07-2.52a2.09,2.09,0,0,0,2.06,2.11,2.11,2.11,0,1,0,0-4.21A2.1,2.1,0,0,0,96.51,67.82Z"/><path class="cls-1" d="M99.25,67.85c.42.34.28.86.39,1.3,0,.15-.18.08-.28.09s-.3,0-.32-.18S99,68.62,99,68.4s-.29-.26-.5-.27-.24.16-.24.33,0,.29,0,.43,0,.37-.3.37-.29-.16-.29-.37q0-1.08,0-2.16c0-.26.07-.34.33-.32a5.45,5.45,0,0,0,.7,0c.37,0,.72,0,.9.42A.85.85,0,0,1,99.25,67.85Zm-1.06-.63c0,.23-.07.47.3.44s.53-.08.54-.42-.22-.35-.48-.36S98.11,66.92,98.19,67.22Z"/></g></svg>