<svg xmlns="http://www.w3.org/2000/svg" xmlns:xlink="http://www.w3.org/1999/xlink" viewBox="0 0 107.42 120.56"><defs><style>.cls-1{fill:url(#Dégradé_sans_nom_66);}.cls-2{fill:#ffb11c;}.cls-3{fill:#ca3b13;}.cls-4{fill:#df590f;}</style><linearGradient id="Dégradé_sans_nom_66" x1="3.16" y1="53.98" x2="104.26" y2="53.98" gradientUnits="userSpaceOnUse"><stop offset="0" stop-color="#ca3b13"/><stop offset="0.11" stop-color="#d25116"/><stop offset="0.38" stop-color="#e6851c"/><stop offset="0.51" stop-color="#ee991e"/><stop offset="0.69" stop-color="#e1781a"/><stop offset="0.99" stop-color="#ca3b13"/></linearGradient></defs><title>fond2Plan de travail 19 copie</title><g id="Calque_4" data-name="Calque 4"><path class="cls-1" d="M104.26,58.94c0,26.61-23.86,43.2-51.34,43.2S3.16,105.25,3.16,54c0-26.6,22.28-48.17,49.76-48.17C90.13,5.79,104.26,32.33,104.26,58.94Z"/><ellipse class="cls-2" cx="54.01" cy="66.59" rx="49.75" ry="48.17"/><path class="cls-3" d="M88.59,62.42c-1.11,18-16.51,32.22-35.35,32.22-17.32,0-31.73-12-34.8-27.95-.05.68-.07,1.38-.07,2.07,0,18.95,15.85,34.3,35.42,34.3s35.42-15.35,35.42-34.3A33.24,33.24,0,0,0,88.59,62.42Z"/><path class="cls-4" d="M53.17,95.1C72,95.1,87.41,80.85,88.52,62.88,85.45,47,71,34.93,53.71,34.93c-18.84,0-34.24,14.24-35.35,32.21C21.44,83.05,35.85,95.1,53.17,95.1Z"/><path class="cls-3" d="M53.58,50.63c5.18,0,10.36,0,15.54,0,.91,0,1.19.17,1.1,1.19-.89,9.57-1.72,19.14-2.57,28.71-.1,1.15-.25,2.3-.28,3.45a1.18,1.18,0,0,1-1.06,1.25q-6.09,1.67-12.15,3.38a2.54,2.54,0,0,1-1.42,0c-4-1.11-7.92-2.22-11.9-3.29a1.3,1.3,0,0,1-1.12-1.35q-1.38-16-2.85-31.9c-.11-1.13.19-1.41,1.31-1.4C43.31,50.66,48.45,50.63,53.58,50.63Zm-.09,7v0c-3.1,0-6.19,0-9.29,0-.84,0-1.14.12-1,1.08.37,3.43.66,6.88.89,10.32.07,1,.36,1.34,1.4,1.33,4-.06,8.06,0,12.09,0,.84,0,1.21.17,1.07,1.1-.17,1.14-.22,2.3-.3,3.44A1.15,1.15,0,0,1,57.44,76a10.2,10.2,0,0,1-7.84,0,1.14,1.14,0,0,1-.85-1.13C48.52,72.5,48.5,72.5,46,72.5c-.26,0-.53,0-.79,0-.61,0-.87.11-.78.82.2,1.58.34,3.17.41,4.76,0,.78.39,1,1.07,1.24,2.41.7,4.82,1.74,7.24,2S58,80.15,60.45,79.5a4.37,4.37,0,0,1,.52-.12c.91-.09,1.21-.62,1.28-1.51.27-3.57.56-7.15.93-10.72.09-.92-.23-1-1-1-3.77,0-7.53,0-11.29,0-3,0-3,0-3.22-3.1-.08-1,.15-1.3,1.18-1.28,3.94.06,7.88,0,11.82,0,3.13,0,3.1,0,3.26-3.19,0-.86-.23-1-1-1C59.78,57.66,56.63,57.64,53.49,57.64Z"/><path class="cls-2" d="M53.58,52.19c5.18,0,10.36,0,15.54,0,.91,0,1.19.16,1.1,1.18-.89,9.57-1.72,19.14-2.57,28.72-.1,1.15-.25,2.29-.28,3.44,0,.78-.38,1.07-1.06,1.26q-6.09,1.65-12.15,3.37a2.37,2.37,0,0,1-1.42-.05c-4-1.1-7.92-2.21-11.9-3.29a1.3,1.3,0,0,1-1.12-1.35q-1.38-15.94-2.85-31.89c-.11-1.14.19-1.42,1.31-1.4C43.31,52.22,48.45,52.19,53.58,52.19Z"/><path class="cls-3" d="M59.69,44.29c-.76.41-.78,1.56-1.45,1.47-.45-.06-.79-.92-1.37-1.66a12.53,12.53,0,0,0,0,1.54c.18,1.11-.33,1.36-1.33,1.3-.7,0-.91-.25-.89-.93,0-1.46,0-2.92,0-4.38,0-.41-.34-1.13.42-1.17s1.61-.45,2.18.42c.33.51.64,1,1,1.66.36-.57.65-1,.9-1.47.6-1.12,1.61-.61,2.47-.58.38,0,.26.49.27.78,0,1.59,0,3.18,0,4.77,0,.87-.43.92-1.07.88s-1.31.18-1.22-.86A17.2,17.2,0,0,0,59.69,44.29Z"/><path class="cls-3" d="M47.06,43.65c0,.75-.06,1.51,0,2.25s-.28,1-1.06,1.05-1.36-.18-1.21-1.16c.11-.67,0-1-.88-1s-1,.3-.91,1c.15.93-.24,1.2-1.17,1.2s-1.18-.37-1.15-1.24c.06-1.46.07-2.92,0-4.38,0-1,.49-.95,1.16-.93s1.27-.1,1.17.9c-.06.58-.22,1.21.83,1.23s1-.56.95-1.25c-.11-1,.58-.86,1.19-.88s1.15,0,1.08.86S47.06,42.85,47.06,43.65Z"/><path class="cls-3" d="M51,40.41a14.22,14.22,0,0,1,1.46,0c.6.07,1.48-.4,1.47.88,0,.93-.09,1.59-1.26,1.38-.55-.1-.67.24-.65.71,0,.75,0,1.51,0,2.26.09.93-.14,1.31-1.2,1.32s-1.2-.54-1.13-1.39c0-.48,0-1,0-1.45.09-.95,0-1.62-1.26-1.49-.86.09-.55-.72-.58-1.18s-.17-1.05.62-1Z"/><path class="cls-3" d="M62.9,43.61a10.49,10.49,0,0,0,0-1.86c-.24-1.35.52-1.41,1.53-1.36.59,0,.77.28.73.82,0,.35,0,.71,0,1.06,0,2.23,0,2.28,2.21,2.37.91,0,.84.54.83,1.13s.12,1.19-.81,1.16c-1.24,0-2.47,0-3.71,0-.58,0-.78-.24-.76-.8C62.92,45.29,62.9,44.45,62.9,43.61Z"/><path class="cls-2" d="M59.69,45.35c-.76.41-.78,1.57-1.45,1.48-.45-.06-.79-.92-1.37-1.67a12.67,12.67,0,0,0,0,1.55c.18,1.1-.33,1.35-1.33,1.3-.7,0-.91-.26-.89-.94,0-1.46,0-2.92,0-4.37,0-.42-.34-1.14.42-1.18s1.61-.44,2.18.43c.33.5.64,1,1,1.66.36-.58.65-1,.9-1.47.6-1.13,1.61-.62,2.47-.59.38,0,.26.49.27.78,0,1.59,0,3.19,0,4.78,0,.87-.43.92-1.07.88s-1.31.17-1.22-.86A17.37,17.37,0,0,0,59.69,45.35Z"/><path class="cls-2" d="M47.06,44.71c0,.76-.06,1.51,0,2.26s-.28,1-1.06,1-1.36-.18-1.21-1.16c.11-.67,0-1.05-.88-1s-1,.3-.91,1c.15.93-.24,1.2-1.17,1.21s-1.18-.37-1.15-1.25c.06-1.46.07-2.92,0-4.37,0-1,.49-1,1.16-.94s1.27-.1,1.17.91c-.06.57-.22,1.21.83,1.22s1-.56.95-1.25c-.11-1,.58-.86,1.19-.88s1.15,0,1.08.87S47.06,43.92,47.06,44.71Z"/><path class="cls-2" d="M51,41.47a14.2,14.2,0,0,1,1.46,0c.6.06,1.48-.4,1.47.87,0,.93-.09,1.59-1.26,1.38-.55-.09-.67.24-.65.72,0,.75,0,1.5,0,2.25.09.93-.14,1.32-1.2,1.33s-1.2-.55-1.13-1.39c0-.49,0-1,0-1.46.09-.94,0-1.62-1.26-1.49-.86.09-.55-.72-.58-1.18s-.17-1,.62-1Z"/><path class="cls-2" d="M62.9,44.67a10.37,10.37,0,0,0,0-1.85c-.24-1.36.52-1.42,1.53-1.37.59,0,.77.28.73.82,0,.36,0,.71,0,1.07,0,2.22,0,2.28,2.21,2.36.91,0,.84.54.83,1.13S68.29,48,67.36,48c-1.24,0-2.47,0-3.71,0-.58,0-.78-.24-.76-.79C62.92,46.36,62.9,45.51,62.9,44.67Z"/><path class="cls-4" d="M53.49,59c3.14,0,6.28,0,9.43,0,.79,0,1.06.19,1,1.09-.16,3.35-.12,3.36-3.26,3.35-3.94,0-7.88,0-11.81,0-1,0-1.26.29-1.19,1.34C47.92,68,47.88,68,50.9,68c3.76,0,7.52,0,11.28,0,.76,0,1.09.09,1,1-.37,3.75-.66,7.51-.92,11.27-.07.93-.37,1.48-1.28,1.59a3,3,0,0,0-.52.12c-2.44.68-4.86,2.12-7.29,1.88s-4.83-1.34-7.24-2.07a1.24,1.24,0,0,1-1.07-1.3c-.06-1.67-.21-3.35-.4-5-.09-.74.16-.91.77-.86a7.12,7.12,0,0,0,.8,0c2.48,0,2.5,0,2.72,2.54a1.21,1.21,0,0,0,.85,1.19,9.75,9.75,0,0,0,7.85,0,1.19,1.19,0,0,0,.86-1.19c.08-1.21.14-2.42.31-3.62.14-1-.24-1.16-1.08-1.16-4,0-8.05,0-12.08,0-1.05,0-1.34-.33-1.41-1.39q-.34-5.43-.88-10.85c-.1-1,.2-1.15,1-1.13,2.32.17,6.2,0,9.3,0Z"/><path class="cls-3" d="M53.45,60.65c3.11,0,6.22,0,9.33,0,.79,0,1,.18,1,1-.16,3.19-.13,3.2-3.23,3.19-3.9,0-7.8,0-11.69,0-1,0-1.25.28-1.17,1.28.24,3.1.2,3.1,3.19,3.1,3.72,0,7.44,0,11.16,0,.76,0,1.08.09,1,1-.36,3.56-.65,7.14-.91,10.72-.07.88-.37,1.41-1.27,1.51a3.1,3.1,0,0,0-.51.11c-2.41.65-4.81,2-7.21,1.79S48.35,83,46,82.33c-.67-.19-1-.45-1.06-1.24-.07-1.59-.21-3.18-.4-4.76-.09-.71.16-.87.76-.82.27,0,.53,0,.79,0,2.46,0,2.48,0,2.7,2.42a1.14,1.14,0,0,0,.84,1.13,10,10,0,0,0,7.76,0,1.15,1.15,0,0,0,.86-1.13c.08-1.15.13-2.31.3-3.44.13-.94-.23-1.12-1.07-1.11-4,0-8,0-12,0-1,0-1.32-.32-1.39-1.33-.23-3.44-.52-6.89-.88-10.32-.1-1,.2-1.09,1-1.08,3.06,0,6.13,0,9.19,0Z"/></g></svg>