<svg xmlns="http://www.w3.org/2000/svg" xmlns:xlink="http://www.w3.org/1999/xlink" viewBox="0 0 107.42 120.56"><defs><style>.cls-1{fill:url(#Dégradé_sans_nom_81);}.cls-2{fill:#d6d6d6;}.cls-3{fill:#777;}.cls-4{fill:#a5a5a5;}</style><linearGradient id="Dégradé_sans_nom_81" x1="3.16" y1="54.34" x2="104.26" y2="54.34" gradientUnits="userSpaceOnUse"><stop offset="0" stop-color="#777"/><stop offset="0.22" stop-color="#a6a6a6"/><stop offset="0.41" stop-color="#c9c9c9"/><stop offset="0.51" stop-color="#d6d6d6"/><stop offset="0.59" stop-color="#cdcdcd"/><stop offset="0.73" stop-color="#b6b6b6"/><stop offset="0.89" stop-color="#909090"/><stop offset="0.99" stop-color="#777"/></linearGradient></defs><title>fond2Plan de travail 19 copie 2</title><g id="Calque_4" data-name="Calque 4"><path class="cls-1" d="M104.26,59.3c0,26.61-23.86,43.2-51.34,43.2S3.16,105.61,3.16,54.32c0-26.6,22.28-48.17,49.76-48.17C90.13,6.15,104.26,32.69,104.26,59.3Z"/><ellipse class="cls-2" cx="54.01" cy="66.95" rx="49.75" ry="48.17"/><path class="cls-3" d="M88.87,62.92c-1.11,18-16.51,32.22-35.35,32.22-17.32,0-31.73-12-34.81-28,0,.69-.07,1.38-.07,2.08,0,18.94,15.86,34.3,35.42,34.3S89.48,88.2,89.48,69.26A33.24,33.24,0,0,0,88.87,62.92Z"/><path class="cls-4" d="M53.49,95.3c18.84,0,34.24-14.25,35.35-32.22-3.07-15.91-17.48-28-34.81-28-18.84,0-34.24,14.25-35.35,32.22C21.76,83.25,36.17,95.3,53.49,95.3Z"/><path class="cls-3" d="M53.58,51c5.18,0,10.36,0,15.54,0,.91,0,1.19.17,1.1,1.19-.89,9.56-1.72,19.14-2.57,28.71-.1,1.15-.25,2.3-.28,3.45a1.18,1.18,0,0,1-1.06,1.25Q60.22,87.24,54.16,89a2.54,2.54,0,0,1-1.42,0c-4-1.11-7.92-2.22-11.9-3.29a1.3,1.3,0,0,1-1.12-1.35q-1.38-16-2.85-31.9c-.11-1.13.19-1.41,1.31-1.4C43.31,51,48.45,51,53.58,51Zm-.09,7v0c-3.1,0-6.19,0-9.29,0-.84,0-1.14.12-1,1.08.37,3.43.66,6.88.89,10.32.07,1,.36,1.34,1.4,1.33,4-.06,8.06,0,12.09,0,.84,0,1.21.17,1.07,1.1-.17,1.14-.22,2.29-.3,3.44a1.16,1.16,0,0,1-.87,1.14,10.15,10.15,0,0,1-7.84,0,1.12,1.12,0,0,1-.85-1.13c-.23-2.42-.25-2.42-2.73-2.42-.26,0-.53,0-.79,0-.61,0-.87.11-.78.82.2,1.58.34,3.17.41,4.76,0,.78.39,1,1.07,1.24,2.41.7,4.82,1.74,7.24,2S58,80.5,60.45,79.86a4.37,4.37,0,0,1,.52-.12c.91-.09,1.21-.62,1.28-1.51.27-3.57.56-7.15.93-10.72.09-.92-.23-1-1-1-3.77,0-7.53,0-11.29,0-3,0-3,0-3.22-3.1-.08-1,.15-1.3,1.18-1.28,3.94.06,7.88,0,11.82,0,3.13,0,3.1,0,3.26-3.19,0-.86-.23-1-1-1C59.78,58,56.63,58,53.49,58Z"/><path class="cls-2" d="M53.58,52.55c5.18,0,10.36,0,15.54,0,.91,0,1.19.17,1.1,1.19-.89,9.57-1.72,19.14-2.57,28.72-.1,1.14-.25,2.29-.28,3.44,0,.78-.38,1.07-1.06,1.26q-6.09,1.65-12.15,3.37a2.54,2.54,0,0,1-1.42-.05q-5.94-1.67-11.9-3.29a1.3,1.3,0,0,1-1.12-1.35q-1.38-15.94-2.85-31.89c-.11-1.14.19-1.42,1.31-1.41C43.31,52.58,48.45,52.55,53.58,52.55Z"/><path class="cls-4" d="M54.22,58.23c3.41,0,6.82,0,10.23,0,.73,0,1,.18.89,1-.66,6.79-1.27,13.58-1.87,20.37a1.09,1.09,0,0,1-.95,1.13c-2.56.66-5.11,1.36-7.65,2.06a2.74,2.74,0,0,1-1.53-.08c-2.42-.65-4.83-1.32-7.25-1.94-.78-.19-1.21-.49-1.25-1.35-.07-1.55-.21-3.1-.42-4.64-.13-1,.26-1.19,1.15-1.12s2-.24,2.8.12.31,1.53.58,2.34a1.92,1.92,0,0,0,1.35,1.31c2.7,1.13,5.32.75,8-.16.56-.2.87-.4.89-1a34.93,34.93,0,0,1,.32-3.55c.13-.91-.15-1.19-1.11-1.18-2.65,0-5.3-.07-7.94,0-1,0-1.28-.34-1.37-1.23-.32-3.13-.35-3.12,3-3.13,2.31,0,4.63-.07,7,0,.77,0,1-.2,1.12-1,.35-3.35.38-3.34-3.15-3.35-4.16,0-8.32-.07-12.49-.05-.82,0-1.12-.2-1.21-1-.35-3.32-.39-3.31,3.05-3.31h7.95Z"/><path class="cls-3" d="M54.22,59.46c3.41,0,6.82,0,10.23,0,.73,0,1,.18.89.95-.66,6.79-1.27,13.58-1.87,20.37a1.09,1.09,0,0,1-.95,1.13c-2.56.66-5.11,1.36-7.65,2.06a2.74,2.74,0,0,1-1.53-.08c-2.42-.65-4.83-1.32-7.25-1.94-.78-.19-1.21-.49-1.25-1.35-.07-1.55-.21-3.1-.42-4.64-.13-1,.26-1.19,1.15-1.12s2-.24,2.8.12.31,1.53.58,2.34A1.92,1.92,0,0,0,50.3,78.6c2.7,1.13,5.32.75,8-.16.56-.2.87-.4.89-1a34.93,34.93,0,0,1,.32-3.55c.13-.91-.15-1.19-1.11-1.18-2.65,0-5.3-.07-7.94,0-1,0-1.28-.34-1.37-1.23-.32-3.13-.35-3.12,3-3.13,2.31,0,4.63-.07,7,0,.77,0,1-.2,1.12-1,.35-3.35.38-3.34-3.15-3.35-4.16,0-8.32-.07-12.49,0-.82,0-1.12-.2-1.21-1-.35-3.31-.39-3.31,3.05-3.31h7.95Z"/><path class="cls-3" d="M53.15,42.08c1,1.06,1.67,1.88,2.43,2.64a1.65,1.65,0,0,1,.35,1.76c-.2.63-.86.32-1.31.34-1.22,0-2.44,0-3.66,0-.68,0-1.21,0-1.2-1s.38-1.08,1.14-1c.47,0,1,0,1.76,0-.92-1-1.61-1.82-2.37-2.56a1.67,1.67,0,0,1-.42-1.86c.22-.58.88-.27,1.34-.29,1.26,0,2.53,0,3.79,0,.72,0,1,.24.93.94s-.11,1.06-.89,1C54.51,42,54,42.08,53.15,42.08Z"/><path class="cls-3" d="M60.3,42.08c1,1.07,1.66,1.86,2.39,2.58a1.67,1.67,0,0,1,.43,1.75c-.2.77-.91.38-1.39.4-1.3.06-2.61,0-3.92,0-.81,0-.84-.4-.86-1s.15-1,.9-.95c.54,0,1.08,0,1.75,0a9.49,9.49,0,0,0-2-2.37,1.88,1.88,0,0,1-.59-2c.26-.77,1-.34,1.53-.37,1.22-.06,2.44,0,3.66,0,.64,0,.88.22.85.87s0,1.1-.81,1.05C61.72,42.05,61.2,42.08,60.3,42.08Z"/><path class="cls-3" d="M43.45,43.37c0-3.19,0-3.19,3.23-3.19a9.73,9.73,0,0,0,1.08,0c.73-.07,1.06.15,1,1s-.14,1.15-1,1a5,5,0,0,0-.67,0,1.55,1.55,0,0,0-1.35,2.39c.44.63,1.26.28,1.89.25,1-.06,1.13.34,1.09,1.17,0,.64-.22.88-.87.86-1.21,0-2.43,0-3.65,0-.68,0-.85-.29-.82-.9C43.47,45.08,43.45,44.22,43.45,43.37Z"/><path class="cls-2" d="M53.09,42.93c1,1.06,1.68,1.87,2.44,2.64a1.64,1.64,0,0,1,.34,1.76c-.2.62-.85.32-1.31.33-1.21,0-2.43,0-3.65,0-.69,0-1.21,0-1.21-1s.38-1.08,1.14-1c.48.05,1,0,1.76,0-.92-1-1.6-1.82-2.36-2.56a1.63,1.63,0,0,1-.42-1.86c.22-.58.88-.27,1.34-.28,1.26,0,2.53,0,3.79,0,.72,0,.94.25.92.94s-.1,1.06-.88,1C54.46,42.89,53.92,42.93,53.09,42.93Z"/><path class="cls-2" d="M60.25,42.92c1,1.08,1.65,1.87,2.39,2.59a1.69,1.69,0,0,1,.43,1.75c-.2.76-.91.38-1.39.4-1.31.05-2.62,0-3.93,0-.8,0-.84-.4-.85-1s.15-1,.9-1c.53.05,1.08,0,1.75,0a9.62,9.62,0,0,0-2-2.36,1.89,1.89,0,0,1-.6-2c.27-.77,1-.34,1.54-.37,1.21-.06,2.44,0,3.65,0,.65,0,.88.22.86.87s0,1.11-.82,1C61.67,42.9,61.14,42.92,60.25,42.92Z"/><path class="cls-2" d="M43.39,44.21c0-3.19,0-3.19,3.23-3.19a9.73,9.73,0,0,0,1.08,0c.73-.08,1.06.14,1,.95s-.13,1.15-1,1a5.14,5.14,0,0,0-.68,0,1.57,1.57,0,0,0-1.35,2.4c.45.62,1.27.28,1.9.24,1,0,1.12.34,1.09,1.18,0,.64-.23.87-.87.86-1.22,0-2.44,0-3.65,0-.69,0-.85-.3-.83-.91C43.42,45.93,43.39,45.07,43.39,44.21Z"/></g></svg>