<svg xmlns="http://www.w3.org/2000/svg" xmlns:xlink="http://www.w3.org/1999/xlink" viewBox="0 0 107.42 120.56"><defs><style>.cls-1{fill:url(#Dégradé_sans_nom_60);}.cls-2{fill:#ffe95a;}.cls-3{fill:#ce6d00;}.cls-4{fill:#e89a00;}</style><linearGradient id="Dégradé_sans_nom_60" x1="2.29" y1="53.98" x2="103.38" y2="53.98" gradientUnits="userSpaceOnUse"><stop offset="0" stop-color="#c6510d"/><stop offset="0" stop-color="#c6510d"/><stop offset="0.34" stop-color="#e38519"/><stop offset="0.51" stop-color="#ee991e"/><stop offset="0.75" stop-color="#dc7816"/><stop offset="0.99" stop-color="#c6510d"/></linearGradient></defs><title>fond2Plan de travail 19</title><g id="Calque_4" data-name="Calque 4"><path class="cls-1" d="M103.38,58.94c0,26.61-23.86,43.2-51.34,43.2S2.29,105.25,2.29,54C2.29,27.36,24.56,5.79,52,5.79,89.25,5.79,103.38,32.33,103.38,58.94Z"/><ellipse class="cls-2" cx="53.13" cy="66.59" rx="49.75" ry="48.17"/><path class="cls-3" d="M88,62.15c-1.11,18-16.51,32.21-35.35,32.21-17.32,0-31.73-12-34.8-27.95-.05.69-.07,1.38-.07,2.08,0,18.94,15.85,34.29,35.42,34.29S88.61,87.43,88.61,68.49A33.08,33.08,0,0,0,88,62.15Z"/><path class="cls-4" d="M52.61,94.94c18.84,0,34.24-14.25,35.35-32.22-3.07-15.91-17.48-27.95-34.8-27.95C34.31,34.77,18.92,49,17.81,67,20.88,82.89,35.29,94.94,52.61,94.94Z"/><path class="cls-3" d="M52.7,50.63c5.18,0,10.36,0,15.54,0,.91,0,1.2.17,1.1,1.19-.89,9.57-1.72,19.14-2.57,28.71-.1,1.15-.25,2.3-.28,3.45,0,.77-.37,1.07-1.06,1.25q-6.08,1.67-12.15,3.38a2.54,2.54,0,0,1-1.42,0c-4-1.11-7.92-2.22-11.89-3.29a1.3,1.3,0,0,1-1.13-1.35Q37.46,67.94,36,52c-.11-1.13.19-1.41,1.31-1.4C42.43,50.66,47.57,50.63,52.7,50.63Zm-.09,7v0c-3.09,0-6.19,0-9.29,0-.84,0-1.14.12-1,1.08.37,3.43.66,6.88.89,10.32.07,1,.36,1.34,1.41,1.33,4-.06,8.05,0,12.08,0,.84,0,1.21.17,1.07,1.1-.16,1.14-.22,2.3-.3,3.44A1.15,1.15,0,0,1,56.56,76a10.2,10.2,0,0,1-7.84,0,1.15,1.15,0,0,1-.85-1.13c-.23-2.43-.24-2.43-2.73-2.43-.26,0-.53,0-.79,0-.61,0-.86.11-.78.82.2,1.58.34,3.17.41,4.76,0,.78.39,1,1.07,1.24,2.41.7,4.82,1.74,7.24,2s4.85-1.14,7.28-1.79c.18,0,.35-.1.52-.12.91-.09,1.22-.62,1.28-1.51.27-3.57.56-7.15.93-10.72.09-.92-.23-1-1-1-3.76,0-7.53,0-11.29,0-3,0-3,0-3.22-3.1-.08-1,.15-1.3,1.18-1.28,3.94.06,7.88,0,11.82,0,3.13,0,3.1,0,3.26-3.19,0-.86-.22-1-1-1C58.9,57.66,55.76,57.64,52.61,57.64Z"/><path class="cls-2" d="M52.7,52.19c5.18,0,10.36,0,15.54,0,.91,0,1.2.16,1.1,1.18-.89,9.57-1.72,19.14-2.57,28.72-.1,1.15-.25,2.29-.28,3.44,0,.78-.37,1.07-1.06,1.26q-6.08,1.65-12.15,3.37a2.37,2.37,0,0,1-1.42-.05c-4-1.1-7.92-2.21-11.89-3.29a1.3,1.3,0,0,1-1.13-1.35Q37.46,69.52,36,53.57c-.11-1.14.19-1.42,1.31-1.4C42.43,52.22,47.57,52.19,52.7,52.19Z"/><path class="cls-4" d="M53.06,57.38c2.37,0,4.74,0,7.11,0,.72,0,1.07.14,1.12,1,.15,2.32.4,4.63.64,7,.08.69-.16.87-.84.9-3.25.15-3.28.18-3.49-3.15-.05-.88-.33-1.19-1.22-1.21-2.19,0-4.37-.28-6.58-.12-.9.07-1.29.25-1.31,1.23a28.41,28.41,0,0,1-.36,4.12c-.15.92.13,1.1,1,1.1,3.88,0,7.76,0,11.63-.07,1.09,0,1.28.34,1.18,1.34-.36,3.42-.68,6.86-.94,10.29-.06.8-.34,1.18-1.09,1.3a6.56,6.56,0,0,0-.87.23c-2.16.6-4.34,1.72-6.47,1.64-2.51-.09-5-1.24-7.47-1.9-.61-.16-1-.39-1-1.1-.08-1.59-.26-3.18-.43-4.76-.07-.63.14-.89.77-.83a4.7,4.7,0,0,0,.65,0c2.43,0,2.47,0,2.78,2.34a1.35,1.35,0,0,0,1.06,1.22,9.77,9.77,0,0,0,7.27,0c.6-.23.9-.47.92-1.16a22,22,0,0,1,.31-3.34c.18-1-.17-1.08-1-1.07-3.88,0-7.75,0-11.63,0-.87,0-1.23-.16-1.13-1.13.45-4.24.84-8.49,1.2-12.74.06-.8.34-1,1.1-1,2.36,0,4.73,0,7.1,0Z"/><path class="cls-3" d="M53.06,58.49c2.37,0,4.74,0,7.11,0,.72,0,1.07.13,1.12,1,.15,2.32.4,4.64.64,7,.08.69-.16.88-.84.91-3.25.15-3.28.17-3.49-3.16-.05-.87-.33-1.19-1.22-1.2-2.19,0-4.37-.29-6.58-.12-.9.07-1.29.24-1.31,1.23a28.27,28.27,0,0,1-.36,4.11c-.15.92.13,1.11,1,1.1,3.88,0,7.76,0,11.63-.06,1.09,0,1.28.34,1.18,1.33-.36,3.43-.68,6.86-.94,10.3-.06.79-.34,1.18-1.09,1.29a8.6,8.6,0,0,0-.87.24c-2.16.59-4.34,1.71-6.47,1.64-2.51-.1-5-1.24-7.47-1.91-.61-.16-1-.38-1-1.1-.08-1.59-.26-3.18-.43-4.76-.07-.63.14-.89.77-.82.21,0,.43,0,.65,0,2.43,0,2.47,0,2.78,2.33A1.34,1.34,0,0,0,48.91,79a9.72,9.72,0,0,0,7.27,0c.6-.23.9-.47.92-1.15a22.08,22.08,0,0,1,.31-3.35c.18-1-.17-1.07-1-1.07-3.88,0-7.75,0-11.63,0-.87,0-1.23-.15-1.13-1.13.45-4.24.84-8.49,1.2-12.74.06-.8.34-1,1.1-1,2.36,0,4.73,0,7.1,0Z"/><path class="cls-3" d="M56.82,41.86c.92,1,1.59,1.82,2.35,2.53a1.77,1.77,0,0,1,.52,2c-.26.62-1,.28-1.51.3-1.3,0-2.61,0-3.91,0-.8,0-.88-.35-.89-1s.15-1,.92-1a3.05,3.05,0,0,0,1.79-.2c-.75-.82-1.41-1.64-2.17-2.35a1.78,1.78,0,0,1-.47-1.92c.22-.71,1-.33,1.46-.35,1.3,0,2.6,0,3.9,0,.74,0,.83.34.84.94s0,1.12-.87,1C58.25,41.83,57.7,41.86,56.82,41.86Z"/><path class="cls-3" d="M52.38,43.28c0,3.43,0,3.43-3.49,3.43a10.25,10.25,0,0,0-1.11,0c-.9.11-1-.42-1-1.11s-.14-1.26.93-1.28c2.25,0,2.25-.1,2.25-2.39a6.4,6.4,0,0,0,0-1c-.16-1,.43-1.1,1.24-1.1s1.25.11,1.16,1A23.4,23.4,0,0,0,52.38,43.28Z"/><path class="cls-2" d="M56.77,42.56c.93,1,1.59,1.82,2.35,2.53a1.73,1.73,0,0,1,.52,2c-.25.62-1,.28-1.51.3-1.3.05-2.61,0-3.91,0-.8,0-.88-.36-.89-1s.16-1,.93-1a3.06,3.06,0,0,0,1.79-.2c-.75-.83-1.42-1.64-2.17-2.36A1.75,1.75,0,0,1,53.4,41c.22-.71,1-.33,1.46-.35,1.3-.06,2.61,0,3.91,0,.73,0,.83.34.83.94s0,1.11-.86,1C58.2,42.52,57.66,42.56,56.77,42.56Z"/><path class="cls-2" d="M52.34,44c0,3.43,0,3.43-3.49,3.43a8.36,8.36,0,0,0-1.12,0c-.9.1-1-.42-.95-1.11S46.64,45,47.71,45C50,45,50,44.92,50,42.63a6.41,6.41,0,0,0,0-1c-.15-1,.44-1.09,1.25-1.09s1.24.1,1.15,1C52.28,42.39,52.34,43.19,52.34,44Z"/></g></svg>