<svg xmlns="http://www.w3.org/2000/svg" viewBox="0 0 548.23 365.33"><defs><style>.cls-1{fill:#327976;stroke:#0d1b1b;stroke-miterlimit:10;stroke-width:9px;}.cls-2{opacity:0.45;}.cls-3{fill:#2d6d68;}.cls-4{fill:#2a635e;}</style></defs><title>fond2Plan de travail 16</title><g id="Calque_2" data-name="Calque 2"><path class="cls-1" d="M305.31,8.71,4.8,179.5,305.87,350.85l233.56-53.31V133.45Z"/><g class="cls-2"><path class="cls-3" d="M219.61,151.6l-36.22-22.75,11.47-7.29-7.79-4.89,35.09-22.91,8.75,7.19L241,95.87l33.42,23.22-9.22,5.55,8.74,5.83L237,151.41l-7.77-5.77ZM189,128.84l30.61,19.23,9.77-6,7.84,5.81,31-17.57-8.61-5.76,9.29-5.59L240.72,99.35l-10.2,5.16-8.56-7-29.33,19.15,7.84,4.93Z"/><path class="cls-4" d="M219.61,152.19l-37.16-23.33,11.47-7.3-7.77-4.89,36-23.53,8.79,7.21,10-5.06,34.3,23.83-9.2,5.54,8.75,5.85L237,152l-7.75-5.75Zm-35.28-23.34L219.61,151l9.66-6,7.78,5.77L273,130.44l-8.71-5.83,9.23-5.55L240.93,96.45l-10.08,5.09-8.72-7.16L188,116.66l7.79,4.9Zm35.29,19.81-31.55-19.82,11.47-7.29-7.83-4.92L222,96.86l8.6,7,10.17-5.14,29,20.17-9.28,5.59,8.64,5.77-32,18.13-7.82-5.8Zm-29.68-19.83,29.68,18.65,9.8-6.06,7.84,5.82,30-17-8.6-5.75,9.31-5.6L240.68,99.93l-10.22,5.17-8.54-7-28.36,18.52,7.85,4.94Z"/><polygon class="cls-4" points="206.54 122.83 229.76 109.13 251.75 123.12 228.82 136.83 206.54 122.83"/><path class="cls-3" d="M228.8,138.59,203.66,122.8l26.13-15.43,24.81,15.79Zm-19.37-15.71,19.41,12.19,20-12-19.16-12.19Z"/></g><g class="cls-2"><path class="cls-3" d="M148.39,196.54,112.16,173.8l11.47-7.3-7.78-4.89,35.09-22.91,8.75,7.19,10.05-5.08L203.17,164,194,169.58l8.73,5.83-36.9,20.94L158,190.59Zm-30.61-22.76L148.4,193l9.77-6,7.83,5.81,31-17.58-8.62-5.76,9.3-5.59L169.5,144.29l-10.2,5.16-8.57-7-29.32,19.14,7.84,4.93Z"/><path class="cls-4" d="M148.38,197.13,111.23,173.8l11.47-7.29-7.78-4.89L151,138.08l8.78,7.22,10-5.07,34.31,23.83-9.21,5.54,8.75,5.85-37.88,21.49L158,191.19ZM113.1,173.79,148.39,196l9.65-6,7.78,5.77,35.91-20.37L193,169.56l9.23-5.56L169.7,141.39l-10.08,5.09-8.72-7.16L116.78,161.6l7.79,4.9Zm35.3,19.81-31.56-19.82,11.47-7.29-7.83-4.92,30.29-19.77,8.59,7.06,10.18-5.15,29,20.17-9.29,5.59,8.64,5.77L166,193.37l-7.83-5.8Zm-29.68-19.82,29.68,18.64,9.79-6.06,7.85,5.82,30-17-8.6-5.75,9.31-5.6-27.27-18.95L159.23,150l-8.53-7-28.36,18.51,7.84,4.94Z"/><polygon class="cls-4" points="135.32 167.78 158.54 154.07 180.52 168.06 157.6 181.77 135.32 167.78"/><path class="cls-3" d="M157.58,183.53l-25.14-15.79,26.13-15.43,24.81,15.79ZM138.2,167.82,157.62,180l20-12-19.16-12.19Z"/></g><g class="cls-2"><path class="cls-3" d="M212.76,240.45,176.54,217.7,188,210.41l-7.79-4.89,35.09-22.91,8.75,7.19,10.05-5.09,33.43,23.23-9.22,5.54,8.73,5.84-36.89,20.94-7.77-5.77Zm-30.61-22.76,30.62,19.23,9.77-6,7.83,5.81,31-17.57-8.62-5.76,9.3-5.59L233.87,188.2l-10.2,5.16-8.57-7-29.32,19.15,7.84,4.93Z"/><path class="cls-4" d="M212.76,241,175.6,217.7l11.47-7.29-7.78-4.89L215.34,182l8.79,7.21,10-5.07L268.46,208l-9.21,5.54,8.76,5.84-37.89,21.5-7.76-5.75ZM177.47,217.7l35.29,22.16,9.65-6,7.78,5.77,35.91-20.38-8.71-5.82,9.23-5.55-32.55-22.62L224,190.39l-8.73-7.16-34.12,22.28,7.79,4.9Zm35.3,19.8-31.55-19.81,11.46-7.29-7.83-4.92,30.29-19.78,8.59,7.06,10.18-5.14,29,20.17-9.28,5.58,8.63,5.78-32,18.13-7.82-5.8Zm-29.68-19.82,29.68,18.65,9.8-6.06,7.84,5.82,30-17-8.6-5.75,9.31-5.6-27.27-18.95L223.6,194l-8.53-7-28.36,18.52,7.85,4.93Z"/><polygon class="cls-4" points="199.69 211.68 222.91 197.98 244.9 211.97 221.97 225.68 199.69 211.68"/><path class="cls-3" d="M222,227.44l-25.14-15.8,26.13-15.42L247.75,212Zm-19.37-15.72L222,223.92l20-12-19.16-12.19Z"/></g><g class="cls-2"><path class="cls-3" d="M360.85,244.54,324.63,221.8l11.47-7.3-7.79-4.89L363.4,186.7l8.75,7.19,10.06-5.08L415.63,212l-9.22,5.55,8.74,5.83-36.9,20.94-7.77-5.76Zm-30.6-22.76L360.86,241l9.77-6,7.84,5.82,31-17.58-8.61-5.76,9.29-5.59L382,192.29l-10.2,5.16-8.56-7-29.33,19.14,7.84,4.93Z"/><path class="cls-4" d="M360.85,245.13,323.69,221.8l11.47-7.29-7.77-4.89,36-23.54,8.79,7.22,10-5.07,34.3,23.83-9.2,5.54,8.75,5.85-37.89,21.49-7.75-5.75Zm-35.28-23.34L360.85,244l9.66-6,7.78,5.77,35.9-20.37-8.71-5.82,9.23-5.56-32.54-22.61-10.08,5.09-8.72-7.16L329.24,209.6l7.79,4.9Zm35.29,19.81-31.55-19.82,11.47-7.29L333,209.57l30.28-19.77,8.6,7.06L382,191.71l29,20.17-9.28,5.59,8.64,5.77-32,18.13-7.82-5.8Zm-29.68-19.82,29.68,18.64,9.8-6.06,7.84,5.82,30-17-8.6-5.75,9.31-5.6-27.27-18.95L371.7,198l-8.54-7L334.8,209.55l7.85,4.94Z"/><polygon class="cls-4" points="347.79 215.78 371 202.07 392.99 216.06 370.06 229.77 347.79 215.78"/><path class="cls-3" d="M370,231.53,344.9,215.74,371,200.31l24.81,15.79Zm-19.37-15.71L370.08,228l20.05-12L371,203.83Z"/></g><g class="cls-2"><path class="cls-3" d="M365.69,151.15,329.47,128.4l11.47-7.29-7.79-4.9,35.09-22.9,8.75,7.18L387,95.41l33.43,23.23-9.22,5.54L420,130,383.09,151l-7.77-5.76Zm-30.61-22.77,30.62,19.23,9.77-6,7.83,5.81,31-17.57-8.62-5.76,9.3-5.59L386.8,98.9l-10.2,5.15L368,97l-29.32,19.15,7.84,4.92Z"/><path class="cls-4" d="M365.69,151.74,328.53,128.4,340,121.11l-7.78-4.89,36-23.53,8.79,7.21,10-5.07,34.31,23.84-9.21,5.54,8.76,5.84-37.89,21.5-7.76-5.76ZM330.4,128.4l35.29,22.16,9.65-6,7.78,5.77L419,130l-8.71-5.82,9.23-5.55L387,96l-10.07,5.1-8.73-7.16-34.12,22.28,7.79,4.9Zm35.3,19.8-31.55-19.81,11.46-7.29-7.83-4.93L368.07,96.4l8.59,7.06,10.18-5.14,29,20.17-9.28,5.58,8.63,5.77-32,18.14-7.82-5.81ZM336,128.38,365.7,147l9.8-6.05,7.84,5.82,30-17-8.6-5.75,9.31-5.6-27.27-19-10.23,5.17-8.53-7-28.36,18.52,7.85,4.93Z"/><polygon class="cls-4" points="352.62 122.38 375.84 108.68 397.82 122.67 374.9 136.37 352.62 122.38"/><path class="cls-3" d="M374.88,138.13l-25.14-15.79,26.13-15.42,24.81,15.79Zm-19.37-15.71,19.41,12.19,20.05-12-19.16-12.19Z"/></g><g class="cls-2"><path class="cls-3" d="M292,195.8l-36.22-22.75,11.47-7.29-7.78-4.9L294.56,138l8.76,7.19,10.05-5.09,33.43,23.23-9.22,5.54,8.73,5.84-36.9,20.94-7.77-5.77ZM261.41,173,292,192.26l9.77-6,7.83,5.81,31-17.57L332,168.7l9.3-5.59-28.15-19.56-10.21,5.15-8.56-7L265,160.82l7.84,4.93Z"/><path class="cls-4" d="M292,196.39l-37.15-23.34,11.47-7.29-7.78-4.89,36.05-23.53,8.78,7.21,10-5.07,34.31,23.84-9.21,5.54,8.75,5.84-37.88,21.5-7.76-5.75Zm-35.28-23.34L292,195.21l9.65-6,7.78,5.77,35.91-20.38-8.72-5.82,9.24-5.55-32.55-22.62-10.08,5.1-8.72-7.16L260.4,160.86l7.8,4.9ZM292,192.85,260.47,173l11.47-7.29-7.83-4.93,30.28-19.77,8.6,7.06L313.17,143l29,20.17-9.29,5.58,8.64,5.78-32,18.13-7.82-5.81ZM262.34,173,292,191.68l9.79-6.06,7.85,5.82,30-17-8.6-5.75,9.31-5.6-27.27-19-10.23,5.17-8.53-7L266,160.81l7.85,4.93Z"/><polygon class="cls-4" points="278.95 167.03 302.16 153.33 324.15 167.32 301.23 181.03 278.95 167.03"/><path class="cls-3" d="M301.21,182.79,276.06,167l26.13-15.42L327,167.36Zm-19.38-15.72,19.42,12.2,20-12-19.16-12.19Z"/></g><g class="cls-2"><path class="cls-3" d="M433,201.75,396.82,179l11.46-7.29-7.78-4.89,35.09-22.91,8.75,7.19L454.39,146l33.43,23.22-9.22,5.55,8.73,5.83-36.89,20.94-7.77-5.76ZM402.43,179l30.62,19.23,9.77-6.05,7.83,5.81,31-17.57L473,174.65l9.3-5.59L454.15,149.5,444,154.66l-8.57-7-29.32,19.14,7.84,4.93Z"/><path class="cls-4" d="M433,202.34,395.88,179l11.47-7.29-7.78-4.89,36.05-23.54,8.78,7.22,10-5.07,34.31,23.83-9.21,5.54,8.75,5.85L450.4,202.15l-7.76-5.75ZM397.75,179,433,201.16l9.65-6,7.78,5.77,35.91-20.37-8.71-5.83,9.23-5.55L454.35,146.6l-10.08,5.09-8.72-7.16-34.12,22.28,7.79,4.9Zm35.3,19.81L401.5,179,413,171.7l-7.83-4.92L435.42,147l8.59,7.06,10.18-5.15,29,20.17-9.29,5.59,8.64,5.77-31.95,18.13-7.83-5.8ZM403.37,179l29.68,18.64,9.8-6.06,7.84,5.82,30-17-8.6-5.75,9.31-5.6-27.27-18.95-10.23,5.17-8.53-7L407,166.76l7.84,4.94Z"/><polygon class="cls-4" points="419.97 172.99 443.19 159.28 465.17 173.27 442.25 186.98 419.97 172.99"/><path class="cls-3" d="M442.23,188.74,417.09,173l26.13-15.43L468,173.31ZM422.85,173l19.42,12.19,20.05-12L443.16,161Z"/></g><g class="cls-2"><path class="cls-3" d="M284.57,288.08l-36.22-22.75L259.82,258l-7.79-4.9,35.09-22.9,8.75,7.18,10.06-5.08,33.42,23.23-9.21,5.54,8.73,5.84L302,287.88l-7.77-5.76ZM254,265.31l30.61,19.23,9.78-6,7.83,5.81,31-17.57L324.54,261l9.3-5.59-28.16-19.56L295.48,241l-8.56-7L257.59,253.1l7.84,4.92Z"/><path class="cls-4" d="M284.57,288.67l-37.16-23.34L258.88,258l-7.77-4.89,36-23.53,8.79,7.21,10-5.07,34.3,23.84-9.2,5.54,8.75,5.84-37.89,21.5-7.75-5.76Zm-35.28-23.34,35.28,22.16,9.66-6,7.78,5.77,35.91-20.38-8.72-5.82,9.23-5.55-32.54-22.62L295.81,238l-8.72-7.16L253,253.14l7.8,4.9Zm35.29,19.8L253,265.32,264.5,258l-7.83-4.93L287,233.33l8.6,7.06,10.18-5.14,29,20.17L325.47,261l8.64,5.77-32,18.14-7.82-5.81ZM254.9,265.31,284.59,284l9.79-6.05,7.85,5.82,30-17L323.6,261l9.32-5.6-27.28-19-10.22,5.17-8.54-7-28.36,18.52,7.85,4.93Z"/><polygon class="cls-4" points="271.51 259.31 294.72 245.61 316.71 259.6 293.79 273.3 271.51 259.31"/><path class="cls-3" d="M293.77,275.06l-25.15-15.79,26.13-15.42,24.82,15.79Zm-19.38-15.71,19.41,12.19,20.05-12-19.16-12.19Z"/></g><g class="cls-2"><path class="cls-3" d="M290.43,109.26,254.21,86.51l11.47-7.29-7.78-4.9L293,51.41l8.76,7.19,10.05-5.08,33.43,23.22L336,82.29l8.73,5.83-36.9,20.94-7.76-5.76Zm-30.6-22.77,30.62,19.23,9.77-6,7.83,5.81,31-17.57-8.62-5.76,9.3-5.6L311.55,57l-10.2,5.16-8.57-7L263.46,74.27l7.84,4.93Z"/><path class="cls-4" d="M290.43,109.84,253.28,86.51l11.47-7.29L257,74.33l36-23.54L301.8,58l10-5.07,34.31,23.84-9.21,5.53,8.75,5.85-37.88,21.5L300,103.9ZM255.15,86.5l35.29,22.17,9.65-6,7.78,5.78,35.91-20.38-8.72-5.82,9.24-5.56L311.75,54.1l-10.08,5.09L293,52,258.82,74.31l7.8,4.9Zm35.29,19.81L258.89,86.49l11.47-7.29-7.83-4.92,30.29-19.77,8.59,7.06,10.18-5.15,29,20.17-9.29,5.59L340,88l-32,18.13-7.83-5.8ZM260.77,86.49l29.68,18.64,9.79-6.06,7.85,5.82,30-17-8.6-5.75,9.31-5.6-27.27-19-10.23,5.17-8.53-7L264.38,74.26l7.85,4.94Z"/><polygon class="cls-4" points="277.37 80.49 300.58 66.79 322.57 80.77 299.65 94.48 277.37 80.49"/><path class="cls-3" d="M299.63,96.24,274.49,80.45,300.61,65l24.82,15.78ZM280.25,80.53l19.42,12.19,20.05-12L300.56,68.54Z"/></g></g></svg>