<?xml version="1.0" encoding="utf-8"?>
<!-- Generator: Adobe Illustrator 24.1.3, SVG Export Plug-In . SVG Version: 6.00 Build 0)  -->
<svg version="1.1" id="Calque_1" xmlns="http://www.w3.org/2000/svg" xmlns:xlink="http://www.w3.org/1999/xlink" x="0px" y="0px"
	 viewBox="0 0 252.3 314.2" style="enable-background:new 0 0 252.3 314.2;" xml:space="preserve">
<style type="text/css">
	.st0{fill:#FFFFFF;}
</style>
<path class="st0" d="M60.8,176.8c-0.4-7,0.5-14.1,2.5-21c1.1-3.9,0.6-5.9-3.8-7.1c-10.4-3-20.3-7.5-28.9-14.2
	c-15.3-11.9-16-29.1-1.6-41.1c3.1-2.5,6.5-4.7,9.9-6.7c6.6-3.9,13.7-6.8,21.1-8.9c3.5-1,4.4-2.6,3.5-6.1C60.4,59.9,59.7,48,61.8,36
	c0.2-1.3,0.6-2.6,1.1-3.8c5.2-15,15.4-19.5,30.8-15.6c11.4,2.9,20.6,9.9,29.2,17.6c5.6,5,5.4,5,10.9,0.2
	c7.6-6.5,15.6-12.4,24.9-16.4c6.2-2.6,12.7-3.5,19.1-2.2c9.5,1.9,14.3,9,16.9,17.8c3.5,12.2,2.1,24.4-0.9,36.4
	c-1.3,5.1,0,6.8,4.8,8.2c9.3,2.7,18.1,6.6,25.9,12.5c18.8,14,18.6,31.9-0.6,45.6c-8.2,5.8-17.4,9.7-27,12.5c-3.5,1-4.1,2.5-3.3,6
	c2.5,10.9,4.1,21.8,2.2,33c-3.6,20.5-18.1,28.6-37.3,20.4c-9.9-4.2-18.5-10.5-26.3-17.9c-2.8-2.7-4.2-2.7-7.2,0
	c-10.2,9.1-20.9,17.6-34.8,20.5c-11.8,2.5-22-3.1-26.4-14.3C61.1,190.2,60.4,183.7,60.8,176.8z M128.1,148.4
	C128.1,148.4,128.1,148.5,128.1,148.4c5.2,0.1,10.3-0.1,15.5,0.1c3.6,0.1,5.9-1.5,7.7-4.4c5.7-9,11.1-18.2,16-27.7
	c1.1-2.1,1.2-3.9,0.1-6.1c-5-10-10.5-19.7-16.7-29c-1.3-1.9-2.7-2.9-5.2-3.1c-11-1-21.9-0.9-32.9-0.1c-3.6,0.3-5.4,1.7-7.1,4.3
	c-5.6,8.7-10.6,17.7-15.4,26.8c-1.2,2.2-1.8,4.4-0.4,7.1c5.3,10,10.8,19.9,17.1,29.3c1.2,1.9,2.7,2.8,4.9,2.8
	C117.1,148.4,122.6,148.4,128.1,148.4z M69.8,48.3c0.5,7.7,1.6,15.1,3,22.4c0.5,2.8,2,3,4.3,2.6c5.9-1,11.8-1.6,17.6-3.1
	c3.4-0.9,7.5,0.8,10.1-3c4.4-6.6,9.7-12.7,14.9-18.7c1.3-1.5,1.9-2.7,0.2-4.2c-9.2-8.3-18.6-16.3-31-19.3c-8-1.9-14,1.6-16.9,9.4
	C70.4,38.9,70.2,43.8,69.8,48.3z M27.8,113.1c0.5,4.7,2.7,8.3,5.9,11.4c8.7,8.2,19.6,12.2,30.7,15.8c2.1,0.7,2.8-0.2,3.5-2.2
	c2.7-7.5,5.7-14.9,8.7-22.2c0.8-1.8,0.9-3.4,0.1-5.2c-3.3-7.4-6.4-14.9-8.9-22.7c-0.5-1.6-1.1-2.7-3.1-2
	c-11.9,3.9-23.6,8.1-32.5,17.5C29.5,106.3,28.2,109.6,27.8,113.1z M85.9,201.7c1.8,0.2,4.4-0.4,6.9-1.3
	c10.3-3.9,18.8-10.5,26.8-17.9c2.1-1.9,1.3-3.3-0.3-5c-5.3-5.8-10.1-11.9-14.7-18.3c-1.2-1.7-2.5-2.3-4.5-2.5
	c-5.3-0.5-10.6-1.3-15.8-2.1c-11-1.7-11.3-1.7-13.1,9.3c-1.5,9.2-2.4,18.5,0.6,27.6C74.2,198.7,78.3,201.7,85.9,201.7z M186.8,177.8
	c0-7.9-1.1-15.1-2.8-22.2c-0.5-2.3-1.2-3-3.7-2.4c-7.9,1.7-15.9,3.3-24.1,3.6c-1.4,0-2.5,0.4-3.4,1.7c-4.8,7-10.1,13.6-15.9,19.8
	c-1.1,1.2-1.7,2.5-0.2,3.8c9.2,8.2,18.5,16.4,30.9,19.3c9.4,2.2,15.9-2.4,17.9-11.9C186.6,185.4,186.9,181.3,186.8,177.8z
	 M228.8,113.1c0.2-5.4-3.1-9.1-6.7-12.2c-8.6-7.5-19-11.3-29.7-14.8c-2.4-0.8-3,0.5-3.5,2.2c-2.5,7.8-5.3,15.4-8.9,22.7
	c-0.7,1.4-0.6,2.9,0,4.3c3.4,7.4,6.3,15,8.8,22.7c0.6,1.8,1.5,3,3.6,2.3c11.4-3.8,22.7-7.9,31.4-16.6
	C226.9,120.8,229,117.5,228.8,113.1z M186.7,49.4c0-2.3,0.1-4.7,0-7c-1.1-15.4-10.3-21.3-24.5-15.5c-9.5,3.9-17.5,10.2-24.8,17.3
	c-1.4,1.4-1.9,2.5-0.3,4.1c5.9,5.9,10.7,12.7,15.7,19.4c1,1.4,2.2,1.8,3.8,1.9c7.8,0.7,15.5,1.8,23.1,3.6c3.2,0.7,4-0.3,4.6-3.1
	C185.7,63.2,186.8,56.4,186.7,49.4z M141.6,68.5c-4.2-5.1-7.6-9.2-10.9-13.3c-1.6-2-2.8-1.7-4.3,0.2c-2.7,3.3-5.6,6.6-8.4,9.9
	c-1.6,1.9-1.9,3.3,1.3,3.3C126.2,68.5,133.1,68.5,141.6,68.5z M95.7,146.4c-4.2-7.3-8.2-14.3-12.4-21.6c-2.9,5.3-4.4,10.6-6.3,15.7
	c-0.7,1.8-0.2,3.5,2,3.7C84.3,144.8,89.5,146.8,95.7,146.4z M96.1,79.4c-6.3,1.1-11.5,2.2-16.7,2.9C77,82.7,76.2,83.8,77,86
	c1.9,5.1,3.2,10.4,6.2,15.7C87.5,94.3,91.5,87.4,96.1,79.4z M161.2,80c4.3,7.5,8.3,14.4,12.8,22.2c2.2-6.1,3.9-11,5.7-16
	c0.9-2.3,0.8-3.4-2.1-4C172.4,81.3,167.3,80.4,161.2,80z M161,147c6.7-1.1,12.2-2,17.6-3c1.5-0.3,2.1-1.2,1.5-2.9
	c-1.9-5.2-3.4-10.5-6.4-16.2C169.4,132.3,165.5,139.1,161,147z M140.8,158.4c-7.8,0-14.6,0-21.4,0c-2.5,0-3.1,0.9-1.4,2.9
	c2.8,3.3,5.5,6.6,8.3,10c1.3,1.6,2.6,2,4.1,0.3C133.8,167.5,137.4,163.6,140.8,158.4z"/>
<path class="st0" d="M51.2,266c8.8,7.4,11.4,17.9,16.7,26.8c-6,2.1-9.3,0.2-11.3-5.3c-1.4-3.9-3.6-7.5-5.6-11.1
	c-3.6-6.5-11.7-9.6-18.8-7.6c-2,0.6-1.4,2-1.5,3.1c-0.1,6.2-0.2,12.3,0,18.5c0.1,3.4-1.8,3.2-4.1,3.2c-2.3,0-4,0.2-4-3.2
	c0.2-17.3,0.1-34.6,0-51.9c0-2.2,0.3-3.3,2.9-3.2c6.3,0.2,12.7-0.1,19,0.3c11.8,0.7,17.8,9.1,15.3,20.7C58.9,261,55.9,264,51.2,266z
	 M39.3,262.4c3.8-0.1,9.8,0.3,12.1-6.3c1.4-4,1.2-8.3-2.2-11.6c-2.4-2.3-14.8-4.6-17.2-2.6c-2.7,2.2-0.7,5.9-1.1,8.9
	c-0.2,1.6,0,3.3,0,5C30.7,262.4,30.7,262.4,39.3,262.4z"/>
<path class="st0" d="M95.5,273.4c-4.5,0-9,0.1-13.5,0c-2.4-0.1-3.2,0.6-2.7,3.1c1.2,6.8,5.8,11.1,12.9,11.8
	c4.9,0.5,9.6-0.5,14.2-2.1c1.1-0.4,2.8-2.7,3.6-0.4c0.6,1.7,1.3,4.2-1,5.9c-8.2,5.7-26.6,3-32.9-4.7c-7.2-8.9-6.2-25.4,2.1-33.1
	c5.9-5.4,16.2-6.9,23.4-3.4c6.8,3.4,10.9,11.4,10.4,20.1c-0.1,2.2-0.9,2.8-3,2.7C104.5,273.3,100,273.4,95.5,273.4z M92.2,267.7
	C92.2,267.7,92.2,267.7,92.2,267.7c3.2,0,6.3-0.1,9.5,0c2.6,0.1,3.1-0.9,2.6-3.3c-1.1-5.6-5.4-9.4-11.2-9.6
	c-6.2-0.3-11.4,3.2-13.2,8.6c-1,3.2-0.4,4.6,3.3,4.3C86.2,267.5,89.2,267.7,92.2,267.7z"/>
<path class="st0" d="M124.5,258c-1.6-5.2,0.4-7.4,4.9-8c2.3-0.3,4.6-1,6.9-1.2c14-1.3,21.4,5.4,21.5,19.5c0.1,7,0,14,0,21
	c0,2.3,0.6,4.5-3.3,4.4c-3.5,0-4.3-1.3-3.9-4.3c0-0.2-0.3-0.5-0.6-1.2c-4.1,5.1-9.6,6.7-15.8,6.3c-7-0.4-12.1-4.7-13.2-11.3
	c-1.2-7.3,2.4-13.3,9.2-15.7c5.4-1.9,11.1-1.9,16.8-1.6c3.9,0.2,4.1-1.4,3-4.4c-1.3-3.4-3.9-5.3-7.4-6
	C136.4,254,130.5,255.7,124.5,258z M143.8,271.3c-3.1,0.4-6.3,0.6-9.3,1.2c-4.5,0.8-6.5,3.8-6.2,8.2c0.2,4.4,2.8,6.9,7.1,7.6
	c6.3,1,11.9-2.2,14.2-8.3C152.2,272.8,151.3,271.4,143.8,271.3z"/>
<path class="st0" d="M169.6,271.4c0-20.7,17.6-26.1,32.4-20.9c3.5,1.2,2.4,4.1,2.1,6.3c-0.2,1.7-1.8,0.3-2.8,0
	c-3.8-1.3-7.6-2.3-11.7-1.7c-5.7,0.7-9.5,3.9-11.2,9.3c-1.6,4.9-1.6,9.9,0,14.7c2.9,8.5,11.4,11.6,21.6,8.1c1.2-0.4,3.1-3.5,4.2-0.2
	c0.7,2.1,1,4.8-2.6,6C184.1,298.4,169.3,290.3,169.6,271.4z"/>
<path class="st0" d="M216.6,270c0-3,0.1-6,0-9c-0.1-2.7,1.3-6.3-4-5.7c-1.9,0.2-1.1-2-1.2-3.2c-0.1-1.1-0.2-2.7,1.6-2.4
	c4.2,0.7,3.6-2.1,3.5-4.6c0-1.5,0.2-3,0-4.5c-0.4-3.3,1.5-3.3,3.9-3.3c2.5-0.1,3.4,0.6,3.5,3.3c0.2,9,0.3,9,9.5,9
	c0.8,0,1.7,0.1,2.5,0c2.2-0.3,2.8,0.8,2.8,2.9c0,2-0.4,2.9-2.7,3c-4,0-9.7-1.8-11.4,0.7c-2,3-0.7,8.3-0.7,12.7c0,4,0,8,0.1,12
	c0,4.5,2.2,6.8,6.8,6.6c1.7-0.1,3.3,0.1,5,0c2.6-0.3,2.9,0.9,3,3.2c0.1,2.6-1,2.9-3.2,3c-15.7,0.6-18.9-2.4-18.9-18.1
	C216.6,273.7,216.6,271.8,216.6,270z"/>
<path class="st0" d="M128.6,132.7c-11.1,0-19.7-8.3-19.8-19.2c-0.1-10.9,8.5-19.9,19.3-20c10.7-0.2,20.5,9.4,20.4,19.8
	C148.4,124,139.6,132.7,128.6,132.7z"/>
</svg>
