<svg xmlns="http://www.w3.org/2000/svg" viewBox="0 0 138.4 105.98"><defs><style>.cls-1{fill:#fff;}</style></defs><title>fond2Plan de travail 38</title><g id="Calque_2" data-name="Calque 2"><path class="cls-1" d="M42.17,65.21c-1.73.85-3.37,1.84-5,2.81-.49.28-1,.58-1.46.85-.23.13-.26.25-.15.49a18.15,18.15,0,0,1,1.4,8.82,19.85,19.85,0,0,1-2.42,8.63A20,20,0,0,1,20,97.15c-.46.09-.92.11-1.38.16H16.3c-.6-.08-1.21-.13-1.8-.23a6,6,0,0,1-3.17-1.26,8.25,8.25,0,0,1-1.71-2.19,11.1,11.1,0,0,1-.68-8.18,15.16,15.16,0,0,1,4.55-7.16,53.69,53.69,0,0,1,10.69-7.56c1.32-.75,2.68-1.45,4-2.15.39-.2.36-.35,0-.58s-.47-.38-.71-.57c-2.74-2.12-5.65-4-8.47-6a56.08,56.08,0,0,1-9.7-8.3,21.51,21.51,0,0,1-4-6.38,26,26,0,0,1-.86-3V41.65a6.73,6.73,0,0,0,.24-1.25,23.3,23.3,0,0,1,3.57-8.18A46.94,46.94,0,0,1,19.52,20.66,88.32,88.32,0,0,1,39,9.8,56.7,56.7,0,0,1,57,5.13,2.92,2.92,0,0,0,58.17,5h4.24a5,5,0,0,0,1.45.17,28.06,28.06,0,0,1,10.76,3,13.85,13.85,0,0,1,5.95,5.64,12.19,12.19,0,0,1,1.37,4.72c.48,4.91-1,9.31-3.65,13.37A32,32,0,0,1,60.06,45.41a46.4,46.4,0,0,1-10,1.94,27.44,27.44,0,0,1-9.3-.61,12.54,12.54,0,0,1-7-4.61A4.84,4.84,0,0,1,32.86,40a.73.73,0,0,1,.32-.88c.38-.2.64,0,.89.28s.58.64.91.92a12.46,12.46,0,0,0,6.43,2.8,24.48,24.48,0,0,0,8.45-.31,38.86,38.86,0,0,0,10.85-3.63,31.31,31.31,0,0,0,11.46-9.53,16.54,16.54,0,0,0,3.08-6.83,7.78,7.78,0,0,0-1.07-6.12A8.35,8.35,0,0,0,70.44,14a20,20,0,0,0-6.1-1.4A42.79,42.79,0,0,0,48.92,14.4,74,74,0,0,0,33,21.34a69.7,69.7,0,0,0-9.77,6.55,32.43,32.43,0,0,0-6.87,7.35,15.16,15.16,0,0,0-2.68,9A11.67,11.67,0,0,0,16,50.53,32.8,32.8,0,0,0,22.45,57c2.72,2.18,5.57,4.21,8.18,6.54a29.07,29.07,0,0,1,2.1,2.05.45.45,0,0,0,.65.12q5.84-3.21,11.68-6.39a1.39,1.39,0,0,0,.44-.43,20.28,20.28,0,0,1,7.7-6.38A6.34,6.34,0,0,1,57,51.81a3.69,3.69,0,0,1,3.11,3.49A12.34,12.34,0,0,1,60,59.23a2.53,2.53,0,0,0,0,.28.57.57,0,0,0,.39-.18,2.66,2.66,0,0,1,3.37.4,1.58,1.58,0,0,1,.31,1.49q-.81,3.09-1.61,6.18c-.55,2.12-1.1,4.24-1.46,6.41a8.41,8.41,0,0,0-.06,3c0,.09,0,.21.1.25s.2-.07.26-.15a6.72,6.72,0,0,0,.64-1c2.45-4.64,4.48-9.47,6.62-14.25,1.39-3.1,2.78-6.2,4.08-9.34a26.73,26.73,0,0,0,1-3.55,1.25,1.25,0,0,1,.86-1,11.17,11.17,0,0,1,5.59-.41,2,2,0,0,1,.71.3,1,1,0,0,1,.46,1.31,40.06,40.06,0,0,0-1.18,3.91,14.13,14.13,0,0,0,1.79,9.91c.41-.67.8-1.31,1.17-2q2.33-3.93,4.44-8a25.21,25.21,0,0,0,2.42-6.5c.1-.47.3-.92.42-1.38a1.16,1.16,0,0,1,.82-.86,11.14,11.14,0,0,1,5.64-.39,1.93,1.93,0,0,1,.81.4A.92.92,0,0,1,98,45.19c-.37,1.1-.75,2.21-1,3.34a14.06,14.06,0,0,0-.22,5.52c.28,2.36,1.5,4.31,2.5,6.36.12.25.26.2.46.11a23.71,23.71,0,0,1,6.57-2.07c5-.77,9.77-.47,14.25,2a13.11,13.11,0,0,1,6.71,8.11,8.48,8.48,0,0,1-1,7.49,9,9,0,0,1-3.87,3.07,3.4,3.4,0,0,1-.89.21c-.28,0-.54,0-.68-.29s0-.53.27-.69A17,17,0,0,0,122.8,77,6.13,6.13,0,0,0,125,72.63a7.52,7.52,0,0,0-1.29-4.36,11.85,11.85,0,0,0-6.09-4.7,23.87,23.87,0,0,0-7.1-1.35,23,23,0,0,0-9,1.18c-.93.32-.93.32-.62,1.22a12.94,12.94,0,0,1,.71,3.42,7.59,7.59,0,0,1-2.24,5.74,16.11,16.11,0,0,1-6.82,4.35,13.46,13.46,0,0,1-1.75.51,2.89,2.89,0,0,1-3.6-2.9,11,11,0,0,1,2-6.21A22.56,22.56,0,0,1,94,64.19a.58.58,0,0,0,.18-.87,29.24,29.24,0,0,1-3.13-9.38l-.69,1.31a94.82,94.82,0,0,1-6.48,10.9.68.68,0,0,0-.07.75,13.79,13.79,0,0,1,1.27,5.43,8.28,8.28,0,0,1-3,6.62,15.41,15.41,0,0,1-10.6,3.7,3.27,3.27,0,0,1-1.34-.33,1.85,1.85,0,0,1-1-2.27,7.07,7.07,0,0,1,1.6-2.55c1.84-2.26,3.73-4.49,5.57-6.74.58-.71,1.08-1.48,1.64-2.2a.53.53,0,0,0,0-.65,40,40,0,0,1-2.38-5.35,43.85,43.85,0,0,1-1.19-4.84.54.54,0,0,0-.23.37c-1.89,4.67-3.88,9.28-6.16,13.77-1.44,2.83-2.93,5.63-4.5,8.39a11.12,11.12,0,0,1-2.92,3.41,2.88,2.88,0,0,1-4.72-1.32,10.06,10.06,0,0,1-.63-3.43,30.86,30.86,0,0,1,.19-4.18c-.26.62-.52,1.25-.79,1.87a55.83,55.83,0,0,1-3.36,6.86,5,5,0,0,1-2.73,2.45,4.31,4.31,0,0,1-4.89-1.52A17.24,17.24,0,0,1,41,77.76a21.51,21.51,0,0,1,0-7.59,34.18,34.18,0,0,1,1.15-4.9s.07-.08,0-.11S42.19,65.19,42.17,65.21Zm-10,10.18a18,18,0,0,0-.53-4.14c-.06-.26-.11-.39-.43-.2a68.16,68.16,0,0,0-9.87,6.81,15.47,15.47,0,0,0-4.55,5.87,8.22,8.22,0,0,0-.71,4.35,2.48,2.48,0,0,0,2.17,2.29,5.89,5.89,0,0,0,2.29-.08,12.24,12.24,0,0,0,5.06-2.35A15.71,15.71,0,0,0,32.2,75.39ZM47,73.49c0,.41,0,.83,0,1.24a8.88,8.88,0,0,0,.68,3.18c.42.9,1,1,1.64.2a8.75,8.75,0,0,0,1.23-2,121.47,121.47,0,0,0,5.59-14.75A20.72,20.72,0,0,0,57,57.71c.09-.83-.33-1.26-1.15-1.12a3.79,3.79,0,0,0-1,.37,9.15,9.15,0,0,0-3.34,3.11A23.28,23.28,0,0,0,47,73.49ZM96.56,68.2a6,6,0,0,0-.23-1.65c-.09-.43-.21-.4-.5-.13a15.18,15.18,0,0,0-4.21,6.65,3.28,3.28,0,0,0-.25,1.31c0,.3.12.44.47.31A6.7,6.7,0,0,0,96.56,68.2ZM79.91,71.57l-.21.27a64.61,64.61,0,0,1-4.19,5c-.5.54-1,1.09-1.49,1.64-.08.09-.21.18-.13.33s.23.1.34.06a3.56,3.56,0,0,0,.81-.3,13.15,13.15,0,0,0,3-2.44A6.4,6.4,0,0,0,79.91,71.57Z"/></g></svg>