<?xml version="1.0" encoding="utf-8"?>
<!-- Generator: Adobe Illustrator 24.0.1, SVG Export Plug-In . SVG Version: 6.00 Build 0)  -->
<svg version="1.1" id="Calque_1" xmlns="http://www.w3.org/2000/svg" xmlns:xlink="http://www.w3.org/1999/xlink" x="0px" y="0px"
	 viewBox="0 0 2687.6 216.7" style="enable-background:new 0 0 2687.6 216.7;" xml:space="preserve">
<style type="text/css">
	.st0{fill:#0B0D0B;}
	.st1{fill:#151610;}
	.st2{fill:#202121;}
	.st3{fill:#A8722E;}
	.st4{fill:#0A0B0B;}
	.st5{fill:#C39049;}
	.st6{fill:#CE9850;}
	.st7{fill:#B4823C;}
	.st8{fill:#4D4D4D;}
	.st9{fill:#434342;}
	.st10{fill:#CD9A51;}
	.st11{fill:#4F361B;}
	.st12{fill:#DFAD6B;}
	.st13{fill:#222526;}
	.st14{fill:#293635;}
	.st15{fill:#080505;}
	.st16{fill:none;}
</style>
<path class="st0" d="M181.9,199.4"/>
<g>
	<g>
		<polygon class="st0" points="107.4,114.8 178.1,158.1 107.4,199.1 35.4,157.5 		"/>
		<polygon class="st1" points="107.4,114.8 106.8,199.4 178.1,158.1 		"/>
	</g>
	<g>
		
			<ellipse transform="matrix(0.7831 -0.6219 0.6219 0.7831 -55.7201 106.6897)" class="st2" cx="125.1" cy="133.2" rx="3.7" ry="8.8"/>
		<path class="st3" d="M139.1,124.1c0,0-8.3-2.5-12.3-1.1c-4.5,1.6-7.8,3.9-8.7,8.1c-0.8,4.2-4.2,14.2-4.2,14.2s-1,3.1,0.2,4
			c1.4,1.1,3,1.4,4,1.8c1.4,0.6,4.2,1.4,6.1-0.3c2-1.7,4.2-8.7,4.5-10.9c0.3-2.2,7.7,3,14.1,1.3c6.4-1.7,8.5-12.5,8.5-12.5
			L139.1,124.1z"/>
		<path class="st4" d="M119.7,126.6c3.1-0.9,10.5,6.5,10.9,13.5l10.5,1.8l-2.3-18.7c0,0-8.1-2.1-10.4-1.3
			C126.2,122.7,116.9,127.5,119.7,126.6z"/>
		<path class="st4" d="M129.2,96.3c4.5,0,18.2-0.3,20.8-3.6s19.7,17.8,17.6,30.9c-2.4,15.2-12.8,17.4-12.8,17.4
			c-4.1,1.1-7.5,1.9-12-0.7s-7.8-6.6-8.5-20.3C133.6,106.1,129.2,96.3,129.2,96.3z"/>
		<polyline class="st5" points="134.2,97 140.3,113.8 145.4,97 		"/>
		<g>
			<path class="st5" d="M153.1,125.2c0,0-10.9-0.9-13.9,2.1c-3,3.1-4.9,5.6-4.7,9.8c0.2,4.3-0.5,14.8-0.5,14.8s-0.2,3.2,1.2,3.9
				c1.6,0.7,3.2,0.6,4.3,0.8c1.5,0.2,4.4,0.3,5.9-1.8c1.5-2.1,1.9-9.4,1.6-11.7c-0.3-2.2,7.6,2.7,13.4-0.5
				c5.8-3.2,5.7-15.9,5.7-15.9L153.1,125.2z"/>
			<path class="st4" d="M135.2,131.9c0,0,4.6-2.8,9.1,1.3c3.9,3.5,4.9,8.2,4.7,9.7s7.2,2.1,9.3,0.9c2.1-1.2,5.6-2.6,6.7-6.7
				c1.1-4.1,1.9-8.9,2.2-11.2s-12.1-2.2-12.1-2.2l-15.7,0.6L135.2,131.9z"/>
		</g>
		<g>
			<path class="st6" d="M157.4,97.5c-1.1-0.5-0.7-2.5-5.2-2.9c-4.6-0.4-5.8,8-5.8,8s-3.8,24.9-3.3,26.1c0.4,1.2,1.7,3.5,3.1,2.7
				c1.4-0.8,5-4.9,5.3-6.2c0.3-1.4,6.8-15.3,6.8-15.3"/>
			<path class="st4" d="M143.7,109.9l15.6,5.6l-0.4-16.9c0,0-1.1-4.7-4.5-4.7c-0.8,0-1.7,0.2-2.6,0.5c-3.6,1.3-6.1,4.4-6.8,8.1
				L143.7,109.9z"/>
		</g>
		<g>
			<path class="st7" d="M130.1,97.6c-0.3-0.8-1.2-1.1-1.9-0.7c-2.1,1.3-3.2,3.8-3.1,4.3c0.1,0.6,0.3,18.1,0.6,19.7
				s3.5,11.3,4.7,11.3c1.3,0,4.3-0.1,4.5-2c0.1-1.7-1.9-23.3-2.1-25.5c0-0.1,0-0.2-0.1-0.3L130.1,97.6z"/>
			<path class="st4" d="M126.1,98.5c-1.3,1.1-2.3,4-2.3,6.9s0,6,0,7.4c0,1.5,8.2,0.4,9.5,1.5c1.3,1.1,2.2-6.3,2.2-6.3l-2.6-9.7
				c0,0-1-1-2.7-1.7C127.9,95.7,126,98.4,126.1,98.5z"/>
		</g>
		<polygon class="st8" points="129.2,96.3 133.9,96.1 139.8,112.3 139.2,115.9 		"/>
		<path class="st9" d="M149.1,96.1c0,0-5.7,16.6-7.6,22.1c-0.5,1.3-6.6,4.5-6.6,4.5l-0.3-2.4c0,0,2.7-2.6,3.5-3.9
			c2.7-4.4,7.4-19.5,7.4-19.5L149.1,96.1z"/>
		<path class="st10" d="M116.1,34c0,0,17.5-8.2,31.3-2.2c1.7,0.7,3.3,1.6,4.7,2.6c8.6,5.9,13,16.2,11.9,26.6
			c-0.7,6.9-1.3,15.8-1.3,17c-0.1,2.1,0.4,5.6,0.4,8.2s-14.9,13.4-25.7,11.5c-10.8-1.9-17.1-4.9-23-12c-5-6.2-9-18.2-10.2-27.1
			c-1-7.5,1.1-14.9,6.3-20.4C112.1,36.4,114,34.9,116.1,34z"/>
		<g>
			<ellipse class="st4" cx="154.1" cy="72.8" rx="3" ry="6.6"/>
			<ellipse class="st4" cx="133.5" cy="73.9" rx="3" ry="6.6"/>
			<path class="st11" d="M146.3,85.7c-1.1,0-3.7,0.7-4.1,2.6c-0.4,1.9,2.6,2.2,3.7,1.1C147.1,88.3,146.3,85.7,146.3,85.7z"/>
		</g>
		<ellipse class="st12" cx="129.2" cy="83.3" rx="3.9" ry="2.4"/>
		<ellipse class="st12" cx="158.4" cy="81.6" rx="3.4" ry="2.1"/>
		<path class="st13" d="M107.5,58.1c-0.6,2-3.7,5-3.2,6.1c0.5,1.1,3.9,9.2,5.6,15.3c1,3.6,7,8.8,7,8.8l2-14.6l4.7,1.2l-0.2-3.6
			l-1.5-0.9l0.9-0.2c0,0-1.7-1.8-1.7-2.8c0-1.1,2.7-5.4,3.5-5.8c0.9-0.5-3.6-0.4-3.6-0.4l3.5-2.8l-6.2,0l6-4.1l-3.3,0.5l-15.8,3.8"
			/>
		
			<ellipse transform="matrix(0.9363 -0.3513 0.3513 0.9363 -19.3442 45.5068)" class="st10" cx="115.8" cy="76.1" rx="5.2" ry="8.7"/>
		<g>
			<path class="st14" d="M98.5,63.3c-0.1,0-0.2-0.1-0.2,0C98.2,63.3,98.3,63.3,98.5,63.3z"/>
			<path class="st14" d="M145.8,50.4c0,0,0,0.1,0.1,0.1C145.8,50.4,145.7,50.4,145.8,50.4z"/>
			<path class="st15" d="M174.8,46c-3.1,0.7-7.8-5.4-7.8-5.4l4.1-1.6c0,0-4.2-0.9-3.7-1.3c2.3-2.1,6.6-0.4,6.3-0.7
				c-1.5-1.2-7.2-3.1-7.2-3.1c-0.8-2.2,4.7-2,4.5-2.2c-2.1-1.9-9.7-1.5-9-2.4c0.7-1-0.1-6.9-0.2-5.9c-0.3,2.6-2.7,6.3-2.9,5.8
				c-0.1-0.2,0.9-4.5,0.4-3.8c-0.9,1.3-5.9,1.1-5.7,0.9c1.8-1.6,1.6-11.7,1.6-11.7s-1.1,5-7,9c-3.6,2.4-3.9,1.3-3.9,1.3
				c4.2-3.6,2.5-7.5,2.3-7.2c-1.6,4.1-3.8,4.4-3.3,4c1.3-1,2.9-11.3,2.7-10.5c-0.3,1.3-2,2.5-3.3,3.6s-7,4-8.8,4.3
				c-1.8,0.2-7.4,1.3-8.6,1.6s-6.8,3.6-6.8,3.6s5.2-6.1,4.3-5.6c-2.1,1.1-4.9,2.6-7,3.8c-2.2,1.3-3.1,2.6-4.5,4.1
				c-1.4,1.6-1.6,5.3-0.6,8.9c0,0-8.3-2-8.3-1.8c0.2,3.2,4.4,6.4,4.3,6.6c-0.8,0.8-3.3-1.4-3.2-1.2c0.5,3,3.6,3.9,1.9,3.6
				c-1.7-0.3-7.3,2.1-6.2,2.5c1.1,0.4,3.5,3.9,3.5,3.9s-3.1-0.9-2.3-0.4c0.7,0.4,3.1,6.4,2.2,6.1c-0.5-0.2-3.3-1.1-4.8-1.8
				c1.6,2.3,4.1,7.7,4.1,7.7s-2.1,2.8-2.8,2.8c1.1,0.3,4.7,0.2,4,0.4c-0.7,0.3-2.6,6.1-2.1,4.9c0.5-1.2,5.1-2.8,5.6-2.5
				c0.5,0.3-1.6,4.9-1.2,4.3c0.4-0.6,6.2-4.5,6.2-4.5s-1.9,3.7-1.4,3.4c0.5-0.3,5.3-6.1,5.3-6.1l3.8,1.6l8.9-8.1
				c0,0-6.9-0.5-6.1-0.8c1.7-0.7,13.6-6,13.6-6s6.2,4.3,10,5.6c3.8,1.3,4.7-0.2,4.6-0.3c-0.4-0.2-2.7-0.8-3.9-4.8
				c2.7,0.9,12.4,5.6,12.6,5.5l-2.9-3.6c2-0.4,6,3.8,6,3.8c1.5-2.2-0.9-5.9,0.3-4.5c0.5,0.5,1.1,2.1,1.7,3.9c1,2.9,0.3,7.8,0.3,7.8
				l1.8-5.8l-0.1-0.5c0.2,0.1,0.4,0.3,0.5,0.3c3.7,1.8,4.9,0.9,4.5,0.7c-2.6-1.5-3.8-7.5-3.8-7.5l4,3.3c0.4-2.2-0.6-1.7,1.2-1.7
				c1.8,0,3.9-2,2.9-1.8c-1,0.2-5.1-1.8-2.5-2.2c2.5-0.4,4.3-2.7,4.3-2.7S177.9,45.4,174.8,46z"/>
		</g>
	</g>
</g>
<g>
	<g>
		<polygon class="st0" points="460.8,114.8 531.5,158.1 460.8,199.1 388.8,157.5 		"/>
		<polygon class="st1" points="460.8,114.8 460.3,199.4 531.5,158.1 		"/>
	</g>
	<g>
		
			<ellipse transform="matrix(0.7831 -0.6219 0.6219 0.7831 20.9325 326.4841)" class="st2" cx="478.5" cy="133.2" rx="3.7" ry="8.8"/>
		<path class="st3" d="M492.5,124.1c0,0-8.3-2.5-12.3-1.1c-4.5,1.6-7.8,3.9-8.7,8.1c-0.8,4.2-4.2,14.2-4.2,14.2s-1,3.1,0.2,4
			c1.4,1.1,3,1.4,4,1.8c1.4,0.6,4.2,1.4,6.1-0.3c2-1.7,4.2-8.7,4.5-10.9c0.3-2.2,7.7,3,14.1,1.3c6.4-1.7,8.5-12.5,8.5-12.5
			L492.5,124.1z"/>
		<path class="st4" d="M473.1,126.6c3.1-0.9,10.5,6.5,10.9,13.5l10.5,1.8l-2.3-18.7c0,0-8.1-2.1-10.4-1.3
			C479.6,122.7,470.3,127.5,473.1,126.6z"/>
		<path class="st4" d="M482.7,96.3c4.5,0,18.2-0.3,20.8-3.6s19.7,17.8,17.6,30.9c-2.4,15.2-12.8,17.4-12.8,17.4
			c-4.1,1.1-7.5,1.9-12-0.7s-7.8-6.6-8.5-20.3C487,106.1,482.7,96.3,482.7,96.3z"/>
		<polyline class="st5" points="487.7,97 493.8,113.8 499.6,94.6 		"/>
		<g>
			<path class="st5" d="M506.6,125.2c0,0-10.9-0.9-13.9,2.1c-3,3.1-4.9,5.6-4.7,9.8c0.2,4.3-0.5,14.8-0.5,14.8s-0.2,3.2,1.2,3.9
				c1.6,0.7,3.2,0.6,4.3,0.8c1.5,0.2,4.4,0.3,5.9-1.8c1.5-2.1,1.9-9.4,1.6-11.7c-0.3-2.2,7.6,2.7,13.4-0.5
				c5.8-3.2,5.7-15.9,5.7-15.9L506.6,125.2z"/>
			<path class="st4" d="M488.7,131.9c0,0,4.6-2.8,9.1,1.3c3.9,3.5,4.9,8.2,4.7,9.7c-0.2,1.5,7.2,2.1,9.3,0.9
				c2.1-1.2,5.6-2.6,6.7-6.7c1.1-4.1,1.9-8.9,2.2-11.2c0.4-2.3-12.1-2.2-12.1-2.2l-15.7,0.6L488.7,131.9z"/>
		</g>
		<g>
			<path class="st6" d="M510.8,97.5c-1.1-0.5-0.7-2.5-5.2-2.9s-5.8,8-5.8,8s-3.8,24.9-3.3,26.1c0.4,1.2,1.7,3.5,3.1,2.7
				c1.4-0.8,5-4.9,5.3-6.2c0.3-1.4,6.8-15.3,6.8-15.3"/>
			<path class="st4" d="M497.1,109.9l15.6,5.6l-0.4-16.9c0,0-1.1-4.7-4.5-4.7c-0.8,0-1.5-1.4-2.4-1.1c-3.6,1.3-6.4,6-7,9.7
				L497.1,109.9z"/>
		</g>
		<g>
			<path class="st7" d="M483.6,97.6c-0.3-0.8-1.2-1.1-1.9-0.7c-2.1,1.3-3.2,3.8-3.1,4.3c0.1,0.6,0.3,18.1,0.6,19.7
				c0.3,1.5,3.5,11.3,4.7,11.3s4.3-0.1,4.5-2c0.1-1.7-1.9-23.3-2.1-25.5c0-0.1,0-0.2-0.1-0.3L483.6,97.6z"/>
			<path class="st4" d="M479.5,98.5c-1.3,1.1-2.3,4-2.3,6.9s0,6,0,7.4c0,1.5,8.2,0.4,9.5,1.5c1.3,1.1,2.2-6.3,2.2-6.3l-2.6-9.7
				c0,0-1-1-2.7-1.7C481.3,95.7,479.5,98.4,479.5,98.5z"/>
		</g>
		<polygon class="st8" points="482.7,96.3 487.4,96.1 493.3,112.3 492.7,115.9 		"/>
		<path class="st9" d="M503.2,93.7c0,0-6.4,19-8.4,24.5c-0.5,1.3-6.6,4.5-6.6,4.5l-0.3-2.4c0,0,2.7-2.6,3.5-3.9
			c2.7-4.4,8.1-21.8,8.1-21.8L503.2,93.7z"/>
		<path class="st10" d="M511.9,34c0,0-17.5-8.2-31.3-2.2c-1.7,0.7-3.3,1.6-4.7,2.6c-8.6,5.9-13,16.2-11.9,26.6
			c0.7,6.9,1.3,15.8,1.3,17c0.1,2.1-0.4,5.6-0.4,8.2s14.9,13.4,25.7,11.5c10.8-1.9,17.1-4.9,23-12c5-6.2,9-18.2,10.2-27.1
			c1-7.5-1.1-14.9-6.3-20.4C515.9,36.4,514,34.9,511.9,34z"/>
		<g>
			<path class="st4" d="M470.9,72.8c0,3.6,1.3,6.6,3,6.6c1.6,0,3-3,3-6.6c0,0-1.7-0.7-3.3-0.7C471.9,72,470.9,72.8,470.9,72.8z"/>
			<path class="st4" d="M491.5,73.9c0,3.6,1.3,6.6,3,6.6s3-3,3-6.6c0,0-1.3-1.2-3-1.2S491.5,73.9,491.5,73.9z"/>
			<path class="st11" d="M481.7,85.7c1.1,0,3.7,0.7,4.1,2.6c0.4,1.9-2.6,2.2-3.7,1.1S481.7,85.7,481.7,85.7z"/>
		</g>
		<ellipse class="st12" cx="498.8" cy="83.3" rx="3.9" ry="2.4"/>
		<ellipse class="st12" cx="469.7" cy="81.6" rx="3.4" ry="2.1"/>
		<path class="st13" d="M520.5,58.1c0.6,2,3.7,5,3.2,6.1c-0.5,1.1-3.9,9.2-5.6,15.3c-1,3.6-7,8.8-7,8.8l-2-14.6l-4.7,1.2l0.2-3.6
			l1.5-0.9l-0.9-0.2c0,0,1.7-1.8,1.7-2.8c0-1.1-2.7-5.4-3.5-5.8c-0.9-0.5,3.6-0.4,3.6-0.4l-3.5-2.8l6.2,0l-6-4.1l3.3,0.5l15.8,3.8"
			/>
		
			<ellipse transform="matrix(0.3513 -0.9363 0.9363 0.3513 261.1049 528.9721)" class="st10" cx="512.3" cy="76.1" rx="8.7" ry="5.2"/>
		<g>
			<path class="st14" d="M529.5,63.3c0.1,0,0.2-0.1,0.2,0C529.8,63.3,529.7,63.3,529.5,63.3z"/>
			<path class="st14" d="M482.3,50.4c0,0,0,0.1-0.1,0.1C482.2,50.4,482.3,50.4,482.3,50.4z"/>
			<path class="st15" d="M453.2,46c3.1,0.7,7.8-5.4,7.8-5.4l-4.1-1.6c0,0,4.2-0.9,3.7-1.3c-2.3-2.1-6.6-0.4-6.3-0.7
				c1.5-1.2,7.2-3.1,7.2-3.1c0.8-2.2-4.7-2-4.5-2.2c2.1-1.9,9.7-1.5,9-2.4c-0.7-1,0.1-6.9,0.2-5.9c0.3,2.6,2.7,6.3,2.9,5.8
				c0.1-0.2-0.9-4.5-0.4-3.8c0.9,1.3,5.9,1.1,5.7,0.9c-1.8-1.6-1.6-11.7-1.6-11.7s1.1,5,7,9c3.6,2.4,3.9,1.3,3.9,1.3
				c-4.2-3.6-2.5-7.5-2.3-7.2c1.6,4.1,3.8,4.4,3.3,4c-1.3-1-2.9-11.3-2.7-10.5c0.3,1.3,2,2.5,3.3,3.6s7,4,8.8,4.3
				c1.8,0.2,7.4,1.3,8.6,1.6s6.8,3.6,6.8,3.6s-5.2-6.1-4.3-5.6c2.1,1.1,4.9,2.6,7,3.8c2.2,1.3,3.1,2.6,4.5,4.1
				c1.4,1.6,1.6,5.3,0.6,8.9c0,0,8.3-2,8.3-1.8c-0.2,3.2-4.4,6.4-4.3,6.6c0.8,0.8,3.3-1.4,3.2-1.2c-0.5,3-3.6,3.9-1.9,3.6
				c1.7-0.3,7.3,2.1,6.2,2.5c-1.1,0.4-3.5,3.9-3.5,3.9s3.1-0.9,2.3-0.4c-0.7,0.4-3.1,6.4-2.2,6.1c0.5-0.2,3.3-1.1,4.8-1.8
				c-1.6,2.3-4.1,7.7-4.1,7.7s2.1,2.8,2.8,2.8c-1.1,0.3-4.7,0.2-4,0.4c0.7,0.3,2.6,6.1,2.1,4.9c-0.5-1.2-5.1-2.8-5.6-2.5
				c-0.5,0.3,1.6,4.9,1.2,4.3c-0.4-0.6-6.2-4.5-6.2-4.5s1.9,3.7,1.4,3.4c-0.5-0.3-5.3-6.1-5.3-6.1l-3.8,1.6l-8.9-8.1
				c0,0,6.9-0.5,6.1-0.8c-1.7-0.7-13.6-6-13.6-6s-6.2,4.3-10,5.6c-3.8,1.3-4.7-0.2-4.6-0.3c0.4-0.2,2.7-0.8,3.9-4.8
				c-2.7,0.9-12.4,5.6-12.6,5.5l2.9-3.6c-2-0.4-6,3.8-6,3.8c-1.5-2.2,0.9-5.9-0.3-4.5c-0.5,0.5-1.1,2.1-1.7,3.9
				c-1,2.9-0.3,7.8-0.3,7.8l-1.8-5.8l0.1-0.5c-0.2,0.1-0.4,0.3-0.5,0.3c-3.7,1.8-4.9,0.9-4.5,0.7c2.6-1.5,3.8-7.5,3.8-7.5l-4,3.3
				c-0.4-2.2,0.6-1.7-1.2-1.7c-1.8,0-3.9-2-2.9-1.8c1,0.2,5.1-1.8,2.5-2.2c-2.5-0.4-4.3-2.7-4.3-2.7S450.1,45.4,453.2,46z"/>
		</g>
	</g>
</g>
<g>
	<g>
		<polygon class="st0" points="814.3,114.8 884.9,158.1 814.3,199.1 742.3,157.5 		"/>
		<polygon class="st1" points="814.3,114.8 813.7,199.4 884.9,158.1 		"/>
	</g>
	<g>
		<ellipse transform="matrix(0.7831 -0.6219 0.6219 0.7831 97.5852 546.2785)" class="st2" cx="832" cy="133.2" rx="3.7" ry="8.8"/>
		<path class="st3" d="M846,124.1c0,0-8.3-2.5-12.3-1.1c-4.5,1.6-7.8,3.9-8.7,8.1c-0.8,4.2-4.2,14.2-4.2,14.2s-1,3.1,0.2,4
			c1.4,1.1,3,1.4,4,1.8c1.4,0.6,4.2,1.4,6.1-0.3c2-1.7,4.2-8.7,4.5-10.9c0.3-2.2,7.7,3,14.1,1.3c6.4-1.7,8.5-12.5,8.5-12.5
			L846,124.1z"/>
		<path class="st4" d="M826.6,126.6c3.1-0.9,10.5,6.5,10.9,13.5L848,142l-2.3-18.7c0,0-8.1-2.1-10.4-1.3
			C833,122.7,823.8,127.5,826.6,126.6z"/>
		<path class="st4" d="M836.1,96.3c4.5,0,18.2-0.3,20.8-3.6c2.6-3.3,19.7,17.8,17.6,30.9c-2.4,15.2-12.8,17.4-12.8,17.4
			c-4.1,1.1-7.5,1.9-12-0.7c-4.5-2.6-7.8-6.6-8.5-20.3C840.5,106.1,836.1,96.3,836.1,96.3z"/>
		<polyline class="st5" points="841.1,97 847.2,113.8 853,94.6 		"/>
		<g>
			<path class="st5" d="M860,125.2c0,0-10.9-0.9-13.9,2.1c-3,3.1-4.9,5.6-4.7,9.8c0.2,4.3-0.5,14.8-0.5,14.8s-0.2,3.2,1.2,3.9
				c1.6,0.7,3.2,0.6,4.3,0.8c1.5,0.2,4.4,0.3,5.9-1.8s1.9-9.4,1.6-11.7s7.6,2.7,13.4-0.5c5.8-3.2,5.7-15.9,5.7-15.9L860,125.2z"/>
			<path class="st4" d="M842.1,131.9c0,0,4.6-2.8,9.1,1.3c3.9,3.5,4.9,8.2,4.7,9.7c-0.2,1.5,7.2,2.1,9.3,0.9
				c2.1-1.2,5.6-2.6,6.7-6.7c1.1-4.1,1.9-8.9,2.2-11.2s-12.1-2.2-12.1-2.2l-15.7,0.6L842.1,131.9z"/>
		</g>
		<g>
			<path class="st6" d="M864.3,97.5c-1.1-0.5-0.7-2.5-5.2-2.9c-4.6-0.4-5.8,8-5.8,8s-3.8,24.9-3.3,26.1c0.4,1.2,1.7,3.5,3.1,2.7
				c1.4-0.8,5-4.9,5.3-6.2c0.3-1.4,6.8-15.3,6.8-15.3"/>
			<path class="st4" d="M850.6,109.9l15.6,5.6l-0.4-16.9c0,0-1.1-4.7-4.5-4.7c-0.8,0-1.5-1.4-2.4-1.1c-3.6,1.3-6.4,6-7,9.7
				L850.6,109.9z"/>
		</g>
		<g>
			<path class="st7" d="M837,97.6c-0.3-0.8-1.2-1.1-1.9-0.7c-2.1,1.3-3.2,3.8-3.1,4.3c0.1,0.6,0.3,18.1,0.6,19.7
				c0.3,1.5,3.5,11.3,4.7,11.3c1.3,0,4.3-0.1,4.5-2c0.1-1.7-1.9-23.3-2.1-25.5c0-0.1,0-0.2-0.1-0.3L837,97.6z"/>
			<path class="st4" d="M832.9,98.5c-1.3,1.1-2.3,4-2.3,6.9s0,6,0,7.4c0,1.5,8.2,0.4,9.5,1.5c1.3,1.1,2.2-6.3,2.2-6.3l-2.6-9.7
				c0,0-1-1-2.7-1.7C834.8,95.7,832.9,98.4,832.9,98.5z"/>
		</g>
		<polygon class="st8" points="836.1,96.3 840.8,96.1 846.7,112.3 846.1,115.9 		"/>
		<path class="st9" d="M856.7,93.7c0,0-6.4,19-8.4,24.5c-0.5,1.3-6.6,4.5-6.6,4.5l-0.3-2.4c0,0,2.7-2.6,3.5-3.9
			c2.7-4.4,8.1-21.8,8.1-21.8L856.7,93.7z"/>
		<path class="st10" d="M865.3,34c0,0-17.5-8.2-31.3-2.2c-1.7,0.7-3.3,1.6-4.7,2.6c-8.6,5.9-13,16.2-11.9,26.6
			c0.7,6.9,1.3,15.8,1.3,17c0.1,2.1-0.4,5.6-0.4,8.2s14.9,13.4,25.7,11.5c10.8-1.9,17.1-4.9,23-12c5-6.2,9-18.2,10.2-27.1
			c1-7.5-1.1-14.9-6.3-20.4C869.4,36.4,867.5,34.9,865.3,34z"/>
		<g>
			<ellipse class="st4" cx="827.3" cy="72.8" rx="3" ry="6.6"/>
			<ellipse class="st4" cx="847.9" cy="73.9" rx="3" ry="6.6"/>
			<path class="st11" d="M835.6,87.8c1.1,0,3.6,0.4,3.6,0.4c0.4,1.9-2.6,2.2-3.7,1.1S835.6,87.8,835.6,87.8z"/>
		</g>
		<ellipse class="st12" cx="852.2" cy="83.3" rx="3.9" ry="2.4"/>
		<ellipse class="st12" cx="823.1" cy="81.6" rx="3.4" ry="2.1"/>
		<path class="st13" d="M873.9,58.1c0.6,2,3.7,5,3.2,6.1c-0.5,1.1-3.9,9.2-5.6,15.3c-1,3.6-7,8.8-7,8.8l-2-14.6l-4.7,1.2l0.2-3.6
			l1.5-0.9l-0.9-0.2c0,0,1.7-1.8,1.7-2.8c0-1.1-2.7-5.4-3.5-5.8c-0.9-0.5,3.6-0.4,3.6-0.4l-3.5-2.8l6.2,0l-6-4.1l3.3,0.5l15.8,3.8"
			/>
		
			<ellipse transform="matrix(0.3513 -0.9363 0.9363 0.3513 490.4022 859.8972)" class="st10" cx="865.7" cy="76.1" rx="8.7" ry="5.2"/>
		<g>
			<path class="st14" d="M882.9,63.3c0.1,0,0.2-0.1,0.2,0C883.3,63.3,883.2,63.3,882.9,63.3z"/>
			<path class="st14" d="M835.7,50.4c0,0,0,0.1-0.1,0.1C835.7,50.4,835.7,50.4,835.7,50.4z"/>
			<path class="st15" d="M806.7,46c3.1,0.7,7.8-5.4,7.8-5.4l-4.1-1.6c0,0,4.2-0.9,3.7-1.3c-2.3-2.1-6.6-0.4-6.3-0.7
				c1.5-1.2,7.2-3.1,7.2-3.1c0.8-2.2-4.7-2-4.5-2.2c2.1-1.9,9.7-1.5,9-2.4c-0.7-1,0.1-6.9,0.2-5.9c0.3,2.6,2.7,6.3,2.9,5.8
				c0.1-0.2-0.9-4.5-0.4-3.8c0.9,1.3,5.9,1.1,5.7,0.9c-1.8-1.6-1.6-11.7-1.6-11.7s1.1,5,7,9c3.6,2.4,3.9,1.3,3.9,1.3
				c-4.2-3.6-2.5-7.5-2.3-7.2c1.6,4.1,3.8,4.4,3.3,4c-1.3-1-2.9-11.3-2.7-10.5c0.3,1.3,2,2.5,3.3,3.6s7,4,8.8,4.3
				c1.8,0.2,7.4,1.3,8.6,1.6s6.8,3.6,6.8,3.6s-5.2-6.1-4.3-5.6c2.1,1.1,4.9,2.6,7,3.8c2.2,1.3,3.1,2.6,4.5,4.1
				c1.4,1.6,1.6,5.3,0.6,8.9c0,0,8.3-2,8.3-1.8c-0.2,3.2-4.4,6.4-4.3,6.6c0.8,0.8,3.3-1.4,3.2-1.2c-0.5,3-3.6,3.9-1.9,3.6
				c1.7-0.3,7.3,2.1,6.2,2.5c-1.1,0.4-3.5,3.9-3.5,3.9s3.1-0.9,2.3-0.4c-0.7,0.4-3.1,6.4-2.2,6.1c0.5-0.2,3.3-1.1,4.8-1.8
				c-1.6,2.3-4.1,7.7-4.1,7.7s2.1,2.8,2.8,2.8c-1.1,0.3-4.7,0.2-4,0.4c0.7,0.3,2.6,6.1,2.1,4.9c-0.5-1.2-5.1-2.8-5.6-2.5
				c-0.5,0.3,1.6,4.9,1.2,4.3c-0.4-0.6-6.2-4.5-6.2-4.5s1.9,3.7,1.4,3.4c-0.5-0.3-5.3-6.1-5.3-6.1l-3.8,1.6l-8.9-8.1
				c0,0,6.9-0.5,6.1-0.8c-1.7-0.7-13.6-6-13.6-6s-6.2,4.3-10,5.6c-3.8,1.3-4.7-0.2-4.6-0.3c0.4-0.2,2.7-0.8,3.9-4.8
				c-2.7,0.9-12.4,5.6-12.6,5.5l2.9-3.6c-2-0.4-6,3.8-6,3.8c-1.5-2.2,0.9-5.9-0.3-4.5c-0.5,0.5-1.1,2.1-1.7,3.9
				c-1,2.9-0.3,7.8-0.3,7.8l-1.8-5.8l0.1-0.5c-0.2,0.1-0.4,0.3-0.5,0.3c-3.7,1.8-4.9,0.9-4.5,0.7c2.6-1.5,3.8-7.5,3.8-7.5l-4,3.3
				c-0.4-2.2,0.6-1.7-1.2-1.7c-1.8,0-3.9-2-2.9-1.8c1,0.2,5.1-1.8,2.5-2.2c-2.5-0.4-4.3-2.7-4.3-2.7S803.6,45.4,806.7,46z"/>
		</g>
	</g>
</g>
<g>
	<g>
		<polygon class="st0" points="991,114.8 1061.7,158.1 991,199.1 919,157.5 		"/>
		<polygon class="st1" points="991,114.8 990.5,199.4 1061.7,158.1 		"/>
	</g>
	<g>
		<g>
			<path class="st7" d="M1013.7,97.6c-0.3-0.8-1.2-1.1-1.9-0.7c-2.1,1.3-3.2,3.8-3.1,4.3c0.1,0.6,0.3,18.1,0.6,19.7
				c0.3,1.5,3.5,11.3,4.7,11.3s4.3-0.1,4.5-2c0.1-1.7-1.9-23.3-2.1-25.5c0-0.1,0-0.2-0.1-0.3L1013.7,97.6z"/>
			<path class="st4" d="M1009.7,98.5c-1.3,1.1-2.3,4-2.3,6.9s0,6,0,7.4c0,1.5,8.2,0.4,9.5,1.5c1.3,1.1,2.2-6.3,2.2-6.3l-2.6-9.7
				c0,0-1-1-2.7-1.7C1011.5,95.7,1009.6,98.4,1009.7,98.5z"/>
		</g>
		
			<ellipse transform="matrix(0.7831 -0.6219 0.6219 0.7831 135.9115 656.1757)" class="st2" cx="1008.7" cy="133.2" rx="3.7" ry="8.8"/>
		<path class="st3" d="M1022.7,124.1c0,0-8.3-2.5-12.3-1.1c-4.5,1.6-7.8,3.9-8.7,8.1c-0.8,4.2-4.2,14.2-4.2,14.2s-1,3.1,0.2,4
			c1.4,1.1,3,1.4,4,1.8c1.4,0.6,4.2,1.4,6.1-0.3c2-1.7,4.2-8.7,4.5-10.9c0.3-2.2,7.7,3,14.1,1.3c6.4-1.7,8.5-12.5,8.5-12.5
			L1022.7,124.1z"/>
		<path class="st4" d="M1003.3,126.6c3.1-0.9,10.5,6.5,10.9,13.5l10.5,1.8l-2.3-18.7c0,0-8.1-2.1-10.4-1.3
			C1009.8,122.7,1000.5,127.5,1003.3,126.6z"/>
		<path class="st4" d="M1012.9,96.3c4.5,0,18.2-0.3,20.8-3.6c2.6-3.3,19.7,17.8,17.6,30.9c-2.4,15.2-12.8,17.4-12.8,17.4
			c-4.1,1.1-7.5,1.9-12-0.7s-7.8-6.6-8.5-20.3C1017.2,106.1,1012.9,96.3,1012.9,96.3z"/>
		<polyline class="st5" points="1017.9,97 1023.9,113.8 1029.7,94.6 		"/>
		<g>
			<path class="st5" d="M1036.8,125.2c0,0-10.9-0.9-13.9,2.1c-3,3.1-4.9,5.6-4.7,9.8c0.2,4.3-0.5,14.8-0.5,14.8s-0.2,3.2,1.2,3.9
				c1.6,0.7,3.2,0.6,4.3,0.8c1.5,0.2,4.4,0.3,5.9-1.8c1.5-2.1,1.9-9.4,1.6-11.7c-0.3-2.2,7.6,2.7,13.4-0.5
				c5.8-3.2,5.7-15.9,5.7-15.9L1036.8,125.2z"/>
			<path class="st4" d="M1018.9,131.9c0,0,4.6-2.8,9.1,1.3c3.9,3.5,4.9,8.2,4.7,9.7c-0.2,1.5,7.2,2.1,9.3,0.9
				c2.1-1.2,5.6-2.6,6.7-6.7c1.1-4.1,1.9-8.9,2.2-11.2s-12.1-2.2-12.1-2.2l-15.7,0.6L1018.9,131.9z"/>
		</g>
		<g>
			<path class="st6" d="M1038.2,96.5c-1.2,0.2-2-1.6-5.9,0.8s0.1,9.9,0.1,9.9s11.9,22.2,12.9,22.9s3.4,1.8,4.1,0.3s1.1-6.9,0.5-8.2
				c-0.6-1.3-3.7-16.3-3.7-16.3"/>
			<path class="st4" d="M1034.6,114.6l15.9-4.9L1040,96.3c0,0-3.7-3.1-6.4-1.1c-0.6,0.5-2-0.2-2.6,0.6c-2.1,3.1-1.5,8.6,0.2,12
				L1034.6,114.6z"/>
		</g>
		<polygon class="st8" points="1012.9,96.3 1017.5,96.1 1023.5,112.3 1022.8,115.9 		"/>
		<path class="st9" d="M1033.4,93.7c0,0-6.4,19-8.4,24.5c-0.5,1.3-6.6,4.5-6.6,4.5l-0.3-2.4c0,0,2.7-2.6,3.5-3.9
			c2.7-4.4,8.1-21.8,8.1-21.8L1033.4,93.7z"/>
		<path class="st10" d="M1042.1,34c0,0-17.5-8.2-31.3-2.2c-1.7,0.7-3.3,1.6-4.7,2.6c-8.6,5.9-13,16.2-11.9,26.6
			c0.7,6.9,1.3,15.8,1.3,17c0.1,2.1-0.4,5.6-0.4,8.2s14.9,13.4,25.7,11.5c10.8-1.9,17.1-4.9,23-12c5-6.2,9-18.2,10.2-27.1
			c1-7.5-1.1-14.9-6.3-20.4C1046.1,36.4,1044.2,34.9,1042.1,34z"/>
		<g>
			<ellipse class="st4" cx="1004.1" cy="72.8" rx="3" ry="6.6"/>
			<ellipse class="st4" cx="1024.6" cy="73.9" rx="3" ry="6.6"/>
			<path class="st11" d="M1012.3,87.8c1.1,0,3.6,0.4,3.6,0.4c0.4,1.9-2.6,2.2-3.7,1.1S1012.3,87.8,1012.3,87.8z"/>
		</g>
		<ellipse class="st12" cx="1028.9" cy="83.3" rx="3.9" ry="2.4"/>
		<ellipse class="st12" cx="999.8" cy="81.6" rx="3.4" ry="2.1"/>
		<path class="st13" d="M1050.7,58.1c0.6,2,3.7,5,3.2,6.1c-0.5,1.1-3.9,9.2-5.6,15.3c-1,3.6-7,8.8-7,8.8l-2-14.6l-4.7,1.2l0.2-3.6
			l1.5-0.9l-0.9-0.2c0,0,1.7-1.8,1.7-2.8c0-1.1-2.7-5.4-3.5-5.8c-0.9-0.5,3.6-0.4,3.6-0.4l-3.5-2.8l6.2,0l-6-4.1l3.3,0.5l15.8,3.8"
			/>
		
			<ellipse transform="matrix(0.3513 -0.9363 0.9363 0.3513 605.0508 1025.3597)" class="st10" cx="1042.4" cy="76.1" rx="8.7" ry="5.2"/>
		<g>
			<path class="st14" d="M1059.6,63.3c0.1,0,0.2-0.1,0.2,0C1060,63.3,1059.9,63.3,1059.6,63.3z"/>
			<path class="st14" d="M1012.4,50.4c0,0,0,0.1-0.1,0.1C1012.4,50.4,1012.4,50.4,1012.4,50.4z"/>
			<path class="st15" d="M983.4,46c3.1,0.7,7.8-5.4,7.8-5.4l-4.1-1.6c0,0,4.2-0.9,3.7-1.3c-2.3-2.1-6.6-0.4-6.3-0.7
				c1.5-1.2,7.2-3.1,7.2-3.1c0.8-2.2-4.7-2-4.5-2.2c2.1-1.9,9.7-1.5,9-2.4c-0.7-1,0.1-6.9,0.2-5.9c0.3,2.6,2.7,6.3,2.9,5.8
				c0.1-0.2-0.9-4.5-0.4-3.8c0.9,1.3,5.9,1.1,5.7,0.9c-1.8-1.6-1.6-11.7-1.6-11.7s1.1,5,7,9c3.6,2.4,3.9,1.3,3.9,1.3
				c-4.2-3.6-2.5-7.5-2.3-7.2c1.6,4.1,3.8,4.4,3.3,4c-1.3-1-2.9-11.3-2.7-10.5c0.3,1.3,2,2.5,3.3,3.6s7,4,8.8,4.3
				c1.8,0.2,7.4,1.3,8.6,1.6s6.8,3.6,6.8,3.6s-5.2-6.1-4.3-5.6c2.1,1.1,4.9,2.6,7,3.8c2.2,1.3,3.1,2.6,4.5,4.1
				c1.4,1.6,1.6,5.3,0.6,8.9c0,0,8.3-2,8.3-1.8c-0.2,3.2-4.4,6.4-4.3,6.6c0.8,0.8,3.3-1.4,3.2-1.2c-0.5,3-3.6,3.9-1.9,3.6
				c1.7-0.3,7.3,2.1,6.2,2.5c-1.1,0.4-3.5,3.9-3.5,3.9s3.1-0.9,2.3-0.4c-0.7,0.4-3.1,6.4-2.2,6.1c0.5-0.2,3.3-1.1,4.8-1.8
				c-1.6,2.3-4.1,7.7-4.1,7.7s2.1,2.8,2.8,2.8c-1.1,0.3-4.7,0.2-4,0.4c0.7,0.3,2.6,6.1,2.1,4.9c-0.5-1.2-5.1-2.8-5.6-2.5
				c-0.5,0.3,1.6,4.9,1.2,4.3c-0.4-0.6-6.2-4.5-6.2-4.5s1.9,3.7,1.4,3.4c-0.5-0.3-5.3-6.1-5.3-6.1l-3.8,1.6l-8.9-8.1
				c0,0,6.9-0.5,6.1-0.8c-1.7-0.7-13.6-6-13.6-6s-6.2,4.3-10,5.6c-3.8,1.3-4.7-0.2-4.6-0.3c0.4-0.2,2.7-0.8,3.9-4.8
				c-2.7,0.9-12.4,5.6-12.6,5.5l2.9-3.6c-2-0.4-6,3.8-6,3.8c-1.5-2.2,0.9-5.9-0.3-4.5c-0.5,0.5-1.1,2.1-1.7,3.9
				c-1,2.9-0.3,7.8-0.3,7.8l-1.8-5.8l0.1-0.5c-0.2,0.1-0.4,0.3-0.5,0.3c-3.7,1.8-4.9,0.9-4.5,0.7c2.6-1.5,3.8-7.5,3.8-7.5l-4,3.3
				c-0.4-2.2,0.6-1.7-1.2-1.7c-1.8,0-3.9-2-2.9-1.8c1,0.2,5.1-1.8,2.5-2.2c-2.5-0.4-4.3-2.7-4.3-2.7S980.3,45.4,983.4,46z"/>
		</g>
	</g>
</g>
<g>
	<g>
		<polygon class="st0" points="1167.7,114.8 1238.4,158.1 1167.7,199.1 1095.7,157.5 		"/>
		<polygon class="st1" points="1167.7,114.8 1167.2,199.4 1238.4,158.1 		"/>
	</g>
	<g>
		<g>
			<path class="st7" d="M1191.6,95.5c-0.1-0.8-1-1.3-1.7-1c-2.4,0.8-3.9,3.1-3.9,3.5c0,0.6-3.5,17.8-3.5,19.4s1.1,11.8,2.3,12
				c1.2,0.3,4.3,0.8,4.8-1c0.5-1.7,3-23.2,3.3-25.4c0-0.1,0-0.2,0-0.4L1191.6,95.5z"/>
			<path class="st4" d="M1187.5,95.6c-1.5,0.8-3,3.4-3.7,6.3c-0.6,2.9-1.2,5.8-1.5,7.3c-0.3,1.5,7.9,2.1,9,3.4
				c1,1.4,3.5-5.7,3.5-5.7l-0.5-10c0,0-0.7-1.2-2.3-2.2C1189.8,93.2,1187.5,95.5,1187.5,95.6z"/>
		</g>
		
			<ellipse transform="matrix(0.7831 -0.6219 0.6219 0.7831 174.2378 766.0729)" class="st2" cx="1185.4" cy="133.2" rx="3.7" ry="8.8"/>
		<path class="st3" d="M1199.4,124.1c0,0-8.3-2.5-12.3-1.1c-4.5,1.6-7.8,3.9-8.7,8.1c-0.8,4.2-4.2,14.2-4.2,14.2s-1,3.1,0.2,4
			c1.4,1.1,3,1.4,4,1.8c1.4,0.6,4.2,1.4,6.1-0.3c2-1.7,4.2-8.7,4.5-10.9c0.3-2.2,7.7,3,14.1,1.3c6.4-1.7,8.5-12.5,8.5-12.5
			L1199.4,124.1z"/>
		<path class="st4" d="M1180,126.6c3.1-0.9,10.5,6.5,10.9,13.5l10.5,1.8l-2.3-18.7c0,0-8.1-2.1-10.4-1.3
			C1186.5,122.7,1177.2,127.5,1180,126.6z"/>
		<path class="st4" d="M1189.6,102.4c4.3,0,17.4-0.2,19.9-3.1c2.5-2.9,18.9,15.5,16.9,26.8c-2.3,13.2-12.3,15.2-12.3,15.2
			c-3.9,1-7.2,1.6-11.5-0.6s-7.5-5.7-8.2-17.7C1193.8,110.8,1189.6,102.4,1189.6,102.4z"/>
		<polyline class="st5" points="1194.6,103 1200.7,117.5 1206.5,100.8 		"/>
		<g>
			<path class="st5" d="M1213.5,125.2c0,0-10.9-0.9-13.9,2.1c-3,3.1-4.9,5.6-4.7,9.8c0.2,4.3-0.5,14.8-0.5,14.8s-0.2,3.2,1.2,3.9
				c1.6,0.7,3.2,0.6,4.3,0.8c1.5,0.2,4.4,0.3,5.9-1.8s1.9-9.4,1.6-11.7c-0.3-2.2,7.6,2.7,13.4-0.5c5.8-3.2,5.7-15.9,5.7-15.9
				L1213.5,125.2z"/>
			<path class="st4" d="M1195.6,131.9c0,0,4.6-2.8,9.1,1.3c3.9,3.5,4.9,8.2,4.7,9.7c-0.2,1.5,7.2,2.1,9.3,0.9
				c2.1-1.2,5.3-2.1,6.4-6.2c1.1-4.1,1.5-9,1.5-11.6c0-2.3-11-2.3-11-2.3l-15.7,0.6L1195.6,131.9z"/>
		</g>
		<g>
			<path class="st6" d="M1220,109.1c-1.2-0.2-1.3-2.3-5.8-1.4c-4.5,0.9-3.5,9.3-3.5,9.3s3,25,3.7,26.1s2.6,2.9,3.7,1.8
				s3.5-6,3.5-7.4c-0.1-1.4,2.5-16.5,2.5-16.5"/>
			<path class="st4" d="M1210,124.7l16.5,1.2l-4.2-14c-0.7-2.3-2.3-4.2-4.5-5c-0.5-0.2-1.1-0.4-1.7-0.5c-1-0.1-2.8-0.1-3.6,0.5
				c-3.1,2.2-3.5,6.6-3.2,10.4L1210,124.7z"/>
		</g>
		<polygon class="st8" points="1189.6,102.4 1194.3,102.2 1200.2,116.2 1199.6,119.3 		"/>
		<path class="st9" d="M1210.1,100c0,0-6.4,16.5-8.4,21.3c-0.5,1.2-6.6,3.9-6.6,3.9l-0.3-2.1c0,0,2.7-2.3,3.5-3.4
			c2.7-3.9,8.1-19,8.1-19L1210.1,100z"/>
		<path class="st10" d="M1219.5,40.6c0,0-17.5-8.2-31.3-2.2c-1.7,0.7-3.3,1.6-4.7,2.6c-8.6,5.9-13,16.2-11.9,26.6
			c0.7,6.9,1.3,15.8,1.3,17c0.1,2.1-0.4,5.6-0.4,8.2s14.9,13.4,25.7,11.5c10.8-1.9,17.1-4.9,23-12c5-6.2,9-18.2,10.2-27.1
			c1-7.5-1.1-14.9-6.3-20.4C1223.6,43,1221.7,41.6,1219.5,40.6z"/>
		<g>
			<ellipse class="st4" cx="1181.5" cy="79.4" rx="3" ry="6.6"/>
			<ellipse class="st4" cx="1202.1" cy="80.5" rx="3" ry="6.6"/>
			<path class="st11" d="M1189.8,94.5c1.1,0,3.6,0.4,3.6,0.4c0.4,1.9-2.6,2.2-3.7,1.1C1188.6,94.9,1189.8,94.5,1189.8,94.5z"/>
		</g>
		<ellipse class="st12" cx="1206.4" cy="90" rx="3.9" ry="2.4"/>
		<ellipse class="st12" cx="1177.3" cy="88.2" rx="3.4" ry="2.1"/>
		<path class="st13" d="M1228.1,64.7c0.6,2,3.7,5,3.2,6.1c-0.5,1.1-3.9,9.2-5.6,15.3c-1,3.6-7,8.8-7,8.8l-2-14.6l-4.7,1.2l0.2-3.6
			l1.5-0.9l-0.9-0.2c0,0,1.7-1.8,1.7-2.8s-2.7-5.4-3.5-5.8s3.6-0.4,3.6-0.4l-3.5-2.8l6.2,0l-6-4.1l3.3,0.5l15.8,3.8"/>
		
			<ellipse transform="matrix(0.3513 -0.9363 0.9363 0.3513 713.9988 1195.8344)" class="st10" cx="1219.9" cy="82.7" rx="8.7" ry="5.2"/>
		<g>
			<path class="st14" d="M1237.1,69.9c0.1,0,0.2-0.1,0.2,0C1237.5,69.9,1237.4,69.9,1237.1,69.9z"/>
			<path class="st14" d="M1189.9,57c0,0,0,0.1-0.1,0.1C1189.9,57,1189.9,57,1189.9,57z"/>
			<path class="st15" d="M1160.9,52.7c3.1,0.7,7.8-5.4,7.8-5.4l-4.1-1.6c0,0,4.2-0.9,3.7-1.3c-2.3-2.1-6.6-0.4-6.3-0.7
				c1.5-1.2,7.2-3.1,7.2-3.1c0.8-2.2-4.7-2-4.5-2.2c2.1-1.9,9.7-1.5,9-2.4c-0.7-1,0.1-6.9,0.2-5.9c0.3,2.6,2.7,6.3,2.9,5.8
				c0.1-0.2-0.9-4.5-0.4-3.8c0.9,1.3,5.9,1.1,5.7,0.9c-1.8-1.6-1.6-11.7-1.6-11.7s1.1,5,7,9c3.6,2.4,3.9,1.3,3.9,1.3
				c-4.2-3.6-2.5-7.5-2.3-7.2c1.6,4.1,3.8,4.4,3.3,4c-1.3-1-2.9-11.3-2.7-10.5c0.3,1.3,2,2.5,3.3,3.6s7,4,8.8,4.3
				c1.8,0.2,7.4,1.3,8.6,1.6s6.8,3.6,6.8,3.6s-5.2-6.1-4.3-5.6c2.1,1.1,4.9,2.6,7,3.8c2.2,1.3,3.1,2.6,4.5,4.1
				c1.4,1.6,1.6,5.3,0.6,8.9c0,0,8.3-2,8.3-1.8c-0.2,3.2-4.4,6.4-4.3,6.6c0.8,0.8,3.3-1.4,3.2-1.2c-0.5,3-3.6,3.9-1.9,3.6
				c1.7-0.3,7.3,2.1,6.2,2.5c-1.1,0.4-3.5,3.9-3.5,3.9s3.1-0.9,2.3-0.4c-0.7,0.4-3.1,6.4-2.2,6.1c0.5-0.2,3.3-1.1,4.8-1.8
				c-1.6,2.3-4.1,7.7-4.1,7.7s2.1,2.8,2.8,2.8c-1.1,0.3-4.7,0.2-4,0.4c0.7,0.3,2.6,6.1,2.1,4.9c-0.5-1.2-5.1-2.8-5.6-2.5
				c-0.5,0.3,1.6,4.9,1.2,4.3c-0.4-0.6-6.2-4.5-6.2-4.5s1.9,3.7,1.4,3.4c-0.5-0.3-5.3-6.1-5.3-6.1l-3.8,1.6l-8.9-8.1
				c0,0,6.9-0.5,6.1-0.8c-1.7-0.7-13.6-6-13.6-6s-6.2,4.3-10,5.6c-3.8,1.3-4.7-0.2-4.6-0.3c0.4-0.2,2.7-0.8,3.9-4.8
				c-2.7,0.9-12.4,5.6-12.6,5.5l2.9-3.6c-2-0.4-6,3.8-6,3.8c-1.5-2.2,0.9-5.9-0.3-4.5c-0.5,0.5-1.1,2.1-1.7,3.9
				c-1,2.9-0.3,7.8-0.3,7.8l-1.8-5.8l0.1-0.5c-0.2,0.1-0.4,0.3-0.5,0.3c-3.7,1.8-4.9,0.9-4.5,0.7c2.6-1.5,3.8-7.5,3.8-7.5l-4,3.3
				c-0.4-2.2,0.6-1.7-1.2-1.7c-1.8,0-3.9-2-2.9-1.8c1,0.2,5.1-1.8,2.5-2.2c-2.5-0.4-4.3-2.7-4.3-2.7S1157.8,52,1160.9,52.7z"/>
		</g>
	</g>
</g>
<g>
	<g>
		<polygon class="st0" points="1344.5,114.8 1415.1,158.1 1344.5,199.1 1272.5,157.5 		"/>
		<polygon class="st1" points="1344.5,114.8 1343.9,199.4 1415.1,158.1 		"/>
	</g>
	<g>
		<g>
			<path class="st3" d="M1370.6,131.8c-0.9-0.7-0.2-2.6-4.2-3.7c-3.9-1.1-6.2,7-6.2,7s-8.3,25.9-7.5,27.3c1.9,3.2,8.7,3.8,9.1,2.5
				c0.4-1.3,7.8-20.7,7.8-20.7"/>
			<path class="st4" d="M1355.1,147.9l10.8,4.3c0.8,0.3,1.6-0.1,1.8-0.9l4.5-16.9c0-0.1,0-0.2,0-0.4c0-2.6-1.1-5.1-3.1-6.7
				c-0.5-0.4-1.1-0.8-1.8-1.1c-1.1-0.5-3.1-1.1-4.1-0.8c-4.1,1.2-6.1,5.8-7,9.8l-1.9,11C1354.2,147.1,1354.5,147.7,1355.1,147.9z"/>
		</g>
		<g>
			<path class="st7" d="M1363.2,102.5c0.4-0.7,0.2-1.6-0.6-1.9c-2.3-1-4.9-0.4-5.3,0c-0.4,0.4-14.6,10.7-15.7,11.8
				c-1.1,1.1-7.2,9.4-6.5,10.4c0.7,1,2.6,3.4,4.2,2.5c1.5-0.9,17.9-15,19.6-16.4c0.1-0.1,0.2-0.2,0.2-0.3L1363.2,102.5z"/>
			<path class="st4" d="M1360.1,99.8c-1.7-0.4-4.5,0.4-7,2.1s-4.9,3.4-6.1,4.3s4.4,6.9,4.3,8.6c-0.2,1.7,6.5-1.8,6.5-1.8l6.4-7.7
				c0,0,0.3-1.4-0.2-3.2C1363.5,99.6,1360.2,99.7,1360.1,99.8z"/>
		</g>
		<path class="st4" d="M1353.2,105.1c4.3,0,23.1-2.3,25.6-5.2c2.5-2.9,8.5,21.1,6.6,32.5c-2.3,13.2-7.6,11.5-7.6,11.5
			c-3.9,1-7.2,1.6-11.5-0.6c-4.3-2.3-7.5-5.7-8.2-17.7C1357.4,113.5,1353.2,105.1,1353.2,105.1z"/>
		<polyline class="st5" points="1358.2,105.7 1364.3,120.2 1370.1,103.6 		"/>
		<polygon class="st8" points="1353.2,105.1 1357.9,104.9 1363.8,118.9 1363.2,122 		"/>
		<path class="st9" d="M1373.7,102.8c0,0-6.4,16.5-8.4,21.3c-0.5,1.2-6.6,3.9-6.6,3.9l-0.3-2.1c0,0,2.7-2.3,3.5-3.4
			c2.7-3.9,8.1-19,8.1-19L1373.7,102.8z"/>
		<path class="st10" d="M1383.2,43.3c0,0-17.5-8.2-31.3-2.2c-1.7,0.7-3.3,1.6-4.7,2.6c-8.6,5.9-13,16.2-11.9,26.6
			c0.7,6.9,1.3,15.8,1.3,17c0.1,2.1-0.4,5.6-0.4,8.2s14.9,13.4,25.7,11.5c10.8-1.9,17.1-4.9,23-12c5-6.2,9-18.2,10.2-27.1
			c1-7.5-1.1-14.9-6.3-20.4C1387.2,45.8,1385.3,44.3,1383.2,43.3z"/>
		<g>
			<ellipse class="st4" cx="1345.2" cy="82.1" rx="3" ry="6.6"/>
			<ellipse class="st4" cx="1365.7" cy="83.2" rx="3" ry="6.6"/>
			<path class="st11" d="M1353.4,95.1c1.5-3.3,3.7-0.7,3.7,1.2c0,3.6-2.8,4.1-3.7,1.8C1353.1,97.5,1353.1,95.8,1353.4,95.1z"/>
		</g>
		<ellipse class="st12" cx="1370" cy="92.7" rx="3.9" ry="2.4"/>
		<ellipse class="st12" cx="1340.9" cy="90.9" rx="3.4" ry="2.1"/>
		<path class="st13" d="M1391.8,67.4c0.6,2,3.7,5,3.2,6.1c-0.5,1.1-3.9,9.2-5.6,15.3c-1,3.6-7,8.8-7,8.8l-2-14.6l-4.7,1.2l0.2-3.6
			l1.5-0.9l-0.9-0.2c0,0,1.7-1.8,1.7-2.8s-2.7-5.4-3.5-5.8c-0.9-0.5,3.6-0.4,3.6-0.4l-3.5-2.8l6.2,0l-6-4.1l3.3,0.5l15.8,3.8"/>
		
			<ellipse transform="matrix(0.3513 -0.9363 0.9363 0.3513 817.6026 1350.7747)" class="st10" cx="1383.5" cy="85.4" rx="8.7" ry="5.2"/>
		<g>
			<path class="st14" d="M1400.7,72.6c0.1,0,0.2-0.1,0.2,0C1401.1,72.6,1401,72.6,1400.7,72.6z"/>
			<path class="st14" d="M1353.5,59.7c0,0,0,0.1-0.1,0.1C1353.5,59.7,1353.5,59.7,1353.5,59.7z"/>
			<path class="st15" d="M1324.5,55.4c3.1,0.7,7.8-5.4,7.8-5.4l-4.1-1.6c0,0,4.2-0.9,3.7-1.3c-2.3-2.1-6.6-0.4-6.3-0.7
				c1.5-1.2,7.2-3.1,7.2-3.1c0.8-2.2-4.7-2-4.5-2.2c2.1-1.9,9.7-1.5,9-2.4c-0.7-1,0.1-6.9,0.2-5.9c0.3,2.6,2.7,6.3,2.9,5.8
				c0.1-0.2-0.9-4.5-0.4-3.8c0.9,1.3,5.9,1.1,5.7,0.9c-1.8-1.6-1.6-11.7-1.6-11.7s1.1,5,7,9c3.6,2.4,3.9,1.3,3.9,1.3
				c-4.2-3.6-2.5-7.5-2.3-7.2c1.6,4.1,3.8,4.4,3.3,4c-1.3-1-2.9-11.3-2.7-10.5c0.3,1.3,2,2.5,3.3,3.6c1.4,1.1,7,4,8.8,4.3
				c1.8,0.2,7.4,1.3,8.6,1.6c1.2,0.2,6.8,3.6,6.8,3.6s-5.2-6.1-4.3-5.6c2.1,1.1,4.9,2.6,7,3.8c2.2,1.3,3.1,2.6,4.5,4.1
				c1.4,1.6,1.6,5.3,0.6,8.9c0,0,8.3-2,8.3-1.8c-0.2,3.2-4.4,6.4-4.3,6.6c0.8,0.8,3.3-1.4,3.2-1.2c-0.5,3-3.6,3.9-1.9,3.6
				c1.7-0.3,7.3,2.1,6.2,2.5c-1.1,0.4-3.5,3.9-3.5,3.9s3.1-0.9,2.3-0.4c-0.7,0.4-3.1,6.4-2.2,6.1c0.5-0.2,3.3-1.1,4.8-1.8
				c-1.6,2.3-4.1,7.7-4.1,7.7s2.1,2.8,2.8,2.8c-1.1,0.3-4.7,0.2-4,0.4c0.7,0.3,2.6,6.1,2.1,4.9c-0.5-1.2-5.1-2.8-5.6-2.5
				c-0.5,0.3,1.6,4.9,1.2,4.3c-0.4-0.6-6.2-4.5-6.2-4.5s1.9,3.7,1.4,3.4c-0.5-0.3-5.3-6.1-5.3-6.1l-3.8,1.6l-8.9-8.1
				c0,0,6.9-0.5,6.1-0.8c-1.7-0.7-13.6-6-13.6-6s-6.2,4.3-10,5.6c-3.8,1.3-4.7-0.2-4.6-0.3c0.4-0.2,2.7-0.8,3.9-4.8
				c-2.7,0.9-12.4,5.6-12.6,5.5l2.9-3.6c-2-0.4-6,3.8-6,3.8c-1.5-2.2,0.9-5.9-0.3-4.5c-0.5,0.5-1.1,2.1-1.7,3.9
				c-1,2.9-0.3,7.8-0.3,7.8l-1.8-5.8l0.1-0.5c-0.2,0.1-0.4,0.3-0.5,0.3c-3.7,1.8-4.9,0.9-4.5,0.7c2.6-1.5,3.8-7.5,3.8-7.5l-4,3.3
				c-0.4-2.2,0.6-1.7-1.2-1.7c-1.8,0-3.9-2-2.9-1.8c1,0.2,5.1-1.8,2.5-2.2c-2.5-0.4-4.3-2.7-4.3-2.7S1321.4,54.7,1324.5,55.4z"/>
		</g>
		<g>
			<path class="st6" d="M1382.8,112.4c-0.6-1.1,1-2.4-2.4-5.4c-3.4-3-9.5,2.9-9.5,2.9s-18,17.6-18.4,18.9c-0.4,1.2-0.8,3.8,0.8,4
				c1.6,0.2,6.9-0.9,8-1.8s14.6-8.1,14.6-8.1"/>
			<path class="st4" d="M1364.4,114l9.1,13.9l8.5-11.9c1.4-1.9,1.9-4.4,1.3-6.6c-0.2-0.6-0.4-1.1-0.7-1.7c-0.5-0.9-1.7-2.3-2.6-2.6
				c-3.6-1.1-7.4,1.2-10.1,3.8L1364.4,114z"/>
		</g>
		<g>
			<path class="st6" d="M1378.6,134.7c-1.2-0.4-0.9-2.5-5.5-2.4c-4.6,0.1-5,8.5-5,8.5s-2.5,27.4-1.3,28.5c2.9,2.6,10.4,1.2,10.5-0.1
				c0.2-1.4,3.3-22.2,3.3-22.2"/>
			<path class="st4" d="M1366.9,153.3l14,1c0.8,0.1,1.4-0.5,1.5-1.2l1.9-18c-0.3-2.3-5.2-1.8-7.2-3c-0.5-0.3-1-0.6-1.6-0.8
				c-1-0.3-2.8-0.6-3.7-0.2c-3.4,1.6-4.6,5.9-4.9,9.6l-1.2,11C1365.5,152.6,1366.1,153.3,1366.9,153.3z"/>
		</g>
	</g>
</g>
<g>
	<g>
		<polygon class="st0" points="1697.9,114.8 1768.6,158.1 1697.9,199.1 1625.9,157.5 		"/>
		<polygon class="st1" points="1697.9,114.8 1697.4,199.4 1768.6,158.1 		"/>
	</g>
	<g>
		<g>
			<path class="st3" d="M1705.6,157.8c-0.9-0.7-0.1-2.6-4-3.8c-3.9-1.2-6.5,6.8-6.5,6.8s-9.2,25.6-8.4,27c1.8,3.3,8.5,4.1,9,2.8
				s8.5-20.4,8.5-20.4"/>
			<path class="st4" d="M1689.6,173.4l11.8,4.8c0.8,0.3,1.8,0,2-0.8l5.4-16.7c0-0.1,0.1-0.2,0.1-0.4c0.1-2.6-1.1-5.1-3.3-6.8
				c-0.6-0.4-1.2-0.8-1.9-1.2c-1.2-0.5-0.1-3.1-1.2-2.8c-4.6,1-7,7.6-9,11.7l-4.8,10.7C1688.6,172.5,1689,173.1,1689.6,173.4z"/>
		</g>
		<g>
			<path class="st7" d="M1696.5,135.4c0.4,0.7,0.1,1.6-0.6,1.9c-2.3,0.9-5,0.2-5.3-0.2c-0.4-0.5-14.2-11.3-15.2-12.5
				c-1-1.2-6.8-9.7-6.1-10.7c0.8-1,2.8-3.3,4.3-2.3c1.4,0.9,17.3,15.7,18.9,17.2c0.1,0.1,0.2,0.2,0.2,0.3L1696.5,135.4z"/>
			<path class="st4" d="M1693.3,138.1c-1.7,0.3-4.5-0.6-6.9-2.4s-4.7-3.6-5.9-4.5s4.7-6.7,4.6-8.4c-0.1-1.7,6.4,2.1,6.4,2.1l6.1,8
				c0,0,0.2,1.4-0.3,3.2C1696.6,138.4,1693.3,138.2,1693.3,138.1z"/>
		</g>
		<path class="st4" d="M1689,128.2c4.6,0,24.9-2.3,27.6-5.2s9.2,21.1,7.1,32.5c-2.5,13.2-8.2,11.5-8.2,11.5c-4.2,1-7.8,1.6-12.4-0.6
			s-8.1-5.7-8.8-17.7C1693.5,136.7,1689,128.2,1689,128.2z"/>
		<polyline class="st5" points="1695.6,126.6 1702.7,143.4 1708.8,125.8 		"/>
		<polygon class="st8" points="1690.5,126 1695.2,125.8 1702.2,142.1 1701.5,145.2 		"/>
		<path class="st9" d="M1712.1,125.9c0,0-7,16.5-9.1,21.3c-0.5,1.2-8.3,5-8.3,5l-0.4-2.1c0,0,4.1-3.3,4.9-4.4c3-3.9,8.8-19,8.8-19
			L1712.1,125.9z"/>
		<g>
			<path class="st6" d="M1720.6,168.9L1717,157c-1.2-0.3-1.2-2.3-5.7-1.6c-4.5,0.7-3.9,9.1-3.9,9.1s0.4,26.1,1.8,27
				c0.6,0.4,1.4,0.7,2.2,0.8l8.3-4.8C1719.9,181.8,1720.6,168.9,1720.6,168.9z"/>
		</g>
		<path class="st4" d="M1707.8,177l14-0.9c0.8,0,1.3-0.7,1.3-1.4l-0.5-18.1c-0.6-2.3-5.4-1-7.6-2c-0.5-0.2-1.1-0.4-1.7-0.5
			c-1-0.2-2.8-0.2-3.7,0.3c-3.2,2-3.8,6.4-3.6,10.2l0.3,11C1706.4,176.4,1707.1,177.1,1707.8,177z"/>
		<path class="st10" d="M1721.7,64.4c0,0-17.5-8.2-31.3-2.2c-1.7,0.7-3.3,1.6-4.7,2.6c-8.6,5.9-13,16.2-11.9,26.6
			c0.7,6.9,1.3,15.8,1.3,17c0.1,2.1-0.4,5.6-0.4,8.2s14.9,13.4,25.7,11.5s17.1-4.9,23-12c5-6.2,9-18.2,10.2-27.1
			c1-7.5-1.1-14.9-6.3-20.4C1725.7,66.8,1723.9,65.3,1721.7,64.4z"/>
		<g>
			<ellipse class="st4" cx="1683.7" cy="103.1" rx="3" ry="6.6"/>
			<ellipse class="st4" cx="1704.3" cy="104.3" rx="3" ry="6.6"/>
			<path class="st11" d="M1692,116.2c1.5-3.3,3.7-0.7,3.7,1.2c0,3.6-2.8,4.1-3.7,1.8C1691.7,118.6,1691.7,116.8,1692,116.2z"/>
		</g>
		<ellipse class="st12" cx="1708.6" cy="113.7" rx="3.9" ry="2.4"/>
		<ellipse class="st12" cx="1679.5" cy="111.9" rx="3.4" ry="2.1"/>
		<path class="st13" d="M1730.3,88.4c0.6,2,3.7,5,3.2,6.1c-0.5,1.1-3.9,9.2-5.6,15.3c-1,3.6-7,8.8-7,8.8l-2-14.6l-4.7,1.2l0.2-3.6
			l1.5-0.9l-0.9-0.2c0,0,1.7-1.8,1.7-2.8c0-1.1-2.7-5.4-3.5-5.8c-0.9-0.5,3.6-0.4,3.6-0.4l-3.5-2.8l6.2,0l-6-4.1l3.3,0.5l15.8,3.8"
			/>
		
			<ellipse transform="matrix(0.3513 -0.9363 0.9363 0.3513 1017.5414 1681.4167)" class="st10" cx="1722.1" cy="106.4" rx="8.7" ry="5.2"/>
		<g>
			<path class="st14" d="M1739.3,93.7c0.1,0,0.2-0.1,0.2,0C1739.7,93.7,1739.6,93.7,1739.3,93.7z"/>
			<path class="st14" d="M1692.1,80.8c0,0,0,0.1-0.1,0.1C1692.1,80.8,1692.1,80.7,1692.1,80.8z"/>
			<path class="st15" d="M1663.1,76.4c3.1,0.7,7.8-5.4,7.8-5.4l-4.1-1.6c0,0,4.2-0.9,3.7-1.3c-2.3-2.1-6.6-0.4-6.3-0.7
				c1.5-1.2,7.2-3.1,7.2-3.1c0.8-2.2-4.7-2-4.5-2.2c2.1-1.9,9.7-1.5,9-2.4c-0.7-1,0.1-6.9,0.2-5.9c0.3,2.6,2.7,6.3,2.9,5.8
				c0.1-0.2-0.9-4.5-0.4-3.8c0.9,1.3,5.9,1.1,5.7,0.9c-1.8-1.6-1.6-11.7-1.6-11.7s1.1,5,7,9c3.6,2.4,3.9,1.3,3.9,1.3
				c-4.2-3.6-2.5-7.5-2.3-7.2c1.6,4.1,3.8,4.4,3.3,4c-1.3-1-2.9-11.3-2.7-10.5c0.3,1.3,2,2.5,3.3,3.6c1.4,1.1,7,4,8.8,4.3
				c1.8,0.2,7.4,1.3,8.6,1.6s6.8,3.6,6.8,3.6s-5.2-6.1-4.3-5.6c2.1,1.1,4.9,2.6,7,3.8c2.2,1.3,3.1,2.6,4.5,4.1
				c1.4,1.6,1.6,5.3,0.6,8.9c0,0,8.3-2,8.3-1.8c-0.2,3.2-4.4,6.4-4.3,6.6c0.8,0.8,3.3-1.4,3.2-1.2c-0.5,3-3.6,3.9-1.9,3.6
				c1.7-0.3,7.3,2.1,6.2,2.5c-1.1,0.4-3.5,3.9-3.5,3.9s3.1-0.9,2.3-0.4c-0.7,0.4-3.1,6.4-2.2,6.1c0.5-0.2,3.3-1.1,4.8-1.8
				c-1.6,2.3-4.1,7.7-4.1,7.7s2.1,2.8,2.8,2.8c-1.1,0.3-4.7,0.2-4,0.4c0.7,0.3,2.6,6.1,2.1,4.9c-0.5-1.2-5.1-2.8-5.6-2.5
				c-0.5,0.3,1.6,4.9,1.2,4.3c-0.4-0.6-6.2-4.5-6.2-4.5s1.9,3.7,1.4,3.4c-0.5-0.3-5.3-6.1-5.3-6.1l-3.8,1.6l-8.9-8.1
				c0,0,6.9-0.5,6.1-0.8c-1.7-0.7-13.6-6-13.6-6s-6.2,4.3-10,5.6c-3.8,1.3-4.7-0.2-4.6-0.3c0.4-0.2,2.7-0.8,3.9-4.8
				c-2.7,0.9-12.4,5.6-12.6,5.5l2.9-3.6c-2-0.4-6,3.8-6,3.8c-1.5-2.2,0.9-5.9-0.3-4.5c-0.5,0.5-1.1,2.1-1.7,3.9
				c-1,2.9-0.3,7.8-0.3,7.8l-1.8-5.8l0.1-0.5c-0.2,0.1-0.4,0.3-0.5,0.3c-3.7,1.8-4.9,0.9-4.5,0.7c2.6-1.5,3.8-7.5,3.8-7.5l-4,3.3
				c-0.4-2.2,0.6-1.7-1.2-1.7c-1.8,0-3.9-2-2.9-1.8c1,0.2,5.1-1.8,2.5-2.2c-2.5-0.4-4.3-2.7-4.3-2.7S1659.9,75.7,1663.1,76.4z"/>
		</g>
		<g>
			<path class="st7" d="M1712.6,138.2c1.2,0.1,1.6,2.1,5.9,0.7c4.3-1.4,2.3-9.6,2.3-9.6s-6.1-24.4-7-25.4c-0.9-1-2.9-2.6-3.9-1.3
				c-1,1.3-2.8,6.4-2.5,7.8c0.3,1.4,2.3,16.6,2.3,16.6"/>
			<path class="st4" d="M1720.5,121.5l-14,0.7l3.3,13.5c1,2.2,2.8,3.9,5.1,4.4c0.6,0.1,1.2,0.2,1.8,0.2c1.1,0,2.8-0.3,3.6-0.9
				c2.8-2.5,2.7-7,1.8-10.7L1720.5,121.5z"/>
		</g>
	</g>
</g>
<g>
	<g>
		<polygon class="st0" points="1874.6,114.8 1945.3,158.1 1874.6,199.1 1802.6,157.5 		"/>
		<polygon class="st1" points="1874.6,114.8 1874.1,199.4 1945.3,158.1 		"/>
	</g>
	<g>
		<g>
			<path class="st7" d="M1873.2,149.4c0.4,0.7,0.1,1.6-0.6,1.9c-2.3,0.9-5,0.2-5.3-0.2c-0.4-0.5-14.2-11.3-15.2-12.5
				c-1-1.2-6.8-9.7-6.1-10.7c0.8-1,2.8-3.3,4.3-2.3c1.4,0.9,17.3,15.7,18.9,17.2c0.1,0.1,0.2,0.2,0.2,0.3L1873.2,149.4z"/>
			<path class="st4" d="M1870,152.1c-1.7,0.3-4.5-0.6-6.9-2.4c-2.4-1.8-4.7-3.6-5.9-4.5s4.7-6.7,4.6-8.4c-0.1-1.7,6.4,2.1,6.4,2.1
				l6.1,8c0,0,0.2,1.4-0.3,3.2C1873.4,152.4,1870,152.2,1870,152.1z"/>
		</g>
		<path class="st4" d="M1865.7,142.2c4.6,0,24.9-2.3,27.6-5.2c2.7-2.9,9.2,21.1,7.1,32.5c-2.5,13.2-8.2,11.5-8.2,11.5
			c-4.2,1-7.8,1.6-12.4-0.6s-8.1-5.7-8.8-17.7C1870.2,150.7,1865.7,142.2,1865.7,142.2z"/>
		<polyline class="st5" points="1872.4,140.6 1879.4,157.4 1885.5,139.8 		"/>
		<polygon class="st8" points="1867.2,140 1871.9,139.8 1878.9,156.1 1878.3,159.2 		"/>
		<path class="st9" d="M1888.8,139.9c0,0-7,16.5-9.1,21.3c-0.5,1.2-8.3,5-8.3,5l-0.4-2.1c0,0,4.1-3.3,4.9-4.4c3-3.9,8.8-19,8.8-19
			L1888.8,139.9z"/>
		<path class="st10" d="M1898.4,78.4c0,0-17.5-8.2-31.3-2.2c-1.7,0.7-3.3,1.6-4.7,2.6c-8.6,5.9-13,16.2-11.9,26.6
			c0.7,6.9,1.3,15.8,1.3,17c0.1,2.1-0.4,5.6-0.4,8.2c0,2.6,14.9,13.4,25.7,11.5s17.1-4.9,23-12c5-6.2,9-18.2,10.2-27.1
			c1-7.5-1.1-14.9-6.3-20.4C1902.5,80.8,1900.6,79.3,1898.4,78.4z"/>
		<g>
			<ellipse class="st4" cx="1860.4" cy="117.1" rx="3" ry="6.6"/>
			<ellipse class="st4" cx="1881" cy="118.3" rx="3" ry="6.6"/>
			<path class="st11" d="M1868.7,130.2c1.5-3.3,3.7-0.7,3.7,1.2c0,3.6-2.8,4.1-3.7,1.8C1868.4,132.6,1868.4,130.8,1868.7,130.2z"/>
		</g>
		<ellipse class="st12" cx="1885.3" cy="127.7" rx="3.9" ry="2.4"/>
		<ellipse class="st12" cx="1856.2" cy="125.9" rx="3.4" ry="2.1"/>
		<g>
			<path class="st3" d="M1882.3,171.8c-0.9-0.7-0.1-2.6-4-3.8s-6.5,6.8-6.5,6.8s-4,11.2-6.5,19.2l9.3,5.3c2.5-6.1,6.3-15.1,6.3-15.1
				L1882.3,171.8z"/>
		</g>
		<path class="st13" d="M1907,102.4c0.6,2,3.7,5,3.2,6.1c-0.5,1.1-3.9,9.2-5.6,15.3c-1,3.6-7,8.8-7,8.8l-2-14.6l-4.7,1.2l0.2-3.6
			l1.5-0.9l-0.9-0.2c0,0,1.7-1.8,1.7-2.8c0-1.1-2.7-5.4-3.5-5.8c-0.9-0.5,3.6-0.4,3.6-0.4l-3.5-2.8l6.2,0l-6-4.1l3.3,0.5l15.8,3.8"
			/>
		
			<ellipse transform="matrix(0.3513 -0.9363 0.9363 0.3513 1119.0822 1855.9618)" class="st10" cx="1898.8" cy="120.4" rx="8.7" ry="5.2"/>
		<g>
			<path class="st14" d="M1916,107.7c0.1,0,0.2-0.1,0.2,0C1916.4,107.7,1916.3,107.7,1916,107.7z"/>
			<path class="st14" d="M1868.8,94.8c0,0,0,0.1-0.1,0.1C1868.8,94.8,1868.8,94.7,1868.8,94.8z"/>
			<path class="st15" d="M1839.8,90.4c3.1,0.7,7.8-5.4,7.8-5.4l-4.1-1.6c0,0,4.2-0.9,3.7-1.3c-2.3-2.1-6.6-0.4-6.3-0.7
				c1.5-1.2,7.2-3.1,7.2-3.1c0.8-2.2-4.7-2-4.5-2.2c2.1-1.9,9.7-1.5,9-2.4c-0.7-1,0.1-6.9,0.2-5.9c0.3,2.6,2.7,6.3,2.9,5.8
				c0.1-0.2-0.9-4.5-0.4-3.8c0.9,1.3,5.9,1.1,5.7,0.9c-1.8-1.6-1.6-11.7-1.6-11.7s1.1,5,7,9c3.6,2.4,3.9,1.3,3.9,1.3
				c-4.2-3.6-2.5-7.5-2.3-7.2c1.6,4.1,3.8,4.4,3.3,4c-1.3-1-2.9-11.3-2.7-10.5c0.3,1.3,2,2.5,3.3,3.6c1.4,1.1,7,4,8.8,4.3
				c1.8,0.2,7.4,1.3,8.6,1.6c1.2,0.2,6.8,3.6,6.8,3.6s-5.2-6.1-4.3-5.6c2.1,1.1,4.9,2.6,7,3.8c2.2,1.3,3.1,2.6,4.5,4.1
				c1.4,1.6,1.6,5.3,0.6,8.9c0,0,8.3-2,8.3-1.8c-0.2,3.2-4.4,6.4-4.3,6.6c0.8,0.8,3.3-1.4,3.2-1.2c-0.5,3-3.6,3.9-1.9,3.6
				c1.7-0.3,7.3,2.1,6.2,2.5c-1.1,0.4-3.5,3.9-3.5,3.9s3.1-0.9,2.3-0.4c-0.7,0.4-3.1,6.4-2.2,6.1c0.5-0.2,3.3-1.1,4.8-1.8
				c-1.6,2.3-4.1,7.7-4.1,7.7s2.1,2.8,2.8,2.8c-1.1,0.3-4.7,0.2-4,0.4c0.7,0.3,2.6,6.1,2.1,4.9c-0.5-1.2-5.1-2.8-5.6-2.5
				c-0.5,0.3,1.6,4.9,1.2,4.3c-0.4-0.6-6.2-4.5-6.2-4.5s1.9,3.7,1.4,3.4c-0.5-0.3-5.3-6.1-5.3-6.1l-3.8,1.6l-8.9-8.1
				c0,0,6.9-0.5,6.1-0.8c-1.7-0.7-13.6-6-13.6-6s-6.2,4.3-10,5.6c-3.8,1.3-4.7-0.2-4.6-0.3c0.4-0.2,2.7-0.8,3.9-4.8
				c-2.7,0.9-12.4,5.6-12.6,5.5l2.9-3.6c-2-0.4-6,3.8-6,3.8c-1.5-2.2,0.9-5.9-0.3-4.5c-0.5,0.5-1.1,2.1-1.7,3.9
				c-1,2.9-0.3,7.8-0.3,7.8l-1.8-5.8l0.1-0.5c-0.2,0.1-0.4,0.3-0.5,0.3c-3.7,1.8-4.9,0.9-4.5,0.7c2.6-1.5,3.8-7.5,3.8-7.5l-4,3.3
				c-0.4-2.2,0.6-1.7-1.2-1.7c-1.8,0-3.9-2-2.9-1.8c1,0.2,5.1-1.8,2.5-2.2c-2.5-0.4-4.3-2.7-4.3-2.7S1836.7,89.7,1839.8,90.4z"/>
		</g>
		<g>
			<path class="st7" d="M1889.4,152.2c1.2,0.1,1.6,2.1,5.9,0.7c4.3-1.4,2.3-9.6,2.3-9.6s-6.1-24.4-7-25.4c-0.9-1-2.9-2.6-3.9-1.3
				c-1,1.3-2.8,6.4-2.5,7.8c0.3,1.4,2.3,16.6,2.3,16.6"/>
			<path class="st4" d="M1897.2,135.5l-14,0.7l3.3,13.5c1,2.2,2.8,3.9,5.1,4.4c0.6,0.1,1.2,0.2,1.8,0.2c1.1,0,2.8-0.3,3.6-0.9
				c2.8-2.5,2.7-7,1.8-10.7L1897.2,135.5z"/>
		</g>
		<g>
			<path class="st6" d="M1897.3,182.9l-3.6-11.9c-1.2-0.3-1.2-2.3-5.7-1.6c-4.5,0.7-3.9,9.1-3.9,9.1s0.1,7.7,0.5,14.9l12.6-7.3
				C1897.3,184.1,1897.3,182.9,1897.3,182.9z"/>
		</g>
		<g>
			<path class="st4" d="M1899.3,170.6c-0.6-2.3-5.4-1-7.6-2c-0.5-0.2-1.1-0.4-1.7-0.5c-1-0.2-2.8-0.2-3.7,0.3
				c-3.2,2-3.8,6.4-3.6,10.2l0.3,11c0,0.8,0.7,1.4,1.5,1.4l4.1-0.2l11.1-6.4L1899.3,170.6z"/>
		</g>
		<path class="st4" d="M1866.3,187.4l11.8,4.8c0.8,0.3,1.8,0,2-0.8l5.4-16.7c0-0.1,0.1-0.2,0.1-0.4c0.1-2.6-1.1-5.1-3.3-6.8
			c-0.6-0.4-1.2-0.8-1.9-1.2c-1.2-0.5-0.1-3.1-1.2-2.8c-4.6,1-7,7.6-9,11.7l-4.8,10.7C1865.3,186.5,1865.7,187.1,1866.3,187.4z"/>
	</g>
</g>
<g>
	<g>
		<polygon class="st0" points="2051.4,114.8 2122,158.1 2051.4,199.1 1979.4,157.5 		"/>
		<polygon class="st1" points="2051.4,114.8 2050.8,199.4 2122,158.1 		"/>
	</g>
	<g>
		<g>
			<path class="st7" d="M2050,169.4c0.4,0.7,0.1,1.6-0.6,1.9c-2.3,0.9-5,0.2-5.3-0.2c-0.4-0.5-14.2-11.3-15.2-12.5
				c-1-1.2-6.8-9.7-6.1-10.7s2.8-3.3,4.3-2.3c1.4,0.9,17.3,15.7,18.9,17.2c0.1,0.1,0.2,0.2,0.2,0.3L2050,169.4z"/>
			<path class="st4" d="M2046.7,172.1c-1.7,0.3-4.5-0.6-6.9-2.4c-2.4-1.8-4.7-3.6-5.9-4.5c-1.2-0.9,4.7-6.7,4.6-8.4
				c-0.1-1.7,6.4,2.1,6.4,2.1l6.1,8c0,0,0.2,1.4-0.3,3.2C2050.1,172.4,2046.8,172.2,2046.7,172.1z"/>
		</g>
		<polyline class="st5" points="2049.1,160.6 2056.1,177.4 2062.2,159.8 		"/>
		<g>
			<path class="st4" d="M2070,157.1c-2.7,2.9-23,5.2-27.6,5.2c0,0,4.5,8.5,5.2,20.5c0.5,8.6,2.5,12.8,5.3,15.4l24.5-14.2
				C2077.4,171.8,2072.3,154.6,2070,157.1z"/>
		</g>
		<polygon class="st8" points="2044,160 2048.6,159.8 2055.6,176.1 2055,179.2 		"/>
		<path class="st9" d="M2065.5,159.9c0,0-7,16.5-9.1,21.3c-0.5,1.2-8.3,5-8.3,5l-0.4-2.1c0,0,4.1-3.3,4.9-4.4c3-3.9,8.8-19,8.8-19
			L2065.5,159.9z"/>
		<path class="st10" d="M2075.2,98.4c0,0-17.5-8.2-31.3-2.2c-1.7,0.7-3.3,1.6-4.7,2.6c-8.6,5.9-13,16.2-11.9,26.6
			c0.7,6.9,1.3,15.8,1.3,17c0.1,2.1-0.4,5.6-0.4,8.2s14.9,13.4,25.7,11.5c10.8-1.9,17.1-4.9,23-12c5-6.2,9-18.2,10.2-27.1
			c1-7.5-1.1-14.9-6.3-20.4C2079.2,100.8,2077.3,99.3,2075.2,98.4z"/>
		<g>
			<ellipse class="st4" cx="2037.2" cy="137.1" rx="3" ry="6.6"/>
			<ellipse class="st4" cx="2057.8" cy="138.3" rx="3" ry="6.6"/>
			<path class="st11" d="M2045.4,150.2c1.5-3.3,3.7-0.7,3.7,1.2c0,3.6-2.8,4.1-3.7,1.8C2045.1,152.6,2045.1,150.8,2045.4,150.2z"/>
		</g>
		<ellipse class="st12" cx="2062.1" cy="147.7" rx="3.9" ry="2.4"/>
		<ellipse class="st12" cx="2032.9" cy="145.9" rx="3.4" ry="2.1"/>
		<path class="st13" d="M2083.8,122.4c0.6,2,3.7,5,3.2,6.1c-0.5,1.1-3.9,9.2-5.6,15.3c-1,3.6-7,8.8-7,8.8l-2-14.6l-4.7,1.2l0.2-3.6
			l1.5-0.9l-0.9-0.2c0,0,1.7-1.8,1.7-2.8s-2.7-5.4-3.5-5.8c-0.9-0.5,3.6-0.4,3.6-0.4l-3.5-2.8l6.2,0l-6-4.1l3.3,0.5l15.8,3.8"/>
		
			<ellipse transform="matrix(0.3513 -0.9363 0.9363 0.3513 1215.0051 2034.3992)" class="st10" cx="2075.5" cy="140.4" rx="8.7" ry="5.2"/>
		<g>
			<path class="st14" d="M2092.8,127.7c0.1,0,0.2-0.1,0.2,0C2093.1,127.7,2093,127.7,2092.8,127.7z"/>
			<path class="st14" d="M2045.5,114.8c0,0,0,0.1-0.1,0.1C2045.5,114.8,2045.5,114.7,2045.5,114.8z"/>
			<path class="st15" d="M2016.5,110.4c3.1,0.7,7.8-5.4,7.8-5.4l-4.1-1.6c0,0,4.2-0.9,3.7-1.3c-2.3-2.1-6.6-0.4-6.3-0.7
				c1.5-1.2,7.2-3.1,7.2-3.1c0.8-2.2-4.7-2-4.5-2.2c2.1-1.9,9.7-1.5,9-2.4c-0.7-1,0.1-6.9,0.2-5.9c0.3,2.6,2.7,6.3,2.9,5.8
				c0.1-0.2-0.9-4.5-0.4-3.8c0.9,1.3,5.9,1.1,5.7,0.9c-1.8-1.6-1.6-11.7-1.6-11.7s1.1,5,7,9c3.6,2.4,3.9,1.3,3.9,1.3
				c-4.2-3.6-2.5-7.5-2.3-7.2c1.6,4.1,3.8,4.4,3.3,4c-1.3-1-2.9-11.3-2.7-10.5c0.3,1.3,2,2.5,3.3,3.6c1.4,1.1,7,4,8.8,4.3
				c1.8,0.2,7.4,1.3,8.6,1.6c1.2,0.2,6.8,3.6,6.8,3.6s-5.2-6.1-4.3-5.6c2.1,1.1,4.9,2.6,7,3.8c2.2,1.3,3.1,2.6,4.5,4.1
				c1.4,1.6,1.6,5.3,0.6,8.9c0,0,8.4-2,8.3-1.8c-0.2,3.2-4.4,6.4-4.3,6.6c0.8,0.8,3.3-1.4,3.2-1.2c-0.5,3-3.6,3.9-1.9,3.6
				c1.7-0.3,7.3,2.1,6.2,2.5s-3.5,3.9-3.5,3.9s3.1-0.9,2.3-0.4c-0.7,0.4-3.1,6.4-2.2,6.1c0.5-0.2,3.3-1.1,4.8-1.8
				c-1.6,2.3-4.1,7.7-4.1,7.7s2.1,2.8,2.8,2.8c-1.1,0.3-4.7,0.2-4,0.4c0.7,0.3,2.6,6.1,2.1,4.9c-0.5-1.2-5.1-2.8-5.6-2.5
				c-0.5,0.3,1.6,4.9,1.2,4.3c-0.4-0.6-6.2-4.5-6.2-4.5s1.9,3.7,1.4,3.4c-0.5-0.3-5.3-6.1-5.3-6.1l-3.8,1.6l-8.9-8.1
				c0,0,6.9-0.5,6.1-0.8c-1.7-0.7-13.6-6-13.6-6s-6.2,4.3-10,5.6c-3.8,1.3-4.7-0.2-4.6-0.3c0.4-0.2,2.7-0.8,3.9-4.8
				c-2.7,0.9-12.4,5.6-12.6,5.5l2.9-3.6c-2-0.4-6,3.8-6,3.8c-1.5-2.2,0.9-5.9-0.3-4.5c-0.5,0.5-1.1,2.1-1.7,3.9
				c-1,2.9-0.3,7.8-0.3,7.8l-1.8-5.8l0.1-0.5c-0.2,0.1-0.4,0.3-0.5,0.3c-3.7,1.8-4.9,0.9-4.5,0.7c2.6-1.5,3.8-7.5,3.8-7.5l-4,3.3
				c-0.4-2.2,0.6-1.7-1.2-1.7c-1.8,0-3.9-2-2.9-1.8c1,0.2,5.1-1.8,2.5-2.2c-2.5-0.4-4.3-2.7-4.3-2.7S2013.4,109.7,2016.5,110.4z"/>
		</g>
		<g>
			<path class="st7" d="M2066.1,172.2c1.2,0.1,1.6,2.1,5.9,0.7c4.3-1.4,2.3-9.6,2.3-9.6s-6.1-24.4-7-25.4c-0.9-1-2.9-2.6-3.9-1.3
				c-1,1.3-2.8,6.4-2.5,7.8c0.3,1.4,2.3,16.6,2.3,16.6"/>
			<path class="st4" d="M2074,155.5l-14,0.7l3.3,13.5c1,2.2,2.8,3.9,5.1,4.4c0.6,0.1,1.2,0.2,1.8,0.2c1.1,0,2.8-0.3,3.6-0.9
				c2.8-2.5,2.7-7,1.8-10.7L2074,155.5z"/>
		</g>
		<g>
			<path class="st4" d="M2059.1,187.5c-0.6-0.4-1.2-0.8-1.9-1.2c-1.2-0.5-0.1-3.1-1.2-2.8c-4.6,1-7,7.6-9,11.7l-0.5,1.1l4.9,2.8
				l10.9-6.3C2061.9,190.8,2060.8,188.9,2059.1,187.5z"/>
		</g>
	</g>
</g>
<g>
	<g>
		<polygon class="st0" points="2228.1,114.8 2298.7,158.1 2228.1,199.1 2156.1,157.5 		"/>
		<polygon class="st1" points="2228.1,114.8 2227.5,199.4 2298.7,158.1 		"/>
	</g>
	<g>
		<g>
			<path class="st7" d="M2226.7,189.4c0.4,0.7,0.1,1.6-0.6,1.9c-2.3,0.9-5,0.2-5.3-0.2c-0.4-0.5-14.2-11.3-15.2-12.5
				s-6.8-9.7-6.1-10.7s2.8-3.3,4.3-2.3c1.4,0.9,17.3,15.7,18.9,17.2c0.1,0.1,0.2,0.2,0.2,0.3L2226.7,189.4z"/>
			<path class="st4" d="M2223.5,192.1c-1.7,0.3-4.5-0.6-6.9-2.4s-4.7-3.6-5.9-4.5c-1.2-0.9,4.7-6.7,4.6-8.4
				c-0.1-1.7,6.4,2.1,6.4,2.1l6.1,8c0,0,0.2,1.4-0.3,3.2C2226.8,192.4,2223.5,192.2,2223.5,192.1z"/>
		</g>
		<g>
			<path class="st4" d="M2251.4,185.5c-1.6-5.7-3.5-9.7-4.7-8.4c-2.7,2.9-23,5.2-27.6,5.2c0,0,2.9,5.5,4.4,14l4.6,2.7L2251.4,185.5z
				"/>
		</g>
		<polygon class="st8" points="2220.7,180 2225.4,179.8 2232.3,196.1 2230.9,197.5 		"/>
		<g>
			<polygon class="st5" points="2238.9,179.8 2225.8,180.6 2232.5,196.7 2233.2,196.2 			"/>
		</g>
		<path class="st10" d="M2251.9,118.4c0,0-17.5-8.2-31.3-2.2c-1.7,0.7-3.3,1.6-4.7,2.6c-8.6,5.9-13,16.2-11.9,26.6
			c0.7,6.9,1.3,15.8,1.3,17c0.1,2.1-0.4,5.6-0.4,8.2s14.9,13.4,25.7,11.5c10.8-1.9,17.1-4.9,23-12c5-6.2,9-18.2,10.2-27.1
			c1-7.5-1.1-14.9-6.3-20.4C2255.9,120.8,2254,119.3,2251.9,118.4z"/>
		<g>
			<ellipse class="st4" cx="2213.9" cy="157.1" rx="3" ry="6.6"/>
			<ellipse class="st4" cx="2234.5" cy="158.3" rx="3" ry="6.6"/>
			<path class="st11" d="M2222.2,170.2c1.5-3.3,3.7-0.7,3.7,1.2c0,3.6-2.8,4.1-3.7,1.8C2221.8,172.6,2221.8,170.8,2222.2,170.2z"/>
		</g>
		<ellipse class="st12" cx="2238.8" cy="167.7" rx="3.9" ry="2.4"/>
		<g>
			<path class="st7" d="M2251,183.2c0,0-6.1-24.4-7-25.4c-0.9-1-2.9-2.6-3.9-1.3c-1,1.3-2.8,6.4-2.5,7.8c0.3,1.4,2.3,16.6,2.3,16.6
				l2.4,9.4l9-5.2C2251.2,183.9,2251,183.2,2251,183.2z"/>
		</g>
		<g>
			<path class="st4" d="M2252.3,182.8l-1.6-7.3l-14,0.7l3.3,13.5c0.3,0.6,0.6,1.2,1.1,1.8l11.5-6.7
				C2252.6,184.1,2252.4,183.4,2252.3,182.8z"/>
		</g>
		<g>
			<path class="st9" d="M2242.3,179.9l-4,0.8c0,0-4.3,11.2-7.4,16.7l5.2-3C2238.8,188,2242.3,179.9,2242.3,179.9z"/>
		</g>
		<ellipse class="st12" cx="2209.7" cy="165.9" rx="3.4" ry="2.1"/>
		<path class="st13" d="M2260.5,142.4c0.6,2,3.7,5,3.2,6.1c-0.5,1.1-3.9,9.2-5.6,15.3c-1,3.6-7,8.8-7,8.8l-2-14.6l-4.7,1.2l0.2-3.6
			l1.5-0.9l-0.9-0.2c0,0,1.7-1.8,1.7-2.8s-2.7-5.4-3.5-5.8c-0.9-0.5,3.6-0.4,3.6-0.4l-3.5-2.8l6.2,0l-6-4.1l3.3,0.5l15.8,3.8"/>
		
			<ellipse transform="matrix(0.3513 -0.9363 0.9363 0.3513 1310.9282 2212.8367)" class="st10" cx="2252.3" cy="160.4" rx="8.7" ry="5.2"/>
		<g>
			<path class="st14" d="M2269.5,147.7c0.1,0,0.2-0.1,0.2,0C2269.8,147.7,2269.7,147.7,2269.5,147.7z"/>
			<path class="st14" d="M2222.3,134.8c0,0,0,0.1-0.1,0.1C2222.2,134.8,2222.3,134.7,2222.3,134.8z"/>
			<path class="st15" d="M2193.2,130.4c3.1,0.7,7.8-5.4,7.8-5.4l-4.1-1.6c0,0,4.2-0.9,3.7-1.3c-2.3-2.1-6.6-0.4-6.3-0.7
				c1.5-1.2,7.2-3.1,7.2-3.1c0.8-2.2-4.7-2-4.5-2.2c2.1-1.9,9.7-1.5,9-2.4c-0.7-1,0.1-6.9,0.2-5.9c0.3,2.6,2.7,6.3,2.9,5.8
				c0.1-0.2-0.9-4.5-0.4-3.8c0.9,1.3,5.9,1.1,5.7,0.9c-1.8-1.6-1.6-11.7-1.6-11.7s1.1,5,7,9c3.6,2.4,3.9,1.3,3.9,1.3
				c-4.2-3.6-2.5-7.5-2.3-7.2c1.6,4.1,3.8,4.4,3.3,4c-1.3-1-2.9-11.3-2.7-10.5c0.3,1.3,2,2.5,3.3,3.6c1.4,1.1,7,4,8.8,4.3
				c1.8,0.2,7.4,1.3,8.6,1.6c1.2,0.2,6.8,3.6,6.8,3.6s-5.2-6.1-4.3-5.6c2.1,1.1,4.9,2.6,7,3.8c2.2,1.3,3.1,2.6,4.5,4.1
				c1.4,1.6,1.6,5.3,0.6,8.9c0,0,8.3-2,8.3-1.8c-0.2,3.2-4.4,6.4-4.3,6.6c0.8,0.8,3.3-1.4,3.2-1.2c-0.5,3-3.6,3.9-1.9,3.6
				c1.7-0.3,7.3,2.1,6.2,2.5c-1.1,0.4-3.5,3.9-3.5,3.9s3.1-0.9,2.3-0.4c-0.7,0.4-3.1,6.4-2.2,6.1c0.5-0.2,3.3-1.1,4.8-1.8
				c-1.6,2.3-4.1,7.7-4.1,7.7s2.1,2.8,2.8,2.8c-1.1,0.3-4.7,0.2-4,0.4c0.7,0.3,2.6,6.1,2.1,4.9c-0.5-1.2-5.1-2.8-5.6-2.5
				c-0.5,0.3,1.6,4.9,1.2,4.3c-0.4-0.6-6.2-4.5-6.2-4.5s1.9,3.7,1.4,3.4c-0.5-0.3-5.3-6.1-5.3-6.1l-3.8,1.6l-8.9-8.1
				c0,0,6.9-0.5,6.1-0.8c-1.7-0.7-13.6-6-13.6-6s-6.2,4.3-10,5.6c-3.8,1.3-4.7-0.2-4.6-0.3c0.4-0.2,2.7-0.8,3.9-4.8
				c-2.7,0.9-12.4,5.6-12.6,5.5l2.9-3.6c-2-0.4-6,3.8-6,3.8c-1.5-2.2,0.9-5.9-0.3-4.5c-0.5,0.5-1.1,2.1-1.7,3.9
				c-1,2.9-0.3,7.8-0.3,7.8l-1.8-5.8l0.1-0.5c-0.2,0.1-0.4,0.3-0.5,0.3c-3.7,1.8-4.9,0.9-4.5,0.7c2.6-1.5,3.8-7.5,3.8-7.5l-4,3.3
				c-0.4-2.2,0.6-1.7-1.2-1.7s-3.9-2-2.9-1.8c1,0.2,5.1-1.8,2.5-2.2c-2.5-0.4-4.3-2.7-4.3-2.7S2190.1,129.7,2193.2,130.4z"/>
		</g>
	</g>
</g>
<g>
	<g>
		<polygon class="st0" points="1521.2,114.8 1591.8,158.1 1521.2,199.1 1449.2,157.5 		"/>
		<polygon class="st1" points="1521.2,114.8 1520.6,199.4 1591.8,158.1 		"/>
	</g>
	<g>
		<g>
			<path class="st3" d="M1528.8,147.8c-0.9-0.7-0.1-2.6-4-3.8c-3.9-1.2-6.5,6.8-6.5,6.8s-9.2,25.6-8.4,27c1.8,3.3,8.5,4.1,9,2.8
				s8.5-20.4,8.5-20.4"/>
			<path class="st4" d="M1512.9,163.4l11.8,4.8c0.8,0.3,1.8,0,2-0.8l5.4-16.7c0-0.1,0.1-0.2,0.1-0.4c0.1-2.6-1.1-5.1-3.3-6.8
				c-0.6-0.4-1.2-0.8-1.9-1.2c-1.2-0.5-0.1-3.1-1.2-2.8c-4.6,1-7,7.6-9,11.7l-4.8,10.7C1511.9,162.5,1512.2,163.1,1512.9,163.4z"/>
		</g>
		<g>
			<path class="st7" d="M1522.8,118.2c0.7,0.4,0.8,1.4,0.3,2c-1.7,1.9-4.3,2.4-4.8,2.2c-0.5-0.2-17.8-3.6-19.2-4.1
				c-1.5-0.6-10.5-5.5-10.2-6.7c0.2-1.2,0.9-4.2,2.7-4c1.7,0.2,22.6,6.1,24.7,6.7c0.1,0,0.2,0.1,0.3,0.1L1522.8,118.2z"/>
			<path class="st4" d="M1521.1,122c-1.3,1.1-4.3,1.5-7.2,1c-2.9-0.5-5.9-1.1-7.3-1.4c-1.5-0.3,1.1-8.1,0.3-9.6
				c-0.9-1.5,6.6-1,6.6-1l9,4.3c0,0,0.8,1.1,1.2,3C1524.2,120.7,1521.2,122,1521.1,122z"/>
		</g>
		<path class="st4" d="M1512.3,118.2c4.6,0,24.9-2.3,27.6-5.2s9.2,21.1,7.1,32.5c-2.5,13.2-8.2,11.5-8.2,11.5
			c-4.2,1-7.8,1.6-12.4-0.6s-8.1-5.7-8.8-17.7C1516.8,126.7,1512.3,118.2,1512.3,118.2z"/>
		<polyline class="st5" points="1518.9,116.6 1525.9,133.4 1532,115.8 		"/>
		<polygon class="st8" points="1513.8,116 1518.5,115.8 1525.4,132.1 1524.8,135.2 		"/>
		<path class="st9" d="M1535.4,115.9c0,0-7,16.5-9.1,21.3c-0.5,1.2-8.3,5-8.3,5l-0.4-2.1c0,0,4.1-3.3,4.9-4.4c3-3.9,8.8-19,8.8-19
			L1535.4,115.9z"/>
		<g>
			<path class="st6" d="M1540.3,147c-1.2-0.3-1.2-2.3-5.7-1.6c-4.5,0.7-3.9,9.1-3.9,9.1s1.2,27.5,2.5,28.4
				c3.2,2.2,10.5-0.2,10.4-1.5c0-1.4,0.3-22.4,0.3-22.4"/>
			<path class="st4" d="M1531.1,167l14-0.9c0.8,0,1.3-0.7,1.3-1.4l-0.5-18.1c-0.6-2.3-5.4-1-7.6-2c-0.5-0.2-1.1-0.4-1.7-0.5
				c-1-0.2-2.8-0.2-3.7,0.3c-3.2,2-3.8,6.4-3.6,10.2l0.3,11C1529.7,166.4,1530.3,167.1,1531.1,167z"/>
		</g>
		<path class="st10" d="M1545,54.4c0,0-17.5-8.2-31.3-2.2c-1.7,0.7-3.3,1.6-4.7,2.6c-8.6,5.9-13,16.2-11.9,26.6
			c0.7,6.9,1.3,15.8,1.3,17c0.1,2.1-0.4,5.6-0.4,8.2s14.9,13.4,25.7,11.5c10.8-1.9,17.1-4.9,23-12c5-6.2,9-18.2,10.2-27.1
			c1-7.5-1.1-14.9-6.3-20.4C1549,56.8,1547.1,55.3,1545,54.4z"/>
		<g>
			<ellipse class="st4" cx="1507" cy="93.1" rx="3" ry="6.6"/>
			<ellipse class="st4" cx="1527.6" cy="94.3" rx="3" ry="6.6"/>
			<path class="st11" d="M1515.3,106.2c1.5-3.3,3.7-0.7,3.7,1.2c0,3.6-2.8,4.1-3.7,1.8C1514.9,108.6,1514.9,106.8,1515.3,106.2z"/>
		</g>
		<ellipse class="st12" cx="1531.9" cy="103.7" rx="3.9" ry="2.4"/>
		<ellipse class="st12" cx="1502.8" cy="101.9" rx="3.4" ry="2.1"/>
		<path class="st13" d="M1553.6,78.4c0.6,2,3.7,5,3.2,6.1c-0.5,1.1-3.9,9.2-5.6,15.3c-1,3.6-7,8.8-7,8.8l-2-14.6l-4.7,1.2l0.2-3.6
			l1.5-0.9l-0.9-0.2c0,0,1.7-1.8,1.7-2.8c0-1.1-2.7-5.4-3.5-5.8c-0.9-0.5,3.6-0.4,3.6-0.4l-3.5-2.8l6.2,0l-6-4.1l3.3,0.5l15.8,3.8"
			/>
		
			<ellipse transform="matrix(0.3513 -0.9363 0.9363 0.3513 912.2556 1509.4668)" class="st10" cx="1545.4" cy="96.4" rx="8.7" ry="5.2"/>
		<g>
			<path class="st14" d="M1562.6,83.7c0.1,0,0.2-0.1,0.2,0C1563,83.7,1562.8,83.7,1562.6,83.7z"/>
			<path class="st14" d="M1515.4,70.8c0,0,0,0.1-0.1,0.1C1515.3,70.8,1515.4,70.7,1515.4,70.8z"/>
			<path class="st15" d="M1486.3,66.4c3.1,0.7,7.8-5.4,7.8-5.4l-4.1-1.6c0,0,4.2-0.9,3.7-1.3c-2.3-2.1-6.6-0.4-6.3-0.7
				c1.5-1.2,7.2-3.1,7.2-3.1c0.8-2.2-4.7-2-4.5-2.2c2.1-1.9,9.7-1.5,9-2.4c-0.7-1,0.1-6.9,0.2-5.9c0.3,2.6,2.7,6.3,2.9,5.8
				c0.1-0.2-0.9-4.5-0.4-3.8c0.9,1.3,5.9,1.1,5.7,0.9c-1.8-1.6-1.6-11.7-1.6-11.7s1.1,5,7,9c3.6,2.4,3.9,1.3,3.9,1.3
				c-4.2-3.6-2.5-7.5-2.3-7.2c1.6,4.1,3.8,4.4,3.3,4c-1.3-1-2.9-11.3-2.7-10.5c0.3,1.3,2,2.5,3.3,3.6c1.4,1.1,7,4,8.8,4.3
				c1.8,0.2,7.4,1.3,8.6,1.6s6.8,3.6,6.8,3.6s-5.2-6.1-4.3-5.6c2.1,1.1,4.9,2.6,7,3.8c2.2,1.3,3.1,2.6,4.5,4.1
				c1.4,1.6,1.6,5.3,0.6,8.9c0,0,8.3-2,8.3-1.8c-0.2,3.2-4.4,6.4-4.3,6.6c0.8,0.8,3.3-1.4,3.2-1.2c-0.5,3-3.6,3.9-1.9,3.6
				c1.7-0.3,7.3,2.1,6.2,2.5c-1.1,0.4-3.5,3.9-3.5,3.9s3.1-0.9,2.3-0.4c-0.7,0.4-3.1,6.4-2.2,6.1c0.5-0.2,3.3-1.1,4.8-1.8
				c-1.6,2.3-4.1,7.7-4.1,7.7s2.1,2.8,2.8,2.8c-1.1,0.3-4.7,0.2-4,0.4c0.7,0.3,2.6,6.1,2.1,4.9c-0.5-1.2-5.1-2.8-5.6-2.5
				c-0.5,0.3,1.6,4.9,1.2,4.3c-0.4-0.6-6.2-4.5-6.2-4.5s1.9,3.7,1.4,3.4c-0.5-0.3-5.3-6.1-5.3-6.1l-3.8,1.6l-8.9-8.1
				c0,0,6.9-0.5,6.1-0.8c-1.7-0.7-13.6-6-13.6-6s-6.2,4.3-10,5.6c-3.8,1.3-4.7-0.2-4.6-0.3c0.4-0.2,2.7-0.8,3.9-4.8
				c-2.7,0.9-12.4,5.6-12.6,5.5l2.9-3.6c-2-0.4-6,3.8-6,3.8c-1.5-2.2,0.9-5.9-0.3-4.5c-0.5,0.5-1.1,2.1-1.7,3.9
				c-1,2.9-0.3,7.8-0.3,7.8l-1.8-5.8l0.1-0.5c-0.2,0.1-0.4,0.3-0.5,0.3c-3.7,1.8-4.9,0.9-4.5,0.7c2.6-1.5,3.8-7.5,3.8-7.5l-4,3.3
				c-0.4-2.2,0.6-1.7-1.2-1.7c-1.8,0-3.9-2-2.9-1.8c1,0.2,5.1-1.8,2.5-2.2c-2.5-0.4-4.3-2.7-4.3-2.7S1483.2,65.7,1486.3,66.4z"/>
		</g>
		<g>
			<path class="st7" d="M1541.2,129.5c0.9-0.8,2.6,0.4,4.8-3.6c2.2-4-5-8.6-5-8.6s-21.2-13.6-22.5-13.7c-1.3-0.1-3.9,0.1-3.7,1.7
				s2.4,6.6,3.5,7.4c1.1,0.8,13,10.5,13,10.5"/>
			<path class="st4" d="M1535.5,112l-9.7,10.1l11.7,7.5c2.2,0.9,4.7,0.9,6.7-0.2c0.5-0.3,1-0.6,1.5-1.1c0.8-0.7,1.9-2.1,2-3.1
				c0.3-3.8-2.9-6.9-6-9L1535.5,112z"/>
		</g>
	</g>
</g>
<g>
	<polygon class="st0" points="2581.5,114.8 2581.5,199.1 2509.5,157.5 	"/>
	<polygon class="st1" points="2581.5,114.8 2581,199.4 2652.2,158.1 	"/>
</g>
<g>
	<g>
		<polygon class="st0" points="284.1,114.8 354.8,158.1 284.1,199.1 212.1,157.5 		"/>
		<polygon class="st1" points="284.1,114.8 283.6,199.4 354.8,158.1 		"/>
	</g>
	<g>
		
			<ellipse transform="matrix(0.7831 -0.6219 0.6219 0.7831 -17.3938 216.5869)" class="st2" cx="301.8" cy="133.2" rx="3.7" ry="8.8"/>
		<path class="st3" d="M315.8,124.1c0,0-8.3-2.5-12.3-1.1c-4.5,1.6-7.8,3.9-8.7,8.1c-0.8,4.2-4.2,14.2-4.2,14.2s-1,3.1,0.2,4
			c1.4,1.1,3,1.4,4,1.8c1.4,0.6,4.2,1.4,6.1-0.3c2-1.7,4.2-8.7,4.5-10.9c0.3-2.2,7.7,3,14.1,1.3c6.4-1.7,8.5-12.5,8.5-12.5
			L315.8,124.1z"/>
		<path class="st4" d="M296.4,126.6c3.1-0.9,10.5,6.5,10.9,13.5l10.5,1.8l-2.3-18.7c0,0-8.1-2.1-10.4-1.3
			C302.9,122.7,293.6,127.5,296.4,126.6z"/>
		<path class="st4" d="M306,96.3c4.5,0,18.2-0.3,20.8-3.6s19.7,17.8,17.6,30.9c-2.4,15.2-12.8,17.4-12.8,17.4
			c-4.1,1.1-7.5,1.9-12-0.7c-4.5-2.6-7.8-6.6-8.5-20.3C310.3,106.1,306,96.3,306,96.3z"/>
		<polyline class="st5" points="311,97 317.1,113.8 322.8,94.6 		"/>
		<g>
			<path class="st5" d="M329.9,125.2c0,0-10.9-0.9-13.9,2.1c-3,3.1-4.9,5.6-4.7,9.8c0.2,4.3-0.5,14.8-0.5,14.8s-0.2,3.2,1.2,3.9
				c1.6,0.7,3.2,0.6,4.3,0.8c1.5,0.2,4.4,0.3,5.9-1.8s1.9-9.4,1.6-11.7s7.6,2.7,13.4-0.5c5.8-3.2,5.7-15.9,5.7-15.9L329.9,125.2z"/>
			<path class="st4" d="M312,131.9c0,0,4.6-2.8,9.1,1.3c3.9,3.5,4.9,8.2,4.7,9.7s7.2,2.1,9.3,0.9c2.1-1.2,5.6-2.6,6.7-6.7
				c1.1-4.1,1.9-8.9,2.2-11.2c0.4-2.3-12.1-2.2-12.1-2.2l-15.7,0.6L312,131.9z"/>
		</g>
		<g>
			<path class="st6" d="M334.1,97.5c-1.1-0.5-0.7-2.5-5.2-2.9c-4.6-0.4-5.8,8-5.8,8s-3.8,24.9-3.3,26.1c0.4,1.2,1.7,3.5,3.1,2.7
				c1.4-0.8,5-4.9,5.3-6.2c0.3-1.4,6.8-15.3,6.8-15.3"/>
			<path class="st4" d="M320.4,109.9l15.6,5.6l-0.4-16.9c0,0-1.1-4.7-4.5-4.7c-0.8,0-1.5-1.4-2.4-1.1c-3.6,1.3-6.4,6-7,9.7
				L320.4,109.9z"/>
		</g>
		<g>
			<path class="st7" d="M306.8,97.6c-0.3-0.8-1.2-1.1-1.9-0.7c-2.1,1.3-3.2,3.8-3.1,4.3c0.1,0.6,0.3,18.1,0.6,19.7
				c0.3,1.5,3.5,11.3,4.7,11.3c1.3,0,4.3-0.1,4.5-2c0.1-1.7-1.9-23.3-2.1-25.5c0-0.1,0-0.2-0.1-0.3L306.8,97.6z"/>
			<path class="st4" d="M302.8,98.5c-1.3,1.1-2.3,4-2.3,6.9s0,6,0,7.4c0,1.5,8.2,0.4,9.5,1.5c1.3,1.1,2.2-6.3,2.2-6.3l-2.6-9.7
				c0,0-1-1-2.7-1.7C304.6,95.7,302.7,98.4,302.8,98.5z"/>
		</g>
		<polygon class="st8" points="306,96.3 310.6,96.1 316.6,112.3 315.9,115.9 		"/>
		<path class="st9" d="M326.5,93.7c0,0-6.4,19-8.4,24.5c-0.5,1.3-6.6,4.5-6.6,4.5l-0.3-2.4c0,0,2.7-2.6,3.5-3.9
			c2.7-4.4,8.1-21.8,8.1-21.8L326.5,93.7z"/>
		<path class="st10" d="M335.2,34c0,0-17.5-8.2-31.3-2.2c-1.7,0.7-3.3,1.6-4.7,2.6c-8.6,5.9-13,16.2-11.9,26.6
			c0.7,6.9,1.3,15.8,1.3,17c0.1,2.1-0.4,5.6-0.4,8.2s14.9,13.4,25.7,11.5c10.8-1.9,17.1-4.9,23-12c5-6.2,9-18.2,10.2-27.1
			c1-7.5-1.1-14.9-6.3-20.4C339.2,36.4,337.3,34.9,335.2,34z"/>
		<g>
			<ellipse class="st4" cx="297.2" cy="72.8" rx="3" ry="6.6"/>
			<ellipse class="st4" cx="317.8" cy="73.9" rx="3" ry="6.6"/>
			<path class="st11" d="M305.4,87.8c1.1,0,3.6,0.4,3.6,0.4c0.4,1.9-2.6,2.2-3.7,1.1S305.4,87.8,305.4,87.8z"/>
		</g>
		<ellipse class="st12" cx="322.1" cy="83.3" rx="3.9" ry="2.4"/>
		<ellipse class="st12" cx="292.9" cy="81.6" rx="3.4" ry="2.1"/>
		<path class="st13" d="M343.8,58.1c0.6,2,3.7,5,3.2,6.1c-0.5,1.1-3.9,9.2-5.6,15.3c-1,3.6-7,8.8-7,8.8l-2-14.6l-4.7,1.2l0.2-3.6
			l1.5-0.9l-0.9-0.2c0,0,1.7-1.8,1.7-2.8c0-1.1-2.7-5.4-3.5-5.8c-0.9-0.5,3.6-0.4,3.6-0.4l-3.5-2.8l6.2,0l-6-4.1l3.3,0.5l15.8,3.8"
			/>
		
			<ellipse transform="matrix(0.3513 -0.9363 0.9363 0.3513 146.4562 363.5096)" class="st10" cx="335.5" cy="76.1" rx="8.7" ry="5.2"/>
		<g>
			<path class="st14" d="M352.8,63.3c0.1,0,0.2-0.1,0.2,0C353.1,63.3,353,63.3,352.8,63.3z"/>
			<path class="st14" d="M305.5,50.4c0,0,0,0.1-0.1,0.1C305.5,50.4,305.5,50.4,305.5,50.4z"/>
			<path class="st15" d="M276.5,46c3.1,0.7,7.8-5.4,7.8-5.4l-4.1-1.6c0,0,4.2-0.9,3.7-1.3c-2.3-2.1-6.6-0.4-6.3-0.7
				c1.5-1.2,7.2-3.1,7.2-3.1c0.8-2.2-4.7-2-4.5-2.2c2.1-1.9,9.7-1.5,9-2.4c-0.7-1,0.1-6.9,0.2-5.9c0.3,2.6,2.7,6.3,2.9,5.8
				c0.1-0.2-0.9-4.5-0.4-3.8c0.9,1.3,5.9,1.1,5.7,0.9c-1.8-1.6-1.6-11.7-1.6-11.7s1.1,5,7,9c3.6,2.4,3.9,1.3,3.9,1.3
				c-4.2-3.6-2.5-7.5-2.3-7.2c1.6,4.1,3.8,4.4,3.3,4c-1.3-1-2.9-11.3-2.7-10.5c0.3,1.3,2,2.5,3.3,3.6s7,4,8.8,4.3
				c1.8,0.2,7.4,1.3,8.6,1.6s6.8,3.6,6.8,3.6s-5.2-6.1-4.3-5.6c2.1,1.1,4.9,2.6,7,3.8c2.2,1.3,3.1,2.6,4.5,4.1
				c1.4,1.6,1.6,5.3,0.6,8.9c0,0,8.3-2,8.3-1.8c-0.2,3.2-4.4,6.4-4.3,6.6c0.8,0.8,3.3-1.4,3.2-1.2c-0.5,3-3.6,3.9-1.9,3.6
				c1.7-0.3,7.3,2.1,6.2,2.5c-1.1,0.4-3.5,3.9-3.5,3.9s3.1-0.9,2.3-0.4c-0.7,0.4-3.1,6.4-2.2,6.1c0.5-0.2,3.3-1.1,4.8-1.8
				c-1.6,2.3-4.1,7.7-4.1,7.7s2.1,2.8,2.8,2.8c-1.1,0.3-4.7,0.2-4,0.4c0.7,0.3,2.6,6.1,2.1,4.9c-0.5-1.2-5.1-2.8-5.6-2.5
				c-0.5,0.3,1.6,4.9,1.2,4.3c-0.4-0.6-6.2-4.5-6.2-4.5s1.9,3.7,1.4,3.4c-0.5-0.3-5.3-6.1-5.3-6.1l-3.8,1.6l-8.9-8.1
				c0,0,6.9-0.5,6.1-0.8c-1.7-0.7-13.6-6-13.6-6s-6.2,4.3-10,5.6c-3.8,1.3-4.7-0.2-4.6-0.3c0.4-0.2,2.7-0.8,3.9-4.8
				c-2.7,0.9-12.4,5.6-12.6,5.5l2.9-3.6c-2-0.4-6,3.8-6,3.8c-1.5-2.2,0.9-5.9-0.3-4.5c-0.5,0.5-1.1,2.1-1.7,3.9
				c-1,2.9-0.3,7.8-0.3,7.8l-1.8-5.8l0.1-0.5c-0.2,0.1-0.4,0.3-0.5,0.3c-3.7,1.8-4.9,0.9-4.5,0.7c2.6-1.5,3.8-7.5,3.8-7.5l-4,3.3
				c-0.4-2.2,0.6-1.7-1.2-1.7c-1.8,0-3.9-2-2.9-1.8c1,0.2,5.1-1.8,2.5-2.2c-2.5-0.4-4.3-2.7-4.3-2.7S273.4,45.4,276.5,46z"/>
		</g>
	</g>
</g>
<g>
	<g>
		<polygon class="st0" points="637.6,114.8 708.2,158.1 637.6,199.1 565.6,157.5 		"/>
		<polygon class="st1" points="637.6,114.8 637,199.4 708.2,158.1 		"/>
	</g>
	<g>
		
			<ellipse transform="matrix(0.7831 -0.6219 0.6219 0.7831 59.2589 436.3813)" class="st2" cx="655.3" cy="133.2" rx="3.7" ry="8.8"/>
		<path class="st3" d="M669.2,124.1c0,0-8.3-2.5-12.3-1.1c-4.5,1.6-7.8,3.9-8.7,8.1c-0.8,4.2-4.2,14.2-4.2,14.2s-1,3.1,0.2,4
			c1.4,1.1,3,1.4,4,1.8c1.4,0.6,4.2,1.4,6.1-0.3c2-1.7,4.2-8.7,4.5-10.9c0.3-2.2,7.7,3,14.1,1.3c6.4-1.7,8.5-12.5,8.5-12.5
			L669.2,124.1z"/>
		<path class="st4" d="M649.9,126.6c3.1-0.9,10.5,6.5,10.9,13.5l10.5,1.8l-2.3-18.7c0,0-8.1-2.1-10.4-1.3
			C656.3,122.7,647.1,127.5,649.9,126.6z"/>
		<path class="st4" d="M659.4,96.3c4.5,0,18.2-0.3,20.8-3.6c2.6-3.3,19.7,17.8,17.6,30.9c-2.4,15.2-12.8,17.4-12.8,17.4
			c-4.1,1.1-7.5,1.9-12-0.7c-4.5-2.6-7.8-6.6-8.5-20.3C663.8,106.1,659.4,96.3,659.4,96.3z"/>
		<polyline class="st5" points="664.4,97 670.5,113.8 676.3,94.6 		"/>
		<g>
			<path class="st5" d="M683.3,125.2c0,0-10.9-0.9-13.9,2.1c-3,3.1-4.9,5.6-4.7,9.8c0.2,4.3-0.5,14.8-0.5,14.8s-0.2,3.2,1.2,3.9
				c1.6,0.7,3.2,0.6,4.3,0.8c1.5,0.2,4.4,0.3,5.9-1.8s1.9-9.4,1.6-11.7c-0.3-2.2,7.6,2.7,13.4-0.5c5.8-3.2,5.7-15.9,5.7-15.9
				L683.3,125.2z"/>
			<path class="st4" d="M665.4,131.9c0,0,4.6-2.8,9.1,1.3c3.9,3.5,4.9,8.2,4.7,9.7s7.2,2.1,9.3,0.9c2.1-1.2,5.6-2.6,6.7-6.7
				c1.1-4.1,1.9-8.9,2.2-11.2c0.4-2.3-12.1-2.2-12.1-2.2l-15.7,0.6L665.4,131.9z"/>
		</g>
		<g>
			<path class="st6" d="M687.6,97.5c-1.1-0.5-0.7-2.5-5.2-2.9c-4.6-0.4-5.8,8-5.8,8s-3.8,24.9-3.3,26.1c0.4,1.2,1.7,3.5,3.1,2.7
				c1.4-0.8,5-4.9,5.3-6.2s6.8-15.3,6.8-15.3"/>
			<path class="st4" d="M673.9,109.9l15.6,5.6l-0.4-16.9c0,0-1.1-4.7-4.5-4.7c-0.8,0-1.5-1.4-2.4-1.1c-3.6,1.3-6.4,6-7,9.7
				L673.9,109.9z"/>
		</g>
		<g>
			<path class="st7" d="M660.3,97.6c-0.3-0.8-1.2-1.1-1.9-0.7c-2.1,1.3-3.2,3.8-3.1,4.3c0.1,0.6,0.3,18.1,0.6,19.7
				s3.5,11.3,4.7,11.3c1.3,0,4.3-0.1,4.5-2c0.1-1.7-1.9-23.3-2.1-25.5c0-0.1,0-0.2-0.1-0.3L660.3,97.6z"/>
			<path class="st4" d="M656.2,98.5c-1.3,1.1-2.3,4-2.3,6.9s0,6,0,7.4c0,1.5,8.2,0.4,9.5,1.5c1.3,1.1,2.2-6.3,2.2-6.3l-2.6-9.7
				c0,0-1-1-2.7-1.7C658,95.7,656.2,98.4,656.2,98.5z"/>
		</g>
		<polygon class="st8" points="659.4,96.3 664.1,96.1 670,112.3 669.4,115.9 		"/>
		<path class="st9" d="M679.9,93.7c0,0-6.4,19-8.4,24.5c-0.5,1.3-6.6,4.5-6.6,4.5l-0.3-2.4c0,0,2.7-2.6,3.5-3.9
			c2.7-4.4,8.1-21.8,8.1-21.8L679.9,93.7z"/>
		<path class="st10" d="M688.6,34c0,0-17.5-8.2-31.3-2.2c-1.7,0.7-3.3,1.6-4.7,2.6c-8.6,5.9-13,16.2-11.9,26.6
			c0.7,6.9,1.3,15.8,1.3,17c0.1,2.1-0.4,5.6-0.4,8.2s14.9,13.4,25.7,11.5c10.8-1.9,17.1-4.9,23-12c5-6.2,9-18.2,10.2-27.1
			c1-7.5-1.1-14.9-6.3-20.4C692.6,36.4,690.7,34.9,688.6,34z"/>
		<g>
			<path class="st11" d="M658.9,87.8c1.1,0,3.6,0.4,3.6,0.4c0.4,1.9-2.6,2.2-3.7,1.1S658.9,87.8,658.9,87.8z"/>
		</g>
		<ellipse class="st12" cx="675.5" cy="83.3" rx="3.9" ry="2.4"/>
		<ellipse class="st12" cx="646.4" cy="81.6" rx="3.4" ry="2.1"/>
		<path class="st13" d="M697.2,58.1c0.6,2,3.7,5,3.2,6.1c-0.5,1.1-3.9,9.2-5.6,15.3c-1,3.6-7,8.8-7,8.8l-2-14.6l-4.7,1.2l0.2-3.6
			l1.5-0.9l-0.9-0.2c0,0,1.7-1.8,1.7-2.8c0-1.1-2.7-5.4-3.5-5.8c-0.9-0.5,3.6-0.4,3.6-0.4l-3.5-2.8l6.2,0l-6-4.1l3.3,0.5l15.8,3.8"
			/>
		
			<ellipse transform="matrix(0.3513 -0.9363 0.9363 0.3513 375.7535 694.4346)" class="st10" cx="689" cy="76.1" rx="8.7" ry="5.2"/>
		<g>
			<path class="st14" d="M706.2,63.3c0.1,0,0.2-0.1,0.2,0C706.6,63.3,706.4,63.3,706.2,63.3z"/>
			<path class="st14" d="M659,50.4c0,0,0,0.1-0.1,0.1C659,50.4,659,50.4,659,50.4z"/>
			<path class="st15" d="M630,46c3.1,0.7,7.8-5.4,7.8-5.4l-4.1-1.6c0,0,4.2-0.9,3.7-1.3c-2.3-2.1-6.6-0.4-6.3-0.7
				c1.5-1.2,7.2-3.1,7.2-3.1c0.8-2.2-4.7-2-4.5-2.2c2.1-1.9,9.7-1.5,9-2.4c-0.7-1,0.1-6.9,0.2-5.9c0.3,2.6,2.7,6.3,2.9,5.8
				c0.1-0.2-0.9-4.5-0.4-3.8c0.9,1.3,5.9,1.1,5.7,0.9c-1.8-1.6-1.6-11.7-1.6-11.7s1.1,5,7,9c3.6,2.4,3.9,1.3,3.9,1.3
				c-4.2-3.6-2.5-7.5-2.3-7.2c1.6,4.1,3.8,4.4,3.3,4c-1.3-1-2.9-11.3-2.7-10.5c0.3,1.3,2,2.5,3.3,3.6s7,4,8.8,4.3
				c1.8,0.2,7.4,1.3,8.6,1.6s6.8,3.6,6.8,3.6s-5.2-6.1-4.3-5.6c2.1,1.1,4.9,2.6,7,3.8c2.2,1.3,3.1,2.6,4.5,4.1
				c1.4,1.6,1.6,5.3,0.6,8.9c0,0,8.3-2,8.3-1.8c-0.2,3.2-4.4,6.4-4.3,6.6c0.8,0.8,3.3-1.4,3.2-1.2c-0.5,3-3.6,3.9-1.9,3.6
				c1.7-0.3,7.3,2.1,6.2,2.5c-1.1,0.4-3.5,3.9-3.5,3.9s3.1-0.9,2.3-0.4c-0.7,0.4-3.1,6.4-2.2,6.1c0.5-0.2,3.3-1.1,4.8-1.8
				c-1.6,2.3-4.1,7.7-4.1,7.7s2.1,2.8,2.8,2.8c-1.1,0.3-4.7,0.2-4,0.4c0.7,0.3,2.6,6.1,2.1,4.9c-0.5-1.2-5.1-2.8-5.6-2.5
				c-0.5,0.3,1.6,4.9,1.2,4.3c-0.4-0.6-6.2-4.5-6.2-4.5s1.9,3.7,1.4,3.4c-0.5-0.3-5.3-6.1-5.3-6.1l-3.8,1.6l-8.9-8.1
				c0,0,6.9-0.5,6.1-0.8c-1.7-0.7-13.6-6-13.6-6s-6.2,4.3-10,5.6c-3.8,1.3-4.7-0.2-4.6-0.3c0.4-0.2,2.7-0.8,3.9-4.8
				c-2.7,0.9-12.4,5.6-12.6,5.5l2.9-3.6c-2-0.4-6,3.8-6,3.8c-1.5-2.2,0.9-5.9-0.3-4.5c-0.5,0.5-1.1,2.1-1.7,3.9
				c-1,2.9-0.3,7.8-0.3,7.8l-1.8-5.8l0.1-0.5c-0.2,0.1-0.4,0.3-0.5,0.3c-3.7,1.8-4.9,0.9-4.5,0.7c2.6-1.5,3.8-7.5,3.8-7.5l-4,3.3
				c-0.4-2.2,0.6-1.7-1.2-1.7c-1.8,0-3.9-2-2.9-1.8c1,0.2,5.1-1.8,2.5-2.2c-2.5-0.4-4.3-2.7-4.3-2.7S626.8,45.4,630,46z"/>
		</g>
	</g>
	<path class="st4" d="M654.5,75.4h-8.2c-0.4,0-0.8-0.3-0.8-0.8v0c0-0.4,0.3-0.8,0.8-0.8h8.2c0.4,0,0.8,0.3,0.8,0.8v0
		C655.3,75.1,655,75.4,654.5,75.4z"/>
	<path class="st4" d="M676.2,75.4h-9c-0.4,0-0.8-0.3-0.8-0.8v0c0-0.4,0.3-0.8,0.8-0.8h9c0.4,0,0.8,0.3,0.8,0.8v0
		C676.9,75.1,676.6,75.4,676.2,75.4z"/>
</g>
<g>
	<g>
		<polygon class="st0" points="2404.8,114.3 2404.8,198.6 2332.8,157 		"/>
		<polygon class="st1" points="2404.8,114.3 2405.3,199 2475.5,157.6 		"/>
	</g>
	<g>
		<path class="st1" d="M2441.2,176c0.2,0.1,0.4,0.5,0.7,1l2.3-1.3C2442.7,175.8,2440.7,175.8,2441.2,176z"/>
		<path class="st1" d="M2438.6,179l0.6-0.4c-0.1,0-0.3-0.1-0.4-0.1C2438.7,178.6,2438.6,178.8,2438.6,179z"/>
		<path class="st10" d="M2436.3,184.7c-0.1,0.3-0.2,0.5-0.3,0.8C2436.1,185.3,2436.2,185,2436.3,184.7z"/>
		<path class="st4" d="M2410.5,192.5c1.6,0,3-3,3-6.6c0-3.6-1.3-6.6-3-6.6c-1.6,0-3,3-3,6.6C2407.5,189.6,2408.9,192.5,2410.5,192.5
			z"/>
		<path class="st13" d="M2437.7,178.4c-0.2,0.1,0,0.9,0.3,1.8c0.2-0.4,0.3-0.8,0.5-1.2c0.1-0.2,0.1-0.3,0.2-0.5
			C2438.2,178.3,2437.9,178.3,2437.7,178.4z"/>
		<path class="st14" d="M2445.5,175.4c0.3,0,0.4,0,0.2,0C2445.7,175.3,2445.6,175.3,2445.5,175.4z"/>
	</g>
	<g>
		<path class="st16" d="M2415.3,193.1c-0.2,0-0.3,0-0.5,0c-2.2,0-3.9,1.1-3.9,2.4c0,0.1,0,0.2,0,0.2"/>
		<path class="st16" d="M2410.5,192.5c1.6,0,3-3,3-6.6c0-3.6-1.3-6.6-3-6.6c-1.6,0-3,3-3,6.6
			C2407.5,189.6,2408.9,192.5,2410.5,192.5z"/>
		<path class="st16" d="M2401.2,201.4l-1.4,0.8C2400.3,202.2,2400.8,201.9,2401.2,201.4z"/>
		<path class="st16" d="M2444.2,175.7c-1.5,0.1-3.5,0.1-3,0.3c0.2,0.1,0.4,0.5,0.7,1c0,0.1,0.1,0.1,0.1,0.2l2.7-1.6
			C2444.5,175.7,2444.3,175.7,2444.2,175.7z"/>
		<path class="st16" d="M2438.8,178.5c-0.5-0.1-0.9-0.2-1-0.1c-0.2,0.1-0.1,0.6,0.2,1.3l1.6-1c-0.1,0-0.2-0.1-0.3-0.1
			C2439,178.6,2438.9,178.5,2438.8,178.5z"/>
		<path class="st10" d="M2386.9,184.8c0-3.6,1.3-6.6,3-6.6s3,3,3,6.6c0,2.6-0.7,4.9-1.7,5.9l14.1,8.2l17.4-10.3
			c0.1-0.8,10.8-6.3,10.8-6.4l-23.6-26.8c0,0-26.4,1.3-27.6,2.7c-0.5,0.5-3.3,5.7-3.9,7.5c-0.1,0.2,1.5,5.9,1.7,7.4
			c0.4,3.9,0.8,8.4,1,11.9l6.4,3.7C2387.1,187.5,2386.9,186.2,2386.9,184.8z M2410.5,179.3c1.6,0,3,3,3,6.6c0,3.6-1.3,6.6-3,6.6
			c-1.6,0-3-3-3-6.6C2407.5,182.3,2408.9,179.3,2410.5,179.3z"/>
		<path class="st13" d="M2419.3,173.5c0.9,0.5,3.5,4.7,3.5,5.8s-1.7,2.8-1.7,2.8l0.9,0.2l-1.5,0.9l-0.2,3.6l3-0.7
			c1.7-4.4,5.2-7.1,7.9-6.1c1,0.4,1.7,1.2,2.2,2.3l2.8-1.6c-1.7-1.2-3.5-2.4-3.5-2.4s1.9,3.7,1.4,3.4c-0.5-0.3-5.3-6.1-5.3-6.1
			l-3.8,1.6l-4.5-4C2419.7,173.1,2418.9,173.2,2419.3,173.5z"/>
		<path class="st10" d="M2431.3,180c-2.7-1-6.2,1.7-7.9,6.1c0,0.1-0.1,0.1-0.1,0.2c-0.3,0.8-0.5,1.6-0.7,2.4l10.8-6.4
			C2433,181.2,2432.3,180.4,2431.3,180z"/>
		<path class="st15" d="M2445.2,175.5c-0.1,0-0.2,0-0.2-0.1l-0.3,0.2C2444.9,175.6,2445.1,175.6,2445.2,175.5z"/>
		<path class="st15" d="M2437.7,178.4c0.1-0.1,0.5,0,1,0.1c0.1,0,0.3,0.1,0.4,0.1c0.1,0,0.2,0.1,0.3,0.1l2.5-1.5
			c0-0.1-0.1-0.1-0.1-0.2c-0.3-0.6-0.5-1-0.7-1c-0.5-0.2,1.5-0.2,3-0.3c0.2,0,0.3,0,0.5-0.1l0.3-0.2c-0.1,0-0.1-0.1-0.2-0.1
			c-0.9-0.6-2.4-2.6-2.4-2.6s2.6-5.4,4.1-7.7c-1.5,0.6-4.2,1.6-4.8,1.8c-0.9,0.3,1.5-5.7,2.2-6.1c0.7-0.4-2.3,0.4-2.3,0.4
			s2.3-3.4,3.5-3.9c1.1-0.4-4.5-2.8-6.2-2.5s1.4-0.6,1.9-3.6c0-0.2-2.4,2-3.2,1.2c-0.1-0.1,4.2-3.4,4.3-6.6c0-0.2-8.3,1.8-8.3,1.8
			c1-3.6,0.8-7.3-0.6-8.9c-1.4-1.6-2.2-2.8-4.5-4.1c-2.1-1.2-5-2.7-7-3.8c-0.9-0.5,4.3,5.6,4.3,5.6s-5.7-3.4-6.8-3.6
			c-1.2-0.2-6.8-1.3-8.6-1.6c-1.1-0.1-3.5-1.2-5.6-2.3c-1.4-0.7-2.7-1.5-3.2-1.9c-1.4-1.1-3-2.3-3.3-3.6c-0.2-0.8,1.4,9.5,2.7,10.5
			c0.4,0.3-1.8,0.1-3.3-4c-0.1-0.3-1.8,3.5,2.3,7.2c0,0-0.3,1.1-3.9-1.3c-5.9-3.9-7-9-7-9s-0.2,10,1.6,11.7c0.2,0.2-4.7,0.4-5.7-0.9
			c-0.5-0.6,0.5,3.7,0.4,3.8c-0.2,0.5-2.7-3.2-2.9-5.8c-0.1-1-0.9,5-0.2,5.9c0.7,0.9-6.9,0.5-9,2.4c-0.2,0.2,5.3,0,4.5,2.2
			c0,0-5.8,1.9-7.2,3.1c-0.3,0.3,4-1.4,6.3,0.7c0.5,0.4-3.7,1.3-3.7,1.3l4.1,1.6c0,0-4.7,6-7.8,5.4c-3.1-0.7-2.1-0.4-2.1-0.4
			s1.8,2.2,4.3,2.7c2.5,0.4-1.6,2.5-2.5,2.2s1.2,1.8,2.9,1.8s0.8-0.5,1.2,1.7l4-3.3c0,0-1.1,6.1-3.8,7.5c-0.4,0.2,0.8,1.1,4.5-0.7
			c0.1-0.1,0.3-0.2,0.5-0.3l-0.1,0.5l1.8,5.8c0,0-0.6-4.2,0.1-7.1c0.1-0.2,0.1-0.5,0.2-0.7c0.6-1.8,1.3-3.4,1.7-3.9
			c1.2-1.3-1.2,2.3,0.3,4.5c0,0,4-4.2,6-3.8l-2.9,3.6c0.2,0.1,10-4.6,12.6-5.5c-1.2,4-3.4,4.6-3.9,4.8c-0.1,0.1,0.7,1.6,4.6,0.3
			c3.8-1.3,10-5.6,10-5.6s11.9,5.3,13.6,6c0.8,0.3-6.1,0.8-6.1,0.8l4.4,4l4.5,4l3.8-1.6c0,0,4.8,5.8,5.3,6.1
			c0.5,0.3-1.4-3.4-1.4-3.4s1.8,1.2,3.5,2.4"/>
	</g>
</g>
</svg>
