<svg xmlns="http://www.w3.org/2000/svg" viewBox="0 0 3011.31 157.74"><defs><style>.cls-1{fill:#cd9a51;}.cls-2{fill:#0c0101;}.cls-3{fill:#b4813b;}.cls-4{fill:#222526;}.cls-5{fill:#0a0a0a;}.cls-6{fill:#4f361b;}.cls-7{fill:#dfac6a;}.cls-8{fill:#fff;}.cls-9{fill:#1082ff;}.cls-10{fill:#9fd1ed;}</style></defs><title>fond2Plan de travail 99</title><g id="Calque_9" data-name="Calque 9"><path class="cls-1" d="M1819,119.77h30.88c11.54,0,24.19,9.33,29.4,12.68s21.58,10.74,21.58,10.74,1.49-3.3,4.09-2.92,11.91,6.19,11.91,6.19-13.77,3.79-16.74,3.26-92.65,2.82-94.89,2.08-14.29-3.45-11.11-5.21,21.09-28.16,21.09-28.16Z"/><path class="cls-2" d="M1822,118.47h30.88c11.54,0,24.19,9.34,29.4,12.69,2,1.26-11.34,19.45-11.34,19.45s-61.32.36-62.71-.1c-2.23-.75-14.29-3.46-11.11-5.21s21.09-28.17,21.09-28.17Z"/><path class="cls-3" d="M1793.31,146.48c-.8-1.59-3.2-14.89,12.43-13.4s49.49,13.4,49.49,13.4,7.81,4.09,0,5.58S1798,155.78,1793.31,146.48Z"/><path class="cls-2" d="M1830,131.38l-10.51,24.4L1796,151.07a4.17,4.17,0,0,1-3.33-4.51h0a4.21,4.21,0,0,1,1.29-2.63l18.12-17Z"/><path class="cls-1" d="M1723.18,123S1709,92.75,1712.64,78.77c3.91-15.08,7.76-18.52,13.34-24s14.59-9.92,18.59-12c3.49-1.78,15.93-5.64,24-3.66s15.91,2.41,29.15,11.42a58.07,58.07,0,0,1,19,22.22s7,18.93,2.37,33.88c-1,3.33-1.93,6.09-2.68,8.37a75.72,75.72,0,0,1-9.83,19.58,64.28,64.28,0,0,1-5.42,6.91c-4.68,4.93-17,10.07-22.43,12.34s-22.29,4.06-27.49,3.41-26.1-6.13-27.71-9.24,1.07-10,1.14-14.12S1723.18,123,1723.18,123Z"/><path class="cls-4" d="M1814.72,81.12c1.35,4.07,11.85,11.11,10.91,13.41s-7.08,23-12.28,34c-3.35,7.1-16.08,16.31-16.08,16.31L1792,114.41l-9.67,2.74.16-7.53,3-1.94-1.84-.36s3.33-3.8,3.26-6.07-6-11-7.82-11.92,7.58-1.12,7.58-1.12l-7.51-5.7,12.86-.44L1779.24,74l7,.73,33.18,6.74"/><path class="cls-2" d="M1685.22,78.89c6.51.4,14.09-13.23,14.09-13.23l-8.74-1.89s8.18-3.1,7.06-3.85c-5.21-3.5-13.4,1.23-12.8.56,2.59-2.86,13.6-8.53,13.6-8.53.89-4.75-10.16-2.61-9.74-3.13,3.56-4.43,19-5.93,17.38-7.5s-1.94-14-1.43-12c1.32,5.21,7.35,11.92,7.69,10.83.1-.33-3.09-8.71-2-7.55,2.27,2.31,12.25.45,11.69.07-4.08-2.74-6.72-23-6.72-23s3.84,9.79,16.91,15.89c8,3.74,8.28,1.5,8.28,1.5-9.47-6-7.27-14.34-6.92-13.71,4.4,7.75,8.92,7.64,7.93,7.1-3-1.64-9.38-21.89-8.74-20.37,1.06,2.54,4.69,4.36,7.79,6.2s15.4,6,19,5.87,15.37.43,17.8.52,14.87,5.12,14.87,5.12-12.4-10.69-10.38-10c4.49,1.62,10.74,3.64,15.34,5.51,4.92,2,7,4.19,10.27,6.93s5,7,4.16,14.47c0,0,16-3.46,16-3,.66,6.42-7,14.36-6.7,14.57,1.86,1.36,6.11-3.9,6.11-3.4,0,6.22-6,8.92-2.64,7.79s15.33,2,13.23,3.22-5.78,8.88-5.78,8.88,5.95-2.75,4.59-1.62-4.25,13.88-2.6,13c1-.54,6.21-3.28,9.1-5-2.43,5.1-6,16.71-6,16.71s5,5,6.53,4.8c-2,1-9.4,1.79-8,2.13s7.11,11.53,5.74,9.28-11.07-4.16-12-3.41,4.75,9.43,3.82,8.34-13.82-7.12-13.82-7.12,4.88,7,3.79,6.5-12.58-10.7-12.58-10.7l-7.09,4.4-24.33-17.6s14.63,0,12.86-.44c-3.63-.87-26.13-6.85-26.13-6.85s-11.21,10.48-18.51,14.36-9.58,1-9.31.8c.85-.49,5.17-2.43,6.28-10.9-5,2.72-23.18,15-23.69,15l4.69-8.19c-4.09-.25-10.83,9.41-10.83,9.41-3.78-4-1.67-10.56-3.75-7.47-.79,1.17.07,3.06-.63,6.88-1.14,6.23,1.73,15.86,1.73,15.86l-5.31-11.11.1-1a10.65,10.65,0,0,1-1,.81c-6.93,4.75-9.6,3.31-8.85,2.73,4.89-3.75,5.28-16.33,5.28-16.33l-7,7.82c-1.47-4.39.69-3.66-2.86-3.12s-8.48-2.86-6.45-2.7,9.68-5.17,4.43-5.3-9.48-4.09-9.48-4.09S1678.72,78.5,1685.22,78.89Z"/><ellipse class="cls-1" cx="1797.57" cy="119.77" rx="15.16" ry="9.15" transform="translate(733.17 1573.26) rotate(-57.6)"/><path class="cls-5" d="M1733.65,126.87a2.07,2.07,0,0,1-1.55-2.42c.09-.48.8-3.2,5.5-9.34,2.54-3.33,7.44-5.86,7.64-6a2.08,2.08,0,0,1,2.81.92,2.13,2.13,0,0,1-.92,2.84c-.05,0-4.26,2.2-6.22,4.76-4.09,5.36-4.71,7.62-4.72,7.65a2.12,2.12,0,0,1-2.5,1.56Z"/><path class="cls-5" d="M1749.59,122.27c0,1.11-3.14,2.08-2,2,.49,0-3.29-.08-10.32-3.3-3.81-1.74-7.36-6-7.51-6.14a2.08,2.08,0,0,1,.28-2.94,2.13,2.13,0,0,1,3,.27s3.08,3.67,6,5c6.14,2.81,8.48,2.91,8.5,2.91a2.14,2.14,0,0,1,2.08,2.1Z"/><path class="cls-6" d="M1751.45,143.24a1,1,0,1,1,.58,1.87c-5.92,1.84-8.73,4.33-8.75,4.36a1,1,0,0,1-1.14.13.79.79,0,0,1-.25-.2A1,1,0,0,1,1742,148"/><ellipse class="cls-7" cx="1761.74" cy="125.43" rx="8.79" ry="5.31" transform="translate(33.66 490.4) rotate(-16)"/><path class="cls-8" d="M1717.1,14.8c-3.92-5.55-13-14.53-31-14.79-22.16-.32-32.91,10.18-36.65,15.17a31,31,0,0,0-6.08,25.33l2.67,13.32a30.88,30.88,0,0,0,10.32,17.56c.64,2.92,6.71,10.59,5.33,16.48-1.31,5.61-4.25,9.06,8.35,14.67s14.78,9.94,14.17,11.52c-2.61,6.75,0,9.41,4.72,11.06,10.83,3.84,9.35,6.16,15.89,10,5.45,3.17-.07-4.69-1.14-9.93-.56-2.72-5.49-3.26-7.55-6.61-1.76-2.84.37-8.76-3.36-10.21-3.5-1.36-14-15.22-4.68-22s25.5-17.22,25.5-17.22,3.82-2.06,2.81-4.95a13.58,13.58,0,0,0-2.92-4.14s3.51-12.91,2.09-20l-2.2-11a21,21,0,0,1,3.26-7.1C1718.4,19.54,1718.59,16.9,1717.1,14.8Z"/><ellipse class="cls-5" cx="1688.75" cy="35.6" rx="2.69" ry="5.97" transform="translate(25.76 331.61) rotate(-11.3)"/><ellipse class="cls-5" cx="1670.7" cy="40.25" rx="2.69" ry="5.97" transform="translate(24.5 328.16) rotate(-11.3)"/><path class="cls-9" d="M1684.11,48.42c-1,.2-3.17,1.32-3.17,3s2.71,1.52,3.5.33S1684.11,48.42,1684.11,48.42Z"/><ellipse class="cls-10" cx="1668.56" cy="49.39" rx="3.53" ry="2.13" transform="translate(22.67 327.92) rotate(-11.3)"/><ellipse class="cls-10" cx="1694.05" cy="42.66" rx="3.11" ry="1.9" transform="translate(24.48 332.79) rotate(-11.3)"/><path class="cls-1" d="M1545,119.77h30.88c11.53,0,24.19,9.33,29.39,12.68s21.59,10.74,21.59,10.74,1.48-3.3,4.09-2.92,11.91,6.19,11.91,6.19-13.77,3.79-16.75,3.26-92.65,2.82-94.88,2.08-14.29-3.45-11.12-5.21,21.09-28.16,21.09-28.16Z"/><path class="cls-2" d="M1548,118.47h30.89c11.53,0,24.18,9.34,29.39,12.69,2,1.26-11.34,19.45-11.34,19.45s-61.31.36-62.7-.1c-2.24-.75-14.29-3.46-11.12-5.21s21.09-28.17,21.09-28.17Z"/><path class="cls-3" d="M1519.28,146.48c-.8-1.59-3.2-14.89,12.43-13.4s49.49,13.4,49.49,13.4,7.81,4.09,0,5.58S1524,155.78,1519.28,146.48Z"/><path class="cls-2" d="M1556,131.38l-10.5,24.4L1522,151.07a4.18,4.18,0,0,1-3.33-4.51h0a4.17,4.17,0,0,1,1.3-2.63l18.12-17Z"/><path class="cls-1" d="M1449.16,123S1435,92.75,1438.62,78.77c3.91-15.08,7.76-18.52,13.33-24s14.6-9.92,18.6-12c3.49-1.78,15.93-5.64,24-3.66s15.9,2.41,29.14,11.42a58.16,58.16,0,0,1,19,22.22s7,18.93,2.37,33.88c-1,3.33-1.93,6.09-2.69,8.37a75.72,75.72,0,0,1-9.83,19.58,63,63,0,0,1-5.42,6.91c-4.67,4.93-17,10.07-22.42,12.34s-22.29,4.06-27.49,3.41-26.11-6.13-27.72-9.24,1.08-10,1.15-14.12S1449.16,123,1449.16,123Z"/><path class="cls-4" d="M1540.69,81.12c1.36,4.07,11.86,11.11,10.92,13.41s-7.09,23-12.28,34c-3.35,7.1-16.09,16.31-16.09,16.31L1518,114.41l-9.68,2.74.16-7.53,3-1.94-1.85-.36s3.34-3.8,3.26-6.07-6-11-7.82-11.92,7.59-1.12,7.59-1.12l-7.52-5.7,12.86-.44L1505.22,74l7,.73,33.18,6.74"/><path class="cls-2" d="M1411.2,78.89c6.5.4,14.09-13.23,14.09-13.23l-8.75-1.89s8.19-3.1,7.07-3.85c-5.21-3.5-13.4,1.23-12.8.56,2.58-2.86,13.59-8.53,13.59-8.53.89-4.75-10.16-2.61-9.73-3.13,3.55-4.43,19-5.93,17.37-7.5s-1.93-14-1.43-12c1.32,5.21,7.36,11.92,7.7,10.83.1-.33-3.1-8.71-2-7.55,2.26,2.31,12.25.45,11.68.07-4.08-2.74-6.72-23-6.72-23s3.84,9.79,16.92,15.89c8,3.74,8.28,1.5,8.28,1.5-9.48-6-7.28-14.34-6.92-13.71,4.4,7.75,8.91,7.64,7.92,7.1-3-1.64-9.37-21.89-8.74-20.37,1.06,2.54,4.69,4.36,7.79,6.2s15.41,6,19,5.87,15.36.43,17.79.52,14.87,5.12,14.87,5.12-12.4-10.69-10.37-10c4.49,1.62,10.74,3.64,15.33,5.51,4.93,2,7,4.19,10.27,6.93s5,7,4.17,14.47c0,0,16-3.46,16-3,.66,6.42-7,14.36-6.69,14.57,1.86,1.36,6.1-3.9,6.1-3.4,0,6.22-6,8.92-2.63,7.79s15.33,2,13.22,3.22-5.77,8.88-5.77,8.88,5.94-2.75,4.59-1.62-4.25,13.88-2.6,13c1-.54,6.2-3.28,9.1-5-2.44,5.1-6,16.71-6,16.71s5,5,6.53,4.8c-2,1-9.4,1.79-8,2.13,1.59.37,7.11,11.53,5.75,9.28s-11.08-4.16-12-3.41,4.75,9.43,3.82,8.34-13.83-7.12-13.83-7.12,4.88,7,3.8,6.5-12.59-10.7-12.59-10.7l-7.08,4.4-24.34-17.6s14.63,0,12.86-.44c-3.63-.87-26.13-6.85-26.13-6.85s-11.2,10.48-18.51,14.36-9.58,1-9.3.8c.85-.49,5.16-2.43,6.28-10.9-5,2.72-23.18,15-23.7,15l4.7-8.19c-4.09-.25-10.84,9.41-10.84,9.41-3.77-4-1.67-10.56-3.75-7.47-.79,1.17.08,3.06-.62,6.88-1.15,6.23,1.73,15.86,1.73,15.86l-5.31-11.11.1-1a12.16,12.16,0,0,1-1,.81c-6.92,4.75-9.59,3.31-8.84,2.73,4.88-3.75,5.27-16.33,5.27-16.33l-7,7.82c-1.48-4.39.68-3.66-2.86-3.12s-8.49-2.86-6.45-2.7,9.68-5.17,4.42-5.3-9.48-4.09-9.48-4.09S1404.7,78.5,1411.2,78.89Z"/><ellipse class="cls-1" cx="1523.54" cy="119.77" rx="15.16" ry="9.15" transform="translate(605.99 1341.9) rotate(-57.6)"/><path class="cls-5" d="M1459.63,126.87a2.08,2.08,0,0,1-1.56-2.42c.1-.48.81-3.2,5.5-9.34,2.54-3.33,7.44-5.86,7.65-6a2.08,2.08,0,0,1,2.81.92,2.13,2.13,0,0,1-.93,2.84s-4.26,2.2-6.21,4.76c-4.1,5.36-4.71,7.62-4.72,7.65a2.13,2.13,0,0,1-2.5,1.56Z"/><path class="cls-5" d="M1475.56,122.27c0,1.11-3.14,2.08-2,2,.49,0-3.3-.08-10.33-3.3-3.81-1.74-7.35-6-7.5-6.14a2.06,2.06,0,0,1,.28-2.94,2.12,2.12,0,0,1,3,.27s3.09,3.67,6,5c6.13,2.81,8.47,2.91,8.5,2.91a2.13,2.13,0,0,1,2.07,2.1Z"/><path class="cls-6" d="M1477.42,143.24a1,1,0,1,1,.59,1.87c-5.93,1.84-8.73,4.33-8.76,4.36a1,1,0,0,1-1.14.13.92.92,0,0,1-.25-.2,1,1,0,0,1,.07-1.38"/><ellipse class="cls-7" cx="1487.72" cy="125.43" rx="8.79" ry="5.31" transform="translate(23.05 414.88) rotate(-16)"/><path class="cls-8" d="M1443.08,14.8c-3.93-5.55-13-14.53-31-14.79-22.16-.32-32.91,10.18-36.64,15.17a31,31,0,0,0-6.08,25.33l2.66,13.32a31,31,0,0,0,10.33,17.56c.64,2.92,6.7,10.59,5.33,16.48-1.32,5.61-4.26,9.06,8.34,14.67s14.78,9.94,14.17,11.52c-2.6,6.75.06,9.41,4.72,11.06,10.83,3.84,9.35,6.16,15.89,10,5.45,3.17-.07-4.69-1.14-9.93-.56-2.72-5.48-3.26-7.55-6.61-1.76-2.84.38-8.76-3.35-10.21-3.5-1.36-14-15.22-4.68-22s25.49-17.22,25.49-17.22,3.82-2.06,2.81-4.95a13.41,13.41,0,0,0-2.92-4.14s3.51-12.91,2.09-20l-2.2-11a21,21,0,0,1,3.27-7.1C1444.37,19.54,1444.57,16.9,1443.08,14.8Z"/><ellipse class="cls-5" cx="1414.72" cy="35.6" rx="2.69" ry="5.97" transform="translate(20.45 277.91) rotate(-11.3)"/><ellipse class="cls-5" cx="1396.67" cy="40.25" rx="2.69" ry="5.97" transform="translate(19.19 274.47) rotate(-11.3)"/><path class="cls-9" d="M1410.08,48.42c-1,.2-3.16,1.32-3.16,3s2.7,1.52,3.49.33S1410.08,48.42,1410.08,48.42Z"/><ellipse class="cls-10" cx="1394.53" cy="49.39" rx="3.53" ry="2.13" transform="translate(17.36 274.22) rotate(-11.3)"/><ellipse class="cls-10" cx="1420.02" cy="42.66" rx="3.11" ry="1.9" transform="translate(19.17 279.09) rotate(-11.3)"/><path class="cls-1" d="M1270.92,119.77h30.88c11.54,0,24.19,9.33,29.4,12.68s21.58,10.74,21.58,10.74,1.49-3.3,4.09-2.92,11.91,6.19,11.91,6.19-13.77,3.79-16.74,3.26-92.65,2.82-94.89,2.08-14.29-3.45-11.11-5.21,21.09-28.16,21.09-28.16Z"/><path class="cls-2" d="M1273.93,118.47h30.88c11.54,0,24.19,9.34,29.4,12.69,2,1.26-11.34,19.45-11.34,19.45s-61.32.36-62.71-.1c-2.23-.75-14.29-3.46-11.11-5.21s21.08-28.17,21.08-28.17Z"/><path class="cls-3" d="M1245.25,146.48c-.79-1.59-3.19-14.89,12.44-13.4s49.48,13.4,49.48,13.4,7.82,4.09,0,5.58S1249.94,155.78,1245.25,146.48Z"/><path class="cls-2" d="M1281.93,131.38l-10.51,24.4L1248,151.07a4.17,4.17,0,0,1-3.32-4.51h0a4.21,4.21,0,0,1,1.29-2.63l18.12-17Z"/><path class="cls-1" d="M1175.13,123S1161,92.75,1164.59,78.77c3.91-15.08,7.76-18.52,13.34-24s14.59-9.92,18.59-12c3.49-1.78,15.93-5.64,24-3.66s15.91,2.41,29.15,11.42a58.18,58.18,0,0,1,19,22.22s7,18.93,2.37,33.88c-1,3.33-1.93,6.09-2.68,8.37a75.75,75.75,0,0,1-9.84,19.58,63.06,63.06,0,0,1-5.41,6.91c-4.68,4.93-17,10.07-22.43,12.34s-22.29,4.06-27.49,3.41-26.1-6.13-27.72-9.24,1.08-10,1.15-14.12S1175.13,123,1175.13,123Z"/><path class="cls-4" d="M1266.67,81.12c1.35,4.07,11.85,11.11,10.91,13.41s-7.08,23-12.28,34c-3.35,7.1-16.08,16.31-16.08,16.31l-5.28-30.42-9.67,2.74.15-7.53,3-1.94-1.84-.36s3.33-3.8,3.26-6.07-6-11-7.82-11.92,7.58-1.12,7.58-1.12l-7.51-5.7,12.86-.44L1231.19,74l7,.73,33.18,6.74"/><path class="cls-2" d="M1137.17,78.89c6.5.4,14.09-13.23,14.09-13.23l-8.74-1.89s8.18-3.1,7.06-3.85c-5.21-3.5-13.4,1.23-12.8.56,2.59-2.86,13.6-8.53,13.6-8.53.88-4.75-10.16-2.61-9.74-3.13,3.56-4.43,19-5.93,17.38-7.5s-1.94-14-1.43-12c1.32,5.21,7.35,11.92,7.69,10.83.1-.33-3.1-8.71-2-7.55,2.27,2.31,12.25.45,11.69.07-4.08-2.74-6.72-23-6.72-23s3.84,9.79,16.91,15.89c8,3.74,8.28,1.5,8.28,1.5-9.48-6-7.27-14.34-6.92-13.71,4.4,7.75,8.92,7.64,7.93,7.1-3-1.64-9.38-21.89-8.74-20.37,1.06,2.54,4.69,4.36,7.79,6.2s15.4,6,19,5.87,15.36.43,17.79.52,14.88,5.12,14.88,5.12-12.4-10.69-10.38-10c4.49,1.62,10.74,3.64,15.34,5.51,4.92,2,7,4.19,10.27,6.93s5,7,4.16,14.47c0,0,16-3.46,16-3,.66,6.42-7,14.36-6.7,14.57,1.86,1.36,6.11-3.9,6.11-3.4,0,6.22-6,8.92-2.64,7.79s15.33,2,13.23,3.22-5.78,8.88-5.78,8.88,6-2.75,4.59-1.62-4.25,13.88-2.6,13c1-.54,6.2-3.28,9.1-5-2.43,5.1-6,16.71-6,16.71s5,5,6.53,4.8c-2,1-9.4,1.79-8,2.13s7.11,11.53,5.74,9.28-11.07-4.16-12-3.41,4.75,9.43,3.82,8.34-13.82-7.12-13.82-7.12,4.88,7,3.79,6.5-12.58-10.7-12.58-10.7l-7.09,4.4-24.33-17.6s14.63,0,12.86-.44c-3.63-.87-26.13-6.85-26.13-6.85S1206.6,85.7,1199.3,89.58s-9.58,1-9.31.8c.85-.49,5.17-2.43,6.28-10.9-5,2.72-23.18,15-23.69,15l4.69-8.19c-4.09-.25-10.83,9.41-10.83,9.41-3.78-4-1.68-10.56-3.75-7.47-.79,1.17.07,3.06-.63,6.88-1.14,6.23,1.73,15.86,1.73,15.86l-5.31-11.11.1-1a12.26,12.26,0,0,1-1,.81c-6.93,4.75-9.6,3.31-8.85,2.73,4.89-3.75,5.28-16.33,5.28-16.33l-7,7.82c-1.47-4.39.69-3.66-2.86-3.12s-8.48-2.86-6.45-2.7,9.68-5.17,4.43-5.3-9.48-4.09-9.48-4.09S1130.67,78.5,1137.17,78.89Z"/><ellipse class="cls-1" cx="1249.52" cy="119.77" rx="15.16" ry="9.15" transform="translate(478.81 1110.55) rotate(-57.6)"/><path class="cls-5" d="M1185.6,126.87a2.07,2.07,0,0,1-1.55-2.42c.09-.48.8-3.2,5.5-9.34,2.54-3.33,7.43-5.86,7.64-6a2.08,2.08,0,0,1,2.81.92,2.13,2.13,0,0,1-.92,2.84s-4.26,2.2-6.22,4.76c-4.09,5.36-4.71,7.62-4.72,7.65a2.12,2.12,0,0,1-2.5,1.56Z"/><path class="cls-5" d="M1201.54,122.27c0,1.11-3.15,2.08-2,2,.49,0-3.29-.08-10.33-3.3-3.81-1.74-7.35-6-7.5-6.14a2.08,2.08,0,0,1,.28-2.94,2.13,2.13,0,0,1,3,.27s3.08,3.67,6,5c6.14,2.81,8.48,2.91,8.5,2.91a2.14,2.14,0,0,1,2.08,2.1Z"/><path class="cls-6" d="M1203.4,143.24a1,1,0,1,1,.58,1.87c-5.92,1.84-8.73,4.33-8.75,4.36a1,1,0,0,1-1.14.13.79.79,0,0,1-.25-.2,1,1,0,0,1,.06-1.38"/><ellipse class="cls-7" cx="1213.69" cy="125.43" rx="8.79" ry="5.31" transform="translate(12.44 339.36) rotate(-16)"/><path class="cls-8" d="M1167.56,34.9c-3.31-4.67-11-12.24-26.08-12.46-18.66-.27-27.71,8.58-30.86,12.79a26.11,26.11,0,0,0-5.12,21.32l2.25,11.22a26.06,26.06,0,0,0,8.69,14.79c.54,2.46,5.65,8.92,4.49,13.88-1.11,4.72-3.58,7.63,7,12.36s12.45,8.36,11.93,9.69c-2.19,5.69,0,7.93,4,9.32,9.12,3.24,7.87,5.19,13.38,8.39,4.59,2.67-.06-3.95-1-8.36-.47-2.29-4.62-2.76-6.36-5.57-1.48-2.39.32-7.38-2.83-8.6-2.94-1.14-11.76-12.82-3.93-18.56s21.47-14.51,21.47-14.51,3.21-1.73,2.36-4.16a11.23,11.23,0,0,0-2.46-3.49s3-10.87,1.76-16.88l-1.85-9.25a17.64,17.64,0,0,1,2.75-6A4.88,4.88,0,0,0,1167.56,34.9Z"/><ellipse class="cls-5" cx="1143.68" cy="52.42" rx="2.27" ry="5.02" transform="matrix(0.98, -0.2, 0.2, 0.98, 11.9, 225.13)"/><ellipse class="cls-5" cx="1128.48" cy="56.33" rx="2.27" ry="5.02" transform="translate(10.84 222.22) rotate(-11.3)"/><path class="cls-9" d="M1139.77,63.22c-.83.16-2.66,1.11-2.66,2.55s2.27,1.28,2.94.28S1139.77,63.22,1139.77,63.22Z"/><ellipse class="cls-10" cx="1126.68" cy="64.04" rx="2.97" ry="1.79" transform="translate(9.3 222.02) rotate(-11.3)"/><ellipse class="cls-10" cx="1148.15" cy="58.37" rx="2.62" ry="1.6" transform="translate(10.82 226.12) rotate(-11.3)"/><path class="cls-1" d="M996.88,119.77h30.89c11.53,0,24.18,9.33,29.39,12.68s21.58,10.74,21.58,10.74,1.49-3.3,4.1-2.92,11.9,6.19,11.9,6.19-13.76,3.79-16.74,3.26-92.65,2.82-94.88,2.08-14.29-3.45-11.12-5.21,21.09-28.16,21.09-28.16Z"/><path class="cls-2" d="M999.89,118.47h30.88c11.54,0,24.19,9.34,29.4,12.69,2,1.26-11.34,19.45-11.34,19.45s-61.31.36-62.71-.1c-2.23-.75-14.29-3.46-11.11-5.21s21.09-28.17,21.09-28.17Z"/><path class="cls-3" d="M971.22,146.48c-.8-1.59-3.2-14.89,12.43-13.4s49.49,13.4,49.49,13.4,7.81,4.09,0,5.58S975.9,155.78,971.22,146.48Z"/><path class="cls-2" d="M1007.89,131.38l-10.5,24.4L974,151.07a4.17,4.17,0,0,1-3.33-4.51h0a4.21,4.21,0,0,1,1.29-2.63l18.13-17Z"/><path class="cls-1" d="M901.09,123s-14.16-30.27-10.53-44.25c3.91-15.08,7.76-18.52,13.33-24s14.6-9.92,18.6-12c3.49-1.78,15.93-5.64,24-3.66s15.91,2.41,29.15,11.42a58.07,58.07,0,0,1,19,22.22s7,18.93,2.38,33.88c-1,3.33-1.93,6.09-2.69,8.37a75.72,75.72,0,0,1-9.83,19.58,64.28,64.28,0,0,1-5.42,6.91c-4.68,4.93-17,10.07-22.42,12.34s-22.29,4.06-27.5,3.41-26.1-6.13-27.71-9.24,1.08-10,1.14-14.12S901.09,123,901.09,123Z"/><path class="cls-4" d="M992.63,81.12c1.35,4.07,11.85,11.11,10.91,13.41s-7.08,23-12.28,34c-3.35,7.1-16.08,16.31-16.08,16.31l-5.27-30.42-9.68,2.74.16-7.53,3-1.94-1.84-.36s3.33-3.8,3.26-6.07-6-11-7.82-11.92,7.59-1.12,7.59-1.12L957,82.51l12.86-.44L957.15,74l7,.73,33.17,6.74"/><path class="cls-2" d="M863.13,78.89c6.51.4,14.09-13.23,14.09-13.23l-8.74-1.89s8.18-3.1,7.06-3.85c-5.2-3.5-13.4,1.23-12.8.56,2.59-2.86,13.6-8.53,13.6-8.53.89-4.75-10.16-2.61-9.74-3.13,3.56-4.43,19-5.93,17.38-7.5s-1.93-14-1.43-12c1.32,5.21,7.35,11.92,7.69,10.83.11-.33-3.09-8.71-2-7.55,2.26,2.31,12.24.45,11.68.07-4.08-2.74-6.72-23-6.72-23s3.84,9.79,16.91,15.89c8,3.74,8.29,1.5,8.29,1.5-9.48-6-7.28-14.34-6.93-13.71,4.41,7.75,8.92,7.64,7.93,7.1-3-1.64-9.38-21.89-8.74-20.37,1.06,2.54,4.69,4.36,7.79,6.2s15.4,6,19,5.87,15.37.43,17.8.52,14.87,5.12,14.87,5.12-12.4-10.69-10.38-10c4.49,1.62,10.74,3.64,15.34,5.51,4.93,2,7,4.19,10.27,6.93s5,7,4.17,14.47c0,0,16-3.46,16-3,.66,6.42-7,14.36-6.7,14.57,1.86,1.36,6.11-3.9,6.11-3.4,0,6.22-6,8.92-2.64,7.79s15.33,2,13.23,3.22-5.78,8.88-5.78,8.88,5.95-2.75,4.6-1.62-4.26,13.88-2.61,13c1-.54,6.21-3.28,9.1-5-2.43,5.1-6,16.71-6,16.71s5,5,6.53,4.8c-2.05,1-9.41,1.79-8,2.13s7.11,11.53,5.75,9.28-11.08-4.16-12-3.41,4.75,9.43,3.82,8.34-13.82-7.12-13.82-7.12,4.88,7,3.79,6.5-12.58-10.7-12.58-10.7l-7.09,4.4L957,82.51s14.63,0,12.86-.44c-3.63-.87-26.13-6.85-26.13-6.85S932.56,85.7,925.26,89.58s-9.58,1-9.3.8c.84-.49,5.16-2.43,6.27-10.9-5.05,2.72-23.18,15-23.69,15l4.7-8.19c-4.1-.25-10.84,9.41-10.84,9.41-3.78-4-1.67-10.56-3.75-7.47-.79,1.17.08,3.06-.63,6.88-1.14,6.23,1.73,15.86,1.73,15.86l-5.3-11.11.09-1a10.65,10.65,0,0,1-1,.81c-6.93,4.75-9.6,3.31-8.85,2.73C879.62,98.62,880,86,880,86l-7,7.82c-1.47-4.39.69-3.66-2.85-3.12s-8.49-2.86-6.46-2.7,9.68-5.17,4.43-5.3-9.48-4.09-9.48-4.09S856.63,78.5,863.13,78.89Z"/><ellipse class="cls-1" cx="975.48" cy="119.77" rx="15.16" ry="9.15" transform="translate(351.62 879.18) rotate(-57.6)"/><path class="cls-5" d="M911.56,126.87a2.08,2.08,0,0,1-1.55-2.42c.09-.48.8-3.2,5.5-9.34,2.54-3.33,7.44-5.86,7.64-6a2.08,2.08,0,0,1,2.81.92,2.13,2.13,0,0,1-.92,2.84s-4.26,2.2-6.22,4.76c-4.09,5.36-4.71,7.62-4.71,7.65a2.13,2.13,0,0,1-2.5,1.56Z"/><path class="cls-5" d="M927.5,122.27c0,1.11-3.14,2.08-2,2,.49,0-3.29-.08-10.32-3.3-3.81-1.74-7.36-6-7.5-6.14a2.06,2.06,0,0,1,.28-2.94,2.12,2.12,0,0,1,3,.27s3.09,3.67,6,5c6.13,2.81,8.47,2.91,8.49,2.91a2.14,2.14,0,0,1,2.08,2.1Z"/><path class="cls-6" d="M929.36,143.24a1,1,0,1,1,.58,1.87c-5.92,1.84-8.73,4.33-8.75,4.36a1,1,0,0,1-1.14.13.92.92,0,0,1-.25-.2,1,1,0,0,1,.06-1.38"/><ellipse class="cls-7" cx="939.65" cy="125.43" rx="8.79" ry="5.31" transform="translate(1.82 263.83) rotate(-16)"/><path class="cls-8" d="M891.53,52.81c-2.71-3.82-9-10-21.36-10.2-15.28-.22-22.7,7-25.27,10.47a21.35,21.35,0,0,0-4.19,17.46l1.83,9.19a21.36,21.36,0,0,0,7.12,12.11c.44,2,4.63,7.31,3.68,11.36-.91,3.87-2.94,6.25,5.75,10.12s10.2,6.85,9.78,7.94c-1.8,4.66,0,6.49,3.25,7.64,7.47,2.64,6.45,4.24,11,6.86,3.76,2.19-.05-3.23-.79-6.84-.38-1.88-3.78-2.26-5.2-4.56-1.21-2,.26-6-2.32-7-2.41-.94-9.63-10.5-3.22-15.2s17.58-11.88,17.58-11.88,2.63-1.42,1.93-3.41a9.12,9.12,0,0,0-2-2.86s2.42-8.9,1.44-13.82L889,62.57a14.53,14.53,0,0,1,2.25-4.9A4,4,0,0,0,891.53,52.81Z"/><ellipse class="cls-5" cx="871.97" cy="67.16" rx="1.86" ry="4.11" transform="translate(3.74 172.17) rotate(-11.3)"/><ellipse class="cls-5" cx="859.52" cy="70.36" rx="1.86" ry="4.11" transform="translate(2.88 169.79) rotate(-11.3)"/><path class="cls-9" d="M868.77,76c-.68.14-2.18.91-2.18,2.09s1.86,1,2.41.23S868.77,76,868.77,76Z"/><ellipse class="cls-10" cx="858.05" cy="76.67" rx="2.44" ry="1.47" transform="matrix(0.98, -0.2, 0.2, 0.98, 1.61, 169.63)"/><ellipse class="cls-10" cx="875.63" cy="72.03" rx="2.14" ry="1.31" transform="translate(2.86 172.98) rotate(-11.3)"/><path class="cls-1" d="M723.69,119.77h30.89c11.53,0,24.18,9.33,29.39,12.68s21.58,10.74,21.58,10.74,1.49-3.3,4.1-2.92,11.9,6.19,11.9,6.19-13.76,3.79-16.74,3.26-92.65,2.82-94.88,2.08-14.29-3.45-11.12-5.21,21.09-28.16,21.09-28.16Z"/><path class="cls-2" d="M726.7,118.47h30.88c11.54,0,24.19,9.34,29.4,12.69,2,1.26-11.34,19.45-11.34,19.45s-61.31.36-62.71-.1c-2.23-.75-14.29-3.46-11.11-5.21s21.09-28.17,21.09-28.17Z"/><path class="cls-3" d="M698,146.48c-.8-1.59-3.2-14.89,12.43-13.4S760,146.48,760,146.48s7.81,4.09,0,5.58S702.71,155.78,698,146.48Z"/><path class="cls-2" d="M734.7,131.38l-10.5,24.4-23.44-4.71a4.18,4.18,0,0,1-3.33-4.51h0a4.21,4.21,0,0,1,1.29-2.63l18.13-17Z"/><path class="cls-1" d="M627.9,123s-14.16-30.27-10.53-44.25c3.91-15.08,7.76-18.52,13.33-24s14.6-9.92,18.6-12c3.49-1.78,15.93-5.64,24-3.66s15.91,2.41,29.15,11.42a58.07,58.07,0,0,1,19,22.22s7,18.93,2.38,33.88c-1,3.33-1.93,6.09-2.69,8.37a75.72,75.72,0,0,1-9.83,19.58,64.28,64.28,0,0,1-5.42,6.91c-4.68,4.93-17,10.07-22.42,12.34s-22.29,4.06-27.5,3.41-26.1-6.13-27.71-9.24,1.08-10,1.14-14.12S627.9,123,627.9,123Z"/><path class="cls-4" d="M719.44,81.12c1.35,4.07,11.85,11.11,10.91,13.41s-7.08,23-12.28,34c-3.35,7.1-16.08,16.31-16.08,16.31l-5.27-30.42L687,117.15l.16-7.53,3-1.94-1.84-.36s3.33-3.8,3.26-6.07-6-11-7.82-11.92,7.59-1.12,7.59-1.12l-7.52-5.7,12.86-.44L684,74l7,.73,33.17,6.74"/><path class="cls-2" d="M590,78.89c6.5.4,14.08-13.23,14.08-13.23l-8.74-1.89s8.18-3.1,7.06-3.85c-5.2-3.5-13.4,1.23-12.79.56,2.58-2.86,13.59-8.53,13.59-8.53.89-4.75-10.16-2.61-9.74-3.13,3.56-4.43,19-5.93,17.38-7.5s-1.93-14-1.43-12c1.32,5.21,7.36,11.92,7.69,10.83.11-.33-3.09-8.71-1.95-7.55,2.26,2.31,12.24.45,11.68.07-4.08-2.74-6.72-23-6.72-23S623.9,19.46,637,25.56c8,3.74,8.29,1.5,8.29,1.5-9.48-6-7.28-14.34-6.93-13.71,4.41,7.75,8.92,7.64,7.93,7.1-3-1.64-9.37-21.89-8.74-20.37,1.06,2.54,4.69,4.36,7.79,6.2s15.4,6,19,5.87,15.37.43,17.8.52S697,17.79,697,17.79s-12.4-10.69-10.38-10c4.49,1.62,10.74,3.64,15.34,5.51,4.93,2,7,4.19,10.27,6.93s5,7,4.17,14.47c0,0,16-3.46,16-3,.66,6.42-7,14.36-6.7,14.57,1.86,1.36,6.11-3.9,6.11-3.4,0,6.22-6,8.92-2.63,7.79s15.32,2,13.22,3.22-5.78,8.88-5.78,8.88,6-2.75,4.6-1.62-4.26,13.88-2.61,13c1-.54,6.21-3.28,9.1-5-2.43,5.1-6,16.71-6,16.71s5,5,6.53,4.8c-2,1-9.41,1.79-8,2.13,1.59.37,7.11,11.53,5.75,9.28s-11.08-4.16-12-3.41,4.75,9.43,3.82,8.34-13.82-7.12-13.82-7.12,4.88,7,3.79,6.5-12.58-10.7-12.58-10.7l-7.09,4.4-24.33-17.6s14.63,0,12.86-.44c-3.63-.87-26.13-6.85-26.13-6.85S659.37,85.7,652.07,89.58s-9.58,1-9.3.8c.84-.49,5.16-2.43,6.27-10.9-5,2.72-23.18,15-23.69,15l4.7-8.19c-4.09-.25-10.84,9.41-10.84,9.41-3.78-4-1.67-10.56-3.75-7.47-.79,1.17.08,3.06-.63,6.88-1.14,6.23,1.73,15.86,1.73,15.86l-5.3-11.11.09-1a10.65,10.65,0,0,1-1,.81c-6.93,4.75-9.6,3.31-8.85,2.73,4.89-3.75,5.28-16.33,5.28-16.33l-7,7.82c-1.47-4.39.69-3.66-2.85-3.12s-8.49-2.86-6.46-2.7,9.68-5.17,4.43-5.3-9.48-4.09-9.48-4.09S583.44,78.5,590,78.89Z"/><ellipse class="cls-1" cx="702.29" cy="119.77" rx="15.16" ry="9.15" transform="translate(224.83 648.52) rotate(-57.6)"/><path class="cls-5" d="M638.37,126.87a2.08,2.08,0,0,1-1.55-2.42c.1-.48.8-3.2,5.5-9.34,2.54-3.33,7.44-5.86,7.64-6a2.08,2.08,0,0,1,2.81.92,2.13,2.13,0,0,1-.92,2.84s-4.26,2.2-6.22,4.76c-4.09,5.36-4.71,7.62-4.71,7.65a2.13,2.13,0,0,1-2.5,1.56Z"/><path class="cls-5" d="M654.31,122.27c0,1.11-3.14,2.08-2,2,.49,0-3.29-.08-10.32-3.3-3.81-1.74-7.36-6-7.5-6.14a2.06,2.06,0,0,1,.28-2.94,2.12,2.12,0,0,1,3,.27s3.09,3.67,6,5c6.13,2.81,8.47,2.91,8.49,2.91a2.14,2.14,0,0,1,2.08,2.1Z"/><path class="cls-6" d="M656.17,143.24a1,1,0,1,1,.58,1.87c-5.92,1.84-8.73,4.33-8.75,4.36a1,1,0,0,1-1.14.13.92.92,0,0,1-.25-.2,1,1,0,0,1,.06-1.38"/><ellipse class="cls-7" cx="666.46" cy="125.43" rx="8.79" ry="5.31" transform="translate(-8.76 188.54) rotate(-16)"/><path class="cls-8" d="M615.35,81.69c-1.78-2.51-5.9-6.57-14-6.69-10-.14-14.87,4.6-16.56,6.86A14,14,0,0,0,582,93.31l1.2,6a14,14,0,0,0,4.67,7.93c.29,1.32,3,4.79,2.41,7.45s-1.92,4.1,3.77,6.63,6.68,4.49,6.41,5.21c-1.18,3,0,4.25,2.13,5,4.89,1.73,4.22,2.78,7.18,4.5,2.46,1.43,0-2.12-.52-4.49-.25-1.23-2.47-1.48-3.41-3-.79-1.28.17-4-1.51-4.61s-6.32-6.88-2.12-10,11.52-7.79,11.52-7.79,1.73-.93,1.27-2.23a5.82,5.82,0,0,0-1.32-1.87s1.59-5.84.95-9.06l-1-5a9.48,9.48,0,0,1,1.47-3.21A2.61,2.61,0,0,0,615.35,81.69Z"/><path class="cls-1" d="M450.5,119.77h30.88c11.54,0,24.19,9.33,29.4,12.68s21.58,10.74,21.58,10.74,1.49-3.3,4.09-2.92,11.91,6.19,11.91,6.19-13.77,3.79-16.74,3.26-92.65,2.82-94.89,2.08-14.29-3.45-11.11-5.21,21.09-28.16,21.09-28.16Z"/><path class="cls-2" d="M453.51,118.47h30.88c11.54,0,24.19,9.34,29.4,12.69,2,1.26-11.34,19.45-11.34,19.45s-61.32.36-62.71-.1c-2.23-.75-14.29-3.46-11.11-5.21s21.09-28.17,21.09-28.17Z"/><path class="cls-3" d="M424.84,146.48c-.8-1.59-3.2-14.89,12.43-13.4s49.48,13.4,49.48,13.4,7.82,4.09,0,5.58S429.52,155.78,424.84,146.48Z"/><path class="cls-2" d="M461.51,131.38,451,155.78l-23.43-4.71a4.17,4.17,0,0,1-3.33-4.51h0a4.21,4.21,0,0,1,1.29-2.63l18.12-17Z"/><path class="cls-1" d="M354.71,123s-14.16-30.27-10.54-44.25c3.91-15.08,7.76-18.52,13.34-24s14.59-9.92,18.59-12c3.49-1.78,15.93-5.64,24-3.66S416,41.51,429.27,50.52a58.07,58.07,0,0,1,19,22.22s7,18.93,2.37,33.88c-1,3.33-1.93,6.09-2.68,8.37a75.75,75.75,0,0,1-9.84,19.58,63.06,63.06,0,0,1-5.41,6.91c-4.68,4.93-17,10.07-22.43,12.34s-22.29,4.06-27.49,3.41-26.1-6.13-27.71-9.24,1.07-10,1.14-14.12S354.71,123,354.71,123Z"/><path class="cls-4" d="M446.25,81.12c1.35,4.07,11.85,11.11,10.91,13.41s-7.08,23-12.28,34c-3.35,7.1-16.08,16.31-16.08,16.31l-5.28-30.42-9.67,2.74.15-7.53,3-1.94-1.84-.36s3.33-3.8,3.26-6.07-6-11-7.82-11.92,7.58-1.12,7.58-1.12l-7.51-5.7,12.86-.44L410.77,74l7,.73,33.18,6.74"/><path class="cls-2" d="M316.75,78.89c6.51.4,14.09-13.23,14.09-13.23l-8.74-1.89s8.18-3.1,7.06-3.85c-5.21-3.5-13.4,1.23-12.8.56C319,57.62,330,52,330,52c.88-4.75-10.16-2.61-9.74-3.13,3.56-4.43,19-5.93,17.38-7.5s-1.94-14-1.43-12c1.32,5.21,7.35,11.92,7.69,10.83.1-.33-3.09-8.71-2-7.55,2.27,2.31,12.25.45,11.69.07-4.08-2.74-6.72-23-6.72-23s3.84,9.79,16.91,15.89c8,3.74,8.28,1.5,8.28,1.5-9.47-6-7.27-14.34-6.92-13.71,4.4,7.75,8.92,7.64,7.93,7.1-3-1.64-9.38-21.89-8.74-20.37,1.06,2.54,4.69,4.36,7.79,6.2s15.4,6,19,5.87,15.37.43,17.79.52,14.88,5.12,14.88,5.12-12.4-10.69-10.38-10c4.49,1.62,10.74,3.64,15.34,5.51,4.92,2,7,4.19,10.27,6.93s5,7,4.16,14.47c0,0,16-3.46,16-3,.66,6.42-7,14.36-6.7,14.57,1.86,1.36,6.11-3.9,6.11-3.4,0,6.22-6,8.92-2.64,7.79s15.33,2,13.23,3.22-5.78,8.88-5.78,8.88,5.95-2.75,4.59-1.62-4.25,13.88-2.6,13c1-.54,6.2-3.28,9.1-5-2.43,5.1-6,16.71-6,16.71s5,5,6.53,4.8c-2,1-9.4,1.79-8,2.13s7.11,11.53,5.74,9.28-11.07-4.16-12-3.41,4.75,9.43,3.82,8.34-13.82-7.12-13.82-7.12,4.88,7,3.79,6.5-12.58-10.7-12.58-10.7l-7.09,4.4-24.33-17.6s14.63,0,12.86-.44c-3.63-.87-26.13-6.85-26.13-6.85S386.18,85.7,378.88,89.58s-9.58,1-9.31.8c.85-.49,5.17-2.43,6.28-10.9-5.05,2.72-23.18,15-23.69,15l4.69-8.19C352.76,86,346,95.65,346,95.65c-3.78-4-1.67-10.56-3.75-7.47-.79,1.17.07,3.06-.63,6.88-1.14,6.23,1.73,15.86,1.73,15.86l-5.31-11.11.1-1a12.26,12.26,0,0,1-1,.81c-6.93,4.75-9.6,3.31-8.85,2.73,4.89-3.75,5.28-16.33,5.28-16.33l-7,7.82c-1.47-4.39.69-3.66-2.86-3.12s-8.48-2.86-6.45-2.7,9.68-5.17,4.43-5.3-9.48-4.09-9.48-4.09S310.25,78.5,316.75,78.89Z"/><ellipse class="cls-1" cx="429.1" cy="119.77" rx="15.16" ry="9.15" transform="translate(98.03 417.87) rotate(-57.6)"/><path class="cls-5" d="M365.18,126.87a2.07,2.07,0,0,1-1.55-2.42c.09-.48.8-3.2,5.5-9.34,2.54-3.33,7.44-5.86,7.64-6a2.08,2.08,0,0,1,2.81.92,2.13,2.13,0,0,1-.92,2.84c-.05,0-4.26,2.2-6.22,4.76-4.09,5.36-4.71,7.62-4.72,7.65a2.12,2.12,0,0,1-2.5,1.56Z"/><path class="cls-5" d="M381.12,122.27c0,1.11-3.14,2.08-2,2,.49,0-3.29-.08-10.33-3.3-3.8-1.74-7.35-6-7.5-6.14a2.08,2.08,0,0,1,.28-2.94,2.13,2.13,0,0,1,3,.27s3.08,3.67,6,5c6.14,2.81,8.48,2.91,8.5,2.91a2.14,2.14,0,0,1,2.08,2.1Z"/><path class="cls-6" d="M383,143.24a1,1,0,1,1,.58,1.87c-5.92,1.84-8.73,4.33-8.75,4.36a1,1,0,0,1-1.14.13.79.79,0,0,1-.25-.2,1,1,0,0,1,.06-1.38"/><ellipse class="cls-7" cx="393.27" cy="125.43" rx="8.79" ry="5.31" transform="translate(-19.34 113.25) rotate(-16)"/><path class="cls-8" d="M340.3,108.11a8.58,8.58,0,0,0-7.24-3.46c-5.18-.07-7.69,2.38-8.56,3.55a7.24,7.24,0,0,0-1.42,5.91l.62,3.12a7.22,7.22,0,0,0,2.41,4.1c.15.68,1.57,2.47,1.25,3.85s-1,2.12,1.95,3.43,3.45,2.32,3.31,2.69c-.61,1.57,0,2.2,1.1,2.58,2.53.9,2.19,1.44,3.71,2.33,1.28.74,0-1.1-.26-2.32-.13-.64-1.28-.76-1.77-1.55s.09-2-.78-2.38-3.27-3.56-1.09-5.15,6-4,6-4,.9-.48.66-1.16a3.32,3.32,0,0,0-.68-1A13.82,13.82,0,0,0,340,114l-.52-2.57a5.08,5.08,0,0,1,.76-1.66A1.35,1.35,0,0,0,340.3,108.11Z"/><path class="cls-1" d="M176.82,119.77H207.7c11.54,0,24.19,9.33,29.4,12.68s21.58,10.74,21.58,10.74,1.49-3.3,4.09-2.92,11.91,6.19,11.91,6.19-13.77,3.79-16.74,3.26-92.65,2.82-94.89,2.08-14.29-3.45-11.11-5.21S173,118.43,173,118.43Z"/><path class="cls-2" d="M179.83,118.47h30.88c11.54,0,24.19,9.34,29.4,12.69,2,1.26-11.34,19.45-11.34,19.45s-61.32.36-62.71-.1c-2.23-.75-14.29-3.46-11.11-5.21S176,117.13,176,117.13Z"/><path class="cls-3" d="M151.15,146.48c-.79-1.59-3.19-14.89,12.44-13.4s49.48,13.4,49.48,13.4,7.82,4.09,0,5.58S155.84,155.78,151.15,146.48Z"/><path class="cls-2" d="M187.83,131.38l-10.51,24.4-23.44-4.71a4.17,4.17,0,0,1-3.32-4.51h0a4.21,4.21,0,0,1,1.29-2.63l18.12-17Z"/><path class="cls-1" d="M81,123S66.87,92.75,70.49,78.77c3.91-15.08,7.76-18.52,13.34-24s14.59-9.92,18.59-12c3.49-1.78,15.93-5.64,24-3.66s15.91,2.41,29.15,11.42a58.18,58.18,0,0,1,19,22.22s7,18.93,2.37,33.88c-1,3.33-1.93,6.09-2.68,8.37a75.75,75.75,0,0,1-9.84,19.58,63.06,63.06,0,0,1-5.41,6.91c-4.68,4.93-17,10.07-22.43,12.34s-22.29,4.06-27.49,3.41S83,151.1,81.38,148s1.08-10,1.15-14.12S81,123,81,123Z"/><path class="cls-4" d="M172.57,81.12c1.35,4.07,11.85,11.11,10.91,13.41s-7.08,23-12.28,34c-3.35,7.1-16.08,16.31-16.08,16.31l-5.28-30.42-9.67,2.74.15-7.53,3-1.94-1.84-.36s3.33-3.8,3.26-6.07-6-11-7.82-11.92,7.58-1.12,7.58-1.12L137,82.51l12.86-.44L137.09,74l7,.73,33.18,6.74"/><path class="cls-2" d="M43.07,78.89c6.5.4,14.09-13.23,14.09-13.23l-8.74-1.89s8.18-3.1,7.06-3.85c-5.21-3.5-13.4,1.23-12.8.56C45.27,57.62,56.28,52,56.28,52c.88-4.75-10.16-2.61-9.74-3.13,3.56-4.43,19-5.93,17.38-7.5s-1.94-14-1.43-12c1.32,5.21,7.35,11.92,7.69,10.83.1-.33-3.1-8.71-2-7.55,2.27,2.31,12.25.45,11.69.07-4.08-2.74-6.72-23-6.72-23S77,19.46,90.1,25.56c8,3.74,8.28,1.5,8.28,1.5-9.48-6-7.27-14.34-6.92-13.71,4.4,7.75,8.92,7.64,7.93,7.1C96.4,18.81,90-1.44,90.65.08c1.06,2.54,4.69,4.36,7.79,6.2s15.4,6,19,5.87,15.36.43,17.79.52,14.88,5.12,14.88,5.12-12.4-10.69-10.38-10c4.49,1.62,10.74,3.64,15.34,5.51,4.92,2,7,4.19,10.27,6.93s5,7,4.16,14.47c0,0,16-3.46,16-3,.66,6.42-7,14.36-6.7,14.57,1.86,1.36,6.11-3.9,6.11-3.4,0,6.22-6,8.92-2.64,7.79s15.33,2,13.23,3.22-5.78,8.88-5.78,8.88,6-2.75,4.59-1.62-4.25,13.88-2.6,13c1-.54,6.2-3.28,9.1-5-2.43,5.1-6,16.71-6,16.71s5,5,6.53,4.8c-2,1-9.4,1.79-8,2.13s7.11,11.53,5.74,9.28-11.07-4.16-12-3.41,4.75,9.43,3.82,8.34-13.82-7.12-13.82-7.12,4.88,7,3.79,6.5-12.58-10.7-12.58-10.7l-7.09,4.4L137,82.51s14.63,0,12.86-.44c-3.63-.87-26.13-6.85-26.13-6.85S112.5,85.7,105.2,89.58s-9.58,1-9.31.8c.85-.49,5.17-2.43,6.28-10.9-5,2.72-23.18,15-23.69,15l4.69-8.19c-4.09-.25-10.83,9.41-10.83,9.41-3.78-4-1.68-10.56-3.75-7.47-.79,1.17.07,3.06-.63,6.88-1.14,6.23,1.73,15.86,1.73,15.86L64.38,99.81l.1-1a12.26,12.26,0,0,1-1,.81c-6.93,4.75-9.6,3.31-8.85,2.73C59.56,98.62,60,86,60,86l-7,7.82c-1.47-4.39.69-3.66-2.86-3.12s-8.48-2.86-6.45-2.7,9.68-5.17,4.43-5.3-9.48-4.09-9.48-4.09S36.57,78.5,43.07,78.89Z"/><ellipse class="cls-1" cx="155.42" cy="119.77" rx="15.16" ry="9.15" transform="translate(-28.99 186.8) rotate(-57.6)"/><path class="cls-5" d="M91.5,126.87A2.07,2.07,0,0,1,90,124.45c.09-.48.8-3.2,5.5-9.34,2.54-3.33,7.43-5.86,7.64-6a2.08,2.08,0,0,1,2.81.92,2.13,2.13,0,0,1-.92,2.84s-4.26,2.2-6.22,4.76c-4.09,5.36-4.71,7.62-4.72,7.65a2.12,2.12,0,0,1-2.5,1.56Z"/><path class="cls-5" d="M107.44,122.27c0,1.11-3.15,2.08-2,2,.49,0-3.29-.08-10.33-3.3-3.81-1.74-7.35-6-7.5-6.14a2.08,2.08,0,0,1,.28-2.94,2.13,2.13,0,0,1,3,.27s3.08,3.67,6,5c6.14,2.81,8.48,2.91,8.5,2.91a2.14,2.14,0,0,1,2.08,2.1Z"/><path class="cls-6" d="M109.3,143.24a1,1,0,1,1,.58,1.87c-5.92,1.84-8.73,4.33-8.75,4.36a1,1,0,0,1-1.14.13.79.79,0,0,1-.25-.2A1,1,0,0,1,99.8,148"/><ellipse class="cls-7" cx="119.59" cy="125.43" rx="8.79" ry="5.31" transform="translate(-29.94 37.82) rotate(-16)"/><path class="cls-1" d="M2913.64,119.77h30.89c11.53,0,24.18,9.33,29.39,12.68s21.58,10.74,21.58,10.74,1.49-3.3,4.1-2.92,11.9,6.19,11.9,6.19-13.76,3.79-16.74,3.26-92.65,2.82-94.89,2.08-14.28-3.45-11.11-5.21,21.09-28.16,21.09-28.16Z"/><path class="cls-2" d="M2916.65,118.47h30.88c11.54,0,24.19,9.34,29.4,12.69,2,1.26-11.34,19.45-11.34,19.45s-61.31.36-62.71-.1c-2.23-.75-14.29-3.46-11.11-5.21s21.09-28.17,21.09-28.17Z"/><path class="cls-3" d="M2888,146.48c-.8-1.59-3.2-14.89,12.43-13.4s49.49,13.4,49.49,13.4,7.81,4.09,0,5.58S2892.66,155.78,2888,146.48Z"/><path class="cls-2" d="M2924.65,131.38l-10.5,24.4-23.44-4.71a4.17,4.17,0,0,1-3.33-4.51h0a4.21,4.21,0,0,1,1.29-2.63l18.13-17Z"/><path class="cls-1" d="M2817.85,123s-14.16-30.27-10.53-44.25c3.91-15.08,7.76-18.52,13.33-24s14.6-9.92,18.6-12c3.49-1.78,15.92-5.64,24-3.66s15.91,2.41,29.15,11.42a58.07,58.07,0,0,1,19,22.22s7,18.93,2.38,33.88c-1,3.33-1.93,6.09-2.69,8.37a75.72,75.72,0,0,1-9.83,19.58,64.28,64.28,0,0,1-5.42,6.91c-4.68,4.93-17,10.07-22.42,12.34s-22.3,4.06-27.5,3.41-26.1-6.13-27.71-9.24,1.08-10,1.14-14.12S2817.85,123,2817.85,123Z"/><path class="cls-4" d="M2909.39,81.12c1.35,4.07,11.85,11.11,10.91,13.41s-7.08,23-12.28,34c-3.35,7.1-16.08,16.31-16.08,16.31l-5.27-30.42-9.68,2.74.16-7.53,3-1.94-1.84-.36s3.33-3.8,3.26-6.07-6-11-7.82-11.92,7.59-1.12,7.59-1.12l-7.52-5.7,12.86-.44L2873.91,74l7,.73,33.17,6.74"/><path class="cls-2" d="M2779.89,78.89c6.51.4,14.09-13.23,14.09-13.23l-8.74-1.89s8.18-3.1,7.06-3.85c-5.2-3.5-13.4,1.23-12.8.56,2.59-2.86,13.6-8.53,13.6-8.53.89-4.75-10.16-2.61-9.74-3.13,3.56-4.43,19-5.93,17.38-7.5s-1.93-14-1.43-12c1.32,5.21,7.35,11.92,7.69,10.83.11-.33-3.09-8.71-1.95-7.55,2.26,2.31,12.24.45,11.68.07-4.08-2.74-6.72-23-6.72-23s3.84,9.79,16.91,15.89c8,3.74,8.29,1.5,8.29,1.5-9.48-6-7.28-14.34-6.93-13.71,4.41,7.75,8.92,7.64,7.93,7.1-3-1.64-9.38-21.89-8.74-20.37,1.06,2.54,4.69,4.36,7.79,6.2s15.4,6,19,5.87,15.37.43,17.8.52,14.87,5.12,14.87,5.12-12.4-10.69-10.38-10c4.49,1.62,10.74,3.64,15.34,5.51,4.93,2,7,4.19,10.27,6.93s5,7,4.17,14.47c0,0,16-3.46,16-3,.66,6.42-7,14.36-6.7,14.57,1.86,1.36,6.11-3.9,6.11-3.4,0,6.22-6,8.92-2.64,7.79s15.33,2,13.23,3.22-5.78,8.88-5.78,8.88,6-2.75,4.59-1.62-4.25,13.88-2.6,13c1-.54,6.21-3.28,9.1-5-2.43,5.1-6,16.71-6,16.71s5,5,6.53,4.8c-2,1-9.41,1.79-8,2.13,1.59.37,7.11,11.53,5.75,9.28s-11.08-4.16-12-3.41,4.75,9.43,3.82,8.34S2914,99.91,2914,99.91s4.88,7,3.79,6.5-12.58-10.7-12.58-10.7l-7.09,4.4-24.33-17.6s14.63,0,12.86-.44c-3.63-.87-26.13-6.85-26.13-6.85S2849.32,85.7,2842,89.58s-9.58,1-9.3.8c.84-.49,5.16-2.43,6.27-10.9-5,2.72-23.18,15-23.69,15l4.7-8.19c-4.1-.25-10.84,9.41-10.84,9.41-3.78-4-1.67-10.56-3.75-7.47-.79,1.17.08,3.06-.63,6.88-1.14,6.23,1.73,15.86,1.73,15.86l-5.3-11.11.09-1a10.65,10.65,0,0,1-1,.81c-6.93,4.75-9.6,3.31-8.85,2.73,4.89-3.75,5.28-16.33,5.28-16.33l-7,7.82c-1.47-4.39.69-3.66-2.85-3.12s-8.49-2.86-6.46-2.7,9.68-5.17,4.43-5.3-9.48-4.09-9.48-4.09S2773.39,78.5,2779.89,78.89Z"/><ellipse class="cls-1" cx="2892.24" cy="119.77" rx="15.16" ry="9.15" transform="translate(1241.23 2497.48) rotate(-57.6)"/><path class="cls-5" d="M2828.32,126.87a2.08,2.08,0,0,1-1.55-2.42c.09-.48.8-3.2,5.5-9.34,2.54-3.33,7.44-5.86,7.64-6a2.08,2.08,0,0,1,2.81.92,2.13,2.13,0,0,1-.92,2.84s-4.26,2.2-6.22,4.76c-4.09,5.36-4.71,7.62-4.71,7.65a2.13,2.13,0,0,1-2.5,1.56Z"/><path class="cls-5" d="M2844.26,122.27c0,1.11-3.14,2.08-2,2,.49,0-3.29-.08-10.32-3.3-3.81-1.74-7.36-6-7.51-6.14a2.07,2.07,0,0,1,.29-2.94,2.12,2.12,0,0,1,3,.27s3.09,3.67,6,5c6.13,2.81,8.47,2.91,8.49,2.91a2.14,2.14,0,0,1,2.08,2.1Z"/><path class="cls-6" d="M2846.12,143.24a1,1,0,1,1,.58,1.87c-5.92,1.84-8.73,4.33-8.75,4.36a1,1,0,0,1-1.14.13.92.92,0,0,1-.25-.2,1,1,0,0,1,.06-1.38"/><ellipse class="cls-7" cx="2856.41" cy="125.43" rx="8.79" ry="5.31" transform="translate(76.06 792.1) rotate(-16)"/><path class="cls-8" d="M2811.78,14.8c-3.93-5.55-13-14.53-31-14.79-22.16-.32-32.91,10.18-36.65,15.17a31,31,0,0,0-6.08,25.33l2.67,13.32a30.93,30.93,0,0,0,10.32,17.56c.64,2.92,6.71,10.59,5.33,16.48-1.31,5.61-4.25,9.06,8.35,14.67s14.78,9.94,14.17,11.52c-2.6,6.75,0,9.41,4.72,11.06,10.83,3.84,9.35,6.16,15.89,10,5.45,3.17-.07-4.69-1.14-9.93-.56-2.72-5.48-3.26-7.55-6.61-1.76-2.84.38-8.76-3.36-10.21-3.5-1.36-14-15.22-4.67-22s25.49-17.22,25.49-17.22,3.82-2.06,2.81-4.95a13.58,13.58,0,0,0-2.92-4.14s3.51-12.91,2.09-20l-2.2-11a21,21,0,0,1,3.26-7.1C2813.07,19.54,2813.27,16.9,2811.78,14.8Z"/><ellipse class="cls-5" cx="2783.42" cy="35.6" rx="2.69" ry="5.97" transform="translate(46.99 546.12) rotate(-11.3)"/><ellipse class="cls-5" cx="2765.37" cy="40.25" rx="2.69" ry="5.97" transform="translate(45.73 542.67) rotate(-11.3)"/><path class="cls-9" d="M2778.78,48.42c-1,.2-3.17,1.32-3.17,3s2.71,1.52,3.5.33S2778.78,48.42,2778.78,48.42Z"/><ellipse class="cls-10" cx="2763.23" cy="49.39" rx="3.53" ry="2.13" transform="translate(43.89 542.43) rotate(-11.3)"/><ellipse class="cls-10" cx="2788.72" cy="42.66" rx="3.11" ry="1.9" transform="translate(45.71 547.29) rotate(-11.3)"/><path class="cls-1" d="M2092.08,119.77H2123c11.53,0,24.18,9.33,29.39,12.68s21.58,10.74,21.58,10.74,1.49-3.3,4.1-2.92,11.9,6.19,11.9,6.19-13.76,3.79-16.74,3.26-92.65,2.82-94.89,2.08-14.28-3.45-11.11-5.21,21.09-28.16,21.09-28.16Z"/><path class="cls-2" d="M2095.09,118.47H2126c11.54,0,24.19,9.34,29.4,12.69,2,1.26-11.34,19.45-11.34,19.45s-61.31.36-62.71-.1c-2.23-.75-14.29-3.46-11.11-5.21s21.09-28.17,21.09-28.17Z"/><path class="cls-3" d="M2066.42,146.48c-.8-1.59-3.2-14.89,12.43-13.4s49.49,13.4,49.49,13.4,7.81,4.09,0,5.58S2071.1,155.78,2066.42,146.48Z"/><path class="cls-2" d="M2103.09,131.38l-10.5,24.4-23.44-4.71a4.17,4.17,0,0,1-3.33-4.51h0a4.21,4.21,0,0,1,1.29-2.63l18.13-17Z"/><path class="cls-1" d="M1996.29,123s-14.16-30.27-10.53-44.25c3.91-15.08,7.76-18.52,13.33-24s14.6-9.92,18.6-12c3.48-1.78,15.92-5.64,24-3.66s15.91,2.41,29.15,11.42a58.07,58.07,0,0,1,19,22.22s7,18.93,2.38,33.88c-1,3.33-1.93,6.09-2.69,8.37a75.72,75.72,0,0,1-9.83,19.58,64.28,64.28,0,0,1-5.42,6.91c-4.68,4.93-17,10.07-22.42,12.34s-22.3,4.06-27.5,3.41-26.1-6.13-27.71-9.24,1.07-10,1.14-14.12S1996.29,123,1996.29,123Z"/><path class="cls-4" d="M2087.83,81.12c1.35,4.07,11.85,11.11,10.91,13.41s-7.08,23-12.28,34c-3.35,7.1-16.08,16.31-16.08,16.31l-5.27-30.42-9.68,2.74.16-7.53,3-1.94-1.84-.36s3.33-3.8,3.26-6.07-6-11-7.82-11.92,7.59-1.12,7.59-1.12l-7.52-5.7,12.86-.44L2052.35,74l7,.73,33.17,6.74"/><path class="cls-2" d="M1958.33,78.89c6.51.4,14.09-13.23,14.09-13.23l-8.74-1.89s8.18-3.1,7.06-3.85c-5.2-3.5-13.4,1.23-12.8.56,2.59-2.86,13.6-8.53,13.6-8.53.89-4.75-10.16-2.61-9.74-3.13,3.56-4.43,19-5.93,17.38-7.5s-1.93-14-1.43-12c1.32,5.21,7.35,11.92,7.69,10.83.11-.33-3.09-8.71-2-7.55,2.26,2.31,12.24.45,11.68.07-4.08-2.74-6.72-23-6.72-23s3.84,9.79,16.91,15.89c8,3.74,8.29,1.5,8.29,1.5-9.48-6-7.28-14.34-6.93-13.71,4.41,7.75,8.92,7.64,7.93,7.1-3-1.64-9.38-21.89-8.74-20.37,1.06,2.54,4.69,4.36,7.79,6.2s15.4,6,19,5.87,15.37.43,17.8.52,14.87,5.12,14.87,5.12S2053,7.1,2055,7.83c4.49,1.62,10.74,3.64,15.34,5.51,4.93,2,7,4.19,10.27,6.93s5,7,4.17,14.47c0,0,16-3.46,16-3,.66,6.42-7,14.36-6.7,14.57,1.86,1.36,6.11-3.9,6.11-3.4,0,6.22-6,8.92-2.64,7.79s15.33,2,13.23,3.22-5.78,8.88-5.78,8.88,5.95-2.75,4.59-1.62-4.25,13.88-2.6,13c1-.54,6.21-3.28,9.1-5-2.43,5.1-6,16.71-6,16.71s5,5,6.53,4.8c-2,1-9.41,1.79-8,2.13,1.59.37,7.11,11.53,5.75,9.28s-11.08-4.16-12-3.41,4.75,9.43,3.82,8.34-13.82-7.12-13.82-7.12,4.88,7,3.79,6.5-12.58-10.7-12.58-10.7l-7.09,4.4-24.33-17.6s14.63,0,12.86-.44c-3.63-.87-26.13-6.85-26.13-6.85s-11.21,10.48-18.51,14.36-9.58,1-9.3.8c.84-.49,5.16-2.43,6.27-10.9-5,2.72-23.18,15-23.69,15l4.7-8.19c-4.1-.25-10.84,9.41-10.84,9.41-3.78-4-1.67-10.56-3.75-7.47-.79,1.17.08,3.06-.63,6.88-1.14,6.23,1.73,15.86,1.73,15.86l-5.31-11.11.1-1a10.65,10.65,0,0,1-1,.81c-6.93,4.75-9.6,3.31-8.85,2.73,4.89-3.75,5.28-16.33,5.28-16.33l-7,7.82c-1.47-4.39.69-3.66-2.85-3.12s-8.49-2.86-6.46-2.7,9.68-5.17,4.43-5.3-9.48-4.09-9.48-4.09S1951.83,78.5,1958.33,78.89Z"/><ellipse class="cls-1" cx="2070.68" cy="119.77" rx="15.16" ry="9.15" transform="translate(859.92 1803.85) rotate(-57.6)"/><path class="cls-5" d="M2006.76,126.87a2.07,2.07,0,0,1-1.55-2.42c.09-.48.8-3.2,5.5-9.34,2.54-3.33,7.44-5.86,7.64-6a2.08,2.08,0,0,1,2.81.92,2.13,2.13,0,0,1-.92,2.84s-4.26,2.2-6.22,4.76c-4.09,5.36-4.71,7.62-4.71,7.65a2.13,2.13,0,0,1-2.5,1.56Z"/><path class="cls-5" d="M2022.7,122.27c0,1.11-3.14,2.08-2,2,.49,0-3.29-.08-10.32-3.3-3.81-1.74-7.36-6-7.51-6.14a2.07,2.07,0,0,1,.29-2.94,2.12,2.12,0,0,1,3,.27s3.09,3.67,6,5c6.13,2.81,8.47,2.91,8.49,2.91a2.14,2.14,0,0,1,2.08,2.1Z"/><path class="cls-6" d="M2024.56,143.24a1,1,0,1,1,.58,1.87c-5.92,1.84-8.73,4.33-8.75,4.36a1,1,0,0,1-1.14.13.92.92,0,0,1-.25-.2,1,1,0,0,1,.06-1.38"/><ellipse class="cls-7" cx="2034.85" cy="125.43" rx="8.79" ry="5.31" transform="translate(44.24 565.67) rotate(-16)"/><path class="cls-8" d="M1990.22,14.8c-3.93-5.55-13-14.53-31-14.79-22.16-.32-32.91,10.18-36.65,15.17a31,31,0,0,0-6.08,25.33l2.67,13.32a30.93,30.93,0,0,0,10.32,17.56c.64,2.92,6.71,10.59,5.33,16.48-1.31,5.61-4.25,9.06,8.35,14.67s14.78,9.94,14.17,11.52c-2.6,6.75.05,9.41,4.72,11.06,10.83,3.84,9.35,6.16,15.89,10,5.45,3.17-.07-4.69-1.14-9.93-.56-2.72-5.48-3.26-7.55-6.61-1.76-2.84.38-8.76-3.36-10.21-3.5-1.36-14-15.22-4.67-22s25.49-17.22,25.49-17.22,3.82-2.06,2.81-4.95a13.58,13.58,0,0,0-2.92-4.14s3.51-12.91,2.09-20l-2.2-11a21,21,0,0,1,3.26-7.1C1991.51,19.54,1991.7,16.9,1990.22,14.8Z"/><ellipse class="cls-5" cx="1962.35" cy="38.05" rx="2.69" ry="3.47" transform="translate(30.59 385.27) rotate(-11.3)"/><ellipse class="cls-5" cx="1944.23" cy="42.36" rx="2.69" ry="3.82" transform="translate(29.39 381.8) rotate(-11.3)"/><path class="cls-9" d="M1957.22,48.42c-1,.2-3.17,1.32-3.17,3s2.71,1.52,3.5.33S1957.22,48.42,1957.22,48.42Z"/><ellipse class="cls-10" cx="1941.67" cy="49.39" rx="3.53" ry="2.13" transform="translate(27.96 381.44) rotate(-11.3)"/><ellipse class="cls-10" cx="1967.16" cy="42.66" rx="3.11" ry="1.9" transform="translate(29.78 386.3) rotate(-11.3)"/><path class="cls-1" d="M2639.62,119.77h30.88c11.54,0,24.19,9.33,29.4,12.68s21.58,10.74,21.58,10.74,1.49-3.3,4.09-2.92,11.91,6.19,11.91,6.19-13.77,3.79-16.75,3.26-92.65,2.82-94.88,2.08-14.29-3.45-11.11-5.21,21.08-28.16,21.08-28.16Z"/><path class="cls-2" d="M2642.62,118.47h30.89c11.53,0,24.18,9.34,29.39,12.69,2,1.26-11.34,19.45-11.34,19.45s-61.31.36-62.7-.1c-2.24-.75-14.29-3.46-11.12-5.21s21.09-28.17,21.09-28.17Z"/><path class="cls-3" d="M2614,146.48c-.8-1.59-3.19-14.89,12.43-13.4s49.49,13.4,49.49,13.4,7.82,4.09,0,5.58S2618.64,155.78,2614,146.48Z"/><path class="cls-2" d="M2650.63,131.38l-10.51,24.4-23.44-4.71a4.18,4.18,0,0,1-3.33-4.51h0a4.17,4.17,0,0,1,1.3-2.63l18.12-17Z"/><path class="cls-1" d="M2543.83,123s-14.16-30.27-10.54-44.25c3.91-15.08,7.76-18.52,13.34-24s14.59-9.92,18.59-12c3.49-1.78,15.93-5.64,24-3.66s15.9,2.41,29.14,11.42a58.16,58.16,0,0,1,19,22.22s7,18.93,2.37,33.88c-1,3.33-1.93,6.09-2.69,8.37a75.41,75.41,0,0,1-9.83,19.58,63,63,0,0,1-5.42,6.91c-4.67,4.93-17,10.07-22.42,12.34s-22.29,4.06-27.49,3.41-26.11-6.13-27.72-9.24,1.08-10,1.15-14.12S2543.83,123,2543.83,123Z"/><path class="cls-4" d="M2635.36,81.12c1.36,4.07,11.86,11.11,10.92,13.41s-7.09,23-12.28,34c-3.35,7.1-16.09,16.31-16.09,16.31l-5.27-30.42-9.68,2.74.16-7.53,3-1.94-1.84-.36s3.33-3.8,3.25-6.07-5.95-11-7.82-11.92,7.59-1.12,7.59-1.12l-7.51-5.7,12.85-.44L2599.89,74l7,.73L2640,81.45"/><path class="cls-2" d="M2505.87,78.89c6.5.4,14.09-13.23,14.09-13.23l-8.75-1.89s8.19-3.1,7.07-3.85c-5.21-3.5-13.4,1.23-12.8.56,2.58-2.86,13.6-8.53,13.6-8.53.88-4.75-10.17-2.61-9.74-3.13,3.55-4.43,19-5.93,17.38-7.5s-1.94-14-1.43-12c1.31,5.21,7.35,11.92,7.69,10.83.1-.33-3.1-8.71-2-7.55,2.26,2.31,12.25.45,11.69.07-4.09-2.74-6.73-23-6.73-23s3.84,9.79,16.92,15.89c8,3.74,8.28,1.5,8.28,1.5-9.48-6-7.28-14.34-6.92-13.71,4.4,7.75,8.91,7.64,7.93,7.1-3-1.64-9.38-21.89-8.75-20.37,1.06,2.54,4.7,4.36,7.79,6.2s15.41,6,19,5.87,15.36.43,17.79.52,14.87,5.12,14.87,5.12-12.4-10.69-10.37-10c4.49,1.62,10.74,3.64,15.33,5.51,4.93,2,7,4.19,10.27,6.93s5,7,4.17,14.47c0,0,16-3.46,16-3,.66,6.42-7,14.36-6.69,14.57,1.86,1.36,6.1-3.9,6.1-3.4,0,6.22-6,8.92-2.63,7.79s15.33,2,13.23,3.22-5.78,8.88-5.78,8.88,6-2.75,4.59-1.62-4.25,13.88-2.6,13c1-.54,6.2-3.28,9.1-5-2.43,5.1-6,16.71-6,16.71s5,5,6.53,4.8c-2,1-9.4,1.79-8,2.13,1.59.37,7.11,11.53,5.75,9.28s-11.08-4.16-12-3.41,4.75,9.43,3.82,8.34S2640,99.91,2640,99.91s4.88,7,3.79,6.5-12.59-10.7-12.59-10.7l-7.08,4.4-24.33-17.6s14.63,0,12.85-.44c-3.62-.87-26.13-6.85-26.13-6.85S2575.3,85.7,2568,89.58s-9.58,1-9.3.8c.85-.49,5.17-2.43,6.28-10.9-5,2.72-23.18,15-23.7,15l4.7-8.19c-4.09-.25-10.84,9.41-10.84,9.41-3.77-4-1.67-10.56-3.75-7.47-.79,1.17.08,3.06-.62,6.88-1.15,6.23,1.73,15.86,1.73,15.86l-5.31-11.11.1-1a10.61,10.61,0,0,1-1,.81c-6.92,4.75-9.59,3.31-8.84,2.73,4.88-3.75,5.27-16.33,5.27-16.33l-7,7.82c-1.48-4.39.68-3.66-2.86-3.12s-8.49-2.86-6.45-2.7,9.68-5.17,4.43-5.3-9.49-4.09-9.49-4.09S2499.37,78.5,2505.87,78.89Z"/><ellipse class="cls-1" cx="2618.21" cy="119.77" rx="15.16" ry="9.15" transform="translate(1114.05 2266.13) rotate(-57.6)"/><path class="cls-5" d="M2554.3,126.87a2.07,2.07,0,0,1-1.55-2.42c.09-.48.8-3.2,5.49-9.34,2.55-3.33,7.44-5.86,7.65-6a2.08,2.08,0,0,1,2.81.92,2.13,2.13,0,0,1-.93,2.84s-4.26,2.2-6.21,4.76c-4.1,5.36-4.71,7.62-4.72,7.65a2.13,2.13,0,0,1-2.5,1.56Z"/><path class="cls-5" d="M2570.23,122.27c0,1.11-3.14,2.08-2,2,.49,0-3.3-.08-10.33-3.3-3.81-1.74-7.35-6-7.5-6.14a2.06,2.06,0,0,1,.28-2.94,2.12,2.12,0,0,1,3,.27s3.09,3.67,6,5c6.13,2.81,8.47,2.91,8.5,2.91a2.13,2.13,0,0,1,2.07,2.1Z"/><path class="cls-6" d="M2572.09,143.24a1,1,0,1,1,.59,1.87c-5.93,1.84-8.73,4.33-8.76,4.36a1,1,0,0,1-1.13.13.79.79,0,0,1-.25-.2,1,1,0,0,1,.06-1.38"/><ellipse class="cls-7" cx="2582.39" cy="125.43" rx="8.79" ry="5.31" transform="translate(65.44 716.58) rotate(-16)"/><path class="cls-8" d="M2537.75,14.8c-3.93-5.55-13-14.53-31-14.79-22.16-.32-32.91,10.18-36.64,15.17a31,31,0,0,0-6.08,25.33l2.66,13.32a31,31,0,0,0,10.33,17.56c.64,2.92,6.71,10.59,5.33,16.48-1.32,5.61-4.26,9.06,8.34,14.67s14.79,9.94,14.18,11.52c-2.61,6.75,0,9.41,4.71,11.06,10.83,3.84,9.35,6.16,15.89,10,5.45,3.17-.07-4.69-1.14-9.93-.55-2.72-5.48-3.26-7.55-6.61-1.75-2.84.38-8.76-3.35-10.21-3.5-1.36-14-15.22-4.68-22s25.49-17.22,25.49-17.22,3.83-2.06,2.81-4.95a13.41,13.41,0,0,0-2.92-4.14s3.52-12.91,2.09-20l-2.19-11a20.82,20.82,0,0,1,3.26-7.1C2539,19.54,2539.24,16.9,2537.75,14.8Z"/><ellipse class="cls-5" cx="2509.88" cy="38.05" rx="2.69" ry="3.47" transform="translate(41.2 492.56) rotate(-11.3)"/><ellipse class="cls-5" cx="2491.77" cy="42.36" rx="2.69" ry="3.82" transform="translate(40.01 489.1) rotate(-11.3)"/><path class="cls-9" d="M2504.75,48.42c-1,.2-3.16,1.32-3.16,3s2.7,1.52,3.49.33S2504.75,48.42,2504.75,48.42Z"/><ellipse class="cls-10" cx="2489.21" cy="49.39" rx="3.53" ry="2.13" transform="translate(38.58 488.73) rotate(-11.3)"/><ellipse class="cls-10" cx="2514.69" cy="42.66" rx="3.11" ry="1.9" transform="translate(40.39 493.6) rotate(-11.3)"/><path class="cls-1" d="M2365.59,119.77h30.89c11.53,0,24.18,9.33,29.39,12.68s21.58,10.74,21.58,10.74,1.49-3.3,4.09-2.92,11.91,6.19,11.91,6.19-13.77,3.79-16.74,3.26-92.65,2.82-94.89,2.08-14.29-3.45-11.11-5.21,21.09-28.16,21.09-28.16Z"/><path class="cls-2" d="M2368.6,118.47h30.88c11.54,0,24.19,9.34,29.4,12.69,2,1.26-11.34,19.45-11.34,19.45s-61.32.36-62.71-.1c-2.23-.75-14.29-3.46-11.11-5.21s21.09-28.17,21.09-28.17Z"/><path class="cls-3" d="M2339.93,146.48c-.8-1.59-3.2-14.89,12.43-13.4s49.49,13.4,49.49,13.4,7.81,4.09,0,5.58S2344.61,155.78,2339.93,146.48Z"/><path class="cls-2" d="M2376.6,131.38l-10.51,24.4-23.43-4.71a4.17,4.17,0,0,1-3.33-4.51h0a4.21,4.21,0,0,1,1.29-2.63l18.12-17Z"/><path class="cls-1" d="M2269.8,123s-14.16-30.27-10.54-44.25c3.92-15.08,7.77-18.52,13.34-24s14.6-9.92,18.59-12c3.49-1.78,15.93-5.64,24-3.66s15.91,2.41,29.15,11.42a58.07,58.07,0,0,1,19,22.22s7,18.93,2.37,33.88c-1,3.33-1.92,6.09-2.68,8.37a75.72,75.72,0,0,1-9.83,19.58,64.28,64.28,0,0,1-5.42,6.91c-4.68,4.93-17,10.07-22.43,12.34s-22.29,4.06-27.49,3.41-26.1-6.13-27.71-9.24,1.07-10,1.14-14.12S2269.8,123,2269.8,123Z"/><path class="cls-4" d="M2361.34,81.12c1.35,4.07,11.85,11.11,10.91,13.41s-7.08,23-12.28,34c-3.35,7.1-16.08,16.31-16.08,16.31l-5.27-30.42-9.68,2.74.16-7.53,3-1.94-1.84-.36s3.33-3.8,3.26-6.07-6-11-7.82-11.92,7.59-1.12,7.59-1.12l-7.52-5.7,12.86-.44L2325.86,74l7,.73L2366,81.45"/><path class="cls-2" d="M2231.84,78.89c6.51.4,14.09-13.23,14.09-13.23l-8.74-1.89s8.18-3.1,7.06-3.85c-5.2-3.5-13.4,1.23-12.8.56,2.59-2.86,13.6-8.53,13.6-8.53.89-4.75-10.16-2.61-9.74-3.13,3.56-4.43,19-5.93,17.38-7.5s-1.94-14-1.43-12c1.32,5.21,7.35,11.92,7.69,10.83.1-.33-3.09-8.71-2-7.55,2.27,2.31,12.25.45,11.69.07-4.08-2.74-6.72-23-6.72-23s3.84,9.79,16.91,15.89c8,3.74,8.29,1.5,8.29,1.5-9.48-6-7.28-14.34-6.93-13.71,4.41,7.75,8.92,7.64,7.93,7.1-3-1.64-9.38-21.89-8.74-20.37,1.06,2.54,4.69,4.36,7.79,6.2s15.4,6,19,5.87,15.37.43,17.8.52,14.87,5.12,14.87,5.12-12.4-10.69-10.38-10c4.49,1.62,10.74,3.64,15.34,5.51,4.93,2,7,4.19,10.27,6.93s5,7,4.16,14.47c0,0,16-3.46,16-3,.66,6.42-7,14.36-6.7,14.57,1.86,1.36,6.11-3.9,6.11-3.4,0,6.22-6,8.92-2.64,7.79s15.33,2,13.23,3.22-5.78,8.88-5.78,8.88,5.95-2.75,4.59-1.62-4.25,13.88-2.6,13c1-.54,6.21-3.28,9.1-5-2.43,5.1-6,16.71-6,16.71s5,5,6.52,4.8c-2,1-9.4,1.79-8,2.13s7.11,11.53,5.74,9.28-11.07-4.16-12-3.41,4.75,9.43,3.82,8.34S2366,99.91,2366,99.91s4.88,7,3.79,6.5-12.58-10.7-12.58-10.7l-7.09,4.4-24.33-17.6s14.63,0,12.86-.44c-3.63-.87-26.13-6.85-26.13-6.85S2301.27,85.7,2294,89.58s-9.58,1-9.31.8c.85-.49,5.17-2.43,6.28-10.9-5.05,2.72-23.18,15-23.69,15l4.69-8.19c-4.09-.25-10.83,9.41-10.83,9.41-3.78-4-1.67-10.56-3.75-7.47-.79,1.17.07,3.06-.63,6.88-1.14,6.23,1.73,15.86,1.73,15.86l-5.31-11.11.1-1a10.65,10.65,0,0,1-1,.81c-6.93,4.75-9.6,3.31-8.85,2.73,4.89-3.75,5.28-16.33,5.28-16.33l-7,7.82c-1.47-4.39.69-3.66-2.85-3.12s-8.49-2.86-6.46-2.7,9.68-5.17,4.43-5.3-9.48-4.09-9.48-4.09S2225.34,78.5,2231.84,78.89Z"/><ellipse class="cls-1" cx="2344.19" cy="119.77" rx="15.16" ry="9.15" transform="translate(986.87 2034.77) rotate(-57.6)"/><path class="cls-5" d="M2280.27,126.87a2.07,2.07,0,0,1-1.55-2.42c.09-.48.8-3.2,5.5-9.34,2.54-3.33,7.44-5.86,7.64-6a2.08,2.08,0,0,1,2.81.92,2.13,2.13,0,0,1-.92,2.84s-4.26,2.2-6.22,4.76c-4.09,5.36-4.71,7.62-4.71,7.65a2.13,2.13,0,0,1-2.5,1.56Z"/><path class="cls-5" d="M2296.21,122.27c0,1.11-3.14,2.08-2,2,.49,0-3.29-.08-10.32-3.3-3.81-1.74-7.36-6-7.51-6.14a2.08,2.08,0,0,1,.28-2.94,2.13,2.13,0,0,1,3,.27s3.08,3.67,6,5c6.13,2.81,8.47,2.91,8.49,2.91a2.14,2.14,0,0,1,2.08,2.1Z"/><path class="cls-6" d="M2298.07,143.24a1,1,0,1,1,.58,1.87c-5.92,1.84-8.73,4.33-8.75,4.36a1,1,0,0,1-1.14.13.92.92,0,0,1-.25-.2,1,1,0,0,1,.06-1.38"/><ellipse class="cls-7" cx="2308.36" cy="125.43" rx="8.79" ry="5.31" transform="translate(54.83 641.05) rotate(-16)"/><path class="cls-8" d="M2263.73,14.8c-3.93-5.55-13.05-14.53-31-14.79-22.16-.32-32.91,10.18-36.65,15.17A31,31,0,0,0,2190,40.51l2.67,13.32A30.93,30.93,0,0,0,2203,71.39c.64,2.92,6.71,10.59,5.33,16.48-1.31,5.61-4.25,9.06,8.35,14.67s14.78,9.94,14.17,11.52c-2.61,6.75.05,9.41,4.72,11.06,10.83,3.84,9.35,6.16,15.89,10,5.45,3.17-.07-4.69-1.14-9.93-.56-2.72-5.49-3.26-7.55-6.61-1.76-2.84.38-8.76-3.36-10.21-3.5-1.36-14-15.22-4.68-22s25.5-17.22,25.5-17.22,3.82-2.06,2.81-4.95a13.58,13.58,0,0,0-2.92-4.14s3.51-12.91,2.09-20L2260,29a21,21,0,0,1,3.26-7.1C2265,19.54,2265.21,16.9,2263.73,14.8Z"/><ellipse class="cls-5" cx="2236.13" cy="37.39" rx="5.97" ry="0.75" transform="translate(165.72 883.01) rotate(-23.17)"/><ellipse class="cls-5" cx="2217.71" cy="42.23" rx="5.97" ry="0.67" transform="translate(34.72 435.39) rotate(-11.3)"/><path class="cls-9" d="M2230.73,48.42c-1,.2-3.17,1.32-3.17,3s2.71,1.52,3.5.33S2230.73,48.42,2230.73,48.42Z"/><ellipse class="cls-10" cx="2215.18" cy="49.39" rx="3.53" ry="2.13" transform="translate(33.27 435.04) rotate(-11.3)"/><ellipse class="cls-10" cx="2240.67" cy="42.66" rx="3.11" ry="1.9" transform="translate(35.08 439.9) rotate(-11.3)"/></g></svg>