<?xml version="1.0" encoding="utf-8"?>
<!-- Generator: Adobe Illustrator 24.0.1, SVG Export Plug-In . SVG Version: 6.00 Build 0)  -->
<svg version="1.1" id="Calque_1" xmlns="http://www.w3.org/2000/svg" xmlns:xlink="http://www.w3.org/1999/xlink" x="0px" y="0px"
	 viewBox="0 0 1054.4 251.6" style="enable-background:new 0 0 1054.4 251.6;" xml:space="preserve">
<style type="text/css">
	.st0{display:none;}
	.st1{display:inline;fill:#EA2F7B;}
	.st2{opacity:0.4;fill:#282624;enable-background:new    ;}
	.st3{fill:#CD9A51;}
	.st4{fill:#0A0A0A;}
	.st5{fill:#424241;}
	.st6{fill:#4C4C4C;}
	.st7{fill:#C39049;}
	.st8{fill:#222526;}
	.st9{fill:#DFAC6A;}
	.st10{fill:#4F361B;}
	.st11{fill:#0C0101;}
	.st12{fill:#FFFFFF;}
</style>
<g class="st0">
	<rect x="843.5" y="0" class="st1" width="211" height="251.6"/>
	<rect x="632.5" y="0" class="st1" width="211" height="251.6"/>
	<rect x="421.5" y="0" class="st1" width="211" height="251.6"/>
	<rect x="210.8" y="0" class="st1" width="211" height="251.6"/>
	<rect y="0" class="st1" width="211" height="251.6"/>
</g>
<g>
	<ellipse class="st2" cx="933.2" cy="222.9" rx="31.9" ry="9.9"/>
	<path class="st3" d="M950.6,127.3c2.5,1.1,23.5,30.7,24.3,31.7c0.8,0.9,4.6,2.4,5.2,3.7c0.6,1.3-7,8.5-9.9,7.6S943.5,137,943.5,137
		L950.6,127.3z"/>
	<path class="st3" d="M921.8,127.3c-2.5,1.1-24.5,30.7-25.2,31.7c-0.8,0.9-3.7,2.4-4.3,3.7s7,8.5,9.9,7.6s26.7-33.3,26.7-33.3
		L921.8,127.3z"/>
	<path class="st4" d="M921.1,130.3c0,0-2-3.3-5.2,0S903,148.9,903,148.9l10.7,11.7l9.2-21.7L921.1,130.3z"/>
	<g>
		<g>
			<path class="st4" d="M923.7,127.3c-2.1,2.1-11.8,12.6-12.7,25.9c-1.1,14.8-0.8,28,16.2,29.6c16.9,4.8,25.7,12.7,32.1,2.3
				c6.5-10.4-1.1-45.3-6.6-52.4c-6.5-8.3-8-10.5-8-10.5L923.7,127.3z"/>
			<path class="st5" d="M923.7,127.3c0,0,6.5,29.4,12.4,33.8c5.8,4.4,22.4,14.4,24.7,14.1s1.6-6.5,1.6-6.5s-22.6-8.5-24.9-14.8
				s-10.1-26.2-10.1-26.2L923.7,127.3z"/>
			<polygon class="st6" points="944.7,122.2 946.6,124.8 937.6,153.9 935.2,147.7 			"/>
			<polygon class="st7" points="927.5,127.8 935.2,147.7 944.7,122.2 928.6,121.4 			"/>
		</g>
		<g>
			<path class="st7" d="M939,198.3c0,0,1.6,19.5,3.2,20.6c1.6,1.2,7.8,5.5,10,3.5c2.2-2.1,2.8-26.4,2.8-26.4L939,198.3z"/>
			<path class="st4" d="M933.2,184.7c0,0,5.5,11.9,3.5,14.5c-1.9,2.5,21.4,3,21.4,3s4.4-22.4,3.5-24.5
				C959.3,175.6,933.2,184.7,933.2,184.7z"/>
		</g>
		<g>
			<path class="st7" d="M916.3,192.8c0,0,0.6,24.3,2.8,26.4s8.4-2.3,10-3.5c1.6-1.1,3.2-20.6,3.2-20.6L916.3,192.8z"/>
			<path class="st4" d="M913,160.7c-2.4,2.1,0.1,38.3,0.1,38.3s23.4-0.4,21.4-3c-1.9-2.5,3.5-14.5,3.5-14.5S915.4,158.6,913,160.7z"
				/>
		</g>
		<g>
			<g>
				
					<rect x="953.1" y="60.3" transform="matrix(0.9822 -0.1877 0.1877 0.9822 4.0124 180.4236)" class="st8" width="3.2" height="17.4"/>
				<polygon class="st8" points="892.8,108 889.3,109.6 881.3,94.1 884.7,92.5 				"/>
			</g>
			<g>
				
					<ellipse transform="matrix(0.7568 -0.6537 0.6537 0.7568 143.3535 612.8173)" class="st3" cx="895.2" cy="113.8" rx="5.9" ry="11.5"/>
				
					<ellipse transform="matrix(0.9945 -0.1048 0.1048 0.9945 -3.7167 100.9024)" class="st3" cx="958.3" cy="85.8" rx="5.9" ry="11.5"/>
				<path class="st3" d="M869.7,75.7c-0.4,0.8,34.1,49.5,36.4,51.5c2.3,2,22.6,3.8,30,1.5c5-1.5,21.2-20.5,21.2-23.7
					c0.1-3.2-7.5-54.5-9.7-58.8S869.7,75.7,869.7,75.7z"/>
			</g>
			<g>
				
					<ellipse transform="matrix(0.9234 -0.3839 0.3839 0.9234 32.4491 355.7498)" class="st4" cx="907.4" cy="96.6" rx="4.4" ry="9.9"/>
				
					<ellipse transform="matrix(0.9443 -0.329 0.329 0.9443 12.5668 305.292)" class="st9" cx="908.4" cy="115.5" rx="5.9" ry="3.7"/>
				
					<ellipse transform="matrix(0.827 -0.5622 0.5622 0.827 110.8279 550.0112)" class="st9" cx="949.1" cy="94.9" rx="5.9" ry="3.7"/>
				
					<ellipse transform="matrix(0.9234 -0.3839 0.3839 0.9234 38.8268 364.6914)" class="st4" cx="933" cy="85.1" rx="4.4" ry="9.9"/>
			</g>
			<path class="st10" d="M930.2,107c-1.4,0-4.7,0.9-5.2,3.3c-0.5,2.3,3.3,2.8,4.7,1.4C931.2,110.3,930.2,107,930.2,107z"/>
		</g>
		<g>
			<polygon class="st8" points="887.8,103.8 885.7,95.8 900.6,111.4 			"/>
			<polygon class="st8" points="886.3,101.9 882.4,93 896.8,99.9 			"/>
			<polygon class="st8" points="956.1,68.1 950,62.5 945,77.2 			"/>
			<polygon class="st8" points="956.5,72.5 952.3,68 948.8,88.7 			"/>
			<path class="st11" d="M958.1,63.3c-0.8,0.1-3.5-2.6-3.5-2.6s2-6.3,3.3-9.1c-1.6,0.9-4.4,2.4-5,2.7c-0.9,0.5,0.7-6.5,1.4-7.1
				c0.8-0.6-2.5,0.9-2.5,0.9s2-4.2,3.2-4.8c1.1-0.7-5.3-2.4-7.2-1.8c-1.8,0.6,1.4-0.8,1.5-4.3c0-0.3-2.3,2.6-3.3,1.8
				c-0.1-0.1,4-4.4,3.7-7.9c0-0.2-8.9,3.3-8.9,3.3c-1.8-4.5-2.8-7.2-4.6-8.7s-9-6.8-11.5-7.7c-1.1-0.4,5,7.8,5,7.8s-6.1-5-7.4-5.1
				c-1.3-0.1-7.7-0.4-9.7-0.3c-1.4,0-5-1-7.7-2c-0.3-0.5-2.3-0.9-2.7-1.2c-1.7-1-3.7-2-4.2-3.4c-0.3-0.8,3.2,10.2,4.8,11.1
				c0.6,0.3-1.9,0.4-4.3-3.9c-0.2-0.3-1.4,4.2,3.8,7.5c0,0-0.1,0.8-2.6,0c-0.6-2.2-2-3.2-2-3c0.1,0.9,0.2,1.5,0.1,2.3c0,0,0,0-0.1,0
				c-0.7-0.3-1.3-0.6-1.8-1c-1-3.7-2.5-8-2.4-7.4c0.4,1.3-0.4,3.1-1.2,4.8c-2.8-2.6-3.8-5.1-3.8-5.1s0.7,5.1,1.8,8.8
				c-0.9,1.4-2,3-3,4.2c-0.6-0.1-1.2-0.3-1.5-0.5c-0.3-0.3,0,0.7,0.4,1.8c-0.2,0.2-0.4,0.4-0.5,0.5s-0.3,0.2-0.5,0.3
				c-1-1.2-2.1-3-2.4-4.5c-0.2-1-0.2,4.2,0.5,6.1c-0.7,0.5-1.3,1.1-2,1.6c-2.2,0.6-5.5,1.4-6.9,2.6c0-0.5,0-0.8-0.1-0.5
				c-1.5,2.2-3.5,5.3-5,7.7c-1.5,2.6-1.7,4.3-2.2,6.6s1.3,6.2,4.2,9.3c0,0-9.5,2.5-9.4,2.8c1.9,3.1,8,4,8,4.2
				c-0.4,1.3-4,0.3-3.9,0.6c2.1,2.8,5.7,1.9,3.8,2.6s-6.2,6.1-4.8,5.9c1.4-0.1,5.6,2,5.6,2S867,82,868,82c1,0.1,6.7,4.7,5.6,4.9
				c-0.7,0.1-3.9,0.7-5.8,0.9c2.8,1.4,8.4,5.4,8.4,5.4s-0.6,4-1.3,4.4c1.3-0.2,4.8-2.4,4.3-1.8c-0.6,0.7,0.8,7.6,0.6,6.1
				s3.5-5.6,4.2-5.6s1.1,5.9,1.2,5c0-0.8,3.1-4.8,3.1-4.8l6.1-1.8l-5.1-2.9c0,0-1.9-15-1.2-15.8c1.3-1.6,16.3-11.9,16.3-11.9
				s8.5,0,13.2,0.1c7.4,0.2,8.6-1.2,8.6-1.2s-7.3-0.9-10.7-4.3c0.9-0.2,2.4-0.3,4.2-0.4c4.4,0.2,11,0.5,12.4,0.8
				c1,0.3,8.5,6.9,8.5,6.9s6.3,5.6,6.9,5.8s-2.1-3.5-2.1-3.5s7,3.3,7.5,3.9s-2.6-4.1-2.1-4.5s5.8,0.7,6.6,1.8c0.7,1.2-2.3-4.9-3.1-5
				C953,64.3,957,63.8,958.1,63.3z M872.9,46.3c0.2,0,0.4-0.1,0.6-0.2c-0.5,0.9-0.9,1.4-0.9,1.4S872.8,47,872.9,46.3z M877.3,40.5
				c-0.7,0.8-1.9,2.6-2.9,4.2c-0.5,0.3-0.9,0.6-1.3,0.9c0.3-1.6,0.8-3.9,0.9-5.1C874.6,40.4,876.1,40.3,877.3,40.5z"/>
		</g>
	</g>
	<path class="st4" d="M947.5,126c0,0,2-3.3,5.2,0s12.9,18.5,12.9,18.5l-10.7,11.7l-9.2-21.7L947.5,126z"/>
	<path class="st12" d="M1003.4,9.5c-18.2,0-32.9,13.3-32.9,29.8c0,6.7,2.5,13,6.6,17.9l-3.8,6.6h11.5c5.3,3.3,11.7,5.2,18.6,5.2
		c18.2,0,32.9-13.3,32.9-29.8S1021.6,9.5,1003.4,9.5z"/>
	<g>
		<path d="M1002.3,45.6c-0.7,0-1.2-0.2-1.5-0.5s-0.4-1-0.4-1.9c0-1,0.1-1.9,0.4-2.6c0.2-0.7,0.6-1.3,0.9-1.7
			c0.4-0.5,0.7-0.8,1.1-1.1c0.3-0.3,0.6-0.5,1-0.8s0.7-0.5,1-0.9c0.3-0.3,0.6-0.7,0.8-1.1c0.2-0.4,0.3-0.8,0.3-1.3
			c0-0.8-0.3-1.4-0.9-1.8c-0.6-0.4-1.4-0.6-2.3-0.6c-0.9,0-1.6,0.1-2,0.4s-0.8,0.6-1,1s-0.4,0.7-0.7,1c-0.2,0.3-0.6,0.4-1.1,0.4
			s-0.9-0.2-1.4-0.5s-0.7-0.8-0.7-1.5c0-0.6,0.2-1.3,0.7-2.1c0.5-0.7,1.3-1.4,2.3-1.9s2.3-0.8,3.9-0.8c1.5,0,2.8,0.3,4,0.8
			c1.1,0.5,2,1.2,2.6,2.1s0.9,1.9,0.9,3c0,0.8-0.2,1.6-0.5,2.3s-0.7,1.3-1.2,1.9c-0.4,0.6-0.9,1-1.3,1.4c-0.4,0.4-0.8,0.7-1,0.9
			c-0.6,0.5-1.1,1-1.4,1.4c-0.3,0.4-0.5,0.9-0.5,1.4c-0.1,0.5-0.1,1-0.1,1.6c0,0.3-0.1,0.7-0.4,1
			C1003.7,45.5,1003.2,45.6,1002.3,45.6z M1002.3,53.5c-0.8,0-1.4-0.3-1.9-0.8s-0.8-1.2-0.8-1.9c0-0.8,0.3-1.4,0.8-1.9
			s1.2-0.8,1.9-0.8c0.8,0,1.4,0.3,1.9,0.8s0.8,1.2,0.8,1.9s-0.3,1.4-0.8,1.9C1003.7,53.3,1003.1,53.5,1002.3,53.5z"/>
	</g>
</g>
<g>
	<ellipse class="st2" cx="722.2" cy="222.9" rx="31.9" ry="9.9"/>
	<path class="st3" d="M739.6,127.3c2.5,1.1,23.5,30.7,24.3,31.7c0.8,0.9,4.6,2.4,5.2,3.7c0.6,1.3-7,8.5-9.9,7.6S732.5,137,732.5,137
		L739.6,127.3z"/>
	<path class="st3" d="M710.9,127.3c-2.5,1.1-24.5,30.7-25.2,31.7c-0.8,0.9-3.7,2.4-4.3,3.7s7,8.5,9.9,7.6S718,137,718,137
		L710.9,127.3z"/>
	<path class="st4" d="M710.2,130.3c0,0-2-3.3-5.2,0s-12.9,18.5-12.9,18.5l10.7,11.7l9.2-21.7L710.2,130.3z"/>
	<g>
		<g>
			<path class="st4" d="M712.7,127.3c-2.1,2.1-11.8,12.6-12.7,25.9c-1.1,14.8-0.8,28,16.2,29.6c16.9,4.8,25.7,12.7,32.1,2.3
				c6.5-10.4-1.1-45.3-6.6-52.4c-6.5-8.3-8-10.5-8-10.5L712.7,127.3z"/>
			<path class="st5" d="M712.7,127.3c0,0,6.5,29.4,12.4,33.8c5.8,4.4,22.4,14.4,24.7,14.1s1.6-6.5,1.6-6.5s-22.6-8.5-24.9-14.8
				s-10.1-26.2-10.1-26.2L712.7,127.3z"/>
			<polygon class="st6" points="733.8,122.2 735.7,124.8 726.6,153.9 724.2,147.7 			"/>
			<polygon class="st7" points="716.5,127.8 724.2,147.7 733.8,122.2 717.6,121.4 			"/>
		</g>
		<g>
			<path class="st7" d="M728,198.3c0,0,1.6,19.5,3.2,20.6c1.6,1.2,7.8,5.5,10,3.5c2.2-2.1,2.8-26.4,2.8-26.4L728,198.3z"/>
			<path class="st4" d="M722.2,184.7c0,0,5.5,11.9,3.5,14.5c-1.9,2.5,21.4,3,21.4,3s4.4-22.4,3.5-24.5
				C748.3,175.6,722.2,184.7,722.2,184.7z"/>
		</g>
		<g>
			<path class="st7" d="M705.4,192.8c0,0,0.6,24.3,2.8,26.4s8.4-2.3,10-3.5c1.6-1.1,3.2-20.6,3.2-20.6L705.4,192.8z"/>
			<path class="st4" d="M702,160.7c-2.4,2.1,0.1,38.3,0.1,38.3s23.4-0.4,21.4-3c-1.9-2.5,3.5-14.5,3.5-14.5S704.4,158.6,702,160.7z"
				/>
		</g>
		<g>
			<g>
				
					<rect x="742.1" y="60.3" transform="matrix(0.9822 -0.1877 0.1877 0.9822 0.2623 140.8188)" class="st8" width="3.2" height="17.4"/>
				<polygon class="st8" points="681.8,108 678.4,109.6 670.3,94.1 673.7,92.5 				"/>
			</g>
			<g>
				
					<ellipse transform="matrix(0.7568 -0.6537 0.6537 0.7568 92.0214 474.893)" class="st3" cx="684.2" cy="113.8" rx="5.9" ry="11.5"/>
				
					<ellipse transform="matrix(0.9945 -0.1048 0.1048 0.9945 -4.8785 78.7895)" class="st3" cx="747.3" cy="85.8" rx="5.9" ry="11.5"/>
				<path class="st3" d="M658.7,75.7c-0.4,0.8,34.1,49.5,36.4,51.5c2.3,2,22.6,3.8,30,1.5c5-1.5,21.2-20.5,21.2-23.7
					c0.1-3.2-7.5-54.5-9.7-58.8S658.7,75.7,658.7,75.7z"/>
			</g>
			<g>
				
					<ellipse transform="matrix(0.9234 -0.3839 0.3839 0.9234 16.2765 274.7493)" class="st4" cx="696.4" cy="96.6" rx="4.4" ry="9.9"/>
				
					<ellipse transform="matrix(0.9443 -0.329 0.329 0.9443 0.8193 235.8731)" class="st9" cx="697.4" cy="115.5" rx="5.9" ry="3.7"/>
				<ellipse transform="matrix(0.827 -0.5622 0.5622 0.827 74.3229 431.386)" class="st9" cx="738.1" cy="94.9" rx="5.9" ry="3.7"/>
				
					<ellipse transform="matrix(0.9234 -0.3839 0.3839 0.9234 22.6541 283.6909)" class="st4" cx="722" cy="85.1" rx="4.4" ry="9.9"/>
			</g>
			<path class="st10" d="M719.2,107c-1.4,0-4.7,0.9-5.2,3.3c-0.5,2.3,3.3,2.8,4.7,1.4C720.2,110.3,719.2,107,719.2,107z"/>
		</g>
		<g>
			<polygon class="st8" points="676.9,103.8 674.7,95.8 689.6,111.4 			"/>
			<polygon class="st8" points="675.4,101.9 671.4,93 685.8,99.9 			"/>
			<polygon class="st8" points="745.2,68.1 739,62.5 734,77.2 			"/>
			<polygon class="st8" points="745.6,72.5 741.3,68 737.8,88.7 			"/>
			<path class="st11" d="M747.2,63.3c-0.8,0.1-3.5-2.6-3.5-2.6s2-6.3,3.3-9.1c-1.6,0.9-4.4,2.4-5,2.7c-0.9,0.5,0.7-6.5,1.4-7.1
				c0.8-0.6-2.5,0.9-2.5,0.9s2-4.2,3.2-4.8c1.1-0.7-5.3-2.4-7.2-1.8c-1.8,0.6,1.4-0.8,1.5-4.3c0-0.3-2.3,2.6-3.3,1.8
				c-0.1-0.1,4-4.4,3.7-7.9c0-0.2-8.9,3.3-8.9,3.3c-1.8-4.5-2.8-7.2-4.6-8.7s-9-6.8-11.5-7.7c-1.1-0.4,5,7.8,5,7.8s-6.1-5-7.4-5.1
				c-1.3-0.1-7.7-0.4-9.7-0.3c-1.4,0-5-1-7.7-2c-0.3-0.5-2.3-0.9-2.7-1.2c-1.7-1-3.7-2-4.2-3.4c-0.3-0.8,3.2,10.2,4.8,11.1
				c0.6,0.3-1.9,0.4-4.3-3.9c-0.2-0.3-1.4,4.2,3.8,7.5c0,0-0.1,0.8-2.6,0c-0.6-2.2-2-3.2-2-3c0.1,0.9,0.2,1.5,0.1,2.3c0,0,0,0-0.1,0
				c-0.7-0.3-1.3-0.6-1.8-1c-1-3.7-2.5-8-2.4-7.4c0.4,1.3-0.4,3.1-1.2,4.8c-2.8-2.6-3.8-5.1-3.8-5.1s0.7,5.1,1.8,8.8
				c-0.9,1.4-2,3-3,4.2c-0.6-0.1-1.2-0.3-1.5-0.5c-0.3-0.3,0,0.7,0.4,1.8c-0.2,0.2-0.4,0.4-0.5,0.5s-0.3,0.2-0.5,0.3
				c-1-1.2-2.1-3-2.4-4.5c-0.2-1-0.2,4.2,0.5,6.1c-0.7,0.5-1.3,1.1-2,1.6c-2.2,0.6-5.5,1.4-6.9,2.6c0-0.5,0-0.8-0.1-0.5
				c-1.5,2.2-3.5,5.3-5,7.7c-1.5,2.6-1.7,4.3-2.2,6.6s1.3,6.2,4.2,9.3c0,0-9.5,2.5-9.4,2.8c1.9,3.1,8,4,8,4.2
				c-0.4,1.3-4,0.3-3.9,0.6c2.1,2.8,5.7,1.9,3.8,2.6s-6.2,6.1-4.8,5.9c1.4-0.1,5.6,2,5.6,2s-3.6,0.8-2.6,0.8c1,0.1,6.7,4.7,5.6,4.9
				c-0.7,0.1-3.9,0.7-5.8,0.9c2.8,1.4,8.4,5.4,8.4,5.4s-0.6,4-1.3,4.4c1.3-0.2,4.8-2.4,4.3-1.8c-0.6,0.7,0.8,7.6,0.6,6.1
				s3.5-5.6,4.2-5.6s1.1,5.9,1.2,5c0-0.8,3.1-4.8,3.1-4.8l6.1-1.8l-5.1-2.9c0,0-1.9-15-1.2-15.8c1.3-1.6,16.3-11.9,16.3-11.9
				s8.5,0,13.2,0.1c7.4,0.2,8.6-1.2,8.6-1.2s-7.3-0.9-10.7-4.3c0.9-0.2,2.4-0.3,4.2-0.4c4.4,0.2,11,0.5,12.4,0.8
				c1,0.3,8.5,6.9,8.5,6.9s6.3,5.6,6.9,5.8s-2.1-3.5-2.1-3.5s7,3.3,7.5,3.9s-2.6-4.1-2.1-4.5s5.8,0.7,6.6,1.8c0.7,1.2-2.3-4.9-3.1-5
				C742,64.3,746,63.8,747.2,63.3z M662,46.3c0.2,0,0.4-0.1,0.6-0.2c-0.5,0.9-0.9,1.4-0.9,1.4S661.8,47,662,46.3z M666.3,40.5
				c-0.7,0.8-1.9,2.6-2.9,4.2c-0.5,0.3-0.9,0.6-1.3,0.9c0.3-1.6,0.8-3.9,0.9-5.1C663.6,40.4,665.1,40.3,666.3,40.5z"/>
		</g>
	</g>
	<path class="st4" d="M736.5,126c0,0,2-3.3,5.2,0s12.9,18.5,12.9,18.5L744,156.2l-9.2-21.7L736.5,126z"/>
	<path class="st12" d="M792.4,9.5c-18.2,0-32.9,13.3-32.9,29.8c0,6.7,2.5,13,6.6,17.9l-3.8,6.6h11.5c5.3,3.3,11.7,5.2,18.6,5.2
		c18.2,0,32.9-13.3,32.9-29.8S810.6,9.5,792.4,9.5z"/>
	<g>
		<path d="M791.3,45.6c-0.7,0-1.2-0.2-1.5-0.5s-0.4-1-0.4-1.9c0-1,0.1-1.9,0.4-2.6c0.2-0.7,0.6-1.3,0.9-1.7c0.4-0.5,0.7-0.8,1.1-1.1
			c0.3-0.3,0.6-0.5,1-0.8s0.7-0.5,1-0.9c0.3-0.3,0.6-0.7,0.8-1.1c0.2-0.4,0.3-0.8,0.3-1.3c0-0.8-0.3-1.4-0.9-1.8
			c-0.6-0.4-1.4-0.6-2.3-0.6c-0.9,0-1.6,0.1-2,0.4s-0.8,0.6-1,1s-0.4,0.7-0.7,1c-0.2,0.3-0.6,0.4-1.1,0.4s-0.9-0.2-1.4-0.5
			s-0.7-0.8-0.7-1.5c0-0.6,0.2-1.3,0.7-2.1c0.5-0.7,1.3-1.4,2.3-1.9s2.3-0.8,3.9-0.8c1.5,0,2.8,0.3,4,0.8c1.1,0.5,2,1.2,2.6,2.1
			s0.9,1.9,0.9,3c0,0.8-0.2,1.6-0.5,2.3s-0.7,1.3-1.2,1.9c-0.4,0.6-0.9,1-1.3,1.4c-0.4,0.4-0.8,0.7-1,0.9c-0.6,0.5-1.1,1-1.4,1.4
			c-0.3,0.4-0.5,0.9-0.5,1.4c-0.1,0.5-0.1,1-0.1,1.6c0,0.3-0.1,0.7-0.4,1C792.8,45.5,792.2,45.6,791.3,45.6z M791.3,53.5
			c-0.8,0-1.4-0.3-1.9-0.8s-0.8-1.2-0.8-1.9c0-0.8,0.3-1.4,0.8-1.9s1.2-0.8,1.9-0.8c0.8,0,1.4,0.3,1.9,0.8s0.8,1.2,0.8,1.9
			s-0.3,1.4-0.8,1.9C792.7,53.3,792.1,53.5,791.3,53.5z"/>
	</g>
</g>
<g>
	<ellipse class="st2" cx="511.2" cy="222.9" rx="31.9" ry="9.9"/>
	<path class="st3" d="M528.6,127.3c2.5,1.1,23.5,30.7,24.3,31.7c0.8,0.9,4.6,2.4,5.2,3.7c0.6,1.3-7,8.5-9.9,7.6S521.5,137,521.5,137
		L528.6,127.3z"/>
	<path class="st3" d="M499.9,127.3c-2.5,1.1-24.5,30.7-25.2,31.7c-0.8,0.9-3.7,2.4-4.3,3.7c-0.6,1.3,7,8.5,9.9,7.6S507,137,507,137
		L499.9,127.3z"/>
	<path class="st4" d="M499.2,130.3c0,0-2-3.3-5.2,0s-12.9,18.5-12.9,18.5l10.7,11.7l9.2-21.7L499.2,130.3z"/>
	<g>
		<g>
			<path class="st4" d="M501.8,127.3c-2.1,2.1-11.8,12.6-12.7,25.9c-1.1,14.8-0.8,28,16.2,29.6c16.9,4.8,25.7,12.7,32.1,2.3
				c6.5-10.4-1.1-45.3-6.6-52.4c-6.5-8.3-8-10.5-8-10.5L501.8,127.3z"/>
			<path class="st5" d="M501.8,127.3c0,0,6.5,29.4,12.4,33.8c5.8,4.4,22.4,14.4,24.7,14.1s1.6-6.5,1.6-6.5s-22.6-8.5-24.9-14.8
				s-10.1-26.2-10.1-26.2L501.8,127.3z"/>
			<polygon class="st6" points="522.8,122.2 524.7,124.8 515.6,153.9 513.3,147.7 			"/>
			<polygon class="st7" points="505.6,127.8 513.3,147.7 522.8,122.2 506.6,121.4 			"/>
		</g>
		<g>
			<path class="st7" d="M517,198.3c0,0,1.6,19.5,3.2,20.6c1.6,1.2,7.8,5.5,10,3.5c2.2-2.1,2.8-26.4,2.8-26.4L517,198.3z"/>
			<path class="st4" d="M511.2,184.7c0,0,5.5,11.9,3.5,14.5c-1.9,2.5,21.4,3,21.4,3s4.4-22.4,3.5-24.5
				C537.3,175.6,511.2,184.7,511.2,184.7z"/>
		</g>
		<g>
			<path class="st7" d="M494.4,192.8c0,0,0.6,24.3,2.8,26.4c2.2,2.1,8.4-2.3,10-3.5c1.6-1.1,3.2-20.6,3.2-20.6L494.4,192.8z"/>
			<path class="st4" d="M491,160.7c-2.4,2.1,0.1,38.3,0.1,38.3s23.4-0.4,21.4-3c-1.9-2.5,3.5-14.5,3.5-14.5S493.5,158.6,491,160.7z"
				/>
		</g>
		<g>
			<g>
				
					<rect x="531.2" y="60.3" transform="matrix(0.9822 -0.1877 0.1877 0.9822 -3.4825 101.2321)" class="st8" width="3.2" height="17.4"/>
				<polygon class="st8" points="470.8,108 467.4,109.6 459.3,94.1 462.7,92.5 				"/>
			</g>
			<g>
				
					<ellipse transform="matrix(0.7568 -0.6537 0.6537 0.7568 40.6893 336.9687)" class="st3" cx="473.2" cy="113.8" rx="5.9" ry="11.5"/>
				
					<ellipse transform="matrix(0.9945 -0.1048 0.1048 0.9945 -6.0402 56.6767)" class="st3" cx="536.3" cy="85.8" rx="5.9" ry="11.5"/>
				<path class="st3" d="M447.7,75.7c-0.4,0.8,34.1,49.5,36.4,51.5s22.6,3.8,30,1.5c5-1.5,21.2-20.5,21.2-23.7
					c0.1-3.2-7.5-54.5-9.7-58.8C523.4,41.9,447.7,75.7,447.7,75.7z"/>
			</g>
			<g>
				
					<ellipse transform="matrix(0.9234 -0.3839 0.3839 0.9234 0.1257 193.7813)" class="st4" cx="485.5" cy="96.6" rx="4.4" ry="9.9"/>
				
					<ellipse transform="matrix(0.9443 -0.329 0.329 0.9443 -10.9283 166.4541)" class="st9" cx="486.4" cy="115.5" rx="5.9" ry="3.7"/>
				
					<ellipse transform="matrix(0.827 -0.5622 0.5622 0.827 37.8179 312.7608)" class="st9" cx="527.1" cy="94.9" rx="5.9" ry="3.7"/>
				<ellipse transform="matrix(0.9234 -0.3839 0.3839 0.9234 6.4816 202.6909)" class="st4" cx="511" cy="85.1" rx="4.4" ry="9.9"/>
			</g>
			<path class="st10" d="M508.3,107c-1.4,0-4.7,0.9-5.2,3.3c-0.5,2.3,3.3,2.8,4.7,1.4S508.3,107,508.3,107z"/>
		</g>
		<g>
			<polygon class="st8" points="465.9,103.8 463.7,95.8 478.6,111.4 			"/>
			<polygon class="st8" points="464.4,101.9 460.4,93 474.8,99.9 			"/>
			<polygon class="st8" points="534.2,68.1 528,62.5 523,77.2 			"/>
			<polygon class="st8" points="534.6,72.5 530.3,68 526.9,88.7 			"/>
			<path class="st11" d="M536.2,63.3c-0.8,0.1-3.5-2.6-3.5-2.6s2-6.3,3.3-9.1c-1.6,0.9-4.4,2.4-5,2.7c-0.9,0.5,0.7-6.5,1.4-7.1
				c0.8-0.6-2.5,0.9-2.5,0.9s2-4.2,3.2-4.8c1.1-0.7-5.3-2.4-7.2-1.8c-1.8,0.6,1.4-0.8,1.5-4.3c0-0.3-2.3,2.6-3.3,1.8
				c-0.1-0.1,4-4.4,3.7-7.9c0-0.2-8.9,3.3-8.9,3.3c-1.8-4.5-2.8-7.2-4.6-8.7s-9-6.8-11.5-7.7c-1.1-0.4,5,7.8,5,7.8s-6.1-5-7.4-5.1
				s-7.7-0.4-9.7-0.3c-1.4,0-5-1-7.7-2c-0.3-0.5-2.3-0.9-2.7-1.2c-1.7-1-3.7-2-4.2-3.4c-0.3-0.8,3.2,10.2,4.8,11.1
				c0.6,0.3-1.9,0.4-4.3-3.9c-0.2-0.3-1.4,4.2,3.8,7.5c0,0-0.1,0.8-2.6,0c-0.6-2.2-2-3.2-2-3c0.1,0.9,0.2,1.5,0.1,2.3c0,0,0,0-0.1,0
				c-0.7-0.3-1.3-0.6-1.8-1c-1-3.7-2.5-8-2.4-7.4c0.4,1.3-0.4,3.1-1.2,4.8c-2.8-2.6-3.8-5.1-3.8-5.1s0.7,5.1,1.8,8.8
				c-0.9,1.4-2,3-3,4.2c-0.6-0.1-1.2-0.3-1.5-0.5c-0.3-0.3,0,0.7,0.4,1.8c-0.2,0.2-0.4,0.4-0.5,0.5s-0.3,0.2-0.5,0.3
				c-1-1.2-2.1-3-2.4-4.5c-0.2-1-0.2,4.2,0.5,6.1c-0.7,0.5-1.3,1.1-2,1.6c-2.2,0.6-5.5,1.4-6.9,2.6c0-0.5,0-0.8-0.1-0.5
				c-1.5,2.2-3.5,5.3-5,7.7c-1.5,2.6-1.7,4.3-2.2,6.6s1.3,6.2,4.2,9.3c0,0-9.5,2.5-9.4,2.8c1.9,3.1,8,4,8,4.2
				c-0.4,1.3-4,0.3-3.9,0.6c2.1,2.8,5.7,1.9,3.8,2.6c-1.9,0.7-6.2,6.1-4.8,5.9c1.4-0.1,5.6,2,5.6,2s-3.6,0.8-2.6,0.8
				c1,0.1,6.7,4.7,5.6,4.9c-0.7,0.1-3.9,0.7-5.8,0.9c2.8,1.4,8.4,5.4,8.4,5.4s-0.6,4-1.3,4.4c1.3-0.2,4.8-2.4,4.3-1.8
				c-0.6,0.7,0.8,7.6,0.6,6.1c-0.2-1.5,3.5-5.6,4.2-5.6s1.1,5.9,1.2,5c0-0.8,3.1-4.8,3.1-4.8l6.1-1.8l-5.1-2.9c0,0-1.9-15-1.2-15.8
				c1.3-1.6,16.3-11.9,16.3-11.9s8.5,0,13.2,0.1c7.4,0.2,8.6-1.2,8.6-1.2s-7.3-0.9-10.7-4.3c0.9-0.2,2.4-0.3,4.2-0.4
				c4.4,0.2,11,0.5,12.4,0.8c1,0.3,8.5,6.9,8.5,6.9s6.3,5.6,6.9,5.8s-2.1-3.5-2.1-3.5s7,3.3,7.5,3.9s-2.6-4.1-2.1-4.5
				s5.8,0.7,6.6,1.8c0.7,1.2-2.3-4.9-3.1-5C531,64.3,535,63.8,536.2,63.3z M451,46.3c0.2,0,0.4-0.1,0.6-0.2
				c-0.5,0.9-0.9,1.4-0.9,1.4S450.8,47,451,46.3z M455.4,40.5c-0.7,0.8-1.9,2.6-2.9,4.2c-0.5,0.3-0.9,0.6-1.3,0.9
				c0.3-1.6,0.8-3.9,0.9-5.1C452.6,40.4,454.1,40.3,455.4,40.5z"/>
		</g>
	</g>
	<path class="st4" d="M525.5,126c0,0,2-3.3,5.2,0s12.9,18.5,12.9,18.5L533,156.2l-9.2-21.7L525.5,126z"/>
	<g>
		<path d="M580.3,45.6c-0.7,0-1.2-0.2-1.5-0.5s-0.4-1-0.4-1.9c0-1,0.1-1.9,0.4-2.6c0.2-0.7,0.6-1.3,0.9-1.7c0.4-0.5,0.7-0.8,1.1-1.1
			c0.3-0.3,0.6-0.5,1-0.8s0.7-0.5,1-0.9c0.3-0.3,0.6-0.7,0.8-1.1c0.2-0.4,0.3-0.8,0.3-1.3c0-0.8-0.3-1.4-0.9-1.8
			c-0.6-0.4-1.4-0.6-2.3-0.6c-0.9,0-1.6,0.1-2,0.4s-0.8,0.6-1,1s-0.4,0.7-0.7,1c-0.2,0.3-0.6,0.4-1.1,0.4s-0.9-0.2-1.4-0.5
			s-0.7-0.8-0.7-1.5c0-0.6,0.2-1.3,0.7-2.1c0.5-0.7,1.3-1.4,2.3-1.9s2.3-0.8,3.9-0.8c1.5,0,2.8,0.3,4,0.8c1.1,0.5,2,1.2,2.6,2.1
			s0.9,1.9,0.9,3c0,0.8-0.2,1.6-0.5,2.3s-0.7,1.3-1.2,1.9c-0.4,0.6-0.9,1-1.3,1.4c-0.4,0.4-0.8,0.7-1,0.9c-0.6,0.5-1.1,1-1.4,1.4
			c-0.3,0.4-0.5,0.9-0.5,1.4c-0.1,0.5-0.1,1-0.1,1.6c0,0.3-0.1,0.7-0.4,1C581.8,45.5,581.2,45.6,580.3,45.6z M580.4,53.5
			c-0.8,0-1.4-0.3-1.9-0.8s-0.8-1.2-0.8-1.9c0-0.8,0.3-1.4,0.8-1.9s1.2-0.8,1.9-0.8c0.8,0,1.4,0.3,1.9,0.8s0.8,1.2,0.8,1.9
			s-0.3,1.4-0.8,1.9C581.8,53.3,581.1,53.5,580.4,53.5z"/>
	</g>
	<path class="st12" d="M575.1,22.1c-13.9,0-25.1,10.2-25.1,22.7c0,5.1,1.9,9.9,5.1,13.7l-2.9,5.1h8.8c4,2.5,8.9,4,14.2,4
		c13.9,0,25.1-10.2,25.1-22.7S589,22.1,575.1,22.1z"/>
	<g>
		<path d="M574.2,49.7c-0.6,0-0.9-0.1-1.2-0.4c-0.2-0.3-0.3-0.7-0.3-1.4c0-0.8,0.1-1.4,0.3-1.9s0.4-1,0.7-1.3
			c0.3-0.4,0.6-0.6,0.8-0.9c0.2-0.2,0.5-0.4,0.7-0.6c0.3-0.2,0.5-0.4,0.8-0.7c0.3-0.2,0.5-0.5,0.6-0.8c0.2-0.3,0.2-0.6,0.2-1
			c0-0.6-0.2-1.1-0.7-1.4c-0.5-0.3-1-0.4-1.7-0.4s-1.2,0.1-1.5,0.3s-0.6,0.5-0.8,0.7c-0.2,0.3-0.3,0.5-0.5,0.7s-0.5,0.3-0.8,0.3
			s-0.7-0.1-1.1-0.4c-0.4-0.3-0.5-0.6-0.5-1.2c0-0.5,0.2-1,0.6-1.6c0.4-0.6,1-1.1,1.8-1.4c0.8-0.4,1.8-0.6,3-0.6s2.2,0.2,3,0.6
			c0.9,0.4,1.5,0.9,2,1.6c0.5,0.7,0.7,1.4,0.7,2.3c0,0.6-0.1,1.2-0.4,1.8c-0.2,0.5-0.5,1-0.9,1.5s-0.7,0.8-1,1.1s-0.6,0.5-0.8,0.6
			c-0.5,0.4-0.8,0.7-1.1,1.1c-0.2,0.3-0.3,0.7-0.4,1.1c0,0.4-0.1,0.8-0.1,1.2c0,0.3-0.1,0.5-0.3,0.7S574.9,49.7,574.2,49.7z
			 M574.3,55.8c-0.6,0-1.1-0.2-1.5-0.6c-0.4-0.4-0.6-0.9-0.6-1.5s0.2-1.1,0.6-1.5c0.4-0.4,0.9-0.6,1.4-0.6c0.6,0,1.1,0.2,1.5,0.6
			c0.4,0.4,0.6,0.9,0.6,1.5s-0.2,1-0.6,1.5C575.3,55.5,574.8,55.8,574.3,55.8z"/>
	</g>
</g>
<g>
	<ellipse class="st2" cx="300.5" cy="222.9" rx="31.9" ry="9.9"/>
	<path class="st3" d="M317.9,127.3c2.5,1.1,23.5,30.7,24.3,31.7c0.8,0.9,4.6,2.4,5.2,3.7s-7,8.5-9.9,7.6S310.8,137,310.8,137
		L317.9,127.3z"/>
	<path class="st3" d="M286.5,129.9C284,131,264.7,158,263.9,159c-0.8,0.9-3.7,2.4-4.3,3.7c-0.6,1.3,7,8.5,9.9,7.6
		s26.7-33.3,26.7-33.3L286.5,129.9z"/>
	<path class="st4" d="M288.4,130.3c0,0-2-3.3-5.2,0s-12.9,18.5-12.9,18.5l10.7,11.7l9.2-21.7L288.4,130.3z"/>
	<g>
		<g>
			<path class="st4" d="M291,127.3c-2.1,2.1-11.8,12.6-12.7,25.9c-1.1,14.8-0.8,28,16.2,29.6c16.9,4.8,25.7,12.7,32.1,2.3
				c6.5-10.4-1.1-45.3-6.6-52.4c-6.5-8.3-8-10.5-8-10.5L291,127.3z"/>
			<path class="st5" d="M291,127.3c0,0,6.5,29.4,12.4,33.8s22.4,14.4,24.7,14.1s1.6-6.5,1.6-6.5s-22.6-8.5-24.9-14.8
				s-10.1-26.2-10.1-26.2L291,127.3z"/>
			<polygon class="st6" points="312,122.2 313.9,124.8 304.9,153.9 302.5,147.7 			"/>
			<polygon class="st7" points="294.8,127.8 302.5,147.7 312,122.2 295.9,121.4 			"/>
		</g>
		<g>
			<path class="st7" d="M306.3,198.3c0,0,1.6,19.5,3.2,20.6c1.6,1.2,7.8,5.5,10,3.5c2.2-2.1,2.8-26.4,2.8-26.4L306.3,198.3z"/>
			<path class="st4" d="M300.5,184.7c0,0,5.5,11.9,3.5,14.5c-1.9,2.5,21.4,3,21.4,3s4.4-22.4,3.5-24.5
				C326.6,175.6,300.5,184.7,300.5,184.7z"/>
		</g>
		<g>
			<path class="st7" d="M283.6,192.8c0,0,0.6,24.3,2.8,26.4c2.2,2.1,8.4-2.3,10-3.5c1.6-1.1,3.2-20.6,3.2-20.6L283.6,192.8z"/>
			<path class="st4" d="M280.3,160.7c-2.4,2.1,0.1,38.3,0.1,38.3s23.4-0.4,21.4-3c-1.9-2.5,3.5-14.5,3.5-14.5
				S282.7,158.6,280.3,160.7z"/>
		</g>
		<g>
			<g>
				
					<rect x="328.9" y="65.2" transform="matrix(0.9998 -1.935286e-02 1.935286e-02 0.9998 -1.3682 6.4099)" class="st8" width="3.2" height="17.4"/>
				<polygon class="st8" points="262.8,101.8 259.2,102.9 253.8,86.3 257.5,85.3 				"/>
			</g>
			<g>
				
					<ellipse transform="matrix(0.8562 -0.5167 0.5167 0.8562 -17.8148 152.007)" class="st3" cx="264.1" cy="108" rx="5.9" ry="11.5"/>
				
					<ellipse transform="matrix(6.443933e-02 -0.9979 0.9979 6.443933e-02 219.0049 415.6689)" class="st3" cx="331.2" cy="91" rx="11.5" ry="5.9"/>
				<path class="st3" d="M245.5,66.2c-0.5,0.7,25.3,54.6,27.2,56.9c1.9,2.3,21.6,7.5,29.3,6.6c5.1-0.6,24.3-16.6,24.9-19.8
					s1.8-55,0.3-59.6C325.8,45.6,245.5,66.2,245.5,66.2z"/>
			</g>
			<g>
				
					<ellipse transform="matrix(0.9749 -0.2226 0.2226 0.9749 -13.7194 64.4844)" class="st4" cx="279.2" cy="93.1" rx="4.4" ry="9.9"/>
				
					<ellipse transform="matrix(0.9863 -0.165 0.165 0.9863 -14.6703 47.2211)" class="st9" cx="276.9" cy="111.9" rx="5.9" ry="3.7"/>
				<ellipse transform="matrix(0.91 -0.4147 0.4147 0.91 -11.9909 141.7832)" class="st9" cx="320.5" cy="98.5" rx="5.9" ry="3.7"/>
				
					<ellipse transform="matrix(0.9749 -0.2226 0.2226 0.9749 -11.4839 70.3416)" class="st4" cx="306.3" cy="86.1" rx="4.4" ry="9.9"/>
			</g>
			<path class="st10" d="M299.9,107.3c-1.4-0.2-4.8,0.1-5.6,2.4s2.8,3.3,4.4,2.2C300.3,110.7,299.9,107.3,299.9,107.3z"/>
		</g>
		<g>
			<polygon class="st8" points="258.7,96.9 257.9,88.6 269.9,106.5 			"/>
			<polygon class="st8" points="257.5,94.8 255.1,85.3 268.1,94.6 			"/>
			<polygon class="st8" points="332,73.3 326.9,66.7 319.5,80.4 			"/>
			<polygon class="st8" points="331.7,77.7 328.2,72.5 321.3,92.3 			"/>
			<path class="st11" d="M334.8,68.9c-0.8,0-3-3.2-3-3.2s3-5.9,4.7-8.4c-1.7,0.7-4.8,1.6-5.4,1.8c-1,0.3,1.7-6.3,2.6-6.8
				s-2.6,0.4-2.6,0.4s2.7-3.8,4-4.2c1.2-0.5-4.8-3.3-6.8-3c-1.9,0.3,1.5-0.6,2.2-4c0.1-0.2-2.7,2.2-3.6,1.3c-0.1-0.1,4.7-3.7,5-7.2
				c0-0.2-9.3,1.8-9.3,1.8c-1-4.7-1.6-7.6-3-9.4c-1.5-1.8-7.7-8.2-10-9.5c-1-0.6,3.6,8.5,3.6,8.5s-5.2-6-6.5-6.3s-7.6-1.7-9.5-1.9
				c-1.4-0.2-4.8-1.8-7.2-3.3c-0.2-0.5-2.1-1.3-2.5-1.6c-1.5-1.3-3.3-2.6-3.6-4c-0.2-0.9,1.4,10.6,2.8,11.8c0.5,0.4-1.9,0-3.6-4.5
				c-0.1-0.4-2.1,3.9,2.5,8c0,0-0.2,0.8-2.6-0.4c-0.2-2.3-1.4-3.5-1.5-3.3c0,0.9-0.1,1.6-0.3,2.2c0,0,0,0-0.1,0
				c-0.6-0.4-1.1-0.8-1.6-1.3c-0.3-3.8-1.2-8.3-1.1-7.7c0.2,1.4-0.9,3-2,4.6c-2.4-3.1-2.9-5.7-2.9-5.7s-0.2,5.2,0.2,9
				c-1.2,1.3-2.5,2.6-3.7,3.6c-0.6-0.2-1.1-0.5-1.4-0.8c-0.3-0.4-0.1,0.7,0,1.9c-0.2,0.1-0.4,0.3-0.6,0.4c-0.1,0.1-0.3,0.2-0.6,0.3
				c-0.8-1.4-1.6-3.3-1.6-4.8c-0.1-1-0.9,4.1-0.6,6c-0.7,0.4-1.5,0.8-2.2,1.2c-2.3,0.2-5.6,0.4-7.2,1.4c0.1-0.5,0.2-0.7,0-0.6
				c-1.8,2-4.4,4.6-6.2,6.8c-1.9,2.3-2.4,3.9-3.3,6.2c-0.9,2.2,0.2,6.3,2.6,9.8c0,0-9.8,0.9-9.7,1.2c1.4,3.4,7.3,5.3,7.1,5.5
				c-0.6,1.2-4-0.4-3.9-0.1c1.6,3.1,5.3,2.9,3.4,3.2c-2,0.3-7.1,5-5.7,5c1.4,0.1,5.2,2.9,5.2,2.9s-3.7,0.2-2.7,0.4
				c1,0.2,5.8,5.8,4.7,5.8c-0.7,0-3.9,0-5.8-0.1c2.5,1.9,7.3,6.8,7.3,6.8s-1.2,3.8-2,4.1c1.3,0,5.1-1.6,4.5-1
				c-0.7,0.6-0.5,7.6-0.4,6.1s4.4-4.9,5.1-4.8c0.6,0.1,0.1,6,0.3,5.2c0.2-0.8,3.8-4.2,3.8-4.2l6.3-0.7l-4.5-3.7
				c0,0,0.7-15.1,1.5-15.8c1.6-1.4,18.1-8.9,18.1-8.9s8.4,1.5,13,2.4c7.3,1.4,8.7,0.3,8.7,0.3s-7.1-2.2-9.8-6.1
				c0.9,0,2.4,0.1,4.2,0.3c4.3,0.9,10.8,2.3,12.1,2.9c0.9,0.4,7.2,8.3,7.2,8.3s5.2,6.6,5.8,6.9c0.6,0.4-1.4-3.8-1.4-3.8
				s6.4,4.4,6.8,5.1s-1.8-4.5-1.3-4.8c0.6-0.3,5.6,1.6,6.1,2.9c0.5,1.4-1.4-5.2-2.2-5.5C329.6,69,333.6,69.2,334.8,68.9z
				 M253.7,37.7c0.2,0,0.4-0.1,0.6-0.1c-0.7,0.8-1.1,1.3-1.1,1.3S253.4,38.4,253.7,37.7z M259,32.7c-0.8,0.6-2.3,2.3-3.5,3.7
				c-0.5,0.2-1,0.4-1.5,0.7c0.6-1.6,1.4-3.7,1.8-4.9C256.3,32.2,257.8,32.3,259,32.7z"/>
		</g>
	</g>
	<path class="st4" d="M314.8,126c0,0,2-3.3,5.2,0s12.9,18.5,12.9,18.5l-10.7,11.7l-9.2-21.7L314.8,126z"/>
	<path class="st12" d="M355.9,36.9c-9.1,0-16.4,6.7-16.4,14.9c0,3.4,1.2,6.5,3.3,9l-1.9,3.3h5.7c2.6,1.6,5.8,2.6,9.3,2.6
		c9.1,0,16.4-6.7,16.4-14.9S364.9,36.9,355.9,36.9z"/>
</g>
<g>
	<ellipse class="st2" cx="89.7" cy="222.9" rx="31.9" ry="9.9"/>
	<path class="st3" d="M107.1,127.3c2.5,1.1,23.5,30.7,24.3,31.7c0.8,0.9,4.6,2.4,5.2,3.7c0.6,1.3-7,8.5-9.9,7.6
		c-2.9-1-26.7-33.3-26.7-33.3L107.1,127.3z"/>
	<path class="st3" d="M75.7,129.9C73.2,131,53.9,158,53.1,159c-0.8,0.9-3.7,2.4-4.3,3.7s7,8.5,9.9,7.6c2.9-0.9,26.7-33.3,26.7-33.3
		L75.7,129.9z"/>
	<path class="st4" d="M77.7,130.3c0,0-2-3.3-5.2,0s-12.9,18.5-12.9,18.5l10.7,11.7l9.2-21.7L77.7,130.3z"/>
	<g>
		<g>
			<path class="st4" d="M80.3,127.3c-2.1,2.1-11.8,12.6-12.7,25.9c-1.1,14.8-0.8,28,16.2,29.6c16.9,4.8,25.7,12.7,32.1,2.3
				c6.5-10.4-1.1-45.3-6.6-52.4c-6.5-8.3-8-10.5-8-10.5L80.3,127.3z"/>
			<path class="st5" d="M80.3,127.3c0,0,6.5,29.4,12.4,33.8s22.4,14.4,24.7,14.1c2.4-0.2,1.6-6.5,1.6-6.5s-22.6-8.5-24.9-14.8
				S84,127.8,84,127.8L80.3,127.3z"/>
			<polygon class="st6" points="101.3,122.2 103.2,124.8 94.1,153.9 91.8,147.7 			"/>
			<polygon class="st7" points="84.1,127.8 91.8,147.7 101.3,122.2 85.1,121.4 			"/>
		</g>
		<g>
			<path class="st7" d="M95.5,198.3c0,0,1.6,19.5,3.2,20.6c1.6,1.2,7.8,5.5,10,3.5c2.2-2.1,2.8-26.4,2.8-26.4L95.5,198.3z"/>
			<path class="st4" d="M89.7,184.7c0,0,5.5,11.9,3.5,14.5c-1.9,2.5,21.4,3,21.4,3s4.4-22.4,3.5-24.5
				C115.8,175.6,89.7,184.7,89.7,184.7z"/>
		</g>
		<g>
			<path class="st7" d="M72.9,192.8c0,0,0.6,24.3,2.8,26.4s8.4-2.3,10-3.5c1.6-1.1,3.2-20.6,3.2-20.6L72.9,192.8z"/>
			<path class="st4" d="M69.5,160.7c-2.4,2.1,0.1,38.3,0.1,38.3s23.4-0.4,21.4-3c-1.9-2.5,3.5-14.5,3.5-14.5S72,158.6,69.5,160.7z"
				/>
		</g>
		<g>
			<g>
				
					<rect x="117.4" y="78.5" transform="matrix(0.1069 -0.9943 0.9943 0.1069 32.9659 196.8899)" class="st8" width="17.4" height="3.2"/>
				<polygon class="st8" points="55.5,99.3 51.7,99.9 48.5,82.7 52.3,82.2 				"/>
			</g>
			<g>
				
					<ellipse transform="matrix(0.9145 -0.4045 0.4045 0.9145 -37.892 31.6673)" class="st3" cx="56" cy="105.5" rx="5.9" ry="11.5"/>
				
					<ellipse transform="matrix(0.1898 -0.9818 0.9818 0.1898 5.4884 201.137)" class="st3" cx="124.6" cy="97.2" rx="11.5" ry="5.9"/>
				<path class="st3" d="M42.8,61.7C42.2,62.3,61,119,62.6,121.6c1.6,2.5,20.5,10.2,28.2,10.2c5.2,0.1,26.2-13.4,27.2-16.5
					s8.7-54.3,7.9-59C125.1,51.4,42.8,61.7,42.8,61.7z"/>
			</g>
			<g>
				
					<ellipse transform="matrix(0.9952 -9.783544e-02 9.783544e-02 0.9952 -8.7203 7.5672)" class="st4" cx="72.8" cy="92.7" rx="4.4" ry="9.9"/>
				
					<ellipse transform="matrix(0.9992 -3.926302e-02 3.926302e-02 0.9992 -4.3094 2.7634)" class="st9" cx="68.2" cy="111.1" rx="5.9" ry="3.7"/>
				
					<ellipse transform="matrix(0.955 -0.2966 0.2966 0.955 -25.5228 38.1884)" class="st9" cx="113.1" cy="103.2" rx="5.9" ry="3.7"/>
				
					<ellipse transform="matrix(0.9952 -9.783544e-02 9.783544e-02 0.9952 -8.2446 10.2704)" class="st4" cx="100.6" cy="89.2" rx="4.4" ry="9.9"/>
			</g>
			<path class="st10" d="M91.6,109.3c-1.3-0.4-4.8-0.5-5.9,1.6s2.3,3.6,4.1,2.7C91.5,112.7,91.6,109.3,91.6,109.3z"/>
		</g>
		<g>
			<polygon class="st8" points="52,93.8 52.3,85.5 62,104.8 			"/>
			<polygon class="st8" points="51.1,91.6 49.9,81.9 61.7,92.8 			"/>
			<polygon class="st8" points="127.7,79.7 123.5,72.5 114.4,85.1 			"/>
			<polygon class="st8" points="126.8,84 124.1,78.4 114.7,97.2 			"/>
			<path class="st11" d="M131,75.6c-0.8-0.1-2.6-3.5-2.6-3.5s3.7-5.5,5.8-7.8c-1.8,0.4-4.9,1-5.6,1.2c-1,0.2,2.5-6,3.4-6.4
				c0.9-0.3-2.6,0.1-2.6,0.1s3.1-3.4,4.5-3.7c1.3-0.3-4.4-3.8-6.4-3.8c-1.9,0,1.6-0.4,2.6-3.7c0.1-0.2-2.9,1.8-3.7,0.8
				c-0.1-0.1,5.1-3.1,5.8-6.5c0-0.2-9.4,0.6-9.4,0.6c-0.4-4.8-0.6-7.8-1.8-9.7c-1.2-1.9-6.6-9.2-8.7-10.7c-0.9-0.7,2.5,8.9,2.5,8.9
				s-4.4-6.6-5.6-7c-1.3-0.4-7.3-2.6-9.2-3.1c-1.3-0.4-4.5-2.4-6.7-4.2c-0.1-0.5-1.9-1.5-2.2-1.9c-1.3-1.5-2.9-3-3.1-4.5
				c-0.1-0.9,0,10.7,1.3,12c0.5,0.4-1.9-0.2-3-5c-0.1-0.4-2.6,3.6,1.4,8.3c0,0-0.3,0.8-2.5-0.8c0.1-2.3-1-3.7-1.1-3.4
				c-0.2,0.9-0.3,1.5-0.5,2.2c0,0,0,0-0.1,0c-0.6-0.5-1-1-1.5-1.5c0.2-3.8-0.1-8.4-0.2-7.8c0,1.4-1.3,2.9-2.5,4.3
				c-2-3.3-2.2-6-2.2-6s-0.9,5.1-0.9,9c-1.3,1.1-2.8,2.3-4.1,3.1c-0.6-0.3-1.1-0.6-1.3-0.9c-0.2-0.4-0.2,0.7-0.2,1.9
				c-0.3,0.1-0.5,0.3-0.7,0.3c-0.1,0-0.3,0.2-0.6,0.2c-0.6-1.4-1.1-3.4-1-5c0-1-1.4,4-1.3,5.9c-0.8,0.3-1.6,0.6-2.4,0.9
				c-2.3-0.1-5.7-0.3-7.4,0.5c0.2-0.5,0.3-0.7,0.1-0.6c-2.1,1.7-4.9,4-7,5.9c-2.2,2-2.9,3.6-4.1,5.7C45,42,45.6,46.2,47.6,50
				c0,0-9.8-0.4-9.8-0.1c0.9,3.5,6.5,6.2,6.4,6.4c-0.7,1.1-4-0.9-3.9-0.6c1.2,3.3,4.9,3.5,2.9,3.6s-7.7,4-6.3,4.3
				c1.3,0.3,4.8,3.6,4.8,3.6s-3.7-0.3-2.8,0c1,0.4,5,6.5,3.9,6.4c-0.7-0.1-3.9-0.5-5.8-0.9c2.3,2.2,6.4,7.6,6.4,7.6
				s-1.7,3.6-2.5,3.8c1.3,0.1,5.3-0.9,4.6-0.4s-1.5,7.5-1.2,6s5-4.3,5.6-4.1c0.6,0.2-0.6,5.9-0.4,5.1s4.3-3.7,4.3-3.7l6.4,0.1
				l-4-4.2c0,0,2.6-14.9,3.5-15.5c1.8-1.2,19.1-6.6,19.1-6.6s8.2,2.5,12.6,4c7.1,2.3,8.6,1.4,8.6,1.4s-6.7-3-9-7.3
				c0.9,0.1,2.3,0.4,4.1,0.8c4.2,1.4,10.4,3.7,11.6,4.4c0.9,0.5,6.1,9.1,6.1,9.1s4.4,7.2,4.9,7.6s-0.9-4-0.9-4s5.8,5.2,6.1,5.9
				c0.3,0.7-1.2-4.7-0.7-4.9c0.6-0.2,5.4,2.3,5.7,3.7c0.3,1.4-0.7-5.3-1.5-5.7C125.9,75.1,129.8,75.8,131,75.6z M54.5,34.5
				c0.2,0,0.4,0,0.6,0c-0.8,0.7-1.2,1.1-1.2,1.1S54.1,35.2,54.5,34.5z M60.4,30.2c-0.9,0.5-2.6,2-4,3.2c-0.5,0.1-1,0.3-1.5,0.5
				c0.8-1.5,1.9-3.5,2.4-4.6C57.8,29.4,59.3,29.7,60.4,30.2z"/>
		</g>
	</g>
	<path class="st4" d="M104,126c0,0,2-3.3,5.2,0s12.9,18.5,12.9,18.5l-10.7,11.7l-9.2-21.7L104,126z"/>
</g>
</svg>
