<?xml version="1.0" encoding="utf-8"?>
<!-- Generator: Adobe Illustrator 24.0.1, SVG Export Plug-In . SVG Version: 6.00 Build 0)  -->
<svg version="1.1" id="Calque_1" xmlns="http://www.w3.org/2000/svg" xmlns:xlink="http://www.w3.org/1999/xlink" x="0px" y="0px"
	 viewBox="0 0 3846.2 301.1" style="enable-background:new 0 0 3846.2 301.1;" xml:space="preserve">
<style type="text/css">
	.st0{fill:#6BED8C;}
	.st1{fill:#D2FFE0;}
	.st2{fill:#0B0C06;}
	.st3{fill:#142A2A;}
	.st4{fill:#04AF38;}
	.st5{fill:#3F4242;}
	.st6{fill:none;}
</style>
<title>fond2Plan de travail 8</title>
<path class="st0" d="M203.8,47.7c-5.7-12.9-20.6-34.9-57-42.7c-45-9.7-71.2,7.3-80.8,16C51.6,33.2,43.3,51.2,43.3,70.1v28.2
	c0,14.5,4.9,28.6,13.9,40c-2.1,3.4-3.8,6.8-4.2,9.6c-0.9,6.3,7.7,8.9,7.7,8.9s37.2,14.6,58.9,24.7s6,42.6-0.6,46.8
	c-7,4.5-0.3,15.7-2.7,22.1c-2.8,7.6-12.7,10.8-12.7,16.5c0,11.1-8.1,29.4,1.7,20.7c11.8-10.4,7.8-14.5,28.3-26.7
	c8.8-5.3,13.2-11.8,5.1-24.4c-1.9-3,0.8-12.6,24.2-29.2s16-22.4,11-33.3c-5.2-11.4-9.1-18.1-9-24.2c16.1-12.2,25.6-31.2,25.6-51.4
	V75c2.3-4.9,5.6-9.4,9.5-13.1C204.6,57.9,206,52.6,203.8,47.7z"/>
<path class="st1" d="M144.1,163.2c0-6.5,10.9-17.3,12.6-19c4-3.4,6.2-7.4,6.2-11.7c0-13-20.9-23.5-46.8-23.5s-46.8,10.5-46.8,23.5
	c0,6.6,5.4,12.6,14.2,16.8c10.8,6.3,30.1,14.4,36.6,18.7c9.7,6.3,16.7,14.3,21.2,19.6c10.2,12.2-14.7,36.7-16,42.3
	c-1.2,5.3,1.3,13.1,0.2,16.2s-11,16.4-11,16.4s16.7-9.6,17.5-17s-6-13.7,8.9-27.8s23.4-17.8,16.7-29.3S144.1,170.2,144.1,163.2z"/>
<ellipse transform="matrix(0.9752 -0.2215 0.2215 0.9752 -22.9463 22.3774)" class="st2" cx="88.3" cy="113.5" rx="27.7" ry="15.9"/>
<ellipse transform="matrix(0.1913 -0.9815 0.9815 0.1913 7.4446 236.0057)" class="st2" cx="146.9" cy="113.5" rx="15.9" ry="27.7"/>
<ellipse class="st2" cx="97.3" cy="124.6" rx="10.9" ry="19.7"/>
<ellipse class="st2" cx="119.4" cy="124.2" rx="10.9" ry="19.7"/>
<ellipse class="st2" cx="140" cy="123.2" rx="10.9" ry="19.7"/>
<path class="st2" d="M119.6,38.4c-20,0-40.3,20.5-51.3,3.7c-6.5,10-9.9,21.7-9.9,33.7c0,33.6,26.4,60.8,59,60.8s59-27.2,59-60.8
	c0-11.7-3.3-23.1-9.5-33C156,59,139.2,38.3,119.6,38.4z"/>
<path class="st3" d="M118,68.9c19.7,0,38.1-9.8,49-26.1c-16.7-27.4-52.4-36-79.8-19.3c-7.7,4.7-14.1,11.1-18.9,18.6
	C79.3,58.8,98,68.9,118,68.9z"/>
<ellipse transform="matrix(0.6784 -0.7347 0.7347 0.6784 -44.0128 120.2029)" class="st4" cx="115.3" cy="110.4" rx="7.1" ry="4.1"/>
<ellipse transform="matrix(0.6784 -0.7347 0.7347 0.6784 -42.0671 124.2774)" class="st4" cx="120.9" cy="110.2" rx="4.1" ry="7.1"/>
<ellipse transform="matrix(0.3017 -0.9534 0.9534 0.3017 -29.2267 151.1962)" class="st3" cx="88.6" cy="95.5" rx="15.1" ry="16.7"/>
<ellipse transform="matrix(0.9333 -0.359 0.359 0.9333 -24.3732 59.7485)" class="st3" cx="148.7" cy="95.5" rx="16.7" ry="15.1"/>
<ellipse transform="matrix(0.3011 -0.9536 0.9536 0.3011 -29.7291 151.2664)" class="st4" cx="88.3" cy="95.9" rx="10.2" ry="11.2"/>
<ellipse transform="matrix(0.9974 -7.270916e-02 7.270916e-02 0.9974 -6.565 11.0656)" class="st4" cx="148.7" cy="95.7" rx="11.3" ry="10.2"/>
<ellipse transform="matrix(0.757 -0.6534 0.6534 0.757 10.3841 104.7222)" class="st5" cx="146" cy="38.4" rx="8" ry="11.6"/>
<path class="st0" d="M444.6,47.7c-5.7-12.9-20.6-34.9-57-42.7c-45-9.7-71.1,7.3-80.8,16c-14.4,12.2-22.7,30.2-22.7,49.1v28.2
	c0,14.5,4.9,28.6,13.9,40c-4.4,12.6,7.2,17.1,7.2,17.1s15,4.7,36.4,20.9c19.1,14.5,24.8,47.8,18.2,52c-7,4.5,4.8,14,2.4,20.5
	c-2.9,7.6-7.9,12.4-7.9,18.2c0,11.1-8.1,29.4,1.7,20.7c11.8-10.4-6.6-13.2,13.8-25.4c8.8-5.3,17.8-13.1,9.7-25.8
	c-1.9-3-14.7-13.4,8.6-29.9s16-22.4,11-33.3c-5.2-11.4,6.4-17.4,6.5-23.6c16.1-12.2,25.6-31.2,25.5-51.4V75
	c2.3-4.9,5.6-9.4,9.5-13.1C445.3,57.9,446.8,52.6,444.6,47.7z"/>
<path class="st1" d="M384.9,163.2c0-6.5,10.9-17.3,12.6-19c4-3.4,6.2-7.4,6.2-11.7c0-13-20.9-23.5-46.8-23.5s-46.8,10.5-46.8,23.5
	c0,6.6,5.5,12.6,14.2,16.8c10.8,6.3,7,4,13.6,8.3c9.7,6.3,20.5,20.1,25,25.5c10.2,12.2,4.6,41.2,3.3,46.8c-0.9,4.4-0.5,9,1.3,13.1
	c2.3,5.4-3.4,17.1-3.4,17.1s8-7.2,8.8-14.6s-5.4-23.4,4.2-37c11.9-16.7,23.4-17.8,16.8-29.3S384.9,170.2,384.9,163.2z"/>
<ellipse transform="matrix(0.9752 -0.2215 0.2215 0.9752 -16.9911 75.6943)" class="st2" cx="329" cy="113.6" rx="27.7" ry="15.9"/>
<ellipse transform="matrix(0.1913 -0.9815 0.9815 0.1913 202.0909 472.3994)" class="st2" cx="387.7" cy="113.6" rx="15.9" ry="27.7"/>
<ellipse class="st2" cx="338" cy="124.6" rx="10.9" ry="19.7"/>
<ellipse class="st2" cx="360.1" cy="124.2" rx="10.9" ry="19.7"/>
<ellipse class="st2" cx="380.7" cy="123.2" rx="10.9" ry="19.7"/>
<path class="st2" d="M360.1,38.4c-20,0-40.1,20.4-51.1,3.7c-6.5,10-9.9,21.7-9.9,33.7c0,33.6,26.4,60.8,59,60.8s59-27.2,59-60.8
	c0-11.7-3.3-23.1-9.5-33C396.7,59.1,379.7,38.4,360.1,38.4z"/>
<path class="st3" d="M358.7,68.9c19.7,0,38.1-9.8,49-26.1c-16.7-27.4-52.4-36-79.8-19.3c-7.7,4.7-14.1,11.1-18.9,18.6
	C320,58.8,338.7,68.9,358.7,68.9z"/>
<ellipse transform="matrix(0.6784 -0.7347 0.7347 0.6784 33.3857 297.0428)" class="st4" cx="356" cy="110.4" rx="7.1" ry="4.1"/>
<ellipse transform="matrix(0.6784 -0.7347 0.7347 0.6784 35.327 301.1198)" class="st4" cx="361.6" cy="110.2" rx="4.1" ry="7.1"/>
<ellipse transform="matrix(0.3017 -0.9534 0.9534 0.3017 138.9777 380.7415)" class="st3" cx="329.4" cy="95.5" rx="15.1" ry="16.7"/>
<ellipse transform="matrix(0.9333 -0.359 0.359 0.9333 -8.3193 146.1984)" class="st3" cx="389.5" cy="95.5" rx="16.7" ry="15.1"/>
<ellipse transform="matrix(0.3017 -0.9534 0.9534 0.3017 138.8039 381.0288)" class="st4" cx="329.5" cy="95.8" rx="10.2" ry="11.3"/>
<ellipse transform="matrix(0.9974 -7.270916e-02 7.270916e-02 0.9974 -5.928 28.5676)" class="st4" cx="389.4" cy="95.7" rx="11.3" ry="10.2"/>
<ellipse transform="matrix(0.757 -0.6534 0.6534 0.757 68.8566 261.9899)" class="st5" cx="386.7" cy="38.4" rx="8" ry="11.6"/>
<path class="st0" d="M1889,47.7c-5.7-12.9-20.6-34.9-57-42.7c-45-9.7-71.2,7.3-80.8,16c-14.4,12.2-22.7,30.2-22.7,49.1v28.2
	c0,14.5,4.9,28.6,13.9,40c-4.4,12.6,7.2,17.1,7.2,17.1s15,4.7,36.4,20.9c19.1,14.5,24.7,47.8,18.2,52c-7,4.5,4.8,14,2.4,20.5
	c-2.8,7.6-7.9,12.4-7.9,18.2c0,11.1-8.1,29.4,1.7,20.7c11.8-10.4-6.6-13.2,13.8-25.4c8.8-5.3,17.8-13.1,9.7-25.8
	c-1.9-3-14.7-13.4,8.6-29.9s16-22.4,11-33.3c-5.2-11.4,6.4-17.4,6.5-23.6c16.1-12.2,25.6-31.2,25.6-51.4V75
	c2.3-4.9,5.6-9.4,9.5-13.1C1889.7,57.9,1891.2,52.6,1889,47.7z"/>
<path class="st1" d="M1829.3,163.2c0-6.5,10.9-17.3,12.6-19c4-3.4,6.3-7.4,6.3-11.7c0-13-20.9-23.5-46.8-23.5s-46.8,10.5-46.8,23.5
	c0,6.6,5.4,12.6,14.2,16.8c10.8,6.3,7,4,13.6,8.3c9.7,6.3,20.5,20.1,25,25.5c10.2,12.2,4.6,41.2,3.3,46.8c-0.9,4.4-0.5,9,1.3,13.1
	c2.3,5.4-3.4,17.1-3.4,17.1s8-7.2,8.8-14.6s-5.4-23.4,4.2-37c11.9-16.7,23.4-17.8,16.7-29.3S1829.3,170.2,1829.3,163.2z"/>
<ellipse transform="matrix(0.9752 -0.2215 0.2215 0.9752 18.8365 395.6378)" class="st2" cx="1773.5" cy="113.8" rx="27.7" ry="15.9"/>
<ellipse transform="matrix(0.1903 -0.9817 0.9817 0.1903 1367.1614 1889.9385)" class="st2" cx="1829.3" cy="116.2" rx="15.8" ry="27.6"/>
<ellipse class="st2" cx="1782.4" cy="124.6" rx="10.9" ry="19.7"/>
<ellipse class="st2" cx="1804.5" cy="124.2" rx="10.9" ry="19.7"/>
<ellipse class="st2" cx="1825.2" cy="123.2" rx="10.9" ry="19.7"/>
<path class="st2" d="M1804.5,18.5c-20,0-40.1,40.3-51.1,23.6c-6.5,10-9.9,21.7-9.9,33.7c0,33.6,26.4,60.8,59,60.8s59-27.2,59-60.8
	c0-11.7-3.3-23.1-9.5-33C1841.2,59.1,1824.2,18.5,1804.5,18.5z"/>
<path class="st3" d="M1803.1,68.9c19.7,0,38-9.8,49-26.1c-16.7-27.4-52.5-36-79.8-19.3c-7.6,4.7-14.1,11.1-18.9,18.6
	C1764.4,58.8,1783.1,68.9,1803.1,68.9z"/>
<ellipse transform="matrix(0.6784 -0.7347 0.7347 0.6784 497.9422 1358.2694)" class="st4" cx="1800.4" cy="110.4" rx="7.1" ry="4.1"/>
<ellipse transform="matrix(0.6784 -0.7347 0.7347 0.6784 499.8979 1362.2391)" class="st4" cx="1806" cy="110.1" rx="4.1" ry="7.1"/>
<ellipse transform="matrix(0.3017 -0.9534 0.9534 0.3017 1147.6151 1757.9987)" class="st3" cx="1773.9" cy="95.6" rx="15.1" ry="16.7"/>
<ellipse transform="matrix(0.9333 -0.359 0.359 0.9333 87.9873 664.6946)" class="st3" cx="1833.7" cy="95.4" rx="16.7" ry="15.1"/>
<ellipse transform="matrix(0.3017 -0.9534 0.9534 0.3017 1147.5496 1758.347)" class="st4" cx="1774.1" cy="95.8" rx="10.2" ry="11.3"/>
<ellipse transform="matrix(0.9974 -7.270916e-02 7.270916e-02 0.9974 -2.0968 133.6079)" class="st4" cx="1834.1" cy="95.6" rx="11.3" ry="10.2"/>
<ellipse transform="matrix(0.757 -0.6534 0.6534 0.757 419.856 1205.8301)" class="st5" cx="1831.2" cy="38.4" rx="8" ry="11.6"/>
<path class="st0" d="M685.3,47.7c-5.7-12.9-20.6-34.9-57-42.7c-45-9.7-71.2,7.3-80.8,16c-14.4,12.2-22.7,30.2-22.7,49.1v28.2
	c0,14.5,4.9,28.6,13.9,40c-2.1,3.4,11,16.4,11,16.4s6.5,12.6,25.3,27.1c18.9,14.7,32.1,42.3,25.5,46.4c-7,4.5,11.7,15.7,9.3,22.1
	c-2.8,7.6-4.3,12.7-4.3,18.5c0,11.1-5,30.4,4.8,21.7c11.8-10.4-11-19.3,9.5-31.5c8.8-5.3,2.3-13.2-5.7-25.9
	c-1.9-3-5.1-10.8,18.2-27.4s11.8-21.5,6.9-32.4c-5.2-11.4,7.2-17.5,7.3-23.7c16.1-12.2,25.6-31.2,25.5-51.4V75
	c2.3-4.9,5.6-9.4,9.5-13.1C686,57.9,687.5,52.6,685.3,47.7z"/>
<path class="st1" d="M625.6,165.1c0.2-6.2,10.9-19.2,12.6-20.8c4-3.4,6.2-7.4,6.2-11.7c0-13-20.9-23.5-46.8-23.5
	S551,119.6,551,132.5c0,6.5,11.2,14.9,13.7,16.6c7.1,4.9,5.5,16,28.9,33.4c11.5,8.6,13.2,37.2,11.9,42.8c-1.2,5.3,2.2,11.6,6.6,17
	c4.6,5.7,1.1,13,0.7,15.4c-0.3,1.5,8.2-8.6,4.3-12.7c-10.3-10.9-9.1-28.8-3.1-34.2C641.5,185.9,625.3,177.6,625.6,165.1z"/>
<ellipse transform="matrix(0.9752 -0.2215 0.2215 0.9752 -11.0098 129.0316)" class="st2" cx="569.8" cy="113.6" rx="27.7" ry="15.9"/>
<ellipse transform="matrix(0.1913 -0.9815 0.9815 0.1913 396.6949 708.6713)" class="st2" cx="628.4" cy="113.6" rx="15.9" ry="27.7"/>
<ellipse class="st2" cx="578.7" cy="124.6" rx="10.9" ry="19.7"/>
<ellipse class="st2" cx="600.8" cy="124.2" rx="10.9" ry="19.7"/>
<ellipse class="st2" cx="621.5" cy="123.2" rx="10.9" ry="19.7"/>
<path class="st2" d="M597.1,38.4c-20,0-36.4,20.4-47.4,3.7c-6.5,10-9.9,21.7-9.9,33.7c0,33.6,26.4,60.8,59,60.8s59-27.2,59-60.8
	c0-11.7-3.3-23.1-9.5-33C637.5,59.1,616.8,38.4,597.1,38.4z"/>
<path class="st3" d="M599.4,68.9c19.7,0,38.1-9.8,49-26.1c-16.7-27.4-52.4-36-79.8-19.3c-7.7,4.7-14.1,11.1-18.9,18.6
	C560.7,58.8,579.4,68.9,599.4,68.9z"/>
<ellipse transform="matrix(0.6784 -0.7347 0.7347 0.6784 110.7892 473.8844)" class="st4" cx="596.7" cy="110.4" rx="7.1" ry="4.1"/>
<ellipse transform="matrix(0.6784 -0.7347 0.7347 0.6784 112.7255 477.9597)" class="st4" cx="602.3" cy="110.2" rx="4.1" ry="7.1"/>
<ellipse transform="matrix(0.3017 -0.9534 0.9534 0.3017 306.9715 610.2393)" class="st3" cx="570.1" cy="95.6" rx="15.1" ry="16.7"/>
<ellipse transform="matrix(0.9333 -0.359 0.359 0.9333 7.7251 232.6077)" class="st3" cx="630.2" cy="95.5" rx="16.7" ry="15.1"/>
<ellipse transform="matrix(0.3017 -0.9534 0.9534 0.3017 306.9279 610.6885)" class="st4" cx="570.4" cy="95.8" rx="10.2" ry="11.3"/>
<ellipse transform="matrix(0.9974 -7.270916e-02 7.270916e-02 0.9974 -5.2906 46.0768)" class="st4" cx="630.2" cy="95.7" rx="11.3" ry="10.2"/>
<ellipse transform="matrix(0.757 -0.6534 0.6534 0.757 127.3819 419.3345)" class="st5" cx="627.5" cy="38.4" rx="8" ry="11.6"/>
<path class="st0" d="M1648.3,47.7c-5.7-12.9-20.6-34.9-57-42.7c-45-9.7-71.2,7.3-80.8,16c-14.4,12.2-22.7,30.2-22.7,49.1v28.2
	c0,14.5,4.9,28.6,13.9,40c-2.1,3.4,11,16.4,11,16.4s6.5,12.6,25.3,27.1c18.9,14.7,32.1,42.3,25.5,46.4c-7,4.5,11.7,15.7,9.3,22.1
	c-2.8,7.6-4.2,12.7-4.3,18.5c0,11.1-5,30.4,4.8,21.7c11.8-10.4-11-19.3,9.5-31.5c8.8-5.3,2.3-13.2-5.7-25.9
	c-1.9-3-5.1-10.8,18.2-27.4s11.8-21.5,6.9-32.4c-5.2-11.4,7.2-17.5,7.3-23.7c16.1-12.2,25.6-31.2,25.6-51.4V75
	c2.3-4.9,5.6-9.4,9.5-13.1C1649,57.9,1650.5,52.6,1648.3,47.7z"/>
<path class="st1" d="M1588.6,165.1c0.2-6.2,10.9-19.2,12.6-20.8c4-3.4,6.3-7.4,6.3-11.7c0-13-20.9-23.5-46.8-23.5
	s-46.8,10.5-46.8,23.5c0,6.5,11.2,14.9,13.7,16.6c7.1,4.9,5.5,16,28.9,33.4c11.5,8.6,13.2,37.2,11.9,42.8c-1.2,5.3,2.2,11.6,6.6,17
	c4.6,5.7,1.1,13,0.7,15.4c-0.3,1.5,8.2-8.6,4.3-12.7c-10.3-10.9-9.1-28.8-3.1-34.2C1604.5,185.9,1588.2,177.6,1588.6,165.1z"/>
<ellipse transform="matrix(0.9752 -0.2215 0.2215 0.9752 12.8785 342.2976)" class="st2" cx="1532.7" cy="113.7" rx="27.7" ry="15.9"/>
<ellipse transform="matrix(0.1913 -0.9815 0.9815 0.1913 1175.4136 1653.7573)" class="st2" cx="1591.3" cy="113.6" rx="15.9" ry="27.7"/>
<ellipse class="st2" cx="1541.7" cy="124.6" rx="10.9" ry="19.7"/>
<ellipse class="st2" cx="1563.8" cy="124.2" rx="10.9" ry="19.7"/>
<ellipse class="st2" cx="1584.4" cy="123.2" rx="10.9" ry="19.7"/>
<path class="st2" d="M1562.4,68.9c-20,0-38.7-10.1-49.7-26.8c-6.5,10-9.9,21.7-9.9,33.7c0,33.6,26.4,60.8,59,60.8s59-27.2,59-60.8
	c0-11.7-3.3-23.1-9.5-33C1600.4,59.1,1582.1,68.9,1562.4,68.9z"/>
<path class="st3" d="M1562.4,68.9c19.7,0,38-9.8,49-26.1c-16.7-27.4-52.5-36-79.8-19.3c-7.6,4.7-14.1,11.1-18.9,18.6
	C1523.7,58.8,1542.4,68.9,1562.4,68.9z"/>
<ellipse transform="matrix(0.6784 -0.7347 0.7347 0.6784 420.5698 1181.3536)" class="st4" cx="1559.7" cy="110.3" rx="7.1" ry="4.1"/>
<ellipse transform="matrix(0.6784 -0.7347 0.7347 0.6784 422.5255 1185.3235)" class="st4" cx="1565.2" cy="110" rx="4.1" ry="7.1"/>
<ellipse transform="matrix(0.3017 -0.9534 0.9534 0.3017 979.5833 1528.389)" class="st3" cx="1533.2" cy="95.5" rx="15.1" ry="16.7"/>
<ellipse transform="matrix(0.9333 -0.359 0.359 0.9333 71.9428 578.2852)" class="st3" cx="1593" cy="95.4" rx="16.7" ry="15.1"/>
<ellipse transform="matrix(0.3017 -0.9534 0.9534 0.3017 979.3295 1528.8069)" class="st4" cx="1533.3" cy="95.9" rx="10.2" ry="11.3"/>
<ellipse transform="matrix(0.9976 -6.982342e-02 6.982342e-02 0.9976 -3.0981 111.7711)" class="st4" cx="1597.3" cy="100.2" rx="11.3" ry="10.2"/>
<ellipse transform="matrix(0.757 -0.6534 0.6534 0.757 361.3819 1048.5654)" class="st5" cx="1590.5" cy="38.4" rx="8" ry="11.6"/>
<path class="st0" d="M1166.8,47.7c-5.7-12.9-20.6-34.9-57-42.7c-45-9.7-71.2,7.3-80.8,16c-14.4,12.2-22.7,30.2-22.7,49.1v28.2
	c0,14.5,4.9,28.6,13.9,40c0.1,6.2,9.3,24.3,4.1,35.7c-5,10.9-12.3,16.7,11,33.3c23.3,16.6,26.1,26.2,24.2,29.2
	c-8.1,12.7-3.7,19.2,5.1,24.5c20.5,12.2,16.5,16.3,28.3,26.7c9.8,8.7,1.8-9.6,1.7-20.7c0-5.8-9.8-8.9-12.7-16.5
	c-2.4-6.5,4.3-17.7-2.7-22.1c-6.6-4.2-22.2-36.7-0.6-46.8s58.9-24.7,58.9-24.7s8.6-2.6,7.7-8.9c-0.4-2.8-2.1-6.2-4.2-9.6
	c0,0,12.4-24.9,12.4-40V75c2.3-4.9,5.6-9.4,9.5-13.1C1167.5,57.9,1169,52.6,1166.8,47.7z"/>
<path class="st1" d="M1054.2,163.2c0-6.5-10.9-17.3-12.6-19c-4-3.4-6.2-7.4-6.2-11.7c0-13,20.9-23.5,46.8-23.5s46.8,10.5,46.8,23.5
	c0,6.6-5.4,12.6-14.2,16.8c-10.8,6.3-30.1,14.4-36.7,18.7c-9.7,6.3-16.7,14.3-21.2,19.6c-10.2,12.2,14.7,36.7,16,42.3
	c1.2,5.3-1.3,13.1-0.2,16.2s11,16.4,11,16.4s-16.7-9.6-17.5-17s6-13.7-8.9-27.8s-23.4-17.8-16.7-29.3S1054.2,170.2,1054.2,163.2z"/>
<ellipse transform="matrix(0.9752 -0.2215 0.2215 0.9752 0.9549 235.7727)" class="st2" cx="1051.7" cy="113.6" rx="27.7" ry="15.9"/>
<ellipse transform="matrix(0.1913 -0.9815 0.9815 0.1913 786.5182 1181.7302)" class="st2" cx="1110.4" cy="113.6" rx="15.9" ry="27.7"/>
<ellipse class="st2" cx="1060.8" cy="124.6" rx="10.9" ry="19.7"/>
<ellipse class="st2" cx="1082.9" cy="124.2" rx="10.9" ry="19.7"/>
<ellipse class="st2" cx="1103.5" cy="123.2" rx="10.9" ry="19.7"/>
<path class="st2" d="M1080.9,21.3c-20,0-38.1,37.5-49.1,20.8c-6.5,10-9.9,21.7-9.9,33.7c0,33.6,26.4,60.8,59,60.8s59-27.2,59-60.8
	c0-11.7-3.3-23.1-9.5-33C1119.5,59.1,1100.5,21.3,1080.9,21.3z"/>
<path class="st3" d="M1081.5,68.9c19.7,0,38.1-9.8,49-26.1c-16.7-27.4-52.4-36-79.8-19.3c-7.7,4.7-14.1,11.1-18.9,18.6
	C1042.8,58.8,1061.4,68.9,1081.5,68.9z"/>
<ellipse transform="matrix(0.6784 -0.7347 0.7347 0.6784 265.9057 828.027)" class="st4" cx="1078.8" cy="110.3" rx="7.1" ry="4.1"/>
<ellipse transform="matrix(0.6784 -0.7347 0.7347 0.6784 267.8469 832.1039)" class="st4" cx="1084.4" cy="110.1" rx="4.1" ry="7.1"/>
<ellipse transform="matrix(0.3017 -0.9534 0.9534 0.3017 643.6546 1069.839)" class="st3" cx="1052.2" cy="95.5" rx="15.1" ry="16.7"/>
<ellipse transform="matrix(0.9333 -0.359 0.359 0.9333 39.8956 405.6344)" class="st3" cx="1112.1" cy="95.4" rx="16.7" ry="15.1"/>
<ellipse transform="matrix(0.3017 -0.9534 0.9534 0.3017 643.6111 1070.2881)" class="st4" cx="1052.4" cy="95.8" rx="10.2" ry="11.3"/>
<ellipse transform="matrix(0.9974 -7.270916e-02 7.270916e-02 0.9974 -4.0142 81.1315)" class="st4" cx="1112.4" cy="95.7" rx="11.3" ry="10.2"/>
<ellipse transform="matrix(0.757 -0.6534 0.6534 0.757 244.4872 734.2682)" class="st5" cx="1109.5" cy="38.4" rx="8" ry="11.6"/>
<path class="st0" d="M926.1,47.7C920.3,34.8,905.4,12.8,869,5c-45-9.7-71.2,7.3-80.8,16c-14.4,12.2-22.7,30.2-22.7,49.1v28.2
	c0,14.5,4.9,28.6,13.9,40c0.1,6.2,34.9,26.6,29.7,38c-5,10.9-4,19,7.8,36.8c15.9,23.9-4.2,33.4,4.7,38.7
	c20.5,12.2,6.3,26.4,18.1,36.8c9.8,8.7,1.8-9.6,1.7-20.7c0-5.8,2.7-9.8-0.2-17.4c-2.4-6.5,4.3-17.7-2.7-22.1
	c-6.6-4.2,1.9-34.7,19.8-50.6c18.1-16.2,31.4-24.6,31.4-24.6s13.8-3.5,10.6-14.9c0,0,12.4-24.9,12.4-40V75c2.3-4.9,5.6-9.4,9.5-13.1
	C926.8,57.9,928.2,52.6,926.1,47.7z"/>
<path class="st1" d="M813.5,163.2c0-6.5-10.9-17.3-12.6-19c-4-3.4-6.2-7.4-6.2-11.7c0-13,20.9-23.5,46.8-23.5s46.8,10.5,46.8,23.5
	c0,6.6-5.5,12.6-14.2,16.8c-10.8,6.3-15.4,18.1-22,22.4c-9.7,6.3-13.1,16.4-17.6,21.8c-10.2,12.2-5.3,21.4-3.4,26.8
	c1.8,5.2,1.8,16,2.3,19.9c0.5,4.1,4.8,16.5,4.8,16.5s-8-4.9-8.8-12.3s1-8.3-6.1-27.5c-5.3-14.4-9.8-19.7-3.1-31.2
	S813.5,170.2,813.5,163.2z"/>
<ellipse transform="matrix(0.9752 -0.2215 0.2215 0.9752 -5.0163 182.4791)" class="st2" cx="811.1" cy="113.6" rx="27.7" ry="15.9"/>
<ellipse transform="matrix(0.1913 -0.9815 0.9815 0.1913 591.8431 945.4995)" class="st2" cx="869.7" cy="113.6" rx="15.9" ry="27.7"/>
<ellipse class="st2" cx="820" cy="124.6" rx="10.9" ry="19.7"/>
<ellipse class="st2" cx="842.1" cy="124.2" rx="10.9" ry="19.7"/>
<ellipse class="st2" cx="862.8" cy="123.2" rx="10.9" ry="19.7"/>
<path class="st2" d="M840.3,21.3c-20,0-38.3,37.6-49.3,20.8c-6.5,10-9.9,21.7-9.9,33.7c0,33.6,26.4,60.8,59,60.8s59-27.2,59-60.8
	c0-11.7-3.3-23.1-9.5-33C878.7,59.1,860.1,21.2,840.3,21.3z"/>
<path class="st3" d="M840.7,68.9c19.7,0,38.1-9.8,49-26.1c-16.7-27.4-52.4-36-79.8-19.3c-7.7,4.7-14.1,11.1-18.9,18.6
	C802,58.8,820.7,68.9,840.7,68.9z"/>
<ellipse transform="matrix(0.6784 -0.7347 0.7347 0.6784 188.4001 651.1725)" class="st4" cx="838" cy="110.4" rx="7.1" ry="4.1"/>
<ellipse transform="matrix(0.6784 -0.7347 0.7347 0.6784 190.3457 655.2471)" class="st4" cx="843.6" cy="110.2" rx="4.1" ry="7.1"/>
<ellipse transform="matrix(0.3017 -0.9534 0.9534 0.3017 475.6608 840.3412)" class="st3" cx="811.5" cy="95.5" rx="15.1" ry="16.7"/>
<ellipse transform="matrix(0.9333 -0.359 0.359 0.9333 23.8507 319.2253)" class="st3" cx="871.5" cy="95.4" rx="16.7" ry="15.1"/>
<ellipse transform="matrix(0.3017 -0.9534 0.9534 0.3017 475.4067 840.7426)" class="st4" cx="811.6" cy="95.8" rx="10.2" ry="11.3"/>
<ellipse transform="matrix(0.9974 -7.270916e-02 7.270916e-02 0.9974 -4.652 63.6223)" class="st4" cx="871.5" cy="95.7" rx="11.3" ry="10.2"/>
<ellipse transform="matrix(0.757 -0.6534 0.6534 0.757 186.0146 577.0005)" class="st5" cx="868.8" cy="38.4" rx="8" ry="11.6"/>
<path class="st0" d="M1407.5,47.7c-5.7-12.9-20.6-34.9-57-42.7c-45-9.7-71.2,7.3-80.8,16c-14.4,12.2-22.7,30.2-22.7,49.1v28.2
	c0,14.5,4.9,28.6,13.9,40c0.1,6.2,34.9,26.6,29.7,38c-5,10.9-4,19,7.8,36.8c15.8,23.9-4.2,33.4,4.7,38.7
	c20.5,12.2,6.3,26.4,18.1,36.8c9.8,8.7,1.8-9.6,1.7-20.7c0-5.8,2.7-9.8-0.2-17.4c-2.4-6.5,4.3-17.7-2.7-22.1
	c-6.6-4.2,1.9-34.7,19.8-50.6c18.1-16.2,31.4-24.6,31.4-24.6s13.8-3.5,10.6-14.9c0,0,12.4-24.9,12.4-40V75c2.3-4.9,5.6-9.4,9.5-13.1
	C1408.2,57.9,1409.7,52.6,1407.5,47.7z"/>
<path class="st1" d="M1294.9,163.2c0-6.5-10.9-17.3-12.6-19c-4-3.4-6.2-7.4-6.2-11.7c0-13,20.9-23.5,46.8-23.5s46.8,10.5,46.8,23.5
	c0,6.6-5.4,12.6-14.2,16.8c-10.8,6.3-15.4,18.1-22,22.4c-9.7,6.3-13.1,16.4-17.6,21.8c-10.2,12.2-5.3,21.4-3.4,26.8
	c1.8,5.2,1.8,16,2.3,19.9c0.5,4.1,4.8,16.5,4.8,16.5s-8-4.9-8.7-12.3s1-8.3-6.1-27.5c-5.4-14.4-9.8-19.7-3.1-31.2
	S1294.9,170.2,1294.9,163.2z"/>
<ellipse transform="matrix(0.9752 -0.2215 0.2215 0.9752 6.9361 289.1095)" class="st2" cx="1292.5" cy="113.6" rx="27.7" ry="15.9"/>
<ellipse transform="matrix(0.1913 -0.9815 0.9815 0.1913 981.122 1418.0021)" class="st2" cx="1351.1" cy="113.6" rx="15.9" ry="27.7"/>
<ellipse class="st2" cx="1301.5" cy="124.6" rx="10.9" ry="19.7"/>
<ellipse class="st2" cx="1323.6" cy="124.2" rx="10.9" ry="19.7"/>
<ellipse class="st2" cx="1344.2" cy="123.2" rx="10.9" ry="19.7"/>
<path class="st2" d="M1322.9,24.7c-20,0-39.4,34.1-50.4,17.4c-6.5,10-9.9,21.7-9.9,33.7c0,33.6,26.4,60.8,59,60.8s59-27.2,59-60.8
	c0-11.7-3.3-23.1-9.5-33C1360.2,59.1,1342.6,24.7,1322.9,24.7z"/>
<path class="st3" d="M1322.2,68.9c19.7,0,38.1-9.8,49-26.1c-16.7-27.4-52.4-36-79.8-19.3c-7.7,4.7-14.1,11.1-18.9,18.6
	C1283.5,58.8,1302.2,68.9,1322.2,68.9z"/>
<ellipse transform="matrix(0.6784 -0.7347 0.7347 0.6784 343.2765 1004.9475)" class="st4" cx="1319.5" cy="110.4" rx="7.1" ry="4.1"/>
<ellipse transform="matrix(0.6784 -0.7347 0.7347 0.6784 345.2455 1008.9438)" class="st4" cx="1325.1" cy="110.1" rx="4.1" ry="7.1"/>
<ellipse transform="matrix(0.3017 -0.9534 0.9534 0.3017 811.8644 1299.4001)" class="st3" cx="1293" cy="95.5" rx="15.1" ry="16.7"/>
<ellipse transform="matrix(0.9333 -0.359 0.359 0.9333 55.9301 492.0527)" class="st3" cx="1352.9" cy="95.4" rx="16.7" ry="15.1"/>
<ellipse transform="matrix(0.3017 -0.9534 0.9534 0.3017 811.6047 1299.7858)" class="st4" cx="1293.1" cy="95.8" rx="10.2" ry="11.3"/>
<ellipse transform="matrix(0.9974 -7.270916e-02 7.270916e-02 0.9974 -3.3695 98.6404)" class="st4" cx="1353.2" cy="95.6" rx="11.3" ry="10.2"/>
<ellipse transform="matrix(0.757 -0.6534 0.6534 0.757 303.0154 891.6146)" class="st5" cx="1350.3" cy="38.4" rx="8" ry="11.6"/>
<path class="st0" d="M2129.8,47.7c-5.7-12.9-20.6-34.9-57-42.7c-45-9.7-71.2,7.3-80.8,16c-14.4,12.2-22.7,30.2-22.7,49.1v28.2
	c0,14.5,4.9,28.6,13.9,40c-2.1,3.4-3.9,6.8-4.3,9.6c-0.9,6.3,7.7,8.9,7.7,8.9s37.2,14.6,58.9,24.7c21.7,10.1,6,42.6-0.6,46.8
	c-7,4.5-0.2,15.7-2.7,22.1c-2.8,7.6-12.7,10.8-12.7,16.5c0,11.1-8.1,29.4,1.7,20.7c11.8-10.4,7.8-14.5,28.3-26.7
	c8.8-5.3,13.1-11.8,5.1-24.4c-1.9-3,0.8-12.6,24.2-29.2s16-22.4,11-33.3c-5.2-11.4-9.1-18.1-9-24.2c16.1-12.2,25.6-31.2,25.6-51.4
	V75c2.3-4.9,5.5-9.4,9.5-13.1C2130.5,57.9,2131.9,52.6,2129.8,47.7z"/>
<path class="st1" d="M2070.1,163.2c0-6.5,10.9-17.3,12.6-19c4-3.4,6.3-7.4,6.3-11.7c0-13-20.9-23.5-46.8-23.5s-46.8,10.5-46.8,23.5
	c0,6.6,5.4,12.6,14.2,16.8c10.8,6.3,30.1,14.4,36.7,18.7c9.7,6.3,16.7,14.3,21.2,19.6c10.2,12.2-14.7,36.7-16,42.3
	c-1.2,5.3,1.3,13.1,0.2,16.2s-11,16.4-11,16.4s16.8-9.6,17.5-17s-6-13.7,8.9-27.8s23.4-17.8,16.8-29.3S2070.1,170.2,2070.1,163.2z"
	/>
<ellipse transform="matrix(0.9752 -0.2215 0.2215 0.9752 24.815 448.952)" class="st2" cx="2014.2" cy="113.8" rx="27.7" ry="15.9"/>
<ellipse transform="matrix(0.1913 -0.9815 0.9815 0.1913 1564.6542 2126.405)" class="st2" cx="2072.8" cy="113.7" rx="15.9" ry="27.7"/>
<ellipse class="st2" cx="2023.2" cy="124.6" rx="10.9" ry="19.7"/>
<ellipse class="st2" cx="2045.3" cy="124.2" rx="10.9" ry="19.7"/>
<ellipse class="st2" cx="2065.9" cy="123.2" rx="10.9" ry="19.7"/>
<path class="st2" d="M2046.7,21.3c-20,0-41.5,37.5-52.5,20.8c-6.5,10-9.9,21.7-9.9,33.7c0,33.6,26.4,60.8,59,60.8
	c32.6,0,59-27.2,59-60.8c0-11.7-3.3-23.1-9.5-33C2081.9,59.1,2066.3,21.3,2046.7,21.3z"/>
<path class="st3" d="M2043.9,68.9c19.7,0,38-9.8,49-26.1c-10.5-16.7-28.8-27.8-49.6-27.8c-19.9,0.1-38.5,10.3-49.2,27.1
	C2005.2,58.8,2023.8,68.9,2043.9,68.9z"/>
<path class="st4" d="M2038.1,107.6c2.7-2.9,6.2-4,7.8-2.4c1.7,1.5,0.9,5.1-1.8,8c-2.7,2.9-6.2,4-7.8,2.4
	C2034.7,114,2035.5,110.5,2038.1,107.6z"/>
<path class="st4" d="M2041.5,105.3c1.5-1.7,5.1-0.9,8,1.8c2.9,2.7,4,6.2,2.4,7.8c-1.5,1.7-5.1,0.9-8-1.8
	C2041.1,110.5,2040,107,2041.5,105.3z"/>
<ellipse transform="matrix(0.3017 -0.9534 0.9534 0.3017 1315.7815 1987.4321)" class="st3" cx="2014.6" cy="95.5" rx="15.1" ry="16.7"/>
<ellipse transform="matrix(0.9333 -0.359 0.359 0.9333 104.032 751.1038)" class="st3" cx="2074.4" cy="95.4" rx="16.7" ry="15.1"/>
<ellipse transform="matrix(0.3017 -0.9534 0.9534 0.3017 1315.5277 1987.8501)" class="st4" cx="2014.8" cy="95.9" rx="10.2" ry="11.3"/>
<ellipse transform="matrix(0.9974 -7.270916e-02 7.270916e-02 0.9974 -1.4597 151.1098)" class="st4" cx="2074.8" cy="95.6" rx="11.3" ry="10.2"/>
<ellipse transform="matrix(0.757 -0.6534 0.6534 0.757 478.295 1363.1588)" class="st5" cx="2071.9" cy="38.5" rx="8" ry="11.6"/>
<path class="st0" d="M2370.5,47.7c-5.8-12.9-20.6-34.9-57-42.7c-45-9.7-71.1,7.3-80.8,16c-14.4,12.2-22.7,30.2-22.7,49.1v28.2
	c0,14.5,4.9,28.6,13.9,40c-4.4,12.6,7.2,17.1,7.2,17.1s15,4.7,36.4,20.9c19.1,14.5,24.8,47.8,18.2,52c-7,4.5,4.8,14,2.4,20.5
	c-2.9,7.6-7.9,12.4-7.9,18.2c-0.1,11.1-8.1,29.4,1.7,20.7c11.8-10.4-6.6-13.2,13.8-25.4c8.8-5.3,17.8-13.1,9.7-25.8
	c-1.9-3-14.7-13.4,8.6-29.9s16-22.4,11-33.3c-5.2-11.4,6.4-17.4,6.5-23.6c16.1-12.2,25.6-31.2,25.6-51.4V75
	c2.3-4.9,5.6-9.4,9.5-13.1C2371.2,57.9,2372.7,52.6,2370.5,47.7z"/>
<path class="st1" d="M2310.8,163.2c0-6.5,10.9-17.3,12.6-19c4-3.4,6.3-7.4,6.3-11.7c0-13-20.9-23.5-46.8-23.5s-46.8,10.5-46.8,23.5
	c0,6.6,5.4,12.6,14.2,16.8c10.9,6.3,7,4,13.6,8.3c9.7,6.3,20.5,20.1,25,25.5c10.2,12.2,4.6,41.2,3.3,46.8c-0.9,4.4-0.5,9,1.3,13.1
	c2.3,5.4-3.4,17.1-3.4,17.1s8.1-7.2,8.8-14.6s-5.4-23.4,4.2-37c11.9-16.7,23.4-17.8,16.7-29.3S2310.8,170.2,2310.8,163.2z"/>
<ellipse transform="matrix(0.9752 -0.2215 0.2215 0.9752 30.7962 502.2892)" class="st2" cx="2255" cy="113.8" rx="27.7" ry="15.9"/>
<ellipse transform="matrix(0.1913 -0.9815 0.9815 0.1913 1759.3519 2362.626)" class="st2" cx="2313.5" cy="113.6" rx="15.9" ry="27.7"/>
<ellipse class="st2" cx="2263.9" cy="124.6" rx="10.9" ry="19.7"/>
<ellipse class="st2" cx="2286" cy="124.2" rx="10.9" ry="19.7"/>
<ellipse class="st2" cx="2306.6" cy="123.2" rx="10.9" ry="19.7"/>
<path class="st2" d="M2286.1,21.3c-20,0-40.2,37.5-51.2,20.8c-6.5,10-9.9,21.7-9.9,33.7c0,33.6,26.4,60.8,59,60.8s59-27.2,59-60.8
	c0-11.7-3.3-23.1-9.5-33C2322.6,59.1,2305.8,21.3,2286.1,21.3z"/>
<path class="st3" d="M2284.6,68.9c19.7,0,38-9.8,49-26.1C2323.1,26.1,2304.8,15,2284,15c-19.9,0.1-38.5,10.3-49.2,27.1
	C2245.9,58.8,2264.6,68.9,2284.6,68.9z"/>
<ellipse transform="matrix(0.6784 -0.7347 0.7347 0.6784 652.8464 1711.9635)" class="st4" cx="2281.9" cy="110.3" rx="7.1" ry="4.1"/>
<ellipse transform="matrix(0.6784 -0.7347 0.7347 0.6784 654.8021 1715.9335)" class="st4" cx="2287.4" cy="110" rx="4.1" ry="7.1"/>
<ellipse transform="matrix(0.3017 -0.9534 0.9534 0.3017 1483.8948 2217.0259)" class="st3" cx="2255.4" cy="95.5" rx="15.1" ry="16.7"/>
<ellipse transform="matrix(0.9333 -0.359 0.359 0.9333 120.0856 837.5533)" class="st3" cx="2315.2" cy="95.4" rx="16.7" ry="15.1"/>
<ellipse transform="matrix(0.3017 -0.9534 0.9534 0.3017 1483.7321 2217.3955)" class="st4" cx="2255.6" cy="95.8" rx="10.2" ry="11.3"/>
<ellipse transform="matrix(0.9974 -7.270916e-02 7.270916e-02 0.9974 -0.8227 168.6117)" class="st4" cx="2315.5" cy="95.6" rx="11.3" ry="10.2"/>
<ellipse transform="matrix(0.757 -0.6534 0.6534 0.757 536.8568 1520.4441)" class="st5" cx="2312.7" cy="38.4" rx="8" ry="11.6"/>
<path class="st0" d="M3815,47.7c-5.7-12.9-20.6-34.9-57-42.7c-45-9.7-71.1,7.3-80.8,16c-14.4,12.2-22.7,30.2-22.7,49.1v28.2
	c0,14.5,4.9,28.6,13.9,40c-4.4,12.6,7.2,17.1,7.2,17.1s15,4.7,36.4,20.9c19.1,14.5,24.8,47.8,18.2,52c-7,4.5,4.8,14,2.4,20.5
	c-2.9,7.6-7.9,12.4-7.9,18.2c-0.1,11.1-8.1,29.4,1.7,20.7c11.8-10.4-6.6-13.2,13.8-25.4c8.8-5.3,17.8-13.1,9.7-25.8
	c-1.9-3-14.7-13.4,8.6-29.9s16-22.4,11-33.3c-5.2-11.4,6.4-17.4,6.5-23.6c16.1-12.2,25.6-31.2,25.6-51.4V75
	c2.3-4.9,5.6-9.4,9.5-13.1C3815.7,57.9,3817.1,52.6,3815,47.7z"/>
<path class="st1" d="M3755.3,163.2c0-6.5,10.9-17.3,12.6-19c4-3.4,6.2-7.4,6.2-11.7c0-13-20.9-23.5-46.8-23.5s-46.8,10.5-46.8,23.5
	c0,6.6,5.4,12.6,14.2,16.8c10.9,6.3,7,4,13.6,8.3c9.7,6.3,20.5,20.1,25,25.5c10.2,12.2,4.6,41.2,3.3,46.8c-0.9,4.4-0.5,9,1.3,13.1
	c2.3,5.4-3.4,17.1-3.4,17.1s8.1-7.2,8.8-14.6s-5.4-23.4,4.2-37c11.9-16.7,23.4-17.8,16.8-29.3S3755.3,170.2,3755.3,163.2z"/>
<ellipse transform="matrix(0.9752 -0.2215 0.2215 0.9752 66.6238 822.2326)" class="st2" cx="3699.5" cy="114.1" rx="27.7" ry="15.9"/>
<ellipse transform="matrix(0.1913 -0.9815 0.9815 0.1913 2927.3152 3780.3582)" class="st2" cx="3757.8" cy="113.7" rx="15.9" ry="27.7"/>
<ellipse class="st2" cx="3708.4" cy="124.6" rx="10.9" ry="19.7"/>
<ellipse class="st2" cx="3730.5" cy="124.2" rx="10.9" ry="19.7"/>
<ellipse class="st2" cx="3751.1" cy="123.2" rx="10.9" ry="19.7"/>
<path class="st2" d="M3727.3,17.4c-20,0-36.9,41.4-47.9,24.7c-6.5,10-9.9,21.7-9.9,33.7c0,33.6,26.4,60.8,59,60.8s59-27.2,59-60.8
	c0-11.7-3.3-23.1-9.5-33C3767.1,59.1,3746.9,17.4,3727.3,17.4z"/>
<path class="st3" d="M3729.1,68.9c19.7,0,38.1-9.8,49-26.1c-16.7-27.4-52.4-36-79.8-19.3c-7.7,4.7-14.1,11.1-18.9,18.6
	C3690.4,58.8,3709,68.9,3729.1,68.9z"/>
<ellipse transform="matrix(0.6784 -0.7347 0.7347 0.6784 1117.3059 2773.0708)" class="st4" cx="3726.2" cy="110.3" rx="7.1" ry="4.1"/>
<ellipse transform="matrix(0.6784 -0.7347 0.7347 0.6784 1119.3536 2777.0957)" class="st4" cx="3731.8" cy="110" rx="4.1" ry="7.1"/>
<ellipse transform="matrix(0.3017 -0.9534 0.9534 0.3017 2492.564 3594.3755)" class="st3" cx="3700" cy="95.6" rx="15.1" ry="16.7"/>
<ellipse transform="matrix(0.9333 -0.359 0.359 0.9333 216.3804 1356.1001)" class="st3" cx="3759.6" cy="95.4" rx="16.7" ry="15.1"/>
<ellipse transform="matrix(0.3017 -0.9534 0.9534 0.3017 2492.4509 3594.6367)" class="st4" cx="3700.1" cy="95.8" rx="10.2" ry="11.3"/>
<ellipse transform="matrix(0.9974 -7.270916e-02 7.270916e-02 0.9974 3.0158 273.6518)" class="st4" cx="3760.2" cy="95.4" rx="11.3" ry="10.2"/>
<ellipse transform="matrix(0.757 -0.6534 0.6534 0.757 887.7637 2464.2676)" class="st5" cx="3757.1" cy="38.5" rx="8" ry="11.6"/>
<path class="st0" d="M2611.2,47.7c-5.7-12.9-20.6-34.9-57-42.7c-45-9.7-71.1,7.3-80.8,16c-14.4,12.2-22.7,30.2-22.7,49.1v28.2
	c0,14.5,4.9,28.6,13.9,40c-2.1,3.4,11,16.4,11,16.4s6.5,12.6,25.3,27.1c18.9,14.7,32.1,42.3,25.5,46.4c-7,4.5,11.7,15.7,9.3,22.1
	c-2.9,7.6-4.2,12.7-4.3,18.5c0,11.1-5,30.4,4.8,21.7c11.8-10.4-11-19.3,9.5-31.5c8.8-5.3,2.3-13.2-5.7-25.9
	c-1.9-3-5.1-10.8,18.2-27.4s11.8-21.5,6.9-32.4c-5.2-11.4,7.1-17.5,7.3-23.7c16.1-12.2,25.6-31.2,25.6-51.4V75
	c2.3-4.9,5.6-9.4,9.5-13.1C2612,57.9,2613.4,52.6,2611.2,47.7z"/>
<path class="st1" d="M2551.6,165.1c0.2-6.2,10.9-19.2,12.6-20.8c4-3.4,6.2-7.4,6.2-11.7c0-13-20.9-23.5-46.8-23.5
	s-46.8,10.5-46.8,23.5c0,6.5,11.2,14.9,13.7,16.6c7.1,4.9,5.5,16,28.9,33.4c11.5,8.6,13.2,37.2,11.9,42.8c-1.2,5.3,2.2,11.6,6.6,17
	c4.6,5.7,1.1,13,0.7,15.4c-0.3,1.5,8.2-8.6,4.3-12.7c-10.3-10.9-9.1-28.8-3.1-34.2C2567.4,185.9,2551.2,177.6,2551.6,165.1z"/>
<ellipse transform="matrix(0.9752 -0.2215 0.2215 0.9752 36.7746 555.6033)" class="st2" cx="2495.7" cy="113.8" rx="27.7" ry="15.9"/>
<ellipse transform="matrix(0.1913 -0.9815 0.9815 0.1913 1953.9557 2598.8979)" class="st2" cx="2554.1" cy="113.7" rx="15.9" ry="27.7"/>
<ellipse class="st2" cx="2504.7" cy="124.6" rx="10.9" ry="19.7"/>
<ellipse class="st2" cx="2526.8" cy="124.2" rx="10.9" ry="19.7"/>
<ellipse class="st2" cx="2547.4" cy="123.2" rx="10.9" ry="19.7"/>
<path class="st2" d="M2526.8,21.3c-20,0-40.1,37.5-51.1,20.8c-6.5,10-9.9,21.7-9.9,33.7c0,33.6,26.4,60.8,59,60.8s59-27.2,59-60.8
	c0-11.7-3.3-23.1-9.5-33C2563.4,59.1,2546.4,21.3,2526.8,21.3z"/>
<path class="st3" d="M2525.4,68.9c19.7,0,38-9.8,49-26.1c-10.5-16.7-28.8-27.8-49.6-27.8c-19.9,0.1-38.5,10.3-49.2,27.1
	C2486.6,58.8,2505.3,68.9,2525.4,68.9z"/>
<ellipse transform="matrix(0.6784 -0.7347 0.7347 0.6784 730.2272 1888.7797)" class="st4" cx="2522.6" cy="110.3" rx="7.1" ry="4.1"/>
<ellipse transform="matrix(0.6784 -0.7347 0.7347 0.6784 732.2007 1892.7734)" class="st4" cx="2528.1" cy="110" rx="4.1" ry="7.1"/>
<ellipse transform="matrix(0.3017 -0.9534 0.9534 0.3017 1652.0225 2446.603)" class="st3" cx="2496.2" cy="95.5" rx="15.1" ry="16.7"/>
<ellipse transform="matrix(0.9333 -0.359 0.359 0.9333 136.0989 923.9818)" class="st3" cx="2555.9" cy="95.5" rx="16.7" ry="15.1"/>
<ellipse transform="matrix(0.3017 -0.9534 0.9534 0.3017 1651.957 2446.9512)" class="st4" cx="2496.4" cy="95.7" rx="10.2" ry="11.3"/>
<ellipse transform="matrix(0.9974 -7.270916e-02 7.270916e-02 0.9974 -0.178 186.1207)" class="st4" cx="2556.3" cy="95.5" rx="11.3" ry="10.2"/>
<ellipse transform="matrix(0.757 -0.6534 0.6534 0.757 595.2925 1677.7734)" class="st5" cx="2553.4" cy="38.5" rx="8" ry="11.6"/>
<path class="st0" d="M3574.2,47.7c-5.7-12.9-20.6-34.9-57-42.7c-45-9.7-71.1,7.3-80.8,16c-14.4,12.2-22.7,30.2-22.7,49.1v28.2
	c0,14.5,4.9,28.6,13.9,40c-2.1,3.4,11,16.4,11,16.4s6.5,12.6,25.3,27.1c18.9,14.7,32.1,42.3,25.5,46.4c-7,4.5,11.7,15.7,9.3,22.1
	c-2.9,7.6-4.3,12.7-4.3,18.5c-0.1,11.1-5,30.4,4.8,21.7c11.8-10.4-11-19.3,9.5-31.5c8.8-5.3,2.3-13.2-5.7-25.9
	c-1.9-3-5.1-10.8,18.2-27.4s11.8-21.5,6.9-32.4c-5.2-11.4,7.1-17.5,7.3-23.7c16.1-12.2,25.6-31.2,25.6-51.4V75
	c2.3-4.9,5.6-9.4,9.5-13.1C3574.9,57.9,3576.4,52.6,3574.2,47.7z"/>
<path class="st1" d="M3514.5,165.1c0.2-6.2,10.9-19.2,12.6-20.8c4-3.4,6.2-7.4,6.2-11.7c0-13-20.9-23.5-46.8-23.5
	s-46.8,10.5-46.8,23.5c0,6.5,11.2,14.9,13.7,16.6c7.1,4.9,5.5,16,28.9,33.4c11.5,8.6,13.2,37.2,11.9,42.8c-1.2,5.3,2.2,11.6,6.6,17
	c4.6,5.7,1.1,13,0.7,15.4c-0.3,1.5,8.2-8.6,4.3-12.7c-10.3-10.9-9.1-28.8-3.1-34.2C3530.4,185.9,3514.1,177.6,3514.5,165.1z"/>
<path class="st0" d="M3092.7,47.7c-5.7-12.9-20.6-34.9-57-42.7c-45-9.7-71.1,7.3-80.8,16c-14.4,12.2-22.7,30.2-22.7,49.1v28.2
	c0,14.5,4.9,28.6,13.9,40c0.1,6.2,9.4,24.3,4.1,35.7c-5,10.9-12.4,16.7,11,33.3s26.1,26.2,24.2,29.2c-8,12.7-3.7,19.2,5.1,24.5
	c20.5,12.2,16.5,16.3,28.3,26.7c9.8,8.7,1.8-9.6,1.7-20.7c0-5.8-9.8-8.9-12.7-16.5c-2.4-6.5,4.3-17.7-2.7-22.1
	c-6.6-4.2-22.3-36.7-0.6-46.8s58.9-24.7,58.9-24.7s8.6-2.6,7.7-8.9c-0.4-2.8-2.1-6.2-4.3-9.6c0,0,12.4-24.9,12.4-40V75
	c2.3-4.9,5.6-9.4,9.5-13.1C3093.4,57.9,3094.9,52.6,3092.7,47.7z"/>
<path class="st1" d="M2980.1,163.2c0-6.5-10.9-17.3-12.6-19c-4-3.4-6.3-7.4-6.3-11.7c0-13,20.9-23.5,46.8-23.5s46.8,10.5,46.8,23.5
	c0,6.6-5.4,12.6-14.2,16.8c-10.8,6.3-30.1,14.4-36.6,18.7c-9.7,6.3-16.7,14.3-21.2,19.6c-10.2,12.2,14.7,36.7,16,42.3
	c1.2,5.3-1.3,13.1-0.2,16.2s11,16.4,11,16.4s-16.8-9.6-17.5-17s5.9-13.7-8.9-27.8s-23.4-17.8-16.8-29.3S2980.1,170.2,2980.1,163.2z"
	/>
<ellipse transform="matrix(0.9752 -0.2215 0.2215 0.9752 48.7421 662.3671)" class="st2" cx="2977.7" cy="113.9" rx="27.7" ry="15.9"/>
<ellipse transform="matrix(0.1913 -0.9815 0.9815 0.1913 2343.7793 3071.9565)" class="st2" cx="3036.1" cy="113.6" rx="15.9" ry="27.7"/>
<ellipse class="st2" cx="2986.7" cy="124.6" rx="10.9" ry="19.7"/>
<ellipse class="st2" cx="3008.8" cy="124.2" rx="10.9" ry="19.7"/>
<ellipse class="st2" cx="3029.4" cy="123.2" rx="10.9" ry="19.7"/>
<path class="st2" d="M3006.8,21.3c-20,0-38.1,37.5-49.1,20.8c-6.5,10-9.9,21.7-9.9,33.7c0,33.6,26.4,60.8,59,60.8s59-27.2,59-60.8
	c0-11.7-3.3-23.1-9.5-33C3045.4,59.1,3026.5,21.3,3006.8,21.3z"/>
<path class="st3" d="M3007.4,68.9c19.7,0,38-9.8,49-26.1c-10.5-16.7-28.8-27.8-49.6-27.8c-19.9,0.1-38.5,10.3-49.2,27.1
	C2968.7,58.8,2987.4,68.9,3007.4,68.9z"/>
<ellipse transform="matrix(0.6784 -0.7347 0.7347 0.6784 885.2415 2242.9092)" class="st4" cx="3004.6" cy="110.3" rx="7.1" ry="4.1"/>
<ellipse transform="matrix(0.6784 -0.7347 0.7347 0.6784 887.2891 2246.9343)" class="st4" cx="3010.2" cy="110" rx="4.1" ry="7.1"/>
<ellipse transform="matrix(0.3017 -0.9534 0.9534 0.3017 1988.6255 2906.3169)" class="st3" cx="2978.3" cy="95.6" rx="15.1" ry="16.7"/>
<ellipse transform="matrix(0.9333 -0.359 0.359 0.9333 168.2294 1097.0176)" class="st3" cx="3037.9" cy="95.5" rx="16.7" ry="15.1"/>
<ellipse transform="matrix(0.3017 -0.9534 0.9534 0.3017 1988.4139 2906.5083)" class="st4" cx="2978.4" cy="95.8" rx="10.2" ry="11.3"/>
<ellipse transform="matrix(0.9974 -7.270916e-02 7.270916e-02 0.9974 1.0976 221.1681)" class="st4" cx="3038.3" cy="95.5" rx="11.3" ry="10.2"/>
<ellipse transform="matrix(0.757 -0.6534 0.6534 0.757 712.3998 1992.7018)" class="st5" cx="3035.4" cy="38.5" rx="8" ry="11.6"/>
<path class="st0" d="M2852,47.7c-5.7-12.9-20.6-34.9-57-42.7c-45-9.7-71.1,7.3-80.8,16c-14.4,12.2-22.7,30.2-22.7,49.1v28.2
	c0,14.5,4.9,28.6,13.9,40c0.1,6.2,34.9,26.6,29.7,38c-5,10.9-4,19,7.8,36.8c15.9,23.9-4.2,33.4,4.7,38.7
	c20.5,12.2,6.3,26.4,18.1,36.8c9.8,8.7,1.8-9.6,1.7-20.7c0-5.8,2.6-9.8-0.2-17.4c-2.4-6.5,4.3-17.7-2.7-22.1
	c-6.6-4.2,1.9-34.7,19.8-50.6c18.1-16.2,31.4-24.6,31.4-24.6s13.8-3.5,10.6-14.9c0,0,12.4-24.9,12.4-40V75c2.3-4.9,5.6-9.4,9.5-13.1
	C2852.7,57.9,2854.2,52.6,2852,47.7z"/>
<path class="st1" d="M2739.4,163.2c0-6.5-10.9-17.3-12.6-19c-4-3.4-6.3-7.4-6.3-11.7c0-13,20.9-23.5,46.8-23.5s46.8,10.5,46.8,23.5
	c0,6.6-5.4,12.6-14.2,16.8c-10.8,6.3-15.4,18.1-22,22.4c-9.7,6.3-13.1,16.4-17.6,21.8c-10.2,12.2-5.3,21.4-3.4,26.8
	c1.9,5.2,1.8,16,2.3,19.9c0.5,4.1,4.8,16.5,4.8,16.5s-8-4.9-8.7-12.3s1-8.3-6.1-27.5c-5.4-14.4-9.8-19.7-3.1-31.2
	S2739.4,170.2,2739.4,163.2z"/>
<ellipse transform="matrix(0.9752 -0.2215 0.2215 0.9752 42.7682 609.0508)" class="st2" cx="2737" cy="113.8" rx="27.7" ry="15.9"/>
<ellipse transform="matrix(0.1913 -0.9815 0.9815 0.1913 2149.114 2835.7439)" class="st2" cx="2795.5" cy="113.7" rx="15.9" ry="27.7"/>
<ellipse class="st2" cx="2746" cy="124.6" rx="10.9" ry="19.7"/>
<ellipse class="st2" cx="2768.1" cy="124.2" rx="10.9" ry="19.7"/>
<ellipse class="st2" cx="2788.7" cy="123.2" rx="10.9" ry="19.7"/>
<path class="st2" d="M2766.1,21.3c-20,0-38.2,37.5-49.1,20.8c-6.5,10-9.9,21.7-9.9,33.7c0,33.6,26.4,60.8,59,60.8s59-27.2,59-60.8
	c0-11.7-3.3-23.1-9.5-33C2804.7,59.1,2785.8,21.3,2766.1,21.3z"/>
<path class="st3" d="M2766.6,68.9c19.7,0,38-9.8,49-26.1C2805.1,26.1,2786.8,15,2766,15c-19.9,0.1-38.4,10.3-49.1,27.1
	C2728,58.8,2746.6,68.9,2766.6,68.9z"/>
<ellipse transform="matrix(0.6784 -0.7347 0.7347 0.6784 807.8737 2065.991)" class="st4" cx="2763.8" cy="110.2" rx="7.1" ry="4.1"/>
<ellipse transform="matrix(0.6784 -0.7347 0.7347 0.6784 809.8857 2070.0925)" class="st4" cx="2769.5" cy="110" rx="4.1" ry="7.1"/>
<ellipse transform="matrix(0.3017 -0.9534 0.9534 0.3017 1820.5333 2676.7334)" class="st3" cx="2737.6" cy="95.6" rx="15.1" ry="16.7"/>
<ellipse transform="matrix(0.9333 -0.359 0.359 0.9333 152.1845 1010.6085)" class="st3" cx="2797.2" cy="95.5" rx="16.7" ry="15.1"/>
<ellipse transform="matrix(0.3017 -0.9534 0.9534 0.3017 1820.4202 2677.0107)" class="st4" cx="2737.7" cy="95.8" rx="10.2" ry="11.3"/>
<ellipse transform="matrix(0.9974 -7.270916e-02 7.270916e-02 0.9974 0.4606 203.6662)" class="st4" cx="2797.6" cy="95.5" rx="11.3" ry="10.2"/>
<ellipse transform="matrix(0.757 -0.6534 0.6534 0.757 653.9256 1835.4371)" class="st5" cx="2794.7" cy="38.5" rx="8" ry="11.6"/>
<path class="st0" d="M3333.5,47.7c-5.7-12.9-20.6-34.9-57-42.7c-45-9.7-71.1,7.3-80.8,16c-14.4,12.2-22.7,30.2-22.7,49.1v28.2
	c0,14.5,4.9,28.6,13.9,40c0.1,6.2,34.9,26.6,29.7,38c-5,10.9-4,19,7.8,36.8c15.9,23.9-4.2,33.4,4.7,38.7
	c20.5,12.2,6.3,26.4,18.1,36.8c9.8,8.7,1.8-9.6,1.7-20.7c0-5.8,2.6-9.8-0.2-17.4c-2.4-6.5,4.3-17.7-2.7-22.1
	c-6.6-4.2,1.9-34.7,19.8-50.6c18.1-16.2,31.4-24.6,31.4-24.6s13.8-3.5,10.6-14.9c0,0,12.4-24.9,12.4-40V75c2.3-4.9,5.6-9.4,9.5-13.1
	C3334.2,57.9,3335.6,52.6,3333.5,47.7z"/>
<path class="st1" d="M3220.9,163.2c0-6.5-10.9-17.3-12.6-19c-4-3.4-6.2-7.4-6.2-11.7c0-13,20.9-23.5,46.8-23.5s46.8,10.5,46.8,23.5
	c0,6.6-5.4,12.6-14.2,16.8c-10.8,6.3-15.4,18.1-22,22.4c-9.7,6.3-13.1,16.4-17.6,21.8c-10.2,12.2-5.3,21.4-3.4,26.8
	c1.9,5.2,1.8,16,2.3,19.9c0.5,4.1,4.8,16.5,4.8,16.5s-8-4.9-8.7-12.3s1-8.3-6.1-27.5c-5.4-14.4-9.8-19.7-3.1-31.2
	S3220.9,170.2,3220.9,163.2z"/>
<ellipse transform="matrix(0.9752 -0.2215 0.2215 0.9752 54.6995 715.6885)" class="st2" cx="3218.4" cy="114" rx="27.7" ry="15.9"/>
<ellipse transform="matrix(0.1913 -0.9815 0.9815 0.1913 2538.4434 3308.3406)" class="st2" cx="3276.9" cy="113.7" rx="15.9" ry="27.7"/>
<ellipse class="st2" cx="3227.4" cy="124.6" rx="10.9" ry="19.7"/>
<ellipse class="st2" cx="3249.6" cy="124.2" rx="10.9" ry="19.7"/>
<ellipse class="st2" cx="3270.2" cy="123.2" rx="10.9" ry="19.7"/>
<path class="st2" d="M3247.5,15c-20,0-38.1,43.8-49.1,27.1c-6.5,10-9.9,21.7-9.9,33.7c0,33.6,26.4,60.8,59,60.8s59-27.2,59-60.8
	c0-11.7-3.3-23.1-9.5-33C3286.2,59.1,3267.2,15,3247.5,15z"/>
<path class="st3" d="M3248.1,68.9c19.7,0,38-9.8,49-26.1c-10.5-16.7-28.8-27.8-49.6-27.8c-19.9,0.1-38.5,10.3-49.1,27.1
	C3209.4,58.8,3228.1,68.9,3248.1,68.9z"/>
<ellipse transform="matrix(0.6784 -0.7347 0.7347 0.6784 962.6401 2419.749)" class="st4" cx="3245.3" cy="110.3" rx="7.1" ry="4.1"/>
<ellipse transform="matrix(0.6784 -0.7347 0.7347 0.6784 964.6876 2423.7739)" class="st4" cx="3250.9" cy="110" rx="4.1" ry="7.1"/>
<ellipse transform="matrix(0.3017 -0.9534 0.9534 0.3017 2156.6194 3135.8147)" class="st3" cx="3219" cy="95.7" rx="15.1" ry="16.7"/>
<ellipse transform="matrix(0.9333 -0.359 0.359 0.9333 184.3144 1183.4484)" class="st3" cx="3278.7" cy="95.4" rx="16.7" ry="15.1"/>
<ellipse transform="matrix(0.3017 -0.9534 0.9534 0.3017 2156.6187 3136.0542)" class="st4" cx="3219.2" cy="95.8" rx="10.2" ry="11.3"/>
<ellipse transform="matrix(0.9974 -7.270916e-02 7.270916e-02 0.9974 1.7358 238.6846)" class="st4" cx="3279.3" cy="95.5" rx="11.3" ry="10.2"/>
<ellipse transform="matrix(0.757 -0.6534 0.6534 0.757 770.9231 2150.0518)" class="st5" cx="3276.2" cy="38.5" rx="8" ry="11.6"/>
<ellipse transform="matrix(0.9752 -0.2215 0.2215 0.9752 60.6807 769.0259)" class="st2" cx="3459.3" cy="114" rx="27.7" ry="15.9"/>
<ellipse transform="matrix(0.1913 -0.9815 0.9815 0.1913 2733.0078 3544.6274)" class="st2" cx="3517.6" cy="113.8" rx="15.9" ry="27.7"/>
<ellipse class="st2" cx="3468.2" cy="124.6" rx="10.9" ry="19.7"/>
<ellipse class="st2" cx="3490.3" cy="124.2" rx="10.9" ry="19.7"/>
<ellipse class="st2" cx="3510.9" cy="123.2" rx="10.9" ry="19.7"/>
<path class="st2" d="M3488.3,15c-20,0-38.1,43.8-49.1,27.1c-6.5,10-9.9,21.7-9.9,33.7c0,33.6,26.4,60.8,59,60.8s59-27.2,59-60.8
	c0-11.7-3.3-23.1-9.5-33C3526.9,59.1,3507.9,15,3488.3,15z"/>
<path class="st3" d="M3488.9,68.9c19.7,0,38-9.8,49-26.1c-10.5-16.7-28.8-27.8-49.6-27.8c-19.9,0.1-38.5,10.3-49.1,27.1
	C3450.2,58.8,3468.8,68.9,3488.9,68.9z"/>
<ellipse transform="matrix(0.6784 -0.7347 0.7347 0.6784 1040.1431 2596.5991)" class="st4" cx="3486" cy="110.2" rx="7.1" ry="4.1"/>
<ellipse transform="matrix(0.6784 -0.7347 0.7347 0.6784 1042.1646 2600.7)" class="st4" cx="3491.7" cy="109.9" rx="4.1" ry="7.1"/>
<ellipse transform="matrix(0.3017 -0.9534 0.9534 0.3017 2324.864 3365.3604)" class="st3" cx="3459.8" cy="95.6" rx="15.1" ry="16.7"/>
<ellipse transform="matrix(0.9333 -0.359 0.359 0.9333 200.3281 1269.8766)" class="st3" cx="3519.4" cy="95.5" rx="16.7" ry="15.1"/>
<ellipse transform="matrix(0.3017 -0.9534 0.9534 0.3017 2324.6365 3365.5574)" class="st4" cx="3459.9" cy="95.8" rx="10.2" ry="11.3"/>
<ellipse transform="matrix(0.9974 -7.270916e-02 7.270916e-02 0.9974 2.3728 256.1865)" class="st4" cx="3520" cy="95.5" rx="11.3" ry="10.2"/>
<ellipse transform="matrix(0.757 -0.6534 0.6534 0.757 829.3962 2307.3181)" class="st5" cx="3516.9" cy="38.5" rx="8" ry="11.6"/>
<polyline class="st6" points="119.4,301.1 0,301.1 0,0 "/>
<path class="st0" d="M1648.3,47.7c-5.7-12.9-20.6-34.9-57-42.7c-45-9.7-71.1,7.3-80.8,16c-14.4,12.2-22.7,30.2-22.7,49.1v28.2
	c0,14.5,4.9,28.6,13.9,40c-2.1,3.4,11,16.4,11,16.4s6.5,12.6,25.3,27.1c18.9,14.7,32.1,42.3,25.5,46.4c-7,4.5,11.7,15.7,9.3,22.1
	c-2.9,7.6-4.2,12.7-4.3,18.5c0,11.1-5,30.4,4.8,21.7c11.8-10.4-11-19.3,9.5-31.5c8.8-5.3,2.3-13.2-5.7-25.9
	c-1.9-3-5.1-10.8,18.2-27.4s11.8-21.5,6.9-32.4c-5.2-11.4,7.1-17.5,7.3-23.7c16.1-12.2,25.6-31.2,25.6-51.4V75
	c2.3-4.9,5.6-9.4,9.5-13.1C1649.1,57.9,1650.5,52.6,1648.3,47.7z"/>
<path class="st1" d="M1588.7,165.1c0.2-6.2,10.9-19.2,12.6-20.8c4-3.4,6.2-7.4,6.2-11.7c0-13-20.9-23.5-46.8-23.5
	s-46.8,10.5-46.8,23.5c0,6.5,11.2,14.9,13.7,16.6c7.1,4.9,5.5,16,28.9,33.4c11.5,8.6,13.2,37.2,11.9,42.8c-1.2,5.3,2.2,11.6,6.6,17
	c4.6,5.7,1.1,13,0.7,15.4c-0.3,1.5,8.2-8.6,4.3-12.7c-10.3-10.9-9.1-28.8-3.1-34.2C1604.5,185.9,1588.3,177.6,1588.7,165.1z"/>
<ellipse transform="matrix(0.9752 -0.2215 0.2215 0.9752 12.8607 342.3196)" class="st2" cx="1532.8" cy="113.8" rx="27.7" ry="15.9"/>
<ellipse transform="matrix(0.1913 -0.9815 0.9815 0.1913 1175.3008 1653.7484)" class="st2" cx="1591.2" cy="113.6" rx="15.9" ry="27.7"/>
<ellipse class="st2" cx="1541.8" cy="124.6" rx="10.9" ry="19.7"/>
<ellipse class="st2" cx="1563.9" cy="124.2" rx="10.9" ry="19.7"/>
<ellipse class="st2" cx="1584.5" cy="123.2" rx="10.9" ry="19.7"/>
<path class="st2" d="M1563.8,21.9c-20,0-40,36.9-51,20.2c-6.5,10-9.9,21.7-9.9,33.7c0,33.6,26.4,60.8,59,60.8s59-27.2,59-60.8
	c0-11.7-3.3-23.1-9.5-33C1600.5,59.1,1583.4,21.9,1563.8,21.9z"/>
<path class="st3" d="M1562.5,68.9c19.7,0,38-9.8,49-26.1C1601,26.1,1582.7,15,1561.9,15c-19.9,0.1-38.5,10.3-49.2,27.1
	C1523.7,58.8,1542.4,68.9,1562.5,68.9z"/>
<ellipse transform="matrix(0.6784 -0.7347 0.7347 0.6784 420.5555 1181.3347)" class="st4" cx="1559.6" cy="110.3" rx="7.1" ry="4.1"/>
<ellipse transform="matrix(0.6784 -0.7347 0.7347 0.6784 422.5289 1185.3285)" class="st4" cx="1565.2" cy="110" rx="4.1" ry="7.1"/>
<ellipse transform="matrix(0.3017 -0.9534 0.9534 0.3017 979.5255 1528.5952)" class="st3" cx="1533.3" cy="95.6" rx="15.1" ry="16.7"/>
<ellipse transform="matrix(0.9333 -0.359 0.359 0.9333 71.9127 578.2985)" class="st3" cx="1593.1" cy="95.5" rx="16.7" ry="15.1"/>
<ellipse transform="matrix(0.3017 -0.9534 0.9534 0.3017 979.5721 1528.9056)" class="st4" cx="1533.5" cy="95.7" rx="10.2" ry="11.3"/>
<ellipse transform="matrix(0.9974 -7.270916e-02 7.270916e-02 0.9974 -2.7267 116.1057)" class="st4" cx="1593.4" cy="95.5" rx="11.3" ry="10.2"/>
<ellipse transform="matrix(0.757 -0.6534 0.6534 0.757 361.3242 1048.6085)" class="st5" cx="1590.5" cy="38.5" rx="8" ry="11.6"/>
</svg>
