<?xml version="1.0" encoding="utf-8"?>
<!-- Generator: Adobe Illustrator 24.0.1, SVG Export Plug-In . SVG Version: 6.00 Build 0)  -->
<svg version="1.1" id="Calque_1" xmlns="http://www.w3.org/2000/svg" xmlns:xlink="http://www.w3.org/1999/xlink" x="0px" y="0px"
	 viewBox="0 0 970.4 603.6" style="enable-background:new 0 0 970.4 603.6;" xml:space="preserve">
<style type="text/css">
	.st0{fill:#B4813B;}
	.st1{fill:#0A0A0A;}
	.st2{fill:#212121;}
	.st3{fill:#C39049;}
	.st4{fill:#4C4C4C;}
	.st5{fill:#CD9A51;}
	.st6{fill:#222526;}
	.st7{fill:#0C0101;}
	.st8{fill:#C48A3F;}
	.st9{fill:#4F361B;}
	.st10{fill:#DFAC6A;}
</style>
<title>fond2Plan de travail 25</title>
<g id="Calque_9">
	<path class="st0" d="M151.4,158.8c2.2-6.3,27.5-17.4,32.9-17.9s25.4,7.1,26.5,9.4s2.9,10.9-2,11.2s-19.7-1.6-19.7-1.6
		s-8.2,8.4-14.4,10.2s-12.1,3.2-18.5,0.5C151.8,168.8,149.2,165.1,151.4,158.8z"/>
	<path class="st1" d="M169.2,139.3c0,0,16.1,23.2,19.1,25.1s-20.6,13.7-27.6,11c-2.6-1-10.3-4-10.4-12.9
		C150.2,150.4,167,140.5,169.2,139.3z"/>
	<ellipse transform="matrix(0.4302 -0.9027 0.9027 0.4302 -134.354 236.0589)" class="st2" cx="119.8" cy="224.5" rx="3" ry="9.3"/>
	<path class="st3" d="M147,215.8c1.4,9.3,0,22.1,6.8,27.3s25.1,4.4,29,0.8s13.5-11.1,13-27.7c-0.5-17,0.6-28.9-14.2-43.6
		s-21-17.2-21-17.2l-11.1,4.3"/>
	<path class="st1" d="M156.6,170.5c-1.4,4.4-9.4,21.3-9.6,30.7c-0.1,9.2-1,36.2,5.8,41.4s27.1,5.1,31,1.5s13.5-11.1,13-27.7
		c-0.6-17,0.6-28.9-14.2-43.6s-20.2-18.4-20.2-18.4L156.6,170.5z"/>
	<path class="st4" d="M147,211.3v-13.7c0,0,5.2-28.9,6.9-31.5s8.5-11.6,8.5-11.6l-12.2,44.2L147,211.3"/>
	<path class="st0" d="M162.9,215.3c0,0-3.3,3.1-0.6,12.2s-1.4,8.8-5.9,8.6s-13.1,8.6-13.1,8.6s3.5,18.6,0,20.1s-7.3,4.9-10.8,3.6
		s-3.3-3.5-4.1-6s-18.4-23.2-17.1-31.8s3.8-13.7,8.4-14.8s9.1-6.2,20.5-4.2S162.9,215.3,162.9,215.3z"/>
	<path class="st1" d="M111.5,220.2c12.3,2.3,14.5,2,17.8,10.5c1,2.6,25.7,3.7,30,3.1c6-0.9,14,11.3,17-3.2S156.6,207,156.6,207
		s-12.7,4-19.7,4C119.7,211,111.5,220.2,111.5,220.2z"/>
	<ellipse transform="matrix(0.4302 -0.9027 0.9027 0.4302 -124.3668 248.8887)" class="st2" cx="135" cy="223" rx="3" ry="9.3"/>
	<path class="st5" d="M170.9,218.3c0,0,13.1,5.7,15.8,14.8s-6.4,15.2-11,15s-18.1-4.9-18.1-4.9s3.5,18.6,0,20.1s-7.3,4.9-10.8,3.7
		s-3.3-3.5-4.1-6s-18.3-23.2-17.1-31.8s3.8-13.7,8.4-14.8s8.8-3.8,20.1-1.8S170.9,218.3,170.9,218.3z"/>
	<path class="st5" d="M91.5,164.3c0,0-27.1-19.6-30.7-33.6c-3.9-15.1-2.2-20,0-27.5s8-15.8,10.5-19.5c2.2-3.2,11.2-12.7,19.2-14.8
		s15.1-5.6,31-4.1c9.9,1,19.3,4.5,27.4,10.2c0,0,15.3,13.2,18.5,28.5c0.7,3.4,1.3,6.3,1.7,8.6c1.4,7.2,1.7,14.6,0.9,21.9
		c-0.3,2.9-0.7,5.8-1.4,8.7c-1.7,6.6-10,17-13.6,21.7s-17.5,14.4-22.4,16.3s-25.8,7.3-28.7,5.4s-3.9-9.2-5.8-12.9
		S91.5,164.3,91.5,164.3z"/>
	<path class="st6" d="M151.3,83.3c3.2,2.9,15.8,4,16,6.4s5,23.5,5.7,35.7c0.5,7.8-6.2,22.1-6.2,22.1l-19.4-24l-7.1,7.1l-3.5-6.7
		l1.7-3.2l-1.8,0.6c0,0,1.1-4.9-0.1-6.9s-10.5-6.7-12.6-6.6s6.1-4.7,6.1-4.7l-9.3-1.3l11-6.6l-15.1-0.9l6.4-2.7l32.3-10.2"/>
	<path class="st7" d="M36.9,144.1c5.9-2.8,5.9-18.4,5.9-18.4l-8.6,2.6c0,0,5.7-6.7,4.3-6.8c-6.2-0.5-11.1,7.6-10.9,6.7
		c0.9-3.8,7.7-14.1,7.7-14.1c-1.5-4.6-10.1,2.7-10,2c1-5.6,13.8-14.4,11.6-15c-2.4-0.6-8.5-11.3-7.1-9.8c3.7,3.9,12.2,6.9,12,5.7
		c-0.1-0.3-6.9-6.1-5.4-5.7c3.1,0.9,10.9-5.6,10.2-5.6c-4.9-0.4-17-16.8-17-16.8s8.1,6.7,22.5,5.7c8.8-0.6,8-2.7,8-2.7
		c-11.2-0.7-13.3-9-12.7-8.6c7.5,4.7,11.4,2.4,10.3,2.4c-3.4,0-18.8-14.6-17.5-13.6c2.2,1.7,6.2,1.5,9.8,1.6s16.4-2.2,19.5-4.1
		s13.7-7.1,15.8-8.2s15.5-2.7,15.5-2.7s-16-3.3-13.9-3.7c4.7-0.8,11.2-2,16.1-2.6c5.3-0.6,8.2,0.2,12.3,1.1s7.8,3.6,10.7,10.6
		c0,0,12.3-10.8,12.6-10.3c3.7,5.3,0.9,15.9,1.2,16c2.3,0.3,3.4-6.4,3.7-5.9c3,5.4-0.9,10.7,1.5,8.1s14.4-5.7,13.1-3.6
		S157.4,59,157.4,59s3.9-5.3,3.2-3.7s3,14.2,4,12.7c0.6-1,3.8-5.9,5.5-8.8c0.4,5.6,2.9,17.5,2.9,17.5s6.8,1.9,8,1
		c-1.3,1.9-7.4,6.1-5.9,5.7c1.6-0.4,11.9,6.6,9.6,5.3s-11.7,1.7-12.1,2.8s8.7,6,7.4,5.4s-15.6,0.5-15.6,0.5s7.6,3.7,6.5,3.8
		s-16.2-3.2-16.2-3.2l-4.1,7.3l-29.8-3.6c0,0,12.8-7.1,11-6.6c-3.6,1-26.2,6.7-26.2,6.7s-4.7,14.6-9.2,21.5
		c-4.5,6.9-7.9,5.5-7.7,5.2c0.5-0.8,3.3-4.6,0.2-12.6c-3.1,4.8-13,24.3-13.5,24.6l0.1-9.4c-3.7,1.8-4.9,13.5-4.9,13.5
		c-5.3-1.7-6.6-8.4-6.9-4.7c-0.1,1.4,1.5,2.6,2.8,6.3c2,6,9.2,13,9.2,13l-10-7.1l-0.4-0.9c-0.1,0.4-0.3,0.8-0.5,1.2
		c-3.8,7.5-6.8,7.6-6.4,6.7c2.5-5.6-3.3-16.8-3.3-16.8l-2.3,10.2c-3.4-3.1-1.2-3.5-4-1.3s-8.8,1.6-7,0.8s6-9.2,1.3-6.8
		s-10.3,1-10.3,1S31.1,146.9,36.9,144.1z"/>
	
		<ellipse transform="matrix(5.930640e-02 -0.9982 0.9982 5.930640e-02 20.6306 272.6924)" class="st5" cx="155" cy="125.4" rx="15.2" ry="9.2"/>
	<path class="st7" d="M86.3,142.4c-0.6,0-1-0.5-1-1c0-0.3,0.1-0.6,0.4-0.7c0.1-0.1,10.1-7.5,14.8-14.8c0.3-0.4,0.9-0.6,1.3-0.3
		c0.4,0.3,0.6,0.9,0.3,1.4c-4.9,7.6-14.9,15-15.3,15.3C86.7,142.3,86.5,142.4,86.3,142.4z"/>
	<path class="st8" d="M97.9,148.4l0.1-1l-1-0.3c0.7-3,1.5-4.8,2.4-5.5l1.3,1.5c-0.1,0.1-0.9,0.9-1.7,4.3L97.9,148.4z"/>
	<path class="st1" d="M101.8,159.4c-1.1,0-2.1-0.9-2.1-2c0-0.5,0-3.3,3.1-10.4c1.7-3.9,5.8-7.5,6-7.6c0.8-0.8,2.2-0.7,2.9,0.1
		c0,0,0.1,0.1,0.1,0.1c0.8,0.9,0.7,2.2-0.2,3c0,0-3.6,3.1-4.9,6.1c-2.7,6.2-2.8,8.5-2.8,8.6c0,1.1-0.9,2.1-2,2.1L101.8,159.4z"/>
	<path class="st9" d="M121,178.4c-0.1,0-0.2,0-0.3-0.1c-0.5-0.2-0.8-0.7-0.6-1.2c0.1-0.1,1.4-4,6-8.8c0.4-0.4,1-0.4,1.4,0
		c0.4,0.4,0.4,1,0,1.4c-4.3,4.5-5.5,8-5.5,8.1C121.8,178.1,121.4,178.4,121,178.4z"/>
	
		<ellipse transform="matrix(0.7071 -0.7071 0.7071 0.7071 -67.4313 132.6635)" class="st10" cx="126.4" cy="147.7" rx="8.8" ry="5.3"/>
	<path class="st5" d="M160.8,163.6c2.2-6.3,20.9-18.3,26.3-18.9s27.3,9.7,28.4,12.1s2.9,10.9-2,11.2s-19.8-1.7-19.8-1.7
		s-8.2,8.4-14.4,10.2s-9.8,0.8-16.2-1.9C158.8,172.8,158.6,169.9,160.8,163.6z"/>
	<path class="st1" d="M176.4,144.7c0,0,16.2,23.2,19.1,25.1s-20.5,13.7-27.5,11c-2.6-1-10.3-3.9-10.4-12.9
		C157.4,155.8,174.2,145.9,176.4,144.7z"/>
	<path class="st1" d="M126.6,219c12.3,2.3,27.8,15.7,31.1,24.2c1,2.6,14.8,5.5,19.1,4.9c6-0.9,14.5-4.4,17.5-18.9
		s-19.9-23.6-19.9-23.6s-20.4,5.7-27.4,5.7C129.8,211.3,126.6,219,126.6,219z"/>
	<path class="st0" d="M637.8,159.1c2.2-6.3,27.5-17.4,33-17.9s25.4,7.1,26.5,9.4s2.9,10.9-2,11.2s-19.7-1.7-19.7-1.7
		s-8.2,8.4-14.4,10.2s-12.1,3.2-18.5,0.5C638.2,169.1,635.5,165.4,637.8,159.1z"/>
	<path class="st1" d="M655.6,139.6c0,0,16.2,23.2,19.1,25s-20.5,13.7-27.6,11c-2.6-1-10.3-4-10.4-12.9
		C636.6,150.8,653.3,140.9,655.6,139.6z"/>
	<ellipse transform="matrix(0.4302 -0.9027 0.9027 0.4302 142.5107 675.3312)" class="st2" cx="606.2" cy="224.8" rx="3" ry="9.3"/>
	<path class="st3" d="M633.3,216.1c1.4,9.3,0,22.1,6.8,27.3s25.1,4.4,29,0.8s13.5-11.1,13-27.7c-0.5-17,0.5-29-14.2-43.6
		s-21-17.2-21-17.2l-11.1,4.3"/>
	<path class="st1" d="M643,170.8c-1.4,4.4-9.4,21.3-9.5,30.7c-0.1,9.2-1,36.2,5.8,41.4s27.2,5.1,31,1.5s13.5-11.1,13-27.7
		c-0.5-17,0.5-28.9-14.2-43.6s-20.2-18.4-20.2-18.4L643,170.8z"/>
	<path class="st4" d="M633.3,211.6v-13.7c0,0,5.2-28.9,6.9-31.5s8.5-11.6,8.5-11.6L636.6,199L633.3,211.6"/>
	<path class="st0" d="M649.2,215.6c0,0-3.3,3.1-0.5,12.2s-1.4,8.8-5.9,8.6s-13.1,8.6-13.1,8.6s3.5,18.6,0,20.1s-7.3,4.9-10.8,3.6
		s-3.3-3.5-4.1-6s-18.4-23.2-17.1-31.8s3.8-13.7,8.4-14.8s9.2-6.2,20.5-4.2S649.2,215.6,649.2,215.6z"/>
	<path class="st1" d="M597.9,220.5c12.3,2.3,14.5,2,17.8,10.5c1,2.6,25.7,3.7,30,3.1c6-0.9,14,11.3,17-3.2s-19.9-23.6-19.9-23.6
		s-12.7,4.1-19.7,4.1C606.1,211.3,597.9,220.5,597.9,220.5z"/>
	<ellipse transform="matrix(0.4302 -0.9027 0.9027 0.4302 152.4873 688.1622)" class="st2" cx="621.4" cy="223.3" rx="3" ry="9.3"/>
	<path class="st5" d="M657.2,218.6c0,0,13,5.7,15.8,14.8s-6.4,15.2-11,15s-18-4.9-18-4.9s3.5,18.6,0,20.1s-7.3,4.9-10.8,3.6
		s-3.3-3.5-4.1-6S610.7,238,612,229.4s3.8-13.7,8.4-14.8s8.8-3.8,20.1-1.8S657.2,218.6,657.2,218.6z"/>
	<path class="st5" d="M577.9,164.6c0,0-27.1-19.6-30.7-33.6c-3.9-15.1-2.2-20,0-27.5s8-15.8,10.5-19.5c2.2-3.2,11.2-12.7,19.2-14.8
		s15.1-5.6,31-4.1c9.8,1,19.3,4.5,27.4,10.2c0,0,15.3,13.2,18.5,28.5c0.7,3.4,1.3,6.3,1.7,8.6c1.4,7.2,1.7,14.6,0.9,21.9
		c-0.3,2.9-0.7,5.8-1.4,8.7c-1.7,6.6-10,17-13.6,21.7S623.9,179,619,180.9s-25.8,7.3-28.7,5.4s-3.9-9.2-5.8-12.9
		S577.9,164.6,577.9,164.6z"/>
	<path class="st6" d="M637.6,83.6c3.2,2.9,15.8,4,16,6.4s5,23.5,5.7,35.7c0.5,7.8-6.2,22.1-6.2,22.1l-19.3-24l-7.1,7.1l-3.5-6.7
		l1.7-3.2l-1.8,0.6c0,0,1.1-4.9-0.1-6.9s-10.5-6.7-12.6-6.6s6.1-4.7,6.1-4.7l-9.3-1.3l11-6.6l-15.1-0.9l6.5-2.7l32.3-10.2"/>
	<path class="st7" d="M523.3,144.4c5.9-2.8,5.9-18.4,5.9-18.4l-8.6,2.6c0,0,5.7-6.7,4.3-6.8c-6.2-0.5-11.1,7.6-10.9,6.7
		c0.9-3.8,7.8-14,7.8-14c-1.5-4.6-10.1,2.6-10,2c1-5.6,13.8-14.4,11.6-15c-2.4-0.6-8.5-11.3-7.1-9.8c3.7,3.9,12.2,6.9,12,5.7
		c-0.1-0.3-6.9-6.1-5.4-5.7c3.1,0.9,10.9-5.6,10.2-5.6c-4.9-0.4-17-16.8-17-16.8s8.1,6.7,22.5,5.7c8.8-0.6,8-2.7,8-2.7
		c-11.2-0.7-13.3-9-12.7-8.6c7.6,4.6,11.5,2.4,10.4,2.4c-3.4,0-18.8-14.6-17.5-13.6c2.2,1.7,6.2,1.5,9.8,1.6s16.3-2.3,19.4-4.1
		s13.6-7.1,15.8-8.2s15.5-2.7,15.5-2.7s-16-3.3-13.9-3.7c4.7-0.8,11.2-2,16.1-2.6c5.3-0.6,8.2,0.2,12.3,1.1s7.8,3.6,10.7,10.6
		c0,0,12.3-10.8,12.6-10.4c3.7,5.3,0.9,15.9,1.2,16c2.3,0.3,3.5-6.4,3.7-5.9c3,5.5-0.9,10.7,1.5,8.1s14.4-5.7,13.1-3.6
		s-0.7,10.6-0.7,10.6s3.8-5.3,3.2-3.7s3,14.2,4,12.6c0.6-1,3.8-5.9,5.5-8.8c0.3,5.6,2.9,17.5,2.9,17.5s6.8,1.9,8,1
		c-1.3,1.8-7.3,6.1-5.9,5.7c1.6-0.4,11.8,6.7,9.5,5.3s-11.7,1.7-12.1,2.8s8.7,6,7.4,5.4s-15.5,0.5-15.5,0.5s7.6,3.7,6.5,3.8
		S641,98.3,641,98.3l-4,7.3l-29.8-3.6c0,0,12.8-7.1,11-6.6c-3.6,1-26.2,6.7-26.2,6.7s-4.7,14.6-9.2,21.5c-4.5,6.9-7.9,5.5-7.8,5.2
		c0.5-0.8,3.3-4.6,0.2-12.6c-3.1,4.8-13,24.3-13.5,24.6l0.1-9.4c-3.7,1.8-4.9,13.5-4.9,13.5c-5.3-1.7-6.6-8.4-6.9-4.7
		c-0.1,1.4,1.5,2.6,2.8,6.3c2,6,9.2,13,9.2,13l-10-7.1l-0.4-0.9c-0.1,0.4-0.3,0.8-0.5,1.2c-3.8,7.5-6.8,7.5-6.4,6.7
		c2.5-5.6-3.3-16.8-3.3-16.8l-2.3,10.2c-3.4-3.1-1.2-3.5-4-1.3s-8.8,1.6-7,0.8s6-9.2,1.3-6.8s-10.3,1-10.3,1
		S517.4,147.2,523.3,144.4z"/>
	
		<ellipse transform="matrix(5.930640e-02 -0.9982 0.9982 5.930640e-02 477.8377 758.4565)" class="st5" cx="641.3" cy="125.7" rx="15.2" ry="9.1"/>
	<path class="st7" d="M572.7,142.7c-0.6,0-1-0.5-0.9-1.1c0-0.3,0.1-0.5,0.4-0.7c0.1-0.1,10.1-7.5,14.8-14.8c0.2-0.5,0.8-0.8,1.3-0.6
		c0.5,0.2,0.8,0.8,0.6,1.3c0,0.1-0.1,0.2-0.2,0.3c-4.9,7.6-14.9,15-15.3,15.3C573.1,142.6,572.9,142.7,572.7,142.7z"/>
	<path class="st8" d="M584.3,148.8l0.1-1l-1-0.3c0.7-3,1.5-4.8,2.4-5.5l1.3,1.5c-0.1,0.1-0.9,0.9-1.7,4.3L584.3,148.8z"/>
	<path class="st1" d="M588.2,159.7c-1.1,0-2.1-0.9-2.1-2c0-0.5,0-3.3,3.1-10.4c1.7-3.8,5.8-7.5,6-7.6c0.9-0.8,2.2-0.7,2.9,0.2
		c0,0,0,0,0,0c0.8,0.9,0.7,2.2-0.2,3c0,0-3.6,3.2-4.9,6.1c-2.7,6.2-2.8,8.5-2.8,8.6C590.3,158.7,589.4,159.6,588.2,159.7
		L588.2,159.7z"/>
	<path class="st9" d="M607.4,178.7c-0.1,0-0.2,0-0.3,0c-0.5-0.2-0.8-0.7-0.6-1.2c0-0.2,1.4-4,6-8.8c0.4-0.3,1.1-0.2,1.4,0.2
		c0.2,0.3,0.3,0.8,0,1.1c-4.3,4.5-5.5,8-5.5,8.1C608.2,178.4,607.8,178.7,607.4,178.7z"/>
	<ellipse transform="matrix(0.7071 -0.7071 0.7071 0.7071 74.8057 476.6613)" class="st10" cx="612.8" cy="148" rx="8.8" ry="5.3"/>
	<path class="st5" d="M647.2,163.9c2.2-6.3,20.8-18.3,26.3-18.9s27.3,9.7,28.4,12.1s2.9,10.9-2,11.2s-19.8-1.7-19.8-1.7
		s-8.2,8.4-14.4,10.2s-9.8,0.8-16.2-1.9C645.2,173.1,644.9,170.2,647.2,163.9z"/>
	<path class="st1" d="M662.8,145c0,0,16.2,23.2,19.1,25s-20.5,13.7-27.6,11c-2.7-1-10.3-3.9-10.4-12.9
		C643.8,156.1,660.5,146.2,662.8,145z"/>
	<path class="st1" d="M612.9,219.2c12.3,2.3,27.8,15.7,31.1,24.2c1,2.6,14.8,5.5,19.1,4.9c6-0.9,14.5-4.4,17.5-18.9
		s-19.9-23.6-19.9-23.6s-20.4,5.8-27.4,5.8C616.2,211.6,612.9,219.2,612.9,219.2z"/>
	<path class="st0" d="M876.5,159.6c2.2-6.3,27.5-17.4,33-17.9s27,14,28.1,16.4s2.9,10.9-2,11.2s-21.4-8.6-21.4-8.6
		s-8.2,8.4-14.4,10.2s-12.1,3.2-18.5,0.5C877,169.6,874.3,166,876.5,159.6z"/>
	<path class="st1" d="M894.4,140.1c0,0,16.2,23.2,19.1,25.1s-20.5,13.7-27.6,11c-2.7-1-10.3-3.9-10.4-12.9
		C875.4,151.3,892.1,141.4,894.4,140.1z"/>
	<ellipse transform="matrix(0.4302 -0.9027 0.9027 0.4302 278.0711 891.2126)" class="st2" cx="845" cy="225.3" rx="3" ry="9.3"/>
	<path class="st3" d="M872.1,216.6c1.4,9.3,0,22.1,6.8,27.3s25.1,4.4,29,0.8s13.5-11.1,13-27.7c-0.5-17,0.5-28.9-14.2-43.6
		s-21-17.2-21-17.2l-11.1,4.3"/>
	<path class="st1" d="M881.8,171.4c-1.4,4.4-9.4,21.3-9.5,30.7c-0.1,9.2-1,36.2,5.8,41.4s27.2,5.1,31,1.5s13.5-11.1,13-27.7
		c-0.5-17,0.5-28.9-14.2-43.6s-20.2-18.4-20.2-18.4L881.8,171.4z"/>
	<path class="st4" d="M872.1,212.1v-13.7c0,0,5.2-28.9,6.9-31.5s8.5-11.6,8.5-11.6l-12.2,44.2L872.1,212.1"/>
	<path class="st0" d="M888,216.2c0,0-3.3,3.1-0.5,12.2s-1.4,8.8-5.9,8.6c-4.1-0.3-8.2-0.9-12.3-1.7c0,0,8.7,17.5,9.4,23
		c0.5,4-7.4,9.9-9.4,9.6c-3.7-0.5-15.9-12-16.7-14.5s-14.1-19.1-12.9-27.7s0.6-7.8,5.2-8.9s9.1-6.2,20.5-4.2S888,216.2,888,216.2z"
		/>
	<path class="st1" d="M836.7,221.1c12.3,2.3,14.5,2,17.8,10.5c1,2.6,25.7,3.7,30,3.1c6-0.9,14,11.3,17-3.2s-19.8-23.6-19.8-23.6
		s-12.7,4.1-19.7,4.1C844.9,211.9,836.7,221.1,836.7,221.1z"/>
	<ellipse transform="matrix(0.4302 -0.9027 0.9027 0.4302 288.0583 904.0424)" class="st2" cx="860.2" cy="223.8" rx="3" ry="9.3"/>
	<path class="st5" d="M896,219.1c0,0,13,5.7,15.8,14.8s-6.4,15.2-11,15S880.2,233,880.2,233s-9.7,31.8-12.6,34.2
		c-3.6,3.1-7.3,4.9-10.8,3.7s-3.3-3.5-4.1-6s-3.2-26.4-1.9-34.9s3.8-13.7,8.4-14.8s8.8-3.8,20.1-1.8S896,219.1,896,219.1z"/>
	<path class="st5" d="M816.7,165.2c0,0-27.1-19.6-30.7-33.6c-3.9-15.1-2.2-20,0-27.5s8-15.8,10.5-19.5c2.2-3.2,11.2-12.7,19.2-14.8
		s15.1-5.6,31-4.1c9.9,1,19.3,4.5,27.4,10.2c0,0,15.3,13.1,18.5,28.5c0.7,3.4,1.3,6.3,1.7,8.6c1.4,7.2,1.7,14.6,0.9,21.9
		c-0.3,2.9-0.7,5.8-1.4,8.7c-1.7,6.6-10,17-13.6,21.7s-17.5,14.4-22.4,16.3s-25.8,7.3-28.7,5.4s-3.9-9.2-5.8-12.9
		S816.7,165.2,816.7,165.2z"/>
	<path class="st6" d="M876.4,84.1c3.2,2.9,15.8,4,16,6.4s5,23.5,5.7,35.7c0.5,7.8-6.2,22.1-6.2,22.1l-19.4-24l-7.1,7.1l-3.5-6.7
		l1.7-3.1l-1.8,0.6c0,0,1.1-4.9-0.1-6.9s-10.5-6.7-12.6-6.6s6.1-4.6,6.1-4.6l-9.3-1.4l11-6.6l-15.1-0.9l6.4-2.7l32.3-10.2"/>
	
		<ellipse transform="matrix(5.930640e-02 -0.9982 0.9982 5.930640e-02 701.9246 997.3377)" class="st5" cx="880.1" cy="126.2" rx="15.2" ry="9.1"/>
	<path class="st7" d="M759.6,142.1c5.9-2.8,8.6-15.6,8.6-15.6l-11.6,3.5c0,0,8.7-7.6,7.3-7.7c-6.2-0.5-13.7,3.6-13.4,2.7
		c0.9-3.8,10.3-10.1,10.3-10.1c-1.5-4.6-12,3.8-10,2c4.2-3.8,13.8-14.4,11.6-15c-2.4-0.6-8.5-11.3-7.1-9.8
		c3.7,3.9,12.2,6.9,11.9,5.7c-0.1-0.3-7.4-17.3-6.9-15.8c1.3,4.2,12.5,4.6,11.8,4.5c-4.9-0.4-16.6-24.8-16.6-24.8
		s7.7,14.7,22.1,13.7c8.8-0.6,8-2.7,8-2.7c-11.2-0.7-13.3-9-12.7-8.6c7.6,4.7,11.5,2.4,10.4,2.4c-3.4,0-18.8-14.6-17.5-13.6
		c2.2,1.7,6.2,1.5,9.8,1.7s16.4-2.2,19.5-4.1s13.7-7.1,15.8-8.2s15.5-2.7,15.5-2.7s-16-8.5-13.9-8.3c6.8,0.7,11.1,2.6,16.1,2
		c5.3-0.6,8.2,0.2,12.3,1.1s7.8,3.7,10.6,10.7c0,0,12.3-10.8,12.6-10.3c3.7,5.3,0.8,15.9,1.2,16c2.3,0.3,3.5-6.4,3.7-5.9
		c3,5.4-1,10.7,1.5,8.1s14.4-5.7,13.1-3.6s-0.8,10.6-0.8,10.6s3.9-5.3,3.2-3.7s3,14.2,4,12.6c0.6-1,3.8-5.9,5.5-8.8
		c0.3,5.6,2.9,17.5,2.9,17.5s6.8,1.9,8,1c-1.3,1.8-7.4,6.1-5.9,5.7s11.8,6.6,9.5,5.3s-11.6,1.7-12.1,2.8s8.7,6,7.4,5.4
		s-15.5,0.5-15.5,0.5s7.6,3.7,6.5,3.8s-16.2-3.3-16.2-3.3l-4.1,7.3l-29.8-3.6c0,0,12.8-7.1,11-6.6c-3.6,1-26.2,6.7-26.2,6.7
		s-4.1,12.1-8.6,19.1c-4.5,6.9-12,7.4-11.8,7.1c2.2-3.6,3.5-7.8,3.6-12c-3.1,4.8-14.8,28.2-15.3,28.4l2-13.2
		c-3.7,1.8-4.9,13.5-4.9,13.5c-5.2-1.7-5.9-3.8-5.5-2.9c0.8,1.4,1.2,2.9,1.4,4.5c1,5.8-4.2,11.4-4.2,11.4l1.8-4.8
		c-3.6,5.5-8.8,7.5-8.4,6.7c6.7-14.3-0.6-17.2-0.6-17.2l-2.9,9.2c-3.4-3.1-1.2-3.5-4-1.3s-8.8,1.6-7,0.8s6.6-8.2,1.9-5.7
		s-13-1.8-13-1.8S753.7,144.9,759.6,142.1z"/>
	<path class="st7" d="M811.4,143.2c-0.6,0-1-0.5-1-1c0-0.3,0.1-0.5,0.4-0.7c0.1-0.1,10.1-7.5,14.8-14.8c0.4-0.4,1-0.4,1.4,0
		c0.3,0.3,0.4,0.7,0.2,1.1c-4.9,7.6-14.9,15-15.3,15.3C811.9,143.2,811.6,143.2,811.4,143.2z"/>
	<path class="st8" d="M823.1,149.3l0.1-1l-0.9-0.3c0.7-3,1.5-4.8,2.3-5.5l1.3,1.5c-0.1,0.1-0.8,0.9-1.7,4.3L823.1,149.3z"/>
	<path class="st1" d="M827,160.3c-1.1,0-2-0.9-2.1-2c0-0.5,0-3.3,3.1-10.4c1.7-3.8,5.8-7.5,6-7.6c0.9-0.8,2.2-0.7,2.9,0.2
		c0,0,0,0,0,0c0.8,0.9,0.7,2.2-0.2,3c0,0-3.6,3.2-4.9,6.1c-2.7,6.2-2.7,8.5-2.7,8.6C829.1,159.3,828.2,160.2,827,160.3L827,160.3z"
		/>
	<path class="st9" d="M846.1,179.2c-0.1,0-0.2,0-0.3-0.1c-0.5-0.2-0.8-0.7-0.6-1.2c0-0.2,1.4-4,6-8.8c0.3-0.5,0.9-0.6,1.4-0.3
		s0.6,0.9,0.3,1.4c-0.1,0.1-0.2,0.2-0.3,0.3c-4.3,4.5-5.5,8-5.5,8.1C846.9,178.9,846.6,179.2,846.1,179.2z"/>
	
		<ellipse transform="matrix(0.7071 -0.7071 0.7071 0.7071 144.3602 645.6642)" class="st10" cx="851.6" cy="148.6" rx="8.8" ry="5.3"/>
	<path class="st5" d="M886,164.4c2.2-6.3,20.8-18.3,26.3-18.9s33.4-1.1,34.5,1.2s2.9,10.9-2,11.2s-25.8,9.2-25.8,9.2
		s-8.2,8.4-14.4,10.2s-9.8,0.8-16.2-1.9C883.9,173.7,883.7,170.8,886,164.4z"/>
	<path class="st1" d="M901.6,145.5c0,0,16.2,23.2,19.1,25s-20.5,13.7-27.6,11.1c-2.7-1-10.3-4-10.4-12.9
		C882.6,156.7,899.3,146.8,901.6,145.5z"/>
	<path class="st1" d="M851.7,219.8c12.3,2.3,27.8,15.7,31,24.2c1,2.6,14.8,5.5,19.1,4.9c6-0.9,14.5-4.4,17.5-18.9
		s-19.9-23.6-19.9-23.6s-20.4,5.8-27.4,5.8C855,212.1,851.7,219.8,851.7,219.8z"/>
	<path class="st0" d="M393.2,160.5c2.2-6.3,27.5-17.4,33-17.9s28.6-7.1,29.7-4.8s2.1,11.6-2.6,13.1c-4.6,1.4-22.4,10.7-22.4,10.7
		s-8.2,8.4-14.4,10.2s-12.1,3.2-18.5,0.5C393.6,170.6,391,166.9,393.2,160.5z"/>
	<path class="st1" d="M411.1,141c0,0,16.2,23.2,19.1,25.1s-20.5,13.7-27.6,11c-2.6-1-10.3-3.9-10.4-12.9
		C392.1,152.2,408.8,142.3,411.1,141z"/>
	<ellipse transform="matrix(0.4302 -0.9027 0.9027 0.4302 1.851 455.3826)" class="st2" cx="361.7" cy="226.2" rx="3" ry="9.3"/>
	<path class="st3" d="M388.8,217.5c1.4,9.3,0,22.1,6.8,27.3s25.1,4.4,29,0.8s13.5-11.1,13-27.7c-0.5-17,0.5-28.9-14.2-43.6
		s-21-17.2-21-17.2l-11.1,4.3"/>
	<path class="st1" d="M398.4,172.3c-1.4,4.4-9.4,21.3-9.5,30.7c-0.1,9.2-1,36.2,5.8,41.4s27.1,5.1,31,1.5s13.5-11.1,13-27.7
		c-0.5-17,0.5-28.9-14.2-43.6s-20.1-18.4-20.1-18.4L398.4,172.3z"/>
	<path class="st4" d="M388.8,213v-13.6c0,0,5.2-28.9,6.9-31.5s8.5-11.6,8.5-11.6l-12.2,44.2L388.8,213"/>
	<path class="st0" d="M404.7,217.1c0,0-3.3,3.1-0.5,12.2s-1.4,8.8-5.9,8.6s-23.6,7.7-23.6,7.7s-1.5,20.7-5,22.1s-5.4,2.4-8.9,1.2
		s-3.3-3.5-4.1-6s-4.7-21.8-3.4-30.4s3.8-13.7,8.4-14.8s9.1-6.2,20.5-4.2S404.7,217.1,404.7,217.1z"/>
	<path class="st1" d="M353.4,222c12.3,2.3,14.5,2,17.8,10.5c1,2.6,25.7,3.7,30,3.1c6-0.9,14,11.3,17-3.2s-19.9-23.6-19.9-23.6
		s-12.7,4.1-19.7,4.1C361.6,212.8,353.4,222,353.4,222z"/>
	<ellipse transform="matrix(0.4302 -0.9027 0.9027 0.4302 11.8292 468.2181)" class="st2" cx="376.8" cy="224.7" rx="3" ry="9.3"/>
	<path class="st5" d="M412.7,220.1c0,0,13,5.7,15.8,14.8s-6.4,15.2-11,15s-21-11.8-21-11.8s0.8,26.1-2.7,27.5s-7.3,4.9-10.8,3.6
		s-3.3-3.5-4.1-6s-12.8-23.8-11.5-32.4s3.8-13.7,8.4-14.8s8.8-3.8,20.1-1.8S412.7,220.1,412.7,220.1z"/>
	<path class="st5" d="M333.4,166.1c0,0-27.1-19.6-30.7-33.6c-3.9-15.1-2.2-20,0-27.5s8-15.8,10.5-19.5c2.2-3.2,11.2-12.7,19.2-14.8
		s15.1-5.6,31-4.1c9.9,1,19.3,4.5,27.4,10.2c0,0,15.3,13.1,18.5,28.5c0.7,3.4,1.3,6.3,1.7,8.6c1.4,7.2,1.7,14.6,0.9,21.9
		c-0.3,2.9-0.7,5.8-1.4,8.7c-1.7,6.6-10,17-13.6,21.7s-17.5,14.4-22.4,16.3s-25.8,7.3-28.7,5.4s-3.9-9.2-5.8-12.9
		S333.4,166.1,333.4,166.1z"/>
	<path class="st6" d="M393.1,85c3.2,2.9,15.8,4,16,6.4s5,23.5,5.7,35.7c0.5,7.8-6.1,22.1-6.1,22.1l-19.4-24l-7.1,7.1l-3.5-6.7
		l1.7-3.1l-1.8,0.6c0,0,1.1-4.9-0.1-6.9s-10.5-6.7-12.6-6.6s6.1-4.7,6.1-4.7l-9.3-1.3l11-6.6l-15-0.9l6.4-2.7l32.3-10.2"/>
	<path class="st7" d="M276,143.1c5.9-2.8,8.6-15.6,8.6-15.6l-11.6,3.5c0,0,8.7-7.6,7.4-7.7c-6.2-0.5-13.6,3.6-13.4,2.7
		c0.9-3.8,10.3-10.1,10.3-10.1c-1.5-4.6-12,3.8-10,2c4.2-3.8,13.8-14.4,11.6-15c-2.4-0.6-8.5-11.3-7.1-9.8c3.7,3.9,12.2,6.9,12,5.8
		c-0.1-0.3-7.4-17.3-6.9-15.8c1.3,4.2,12.5,4.6,11.8,4.5c-4.9-0.4-16.6-24.8-16.6-24.8s7.7,14.7,22.1,13.7c8.8-0.6,8-2.7,8-2.7
		c-11.2-0.7-13.3-9-12.7-8.6c7.6,4.7,11.5,2.4,10.4,2.4c-3.4,0-18.8-14.6-17.5-13.6c2.2,1.7,6.2,1.5,9.8,1.7s16.4-2.3,19.5-4.1
		s13.6-7.1,15.8-8.2s15.5-2.7,15.5-2.7s-16-8.5-13.9-8.3c6.8,0.7,11.1,2.6,16.1,2c5.3-0.6,8.2,0.3,12.3,1.1S365,39,367.9,46
		c0,0,12.3-10.8,12.6-10.4c3.7,5.3,0.9,15.9,1.2,16c2.3,0.3,3.5-6.4,3.7-5.9c3,5.4-1,10.7,1.5,8.1s14.4-5.8,13.1-3.6
		s-0.8,10.6-0.8,10.6s3.9-5.3,3.2-3.7s3,14.2,4,12.7c0.6-1,3.8-5.9,5.5-8.8c0.3,5.6,2.9,17.5,2.9,17.5s6.8,1.9,8,1
		c-1.3,1.8-7.4,6.1-5.9,5.7s11.8,6.6,9.5,5.3s-11.7,1.7-12.1,2.8s8.7,6,7.4,5.4s-15.5,0.5-15.5,0.5s7.6,3.7,6.5,3.8
		s-16.2-3.3-16.2-3.3l-4.1,7.3l-29.8-3.6c0,0,12.8-7.1,11-6.6c-3.6,1-26.2,6.7-26.2,6.7s-4.1,12.1-8.6,19.1
		c-4.5,6.9-11.8,7.4-11.6,7.1c2.2-3.6,3.5-7.8,3.6-12c-3.1,4.8-14.8,28.2-15.3,28.4l1.9-13.3c-3.7,1.8-4.9,13.5-4.9,13.5
		c-5.2-1.7-5.9-3.8-5.5-2.9c0.8,1.4,1.2,2.9,1.4,4.5c1,5.8-4.2,11.4-4.2,11.4l1.8-4.8c-3.6,5.5-8.8,7.5-8.4,6.7
		c6.7-14.3-0.6-17.1-0.6-17.1l-2.9,9.2c-3.4-3.1-1.2-3.5-4-1.3s-8.8,1.6-7,0.8s6.6-8.2,1.9-5.7s-13-1.8-13-1.8
		S270.1,145.9,276,143.1z"/>
	
		<ellipse transform="matrix(5.930640e-02 -0.9982 0.9982 5.930640e-02 246.3706 515.7419)" class="st5" cx="396.8" cy="127.1" rx="15.2" ry="9.1"/>
	<path class="st7" d="M328.1,144.1c-0.6,0-1-0.5-1-1c0-0.3,0.1-0.5,0.4-0.7c0.1-0.1,10.1-7.5,14.9-14.8c0.2-0.5,0.8-0.8,1.3-0.5
		s0.8,0.8,0.5,1.3c0,0.1-0.1,0.2-0.2,0.3c-4.9,7.6-14.9,15-15.3,15.3C328.5,144.1,328.3,144.1,328.1,144.1z"/>
	<path class="st8" d="M339.8,150.2l0.1-1l-0.9-0.3c0.7-3,1.5-4.8,2.4-5.5l1.3,1.5c-0.1,0.1-0.9,0.9-1.7,4.3L339.8,150.2z"/>
	<path class="st1" d="M343.6,161.2c-1.1,0-2-0.9-2.1-2c0-0.5,0-3.3,3.1-10.4c1.7-3.8,5.8-7.5,6-7.6c0.9-0.8,2.2-0.7,2.9,0.2
		c0,0,0,0,0.1,0.1c0.8,0.9,0.7,2.2-0.2,3c0,0,0,0,0,0c0,0-3.6,3.2-4.9,6.1c-2.7,6.2-2.7,8.5-2.7,8.6c0,1.1-0.9,2.1-2,2.1
		L343.6,161.2z"/>
	<path class="st9" d="M362.8,180.1c-0.1,0-0.2,0-0.3-0.1c-0.5-0.2-0.8-0.7-0.6-1.2c0-0.2,1.4-4,6-8.8c0.4-0.3,1.1-0.2,1.4,0.2
		c0.2,0.3,0.3,0.8,0,1.1c-4.3,4.5-5.5,8-5.5,8.1C363.6,179.9,363.2,180.1,362.8,180.1z"/>
	
		<ellipse transform="matrix(0.7071 -0.7071 0.7071 0.7071 2.1624 304.1729)" class="st10" cx="368.3" cy="149.5" rx="8.8" ry="5.3"/>
	<path class="st5" d="M402.6,165.3c2.2-6.3,20.9-18.3,26.4-18.9s28.9,6.2,30,8.5s2.9,10.9-2,11.2s-21.4,1.9-21.4,1.9
		s-8.2,8.4-14.4,10.2s-9.8,0.8-16.2-1.9C400.6,174.6,400.4,171.7,402.6,165.3z"/>
	<path class="st1" d="M418.3,146.4c0,0,16.2,23.2,19.1,25s-20.5,13.7-27.6,11.1c-2.6-1-10.3-4-10.4-12.9
		C399.3,157.6,416,147.7,418.3,146.4z"/>
	<path class="st1" d="M368.4,220.7c12.3,2.3,27.8,15.7,31,24.2c1,2.6,14.8,5.5,19.1,4.9c6-0.9,14.5-4.4,17.5-18.9
		s-19.9-23.6-19.9-23.6s-20.4,5.8-27.4,5.8C371.6,213,368.4,220.7,368.4,220.7z"/>
</g>
<g id="Calque_9_1_">
	<path class="st0" d="M817.3,472.4c-6.4,2.7-12.3,1.3-18.5-0.5c-6.2-1.8-14.4-10.2-14.4-10.2s-14.8,2-19.7,1.6s-3.1-8.8-2-11.2
		c1.1-2.4,21-10,26.5-9.4s30.7,11.6,33,17.9C824.3,466.9,821.7,470.6,817.3,472.4z"/>
	<path class="st1" d="M823.1,464.2c-0.1,8.9-7.8,11.9-10.4,12.9c-7,2.7-30.5-9.2-27.6-11c2.9-1.8,19.1-25,19.1-25
		C806.5,442.3,823.3,452.2,823.1,464.2z"/>
	
		<ellipse transform="matrix(0.9027 -0.4302 0.4302 0.9027 -143.3574 418.4323)" class="st2" cx="853.7" cy="526.2" rx="9.3" ry="3"/>
	<path class="st3" d="M824,461.5l-11.1-4.3c0,0-6.2,2.5-21,17.2C777.1,489,778.2,501,777.7,518c-0.5,16.6,9.1,24.1,13,27.7
		s22.2,4.4,29-0.8c6.8-5.2,5.5-18,6.8-27.3"/>
	<path class="st1" d="M811.1,456.3c0,0-5.4,3.8-20.2,18.4s-13.7,26.6-14.2,43.6c-0.5,16.5,9.2,24.1,13,27.7c3.9,3.6,24.2,3.7,31-1.5
		c6.8-5.2,5.9-32.2,5.8-41.4c-0.1-9.4-8.2-26.4-9.5-30.7L811.1,456.3z"/>
	<path class="st4" d="M826.5,513l-3.3-12.6L811,456.3c0,0,6.8,8.9,8.5,11.6c1.8,2.7,6.9,31.5,6.9,31.5V513"/>
	<path class="st0" d="M833.3,513.5c11.3-2,15.9,3.1,20.5,4.2c4.6,1.1,7.1,6.2,8.4,14.8c1.3,8.6-16.3,29.3-17.1,31.8
		c-0.8,2.5-0.6,4.7-4.1,6c-3.5,1.3-7.3-2.2-10.8-3.7c-3.5-1.5,0-20.1,0-20.1s-8.5-8.8-13.1-8.6s-8.7,0.6-5.9-8.6
		c2.7-9.1-0.5-12.2-0.5-12.2S822,515.5,833.3,513.5z"/>
	<path class="st1" d="M836.6,512.8c-7,0-19.7-4-19.7-4s-22.8,9.1-19.8,23.6c3,14.5,11,2.3,17,3.2c4.3,0.6,29-0.5,30-3.1
		c3.3-8.5,5.5-8.2,17.8-10.5C861.9,522,853.7,512.8,836.6,512.8z"/>
	
		<ellipse transform="matrix(0.9027 -0.4302 0.4302 0.9027 -144.1879 411.7664)" class="st2" cx="838.5" cy="524.8" rx="9.3" ry="3"/>
	<path class="st5" d="M819.4,514.3c11.3-2,15.5,0.7,20.1,1.8c4.6,1.1,7.1,6.2,8.4,14.8c1.3,8.6-16.2,29.3-17.1,31.8
		c-0.8,2.5-0.6,4.7-4.1,6c-3.5,1.3-7.3-2.2-10.8-3.7c-3.5-1.5,0-20.1,0-20.1s-13.5,4.8-18.1,4.9c-4.6,0.2-13.7-5.9-11-15
		s15.8-14.8,15.8-14.8S808,516.3,819.4,514.3z"/>
	<path class="st5" d="M875.4,474.9c-1.9,3.7-2.9,11-5.8,12.9c-2.9,2-23.9-3.4-28.7-5.4c-4.9-1.9-18.8-11.6-22.4-16.3
		s-11.9-15.1-13.6-21.7c-0.7-2.9-1.1-5.8-1.4-8.7c-0.8-7.3-0.5-14.7,0.9-21.9c0.4-2.4,1-5.2,1.7-8.6c3.2-15.3,18.5-28.5,18.5-28.5
		c8.1-5.7,17.6-9.2,27.4-10.2c15.9-1.5,23,1.9,31,4.1c8,2.2,17,11.6,19.2,14.8c2.5,3.7,8.3,12,10.5,19.5s3.9,12.4,0,27.5
		c-3.6,14-30.7,33.6-30.7,33.6S877.3,471.2,875.4,474.9z"/>
	<path class="st6" d="M818.1,383.1l32.3,10.2l6.5,2.7l-15.1,0.9l11,6.6l-9.3,1.4c0,0,8.2,4.7,6.1,4.6c-2.1-0.1-11.5,4.7-12.6,6.6
		c-1.2,1.9-0.1,6.9-0.1,6.9l-1.8-0.6l1.7,3.1l-3.5,6.6l-7.1-7.1l-19.4,24c0,0-6.7-14.2-6.2-22.1c0.7-12.1,5.5-33.2,5.7-35.7
		c0.2-2.4,12.8-3.5,16-6.4"/>
	<path class="st7" d="M940.6,447.8c0,0-5.6,1.4-10.3-1s-0.5,5.9,1.3,6.8c1.8,0.9-4.2,1.4-7-0.8s-0.6-1.8-4,1.3l-2.3-10.2
		c0,0-5.8,11.2-3.3,16.8c0.4,0.9-2.7,0.8-6.4-6.7c-0.2-0.4-0.3-0.8-0.5-1.2l-0.4,0.9l-10,7.1c0,0,7.2-7,9.2-13
		c1.2-3.7,2.9-4.9,2.8-6.3c-0.3-3.7-1.6,3-6.9,4.7c0,0-1.2-11.7-4.9-13.5l0.1,9.4c-0.5-0.2-10.4-19.7-13.5-24.6
		c-3.1,7.9-0.3,11.7,0.2,12.6c0.2,0.3-3.2,1.7-7.7-5.2s-9.2-21.5-9.2-21.5s-22.6-5.7-26.2-6.7c-1.8-0.5,11,6.6,11,6.6l-29.8,3.6
		l-4.1-7.3c0,0-15,3.4-16.2,3.2c-1.2-0.1,6.5-3.8,6.5-3.8s-14.2-1-15.5-0.5c-1.3,0.5,7.8-4.4,7.4-5.5c-0.4-1.1-9.8-4.1-12.1-2.8
		c-2.3,1.3,8-5.7,9.6-5.3c1.4,0.4-4.6-3.9-5.9-5.7c1.2,0.9,8-1,8-1s2.5-11.9,2.9-17.5c1.7,3,4.9,7.8,5.5,8.8c1,1.6,4.6-11,4-12.6
		c-0.6-1.6,3.2,3.6,3.2,3.6s0.5-8.5-0.7-10.6c-1.2-2.1,10.7,1,13.1,3.6c2.4,2.6-1.5-2.6,1.5-8.1c0.2-0.4,1.4,6.2,3.7,5.9
		c0.3-0.1-2.5-10.7,1.2-16c0.3-0.4,12.6,10.3,12.6,10.3c2.9-7,6.5-9.8,10.7-10.6c4.1-0.8,7-1.7,12.3-1.1c4.9,0.6,11.4,1.9,16.1,2.6
		c2.1,0.4-13.9,3.7-13.9,3.7s13.3,1.6,15.5,2.7c2.2,1.1,12.7,6.3,15.8,8.2c3.1,1.8,15.9,4.2,19.5,4.1s7.7,0.1,9.8-1.6
		c1.3-1-14.1,13.6-17.5,13.6c-1.2,0,2.8,2.3,10.3-2.4c0.6-0.4-1.5,7.9-12.7,8.6c0,0-0.8,2.1,8,2.7c14.4,1,22.5-5.7,22.5-5.7
		s-12.1,16.4-17,16.8c-0.7,0.1,7.2,6.5,10.2,5.6c1.6-0.5-5.3,5.3-5.4,5.6c-0.2,1.1,8.3-1.8,12-5.7c1.4-1.5-4.7,9.2-7.1,9.8
		c-2.2,0.6,10.6,9.4,11.6,15c0.2,0.6-8.5-6.6-10-2c0,0,6.9,10.3,7.8,14.1c0.2,0.9-4.7-7.2-10.9-6.7c-1.3,0.1,4.3,6.8,4.3,6.8
		l-8.6-2.6c0,0,0,15.6,5.9,18.4C942.4,448.7,940.6,447.8,940.6,447.8z"/>
	
		<ellipse transform="matrix(0.9982 -5.930640e-02 5.930640e-02 0.9982 -23.8944 49.2935)" class="st5" cx="818.5" cy="427.2" rx="9.2" ry="15.2"/>
	<path class="st7" d="M886.6,444c-0.4-0.3-10.4-7.7-15.3-15.3c-0.3-0.5-0.2-1.1,0.3-1.4c0.5-0.3,1-0.2,1.3,0.3
		c4.7,7.3,14.8,14.7,14.9,14.8c0.2,0.2,0.4,0.4,0.4,0.7c0,0.6-0.4,1-1,1C887,444.2,886.8,444.1,886.6,444z"/>
	<path class="st8" d="M874.5,449.3c-0.8-3.5-1.5-4.2-1.7-4.3l1.3-1.5c0.9,0.7,1.6,2.5,2.4,5.5l-1,0.3l0.1,1L874.5,449.3z"/>
	<path class="st1" d="M871.5,461.2c-1.1-0.1-2-1-2-2.1c0,0-0.1-2.4-2.8-8.5c-1.3-3-4.9-6.1-4.9-6.1c-0.9-0.8-1-2.1-0.2-3
		c0,0,0-0.1,0.1-0.1c0.8-0.8,2.1-0.9,2.9-0.1c0.2,0.1,4.3,3.8,6,7.6c3.1,7.1,3.1,9.9,3.1,10.4c0,1.1-1,2-2.1,2L871.5,461.2z"/>
	<path class="st9" d="M851.6,479.5c0-0.1-1.2-3.6-5.5-8.1c-0.4-0.4-0.4-1,0-1.4c0.4-0.4,1-0.4,1.4,0c4.6,4.8,5.9,8.6,6,8.8
		c0.2,0.5-0.1,1.1-0.6,1.2c-0.1,0-0.2,0-0.3,0.1C852.1,480.2,851.7,479.9,851.6,479.5z"/>
	
		<ellipse transform="matrix(0.7071 -0.7071 0.7071 0.7071 -69.7576 730.6273)" class="st10" cx="847.1" cy="449.5" rx="5.3" ry="8.8"/>
	<path class="st5" d="M810.3,476.4c-6.4,2.7-10,3.7-16.2,1.9c-6.2-1.8-14.4-10.2-14.4-10.2s-14.8,2-19.8,1.7
		c-4.9-0.4-3.1-8.9-2-11.2c1.1-2.4,22.9-12.6,28.4-12.1c5.5,0.6,24.1,12.6,26.3,18.9C814.9,471.7,814.7,474.6,810.3,476.4z"/>
	<path class="st1" d="M815.9,469.7c-0.1,8.9-7.8,11.9-10.4,12.9c-7,2.7-30.4-9.2-27.5-11c2.9-1.8,19.1-25.1,19.1-25.1
		C799.3,447.7,816,457.6,815.9,469.7z"/>
	<path class="st1" d="M826.5,513c-7,0-27.4-5.7-27.4-5.7s-22.9,9.1-19.9,23.6c3,14.5,11.5,18,17.5,18.9c4.4,0.6,18.1-2.3,19.1-4.9
		c3.3-8.5,18.8-21.9,31.1-24.2C846.9,520.8,843.7,513,826.5,513z"/>
	<path class="st0" d="M330.9,472.7c-6.4,2.7-12.3,1.3-18.5-0.5c-6.2-1.8-14.4-10.2-14.4-10.2s-14.8,2-19.7,1.7
		c-4.9-0.4-3.1-8.8-2-11.2c1.1-2.4,21-10,26.5-9.5s30.8,11.6,33,17.9C338,467.2,335.3,470.9,330.9,472.7z"/>
	<path class="st1" d="M336.8,464.5c-0.1,8.9-7.8,11.9-10.4,12.9c-7,2.7-30.5-9.2-27.6-11s19.1-25,19.1-25
		C320.2,442.6,336.9,452.5,336.8,464.5z"/>
	
		<ellipse transform="matrix(0.9027 -0.4302 0.4302 0.9027 -190.8041 209.2159)" class="st2" cx="367.3" cy="526.6" rx="9.3" ry="3"/>
	<path class="st3" d="M337.7,461.8l-11.1-4.3c0,0-6.2,2.6-21,17.2c-14.8,14.6-13.7,26.6-14.2,43.6c-0.5,16.5,9.1,24.1,13,27.7
		s22.2,4.4,29-0.8c6.8-5.2,5.5-18,6.8-27.3"/>
	<path class="st1" d="M324.6,456.6c0,0-5.4,3.8-20.2,18.4s-13.7,26.6-14.2,43.6c-0.5,16.5,9.2,24.1,13,27.7s24.2,3.7,31-1.5
		s5.9-32.2,5.8-41.4c-0.1-9.4-8.2-26.4-9.5-30.7L324.6,456.6z"/>
	<path class="st4" d="M340.2,513.4l-3.3-12.6l-12.2-44.2c0,0,6.8,8.9,8.5,11.6s6.9,31.5,6.9,31.5V513.4"/>
	<path class="st0" d="M346.9,513.8c11.3-2,15.9,3.1,20.5,4.2c4.6,1.1,7.1,6.2,8.4,14.8c1.3,8.6-16.3,29.3-17.1,31.8
		c-0.8,2.5-0.6,4.7-4.1,6c-3.5,1.3-7.3-2.2-10.8-3.7c-3.5-1.5,0-20.1,0-20.1s-8.5-8.8-13.1-8.6s-8.7,0.5-5.9-8.6
		c2.7-9.1-0.5-12.2-0.5-12.2S335.6,515.8,346.9,513.8z"/>
	<path class="st1" d="M350.4,513.1c-7,0-19.7-4.1-19.7-4.1s-22.9,9.1-19.9,23.6c3,14.5,11,2.3,17,3.2c4.3,0.6,29-0.5,30-3.1
		c3.3-8.5,5.5-8.2,17.8-10.5C375.6,522.3,367.4,513.1,350.4,513.1z"/>
	<ellipse transform="matrix(0.9027 -0.4302 0.4302 0.9027 -191.638 202.5527)" class="st2" cx="352.1" cy="525.1" rx="9.3" ry="3"/>
	<path class="st5" d="M333,514.5c11.3-2,15.5,0.7,20.1,1.8c4.6,1.1,7.1,6.2,8.4,14.8s-16.3,29.3-17.1,31.8c-0.8,2.5-0.6,4.7-4.1,6
		c-3.5,1.3-7.3-2.2-10.8-3.6c-3.5-1.5,0-20.1,0-20.1s-13.4,4.8-18,5c-4.6,0.2-13.8-5.9-11-15s15.8-14.8,15.8-14.8
		S321.7,516.5,333,514.5z"/>
	<path class="st5" d="M389,475.2c-2,3.6-2.9,11-5.8,12.9s-23.8-3.4-28.7-5.4c-4.9-1.9-18.7-11.7-22.4-16.3s-11.9-15.1-13.6-21.7
		c-0.7-2.9-1.1-5.8-1.4-8.7c-0.8-7.3-0.5-14.7,0.9-21.9c0.5-2.4,1-5.2,1.7-8.6c3.2-15.3,18.5-28.5,18.5-28.5
		c8.1-5.7,17.5-9.2,27.4-10.2c15.9-1.5,23,1.9,31,4.1s17,11.6,19.2,14.9c2.5,3.7,8.3,12,10.5,19.5s3.9,12.4,0,27.5
		c-3.6,14-30.7,33.6-30.7,33.6S391,471.5,389,475.2z"/>
	<path class="st6" d="M331.6,383.4l32.3,10.2l6.5,2.7l-15.1,0.9l11,6.6l-9.3,1.3c0,0,8.2,4.7,6.1,4.6c-2.1-0.1-11.4,4.7-12.6,6.6
		c-1.2,1.9-0.1,6.9-0.1,6.9l-1.8-0.6l1.7,3.1l-3.5,6.6l-7.1-7.1l-19.3,24c0,0-6.7-14.2-6.2-22.1c0.7-12.1,5.5-33.2,5.7-35.7
		s12.8-3.5,16-6.4"/>
	<path class="st7" d="M454.2,448.1c0,0-5.6,1.4-10.3-1s-0.5,5.9,1.3,6.8c1.8,0.9-4.2,1.4-7-0.8s-0.6-1.8-4,1.3l-2.3-10.2
		c0,0-5.8,11.2-3.3,16.8c0.4,0.9-2.7,0.8-6.4-6.7c-0.2-0.4-0.3-0.8-0.5-1.2l-0.4,0.9l-10,7.1c0,0,7.2-7,9.2-13
		c1.2-3.7,2.9-4.9,2.8-6.3c-0.3-3.7-1.6,3-6.9,4.7c0,0-1.2-11.7-4.9-13.5l0.1,9.4c-0.5-0.2-10.4-19.7-13.5-24.6
		c-3.1,7.9-0.3,11.7,0.2,12.6c0.2,0.3-3.2,1.7-7.8-5.2s-9.2-21.5-9.2-21.5s-22.6-5.7-26.2-6.7c-1.8-0.5,11,6.6,11,6.6l-29.8,3.6
		l-4-7.3c0,0-15,3.4-16.2,3.3c-1.2-0.1,6.5-3.9,6.5-3.9s-14.2-1-15.5-0.5c-1.3,0.6,7.8-4.4,7.4-5.4c-0.4-1.1-9.8-4.2-12.1-2.8
		s8-5.8,9.5-5.3c1.4,0.4-4.6-3.9-5.9-5.7c1.2,0.9,8-1,8-1s2.5-11.9,2.9-17.5c1.7,3,4.9,7.8,5.5,8.8c1,1.6,4.7-11,4-12.6
		s3.2,3.7,3.2,3.7s0.5-8.5-0.7-10.6s10.7,1,13.1,3.6c2.4,2.6-1.5-2.6,1.5-8.1c0.2-0.4,1.4,6.2,3.7,5.9c0.4-0.1-2.5-10.7,1.2-16
		c0.3-0.4,12.6,10.4,12.6,10.4c2.9-7,6.5-9.8,10.7-10.6c4.2-0.8,7.1-1.7,12.3-1.1c4.9,0.6,11.4,1.9,16.1,2.6
		c2.1,0.3-13.9,3.7-13.9,3.7s13.3,1.6,15.5,2.7c2.2,1.1,12.7,6.4,15.8,8.2s15.8,4.2,19.4,4.1c3.6-0.1,7.7,0.1,9.8-1.6
		c1.3-1-14.1,13.6-17.5,13.6c-1.1,0,2.8,2.3,10.4-2.4c0.6-0.4-1.5,7.9-12.7,8.6c0,0-0.8,2.1,8,2.7c14.4,1,22.5-5.7,22.5-5.7
		s-12.1,16.4-17,16.8c-0.7,0.1,7.2,6.5,10.2,5.6c1.6-0.5-5.3,5.3-5.4,5.6c-0.2,1.1,8.3-1.8,12-5.7c1.4-1.5-4.7,9.2-7.1,9.8
		c-2.2,0.6,10.6,9.4,11.6,15c0.1,0.6-8.5-6.6-10-2c0,0,6.9,10.2,7.8,14c0.2,0.9-4.7-7.2-10.9-6.7c-1.3,0.1,4.3,6.8,4.3,6.8l-8.6-2.6
		c0,0,0,15.6,5.9,18.4C456.1,449,454.2,448.1,454.2,448.1z"/>
	
		<ellipse transform="matrix(0.9982 -5.930620e-02 5.930620e-02 0.9982 -24.7678 20.4506)" class="st5" cx="332.1" cy="427.5" rx="9.1" ry="15.2"/>
	<path class="st7" d="M400.3,444.3c-0.4-0.3-10.4-7.7-15.3-15.3c-0.1-0.1-0.2-0.2-0.2-0.3c-0.2-0.5,0.1-1.1,0.6-1.3
		c0.5-0.2,1.1,0.1,1.3,0.6c4.7,7.3,14.8,14.7,14.8,14.8c0.2,0.2,0.3,0.4,0.4,0.7c0,0.6-0.4,1-0.9,1.1
		C400.6,444.5,400.4,444.4,400.3,444.3z"/>
	<path class="st8" d="M388.1,449.6c-0.8-3.5-1.5-4.2-1.7-4.3l1.3-1.5c0.9,0.7,1.6,2.5,2.4,5.5l-1,0.3l0.1,1L388.1,449.6z"/>
	<path class="st1" d="M385.2,461.5c-1.1-0.1-2-1-2-2.1c0,0-0.1-2.4-2.8-8.6c-1.3-2.9-4.9-6.1-4.9-6.1c-0.9-0.8-1-2.1-0.2-3
		c0,0,0,0,0,0c0.8-0.9,2.1-0.9,2.9-0.2c0.2,0.1,4.3,3.8,6,7.6c3.1,7.1,3.1,9.9,3.1,10.4C387.4,460.6,386.4,461.5,385.2,461.5
		L385.2,461.5z"/>
	<path class="st9" d="M365.2,479.8c0,0-1.2-3.6-5.5-8c-0.2-0.3-0.2-0.8,0-1.1c0.3-0.4,0.9-0.6,1.4-0.2c4.6,4.8,6,8.6,6,8.8
		c0.2,0.5-0.1,1.1-0.6,1.2c-0.1,0-0.2,0-0.3,0C365.7,480.5,365.3,480.2,365.2,479.8z"/>
	
		<ellipse transform="matrix(0.7071 -0.7071 0.7071 0.7071 -212.424 386.8073)" class="st10" cx="360.7" cy="449.8" rx="5.3" ry="8.8"/>
	<path class="st5" d="M324,476.7c-6.4,2.7-10,3.7-16.2,1.9c-6.2-1.8-14.4-10.2-14.4-10.2s-14.8,2-19.8,1.7c-4.9-0.4-3.1-8.8-2-11.2
		s22.9-12.6,28.4-12.1c5.5,0.5,24.1,12.5,26.3,18.9C328.6,472,328.3,474.9,324,476.7z"/>
	<path class="st1" d="M329.6,469.9c-0.1,8.9-7.8,11.9-10.4,12.9c-7,2.7-30.4-9.2-27.6-11s19.1-25,19.1-25
		C313,448,329.7,457.9,329.6,469.9z"/>
	<path class="st1" d="M340.2,513.4c-7,0-27.4-5.8-27.4-5.8s-22.9,9.1-19.9,23.6c3,14.5,11.5,18,17.5,18.9c4.4,0.6,18.1-2.3,19.1-4.9
		c3.3-8.5,18.8-21.9,31.1-24.2C360.6,521,357.3,513.4,340.2,513.4z"/>
	<path class="st0" d="M92.1,473.2c-6.4,2.7-12.3,1.3-18.5-0.5c-6.2-1.8-14.4-10.2-14.4-10.2s-16.4,9-21.4,8.6
		c-4.9-0.4-3.1-8.8-2-11.2c1.1-2.4,22.6-16.9,28.1-16.4c5.5,0.5,30.8,11.6,33,17.9C99.2,467.8,96.5,471.4,92.1,473.2z"/>
	<path class="st1" d="M98,465.1C97.9,474,90.2,477,87.6,478c-7,2.7-30.5-9.2-27.6-11c2.9-1.8,19.1-25,19.1-25
		C81.4,443.2,98.1,453.1,98,465.1z"/>
	
		<ellipse transform="matrix(0.9027 -0.4302 0.4302 0.9027 -214.2695 106.5437)" class="st2" cx="128.5" cy="527.1" rx="9.3" ry="3"/>
	<path class="st3" d="M98.9,462.4l-11.1-4.3c0,0-6.2,2.6-21,17.2c-14.8,14.6-13.7,26.6-14.3,43.6c-0.5,16.5,9.1,24.1,13,27.7
		s22.2,4.4,29-0.8c6.8-5.2,5.4-18,6.8-27.3"/>
	<path class="st1" d="M85.9,457.1c0,0-5.4,3.8-20.2,18.4C51,490.2,52,502.1,51.5,519.1c-0.5,16.5,9.2,24.1,13,27.7s24.2,3.7,31-1.5
		c6.8-5.2,5.9-32.2,5.8-41.4c-0.1-9.4-8.2-26.4-9.5-30.7L85.9,457.1z"/>
	<path class="st4" d="M101.4,513.9l-3.3-12.6l-12.2-44.2c0,0,6.8,8.9,8.5,11.6s6.9,31.5,6.9,31.5L101.4,513.9"/>
	<path class="st0" d="M108.1,514.4c11.3-2,15.9,3.1,20.5,4.2c4.6,1.1,3.9,0.3,5.2,8.9c1.3,8.6-12,25.2-12.9,27.7
		c-0.8,2.5-13,14-16.7,14.5c-2,0.3-9.9-5.7-9.4-9.6c0.7-5.5,9.4-23,9.4-23c-4,0.8-8.1,1.4-12.3,1.7c-4.6,0.2-8.7,0.5-5.9-8.6
		S85.5,518,85.5,518S96.8,516.4,108.1,514.4z"/>
	<path class="st1" d="M111.5,513.7c-7,0-19.7-4.1-19.7-4.1s-22.9,9.1-19.8,23.6c3,14.5,11,2.3,17,3.2c4.3,0.6,29-0.5,30-3.1
		c3.3-8.5,5.5-8.2,17.8-10.5C136.8,522.9,128.6,513.7,111.5,513.7z"/>
	<ellipse transform="matrix(0.9027 -0.4302 0.4302 0.9027 -215.1 99.8778)" class="st2" cx="113.3" cy="525.6" rx="9.3" ry="3"/>
	<path class="st5" d="M94.2,515.1c11.3-2,15.5,0.7,20.1,1.8c4.6,1.1,7.1,6.2,8.4,14.8s-1.1,32.4-1.9,34.9c-0.8,2.5-0.6,4.7-4.1,6
		c-3.5,1.3-7.2-0.6-10.8-3.7c-2.9-2.4-12.6-34.2-12.6-34.2s-16,15.8-20.6,15.9c-4.6,0.2-13.7-5.9-11-15c2.7-9.1,15.8-14.8,15.8-14.8
		S82.9,517.1,94.2,515.1z"/>
	<path class="st5" d="M150.3,475.7c-1.9,3.6-2.9,10.9-5.8,12.9c-2.9,1.9-23.8-3.4-28.7-5.4c-4.9-2-18.8-11.6-22.4-16.3
		c-3.6-4.7-11.9-15.1-13.6-21.7c-0.7-2.9-1.1-5.8-1.4-8.7c-0.8-7.3-0.5-14.7,0.9-21.9c0.4-2.4,1-5.2,1.7-8.6
		c3.2-15.3,18.5-28.5,18.5-28.5c8.1-5.7,17.5-9.2,27.4-10.2c15.9-1.5,23,1.9,31,4.1s17,11.6,19.2,14.9c2.5,3.7,8.3,12,10.5,19.5
		s3.9,12.4,0,27.5c-3.6,14-30.7,33.6-30.7,33.6S152.2,472.1,150.3,475.7z"/>
	<path class="st6" d="M92.8,384l32.3,10.2l6.4,2.7l-15.1,0.9l11,6.6l-9.3,1.4c0,0,8.2,4.7,6.1,4.6s-11.5,4.7-12.6,6.6
		c-1.2,1.9-0.1,6.9-0.1,6.9l-1.8-0.6l1.7,3.1l-3.5,6.7l-7.1-7.1l-19.4,24c0,0-6.7-14.2-6.2-22.1c0.8-12.1,5.5-33.2,5.7-35.7
		s12.8-3.5,16-6.4"/>
	
		<ellipse transform="matrix(0.9982 -5.930620e-02 5.930620e-02 0.9982 -25.2203 6.2898)" class="st5" cx="93.4" cy="428" rx="9.1" ry="15.2"/>
	<path class="st7" d="M217.9,445.8c0,0-8.3,4.2-13,1.8c-4.7-2.4,0.1,4.9,1.9,5.7s-4.2,1.4-7-0.8s-0.6-1.8-4,1.3l-2.9-9.2
		c0,0-7.3,2.9-0.6,17.2c0.4,0.9-4.8-1.2-8.4-6.7l1.8,4.8c0,0-5.2-5.6-4.2-11.4c0.1-1.6,0.6-3.1,1.4-4.5c0.4-0.9-0.2,1.2-5.5,2.9
		c0,0-1.2-11.7-4.9-13.5l2,13.2c-0.5-0.2-12.2-23.6-15.3-28.4c0.1,4.2,1.4,8.4,3.6,12c0.2,0.3-7.3-0.1-11.8-7.1s-8.6-19.1-8.6-19.1
		s-22.6-5.7-26.2-6.7c-1.8-0.5,11,6.6,11,6.6l-29.8,3.6l-4.1-7.3c0,0-15,3.4-16.2,3.3c-1.2-0.1,6.5-3.8,6.5-3.8s-14.2-1-15.5-0.5
		c-1.3,0.6,7.8-4.3,7.4-5.4s-9.8-4.1-12.1-2.8c-2.3,1.3,8.1-5.7,9.5-5.3s-4.6-3.9-5.9-5.7c1.2,0.9,8-1,8-1s2.5-11.9,2.9-17.5
		c1.7,3,4.9,7.8,5.5,8.8c1,1.6,4.6-11,4-12.6c-0.6-1.6,3.2,3.6,3.2,3.6s0.5-8.5-0.8-10.6c-1.2-2.1,10.7,1,13.1,3.6
		c2.5,2.6-1.5-2.6,1.5-8.1c0.2-0.4,1.4,6.2,3.7,5.9c0.4-0.1-2.5-10.7,1.2-16c0.3-0.4,12.6,10.4,12.6,10.4c2.9-7,6.5-9.9,10.6-10.7
		s7.1-1.7,12.3-1.1c4.9,0.6,9.3-1.3,16.1-2c2.1-0.2-13.9,8.3-13.9,8.3s13.3,1.6,15.5,2.7c2.2,1.1,12.7,6.3,15.8,8.2
		c3.1,1.8,15.9,4.2,19.5,4.1s7.7,0.1,9.8-1.6c1.3-1-14.1,13.6-17.5,13.6c-1.1,0,2.8,2.3,10.4-2.4c0.6-0.4-1.5,7.9-12.7,8.6
		c0,0-0.8,2.1,8,2.7c14.4,1,22.1-13.7,22.1-13.7s-11.7,24.4-16.6,24.8c-0.7,0,10.5-0.3,11.8-4.5c0.5-1.6-6.8,15.4-6.9,15.8
		c-0.2,1.2,8.3-1.8,11.9-5.7c1.4-1.5-4.7,9.2-7.1,9.8c-2.2,0.6,7.4,11.2,11.6,15c2,1.8-8.5-6.6-10-2c0,0,9.4,6.3,10.3,10.1
		c0.2,0.9-7.2-3.2-13.4-2.7c-1.4,0.1,7.3,7.7,7.3,7.7l-11.6-3.5c0,0,2.8,12.8,8.6,15.6C219.7,446.7,217.9,445.8,217.9,445.8z"/>
	<path class="st7" d="M161.5,444.8c-0.4-0.3-10.4-7.7-15.3-15.3c-0.2-0.4-0.1-0.8,0.2-1.1c0.4-0.4,1-0.4,1.4,0
		c4.7,7.3,14.8,14.7,14.8,14.8c0.2,0.2,0.3,0.4,0.4,0.7c0,0.6-0.4,1-1,1C161.8,445,161.6,445,161.5,444.8z"/>
	<path class="st8" d="M149.3,450.1c-0.8-3.5-1.5-4.2-1.7-4.3l1.3-1.5c0.9,0.7,1.6,2.5,2.3,5.5l-0.9,0.3l0.1,1L149.3,450.1z"/>
	<path class="st1" d="M146.4,462c-1.1,0-2-1-2-2.1c0,0,0-2.4-2.7-8.5c-1.3-3-4.9-6.1-4.9-6.1c-0.9-0.8-1-2.1-0.2-3c0,0,0,0,0,0
		c0.8-0.9,2.1-1,2.9-0.2c0.2,0.1,4.3,3.8,6,7.6c3.1,7.1,3.1,9.9,3.1,10.4C148.5,461.2,147.6,462.1,146.4,462L146.4,462z"/>
	<path class="st9" d="M126.4,480.3c0-0.1-1.2-3.6-5.5-8.1c-0.1-0.1-0.2-0.2-0.3-0.3c-0.3-0.5-0.2-1.1,0.3-1.4
		c0.5-0.3,1.1-0.2,1.4,0.3c4.6,4.8,6,8.6,6,8.8c0.2,0.5-0.1,1.1-0.6,1.2c-0.1,0-0.2,0.1-0.3,0C126.9,481,126.6,480.7,126.4,480.3z"
		/>
	
		<ellipse transform="matrix(0.7071 -0.7071 0.7071 0.7071 -282.7447 218.1217)" class="st10" cx="121.9" cy="450.4" rx="5.3" ry="8.8"/>
	<path class="st5" d="M85.2,477.3c-6.4,2.7-10,3.7-16.2,1.9c-6.2-1.8-14.4-10.2-14.4-10.2s-20.9-8.8-25.8-9.2
		c-4.9-0.4-3.1-8.8-2-11.2s29-1.8,34.5-1.2c5.5,0.5,24.1,12.5,26.3,18.9C89.8,472.6,89.5,475.5,85.2,477.3z"/>
	<path class="st1" d="M90.8,470.5c-0.1,8.9-7.8,11.9-10.4,12.9c-7,2.7-30.5-9.3-27.6-11.1s19.1-25,19.1-25
		C74.2,448.6,90.9,458.5,90.8,470.5z"/>
	<path class="st1" d="M101.4,513.9c-7,0-27.4-5.8-27.4-5.8s-22.9,9.1-19.9,23.6c3,14.5,11.5,18,17.5,18.9c4.4,0.6,18.1-2.3,19.1-4.9
		c3.2-8.5,18.7-21.9,31-24.2C121.8,521.6,118.5,513.9,101.4,513.9z"/>
	<path class="st0" d="M575.5,474.1c-6.4,2.6-12.3,1.3-18.5-0.5c-6.2-1.8-14.4-10.2-14.4-10.2s-17.8-9.3-22.4-10.7
		c-4.7-1.4-3.7-10.7-2.6-13.1c1.1-2.4,24.2,4.2,29.7,4.8c5.5,0.5,30.8,11.6,33,17.9C582.5,468.7,579.9,472.3,575.5,474.1z"/>
	<path class="st1" d="M581.3,466c-0.1,8.9-7.8,11.9-10.4,12.9c-7,2.7-30.5-9.2-27.6-11c2.9-1.8,19.1-25,19.1-25
		C564.7,444.1,581.4,454,581.3,466z"/>
	<ellipse transform="matrix(0.9027 -0.4302 0.4302 0.9027 -167.6402 314.5661)" class="st2" cx="611.8" cy="528" rx="9.3" ry="3"/>
	<path class="st3" d="M582.2,463.3l-11.1-4.3c0,0-6.2,2.6-21,17.2c-14.8,14.6-13.7,26.6-14.2,43.6c-0.5,16.6,9.1,24.1,13,27.7
		s22.2,4.4,29-0.8s5.4-18,6.8-27.3"/>
	<path class="st1" d="M569.2,458c0,0-5.4,3.8-20.2,18.4c-14.8,14.6-13.7,26.6-14.2,43.6c-0.5,16.5,9.2,24.1,13,27.7
		c3.9,3.6,24.2,3.7,31-1.5c6.8-5.2,5.9-32.2,5.8-41.4c-0.1-9.4-8.2-26.4-9.5-30.7L569.2,458z"/>
	<path class="st4" d="M584.7,514.8l-3.3-12.5l-12.2-44.2c0,0,6.8,8.9,8.5,11.6s6.9,31.5,6.9,31.5V514.8"/>
	<path class="st0" d="M591.4,515.3c11.3-2,15.9,3.1,20.5,4.2c4.6,1.1,7.1,6.2,8.4,14.8c1.3,8.6-2.6,27.9-3.4,30.4
		c-0.8,2.5-0.7,4.7-4.1,6c-3.5,1.3-5.5,0.3-8.9-1.2c-3.5-1.5-5-22.1-5-22.1s-19-7.9-23.6-7.7s-8.7,0.5-5.9-8.6s-0.5-12.2-0.5-12.2
		S580.1,517.3,591.4,515.3z"/>
	<path class="st1" d="M594.8,514.6c-7,0-19.7-4.1-19.7-4.1s-22.9,9.1-19.9,23.6c3,14.5,11,2.3,17,3.2c4.3,0.6,29-0.5,30-3.1
		c3.3-8.5,5.5-8.2,17.8-10.5C620.1,523.8,611.9,514.6,594.8,514.6z"/>
	
		<ellipse transform="matrix(0.9027 -0.4302 0.4302 0.9027 -168.4749 307.9011)" class="st2" cx="596.7" cy="526.5" rx="9.3" ry="3"/>
	<path class="st5" d="M577.5,516c11.3-2,15.5,0.7,20.1,1.8c4.6,1.1,7.1,6.2,8.4,14.8c1.3,8.6-10.7,29.9-11.5,32.4
		c-0.8,2.5-0.6,4.7-4.1,6c-3.5,1.3-7.3-2.2-10.8-3.6c-3.5-1.5-2.7-27.5-2.7-27.5s-16.4,11.6-21,11.8c-4.6,0.2-13.7-5.9-11-15
		c2.7-9.1,15.8-14.8,15.8-14.8S566.2,518,577.5,516z"/>
	<path class="st5" d="M633.6,476.6c-1.9,3.6-2.9,10.9-5.8,12.9c-2.9,1.9-23.9-3.4-28.7-5.4c-4.9-2-18.8-11.6-22.4-16.3
		s-11.9-15.1-13.6-21.7c-0.7-2.9-1.1-5.8-1.4-8.7c-0.8-7.3-0.5-14.7,0.9-21.9c0.4-2.4,1-5.2,1.7-8.6c3.2-15.3,18.5-28.5,18.5-28.5
		c8.1-5.7,17.6-9.2,27.4-10.2c15.9-1.5,23,1.9,31,4.1c8,2.2,17,11.6,19.2,14.9c2.5,3.7,8.3,12,10.5,19.5s3.9,12.4,0,27.5
		c-3.6,14-30.7,33.6-30.7,33.6S635.5,473,633.6,476.6z"/>
	<path class="st6" d="M576.1,384.9l32.3,10.2l6.4,2.7l-15,0.9l11,6.6l-9.3,1.4c0,0,8.2,4.7,6.1,4.6c-2.1-0.1-11.5,4.7-12.6,6.6
		c-1.2,1.9-0.1,6.9-0.1,6.9l-1.8-0.6l1.7,3.1l-3.5,6.7l-7.1-7.1l-19.4,24c0,0-6.7-14.2-6.1-22.1c0.8-12.1,5.5-33.2,5.7-35.7
		s12.8-3.5,16-6.4"/>
	<path class="st7" d="M701.5,446.9c0,0-8.3,4.2-13,1.8c-4.6-2.4,0.1,4.9,1.9,5.7c1.8,0.9-4.2,1.4-7-0.8s-0.6-1.8-4,1.3l-2.9-9.2
		c0,0-7.3,2.8-0.6,17.1c0.4,0.9-4.8-1.2-8.4-6.7l1.8,4.8c0,0-5.2-5.6-4.2-11.4c0.1-1.6,0.6-3.1,1.4-4.5c0.4-0.9-0.2,1.2-5.5,2.9
		c0,0-1.2-11.7-4.9-13.5l1.9,13.3c-0.5-0.2-12.2-23.6-15.3-28.4c0.1,4.2,1.4,8.4,3.6,12c0.1,0.3-7.1-0.2-11.6-7.1
		c-4.5-6.9-8.6-19.1-8.6-19.1s-22.6-5.7-26.2-6.7c-1.8-0.5,11,6.6,11,6.6l-29.8,3.6l-4.1-7.3c0,0-15,3.4-16.2,3.3
		c-1.2-0.1,6.5-3.9,6.5-3.9s-14.2-1-15.5-0.5c-1.3,0.6,7.8-4.3,7.4-5.4c-0.4-1.1-9.8-4.1-12.1-2.8c-2.3,1.3,8.1-5.7,9.5-5.3
		s-4.6-3.9-5.9-5.7c1.2,0.9,8-1,8-1s2.5-11.9,2.9-17.5c1.7,3,4.9,7.8,5.5,8.8c1,1.5,4.6-11,4-12.6c-0.6-1.6,3.2,3.6,3.2,3.6
		s0.5-8.4-0.8-10.6s10.7,1,13.1,3.6c2.4,2.6-1.5-2.6,1.5-8.1c0.2-0.4,1.4,6.2,3.7,5.9c0.3-0.1-2.5-10.7,1.2-16
		c0.3-0.4,12.6,10.4,12.6,10.4c2.9-7,6.4-9.8,10.6-10.7c4.2-0.8,7.1-1.7,12.3-1.1c4.9,0.6,9.3-1.3,16.1-2c2.1-0.2-13.9,8.3-13.9,8.3
		s13.3,1.6,15.5,2.7c2.2,1.1,12.7,6.4,15.8,8.2c3.1,1.8,15.9,4.2,19.5,4.1c3.6-0.1,7.7,0.1,9.8-1.6c1.3-1-14.1,13.6-17.5,13.6
		c-1.1,0,2.8,2.3,10.4-2.4c0.6-0.4-1.5,7.9-12.7,8.6c0,0-0.8,2.1,8,2.7c14.4,1,22.1-13.7,22.1-13.7s-11.7,24.4-16.6,24.8
		c-0.7,0.1,10.5-0.3,11.8-4.5c0.5-1.6-6.8,15.4-6.9,15.8c-0.2,1.1,8.3-1.8,12-5.8c1.4-1.5-4.7,9.2-7.1,9.8
		c-2.2,0.6,7.4,11.2,11.6,15c2,1.8-8.5-6.6-10-2c0,0,9.4,6.3,10.3,10.1c0.2,0.9-7.2-3.2-13.4-2.7c-1.4,0.1,7.3,7.7,7.3,7.7
		l-11.6-3.5c0,0,2.8,12.8,8.6,15.6C703.3,447.7,701.5,446.9,701.5,446.9z"/>
	
		<ellipse transform="matrix(0.9982 -5.930620e-02 5.930620e-02 0.9982 -24.4238 34.9544)" class="st5" cx="576.7" cy="428.9" rx="9.1" ry="15.2"/>
	<path class="st7" d="M644.8,445.7c-0.4-0.3-10.4-7.7-15.3-15.3c-0.1-0.1-0.2-0.2-0.2-0.3c-0.2-0.5,0-1.1,0.5-1.3
		c0.5-0.2,1.1,0,1.3,0.5c4.7,7.3,14.7,14.7,14.9,14.8c0.2,0.2,0.3,0.4,0.4,0.7c0,0.6-0.4,1-1,1C645.2,445.9,645,445.9,644.8,445.7z"
		/>
	<path class="st8" d="M632.6,451.1c-0.8-3.5-1.5-4.2-1.7-4.3l1.3-1.5c0.9,0.7,1.6,2.5,2.3,5.5l-0.9,0.3l0.1,1L632.6,451.1z"/>
	<path class="st1" d="M629.7,463c-1.1,0-2-1-2-2.1c0,0,0-2.4-2.7-8.6c-1.3-3-4.9-6.1-4.9-6.1c0,0,0,0,0,0c-0.9-0.8-1-2.1-0.2-3
		c0,0,0,0,0.1-0.1c0.8-0.9,2.1-0.9,2.9-0.2c0.2,0.2,4.3,3.8,6,7.6c3.1,7.1,3.1,9.9,3.1,10.4c0,1.1-1,2-2.1,2L629.7,463z"/>
	<path class="st9" d="M609.7,481.2c0-0.1-1.3-3.6-5.5-8.1c-0.2-0.3-0.2-0.8,0-1.1c0.3-0.4,0.9-0.6,1.4-0.2c4.6,4.8,6,8.6,6,8.8
		c0.2,0.5-0.1,1.1-0.6,1.2c-0.1,0-0.2,0.1-0.3,0.1C610.2,481.9,609.9,481.6,609.7,481.2z"/>
	
		<ellipse transform="matrix(0.7071 -0.7071 0.7071 0.7071 -141.823 560.1416)" class="st10" cx="605.2" cy="451.3" rx="5.3" ry="8.8"/>
	<path class="st5" d="M568.5,478.2c-6.4,2.7-10,3.7-16.2,1.9c-6.2-1.8-14.4-10.2-14.4-10.2s-16.4-1.5-21.4-1.9
		c-4.9-0.4-3.1-8.9-2-11.2c1.1-2.4,24.5-9.1,30-8.5c5.5,0.6,24.2,12.6,26.4,18.9C573.1,473.5,572.9,476.4,568.5,478.2z"/>
	<path class="st1" d="M574.1,471.4c-0.1,8.9-7.8,11.9-10.4,12.9c-7,2.7-30.5-9.3-27.6-11s19.1-25,19.1-25
		C557.5,449.5,574.2,459.4,574.1,471.4z"/>
	<path class="st1" d="M584.7,514.8c-7,0-27.4-5.8-27.4-5.8s-22.9,9.1-19.9,23.6c3,14.5,11.5,18,17.5,18.9c4.4,0.6,18.1-2.3,19.1-4.9
		c3.3-8.5,18.7-21.9,31-24.2C605.1,522.5,601.8,514.8,584.7,514.8z"/>
</g>
</svg>
