<?xml version="1.0" encoding="utf-8"?>
<!-- Generator: Adobe Illustrator 24.0.1, SVG Export Plug-In . SVG Version: 6.00 Build 0)  -->
<svg version="1.1" id="Calque_1" xmlns="http://www.w3.org/2000/svg" xmlns:xlink="http://www.w3.org/1999/xlink" x="0px" y="0px"
	 viewBox="0 0 1897 383" style="enable-background:new 0 0 1897 383;" xml:space="preserve">
<style type="text/css">
	.st0{display:none;}
	.st1{display:inline;fill:#0000FF;}
	.st2{fill:#C39049;}
	.st3{fill:#0A0A0A;}
	.st4{fill:#424241;}
	.st5{fill:#4C4C4C;}
	.st6{fill:#222526;}
	.st7{fill:#CD9A51;}
	.st8{fill:#DFAC6A;}
	.st9{fill:#4F361B;}
	.st10{fill:#0C0101;}
	.st11{fill:#FFBC00;}
	.st12{opacity:0.4;fill:#282624;enable-background:new    ;}
</style>
<g class="st0">
	<rect y="-0.1" class="st1" width="316.2" height="383"/>
	<rect x="316.2" y="-0.1" class="st1" width="316.2" height="383"/>
	<rect x="632.3" y="-0.1" class="st1" width="316.2" height="383"/>
	<rect x="1264.7" y="0" class="st1" width="316.2" height="383"/>
	<rect x="948.5" y="0" class="st1" width="316.2" height="383"/>
	<rect x="1580.9" y="0" class="st1" width="316.2" height="383"/>
</g>
<g>
	<g>
		<path class="st2" d="M214.8,209.7c0,0,28.7-52.3,28-58.3c-0.5-4.5-4.6-12.5-7.1-11.5c-8.5,3.4-38.9,45-38.9,45l-1.7,8.2
			L214.8,209.7z"/>
		<polygon class="st3" points="215.9,213.1 226.9,191.7 206,170.4 193.3,184.9 198.1,203.2 		"/>
	</g>
	<g>
		<path class="st3" d="M159.5,193.1c-3.4,3.4-20.9,35-20.5,41.7s-1.1,39.8,26,47.6c27.2,7.8,41.3,20.5,51.7,3.7
			c10.4-16.7,2.9-73.5-6-84.8c-10.4-13.4-17.5-16.4-17.5-16.4L159.5,193.1z"/>
		<path class="st4" d="M159.5,193.1c0,0,10.5,47.3,19.9,54.4s36,23.1,39.8,22.7s2.5-10.4,2.5-10.4s-36.3-13.7-40-23.8
			s-16.2-42.1-16.2-42.1L159.5,193.1z"/>
		<polygon class="st5" points="193.3,184.9 200.2,176.9 181.8,235.9 178,225.9 		"/>
		<polygon class="st2" points="165.6,193.9 178,225.9 193.3,184.9 167.3,183.6 		"/>
	</g>
	<g>
		<path class="st2" d="M136.5,296.3c-0.2,2.1,6.6,11.1,9.6,11.1c7.8,0,12.2-19.1,12.2-19.1l-16.8-5.1L136.5,296.3z"/>
		<path class="st3" d="M139,239.6c0,0-27.2,14.9-18.6,35.7s8.2,17.2,11.9,19s10.1,2.2,14.5,1.8s14.9-11.5,18.2-13.8
			c3.3-2.2-9.3-39.8-9.3-39.8L139,239.6z"/>
	</g>
	<g>
		<path class="st2" d="M184,307.3c0,0,2.5,31.3,5.1,33.1c2.6,1.9,12.6,8.9,16.1,5.6s4.5-42.4,4.5-42.4L184,307.3z"/>
		<path class="st3" d="M174.7,285.5c0,0,8.8,19.2,5.7,23.3c-3.1,4.1,34.5,4.8,34.5,4.8s9.6-36,5.7-39.4
			C216.7,270.9,174.7,285.5,174.7,285.5z"/>
	</g>
	<g>
		<path class="st2" d="M143.1,220.3l-8.6,1.1c0,0-3.3-4.8-8.2-2.2c-4.8,2.6-10,7.8-7.6,9.7s7.4,7.4,11.4,7.1c4-0.4,8.9-1.1,8.9-1.1
			l8.4,1.1l3.2-17.1L143.1,220.3z"/>
		<path class="st3" d="M160.2,197.2c-10.6-5.5-16.2,7.5-16.2,7.5l-5,13.7l10.6,4.9l10.6-13.5L160.2,197.2L160.2,197.2z"/>
	</g>
	<g>
		<g>
			<rect x="217" y="92.3" class="st6" width="5.1" height="28"/>
			<polygon class="st6" points="109.9,149.1 104,150.7 95.9,123.8 101.8,122.3 			"/>
		</g>
		<g>
			<ellipse transform="matrix(0.866 -0.5 0.5 0.866 -64.5227 77.207)" class="st7" cx="111.8" cy="159" rx="9.5" ry="18.5"/>
			
				<ellipse transform="matrix(8.373723e-02 -0.9965 0.9965 8.373723e-02 68.3402 342.0463)" class="st7" cx="220.2" cy="133.9" rx="18.5" ry="9.5"/>
			<path class="st7" d="M83.2,91.2c-0.8,1.1,39,88.6,42,92.4c3,3.8,38.6,12.7,51,11.4c8.3-0.8,35.6-25.9,36.7-31s4.6-88.4,2.4-95.8
				C213,60.6,83.2,91.2,83.2,91.2z"/>
		</g>
		<g>
			
				<ellipse transform="matrix(0.979 -0.2037 0.2037 0.979 -24.7597 30.6483)" class="st3" cx="136.5" cy="135.6" rx="7.1" ry="15.9"/>
			
				<ellipse transform="matrix(0.9893 -0.1459 0.1459 0.9893 -22.7744 21.0768)" class="st8" cx="132.3" cy="165.8" rx="9.5" ry="5.9"/>
			
				<ellipse transform="matrix(0.9178 -0.397 0.397 0.9178 -41.0991 92.4687)" class="st8" cx="202.8" cy="145.5" rx="9.5" ry="5.9"/>
			
				<ellipse transform="matrix(0.979 -0.2037 0.2037 0.979 -21.7205 39.3729)" class="st3" cx="180.4" cy="125.2" rx="7.1" ry="15.9"/>
			<path class="st9" d="M150.5,153.6l22.8-5.5c0,0,6.4,32.9,0,35.4C166.9,185.9,150.5,153.6,150.5,153.6z"/>
		</g>
	</g>
	<g>
		<polygon class="st6" points="103.4,141 102.4,127.7 121.2,156.9 		"/>
		<polygon class="st6" points="101.6,137.6 98,122.3 118.7,137.6 		"/>
		<polygon class="st6" points="222.1,105.3 214.1,94.5 201.7,116.3 		"/>
		<polygon class="st6" points="221.4,112.4 216,103.9 204.3,135.6 		"/>
		<path class="st10" d="M226.7,98.3c-1.3-0.1-4.8-5.2-4.8-5.2s5-9.4,7.9-13.4c-2.8,1-7.7,2.5-8.7,2.8c-1.6,0.5,3-10,4.4-10.8
			c1.4-0.7-4.2,0.6-4.2,0.6s4.4-6,6.5-6.7c2-0.7-7.7-5.4-10.9-5c-3.1,0.4,2.5-0.9,3.6-6.3c0.1-0.4-4.4,3.4-5.8,1.9
			c-0.2-0.2,7.7-5.8,8.2-11.4c0-0.4-15,2.6-15,2.6c-1.5-7.6-2.3-12.3-4.6-15.2s-12.2-13.5-15.8-15.6c-1.6-1,5.5,13.8,5.5,13.8
			s-8.1-9.8-10.2-10.3c-2.1-0.5-12.1-2.9-15.2-3.4c-2.2-0.4-7.6-3.1-11.5-5.5c-0.3-0.8-3.3-2.1-3.9-2.7c-2.4-2.1-5.2-4.3-5.7-6.6
			c-0.3-1.4,1.9,17.1,4.2,19c0.8,0.6-3.1,0-5.7-7.4c-0.2-0.6-3.5,6.2,3.7,13c0,0-0.4,1.3-4.1-0.8c-0.3-3.7-2.2-5.7-2.3-5.3
			c-0.1,1.4-0.2,2.5-0.5,3.6c0,0,0,0-0.1,0c-1-0.7-1.8-1.4-2.6-2.1c-0.4-6.1-1.6-13.4-1.6-12.5c0.2,2.2-1.6,4.8-3.3,7.3
			c-3.7-5-4.5-9.2-4.5-9.2s-0.5,8.3,0.1,14.5c-1.9,2-4.1,4.1-6,5.7c-1-0.3-1.8-0.8-2.2-1.3c-0.4-0.6-0.2,1.1,0,3
			c-0.4,0.2-0.7,0.5-1,0.6c-0.2,0.1-0.5,0.3-0.9,0.4c-1.2-2.2-2.4-5.3-2.5-7.8c-0.1-1.6-1.6,6.6-1.1,9.7c-1.2,0.6-2.4,1.3-3.6,1.9
			c-3.7,0.3-9.1,0.5-11.7,2.1c0.2-0.8,0.3-1.2,0-0.9c-3,3.1-7.2,7.3-10.2,10.7c-3.2,3.6-4,6.2-5.5,9.8c-1.5,3.5,0.2,10.2,3.9,15.9
			c0,0-15.8,1.1-15.7,1.6c2.1,5.5,11.5,8.8,11.3,9.1c-1,1.9-6.5-0.7-6.3-0.3c2.5,5,8.5,4.8,5.3,5.2c-3.2,0.5-11.6,7.8-9.4,7.9
			c2.2,0.2,8.3,4.9,8.3,4.9s-5.9,0.2-4.4,0.5c1.6,0.4,9.1,9.5,7.4,9.5c-1.1,0-6.3-0.1-9.4-0.4c4,3.1,11.6,11.1,11.6,11.1
			s-2.1,6.1-3.3,6.5c2.1,0,8.3-2.4,7.3-1.5c-1.1,0.9-1.1,12.2-0.9,9.8s7.3-7.8,8.3-7.6s0,9.6,0.3,8.3s6.3-6.7,6.3-6.7l10.2-1
			l-7.2-6.1c0,0,1.6-24.3,2.9-25.4C114.2,95,141,83.4,141,83.4s13.5,2.6,20.8,4.2c11.7,2.5,14,0.7,14,0.7s-11.3-3.7-15.6-10.1
			c1.4,0,3.8,0.3,6.7,0.6c6.9,1.6,17.3,4.1,19.3,5c1.5,0.7,11.3,13.5,11.3,13.5s8.2,10.7,9.1,11.3c0.9,0.6-2.2-6.2-2.2-6.2
			s10.1,7.3,10.7,8.4c0.6,1.1-2.8-7.3-1.9-7.8c0.9-0.5,9,2.8,9.8,4.9c0.8,2.2-2.1-8.4-3.4-8.9C218.3,98.3,224.7,98.8,226.7,98.3z
			 M97.2,45.7c0.3,0,0.7-0.1,1-0.1c-1.1,1.2-1.8,2-1.8,2S96.7,46.8,97.2,45.7z M105.9,37.8c-1.3,1-3.8,3.6-5.8,5.8
			c-0.8,0.3-1.6,0.6-2.4,1c1-2.5,2.4-5.9,3-7.8C101.6,36.9,104,37.1,105.9,37.8z"/>
	</g>
</g>
<g>
	<g>
		<g>
			<path class="st2" d="M531,209.7c0,0,28.7-52.3,28-58.3c-0.5-4.5-4.6-12.5-7.1-11.5c-8.5,3.4-38.9,45-38.9,45l-1.7,8.2L531,209.7z
				"/>
			<polygon class="st3" points="532,213.1 543.1,191.7 522.1,170.4 509.4,184.9 514.3,203.2 			"/>
		</g>
		<g>
			<path class="st3" d="M475.7,193.1c-3.4,3.4-20.9,35-20.5,41.7s-1.1,39.8,26,47.6c27.2,7.8,41.3,20.5,51.7,3.7
				c10.4-16.7,2.9-73.5-6-84.8c-10.4-13.4-17.5-16.4-17.5-16.4L475.7,193.1z"/>
			<path class="st4" d="M475.7,193.1c0,0,10.5,47.3,19.9,54.4s36,23.1,39.8,22.7c3.8-0.4,2.5-10.4,2.5-10.4s-36.3-13.7-40-23.8
				s-16.2-42.1-16.2-42.1L475.7,193.1z"/>
			<polygon class="st5" points="509.4,184.9 516.4,176.9 497.9,235.9 494.2,225.9 			"/>
			<polygon class="st2" points="481.8,193.9 494.2,225.9 509.4,184.9 483.4,183.6 			"/>
		</g>
		<g>
			<path class="st2" d="M452.6,296.3c-0.2,2.1,6.6,11.1,9.6,11.1c7.8,0,12.2-19.1,12.2-19.1l-16.8-5.1L452.6,296.3z"/>
			<path class="st3" d="M455.1,239.6c0,0-27.2,14.9-18.6,35.7c8.6,20.8,8.2,17.2,11.9,19c3.7,1.8,10.1,2.2,14.5,1.8
				c4.5-0.4,14.9-11.5,18.2-13.8c3.3-2.2-9.3-39.8-9.3-39.8L455.1,239.6z"/>
		</g>
		<g>
			<path class="st2" d="M500.2,307.3c0,0,2.5,31.3,5.1,33.1c2.6,1.9,12.6,8.9,16.1,5.6s4.5-42.4,4.5-42.4L500.2,307.3z"/>
			<path class="st3" d="M490.8,285.5c0,0,8.8,19.2,5.7,23.3s34.5,4.8,34.5,4.8s9.6-36,5.7-39.4C532.9,270.9,490.8,285.5,490.8,285.5
				z"/>
		</g>
		<g>
			<path class="st2" d="M459.2,220.3l-8.6,1.1c0,0-3.3-4.8-8.2-2.2c-4.8,2.6-10,7.8-7.6,9.7s7.4,7.4,11.4,7.1c4-0.4,8.9-1.1,8.9-1.1
				l8.4,1.1l3.2-17.1L459.2,220.3z"/>
			<path class="st3" d="M476.4,197.2c-10.6-5.5-16.2,7.5-16.2,7.5l-5,13.7l10.6,4.9l10.6-13.5V197.2z"/>
		</g>
		<g>
			<g>
				<rect x="533.2" y="92.3" class="st6" width="5.1" height="28"/>
				<polygon class="st6" points="426.1,149.1 420.2,150.7 412.1,123.8 417.9,122.3 				"/>
			</g>
			<g>
				<ellipse transform="matrix(0.866 -0.5 0.5 0.866 -22.1556 235.3098)" class="st7" cx="428" cy="159" rx="9.5" ry="18.5"/>
				
					<ellipse transform="matrix(8.373723e-02 -0.9965 0.9965 8.373723e-02 358.0249 657.1704)" class="st7" cx="536.4" cy="133.9" rx="18.5" ry="9.5"/>
				<path class="st7" d="M399.3,91.2c-0.8,1.1,39,88.6,42,92.4c3,3.8,38.6,12.7,51,11.4c8.3-0.8,35.6-25.9,36.7-31
					c1.1-5.1,4.6-88.4,2.4-95.8C529.2,60.6,399.3,91.2,399.3,91.2z"/>
			</g>
			<g>
				
					<ellipse transform="matrix(0.979 -0.2037 0.2037 0.979 -18.1297 95.0587)" class="st3" cx="452.7" cy="135.6" rx="7.1" ry="15.9"/>
				
					<ellipse transform="matrix(0.9893 -0.1459 0.1459 0.9893 -19.392 67.1955)" class="st8" cx="448.4" cy="165.8" rx="9.5" ry="5.9"/>
				
					<ellipse transform="matrix(0.9178 -0.397 0.397 0.9178 -15.1111 218.0022)" class="st8" cx="519" cy="145.5" rx="9.5" ry="5.9"/>
				
					<ellipse transform="matrix(0.979 -0.2037 0.2037 0.979 -15.0904 103.7833)" class="st3" cx="496.6" cy="125.2" rx="7.1" ry="15.9"/>
				<path class="st9" d="M466.7,153.6l22.8-5.5c0,0,6.4,32.9,0,35.4C483.1,185.9,466.7,153.6,466.7,153.6z"/>
			</g>
		</g>
		<g>
			<polygon class="st6" points="419.6,141 418.6,127.7 437.3,156.9 			"/>
			<polygon class="st6" points="417.8,137.6 414.2,122.3 434.9,137.6 			"/>
			<polygon class="st6" points="538.3,105.3 530.3,94.5 517.9,116.3 			"/>
			<polygon class="st6" points="537.6,112.4 532.2,103.9 520.5,135.6 			"/>
			<path class="st10" d="M542.8,98.3c-1.3-0.1-4.8-5.2-4.8-5.2s5-9.4,7.9-13.4c-2.8,1-7.7,2.5-8.7,2.8c-1.6,0.5,3-10,4.4-10.8
				c1.4-0.7-4.2,0.6-4.2,0.6s4.4-6,6.5-6.7c2-0.7-7.7-5.4-10.9-5c-3.1,0.4,2.5-0.9,3.6-6.3c0.1-0.4-4.4,3.4-5.8,1.9
				c-0.2-0.2,7.7-5.8,8.2-11.4c0-0.4-15,2.6-15,2.6c-1.5-7.6-2.3-12.3-4.6-15.2s-12.2-13.5-15.8-15.6c-1.6-1,5.5,13.8,5.5,13.8
				s-8.1-9.8-10.2-10.3s-12.1-2.9-15.2-3.4c-2.2-0.4-7.6-3.1-11.5-5.5c-0.3-0.8-3.3-2.1-3.9-2.7c-2.4-2.1-5.2-4.3-5.7-6.6
				c-0.3-1.4,1.9,17.1,4.2,19c0.8,0.6-3.1,0-5.7-7.4c-0.2-0.6-3.5,6.2,3.7,13c0,0-0.4,1.3-4.1-0.8c-0.3-3.7-2.2-5.7-2.3-5.3
				c-0.1,1.4-0.2,2.5-0.5,3.6c0,0,0,0-0.1,0c-1-0.7-1.8-1.4-2.6-2.1c-0.4-6.1-1.6-13.4-1.6-12.5c0.2,2.2-1.6,4.8-3.3,7.3
				c-3.7-5-4.5-9.2-4.5-9.2s-0.5,8.3,0.1,14.5c-1.9,2-4.1,4.1-6,5.7c-1-0.3-1.8-0.8-2.2-1.3c-0.4-0.6-0.2,1.1,0,3
				c-0.4,0.2-0.7,0.5-1,0.6c-0.2,0.1-0.5,0.3-0.9,0.4c-1.2-2.2-2.4-5.3-2.5-7.8c-0.1-1.6-1.6,6.6-1.1,9.7c-1.2,0.6-2.4,1.3-3.6,1.9
				c-3.7,0.3-9.1,0.5-11.7,2.1c0.2-0.8,0.3-1.2,0-0.9c-3,3.1-7.2,7.3-10.2,10.7c-3.2,3.6-4,6.2-5.5,9.8c-1.5,3.5,0.2,10.2,3.9,15.9
				c0,0-15.8,1.1-15.7,1.6c2.1,5.5,11.5,8.8,11.3,9.1c-1,1.9-6.5-0.7-6.3-0.3c2.5,5,8.5,4.8,5.3,5.2c-3.2,0.5-11.6,7.8-9.4,7.9
				c2.2,0.2,8.3,4.9,8.3,4.9s-5.9,0.2-4.4,0.5c1.6,0.4,9.1,9.5,7.4,9.5c-1.1,0-6.3-0.1-9.4-0.4c4,3.1,11.6,11.1,11.6,11.1
				s-2.1,6.1-3.3,6.5c2.1,0,8.3-2.4,7.3-1.5c-1.1,0.9-1.1,12.2-0.9,9.8s7.3-7.8,8.3-7.6s0,9.6,0.3,8.3s6.3-6.7,6.3-6.7l10.2-1
				l-7.2-6.1c0,0,1.6-24.3,2.9-25.4c2.6-2.2,29.4-13.8,29.4-13.8s13.5,2.6,20.8,4.2c11.7,2.5,14,0.7,14,0.7s-11.3-3.7-15.6-10.1
				c1.4,0,3.8,0.3,6.7,0.6c6.9,1.6,17.3,4.1,19.3,5c1.5,0.7,11.3,13.5,11.3,13.5s8.2,10.7,9.1,11.3c0.9,0.6-2.2-6.2-2.2-6.2
				s10.1,7.3,10.7,8.4c0.6,1.1-2.8-7.3-1.9-7.8c0.9-0.5,9,2.8,9.8,4.9c0.8,2.2-2.1-8.4-3.4-8.9C534.4,98.3,540.9,98.8,542.8,98.3z
				 M413.4,45.7c0.3,0,0.7-0.1,1-0.1c-1.1,1.2-1.8,2-1.8,2S412.9,46.8,413.4,45.7z M422,37.8c-1.3,1-3.8,3.6-5.8,5.8
				c-0.8,0.3-1.6,0.6-2.4,1c1-2.5,2.4-5.9,3-7.8C417.8,36.9,420.2,37.1,422,37.8z"/>
		</g>
	</g>
	<polygon class="st11" points="599.4,65 591,61.1 583,65.9 584.1,56.6 577.1,50.5 586.2,48.7 589.9,40.2 594.4,48.3 603.7,49.1 
		597.4,55.9 	"/>
</g>
<g>
	<g>
		<g>
			<path class="st2" d="M847.7,209.7c0,0,28.7-52.3,28-58.3c-0.5-4.5-4.6-12.5-7.1-11.5c-8.5,3.4-38.9,45-38.9,45l-1.7,8.2
				L847.7,209.7z"/>
			<polygon class="st3" points="848.7,213.1 859.7,191.7 838.8,170.4 826.1,184.9 830.9,203.2 			"/>
		</g>
		<g>
			<path class="st3" d="M792.4,193.1c-3.4,3.4-20.9,35-20.5,41.7s-1.1,39.8,26,47.6c27.2,7.8,41.3,20.5,51.7,3.7
				c10.4-16.7,2.9-73.5-6-84.8c-10.4-13.4-17.5-16.4-17.5-16.4L792.4,193.1z"/>
			<path class="st4" d="M792.4,193.1c0,0,10.5,47.3,19.9,54.4s36,23.1,39.8,22.7s2.5-10.4,2.5-10.4s-36.3-13.7-40-23.8
				s-16.2-42.1-16.2-42.1L792.4,193.1z"/>
			<polygon class="st5" points="826.1,184.9 833.1,176.9 814.6,235.9 810.9,225.9 			"/>
			<polygon class="st2" points="798.4,193.9 810.9,225.9 826.1,184.9 800.1,183.6 			"/>
		</g>
		<g>
			<path class="st2" d="M769.3,296.3c-0.2,2.1,6.6,11.1,9.6,11.1c7.8,0,12.2-19.1,12.2-19.1l-16.8-5.1L769.3,296.3z"/>
			<path class="st3" d="M771.8,239.6c0,0-27.2,14.9-18.6,35.7c8.6,20.8,8.2,17.2,11.9,19s10.1,2.2,14.5,1.8s14.9-11.5,18.2-13.8
				c3.3-2.2-9.3-39.8-9.3-39.8L771.8,239.6z"/>
		</g>
		<g>
			<path class="st2" d="M816.8,307.3c0,0,2.5,31.3,5.1,33.1c2.6,1.9,12.6,8.9,16.1,5.6s4.5-42.4,4.5-42.4L816.8,307.3z"/>
			<path class="st3" d="M807.5,285.5c0,0,8.8,19.2,5.7,23.3c-3.1,4.1,34.5,4.8,34.5,4.8s9.6-36,5.7-39.4S807.5,285.5,807.5,285.5z"
				/>
		</g>
		<g>
			<path class="st2" d="M775.9,220.3l-8.6,1.1c0,0-3.3-4.8-8.2-2.2c-4.8,2.6-10,7.8-7.6,9.7s7.4,7.4,11.4,7.1c4-0.4,8.9-1.1,8.9-1.1
				l8.4,1.1l3.2-17.1L775.9,220.3z"/>
			<path class="st3" d="M793,197.2c-10.6-5.5-16.2,7.5-16.2,7.5l-5,13.7l10.6,4.9l10.6-13.5L793,197.2L793,197.2z"/>
		</g>
		<g>
			<g>
				<rect x="849.9" y="92.3" class="st6" width="5.1" height="28"/>
				<polygon class="st6" points="742.7,149.1 736.9,150.7 728.8,123.8 734.6,122.3 				"/>
			</g>
			<g>
				<ellipse transform="matrix(0.866 -0.5 0.5 0.866 20.2548 393.6024)" class="st7" cx="744.6" cy="159" rx="9.5" ry="18.5"/>
				
					<ellipse transform="matrix(8.373723e-02 -0.9965 0.9965 8.373723e-02 648.0871 972.6844)" class="st7" cx="853" cy="133.9" rx="18.5" ry="9.5"/>
				<path class="st7" d="M716,91.2c-0.8,1.1,39,88.6,42,92.4c3,3.8,38.6,12.7,51,11.4c8.3-0.8,35.6-25.9,36.7-31
					c1.1-5.1,4.6-88.4,2.4-95.8C845.9,60.6,716,91.2,716,91.2z"/>
			</g>
			<g>
				
					<ellipse transform="matrix(0.979 -0.2037 0.2037 0.979 -11.4892 159.571)" class="st3" cx="769.4" cy="135.6" rx="7.1" ry="15.9"/>
				
					<ellipse transform="matrix(0.9893 -0.1459 0.1459 0.9893 -16.0031 113.4021)" class="st8" cx="765.1" cy="165.8" rx="9.5" ry="5.9"/>
				
					<ellipse transform="matrix(0.9178 -0.397 0.397 0.9178 10.9178 343.734)" class="st8" cx="835.7" cy="145.5" rx="9.5" ry="5.9"/>
				
					<ellipse transform="matrix(0.979 -0.2037 0.2037 0.979 -8.4523 168.2743)" class="st3" cx="813.2" cy="125.2" rx="7.1" ry="15.9"/>
				<path class="st9" d="M783.4,153.6l22.8-5.5c0,0,6.4,32.9,0,35.4C799.8,185.9,783.4,153.6,783.4,153.6z"/>
			</g>
		</g>
		<g>
			<polygon class="st6" points="736.2,141 735.3,127.7 754,156.9 			"/>
			<polygon class="st6" points="734.4,137.6 730.9,122.3 751.5,137.6 			"/>
			<polygon class="st6" points="855,105.3 847,94.5 834.6,116.3 			"/>
			<polygon class="st6" points="854.2,112.4 848.9,103.9 837.2,135.6 			"/>
			<path class="st10" d="M859.5,98.3c-1.3-0.1-4.8-5.2-4.8-5.2s5-9.4,7.9-13.4c-2.8,1-7.7,2.5-8.7,2.8c-1.6,0.5,3-10,4.4-10.8
				c1.4-0.7-4.2,0.6-4.2,0.6s4.4-6,6.5-6.7c2-0.7-7.7-5.4-10.9-5c-3.1,0.4,2.5-0.9,3.6-6.3c0.1-0.4-4.4,3.4-5.8,1.9
				c-0.2-0.2,7.7-5.8,8.2-11.4c0-0.4-15,2.6-15,2.6c-1.5-7.6-2.3-12.3-4.6-15.2s-12.2-13.5-15.8-15.6c-1.6-1,5.5,13.8,5.5,13.8
				s-8.1-9.8-10.2-10.3c-2.1-0.5-12.1-2.9-15.2-3.4c-2.2-0.4-7.6-3.1-11.5-5.5c-0.3-0.8-3.3-2.1-3.9-2.7c-2.4-2.1-5.2-4.3-5.7-6.6
				c-0.3-1.4,1.9,17.1,4.2,19c0.8,0.6-3.1,0-5.7-7.4c-0.2-0.6-3.5,6.2,3.7,13c0,0-0.4,1.3-4.1-0.8c-0.3-3.7-2.2-5.7-2.3-5.3
				c-0.1,1.4-0.2,2.5-0.5,3.6c0,0,0,0-0.1,0c-1-0.7-1.8-1.4-2.6-2.1c-0.4-6.1-1.6-13.4-1.6-12.5c0.2,2.2-1.6,4.8-3.3,7.3
				c-3.7-5-4.5-9.2-4.5-9.2s-0.5,8.3,0.1,14.5c-1.9,2-4.1,4.1-6,5.7c-1-0.3-1.8-0.8-2.2-1.3c-0.4-0.6-0.2,1.1,0,3
				c-0.4,0.2-0.7,0.5-1,0.6c-0.2,0.1-0.5,0.3-0.9,0.4c-1.2-2.2-2.4-5.3-2.5-7.8c-0.1-1.6-1.6,6.6-1.1,9.7c-1.2,0.6-2.4,1.3-3.6,1.9
				c-3.7,0.3-9.1,0.5-11.7,2.1c0.2-0.8,0.3-1.2,0-0.9c-3,3.1-7.2,7.3-10.2,10.7c-3.2,3.6-4,6.2-5.5,9.8c-1.5,3.5,0.2,10.2,3.9,15.9
				c0,0-15.8,1.1-15.7,1.6c2.1,5.5,11.5,8.8,11.3,9.1c-1,1.9-6.5-0.7-6.3-0.3c2.5,5,8.5,4.8,5.3,5.2c-3.2,0.5-11.6,7.8-9.4,7.9
				c2.2,0.2,8.3,4.9,8.3,4.9s-5.9,0.2-4.4,0.5c1.6,0.4,9.1,9.5,7.4,9.5c-1.1,0-6.3-0.1-9.4-0.4c4,3.1,11.6,11.1,11.6,11.1
				s-2.1,6.1-3.3,6.5c2.1,0,8.3-2.4,7.3-1.5c-1.1,0.9-1.1,12.2-0.9,9.8c0.2-2.4,7.3-7.8,8.3-7.6s0,9.6,0.3,8.3s6.3-6.7,6.3-6.7
				l10.2-1l-7.2-6.1c0,0,1.6-24.3,2.9-25.4c2.6-2.2,29.4-13.8,29.4-13.8s13.5,2.6,20.8,4.2c11.7,2.5,14,0.7,14,0.7
				s-11.3-3.7-15.6-10.1c1.4,0,3.8,0.3,6.7,0.6c6.9,1.6,17.3,4.1,19.3,5c1.5,0.7,11.3,13.5,11.3,13.5s8.2,10.7,9.1,11.3
				c0.9,0.6-2.2-6.2-2.2-6.2s10.1,7.3,10.7,8.4c0.6,1.1-2.8-7.3-1.9-7.8c0.9-0.5,9,2.8,9.8,4.9c0.8,2.2-2.1-8.4-3.4-8.9
				C851.1,98.3,857.6,98.8,859.5,98.3z M730,45.7c0.3,0,0.7-0.1,1-0.1c-1.1,1.2-1.8,2-1.8,2S729.6,46.8,730,45.7z M738.7,37.8
				c-1.3,1-3.8,3.6-5.8,5.8c-0.8,0.3-1.6,0.6-2.4,1c1-2.5,2.4-5.9,3-7.8C734.4,36.9,736.8,37.1,738.7,37.8z"/>
		</g>
	</g>
	<polygon class="st11" points="911.9,65.2 896.6,58.1 882,66.8 884.1,50 871.4,38.8 887.9,35.5 894.6,20 902.9,34.8 919.7,36.3 
		908.2,48.7 	"/>
	<polygon class="st11" points="719.7,227.9 711.3,224 703.2,228.7 704.4,219.5 697.3,213.3 706.5,211.5 710.2,202.9 714.8,211.1 
		724,211.9 717.7,218.8 	"/>
</g>
<g>
	<g>
		<g>
			<path class="st2" d="M1480,209.8c0,0,28.7-52.3,28-58.3c-0.5-4.5-4.6-12.5-7.1-11.5c-8.5,3.4-38.9,45-38.9,45l-1.7,8.2
				L1480,209.8z"/>
			<polygon class="st3" points="1481,213.1 1492.1,191.8 1471.1,170.5 1458.5,184.9 1463.3,203.2 			"/>
		</g>
		<g>
			<path class="st3" d="M1424.7,193.1c-3.4,3.4-20.9,35-20.5,41.7s-1.1,39.8,26,47.6c27.2,7.8,41.3,20.5,51.7,3.7
				c10.4-16.7,2.9-73.5-6-84.8c-10.4-13.4-17.5-16.4-17.5-16.4L1424.7,193.1z"/>
			<path class="st4" d="M1424.7,193.1c0,0,10.5,47.3,19.9,54.4s36,23.1,39.8,22.7s2.5-10.4,2.5-10.4s-36.3-13.7-40-23.8
				s-16.2-42.1-16.2-42.1L1424.7,193.1z"/>
			<polygon class="st5" points="1458.5,184.9 1465.4,177 1446.9,236 1443.2,225.9 			"/>
			<polygon class="st2" points="1430.8,193.9 1443.2,225.9 1458.5,184.9 1432.4,183.6 			"/>
		</g>
		<g>
			<path class="st2" d="M1401.6,296.3c-0.2,2.1,6.6,11.1,9.6,11.1c7.8,0,12.2-19.1,12.2-19.1l-16.8-5.1L1401.6,296.3z"/>
			<path class="st3" d="M1404.2,239.7c0,0-27.2,14.9-18.6,35.7c8.6,20.8,8.2,17.2,11.9,19c3.7,1.8,10.1,2.2,14.5,1.8
				s14.9-11.5,18.2-13.8c3.3-2.2-9.3-39.8-9.3-39.8L1404.2,239.7z"/>
		</g>
		<g>
			<path class="st2" d="M1449.2,307.4c0,0,2.5,31.3,5.1,33.1c2.6,1.9,12.6,8.9,16.1,5.6s4.5-42.4,4.5-42.4L1449.2,307.4z"/>
			<path class="st3" d="M1439.8,285.6c0,0,8.8,19.2,5.7,23.3c-3.1,4.1,34.5,4.8,34.5,4.8s9.6-36,5.7-39.4S1439.8,285.6,1439.8,285.6
				z"/>
		</g>
		<g>
			<path class="st2" d="M1408.3,220.3l-8.6,1.1c0,0-3.3-4.8-8.2-2.2s-10,7.8-7.6,9.7s7.4,7.4,11.4,7.1c4-0.4,8.9-1.1,8.9-1.1
				l8.4,1.1l3.2-17.1L1408.3,220.3z"/>
			<path class="st3" d="M1425.4,197.3c-10.6-5.5-16.2,7.5-16.2,7.5l-5,13.7l10.6,4.9l10.6-13.5V197.3z"/>
		</g>
		<g>
			<g>
				<rect x="1482.2" y="92.4" class="st6" width="5.1" height="28"/>
				<polygon class="st6" points="1375.1,149.2 1369.2,150.7 1361.1,123.9 1367,122.4 				"/>
			</g>
			<g>
				<ellipse transform="matrix(0.866 -0.5 0.5 0.866 104.9576 709.7661)" class="st7" cx="1376.9" cy="159" rx="9.5" ry="18.5"/>
				
					<ellipse transform="matrix(8.373723e-02 -0.9965 0.9965 8.373723e-02 1227.5588 1602.8418)" class="st7" cx="1485.4" cy="133.9" rx="18.5" ry="9.5"/>
				<path class="st7" d="M1348.3,91.2c-0.8,1.1,39,88.6,42,92.4c3,3.8,38.6,12.7,51,11.4c8.3-0.8,35.6-25.9,36.7-31
					s4.6-88.4,2.4-95.8C1478.2,60.7,1348.3,91.2,1348.3,91.2z"/>
			</g>
			<g>
				
					<ellipse transform="matrix(0.979 -0.2037 0.2037 0.979 1.7478 288.3727)" class="st3" cx="1401.7" cy="135.7" rx="7.1" ry="15.9"/>
				
					<ellipse transform="matrix(0.9893 -0.1459 0.1459 0.9893 -9.2518 205.6556)" class="st8" cx="1397.4" cy="165.9" rx="9.5" ry="5.9"/>
				
					<ellipse transform="matrix(0.9178 -0.397 0.397 0.9178 62.8847 594.7537)" class="st8" cx="1468" cy="145.5" rx="9.5" ry="5.9"/>
				
					<ellipse transform="matrix(0.979 -0.2037 0.2037 0.979 4.7871 297.0973)" class="st3" cx="1445.6" cy="125.3" rx="7.1" ry="15.9"/>
				<path class="st9" d="M1415.7,153.7l22.8-5.5c0,0,6.4,32.9,0,35.4C1432.1,185.9,1415.7,153.7,1415.7,153.7z"/>
			</g>
		</g>
		<g>
			<polygon class="st6" points="1368.6,141.1 1367.6,127.7 1386.4,156.9 			"/>
			<polygon class="st6" points="1366.8,137.6 1363.2,122.4 1383.9,137.6 			"/>
			<polygon class="st6" points="1487.3,105.4 1479.3,94.6 1466.9,116.4 			"/>
			<polygon class="st6" points="1486.6,112.4 1481.2,104 1469.5,135.6 			"/>
			<path class="st10" d="M1491.8,98.4c-1.3-0.1-4.8-5.2-4.8-5.2s5-9.4,7.9-13.4c-2.8,1-7.7,2.5-8.7,2.8c-1.6,0.5,3-10,4.4-10.8
				c1.4-0.7-4.2,0.6-4.2,0.6s4.4-6,6.5-6.7c2-0.7-7.7-5.4-10.9-5c-3.1,0.4,2.5-0.9,3.6-6.3c0.1-0.4-4.4,3.4-5.8,1.9
				c-0.2-0.2,7.7-5.8,8.2-11.4c0-0.4-15,2.6-15,2.6c-1.5-7.6-2.3-12.3-4.6-15.2c-2.3-2.9-12.2-13.5-15.8-15.6
				c-1.6-1,5.5,13.8,5.5,13.8s-8.1-9.8-10.2-10.3s-12.1-2.9-15.2-3.4c-2.2-0.4-7.6-3.1-11.5-5.5c-0.3-0.8-3.3-2.1-3.9-2.7
				c-2.4-2.1-5.2-4.3-5.7-6.6c-0.3-1.4,1.9,17.1,4.2,19c0.8,0.6-3.1,0-5.7-7.4c-0.2-0.6-3.5,6.2,3.7,13c0,0-0.4,1.3-4.1-0.8
				c-0.3-3.7-2.2-5.7-2.3-5.3c-0.1,1.4-0.2,2.5-0.5,3.6c0,0,0,0-0.1,0c-1-0.7-1.8-1.4-2.6-2.1c-0.4-6.1-1.6-13.4-1.6-12.5
				c0.2,2.2-1.6,4.8-3.3,7.3c-3.7-5-4.5-9.2-4.5-9.2s-0.5,8.3,0.1,14.5c-1.9,2-4.1,4.1-6,5.7c-1-0.3-1.8-0.8-2.2-1.3
				c-0.4-0.6-0.2,1.1,0,3c-0.4,0.2-0.7,0.5-1,0.6c-0.2,0.1-0.5,0.3-0.9,0.4c-1.2-2.2-2.4-5.3-2.5-7.8c-0.1-1.6-1.6,6.6-1.1,9.7
				c-1.2,0.6-2.4,1.3-3.6,1.9c-3.7,0.3-9.1,0.5-11.7,2.1c0.2-0.8,0.3-1.2,0-0.9c-3,3.1-7.2,7.3-10.2,10.7c-3.2,3.6-4,6.2-5.5,9.8
				c-1.5,3.5,0.2,10.2,3.9,15.9c0,0-15.8,1.1-15.7,1.6c2.1,5.5,11.5,8.8,11.3,9.1c-1,1.9-6.5-0.7-6.3-0.3c2.5,5,8.5,4.8,5.3,5.2
				c-3.2,0.5-11.6,7.8-9.4,7.9s8.3,4.9,8.3,4.9s-5.9,0.2-4.4,0.5c1.6,0.4,9.1,9.5,7.4,9.5c-1.1,0-6.3-0.1-9.4-0.4
				c4,3.1,11.6,11.1,11.6,11.1s-2.1,6.1-3.3,6.5c2.1,0,8.3-2.4,7.3-1.5c-1.1,0.9-1.1,12.2-0.9,9.8s7.3-7.8,8.3-7.6s0,9.6,0.3,8.3
				s6.3-6.7,6.3-6.7l10.2-1l-7.2-6.1c0,0,1.6-24.3,2.9-25.4c2.6-2.2,29.4-13.8,29.4-13.8s13.5,2.6,20.8,4.2c11.7,2.5,14,0.7,14,0.7
				s-11.3-3.7-15.6-10.1c1.4,0,3.8,0.3,6.7,0.6c6.9,1.6,17.3,4.1,19.3,5c1.5,0.7,11.3,13.5,11.3,13.5s8.2,10.7,9.1,11.3
				c0.9,0.6-2.2-6.2-2.2-6.2s10.1,7.3,10.7,8.4s-2.8-7.3-1.9-7.8s9,2.8,9.8,4.9c0.8,2.2-2.1-8.4-3.4-8.9
				C1483.5,98.4,1489.9,98.9,1491.8,98.4z M1362.4,45.7c0.3,0,0.7-0.1,1-0.1c-1.1,1.2-1.8,2-1.8,2S1361.9,46.9,1362.4,45.7z
				 M1371,37.8c-1.3,1-3.8,3.6-5.8,5.8c-0.8,0.3-1.6,0.6-2.4,1c1-2.5,2.3-5.9,3-7.8C1366.8,37,1369.2,37.2,1371,37.8z"/>
		</g>
	</g>
	<polygon class="st11" points="1544.3,65.3 1528.9,58.2 1514.4,66.8 1516.4,50 1503.7,38.9 1520.3,35.6 1527,20.1 1535.2,34.8 
		1552,36.4 1540.6,48.8 	"/>
	<polygon class="st11" points="1352.1,227.9 1343.6,224 1335.6,228.8 1336.7,219.5 1329.7,213.3 1338.8,211.5 1342.5,203 
		1347.1,211.1 1356.4,212 1350,218.8 	"/>
</g>
<g>
	<g>
		<g>
			<path class="st2" d="M1163.3,209.8c0,0,28.7-52.3,28-58.3c-0.5-4.5-4.6-12.5-7.1-11.5c-8.5,3.4-38.9,45-38.9,45l-1.7,8.2
				L1163.3,209.8z"/>
			<polygon class="st3" points="1164.4,213.1 1175.4,191.8 1154.5,170.5 1141.8,184.9 1146.6,203.2 			"/>
		</g>
		<g>
			<path class="st3" d="M1108,193.1c-3.4,3.4-20.9,35-20.5,41.7s-1.1,39.8,26,47.6c27.2,7.8,41.3,20.5,51.7,3.7
				c10.4-16.7,2.9-73.5-6-84.8c-10.4-13.4-17.5-16.4-17.5-16.4L1108,193.1z"/>
			<path class="st4" d="M1108,193.1c0,0,10.5,47.3,19.9,54.4s36,23.1,39.8,22.7s2.5-10.4,2.5-10.4s-36.3-13.7-40-23.8
				s-16.2-42.1-16.2-42.1L1108,193.1z"/>
			<polygon class="st5" points="1141.8,184.9 1148.7,177 1130.3,236 1126.6,225.9 			"/>
			<polygon class="st2" points="1114.1,193.9 1126.6,225.9 1141.8,184.9 1115.8,183.6 			"/>
		</g>
		<g>
			<path class="st2" d="M1085,296.3c-0.2,2.1,6.6,11.1,9.6,11.1c7.8,0,12.2-19.1,12.2-19.1l-16.8-5.1L1085,296.3z"/>
			<path class="st3" d="M1087.5,239.7c0,0-27.2,14.9-18.6,35.7c8.6,20.8,8.2,17.2,11.9,19s10.1,2.2,14.5,1.8
				c4.5-0.4,14.9-11.5,18.2-13.8c3.3-2.2-9.3-39.8-9.3-39.8L1087.5,239.7z"/>
		</g>
		<g>
			<path class="st2" d="M1132.5,307.4c0,0,2.5,31.3,5.1,33.1c2.6,1.9,12.6,8.9,16.1,5.6s4.5-42.4,4.5-42.4L1132.5,307.4z"/>
			<path class="st3" d="M1123.2,285.6c0,0,8.8,19.2,5.7,23.3c-3.1,4.1,34.5,4.8,34.5,4.8s9.6-36,5.7-39.4
				C1165.3,270.9,1123.2,285.6,1123.2,285.6z"/>
		</g>
		<g>
			<path class="st2" d="M1091.6,220.3l-8.6,1.1c0,0-3.3-4.8-8.2-2.2c-4.8,2.6-10,7.8-7.6,9.7s7.4,7.4,11.4,7.1
				c4-0.4,8.9-1.1,8.9-1.1l8.4,1.1l3.2-17.1L1091.6,220.3z"/>
			<path class="st3" d="M1108.7,197.3c-10.6-5.5-16.2,7.5-16.2,7.5l-5,13.7l10.6,4.9l10.6-13.5V197.3z"/>
		</g>
		<g>
			<g>
				<rect x="1165.5" y="92.4" class="st6" width="5.1" height="28"/>
				<polygon class="st6" points="1058.4,149.2 1052.5,150.7 1044.4,123.9 1050.3,122.4 				"/>
			</g>
			<g>
				<ellipse transform="matrix(0.866 -0.5 0.5 0.866 62.5605 551.4503)" class="st7" cx="1060.3" cy="159" rx="9.5" ry="18.5"/>
				
					<ellipse transform="matrix(8.373723e-02 -0.9965 0.9965 8.373723e-02 937.3984 1287.4044)" class="st7" cx="1168.8" cy="134" rx="18.5" ry="9.5"/>
				<path class="st7" d="M1031.7,91.2c-0.8,1.1,39,88.6,42,92.4c3,3.8,38.6,12.7,51,11.4c8.3-0.8,35.6-25.9,36.7-31
					s4.6-88.4,2.4-95.8C1161.5,60.7,1031.7,91.2,1031.7,91.2z"/>
			</g>
			<g>
				
					<ellipse transform="matrix(0.979 -0.2037 0.2037 0.979 -4.8927 223.8605)" class="st3" cx="1085" cy="135.7" rx="7.1" ry="15.9"/>
				
					<ellipse transform="matrix(0.9893 -0.1459 0.1459 0.9893 -12.6396 159.4639)" class="st8" cx="1080.8" cy="165.9" rx="9.5" ry="5.9"/>
				
					<ellipse transform="matrix(0.9178 -0.397 0.397 0.9178 36.8557 469.022)" class="st8" cx="1151.3" cy="145.5" rx="9.5" ry="5.9"/>
				
					<ellipse transform="matrix(0.979 -0.2037 0.2037 0.979 -1.8534 232.5851)" class="st3" cx="1128.9" cy="125.3" rx="7.1" ry="15.9"/>
				<path class="st9" d="M1099,153.7l22.8-5.5c0,0,6.4,32.9,0,35.4C1115.4,185.9,1099,153.7,1099,153.7z"/>
			</g>
		</g>
		<g>
			<polygon class="st6" points="1051.9,141.1 1050.9,127.7 1069.7,156.9 			"/>
			<polygon class="st6" points="1050.1,137.6 1046.6,122.4 1067.2,137.6 			"/>
			<polygon class="st6" points="1170.6,105.4 1162.6,94.6 1150.2,116.4 			"/>
			<polygon class="st6" points="1169.9,112.4 1164.6,104 1152.8,135.6 			"/>
			<path class="st10" d="M1175.2,98.4c-1.3-0.1-4.8-5.2-4.8-5.2s5-9.4,7.9-13.4c-2.8,1-7.7,2.5-8.7,2.8c-1.6,0.5,3-10,4.4-10.8
				c1.4-0.7-4.2,0.6-4.2,0.6s4.4-6,6.5-6.7c2-0.7-7.7-5.4-10.9-5c-3.1,0.4,2.5-0.9,3.6-6.3c0.1-0.4-4.4,3.4-5.8,1.9
				c-0.2-0.2,7.7-5.8,8.2-11.4c0-0.4-15,2.6-15,2.6c-1.5-7.6-2.3-12.3-4.6-15.2c-2.3-2.9-12.2-13.5-15.8-15.6
				c-1.6-1,5.5,13.8,5.5,13.8s-8.1-9.8-10.2-10.3s-12.1-2.9-15.2-3.4c-2.2-0.4-7.6-3.1-11.5-5.5c-0.3-0.8-3.3-2.1-3.9-2.7
				c-2.4-2.1-5.2-4.3-5.7-6.6c-0.3-1.4,1.9,17.1,4.2,19c0.8,0.6-3.1,0-5.7-7.4c-0.2-0.6-3.5,6.2,3.7,13c0,0-0.4,1.3-4.1-0.8
				c-0.3-3.7-2.2-5.7-2.3-5.3c-0.1,1.4-0.2,2.5-0.5,3.6c0,0,0,0-0.1,0c-1-0.7-1.8-1.4-2.6-2.1c-0.4-6.1-1.6-13.4-1.6-12.5
				c0.2,2.2-1.6,4.8-3.3,7.3c-3.7-5-4.5-9.2-4.5-9.2s-0.5,8.3,0.1,14.5c-1.9,2-4.1,4.1-6,5.7c-1-0.3-1.8-0.8-2.2-1.3
				c-0.4-0.6-0.2,1.1,0,3c-0.4,0.2-0.7,0.5-1,0.6c-0.2,0.1-0.5,0.3-0.9,0.4c-1.2-2.2-2.4-5.3-2.5-7.8c-0.1-1.6-1.6,6.6-1.1,9.7
				c-1.2,0.6-2.4,1.3-3.6,1.9c-3.7,0.3-9.1,0.5-11.7,2.1c0.2-0.8,0.3-1.2,0-0.9c-3,3.1-7.2,7.3-10.2,10.7c-3.2,3.6-4,6.2-5.5,9.8
				c-1.5,3.5,0.2,10.2,3.9,15.9c0,0-15.8,1.1-15.7,1.6c2.1,5.5,11.5,8.8,11.3,9.1c-1,1.9-6.5-0.7-6.3-0.3c2.5,5,8.5,4.8,5.3,5.2
				c-3.2,0.5-11.6,7.8-9.4,7.9c2.2,0.2,8.3,4.9,8.3,4.9s-5.9,0.2-4.4,0.5c1.6,0.4,9.1,9.5,7.4,9.5c-1.1,0-6.3-0.1-9.4-0.4
				c4,3.1,11.6,11.1,11.6,11.1s-2.1,6.1-3.3,6.5c2.1,0,8.3-2.4,7.3-1.5c-1.1,0.9-1.1,12.2-0.9,9.8s7.3-7.8,8.3-7.6s0,9.6,0.3,8.3
				s6.3-6.7,6.3-6.7l10.2-1l-7.2-6.1c0,0,1.6-24.3,2.9-25.4c2.6-2.2,29.4-13.8,29.4-13.8s13.5,2.6,20.8,4.2c11.7,2.5,14,0.7,14,0.7
				s-11.3-3.7-15.6-10.1c1.4,0,3.8,0.3,6.7,0.6c6.9,1.6,17.3,4.1,19.3,5c1.5,0.7,11.3,13.5,11.3,13.5s8.2,10.7,9.1,11.3
				c0.9,0.6-2.2-6.2-2.2-6.2s10.1,7.3,10.7,8.4s-2.8-7.3-1.9-7.8s9,2.8,9.8,4.9c0.8,2.2-2.1-8.4-3.4-8.9
				C1166.8,98.4,1173.2,98.9,1175.2,98.4z M1045.7,45.7c0.3,0,0.7-0.1,1-0.1c-1.1,1.2-1.8,2-1.8,2S1045.2,46.9,1045.7,45.7z
				 M1054.4,37.8c-1.3,1-3.8,3.6-5.8,5.8c-0.8,0.3-1.6,0.6-2.4,1c1-2.5,2.3-5.9,3-7.8C1050.1,37,1052.5,37.2,1054.4,37.8z"/>
		</g>
	</g>
	<polygon class="st11" points="1230.9,65.1 1221,60.6 1211.7,66.1 1213,55.3 1204.8,48.1 1215.5,46 1219.8,36 1225.1,45.5 
		1235.9,46.5 1228.5,54.5 	"/>
	<polygon class="st11" points="1031.5,228.1 1016.5,221.2 1002.3,229.6 1004.2,213.2 991.8,202.3 1008,199.1 1014.6,183.9 
		1022.6,198.3 1039.1,199.9 1027.9,212 	"/>
</g>
<g>
	<g>
		<g>
			<path class="st2" d="M1795.7,209.8c0,0,28.7-52.3,28-58.3c-0.5-4.5-4.6-12.5-7.1-11.5c-8.5,3.4-38.9,45-38.9,45l-1.7,8.2
				L1795.7,209.8z"/>
			<polygon class="st3" points="1796.7,213.1 1807.8,191.8 1786.8,170.5 1774.1,184.9 1779,203.2 			"/>
		</g>
		<g>
			<path class="st3" d="M1740.4,193.1c-3.4,3.4-20.9,35-20.5,41.7s-1.1,39.8,26,47.6c27.2,7.8,41.3,20.5,51.7,3.7
				c10.4-16.7,2.9-73.5-6-84.8c-10.4-13.4-17.5-16.4-17.5-16.4L1740.4,193.1z"/>
			<path class="st4" d="M1740.4,193.1c0,0,10.5,47.3,19.9,54.4s36,23.1,39.8,22.7s2.5-10.4,2.5-10.4s-36.3-13.7-40-23.8
				s-16.2-42.1-16.2-42.1L1740.4,193.1z"/>
			<polygon class="st5" points="1774.1,184.9 1781.1,177 1762.6,236 1758.9,225.9 			"/>
			<polygon class="st2" points="1746.4,193.9 1758.9,225.9 1774.1,184.9 1748.1,183.6 			"/>
		</g>
		<g>
			<path class="st2" d="M1717.3,296.3c-0.2,2.1,6.6,11.1,9.6,11.1c7.8,0,12.2-19.1,12.2-19.1l-16.8-5.1L1717.3,296.3z"/>
			<path class="st3" d="M1719.8,239.7c0,0-27.2,14.9-18.6,35.7c8.6,20.8,8.2,17.2,11.9,19s10.1,2.2,14.5,1.8s14.9-11.5,18.2-13.8
				c3.3-2.2-9.3-39.8-9.3-39.8L1719.8,239.7z"/>
		</g>
		<g>
			<path class="st2" d="M1764.8,307.4c0,0,2.5,31.3,5.1,33.1c2.6,1.9,12.6,8.9,16.1,5.6s4.5-42.4,4.5-42.4L1764.8,307.4z"/>
			<path class="st3" d="M1755.5,285.6c0,0,8.8,19.2,5.7,23.3c-3.1,4.1,34.5,4.8,34.5,4.8s9.6-36,5.7-39.4
				C1797.6,270.9,1755.5,285.6,1755.5,285.6z"/>
		</g>
		<g>
			<path class="st2" d="M1723.9,220.3l-8.6,1.1c0,0-3.3-4.8-8.2-2.2c-4.8,2.6-10,7.8-7.6,9.7s7.4,7.4,11.4,7.1
				c4-0.4,8.9-1.1,8.9-1.1l8.4,1.1l3.2-17.1L1723.9,220.3z"/>
			<path class="st3" d="M1741,197.3c-10.6-5.5-16.2,7.5-16.2,7.5l-5,13.7l10.6,4.9l10.6-13.5V197.3z"/>
		</g>
		<g>
			<g>
				<rect x="1797.9" y="92.4" class="st6" width="5.1" height="28"/>
				<polygon class="st6" points="1690.7,149.2 1684.9,150.7 1676.8,123.9 1682.6,122.4 				"/>
			</g>
			<g>
				<ellipse transform="matrix(0.866 -0.5 0.5 0.866 147.2713 867.596)" class="st7" cx="1692.6" cy="159" rx="9.5" ry="18.5"/>
				
					<ellipse transform="matrix(8.373723e-02 -0.9965 0.9965 8.373723e-02 1516.8016 1917.4556)" class="st7" cx="1801.1" cy="133.9" rx="18.5" ry="9.5"/>
				<path class="st7" d="M1664,91.2c-0.8,1.1,39,88.6,42,92.4c3,3.8,38.6,12.7,51,11.4c8.3-0.8,35.6-25.9,36.7-31s4.6-88.4,2.4-95.8
					C1793.9,60.7,1664,91.2,1664,91.2z"/>
			</g>
			<g>
				
					<ellipse transform="matrix(0.979 -0.2037 0.2037 0.979 8.3612 352.6618)" class="st3" cx="1717.3" cy="135.7" rx="7.1" ry="15.9"/>
				
					<ellipse transform="matrix(0.9893 -0.1459 0.1459 0.9893 -5.8736 251.7163)" class="st8" cx="1713.1" cy="165.9" rx="9.5" ry="5.9"/>
				
					<ellipse transform="matrix(0.9178 -0.397 0.397 0.9178 88.8083 720.0557)" class="st8" cx="1783.6" cy="145.5" rx="9.5" ry="5.9"/>
				
					<ellipse transform="matrix(0.979 -0.2037 0.2037 0.979 11.3981 361.3652)" class="st3" cx="1761" cy="125.3" rx="7.1" ry="15.9"/>
				<path class="st9" d="M1731.4,153.7l22.8-5.5c0,0,6.4,32.9,0,35.4C1747.8,185.9,1731.4,153.7,1731.4,153.7z"/>
			</g>
		</g>
		<g>
			<polygon class="st6" points="1684.2,141.1 1683.3,127.7 1702,156.9 			"/>
			<polygon class="st6" points="1682.4,137.6 1678.9,122.4 1699.6,137.6 			"/>
			<polygon class="st6" points="1803,105.4 1795,94.6 1782.6,116.4 			"/>
			<polygon class="st6" points="1802.2,112.4 1796.9,104 1785.2,135.6 			"/>
			<path class="st10" d="M1807.5,98.4c-1.3-0.1-4.8-5.2-4.8-5.2s5-9.4,7.9-13.4c-2.8,1-7.7,2.5-8.7,2.8c-1.6,0.5,3-10,4.4-10.8
				c1.4-0.7-4.2,0.6-4.2,0.6s4.4-6,6.5-6.7c2-0.7-7.7-5.4-10.9-5c-3.1,0.4,2.5-0.9,3.6-6.3c0.1-0.4-4.4,3.4-5.8,1.9
				c-0.2-0.2,7.7-5.8,8.2-11.4c0-0.4-15,2.6-15,2.6c-1.5-7.6-2.3-12.3-4.6-15.2c-2.3-2.9-12.2-13.5-15.8-15.6
				c-1.6-1,5.5,13.8,5.5,13.8s-8.1-9.8-10.2-10.3s-12.1-2.9-15.2-3.4c-2.2-0.4-7.6-3.1-11.5-5.5c-0.3-0.8-3.3-2.1-3.9-2.7
				c-2.4-2.1-5.2-4.3-5.7-6.6c-0.3-1.4,1.9,17.1,4.2,19c0.8,0.6-3.1,0-5.7-7.4c-0.2-0.6-3.5,6.2,3.7,13c0,0-0.4,1.3-4.1-0.8
				c-0.3-3.7-2.2-5.7-2.3-5.3c-0.1,1.4-0.2,2.5-0.5,3.6c0,0,0,0-0.1,0c-1-0.7-1.8-1.4-2.6-2.1c-0.4-6.1-1.6-13.4-1.6-12.5
				c0.2,2.2-1.6,4.8-3.3,7.3c-3.7-5-4.5-9.2-4.5-9.2s-0.5,8.3,0.1,14.5c-1.9,2-4.1,4.1-6,5.7c-1-0.3-1.8-0.8-2.2-1.3
				c-0.4-0.6-0.2,1.1,0,3c-0.4,0.2-0.7,0.5-1,0.6c-0.2,0.1-0.5,0.3-0.9,0.4c-1.2-2.2-2.4-5.3-2.5-7.8c-0.1-1.6-1.6,6.6-1.1,9.7
				c-1.2,0.6-2.4,1.3-3.6,1.9c-3.7,0.3-9.1,0.5-11.7,2.1c0.2-0.8,0.3-1.2,0-0.9c-3,3.1-7.2,7.3-10.2,10.7c-3.2,3.6-4,6.2-5.5,9.8
				c-1.5,3.5,0.2,10.2,3.9,15.9c0,0-15.8,1.1-15.7,1.6c2.1,5.5,11.5,8.8,11.3,9.1c-1,1.9-6.5-0.7-6.3-0.3c2.5,5,8.5,4.8,5.3,5.2
				c-3.2,0.5-11.6,7.8-9.4,7.9s8.3,4.9,8.3,4.9s-5.9,0.2-4.4,0.5c1.6,0.4,9.1,9.5,7.4,9.5c-1.1,0-6.3-0.1-9.4-0.4
				c4,3.1,11.6,11.1,11.6,11.1s-2.1,6.1-3.3,6.5c2.1,0,8.3-2.4,7.3-1.5c-1.1,0.9-1.1,12.2-0.9,9.8s7.3-7.8,8.3-7.6s0,9.6,0.3,8.3
				s6.3-6.7,6.3-6.7l10.2-1l-7.2-6.1c0,0,1.6-24.3,2.9-25.4c2.6-2.2,29.4-13.8,29.4-13.8s13.5,2.6,20.8,4.2c11.7,2.5,14,0.7,14,0.7
				s-11.3-3.7-15.6-10.1c1.4,0,3.8,0.3,6.7,0.6c6.9,1.6,17.3,4.1,19.3,5c1.5,0.7,11.3,13.5,11.3,13.5s8.2,10.7,9.1,11.3
				c0.9,0.6-2.2-6.2-2.2-6.2s10.1,7.3,10.7,8.4s-2.8-7.3-1.9-7.8s9,2.8,9.8,4.9c0.8,2.2-2.1-8.4-3.4-8.9
				C1799.1,98.4,1805.6,98.9,1807.5,98.4z M1678,45.7c0.3,0,0.7-0.1,1-0.1c-1.1,1.2-1.8,2-1.8,2S1677.6,46.9,1678,45.7z
				 M1686.7,37.8c-1.3,1-3.8,3.6-5.8,5.8c-0.8,0.3-1.6,0.6-2.4,1c1-2.5,2.3-5.9,3-7.8C1682.5,37,1684.9,37.2,1686.7,37.8z"/>
		</g>
	</g>
	<polygon class="st11" points="1863.2,65.1 1853.4,60.6 1844,66.1 1845.3,55.3 1837.2,48.1 1847.8,46 1852.1,36 1857.4,45.5 
		1868.2,46.5 1860.8,54.5 	"/>
	<polygon class="st11" points="1663.8,228.1 1648.8,221.2 1634.6,229.6 1636.6,213.2 1624.1,202.3 1640.4,199.1 1646.9,183.9 
		1655,198.3 1671.4,199.9 1660.2,212 	"/>
</g>
<ellipse class="st12" cx="163.3" cy="359.3" rx="38" ry="12.3"/>
<ellipse class="st12" cx="479.5" cy="359.3" rx="38" ry="12.3"/>
<ellipse class="st12" cx="796.4" cy="359.4" rx="38" ry="12.3"/>
<ellipse class="st12" cx="1111.9" cy="359.4" rx="38" ry="12.3"/>
<ellipse class="st12" cx="1428.7" cy="359.4" rx="38" ry="12.3"/>
<ellipse class="st12" cx="1744.3" cy="359.4" rx="38" ry="12.3"/>
</svg>
