<?xml version="1.0" encoding="utf-8"?>
<!-- Generator: Adobe Illustrator 24.0.1, SVG Export Plug-In . SVG Version: 6.00 Build 0)  -->
<svg version="1.1" id="Calque_1" xmlns="http://www.w3.org/2000/svg" xmlns:xlink="http://www.w3.org/1999/xlink" x="0px" y="0px"
	 viewBox="0 0 3846.2 301.1" style="enable-background:new 0 0 3846.2 301.1;" xml:space="preserve">
<style type="text/css">
	.st0{fill:#F7B3B1;}
	.st1{fill:#F9CFCF;}
	.st2{fill:#0B0C06;}
	.st3{fill:#142A2A;}
	.st4{fill:#F9644B;}
	.st5{fill:#3F4242;}
	.st6{fill:none;}
</style>
<title>fond2Plan de travail 8</title>
<g id="Calque_4">
	<path class="st0" d="M203.8,47.7c-5.7-12.9-20.6-34.9-57-42.7c-45-9.7-71.2,7.3-80.8,16C51.6,33.2,43.3,51.2,43.3,70.1v28.2
		c0,14.5,4.9,28.6,13.9,40c-2.1,3.4-3.8,6.8-4.2,9.6c-0.9,6.3,7.7,8.9,7.7,8.9s37.2,14.6,58.9,24.7s6,42.6-0.6,46.8
		c-7,4.5-0.3,15.7-2.7,22.1c-2.8,7.6-12.7,10.8-12.7,16.5c0,11.1-8.1,29.4,1.7,20.7c11.8-10.4,7.8-14.5,28.3-26.7
		c8.8-5.3,13.2-11.8,5.1-24.4c-1.9-3,0.8-12.6,24.2-29.2s16-22.4,11-33.3c-5.2-11.4-9.1-18.1-9-24.2c16.1-12.2,25.6-31.2,25.6-51.4
		V75c2.3-4.9,5.6-9.4,9.5-13.1C204.6,57.9,206,52.6,203.8,47.7z"/>
	<path class="st1" d="M144.1,163.2c0-6.5,10.9-17.3,12.6-19c4-3.4,6.2-7.4,6.2-11.7c0-13-20.9-23.5-46.8-23.5s-46.8,10.5-46.8,23.5
		c0,6.6,5.4,12.6,14.2,16.8c10.8,6.3,30.1,14.4,36.6,18.7c9.7,6.3,16.7,14.3,21.2,19.6c10.2,12.2-14.7,36.7-16,42.3
		c-1.2,5.3,1.3,13.1,0.2,16.2s-11,16.4-11,16.4s16.7-9.6,17.5-17s-6-13.7,8.9-27.8s23.4-17.8,16.7-29.3S144.1,170.2,144.1,163.2z"/>
	
		<ellipse transform="matrix(0.9752 -0.2215 0.2215 0.9752 -22.9477 22.3745)" class="st2" cx="88.3" cy="113.5" rx="27.7" ry="15.9"/>
	<ellipse transform="matrix(0.1913 -0.9815 0.9815 0.1913 7.4237 236.053)" class="st2" cx="147" cy="113.5" rx="15.9" ry="27.7"/>
	<ellipse class="st2" cx="97.3" cy="124.6" rx="10.9" ry="19.7"/>
	<ellipse class="st2" cx="119.4" cy="124.2" rx="10.9" ry="19.7"/>
	<ellipse class="st2" cx="140" cy="123.2" rx="10.9" ry="19.7"/>
	<path class="st2" d="M118,68.9c-20,0-38.7-10-49.7-26.8c-6.5,10-9.9,21.7-9.9,33.7c0,33.6,26.4,60.8,59,60.8s59-27.2,59-60.8
		c0-11.7-3.3-23.1-9.5-33C156,59,137.6,68.8,118,68.9z"/>
	<path class="st3" d="M118,68.9c19.7,0,38.1-9.8,49-26.1c-16.7-27.4-52.4-36-79.8-19.3c-7.7,4.7-14.1,11.1-18.9,18.6
		C79.3,58.8,98,68.9,118,68.9z"/>
	
		<ellipse transform="matrix(0.6784 -0.7347 0.7347 0.6784 -44.0364 120.1901)" class="st4" cx="115.3" cy="110.4" rx="7.1" ry="4.1"/>
	
		<ellipse transform="matrix(0.6784 -0.7347 0.7347 0.6784 -42.0616 124.255)" class="st4" cx="120.9" cy="110.2" rx="4.1" ry="7.1"/>
	
		<ellipse transform="matrix(0.3017 -0.9534 0.9534 0.3017 -29.178 151.2089)" class="st3" cx="88.6" cy="95.5" rx="15.1" ry="16.7"/>
	<ellipse transform="matrix(0.9333 -0.359 0.359 0.9333 -24.3758 59.754)" class="st3" cx="148.7" cy="95.5" rx="16.7" ry="15.1"/>
	
		<ellipse transform="matrix(0.3011 -0.9536 0.9536 0.3011 -29.7068 151.242)" class="st4" cx="88.3" cy="95.9" rx="10.2" ry="11.2"/>
	
		<ellipse transform="matrix(0.9974 -7.271257e-02 7.271257e-02 0.9974 -6.5653 11.066)" class="st4" cx="148.7" cy="95.7" rx="11.3" ry="10.2"/>
	<ellipse transform="matrix(0.757 -0.6534 0.6534 0.757 10.3783 104.7273)" class="st5" cx="146" cy="38.4" rx="8" ry="11.6"/>
	<path class="st0" d="M444.6,47.7c-5.7-12.9-20.6-34.9-57-42.7c-45-9.7-71.1,7.3-80.8,16c-14.4,12.2-22.7,30.2-22.7,49.1v28.2
		c0,14.5,4.9,28.6,13.9,40c-4.4,12.6,7.2,17.1,7.2,17.1s15,4.7,36.4,20.9c19.1,14.5,24.8,47.8,18.2,52c-7,4.5,4.8,14,2.4,20.5
		c-2.9,7.6-7.9,12.4-7.9,18.2c0,11.1-8.1,29.4,1.7,20.7c11.8-10.4-6.6-13.2,13.8-25.4c8.8-5.3,17.8-13.1,9.7-25.8
		c-1.9-3-14.7-13.4,8.6-29.9s16-22.4,11-33.3c-5.2-11.4,6.4-17.4,6.5-23.6c16.1-12.2,25.6-31.2,25.5-51.4V75
		c2.3-4.9,5.6-9.4,9.5-13.1C445.3,57.9,446.8,52.6,444.6,47.7z"/>
	<path class="st1" d="M384.9,163.2c0-6.5,10.9-17.3,12.6-19c4-3.4,6.2-7.4,6.2-11.7c0-13-20.9-23.5-46.8-23.5s-46.8,10.5-46.8,23.5
		c0,6.6,5.5,12.6,14.2,16.8c10.8,6.3,7,4,13.6,8.3c9.7,6.3,20.5,20.1,25,25.5c10.2,12.2,4.6,41.2,3.3,46.8c-0.9,4.4-0.5,9,1.3,13.1
		c2.3,5.4-3.4,17.1-3.4,17.1s8-7.2,8.8-14.6s-5.4-23.4,4.2-37c11.9-16.7,23.4-17.8,16.8-29.3S384.9,170.2,384.9,163.2z"/>
	
		<ellipse transform="matrix(0.9752 -0.2215 0.2215 0.9752 -16.9945 75.6975)" class="st2" cx="329" cy="113.6" rx="27.7" ry="15.9"/>
	
		<ellipse transform="matrix(0.1913 -0.9815 0.9815 0.1913 202.061 472.3544)" class="st2" cx="387.7" cy="113.6" rx="15.9" ry="27.7"/>
	<ellipse class="st2" cx="338" cy="124.6" rx="10.9" ry="19.7"/>
	<ellipse class="st2" cx="360.1" cy="124.2" rx="10.9" ry="19.7"/>
	<ellipse class="st2" cx="380.7" cy="123.2" rx="10.9" ry="19.7"/>
	<path class="st2" d="M358.7,68.9c-20,0-38.7-10.1-49.7-26.8c-6.5,10-9.9,21.7-9.9,33.7c0,33.6,26.4,60.8,59,60.8s59-27.2,59-60.8
		c0-11.7-3.3-23.1-9.5-33C396.7,59.1,378.3,68.9,358.7,68.9z"/>
	<path class="st3" d="M358.7,68.9c19.7,0,38.1-9.8,49-26.1c-16.7-27.4-52.4-36-79.8-19.3c-7.7,4.7-14.1,11.1-18.9,18.6
		C320,58.8,338.7,68.9,358.7,68.9z"/>
	<ellipse transform="matrix(0.6784 -0.7347 0.7347 0.6784 33.3653 297.0448)" class="st4" cx="356" cy="110.4" rx="7.1" ry="4.1"/>
	
		<ellipse transform="matrix(0.6784 -0.7347 0.7347 0.6784 35.3407 301.1159)" class="st4" cx="361.6" cy="110.2" rx="4.1" ry="7.1"/>
	
		<ellipse transform="matrix(0.3017 -0.9534 0.9534 0.3017 138.9764 380.7338)" class="st3" cx="329.4" cy="95.5" rx="15.1" ry="16.7"/>
	<ellipse transform="matrix(0.9333 -0.359 0.359 0.9333 -8.3152 146.1999)" class="st3" cx="389.5" cy="95.5" rx="16.7" ry="15.1"/>
	
		<ellipse transform="matrix(0.3017 -0.9534 0.9534 0.3017 138.7694 381.0009)" class="st4" cx="329.5" cy="95.8" rx="10.2" ry="11.3"/>
	
		<ellipse transform="matrix(0.9974 -7.271257e-02 7.271257e-02 0.9974 -5.9283 28.5688)" class="st4" cx="389.4" cy="95.7" rx="11.3" ry="10.2"/>
	<ellipse transform="matrix(0.757 -0.6534 0.6534 0.757 68.8508 262.0183)" class="st5" cx="386.7" cy="38.4" rx="8" ry="11.6"/>
	<path class="st0" d="M1889,47.7c-5.7-12.9-20.6-34.9-57-42.7c-45-9.7-71.2,7.3-80.8,16c-14.4,12.2-22.7,30.2-22.7,49.1v28.2
		c0,14.5,4.9,28.6,13.9,40c-4.4,12.6,7.2,17.1,7.2,17.1s15,4.7,36.4,20.9c19.1,14.5,24.7,47.8,18.2,52c-7,4.5,4.8,14,2.4,20.5
		c-2.8,7.6-7.9,12.4-7.9,18.2c0,11.1-8.1,29.4,1.7,20.7c11.8-10.4-6.6-13.2,13.8-25.4c8.8-5.3,17.8-13.1,9.7-25.8
		c-1.9-3-14.7-13.4,8.6-29.9s16-22.4,11-33.3c-5.2-11.4,6.4-17.4,6.5-23.6c16.1-12.2,25.6-31.2,25.6-51.4V75
		c2.3-4.9,5.6-9.4,9.5-13.1C1889.7,57.9,1891.2,52.6,1889,47.7z"/>
	<path class="st1" d="M1829.3,163.2c0-6.5,10.9-17.3,12.6-19c4-3.4,6.3-7.4,6.3-11.7c0-13-20.9-23.5-46.8-23.5s-46.8,10.5-46.8,23.5
		c0,6.6,5.4,12.6,14.2,16.8c10.8,6.3,7,4,13.6,8.3c9.7,6.3,20.5,20.1,25,25.5c10.2,12.2,4.6,41.2,3.3,46.8c-0.9,4.4-0.5,9,1.3,13.1
		c2.3,5.4-3.4,17.1-3.4,17.1s8-7.2,8.8-14.6s-5.4-23.4,4.2-37c11.9-16.7,23.4-17.8,16.7-29.3S1829.3,170.2,1829.3,163.2z"/>
	
		<ellipse transform="matrix(0.9752 -0.2215 0.2215 0.9752 18.853 395.6613)" class="st2" cx="1773.4" cy="113.8" rx="27.7" ry="15.9"/>
	
		<ellipse transform="matrix(0.1903 -0.9817 0.9817 0.1903 1367.2103 1889.9814)" class="st2" cx="1829.4" cy="116.1" rx="15.8" ry="27.6"/>
	<ellipse class="st2" cx="1782.4" cy="124.6" rx="10.9" ry="19.7"/>
	<ellipse class="st2" cx="1804.5" cy="124.2" rx="10.9" ry="19.7"/>
	<ellipse class="st2" cx="1825.2" cy="123.2" rx="10.9" ry="19.7"/>
	<path class="st2" d="M1803.1,68.9c-20,0-38.7-10.1-49.7-26.8c-6.5,10-9.9,21.7-9.9,33.7c0,33.6,26.4,60.8,59,60.8s59-27.2,59-60.8
		c0-11.7-3.3-23.1-9.5-33C1841.2,59.1,1822.8,68.9,1803.1,68.9z"/>
	<path class="st3" d="M1803.1,68.9c19.7,0,38-9.8,49-26.1c-16.7-27.4-52.5-36-79.8-19.3c-7.6,4.7-14.1,11.1-18.9,18.6
		C1764.4,58.8,1783.1,68.9,1803.1,68.9z"/>
	
		<ellipse transform="matrix(0.6784 -0.7347 0.7347 0.6784 497.9365 1358.2245)" class="st4" cx="1800.4" cy="110.4" rx="7.1" ry="4.1"/>
	
		<ellipse transform="matrix(0.6784 -0.7347 0.7347 0.6784 499.938 1362.2198)" class="st4" cx="1805.9" cy="110.1" rx="4.1" ry="7.1"/>
	
		<ellipse transform="matrix(0.3017 -0.9534 0.9534 0.3017 1147.5933 1757.9615)" class="st3" cx="1773.9" cy="95.6" rx="15.1" ry="16.7"/>
	
		<ellipse transform="matrix(0.9333 -0.359 0.359 0.9333 87.9959 664.7328)" class="st3" cx="1833.8" cy="95.4" rx="16.7" ry="15.1"/>
	
		<ellipse transform="matrix(0.3017 -0.9534 0.9534 0.3017 1147.5474 1758.3108)" class="st4" cx="1774.1" cy="95.8" rx="10.2" ry="11.3"/>
	
		<ellipse transform="matrix(0.9974 -7.271257e-02 7.271257e-02 0.9974 -2.0968 133.6069)" class="st4" cx="1834" cy="95.6" rx="11.3" ry="10.2"/>
	<ellipse transform="matrix(0.757 -0.6534 0.6534 0.757 419.8555 1205.8566)" class="st5" cx="1831.2" cy="38.4" rx="8" ry="11.6"/>
	<path class="st0" d="M685.3,47.7c-5.7-12.9-20.6-34.9-57-42.7c-45-9.7-71.2,7.3-80.8,16c-14.4,12.2-22.7,30.2-22.7,49.1v28.2
		c0,14.5,4.9,28.6,13.9,40c-2.1,3.4,11,16.4,11,16.4s6.5,12.6,25.3,27.1c18.9,14.7,32.1,42.3,25.5,46.4c-7,4.5,11.7,15.7,9.3,22.1
		c-2.8,7.6-4.3,12.7-4.3,18.5c0,11.1-5,30.4,4.8,21.7c11.8-10.4-11-19.3,9.5-31.5c8.8-5.3,2.3-13.2-5.7-25.9
		c-1.9-3-5.1-10.8,18.2-27.4s11.8-21.5,6.9-32.4c-5.2-11.4,7.2-17.5,7.3-23.7c16.1-12.2,25.6-31.2,25.5-51.4V75
		c2.3-4.9,5.6-9.4,9.5-13.1C686,57.9,687.5,52.6,685.3,47.7z"/>
	<path class="st1" d="M625.6,165.1c0.2-6.2,10.9-19.2,12.6-20.8c4-3.4,6.2-7.4,6.2-11.7c0-13-20.9-23.5-46.8-23.5
		S551,119.6,551,132.5c0,6.5,11.2,14.9,13.7,16.6c7.1,4.9,5.5,16,28.9,33.4c11.5,8.6,13.2,37.2,11.9,42.8c-1.2,5.3,2.2,11.6,6.6,17
		c4.6,5.7,1.1,13,0.7,15.4c-0.3,1.5,8.2-8.6,4.3-12.7c-10.3-10.9-9.1-28.8-3.1-34.2C641.5,185.9,625.3,177.6,625.6,165.1z"/>
	
		<ellipse transform="matrix(0.9752 -0.2215 0.2215 0.9752 -11.0129 129.0342)" class="st2" cx="569.8" cy="113.6" rx="27.7" ry="15.9"/>
	
		<ellipse transform="matrix(0.1913 -0.9815 0.9815 0.1913 396.7014 708.6398)" class="st2" cx="628.4" cy="113.6" rx="15.9" ry="27.7"/>
	<ellipse class="st2" cx="578.7" cy="124.6" rx="10.9" ry="19.7"/>
	<ellipse class="st2" cx="600.8" cy="124.2" rx="10.9" ry="19.7"/>
	<ellipse class="st2" cx="621.5" cy="123.2" rx="10.9" ry="19.7"/>
	<path class="st2" d="M599.4,68.9c-20,0-38.7-10.1-49.7-26.8c-6.5,10-9.9,21.7-9.9,33.7c0,33.6,26.4,60.8,59,60.8s59-27.2,59-60.8
		c0-11.7-3.3-23.1-9.5-33C637.5,59.1,619.1,68.9,599.4,68.9z"/>
	<path class="st3" d="M599.4,68.9c19.7,0,38.1-9.8,49-26.1c-16.7-27.4-52.4-36-79.8-19.3c-7.7,4.7-14.1,11.1-18.9,18.6
		C560.7,58.8,579.4,68.9,599.4,68.9z"/>
	
		<ellipse transform="matrix(0.6784 -0.7347 0.7347 0.6784 110.7714 473.8947)" class="st4" cx="596.7" cy="110.4" rx="7.1" ry="4.1"/>
	
		<ellipse transform="matrix(0.6784 -0.7347 0.7347 0.6784 112.7424 477.9706)" class="st4" cx="602.3" cy="110.2" rx="4.1" ry="7.1"/>
	
		<ellipse transform="matrix(0.3017 -0.9534 0.9534 0.3017 307.0232 610.2833)" class="st3" cx="570.1" cy="95.5" rx="15.1" ry="16.7"/>
	<ellipse transform="matrix(0.9333 -0.359 0.359 0.9333 7.7249 232.6152)" class="st3" cx="630.2" cy="95.5" rx="16.7" ry="15.1"/>
	
		<ellipse transform="matrix(0.3017 -0.9534 0.9534 0.3017 306.9617 610.6379)" class="st4" cx="570.3" cy="95.8" rx="10.2" ry="11.3"/>
	
		<ellipse transform="matrix(0.9974 -7.271257e-02 7.271257e-02 0.9974 -5.2905 46.0789)" class="st4" cx="630.2" cy="95.7" rx="11.3" ry="10.2"/>
	<ellipse transform="matrix(0.757 -0.6534 0.6534 0.757 127.3774 419.3423)" class="st5" cx="627.5" cy="38.4" rx="8" ry="11.6"/>
	<path class="st0" d="M1648.3,47.7c-5.7-12.9-20.6-34.9-57-42.7c-45-9.7-71.2,7.3-80.8,16c-14.4,12.2-22.7,30.2-22.7,49.1v28.2
		c0,14.5,4.9,28.6,13.9,40c-2.1,3.4,11,16.4,11,16.4s6.5,12.6,25.3,27.1c18.9,14.7,32.1,42.3,25.5,46.4c-7,4.5,11.7,15.7,9.3,22.1
		c-2.8,7.6-4.2,12.7-4.3,18.5c0,11.1-5,30.4,4.8,21.7c11.8-10.4-11-19.3,9.5-31.5c8.8-5.3,2.3-13.2-5.7-25.9
		c-1.9-3-5.1-10.8,18.2-27.4s11.8-21.5,6.9-32.4c-5.2-11.4,7.2-17.5,7.3-23.7c16.1-12.2,25.6-31.2,25.6-51.4V75
		c2.3-4.9,5.6-9.4,9.5-13.1C1649,57.9,1650.5,52.6,1648.3,47.7z"/>
	<path class="st1" d="M1588.6,165.1c0.2-6.2,10.9-19.2,12.6-20.8c4-3.4,6.3-7.4,6.3-11.7c0-13-20.9-23.5-46.8-23.5
		s-46.8,10.5-46.8,23.5c0,6.5,11.2,14.9,13.7,16.6c7.1,4.9,5.5,16,28.9,33.4c11.5,8.6,13.2,37.2,11.9,42.8c-1.2,5.3,2.2,11.6,6.6,17
		c4.6,5.7,1.1,13,0.7,15.4c-0.3,1.5,8.2-8.6,4.3-12.7c-10.3-10.9-9.1-28.8-3.1-34.2C1604.5,185.9,1588.2,177.6,1588.6,165.1z"/>
	
		<ellipse transform="matrix(0.9752 -0.2215 0.2215 0.9752 12.8924 342.3172)" class="st2" cx="1532.6" cy="113.7" rx="27.7" ry="15.9"/>
	
		<ellipse transform="matrix(0.1913 -0.9815 0.9815 0.1913 1175.4923 1653.714)" class="st2" cx="1591.3" cy="113.5" rx="15.9" ry="27.7"/>
	<ellipse class="st2" cx="1541.7" cy="124.6" rx="10.9" ry="19.7"/>
	<ellipse class="st2" cx="1563.8" cy="124.2" rx="10.9" ry="19.7"/>
	<ellipse class="st2" cx="1584.4" cy="123.2" rx="10.9" ry="19.7"/>
	<path class="st2" d="M1562.4,68.9c-20,0-38.7-10.1-49.7-26.8c-6.5,10-9.9,21.7-9.9,33.7c0,33.6,26.4,60.8,59,60.8s59-27.2,59-60.8
		c0-11.7-3.3-23.1-9.5-33C1600.4,59.1,1582.1,68.9,1562.4,68.9z"/>
	<path class="st3" d="M1562.4,68.9c19.7,0,38-9.8,49-26.1c-16.7-27.4-52.5-36-79.8-19.3c-7.6,4.7-14.1,11.1-18.9,18.6
		C1523.7,58.8,1542.4,68.9,1562.4,68.9z"/>
	
		<ellipse transform="matrix(0.6784 -0.7347 0.7347 0.6784 420.5346 1181.3699)" class="st4" cx="1559.7" cy="110.3" rx="7.1" ry="4.1"/>
	
		<ellipse transform="matrix(0.6784 -0.7347 0.7347 0.6784 422.5363 1185.3652)" class="st4" cx="1565.2" cy="110" rx="4.1" ry="7.1"/>
	
		<ellipse transform="matrix(0.3017 -0.9534 0.9534 0.3017 979.5465 1528.4121)" class="st3" cx="1533.2" cy="95.5" rx="15.1" ry="16.7"/>
	
		<ellipse transform="matrix(0.9333 -0.359 0.359 0.9333 71.9557 578.3176)" class="st3" cx="1593.1" cy="95.4" rx="16.7" ry="15.1"/>
	
		<ellipse transform="matrix(0.3017 -0.9534 0.9534 0.3017 979.3886 1528.7992)" class="st4" cx="1533.3" cy="95.8" rx="10.2" ry="11.3"/>
	
		<ellipse transform="matrix(0.9976 -6.982627e-02 6.982627e-02 0.9976 -3.0984 111.7687)" class="st4" cx="1597.2" cy="100.2" rx="11.3" ry="10.2"/>
	<ellipse transform="matrix(0.757 -0.6534 0.6534 0.757 361.3862 1048.5693)" class="st5" cx="1590.5" cy="38.4" rx="8" ry="11.6"/>
	<path class="st0" d="M1166.8,47.7c-5.7-12.9-20.6-34.9-57-42.7c-45-9.7-71.2,7.3-80.8,16c-14.4,12.2-22.7,30.2-22.7,49.1v28.2
		c0,14.5,4.9,28.6,13.9,40c0.1,6.2,9.3,24.3,4.1,35.7c-5,10.9-12.3,16.7,11,33.3c23.3,16.6,26.1,26.2,24.2,29.2
		c-8.1,12.7-3.7,19.2,5.1,24.5c20.5,12.2,16.5,16.3,28.3,26.7c9.8,8.7,1.8-9.6,1.7-20.7c0-5.8-9.8-8.9-12.7-16.5
		c-2.4-6.5,4.3-17.7-2.7-22.1c-6.6-4.2-22.2-36.7-0.6-46.8s58.9-24.7,58.9-24.7s8.6-2.6,7.7-8.9c-0.4-2.8-2.1-6.2-4.2-9.6
		c0,0,12.4-24.9,12.4-40V75c2.3-4.9,5.6-9.4,9.5-13.1C1167.5,57.9,1169,52.6,1166.8,47.7z"/>
	<path class="st1" d="M1054.2,163.2c0-6.5-10.9-17.3-12.6-19c-4-3.4-6.2-7.4-6.2-11.7c0-13,20.9-23.5,46.8-23.5s46.8,10.5,46.8,23.5
		c0,6.6-5.4,12.6-14.2,16.8c-10.8,6.3-30.1,14.4-36.7,18.7c-9.7,6.3-16.7,14.3-21.2,19.6c-10.2,12.2,14.7,36.7,16,42.3
		c1.2,5.3-1.3,13.1-0.2,16.2s11,16.4,11,16.4s-16.7-9.6-17.5-17s6-13.7-8.9-27.8s-23.4-17.8-16.7-29.3S1054.2,170.2,1054.2,163.2z"
		/>
	
		<ellipse transform="matrix(0.9752 -0.2215 0.2215 0.9752 0.9531 235.7976)" class="st2" cx="1051.7" cy="113.6" rx="27.7" ry="15.9"/>
	
		<ellipse transform="matrix(0.1913 -0.9815 0.9815 0.1913 786.5858 1181.7026)" class="st2" cx="1110.4" cy="113.5" rx="15.9" ry="27.7"/>
	<ellipse class="st2" cx="1060.8" cy="124.6" rx="10.9" ry="19.7"/>
	<ellipse class="st2" cx="1082.9" cy="124.2" rx="10.9" ry="19.7"/>
	<ellipse class="st2" cx="1103.5" cy="123.2" rx="10.9" ry="19.7"/>
	<path class="st2" d="M1081.5,68.9c-20,0-38.7-10.1-49.7-26.8c-6.5,10-9.9,21.7-9.9,33.7c0,33.6,26.4,60.8,59,60.8s59-27.2,59-60.8
		c0-11.7-3.3-23.1-9.5-33C1119.5,59.1,1101.1,68.9,1081.5,68.9z"/>
	<path class="st3" d="M1081.5,68.9c19.7,0,38.1-9.8,49-26.1c-16.7-27.4-52.4-36-79.8-19.3c-7.7,4.7-14.1,11.1-18.9,18.6
		C1042.8,58.8,1061.4,68.9,1081.5,68.9z"/>
	
		<ellipse transform="matrix(0.6784 -0.7347 0.7347 0.6784 265.8618 828.0526)" class="st4" cx="1078.8" cy="110.3" rx="7.1" ry="4.1"/>
	
		<ellipse transform="matrix(0.6784 -0.7347 0.7347 0.6784 267.8372 832.1238)" class="st4" cx="1084.4" cy="110.1" rx="4.1" ry="7.1"/>
	
		<ellipse transform="matrix(0.3017 -0.9534 0.9534 0.3017 643.6658 1069.877)" class="st3" cx="1052.2" cy="95.5" rx="15.1" ry="16.7"/>
	
		<ellipse transform="matrix(0.9333 -0.359 0.359 0.9333 39.8818 405.6386)" class="st3" cx="1112.2" cy="95.4" rx="16.7" ry="15.1"/>
	
		<ellipse transform="matrix(0.3017 -0.9534 0.9534 0.3017 643.6043 1070.2314)" class="st4" cx="1052.4" cy="95.8" rx="10.2" ry="11.3"/>
	
		<ellipse transform="matrix(0.9974 -7.271257e-02 7.271257e-02 0.9974 -4.0148 81.1283)" class="st4" cx="1112.3" cy="95.7" rx="11.3" ry="10.2"/>
	<ellipse transform="matrix(0.757 -0.6534 0.6534 0.757 244.4838 734.3)" class="st5" cx="1109.5" cy="38.4" rx="8" ry="11.6"/>
	<path class="st0" d="M926.1,47.7C920.3,34.8,905.4,12.8,869,5c-45-9.7-71.2,7.3-80.8,16c-14.4,12.2-22.7,30.2-22.7,49.1v28.2
		c0,14.5,4.9,28.6,13.9,40c0.1,6.2,34.9,26.6,29.7,38c-5,10.9-4,19,7.8,36.8c15.9,23.9-4.2,33.4,4.7,38.7
		c20.5,12.2,6.3,26.4,18.1,36.8c9.8,8.7,1.8-9.6,1.7-20.7c0-5.8,2.7-9.8-0.2-17.4c-2.4-6.5,4.3-17.7-2.7-22.1
		c-6.6-4.2,1.9-34.7,19.8-50.6c18.1-16.2,31.4-24.6,31.4-24.6s13.8-3.5,10.6-14.9c0,0,12.4-24.9,12.4-40V75
		c2.3-4.9,5.6-9.4,9.5-13.1C926.8,57.9,928.2,52.6,926.1,47.7z"/>
	<path class="st1" d="M813.5,163.2c0-6.5-10.9-17.3-12.6-19c-4-3.4-6.2-7.4-6.2-11.7c0-13,20.9-23.5,46.8-23.5s46.8,10.5,46.8,23.5
		c0,6.6-5.5,12.6-14.2,16.8c-10.8,6.3-15.4,18.1-22,22.4c-9.7,6.3-13.1,16.4-17.6,21.8c-10.2,12.2-5.3,21.4-3.4,26.8
		c1.8,5.2,1.8,16,2.3,19.9c0.5,4.1,4.8,16.5,4.8,16.5s-8-4.9-8.8-12.3s1-8.3-6.1-27.5c-5.3-14.4-9.8-19.7-3.1-31.2
		S813.5,170.2,813.5,163.2z"/>
	
		<ellipse transform="matrix(0.9752 -0.2215 0.2215 0.9752 -5.0216 182.482)" class="st2" cx="811.1" cy="113.6" rx="27.7" ry="15.9"/>
	
		<ellipse transform="matrix(0.1913 -0.9815 0.9815 0.1913 591.8367 945.4619)" class="st2" cx="869.7" cy="113.6" rx="15.9" ry="27.7"/>
	<ellipse class="st2" cx="820" cy="124.6" rx="10.9" ry="19.7"/>
	<ellipse class="st2" cx="842.1" cy="124.2" rx="10.9" ry="19.7"/>
	<ellipse class="st2" cx="862.8" cy="123.2" rx="10.9" ry="19.7"/>
	<path class="st2" d="M840.7,68.9c-20,0-38.7-10-49.7-26.8c-6.5,10-9.9,21.7-9.9,33.7c0,33.6,26.4,60.8,59,60.8s59-27.2,59-60.8
		c0-11.7-3.3-23.1-9.5-33C878.7,59.1,860.4,68.8,840.7,68.9z"/>
	<path class="st3" d="M840.7,68.9c19.7,0,38.1-9.8,49-26.1c-16.7-27.4-52.4-36-79.8-19.3c-7.7,4.7-14.1,11.1-18.9,18.6
		C802,58.8,820.7,68.9,840.7,68.9z"/>
	<ellipse transform="matrix(0.6784 -0.7347 0.7347 0.6784 188.3843 651.1717)" class="st4" cx="838" cy="110.4" rx="7.1" ry="4.1"/>
	
		<ellipse transform="matrix(0.6784 -0.7347 0.7347 0.6784 190.3592 655.2366)" class="st4" cx="843.6" cy="110.2" rx="4.1" ry="7.1"/>
	
		<ellipse transform="matrix(0.3017 -0.9534 0.9534 0.3017 475.619 840.3275)" class="st3" cx="811.5" cy="95.5" rx="15.1" ry="16.7"/>
	<ellipse transform="matrix(0.9333 -0.359 0.359 0.9333 23.8421 319.2246)" class="st3" cx="871.5" cy="95.4" rx="16.7" ry="15.1"/>
	
		<ellipse transform="matrix(0.3017 -0.9534 0.9534 0.3017 475.4497 840.7064)" class="st4" cx="811.6" cy="95.8" rx="10.2" ry="11.3"/>
	
		<ellipse transform="matrix(0.9974 -7.271257e-02 7.271257e-02 0.9974 -4.6518 63.6254)" class="st4" cx="871.5" cy="95.7" rx="11.3" ry="10.2"/>
	<ellipse transform="matrix(0.757 -0.6534 0.6534 0.757 186.0113 577.0091)" class="st5" cx="868.8" cy="38.4" rx="8" ry="11.6"/>
	<path class="st0" d="M1407.5,47.7c-5.7-12.9-20.6-34.9-57-42.7c-45-9.7-71.2,7.3-80.8,16c-14.4,12.2-22.7,30.2-22.7,49.1v28.2
		c0,14.5,4.9,28.6,13.9,40c0.1,6.2,34.9,26.6,29.7,38c-5,10.9-4,19,7.8,36.8c15.8,23.9-4.2,33.4,4.7,38.7
		c20.5,12.2,6.3,26.4,18.1,36.8c9.8,8.7,1.8-9.6,1.7-20.7c0-5.8,2.7-9.8-0.2-17.4c-2.4-6.5,4.3-17.7-2.7-22.1
		c-6.6-4.2,1.9-34.7,19.8-50.6c18.1-16.2,31.4-24.6,31.4-24.6s13.8-3.5,10.6-14.9c0,0,12.4-24.9,12.4-40V75
		c2.3-4.9,5.6-9.4,9.5-13.1C1408.2,57.9,1409.7,52.6,1407.5,47.7z"/>
	<path class="st1" d="M1294.9,163.2c0-6.5-10.9-17.3-12.6-19c-4-3.4-6.2-7.4-6.2-11.7c0-13,20.9-23.5,46.8-23.5s46.8,10.5,46.8,23.5
		c0,6.6-5.4,12.6-14.2,16.8c-10.8,6.3-15.4,18.1-22,22.4c-9.7,6.3-13.1,16.4-17.6,21.8c-10.2,12.2-5.3,21.4-3.4,26.8
		c1.8,5.2,1.8,16,2.3,19.9c0.5,4.1,4.8,16.5,4.8,16.5s-8-4.9-8.7-12.3s1-8.3-6.1-27.5c-5.4-14.4-9.8-19.7-3.1-31.2
		S1294.9,170.2,1294.9,163.2z"/>
	
		<ellipse transform="matrix(0.9752 -0.2215 0.2215 0.9752 6.9347 289.1343)" class="st2" cx="1292.5" cy="113.6" rx="27.7" ry="15.9"/>
	
		<ellipse transform="matrix(0.1913 -0.9815 0.9815 0.1913 981.2261 1417.988)" class="st2" cx="1351.1" cy="113.5" rx="15.9" ry="27.7"/>
	<ellipse class="st2" cx="1301.5" cy="124.6" rx="10.9" ry="19.7"/>
	<ellipse class="st2" cx="1323.6" cy="124.2" rx="10.9" ry="19.7"/>
	<ellipse class="st2" cx="1344.2" cy="123.2" rx="10.9" ry="19.7"/>
	<path class="st2" d="M1322.2,68.9c-20,0-38.7-10.1-49.7-26.8c-6.5,10-9.9,21.7-9.9,33.7c0,33.6,26.4,60.8,59,60.8s59-27.2,59-60.8
		c0-11.7-3.3-23.1-9.5-33C1360.2,59.1,1341.9,68.9,1322.2,68.9z"/>
	<path class="st3" d="M1322.2,68.9c19.7,0,38.1-9.8,49-26.1c-16.7-27.4-52.4-36-79.8-19.3c-7.7,4.7-14.1,11.1-18.9,18.6
		C1283.5,58.8,1302.2,68.9,1322.2,68.9z"/>
	
		<ellipse transform="matrix(0.6784 -0.7347 0.7347 0.6784 343.2683 1004.9115)" class="st4" cx="1319.5" cy="110.4" rx="7.1" ry="4.1"/>
	
		<ellipse transform="matrix(0.6784 -0.7347 0.7347 0.6784 345.2389 1008.9784)" class="st4" cx="1325.1" cy="110.1" rx="4.1" ry="7.1"/>
	
		<ellipse transform="matrix(0.3017 -0.9534 0.9534 0.3017 811.8337 1299.4061)" class="st3" cx="1293" cy="95.5" rx="15.1" ry="16.7"/>
	
		<ellipse transform="matrix(0.9333 -0.359 0.359 0.9333 55.9411 492.0849)" class="st3" cx="1352.9" cy="95.4" rx="16.7" ry="15.1"/>
	
		<ellipse transform="matrix(0.3017 -0.9534 0.9534 0.3017 811.6509 1299.781)" class="st4" cx="1293.1" cy="95.8" rx="10.2" ry="11.3"/>
	
		<ellipse transform="matrix(0.9974 -7.271257e-02 7.271257e-02 0.9974 -3.3698 98.6376)" class="st4" cx="1353.1" cy="95.6" rx="11.3" ry="10.2"/>
	<ellipse transform="matrix(0.757 -0.6534 0.6534 0.757 303.0142 891.6208)" class="st5" cx="1350.3" cy="38.4" rx="8" ry="11.6"/>
	<path class="st0" d="M2129.8,47.7c-5.7-12.9-20.6-34.9-57-42.7c-45-9.7-71.2,7.3-80.8,16c-14.4,12.2-22.7,30.2-22.7,49.1v28.2
		c0,14.5,4.9,28.6,13.9,40c-2.1,3.4-3.9,6.8-4.3,9.6c-0.9,6.3,7.7,8.9,7.7,8.9s37.2,14.6,58.9,24.7c21.7,10.1,6,42.6-0.6,46.8
		c-7,4.5-0.2,15.7-2.7,22.1c-2.8,7.6-12.7,10.8-12.7,16.5c0,11.1-8.1,29.4,1.7,20.7c11.8-10.4,7.8-14.5,28.3-26.7
		c8.8-5.3,13.1-11.8,5.1-24.4c-1.9-3,0.8-12.6,24.2-29.2s16-22.4,11-33.3c-5.2-11.4-9.1-18.1-9-24.2c16.1-12.2,25.6-31.2,25.6-51.4
		V75c2.3-4.9,5.5-9.4,9.5-13.1C2130.5,57.9,2131.9,52.6,2129.8,47.7z"/>
	<path class="st1" d="M2070.1,163.2c0-6.5,10.9-17.3,12.6-19c4-3.4,6.3-7.4,6.3-11.7c0-13-20.9-23.5-46.8-23.5s-46.8,10.5-46.8,23.5
		c0,6.6,5.4,12.6,14.2,16.8c10.8,6.3,30.1,14.4,36.7,18.7c9.7,6.3,16.7,14.3,21.2,19.6c10.2,12.2-14.7,36.7-16,42.3
		c-1.2,5.3,1.3,13.1,0.2,16.2s-11,16.4-11,16.4s16.8-9.6,17.5-17s-6-13.7,8.9-27.8s23.4-17.8,16.8-29.3S2070.1,170.2,2070.1,163.2z"
		/>
	
		<ellipse transform="matrix(0.9752 -0.2215 0.2215 0.9752 24.8277 448.9768)" class="st2" cx="2014.1" cy="113.8" rx="27.7" ry="15.9"/>
	
		<ellipse transform="matrix(0.1913 -0.9815 0.9815 0.1913 1564.7543 2126.2976)" class="st2" cx="2072.7" cy="113.6" rx="15.9" ry="27.7"/>
	<ellipse class="st2" cx="2023.2" cy="124.6" rx="10.9" ry="19.7"/>
	<ellipse class="st2" cx="2045.3" cy="124.2" rx="10.9" ry="19.7"/>
	<ellipse class="st2" cx="2065.9" cy="123.2" rx="10.9" ry="19.7"/>
	<path class="st2" d="M2043.9,68.9c-20,0-38.7-10.1-49.7-26.8c-6.5,10-9.9,21.7-9.9,33.7c0,33.6,26.4,60.8,59,60.8
		c32.6,0,59-27.2,59-60.8c0-11.7-3.3-23.1-9.5-33C2081.9,59.1,2063.5,68.9,2043.9,68.9z"/>
	<path class="st3" d="M2043.9,68.9c19.7,0,38-9.8,49-26.1c-10.5-16.7-28.8-27.8-49.6-27.8c-19.9,0.1-38.5,10.3-49.2,27.1
		C2005.2,58.8,2023.8,68.9,2043.9,68.9z"/>
	<path class="st4" d="M2038.1,107.6c2.7-2.9,6.2-4,7.8-2.4c1.7,1.5,0.9,5.1-1.8,8c-2.7,2.9-6.2,4-7.8,2.4
		C2034.7,114,2035.5,110.5,2038.1,107.6z"/>
	<path class="st4" d="M2041.5,105.3c1.5-1.7,5.1-0.9,8,1.8c2.9,2.7,4,6.2,2.4,7.8c-1.5,1.7-5.1,0.9-8-1.8
		C2041.1,110.5,2040,107,2041.5,105.3z"/>
	
		<ellipse transform="matrix(0.3017 -0.9534 0.9534 0.3017 1315.7477 1987.4866)" class="st3" cx="2014.7" cy="95.5" rx="15.1" ry="16.7"/>
	
		<ellipse transform="matrix(0.9333 -0.359 0.359 0.9333 104.0358 751.1473)" class="st3" cx="2074.5" cy="95.4" rx="16.7" ry="15.1"/>
	
		<ellipse transform="matrix(0.3017 -0.9534 0.9534 0.3017 1315.5898 1987.8737)" class="st4" cx="2014.8" cy="95.8" rx="10.2" ry="11.3"/>
	
		<ellipse transform="matrix(0.9974 -7.271257e-02 7.271257e-02 0.9974 -1.4598 151.1098)" class="st4" cx="2074.7" cy="95.6" rx="11.3" ry="10.2"/>
	<ellipse transform="matrix(0.757 -0.6534 0.6534 0.757 478.3279 1363.1475)" class="st5" cx="2071.9" cy="38.5" rx="8" ry="11.6"/>
	<path class="st0" d="M2370.5,47.7c-5.8-12.9-20.6-34.9-57-42.7c-45-9.7-71.1,7.3-80.8,16c-14.4,12.2-22.7,30.2-22.7,49.1v28.2
		c0,14.5,4.9,28.6,13.9,40c-4.4,12.6,7.2,17.1,7.2,17.1s15,4.7,36.4,20.9c19.1,14.5,24.8,47.8,18.2,52c-7,4.5,4.8,14,2.4,20.5
		c-2.9,7.6-7.9,12.4-7.9,18.2c-0.1,11.1-8.1,29.4,1.7,20.7c11.8-10.4-6.6-13.2,13.8-25.4c8.8-5.3,17.8-13.1,9.7-25.8
		c-1.9-3-14.7-13.4,8.6-29.9s16-22.4,11-33.3c-5.2-11.4,6.4-17.4,6.5-23.6c16.1-12.2,25.6-31.2,25.6-51.4V75
		c2.3-4.9,5.6-9.4,9.5-13.1C2371.2,57.9,2372.7,52.6,2370.5,47.7z"/>
	<path class="st1" d="M2310.8,163.2c0-6.5,10.9-17.3,12.6-19c4-3.4,6.3-7.4,6.3-11.7c0-13-20.9-23.5-46.8-23.5s-46.8,10.5-46.8,23.5
		c0,6.6,5.4,12.6,14.2,16.8c10.9,6.3,7,4,13.6,8.3c9.7,6.3,20.5,20.1,25,25.5c10.2,12.2,4.6,41.2,3.3,46.8c-0.9,4.4-0.5,9,1.3,13.1
		c2.3,5.4-3.4,17.1-3.4,17.1s8.1-7.2,8.8-14.6s-5.4-23.4,4.2-37c11.9-16.7,23.4-17.8,16.7-29.3S2310.8,170.2,2310.8,163.2z"/>
	
		<ellipse transform="matrix(0.9752 -0.2215 0.2215 0.9752 30.8089 502.3138)" class="st2" cx="2254.9" cy="113.8" rx="27.7" ry="15.9"/>
	
		<ellipse transform="matrix(0.1913 -0.9815 0.9815 0.1913 1759.3916 2362.5989)" class="st2" cx="2313.5" cy="113.6" rx="15.9" ry="27.7"/>
	<ellipse class="st2" cx="2263.9" cy="124.6" rx="10.9" ry="19.7"/>
	<ellipse class="st2" cx="2286" cy="124.2" rx="10.9" ry="19.7"/>
	<ellipse class="st2" cx="2306.6" cy="123.2" rx="10.9" ry="19.7"/>
	<path class="st2" d="M2284.6,68.9c-20,0-38.7-10.1-49.7-26.8c-6.5,10-9.9,21.7-9.9,33.7c0,33.6,26.4,60.8,59,60.8s59-27.2,59-60.8
		c0-11.7-3.3-23.1-9.5-33C2322.6,59.1,2304.3,68.9,2284.6,68.9z"/>
	<path class="st3" d="M2284.6,68.9c19.7,0,38-9.8,49-26.1C2323.1,26.1,2304.8,15,2284,15c-19.9,0.1-38.5,10.3-49.2,27.1
		C2245.9,58.8,2264.6,68.9,2284.6,68.9z"/>
	
		<ellipse transform="matrix(0.6784 -0.7347 0.7347 0.6784 652.8156 1711.9598)" class="st4" cx="2281.9" cy="110.3" rx="7.1" ry="4.1"/>
	
		<ellipse transform="matrix(0.6784 -0.7347 0.7347 0.6784 654.8173 1715.9553)" class="st4" cx="2287.4" cy="110" rx="4.1" ry="7.1"/>
	
		<ellipse transform="matrix(0.3017 -0.9534 0.9534 0.3017 1483.9198 2217.0024)" class="st3" cx="2255.4" cy="95.5" rx="15.1" ry="16.7"/>
	
		<ellipse transform="matrix(0.9333 -0.359 0.359 0.9333 120.0951 837.5936)" class="st3" cx="2315.3" cy="95.4" rx="16.7" ry="15.1"/>
	
		<ellipse transform="matrix(0.3017 -0.9534 0.9534 0.3017 1483.7444 2217.3987)" class="st4" cx="2255.6" cy="95.8" rx="10.2" ry="11.3"/>
	
		<ellipse transform="matrix(0.9974 -7.271257e-02 7.271257e-02 0.9974 -0.8228 168.6127)" class="st4" cx="2315.4" cy="95.6" rx="11.3" ry="10.2"/>
	<ellipse transform="matrix(0.757 -0.6534 0.6534 0.757 536.8583 1520.4684)" class="st5" cx="2312.7" cy="38.4" rx="8" ry="11.6"/>
	<path class="st0" d="M3815,47.7c-5.7-12.9-20.6-34.9-57-42.7c-45-9.7-71.1,7.3-80.8,16c-14.4,12.2-22.7,30.2-22.7,49.1v28.2
		c0,14.5,4.9,28.6,13.9,40c-4.4,12.6,7.2,17.1,7.2,17.1s15,4.7,36.4,20.9c19.1,14.5,24.8,47.8,18.2,52c-7,4.5,4.8,14,2.4,20.5
		c-2.9,7.6-7.9,12.4-7.9,18.2c-0.1,11.1-8.1,29.4,1.7,20.7c11.8-10.4-6.6-13.2,13.8-25.4c8.8-5.3,17.8-13.1,9.7-25.8
		c-1.9-3-14.7-13.4,8.6-29.9s16-22.4,11-33.3c-5.2-11.4,6.4-17.4,6.5-23.6c16.1-12.2,25.6-31.2,25.6-51.4V75
		c2.3-4.9,5.6-9.4,9.5-13.1C3815.7,57.9,3817.1,52.6,3815,47.7z"/>
	<path class="st1" d="M3755.3,163.2c0-6.5,10.9-17.3,12.6-19c4-3.4,6.2-7.4,6.2-11.7c0-13-20.9-23.5-46.8-23.5s-46.8,10.5-46.8,23.5
		c0,6.6,5.4,12.6,14.2,16.8c10.9,6.3,7,4,13.6,8.3c9.7,6.3,20.5,20.1,25,25.5c10.2,12.2,4.6,41.2,3.3,46.8c-0.9,4.4-0.5,9,1.3,13.1
		c2.3,5.4-3.4,17.1-3.4,17.1s8.1-7.2,8.8-14.6s-5.4-23.4,4.2-37c11.9-16.7,23.4-17.8,16.8-29.3S3755.3,170.2,3755.3,163.2z"/>
	
		<ellipse transform="matrix(0.9752 -0.2215 0.2215 0.9752 66.6563 822.2776)" class="st2" cx="3699.3" cy="114" rx="27.7" ry="15.9"/>
	
		<ellipse transform="matrix(0.1913 -0.9815 0.9815 0.1913 2927.4456 3780.2537)" class="st2" cx="3757.8" cy="113.6" rx="15.9" ry="27.7"/>
	<ellipse class="st2" cx="3708.4" cy="124.6" rx="10.9" ry="19.7"/>
	<ellipse class="st2" cx="3730.5" cy="124.2" rx="10.9" ry="19.7"/>
	<ellipse class="st2" cx="3751.1" cy="123.2" rx="10.9" ry="19.7"/>
	<path class="st2" d="M3729.1,68.9c-20,0-38.7-10.1-49.7-26.8c-6.5,10-9.9,21.7-9.9,33.7c0,33.6,26.4,60.8,59,60.8s59-27.2,59-60.8
		c0-11.7-3.3-23.1-9.5-33C3767.1,59.1,3748.7,68.9,3729.1,68.9z"/>
	<path class="st3" d="M3729.1,68.9c19.7,0,38.1-9.8,49-26.1c-16.7-27.4-52.4-36-79.8-19.3c-7.7,4.7-14.1,11.1-18.9,18.6
		C3690.4,58.8,3709,68.9,3729.1,68.9z"/>
	
		<ellipse transform="matrix(0.6784 -0.7347 0.7347 0.6784 1117.3376 2773.0439)" class="st4" cx="3726.1" cy="110.3" rx="7.1" ry="4.1"/>
	
		<ellipse transform="matrix(0.6784 -0.7347 0.7347 0.6784 1119.3125 2777.1086)" class="st4" cx="3731.8" cy="110" rx="4.1" ry="7.1"/>
	
		<ellipse transform="matrix(0.3017 -0.9534 0.9534 0.3017 2492.5854 3594.3501)" class="st3" cx="3700" cy="95.6" rx="15.1" ry="16.7"/>
	
		<ellipse transform="matrix(0.9333 -0.359 0.359 0.9333 216.4075 1356.1261)" class="st3" cx="3759.7" cy="95.4" rx="16.7" ry="15.1"/>
	
		<ellipse transform="matrix(0.3017 -0.9534 0.9534 0.3017 2492.4863 3594.593)" class="st4" cx="3700.1" cy="95.8" rx="10.2" ry="11.3"/>
	
		<ellipse transform="matrix(0.9974 -7.271257e-02 7.271257e-02 0.9974 3.0159 273.65)" class="st4" cx="3760" cy="95.4" rx="11.3" ry="10.2"/>
	<ellipse transform="matrix(0.757 -0.6534 0.6534 0.757 887.8046 2464.2817)" class="st5" cx="3757.1" cy="38.5" rx="8" ry="11.6"/>
	<path class="st0" d="M2611.2,47.7c-5.7-12.9-20.6-34.9-57-42.7c-45-9.7-71.1,7.3-80.8,16c-14.4,12.2-22.7,30.2-22.7,49.1v28.2
		c0,14.5,4.9,28.6,13.9,40c-2.1,3.4,11,16.4,11,16.4s6.5,12.6,25.3,27.1c18.9,14.7,32.1,42.3,25.5,46.4c-7,4.5,11.7,15.7,9.3,22.1
		c-2.9,7.6-4.2,12.7-4.3,18.5c0,11.1-5,30.4,4.8,21.7c11.8-10.4-11-19.3,9.5-31.5c8.8-5.3,2.3-13.2-5.7-25.9
		c-1.9-3-5.1-10.8,18.2-27.4s11.8-21.5,6.9-32.4c-5.2-11.4,7.1-17.5,7.3-23.7c16.1-12.2,25.6-31.2,25.6-51.4V75
		c2.3-4.9,5.6-9.4,9.5-13.1C2612,57.9,2613.4,52.6,2611.2,47.7z"/>
	<path class="st1" d="M2551.6,165.1c0.2-6.2,10.9-19.2,12.6-20.8c4-3.4,6.2-7.4,6.2-11.7c0-13-20.9-23.5-46.8-23.5
		s-46.8,10.5-46.8,23.5c0,6.5,11.2,14.9,13.7,16.6c7.1,4.9,5.5,16,28.9,33.4c11.5,8.6,13.2,37.2,11.9,42.8c-1.2,5.3,2.2,11.6,6.6,17
		c4.6,5.7,1.1,13,0.7,15.4c-0.3,1.5,8.2-8.6,4.3-12.7c-10.3-10.9-9.1-28.8-3.1-34.2C2567.4,185.9,2551.2,177.6,2551.6,165.1z"/>
	
		<ellipse transform="matrix(0.9752 -0.2215 0.2215 0.9752 36.7832 555.6295)" class="st2" cx="2495.6" cy="113.8" rx="27.7" ry="15.9"/>
	
		<ellipse transform="matrix(0.1913 -0.9815 0.9815 0.1913 1954.0319 2598.8843)" class="st2" cx="2554.2" cy="113.6" rx="15.9" ry="27.7"/>
	<ellipse class="st2" cx="2504.7" cy="124.6" rx="10.9" ry="19.7"/>
	<ellipse class="st2" cx="2526.8" cy="124.2" rx="10.9" ry="19.7"/>
	<ellipse class="st2" cx="2547.4" cy="123.2" rx="10.9" ry="19.7"/>
	<path class="st2" d="M2525.4,68.9c-20,0-38.7-10.1-49.7-26.8c-6.5,10-9.9,21.7-9.9,33.7c0,33.6,26.4,60.8,59,60.8s59-27.2,59-60.8
		c0-11.7-3.3-23.1-9.5-33C2563.4,59.1,2545,68.9,2525.4,68.9z"/>
	<path class="st3" d="M2525.4,68.9c19.7,0,38-9.8,49-26.1c-10.5-16.7-28.8-27.8-49.6-27.8c-19.9,0.1-38.5,10.3-49.2,27.1
		C2486.6,58.8,2505.3,68.9,2525.4,68.9z"/>
	
		<ellipse transform="matrix(0.6784 -0.7347 0.7347 0.6784 730.249 1888.7495)" class="st4" cx="2522.5" cy="110.3" rx="7.1" ry="4.1"/>
	
		<ellipse transform="matrix(0.6784 -0.7347 0.7347 0.6784 732.219 1892.8101)" class="st4" cx="2528.1" cy="110" rx="4.1" ry="7.1"/>
	
		<ellipse transform="matrix(0.3017 -0.9534 0.9534 0.3017 1651.9622 2446.5654)" class="st3" cx="2496.2" cy="95.6" rx="15.1" ry="16.7"/>
	<ellipse transform="matrix(0.9333 -0.359 0.359 0.9333 136.1353 924.0089)" class="st3" cx="2556" cy="95.5" rx="16.7" ry="15.1"/>
	
		<ellipse transform="matrix(0.3017 -0.9534 0.9534 0.3017 1651.9161 2446.9146)" class="st4" cx="2496.4" cy="95.8" rx="10.2" ry="11.3"/>
	
		<ellipse transform="matrix(0.9974 -7.271257e-02 7.271257e-02 0.9974 -0.1779 186.122)" class="st4" cx="2556.2" cy="95.5" rx="11.3" ry="10.2"/>
	<ellipse transform="matrix(0.757 -0.6534 0.6534 0.757 595.33 1677.764)" class="st5" cx="2553.4" cy="38.5" rx="8" ry="11.6"/>
	<path class="st0" d="M3574.2,47.7c-5.7-12.9-20.6-34.9-57-42.7c-45-9.7-71.1,7.3-80.8,16c-14.4,12.2-22.7,30.2-22.7,49.1v28.2
		c0,14.5,4.9,28.6,13.9,40c-2.1,3.4,11,16.4,11,16.4s6.5,12.6,25.3,27.1c18.9,14.7,32.1,42.3,25.5,46.4c-7,4.5,11.7,15.7,9.3,22.1
		c-2.9,7.6-4.3,12.7-4.3,18.5c-0.1,11.1-5,30.4,4.8,21.7c11.8-10.4-11-19.3,9.5-31.5c8.8-5.3,2.3-13.2-5.7-25.9
		c-1.9-3-5.1-10.8,18.2-27.4s11.8-21.5,6.9-32.4c-5.2-11.4,7.1-17.5,7.3-23.7c16.1-12.2,25.6-31.2,25.6-51.4V75
		c2.3-4.9,5.6-9.4,9.5-13.1C3574.9,57.9,3576.4,52.6,3574.2,47.7z"/>
	<path class="st1" d="M3514.5,165.1c0.2-6.2,10.9-19.2,12.6-20.8c4-3.4,6.2-7.4,6.2-11.7c0-13-20.9-23.5-46.8-23.5
		s-46.8,10.5-46.8,23.5c0,6.5,11.2,14.9,13.7,16.6c7.1,4.9,5.5,16,28.9,33.4c11.5,8.6,13.2,37.2,11.9,42.8c-1.2,5.3,2.2,11.6,6.6,17
		c4.6,5.7,1.1,13,0.7,15.4c-0.3,1.5,8.2-8.6,4.3-12.7c-10.3-10.9-9.1-28.8-3.1-34.2C3530.4,185.9,3514.1,177.6,3514.5,165.1z"/>
	<path class="st0" d="M3092.7,47.7c-5.7-12.9-20.6-34.9-57-42.7c-45-9.7-71.1,7.3-80.8,16c-14.4,12.2-22.7,30.2-22.7,49.1v28.2
		c0,14.5,4.9,28.6,13.9,40c0.1,6.2,9.4,24.3,4.1,35.7c-5,10.9-12.4,16.7,11,33.3s26.1,26.2,24.2,29.2c-8,12.7-3.7,19.2,5.1,24.5
		c20.5,12.2,16.5,16.3,28.3,26.7c9.8,8.7,1.8-9.6,1.7-20.7c0-5.8-9.8-8.9-12.7-16.5c-2.4-6.5,4.3-17.7-2.7-22.1
		c-6.6-4.2-22.3-36.7-0.6-46.8s58.9-24.7,58.9-24.7s8.6-2.6,7.7-8.9c-0.4-2.8-2.1-6.2-4.3-9.6c0,0,12.4-24.9,12.4-40V75
		c2.3-4.9,5.6-9.4,9.5-13.1C3093.4,57.9,3094.9,52.6,3092.7,47.7z"/>
	<path class="st1" d="M2980.1,163.2c0-6.5-10.9-17.3-12.6-19c-4-3.4-6.3-7.4-6.3-11.7c0-13,20.9-23.5,46.8-23.5s46.8,10.5,46.8,23.5
		c0,6.6-5.4,12.6-14.2,16.8c-10.8,6.3-30.1,14.4-36.6,18.7c-9.7,6.3-16.7,14.3-21.2,19.6c-10.2,12.2,14.7,36.7,16,42.3
		c1.2,5.3-1.3,13.1-0.2,16.2s11,16.4,11,16.4s-16.8-9.6-17.5-17s5.9-13.7-8.9-27.8s-23.4-17.8-16.8-29.3S2980.1,170.2,2980.1,163.2z
		"/>
	
		<ellipse transform="matrix(0.9752 -0.2215 0.2215 0.9752 48.7565 662.4139)" class="st2" cx="2977.6" cy="113.8" rx="27.7" ry="15.9"/>
	
		<ellipse transform="matrix(0.1913 -0.9815 0.9815 0.1913 2343.9163 3071.9468)" class="st2" cx="3036.2" cy="113.5" rx="15.9" ry="27.7"/>
	<ellipse class="st2" cx="2986.7" cy="124.6" rx="10.9" ry="19.7"/>
	<ellipse class="st2" cx="3008.8" cy="124.2" rx="10.9" ry="19.7"/>
	<ellipse class="st2" cx="3029.4" cy="123.2" rx="10.9" ry="19.7"/>
	<path class="st2" d="M3007.4,68.9c-20,0-38.7-10.1-49.7-26.8c-6.5,10-9.9,21.7-9.9,33.7c0,33.6,26.4,60.8,59,60.8s59-27.2,59-60.8
		c0-11.7-3.3-23.1-9.5-33C3045.4,59.1,3027.1,68.9,3007.4,68.9z"/>
	<path class="st3" d="M3007.4,68.9c19.7,0,38-9.8,49-26.1c-10.5-16.7-28.8-27.8-49.6-27.8c-19.9,0.1-38.5,10.3-49.2,27.1
		C2968.7,58.8,2987.4,68.9,3007.4,68.9z"/>
	
		<ellipse transform="matrix(0.6784 -0.7347 0.7347 0.6784 885.2679 2242.8765)" class="st4" cx="3004.5" cy="110.3" rx="7.1" ry="4.1"/>
	
		<ellipse transform="matrix(0.6784 -0.7347 0.7347 0.6784 887.2428 2246.9414)" class="st4" cx="3010.2" cy="110" rx="4.1" ry="7.1"/>
	
		<ellipse transform="matrix(0.3017 -0.9534 0.9534 0.3017 1988.6426 2906.271)" class="st3" cx="2978.3" cy="95.6" rx="15.1" ry="16.7"/>
	
		<ellipse transform="matrix(0.9333 -0.359 0.359 0.9333 168.2611 1097.0514)" class="st3" cx="3038" cy="95.5" rx="16.7" ry="15.1"/>
	
		<ellipse transform="matrix(0.3017 -0.9534 0.9534 0.3017 1988.4467 2906.5459)" class="st4" cx="2978.4" cy="95.8" rx="10.2" ry="11.3"/>
	
		<ellipse transform="matrix(0.9974 -7.271257e-02 7.271257e-02 0.9974 1.0979 221.1713)" class="st4" cx="3038.2" cy="95.5" rx="11.3" ry="10.2"/>
	<ellipse transform="matrix(0.757 -0.6534 0.6534 0.757 712.4302 1992.7164)" class="st5" cx="3035.4" cy="38.5" rx="8" ry="11.6"/>
	<path class="st0" d="M2852,47.7c-5.7-12.9-20.6-34.9-57-42.7c-45-9.7-71.1,7.3-80.8,16c-14.4,12.2-22.7,30.2-22.7,49.1v28.2
		c0,14.5,4.9,28.6,13.9,40c0.1,6.2,34.9,26.6,29.7,38c-5,10.9-4,19,7.8,36.8c15.9,23.9-4.2,33.4,4.7,38.7
		c20.5,12.2,6.3,26.4,18.1,36.8c9.8,8.7,1.8-9.6,1.7-20.7c0-5.8,2.6-9.8-0.2-17.4c-2.4-6.5,4.3-17.7-2.7-22.1
		c-6.6-4.2,1.9-34.7,19.8-50.6c18.1-16.2,31.4-24.6,31.4-24.6s13.8-3.5,10.6-14.9c0,0,12.4-24.9,12.4-40V75
		c2.3-4.9,5.6-9.4,9.5-13.1C2852.7,57.9,2854.2,52.6,2852,47.7z"/>
	<path class="st1" d="M2739.4,163.2c0-6.5-10.9-17.3-12.6-19c-4-3.4-6.3-7.4-6.3-11.7c0-13,20.9-23.5,46.8-23.5s46.8,10.5,46.8,23.5
		c0,6.6-5.4,12.6-14.2,16.8c-10.8,6.3-15.4,18.1-22,22.4c-9.7,6.3-13.1,16.4-17.6,21.8c-10.2,12.2-5.3,21.4-3.4,26.8
		c1.9,5.2,1.8,16,2.3,19.9c0.5,4.1,4.8,16.5,4.8,16.5s-8-4.9-8.7-12.3s1-8.3-6.1-27.5c-5.4-14.4-9.8-19.7-3.1-31.2
		S2739.4,170.2,2739.4,163.2z"/>
	
		<ellipse transform="matrix(0.9752 -0.2215 0.2215 0.9752 42.7753 609.0769)" class="st2" cx="2736.9" cy="113.8" rx="27.7" ry="15.9"/>
	
		<ellipse transform="matrix(0.1913 -0.9815 0.9815 0.1913 2149.1831 2835.7092)" class="st2" cx="2795.5" cy="113.6" rx="15.9" ry="27.7"/>
	<ellipse class="st2" cx="2746" cy="124.6" rx="10.9" ry="19.7"/>
	<ellipse class="st2" cx="2768.1" cy="124.2" rx="10.9" ry="19.7"/>
	<ellipse class="st2" cx="2788.7" cy="123.2" rx="10.9" ry="19.7"/>
	<path class="st2" d="M2766.6,68.9c-20,0-38.7-10.1-49.6-26.8c-6.5,10-9.9,21.7-9.9,33.7c0,33.6,26.4,60.8,59,60.8s59-27.2,59-60.8
		c0-11.7-3.3-23.1-9.5-33C2804.7,59.1,2786.3,68.9,2766.6,68.9z"/>
	<path class="st3" d="M2766.6,68.9c19.7,0,38-9.8,49-26.1C2805.1,26.1,2786.8,15,2766,15c-19.9,0.1-38.4,10.3-49.1,27.1
		C2728,58.8,2746.6,68.9,2766.6,68.9z"/>
	
		<ellipse transform="matrix(0.6784 -0.7347 0.7347 0.6784 807.8655 2066.0154)" class="st4" cx="2763.8" cy="110.2" rx="7.1" ry="4.1"/>
	
		<ellipse transform="matrix(0.6784 -0.7347 0.7347 0.6784 809.8365 2070.0913)" class="st4" cx="2769.5" cy="110" rx="4.1" ry="7.1"/>
	
		<ellipse transform="matrix(0.3017 -0.9534 0.9534 0.3017 1820.4882 2676.7458)" class="st3" cx="2737.6" cy="95.6" rx="15.1" ry="16.7"/>
	
		<ellipse transform="matrix(0.9333 -0.359 0.359 0.9333 152.2214 1010.6374)" class="st3" cx="2797.3" cy="95.5" rx="16.7" ry="15.1"/>
	
		<ellipse transform="matrix(0.3017 -0.9534 0.9534 0.3017 1820.4 2676.9966)" class="st4" cx="2737.7" cy="95.8" rx="10.2" ry="11.3"/>
	
		<ellipse transform="matrix(0.9974 -7.271257e-02 7.271257e-02 0.9974 0.461 203.6684)" class="st4" cx="2797.5" cy="95.5" rx="11.3" ry="10.2"/>
	<ellipse transform="matrix(0.757 -0.6534 0.6534 0.757 653.961 1835.4292)" class="st5" cx="2794.7" cy="38.5" rx="8" ry="11.6"/>
	<path class="st0" d="M3333.5,47.7c-5.7-12.9-20.6-34.9-57-42.7c-45-9.7-71.1,7.3-80.8,16c-14.4,12.2-22.7,30.2-22.7,49.1v28.2
		c0,14.5,4.9,28.6,13.9,40c0.1,6.2,34.9,26.6,29.7,38c-5,10.9-4,19,7.8,36.8c15.9,23.9-4.2,33.4,4.7,38.7
		c20.5,12.2,6.3,26.4,18.1,36.8c9.8,8.7,1.8-9.6,1.7-20.7c0-5.8,2.6-9.8-0.2-17.4c-2.4-6.5,4.3-17.7-2.7-22.1
		c-6.6-4.2,1.9-34.7,19.8-50.6c18.1-16.2,31.4-24.6,31.4-24.6s13.8-3.5,10.6-14.9c0,0,12.4-24.9,12.4-40V75
		c2.3-4.9,5.6-9.4,9.5-13.1C3334.2,57.9,3335.6,52.6,3333.5,47.7z"/>
	<path class="st1" d="M3220.9,163.2c0-6.5-10.9-17.3-12.6-19c-4-3.4-6.2-7.4-6.2-11.7c0-13,20.9-23.5,46.8-23.5s46.8,10.5,46.8,23.5
		c0,6.6-5.4,12.6-14.2,16.8c-10.8,6.3-15.4,18.1-22,22.4c-9.7,6.3-13.1,16.4-17.6,21.8c-10.2,12.2-5.3,21.4-3.4,26.8
		c1.9,5.2,1.8,16,2.3,19.9c0.5,4.1,4.8,16.5,4.8,16.5s-8-4.9-8.7-12.3s1-8.3-6.1-27.5c-5.4-14.4-9.8-19.7-3.1-31.2
		S3220.9,170.2,3220.9,163.2z"/>
	
		<ellipse transform="matrix(0.9752 -0.2215 0.2215 0.9752 54.7308 715.7295)" class="st2" cx="3218.3" cy="113.9" rx="27.7" ry="15.9"/>
	
		<ellipse transform="matrix(0.1913 -0.9815 0.9815 0.1913 2538.5566 3308.2327)" class="st2" cx="3276.9" cy="113.6" rx="15.9" ry="27.7"/>
	<ellipse class="st2" cx="3227.4" cy="124.6" rx="10.9" ry="19.7"/>
	<ellipse class="st2" cx="3249.6" cy="124.2" rx="10.9" ry="19.7"/>
	<ellipse class="st2" cx="3270.2" cy="123.2" rx="10.9" ry="19.7"/>
	<path class="st2" d="M3248.1,68.9c-20,0-38.7-10.1-49.7-26.8c-6.5,10-9.9,21.7-9.9,33.7c0,33.6,26.4,60.8,59,60.8s59-27.2,59-60.8
		c0-11.7-3.3-23.1-9.5-33C3286.2,59.1,3267.8,68.9,3248.1,68.9z"/>
	<path class="st3" d="M3248.1,68.9c19.7,0,38-9.8,49-26.1c-10.5-16.7-28.8-27.8-49.6-27.8c-19.9,0.1-38.5,10.3-49.1,27.1
		C3209.4,58.8,3228.1,68.9,3248.1,68.9z"/>
	
		<ellipse transform="matrix(0.6784 -0.7347 0.7347 0.6784 962.6696 2419.731)" class="st4" cx="3245.2" cy="110.3" rx="7.1" ry="4.1"/>
	
		<ellipse transform="matrix(0.6784 -0.7347 0.7347 0.6784 964.6444 2423.7959)" class="st4" cx="3250.9" cy="110" rx="4.1" ry="7.1"/>
	
		<ellipse transform="matrix(0.3017 -0.9534 0.9534 0.3017 2156.6895 3135.8203)" class="st3" cx="3219" cy="95.6" rx="15.1" ry="16.7"/>
	
		<ellipse transform="matrix(0.9333 -0.359 0.359 0.9333 184.3216 1183.4972)" class="st3" cx="3278.8" cy="95.4" rx="16.7" ry="15.1"/>
	
		<ellipse transform="matrix(0.3017 -0.9534 0.9534 0.3017 2156.6016 3136.071)" class="st4" cx="3219.2" cy="95.8" rx="10.2" ry="11.3"/>
	
		<ellipse transform="matrix(0.9974 -7.271257e-02 7.271257e-02 0.9974 1.7357 238.6814)" class="st4" cx="3279.1" cy="95.5" rx="11.3" ry="10.2"/>
	<ellipse transform="matrix(0.757 -0.6534 0.6534 0.757 770.963 2150.0457)" class="st5" cx="3276.2" cy="38.5" rx="8" ry="11.6"/>
	
		<ellipse transform="matrix(0.9752 -0.2215 0.2215 0.9752 60.7129 769.0668)" class="st2" cx="3459.1" cy="113.9" rx="27.7" ry="15.9"/>
	
		<ellipse transform="matrix(0.1913 -0.9815 0.9815 0.1913 2733.1863 3544.5496)" class="st2" cx="3517.6" cy="113.6" rx="15.9" ry="27.7"/>
	<ellipse class="st2" cx="3468.2" cy="124.6" rx="10.9" ry="19.7"/>
	<ellipse class="st2" cx="3490.3" cy="124.2" rx="10.9" ry="19.7"/>
	<ellipse class="st2" cx="3510.9" cy="123.2" rx="10.9" ry="19.7"/>
	<path class="st2" d="M3488.9,68.9c-20,0-38.7-10.1-49.7-26.8c-6.5,10-9.9,21.7-9.9,33.7c0,33.6,26.4,60.8,59,60.8s59-27.2,59-60.8
		c0-11.7-3.3-23.1-9.5-33C3526.9,59.1,3508.5,68.9,3488.9,68.9z"/>
	<path class="st3" d="M3488.9,68.9c19.7,0,38-9.8,49-26.1c-10.5-16.7-28.8-27.8-49.6-27.8c-19.9,0.1-38.5,10.3-49.1,27.1
		C3450.2,58.8,3468.8,68.9,3488.9,68.9z"/>
	
		<ellipse transform="matrix(0.6784 -0.7347 0.7347 0.6784 1040.1409 2596.6128)" class="st4" cx="3486" cy="110.2" rx="7.1" ry="4.1"/>
	
		<ellipse transform="matrix(0.6784 -0.7347 0.7347 0.6784 1042.1157 2600.6775)" class="st4" cx="3491.7" cy="110" rx="4.1" ry="7.1"/>
	
		<ellipse transform="matrix(0.3017 -0.9534 0.9534 0.3017 2324.8643 3365.3181)" class="st3" cx="3459.8" cy="95.6" rx="15.1" ry="16.7"/>
	
		<ellipse transform="matrix(0.9333 -0.359 0.359 0.9333 200.3613 1269.9113)" class="st3" cx="3519.5" cy="95.5" rx="16.7" ry="15.1"/>
	
		<ellipse transform="matrix(0.3017 -0.9534 0.9534 0.3017 2324.6641 3365.6067)" class="st4" cx="3459.9" cy="95.8" rx="10.2" ry="11.3"/>
	
		<ellipse transform="matrix(0.9974 -7.271257e-02 7.271257e-02 0.9974 2.3727 256.1842)" class="st4" cx="3519.8" cy="95.5" rx="11.3" ry="10.2"/>
	<ellipse transform="matrix(0.757 -0.6534 0.6534 0.757 829.434 2307.3352)" class="st5" cx="3516.9" cy="38.5" rx="8" ry="11.6"/>
	<rect y="0" class="st6" width="119.4" height="301.1"/>
	<path class="st0" d="M1648.3,47.7c-5.7-12.9-20.6-34.9-57-42.7c-45-9.7-71.1,7.3-80.8,16c-14.4,12.2-22.7,30.2-22.7,49.1v28.2
		c0,14.5,4.9,28.6,13.9,40c-2.1,3.4,11,16.4,11,16.4s6.5,12.6,25.3,27.1c18.9,14.7,32.1,42.3,25.5,46.4c-7,4.5,11.7,15.7,9.3,22.1
		c-2.9,7.6-4.2,12.7-4.3,18.5c0,11.1-5,30.4,4.8,21.7c11.8-10.4-11-19.3,9.5-31.5c8.8-5.3,2.3-13.2-5.7-25.9
		c-1.9-3-5.1-10.8,18.2-27.4s11.8-21.5,6.9-32.4c-5.2-11.4,7.1-17.5,7.3-23.7c16.1-12.2,25.6-31.2,25.6-51.4V75
		c2.3-4.9,5.6-9.4,9.5-13.1C1649.1,57.9,1650.5,52.6,1648.3,47.7z"/>
	<path class="st1" d="M1588.7,165.1c0.2-6.2,10.9-19.2,12.6-20.8c4-3.4,6.2-7.4,6.2-11.7c0-13-20.9-23.5-46.8-23.5
		s-46.8,10.5-46.8,23.5c0,6.5,11.2,14.9,13.7,16.6c7.1,4.9,5.5,16,28.9,33.4c11.5,8.6,13.2,37.2,11.9,42.8c-1.2,5.3,2.2,11.6,6.6,17
		c4.6,5.7,1.1,13,0.7,15.4c-0.3,1.5,8.2-8.6,4.3-12.7c-10.3-10.9-9.1-28.8-3.1-34.2C1604.5,185.9,1588.3,177.6,1588.7,165.1z"/>
	
		<ellipse transform="matrix(0.9752 -0.2215 0.2215 0.9752 12.862 342.3323)" class="st2" cx="1532.7" cy="113.8" rx="27.7" ry="15.9"/>
	
		<ellipse transform="matrix(0.1913 -0.9815 0.9815 0.1913 1175.3324 1653.7589)" class="st2" cx="1591.3" cy="113.6" rx="15.9" ry="27.7"/>
	<ellipse class="st2" cx="1541.8" cy="124.6" rx="10.9" ry="19.7"/>
	<ellipse class="st2" cx="1563.9" cy="124.2" rx="10.9" ry="19.7"/>
	<ellipse class="st2" cx="1584.5" cy="123.2" rx="10.9" ry="19.7"/>
	<path class="st2" d="M1562.5,68.9c-20,0-38.7-10.1-49.7-26.8c-6.5,10-9.9,21.7-9.9,33.7c0,33.6,26.4,60.8,59,60.8s59-27.2,59-60.8
		c0-11.7-3.3-23.1-9.5-33C1600.5,59.1,1582.1,68.9,1562.5,68.9z"/>
	<path class="st3" d="M1562.5,68.9c19.7,0,38-9.8,49-26.1C1601,26.1,1582.7,15,1561.9,15c-19.9,0.1-38.5,10.3-49.2,27.1
		C1523.7,58.8,1542.4,68.9,1562.5,68.9z"/>
	
		<ellipse transform="matrix(0.6784 -0.7347 0.7347 0.6784 420.5737 1181.3033)" class="st4" cx="1559.6" cy="110.3" rx="7.1" ry="4.1"/>
	
		<ellipse transform="matrix(0.6784 -0.7347 0.7347 0.6784 422.5437 1185.3639)" class="st4" cx="1565.2" cy="110" rx="4.1" ry="7.1"/>
	
		<ellipse transform="matrix(0.3017 -0.9534 0.9534 0.3017 979.563 1528.5245)" class="st3" cx="1533.2" cy="95.6" rx="15.1" ry="16.7"/>
	
		<ellipse transform="matrix(0.9333 -0.359 0.359 0.9333 71.9407 578.3121)" class="st3" cx="1593.1" cy="95.5" rx="16.7" ry="15.1"/>
	
		<ellipse transform="matrix(0.3017 -0.9534 0.9534 0.3017 979.517 1528.8737)" class="st4" cx="1533.5" cy="95.8" rx="10.2" ry="11.3"/>
	
		<ellipse transform="matrix(0.9974 -7.271257e-02 7.271257e-02 0.9974 -2.7268 116.1064)" class="st4" cx="1593.3" cy="95.5" rx="11.3" ry="10.2"/>
	<ellipse transform="matrix(0.757 -0.6534 0.6534 0.757 361.35 1048.5927)" class="st5" cx="1590.5" cy="38.5" rx="8" ry="11.6"/>
</g>
</svg>
