<?xml version="1.0" encoding="utf-8"?>
<!-- Generator: Adobe Illustrator 24.1.3, SVG Export Plug-In . SVG Version: 6.00 Build 0)  -->
<svg version="1.1" id="Calque_1" xmlns="http://www.w3.org/2000/svg" xmlns:xlink="http://www.w3.org/1999/xlink" x="0px" y="0px"
	 viewBox="0 0 252.3 307.5" style="enable-background:new 0 0 252.3 307.5;" xml:space="preserve">
<style type="text/css">
	.st0{fill:#FFFFFF;}
</style>
<path class="st0" d="M183.4,87c-9.4,5.4-18,10.5-26.7,15.5c-9.3,5.4-18.7,10.7-27.9,16.2c-1.9,1.1-3.3,1.4-5.4,0.1
	c-16.8-9.8-33.6-19.5-50.4-29.3c-3.6-2.1-3.6-2.5-0.2-4.5c14.5-8.7,29.4-16.7,44.4-24.5c1.4-0.7,2.8-1.7,4-2.6
	c3.2-2.4,6.2-2.7,9.4,0c5.6,4.6,12.6,6.6,18.8,10.2C160.3,74.5,171.6,80.5,183.4,87z"/>
<path class="st0" d="M64.7,125.4c0-9.2,0.1-18.5-0.1-27.7c-0.1-3.4,0.8-3.4,3.5-1.9c17,9.9,34.1,19.8,51.1,29.5
	c2,1.1,2.8,2.4,2.8,4.7c-0.1,18.2-0.1,36.4,0,54.6c0,2.7-0.6,3-2.9,1.7c-17.4-9.6-34.8-19.2-52.2-28.7c-1.8-1-2.3-2.2-2.3-4.2
	C64.7,144.1,64.6,134.8,64.7,125.4C64.7,125.4,64.7,125.4,64.7,125.4z"/>
<path class="st0" d="M187.2,125.6c0,9.2-0.1,18.5,0.1,27.7c0,2.3-0.8,3.6-2.8,4.7c-13.7,7.4-27.3,15-41,22.4
	c-3.9,2.1-8,3.6-11.5,6.4c-1.4,1.1-2.2,0.7-2.2-1.2c0-18.8,0-37.7,0-56.5c0-1.6,0.8-2.4,2.1-3.2c17.5-10.1,35-20.1,52.4-30.3
	c3-1.7,2.9-0.3,2.9,2C187.2,106.9,187.2,116.2,187.2,125.6z"/>
<path class="st0" d="M129.7,28.6c0-5.6,0-11.2,0-16.8c0-2.2,0.5-3,2.8-1.7c28.9,16.4,57.8,32.7,86.7,49.1c6.1,3.5,6.1,3.6,0.1,7.1
	c-8.4,4.9-16.9,9.6-25.3,14.3c-1.5,0.8-2.8,1.3-4.5,0.4c-18.7-10.3-37.5-20.6-56.3-30.8c-2.6-1.4-3.5-3.2-3.4-6
	C129.8,39.1,129.7,33.9,129.7,28.6C129.7,28.6,129.7,28.6,129.7,28.6z"/>
<path class="st0" d="M26.8,62.7C38.1,56.3,48.6,50.4,59,44.5c14.5-8.2,28.9-16.5,43.4-24.8c5.7-3.3,11.5-6.4,17.2-9.7
	c1.8-1,2.5-0.5,2.5,1.4c0,11.7,0,23.4,0,35.1c0,1.6-1,2.5-2.2,3.1c-19.2,10.5-38.3,21.1-57.5,31.6c-1.2,0.7-2.4,0.8-3.6,0.2
	C48.3,75.3,37.8,69.1,26.8,62.7z"/>
<path class="st0" d="M229.1,124.8c0,16.7,0,33.4,0,50.1c0,1.3,0.8,3-0.6,3.8c-1.2,0.6-2.2-0.8-3.2-1.4c-9-5.1-17.9-10.3-26.9-15.3
	c-2.1-1.2-3-2.4-3-4.9c0.1-21.3,0.1-42.6,0-63.9c0-2.7,0.9-4.2,3.3-5.5c9.1-5.1,18.1-10.4,27.1-15.7c2.8-1.7,3.5-1,3.5,2.1
	C229.1,90.9,229.1,107.9,229.1,124.8z"/>
<path class="st0" d="M22.6,124.6c0-16.8,0-33.6,0-50.5c0-1.1-0.5-2.5,0.5-3.1c1.1-0.7,2,0.5,3,1c9.2,5.3,18.3,10.6,27.5,15.8
	c2,1.1,2.8,2.3,2.8,4.7c-0.1,21.6-0.1,43.1,0,64.7c0,2.3-0.8,3.5-2.8,4.7c-9.2,5.2-18.4,10.5-27.5,15.8c-0.9,0.5-1.9,1.7-3,1
	c-1.1-0.7-0.5-2.1-0.5-3.1C22.6,158.5,22.6,141.6,22.6,124.6z"/>
<path class="st0" d="M29,185.4c9.6-5.5,18.9-10.4,27.6-16.1c5.4-3.6,9.4-3.3,15-0.1c15.8,9.3,32,17.8,48,26.6c1.8,1,2.5,2.5,2.5,4.6
	c-0.1,11.2-0.1,22.4,0,33.7c0,3-0.8,3.5-3.5,2c-10-5.7-20.2-11.4-30.2-17.1c-14.8-8.4-29.7-16.8-44.5-25.2
	C39.2,191.2,34.5,188.5,29,185.4z"/>
<path class="st0" d="M222.8,185.4c-31.1,17.6-61.5,34.8-91.9,51.9c-2.2-2.9-0.7-5.6-0.7-8.2c-0.1-9.3,0.2-18.7-0.6-28
	c-0.3-2.9,1.1-4.6,3.5-5.9c17.1-9.4,34.3-18.8,51.4-28.2c1.7-0.9,3.2-1.8,5.2-0.6C200.5,172.6,211.3,178.8,222.8,185.4z"/>
<path class="st0" d="M33.2,277.2c-1.7,6-3.2,11-4.5,16c-0.6,2.4-1.9,3.3-4.2,2.9c-2.5-0.4-5.8,1.5-7-2.8c-2.2-8.4-4.7-16.8-7.3-25.1
	c-0.6-2.1-0.3-2.8,1.8-2.7c1.2,0.1,2.5,0.2,3.7,0c2.4-0.3,3.3,0.8,3.7,3c1.2,5.5,2.5,10.9,4.1,17.4c1.8-6.2,3.5-11.3,4.6-16.6
	c0.7-3.4,2.6-3.8,5.5-3.9c3.2-0.1,4,1.5,4.6,4c1.2,4.7,2.5,9.4,3.8,14.1c1.3-0.3,1.4-1.3,1.7-2.2c0.8-3.3,1.7-6.5,2.6-9.8
	c1.7-6.6,1.9-6.7,8.8-6c1.7,0.2,1.8,0.6,1.3,2.1c-2.6,8.5-5.2,17.1-7.8,25.7c-1.2,4.1-4.7,2.6-7.4,3c-2.6,0.3-3.1-1.3-3.6-3.3
	C36.3,288,34.9,283.1,33.2,277.2z"/>
<path class="st0" d="M98.1,267.5c3-1.6,5.7-2.7,8.8-2.6c6.4,0.2,11.1,3.1,13.3,8.9c2.7,6.9,1.1,14.6-3.9,19.3
	c-4.2,4-10.5,5-15.9,2.3c-1.3-0.6-2-0.6-3.5,0.2c-4.1,2.3-7.3,0.3-7.3-4.4c0-11.3,0.2-22.7-0.1-34c-0.1-3.8,1.9-3.5,4.4-3.5
	c2.7-0.1,4.6,0,4.3,3.6C97.8,260.6,98.1,263.8,98.1,267.5z M113,280.8c0-5-3-8.5-7.4-8.6c-4.6-0.1-7.8,3.5-7.7,8.7
	c0.1,5.1,3.4,8.7,7.8,8.6C109.9,289.4,113,285.7,113,280.8z"/>
<path class="st0" d="M132.5,294.1c0,3.3-0.1,6.6,0,9.8c0.1,2.2-0.6,3.2-3,3c-5.6-0.3-5.6,1.5-5.6-5.6c0-10.7,0-21.4,0-32.2
	c0-1.2-0.8-3.2,1.1-3.4c2.2-0.3,4.7-1,6.7,0.7c0.5,0.4,0.1,1.6,1.5,0.7c5.9-3.6,11.8-3.3,17,1.1c5.6,4.8,6.4,11.2,4.7,18.1
	C152.9,294.7,143.1,300.7,132.5,294.1z M147.3,280.7c0-5-3.1-8.5-7.5-8.5c-4.5,0-7.8,3.7-7.7,8.7c0.1,5.1,3.4,8.7,7.9,8.5
	C144.2,289.3,147.3,285.6,147.3,280.7z"/>
<path class="st0" d="M223.8,276.3c1.5-2,3.4-3.7,4.4-5.9c2.8-5.7,7.7-5.2,13.2-4.6c-3.1,3.9-5.8,7.6-8.7,11
	c-1.5,1.8-1.7,3.1-0.2,5.1c3.3,4.3,6.3,8.9,9.4,13.5c-7,1.9-9.1,1.2-12.6-4.2c-1.8-2.7-3.6-5.4-5.4-8.1c-0.1-0.2-0.4-0.2-1.1-0.7
	c0,3.6-0.2,6.9,0.1,10.2c0.3,3.7-1.7,3.5-4.3,3.6c-2.8,0.1-4.2-0.3-4.2-3.7c0.2-11.6,0.1-23.2,0-34.8c0-2.3,0.4-3.3,3-3.2
	c6.6,0.3,5.3-0.6,5.4,5.3c0.1,5.4,0,10.9,0,16.3C223.2,276.1,223.5,276.2,223.8,276.3z"/>
<path class="st0" d="M183.5,284.9c0,2.9-0.1,5.7,0,8.6c0.1,2-0.7,2.8-2.6,2.6c-4-0.5-7.8,0-11.8,0.8c-6.2,1.2-12.2-3.6-12.4-9.5
	c-0.2-6.8,3.8-10.3,10.5-11c1.9-0.2,3.7-0.2,5.6,0.5c0.7,0.2,1.6,0.7,2-0.2c0.3-0.5,0-1.5-0.3-2.1c-1.2-2.6-5.1-3.7-9.4-1.7
	c-3.5,1.6-4.5-0.2-5.8-2.6c-0.7-1.4-0.6-2.3,0.8-3c5.8-2.7,11.7-3.6,17.7-1.1c4.5,1.8,5.3,6,5.6,10.2
	C183.7,279.2,183.5,282.1,183.5,284.9C183.5,284.9,183.5,284.9,183.5,284.9z M170.3,282.3c-2.7,0-4.7,0.9-5,3.8
	c-0.2,2.3,2.3,4.4,5.1,4.1c2.5-0.2,4.8-1.1,4.7-4.1C175.1,283.2,172.9,282.4,170.3,282.3z"/>
<path class="st0" d="M75.9,283c-2.5,0-5,0.1-7.5,0c-3-0.1-2.8,1.2-1.6,3.1c2.4,4,8.1,4.9,11.9,1.5c3.6-3.3,5,0.5,6.5,1.8
	c2,1.7-0.8,3-1.9,3.9c-5.3,4.2-11.3,4.9-17.5,2.1c-6-2.7-8.6-7.9-8.6-14.1c-0.1-6.5,2-12,8.4-15c10.6-5,22,2.5,21.6,14.2
	c-0.1,2-0.8,2.6-2.6,2.6C81.6,282.9,78.7,283,75.9,283z M72.4,271.7c-2.6,0-4.5,1.2-5.7,3.5c-0.9,1.5-0.6,2.2,1.3,2.2
	c2.3-0.1,4.7,0.1,7.1-0.1c1.1-0.1,2.9,0.8,3.3-0.6c0.3-1.2-0.8-2.5-1.9-3.4C75.3,272.1,73.9,271.7,72.4,271.7z"/>
<path class="st0" d="M209.4,274.9c-1-0.5-1.7-1-2.4-1.4c-4.1-2.1-8.1-1.6-10.6,1.3c-2.4,2.8-2.7,7.6-0.7,10.8
	c2.1,3.3,6,4.4,10.2,3.1c1.6-0.5,3.4-3,4.8,0.6c1.1,3.1,1,4.9-2.5,6.3c-7.1,2.7-15.1,0.7-19.4-5.3c-4.2-5.9-3.8-15.2,0.9-20.5
	c4.7-5.4,13.6-6.8,20.2-3.3c1.4,0.7,2.1,1.6,1.5,3.3C210.6,271.5,210.1,273.2,209.4,274.9z"/>
</svg>
